<svg xmlns="http://www.w3.org/2000/svg" xmlns:xlink="http://www.w3.org/1999/xlink" version="1.1" width="97.12021397891901" height="155.68546056095025" viewBox="0.22263598768282988 0.8262860807614432 97.12021397891901 155.68546056095025">
  <!-- Exported by Scratch - http://scratch.mit.edu/ -->
  <g id="ID0.07284071715548635">
    <path id="ID0.658142592292279" fill="#E5E5E5" stroke="#000000" stroke-width="2.015294545325258" stroke-linecap="round" d="M 49.1501 1.8558 C 56.7963 1.5791 65.3038 3.948 70.6274 7.8494 C 77.5647 12.9593 83.4732 20.2278 83.1258 27.516 C 82.9554 31.0101 73.6902 28.9114 69.0358 30.0753 C 62.6537 31.6663 57.4091 34.8119 49.9053 34.9744 C 42.4015 35.1368 37.1547 31.8442 30.5806 30.9076 C 26.6538 30.3451 19.2271 34.0322 18.6253 31.1585 C 17.1523 24.0866 19.7842 16.1053 25.7668 10.5052 C 31.0769 5.5307 40.5308 2.5416 49.1501 1.8558 Z "/>
    <path id="ID0.7462119464762509" fill="#000000" stroke="none" d="M 40.3643 130.0301 C 41.1211 130.0301 41.8074 130.2573 42.3041 130.6247 C 42.8009 130.9917 43.1082 131.4985 43.1082 132.0583 C 43.1082 132.618 42.8009 133.1248 42.3041 133.4918 C 41.8074 133.8593 41.1211 134.0864 40.3643 134.0864 C 39.6074 134.0864 38.9212 133.8593 38.4244 133.4918 C 37.9276 133.1248 37.6203 132.618 37.6203 132.0583 C 37.6203 131.4985 37.9276 130.9917 38.4244 130.6247 C 38.9212 130.2573 39.6074 130.0301 40.3643 130.0301 Z " stroke-width="0.477212131023407"/>
    <path id="ID0.7580867386423051" fill="#F6DEBF" stroke="#000000" stroke-width="1.431636393070221" stroke-linecap="round" d="M 10.3262 64.81 C 8.6688 63.6589 6.1697 64.0483 4.2417 64.6907 C 3.0287 65.0953 2.4684 66.6153 1.975 67.7925 C 1.4543 69.0486 1.1284 70.7231 1.2592 72.3261 C 1.3756 73.5224 1.9187 74.6835 2.6908 75.9052 C 3.4648 77.1073 4.582 78.1223 5.7927 78.8877 C 6.7046 79.4613 7.6638 79.7586 8.6559 79.8422 C 9.796 79.9304 10.8793 79.7162 11.8771 79.3649 C 12.7099 79.0662 13.398 77.5229 14.0246 77.9333 C 15.0539 78.6434 14.7328 80.474 15.3369 81.6317 C 16.6158 84.0808 18.0957 86.4458 19.8704 88.5513 C 22.0952 91.196 24.4946 93.9032 27.5058 95.7095 C 31.0367 98.022 35.0949 99.5085 39.1975 100.7202 C 42.3982 101.6646 45.1651 102.0292 49.0997 102.2711 C 52.0975 102.4296 54.3347 102.0659 56.8544 101.436 C 59.7821 100.704 61.302 100.0755 65.3249 98.2148 C 67.7773 97.0423 69.0953 95.8135 70.6935 94.2778 C 71.8264 93.1879 72.5618 92.169 73.5568 90.6987 C 74.4272 88.9054 74.8257 86.9884 75.4656 85.2108 C 75.7462 84.2917 75.3688 82.9975 76.1815 82.3475 C 77.081 81.6956 77.9343 82.243 78.8061 82.3475 C 79.8464 82.243 80.6601 82.4072 81.908 82.3475 C 83.4966 82.2545 85.1559 82.2368 86.6801 81.751 C 88.1141 81.2809 89.3539 80.5923 90.3785 79.6035 C 92.0354 78.003 93.7739 76.1256 94.6734 73.877 C 95.5047 71.8803 96.2563 69.4232 95.3892 67.3153 C 94.5856 65.3697 92.3026 63.8031 90.2592 63.6169 C 88.0077 63.427 86.0707 65.2452 84.1748 66.3609 C 82.6066 67.2786 81.1736 70.2015 79.9992 69.8207 C 78.7131 69.3149 79.3979 66.4029 79.2833 64.81 C 79.1072 62.632 78.5384 60.465 78.9254 58.3676 C 79.1359 57.3406 82.1409 56.9479 81.6933 55.8622 C 79.6613 52.8887 76.4983 50.3738 73.2705 49.1097 C 68.538 47.2495 63.1741 47.0849 58.119 47.1531 C 50.9145 47.25 43.7005 50.9999 36.6922 50.255 C 33.0863 49.8642 30.2918 46.7766 27.2672 44.7671 C 25.9014 43.8594 25.0382 42.0069 23.4495 41.6652 C 22.7122 41.5082 22.6297 43.0419 22.4951 43.8126 C 22.2197 45.4939 22.517 47.3063 22.2565 49.062 C 21.7196 51.8541 21.1322 54.684 20.109 57.4132 C 19.2768 59.6351 17.8175 61.5621 16.6492 63.6169 C 16.3252 64.201 15.6619 64.7279 15.6948 65.4065 C 15.7688 67.0595 17.5245 68.672 17.0072 70.2979 C 16.5996 71.3368 14.5571 71.9839 13.6667 71.2523 C 11.7941 69.7281 12.3257 66.2316 10.3262 64.81 Z "/>
    <path id="ID0.9240895360708237" fill="#E5E5E5" stroke="#000000" stroke-width="1.3360807090746953" stroke-linecap="round" d="M 13.6257 71.5927 C 14.0566 71.9615 14.8521 71.4049 15.4152 71.2845 C 16.0504 71.0613 17.1747 71.0691 17.2048 70.5651 C 17.2687 68.8987 15.6075 67.2636 15.7731 65.7353 C 15.8886 64.7061 17.1819 64.018 17.8013 63.1663 C 18.7328 61.7568 19.6047 60.4867 20.4259 58.953 C 21.0902 57.7035 20.9805 56.021 21.9769 55.0481 C 30.6264 50.772 31.7196 53.0923 36.6512 53.0956 C 41.691 53.0973 47.0906 54.2437 52.3037 54.8015 C 56.6168 55.2598 61.2772 55.8143 65.785 56.014 C 68.6415 56.1402 71.2705 55.0279 73.6351 55.7674 C 75.9195 56.3877 77.8174 58.1013 78.6458 59.7751 C 79.615 61.7712 79.2204 64.0804 79.4809 66.2491 C 79.6208 67.4144 79.0548 69.1248 79.9582 69.743 C 80.7513 70.2486 82.0918 69.1487 82.9407 68.6127 C 84.0727 67.8966 84.6038 66.823 85.9233 66.0436 C 86.8582 65.4858 87.9796 65.1964 89.0252 64.8105 C 89.9271 64.4775 90.8792 65.0937 91.7692 63.8856 C 97.8283 51.5509 96.5169 47.6011 95.3244 41.9768 C 94.1943 37.5823 91.1578 33.4003 88.3094 29.9125 C 85.8169 26.8741 83.2862 23.2782 79.2423 21.9177 C 70.7484 19.0592 61.5988 17.9325 52.3992 17.2317 C 47.6972 16.8749 42.9298 17.7032 38.3214 18.6704 C 32.9986 19.7868 27.5226 20.8818 22.812 23.3974 C 17.0683 26.6057 11.5517 30.5336 7.5412 35.5233 C 4.7777 38.9634 4.0905 43.3953 3.7235 47.6492 C 3.3599 51.4194 4.3678 55.3502 5.3938 59.1586 C 5.88 60.9376 7.0516 62.5481 8.257 64.0911 C 8.9342 64.9552 10.2432 65.2893 11.001 66.0436 C 11.6615 66.7929 12.0318 67.7096 12.4326 68.5099 C 12.9184 69.5194 12.7829 70.8664 13.6257 71.5927 Z "/>
    <path id="ID0.48109486093744636" fill="#000000" stroke="none" d="M 37.1632 63.5417 C 37.8052 63.5417 38.3875 64.0495 38.8089 64.8704 C 39.2304 65.6909 39.4912 66.8245 39.4912 68.0753 C 39.4912 69.326 39.2304 70.4596 38.8089 71.2801 C 38.3875 72.101 37.8052 72.6088 37.1632 72.6088 C 36.5211 72.6088 35.9389 72.101 35.5174 71.2801 C 35.0959 70.4596 34.8351 69.326 34.8351 68.0753 C 34.8351 66.8245 35.0959 65.6909 35.5174 64.8704 C 35.9389 64.0495 36.5211 63.5417 37.1632 63.5417 Z " stroke-width="0.49010974168777466"/>
    <path id="ID0.48109486093744636" fill="#000000" stroke="none" d="M 57.9632 62.3917 C 58.6052 62.3917 59.1875 62.8995 59.6089 63.7204 C 60.0304 64.5409 60.2912 65.6745 60.2912 66.9253 C 60.2912 68.176 60.0304 69.3096 59.6089 70.1301 C 59.1875 70.951 58.6052 71.4588 57.9632 71.4588 C 57.3211 71.4588 56.7389 70.951 56.3174 70.1301 C 55.8959 69.3096 55.6351 68.176 55.6351 66.9253 C 55.6351 65.6745 55.8959 64.5409 56.3174 63.7204 C 56.7389 62.8995 57.3211 62.3917 57.9632 62.3917 Z " stroke-width="0.49010974168777466"/>
    <g id="ID0.09173762425780296">
      <path id="ID0.2451545875519514" fill="none" stroke="#000000" stroke-width="0.790102170857244" stroke-linecap="round" d="M 40.3727 86.8196 C 40.3727 86.8196 42.3435 88.8947 43.5916 89.6453 C 44.7468 90.3176 45.8541 90.9909 47.1604 91.1811 C 48.8589 91.3315 50.6749 91.3147 52.2687 90.6282 C 54.6 89.6087 58.1467 86.0824 58.1467 86.0824 "/>
      <path id="ID0.6410949653945863" fill="none" stroke="#000000" stroke-width="0.790102170857244" stroke-linecap="round" d="M 41.3524 86.0824 C 41.3524 86.0824 40.4847 86.4375 40.0228 86.7581 C 39.6606 87.0338 39.414 87.4255 39.0432 87.6796 C 38.9505 87.7432 38.9732 87.6796 38.9732 87.6796 "/>
      <path id="ID0.6410949653945863" fill="none" stroke="#000000" stroke-width="0.7868703210292023" stroke-linecap="round" d="M 59.691 86.0871 C 59.691 86.0871 58.6629 85.6511 58.1502 85.4773 C 57.7313 85.3353 56.8952 85.1077 56.8952 85.1077 "/>
    </g>
    <path id="ID0.2159977899864316" fill="#CCFFFF" stroke="#000000" stroke-width="0.9544242263233558" stroke-linecap="round" d="M 37.1766 108.5027 C 38.1578 107.591 38.871 105.6836 40.2679 105.9257 C 42.2267 106.2712 43.1136 108.7422 44.7337 109.8967 C 45.4526 110.4115 47.0268 109.8645 47.0314 110.6425 C 47.194 112.7984 46.0894 114.8435 45.1228 116.7318 C 44.0874 118.7553 42.5824 120.6564 41.0502 122.484 C 39.6852 124.0143 38.3699 125.9129 36.463 126.7682 C 35.1271 127.3637 33.5573 127.2376 32.2886 126.6706 C 30.531 125.8829 29.603 124.16 28.1978 122.9949 C 27.0307 122.0464 24.5815 121.8572 24.2466 120.4919 C 24.1138 119.282 26.3266 118.6389 27.2443 117.8412 C 28.3482 116.8785 29.1997 116.3754 30.6508 115.0568 C 32.8626 112.8873 34.7605 110.7179 37.1766 108.5027 Z "/>
    <path id="ID0.8932876517064869" fill="#CCFFFF" stroke="#000000" stroke-width="0.9544242666970598" stroke-linecap="round" d="M 71.4786 111.6088 C 73.4468 112.485 76.35 112.0355 77.5352 113.943 C 78.5301 115.5473 77.0587 117.759 76.2398 119.4505 C 75.1384 121.7236 73.7497 123.939 71.7815 125.5062 C 71.1519 126.1015 70.0299 125.6593 69.2085 125.3042 C 66.7628 124.2485 64.4434 122.9049 62.2077 121.4686 C 60.2917 120.2358 57.7301 119.5043 56.8822 117.4327 C 56.1349 115.532 57.5647 113.3501 58.1543 111.3758 C 58.6833 109.6044 58.468 107.0797 60.0493 106.2639 C 61.4658 105.5085 62.9952 107.4785 64.3504 108.1283 C 66.7358 109.2677 69.089 110.539 71.4786 111.6088 Z "/>
    <path id="ID0.08180127292871475" fill="#CCFFFF" stroke="#000000" stroke-width="0.954424262046814" stroke-linecap="round" d="M 51.8436 104.7765 C 55.4175 104.6104 59.3406 104.6161 62.4616 106.4467 C 64.3165 107.3959 64.4611 110.105 65.0863 112.1733 C 65.6933 114.18 65.9386 115.9447 66.16 118.377 C 66.4363 122.0998 67.5396 126.0854 66.2793 129.5915 C 65.7434 130.9926 63.4237 130.0348 61.9844 130.0687 C 58.5327 130.3531 55.0524 130.2472 51.605 130.5459 C 48.4621 130.818 45.2629 131.5276 42.0608 131.8583 C 40.4593 132.0053 37.7143 133.4999 36.9308 131.9776 C 35.166 128.43 35.8752 124.1055 35.857 120.1666 C 36.0312 115.8812 34.3805 110.3561 37.408 107.4012 C 40.904 103.9881 46.9632 105.0041 51.8436 104.7765 Z "/>
    <path id="ID0.4515534657984972" fill="#CCFFFF" stroke="none" stroke-linecap="round" d="M 42.7766 112.5312 L 59.479 111.8154 L 59.5983 117.184 L 54.5876 117.6612 L 53.8718 126.6089 L 47.1908 127.4441 L 49.219 124.3422 L 49.9348 117.6612 L 41.1064 118.6156 L 42.7766 112.5312 Z " stroke-width="0.477212131023407"/>
    <path id="ID0.9750711899250746" fill="#F6DEBF" stroke="#000000" stroke-width="0.954424262046814" d="M 49.9348 102.3904 C 51.0371 102.3513 52.3829 101.5782 53.156 102.2711 C 54.1672 103.257 54.1114 104.9807 54.1104 106.3274 C 54.1586 107.383 54.2397 108.7655 53.3607 109.3988 C 52.1977 110.2372 50.4807 110.7011 49.0997 110.1451 C 47.7258 109.6517 46.8243 108.1217 46.2364 106.6853 C 45.7301 105.4336 45.2252 103.6059 46.1171 102.629 C 46.9804 101.6889 48.6697 102.4315 49.9348 102.3904 Z "/>
    <path id="ID0.3466710573993623" fill="#99B2FF" stroke="#000000" stroke-width="1.431636393070221" stroke-linecap="round" d="M 64.1796 133.8864 L 57.6656 149.539 L 70.789 153.8339 L 70.8367 155.0269 L 67.4485 155.0269 L 33.3755 155.5041 L 33.3755 155.1701 L 44.9241 148.68 L 42.5857 138.9449 C 41.7931 135.6535 40.4163 134.0353 41.9892 132.6218 C 44.6081 130.2711 48.9064 130.4433 52.5595 130.2358 C 56.5232 130.001 60.6549 130.1031 64.5852 131.3095 C 65.5678 131.6111 64.6697 132.5617 64.1796 133.8864 Z "/>
    <path id="ID0.8156251180917025" fill="none" stroke="#000000" stroke-width="1.431636393070221" stroke-linecap="round" d="M 51.7005 154.4065 L 51.4619 136.2009 "/>
    <path id="ID0.01869329297915101" fill="#000000" stroke="#000000" stroke-width="0.7928841317146534" d="M 51.867 134.62 C 52.9631 134.62 53.9562 134.7023 54.6754 134.8357 C 55.3945 134.9687 55.8398 135.1526 55.8398 135.3557 C 55.8398 135.5587 55.3945 135.7426 54.6754 135.8756 C 53.9562 136.009 52.9631 136.0914 51.867 136.0914 C 50.7708 136.0914 49.7777 136.009 49.0586 135.8756 C 48.3394 135.7426 47.8942 135.5587 47.8942 135.3557 C 47.8942 135.1526 48.3394 134.9687 49.0586 134.8357 C 49.7777 134.7023 50.7708 134.62 51.867 134.62 Z "/>
    <path id="ID0.7412803694605827" fill="none" stroke="#000000" stroke-width="0.5614777207374573" stroke-linecap="round" d="M 34.8448 73.4594 C 34.8448 73.4594 35.3995 73.8137 35.715 73.8524 C 36.2844 73.9226 36.7835 73.6885 37.3153 73.7401 C 37.9211 73.7991 38.9716 74.1612 38.9716 74.1612 "/>
    <path id="ID0.7412803694605827" fill="none" stroke="#000000" stroke-width="0.5614777207374573" stroke-linecap="round" d="M 34.4448 74.4094 C 34.4448 74.4094 34.9995 74.7637 35.315 74.8024 C 35.8844 74.8726 36.3835 74.6385 36.9153 74.6901 C 37.5211 74.7491 38.5716 75.1112 38.5716 75.1112 "/>
    <g id="ID0.2169559122994542">
      <path id="ID0.7412803694605827" fill="none" stroke="#000000" stroke-width="0.5614777207374573" stroke-linecap="round" d="M 60.5552 72.7094 C 60.5552 72.7094 60.0005 73.0637 59.685 73.1024 C 59.1156 73.1726 58.6165 72.9385 58.0847 72.9901 C 57.4789 73.0491 56.4284 73.4112 56.4284 73.4112 "/>
      <path id="ID0.7412803694605827" fill="none" stroke="#000000" stroke-width="0.5614777207374573" stroke-linecap="round" d="M 61.0052 73.7094 C 61.0052 73.7094 60.4505 74.0637 60.135 74.1024 C 59.5656 74.1726 59.0665 73.9385 58.5347 73.9901 C 57.9289 74.0491 56.8784 74.4112 56.8784 74.4112 "/>
    </g>
    <g id="ID0.6501310784369707">
      <path id="ID0.11016997741535306" fill="#F6DEBF" stroke="#000000" stroke-width="0.6066628125899219" stroke-linecap="round" d="M 26.2406 118.3953 C 27.0739 118.343 27.5719 119.4497 28.0764 120.1197 C 28.9701 121.3057 29.7346 122.7091 30.5205 124.0333 C 31.1052 125.0232 31.9645 125.8829 32.1335 126.9894 C 32.2141 127.5123 31.7083 128.0214 31.2638 128.1954 C 30.856 128.366 30.3799 128.0512 30.0535 127.8312 C 29.4848 127.442 28.9232 126.9463 28.5283 126.4432 C 27.9523 125.7089 27.5971 124.8088 27.0824 124.0547 C 26.6275 123.3515 26.052 122.7402 25.6129 122.0604 C 25.284 121.5505 24.6814 121.0624 24.7775 120.4153 C 24.9039 119.5948 25.434 118.4468 26.2406 118.3953 Z "/>
      <path id="ID0.8213719581253827" fill="#F6DEBF" stroke="#000000" stroke-width="0.6186322260648264" stroke-linecap="round" d="M 22.2951 122.3182 C 23.0568 121.6798 23.806 120.7812 24.8295 120.739 C 25.34 120.6475 25.5501 121.5339 25.7699 122.0152 C 25.897 122.3008 25.821 122.522 25.8485 122.7737 C 25.8769 123.0875 26.2937 123.2418 26.0124 123.5175 C 24.8868 124.6227 23.694 125.7721 22.2607 126.3779 C 21.7315 126.5711 21.1186 126.0553 20.7666 125.6538 C 20.473 125.3137 20.3049 124.7403 20.4685 124.3366 C 20.8414 123.5116 21.6195 122.8848 22.2951 122.3182 Z "/>
      <path id="ID0.8213719581253827" fill="#F6DEBF" stroke="#000000" stroke-width="0.6186322260648264" stroke-linecap="round" d="M 23.7343 125.7015 C 24.6835 125.0777 25.4434 124.0675 26.5652 123.8077 C 26.9289 123.6453 27.1602 124.2679 27.3699 124.6652 C 27.4939 124.9023 27.421 125.172 27.4485 125.4237 C 27.4769 125.7375 27.8889 125.8957 27.6124 126.1675 C 26.5033 127.2674 25.2634 128.4312 23.7834 129.0272 C 23.3352 129.2084 22.8814 128.6014 22.5763 128.1973 C 22.2373 127.7424 21.8628 127.0897 22.0567 126.5534 C 22.3605 126.0183 23.2244 126.0373 23.7343 125.7015 Z "/>
      <path id="ID0.8213719581253827" fill="#F6DEBF" stroke="#000000" stroke-width="0.6186322260648264" stroke-linecap="round" d="M 26.124 127.8625 C 26.816 127.325 27.0561 126.184 27.8795 125.839 C 28.2733 125.6752 28.6699 126.2755 28.7943 126.6633 C 28.9856 127.2947 29.0199 128.0874 28.6076 128.626 C 27.9095 129.7075 26.906 130.6801 25.6843 131.2026 C 25.1461 131.4297 24.4389 131.0533 24.0263 130.6473 C 23.7012 130.3255 23.4779 129.7028 23.7511 129.3612 C 24.3191 128.6507 25.4227 128.5137 26.124 127.8625 Z "/>
      <path id="ID0.8213719581253827" fill="#F6DEBF" stroke="#000000" stroke-width="0.6186322260648264" stroke-linecap="round" d="M 28.624 129.1625 C 29.1668 128.4982 28.9679 127.2051 29.6613 126.8421 C 30.2962 126.6087 31.0704 127.4237 31.2943 127.9633 C 31.5401 128.5711 31.5199 129.3874 31.1076 129.926 C 30.4095 131.0075 29.41 132.0371 28.1843 132.5026 C 26.5696 131.9596 26.3325 131.4949 26.4863 131.0066 C 26.8217 130.1566 28.0309 129.8907 28.624 129.1625 Z "/>
      <path id="ID0.6950230011716485" fill="none" stroke="#000000" stroke-width="0.6186322260648264" stroke-linecap="round" d="M 27.4147 124.1171 C 27.4147 124.1171 27.9456 124.263 28.2175 124.294 C 28.4376 124.3189 28.6634 124.3162 28.8826 124.2842 C 29.1005 124.2524 29.3112 124.1781 29.5183 124.104 C 29.5699 124.0855 29.6428 124.0122 29.6428 124.0122 "/>
    </g>
    <g id="ID0.6501310784369707">
      <path id="ID0.11016997741535306" fill="#F6DEBF" stroke="#000000" stroke-width="0.6066628125899219" stroke-linecap="round" d="M 78.9594 115.0953 C 78.1261 115.043 77.6281 116.1497 77.1236 116.8197 C 76.2299 118.0057 75.4654 119.4091 74.6795 120.7333 C 74.0948 121.7232 73.2355 122.5829 73.0665 123.6894 C 72.9859 124.2123 73.4917 124.7214 73.9362 124.8954 C 74.344 125.066 74.8201 124.7512 75.1465 124.5312 C 75.7152 124.142 76.2768 123.6463 76.6717 123.1432 C 77.2477 122.4089 77.6029 121.5088 78.1176 120.7547 C 78.5725 120.0515 79.148 119.4402 79.5871 118.7604 C 79.916 118.2505 80.5186 117.7624 80.4225 117.1153 C 80.2961 116.2948 79.766 115.1468 78.9594 115.0953 Z "/>
      <path id="ID0.8213719581253827" fill="#F6DEBF" stroke="#000000" stroke-width="0.6186322260648264" stroke-linecap="round" d="M 82.9049 119.0182 C 82.1432 118.3798 81.394 117.4812 80.3705 117.439 C 79.86 117.3475 79.6499 118.2339 79.4301 118.7152 C 79.303 119.0008 79.379 119.222 79.3515 119.4737 C 79.3231 119.7875 78.9063 119.9418 79.1876 120.2175 C 80.3132 121.3227 81.506 122.4721 82.9393 123.0779 C 83.4685 123.2711 84.0814 122.7553 84.4334 122.3538 C 84.727 122.0137 84.8951 121.4403 84.7315 121.0366 C 84.3586 120.2116 83.5805 119.5848 82.9049 119.0182 Z "/>
      <path id="ID0.8213719581253827" fill="#F6DEBF" stroke="#000000" stroke-width="0.6186322260648264" stroke-linecap="round" d="M 81.4657 122.4515 C 80.5165 121.8277 79.7566 120.8175 78.6348 120.5577 C 78.2711 120.3953 78.0398 121.0179 77.8301 121.4152 C 77.7061 121.6523 77.779 121.922 77.7515 122.1737 C 77.7231 122.4875 77.3111 122.6457 77.5876 122.9175 C 78.6967 124.0174 79.9366 125.1812 81.4166 125.7772 C 81.8648 125.9584 82.3186 125.3514 82.6237 124.9473 C 82.9627 124.4924 83.3372 123.8397 83.1433 123.3034 C 82.8395 122.7683 81.9756 122.7873 81.4657 122.4515 Z "/>
      <path id="ID0.8213719581253827" fill="#F6DEBF" stroke="#000000" stroke-width="0.6186322260648264" stroke-linecap="round" d="M 79.076 124.5625 C 78.384 124.025 78.1439 122.884 77.3205 122.539 C 76.9267 122.3752 76.5301 122.9755 76.4057 123.3633 C 76.2144 123.9947 76.1801 124.7874 76.5924 125.326 C 77.2905 126.4075 78.294 127.3801 79.5157 127.9026 C 80.0539 128.1297 80.7611 127.7533 81.1737 127.3473 C 81.4988 127.0255 81.7221 126.4028 81.4489 126.0612 C 80.8809 125.3507 79.7773 125.2137 79.076 124.5625 Z "/>
      <path id="ID0.8213719581253827" fill="#F6DEBF" stroke="#000000" stroke-width="0.6186322260648264" stroke-linecap="round" d="M 76.626 125.8625 C 76.0832 125.1982 76.2821 123.9051 75.5887 123.5421 C 74.9538 123.3087 74.1796 124.1237 73.9557 124.6633 C 73.7099 125.2711 73.7301 126.0874 74.1424 126.626 C 74.8405 127.7075 75.84 128.7371 77.0657 129.2026 C 78.6804 128.6596 78.9175 128.1949 78.7637 127.7066 C 78.4283 126.8566 77.2191 126.5907 76.626 125.8625 Z "/>
      <path id="ID0.6950230011716485" fill="none" stroke="#000000" stroke-width="0.6186322260648264" stroke-linecap="round" d="M 77.7853 120.8171 C 77.7853 120.8171 77.2544 120.963 76.9825 120.994 C 76.7624 121.0189 76.5366 121.0162 76.3174 120.9842 C 76.0995 120.9524 75.8888 120.8781 75.6817 120.804 C 75.6301 120.7855 75.5572 120.7122 75.5572 120.7122 "/>
    </g>
  </g>
</svg>