<svg xmlns="http://www.w3.org/2000/svg" xmlns:xlink="http://www.w3.org/1999/xlink" version="1.1" width="57.42345062364422" height="108.78662124742353" viewBox="-0.03229995304983378 0.6101646847065139 57.42345062364422 108.78662124742353">
  <!-- Exported by Scratch - http://scratch.mit.edu/ -->
  <g id="ID0.34385721338912845">
    <g id="layer1">
      <g id="g37">
        <path id="path55" fill="#f4dcbd" stroke-width="0.1884004222282076" d="M 41.1231 109.1489 C 41.3303 109.052 42.3322 108.9666 43.349 108.9595 C 45.973 108.9402 46.5319 108.5351 45.315 107.5339 C 44.9782 107.2569 43.7364 106.0841 42.555 104.927 L 40.4067 102.8229 L 40.5306 98.6922 C 40.599 96.4207 40.6809 94.5359 40.7129 94.5038 C 40.745 94.4718 41.3374 94.7467 42.0288 95.1141 C 43.5989 95.9472 44.3203 95.9344 44.9063 95.0621 C 45.9224 93.5483 46.8837 84.6254 46.5063 80.2099 C 46.1766 76.3462 44.0361 68.9172 41.2463 61.9497 L 40.1483 59.2082 L 41.116 59.2082 C 41.6486 59.2082 42.1855 59.1064 42.3101 58.9825 C 42.6113 58.6806 42.5849 57.9051 42.2531 57.3241 C 41.937 56.7715 41.8942 55.1772 42.1563 53.7324 C 42.2588 53.1692 42.3699 52.517 42.4041 52.2827 C 42.4376 52.0484 42.7238 51.5827 43.0392 51.2466 C 44.1351 50.0796 45.1754 48.523 46.3489 46.2942 C 47.605 43.9074 47.6534 43.8604 49.5895 43.1654 C 50.2048 42.9447 50.9147 42.5566 51.1682 42.3038 C 51.8632 41.6088 51.683 40.0003 50.6605 37.7815 C 50.2332 36.8537 49.8836 35.8589 49.8836 35.5698 C 49.8836 35.2814 50.0631 34.2817 50.2824 33.3475 C 50.5793 32.0814 50.6612 31.2376 50.6035 30.0264 L 50.5259 28.4029 L 51.7948 28.5788 C 53.9723 28.8793 55.3046 28.2064 56.164 26.3707 C 57.8125 22.8495 57.6394 16.7293 55.7923 13.2138 C 53.3215 8.5128 42.9125 2.5863 34.4347 1.0546 C 31.6391 0.5491 26.8006 0.5975 24.2614 1.1564 C 18.5727 2.4075 13.0293 5.4224 8.9912 9.4613 C 4.8035 13.6496 2.1318 18.5956 1.167 23.9454 C 0.7504 26.2546 0.6151 30.6509 0.8822 33.1994 C 1.2054 36.2876 1.9118 38.3077 4.4154 43.3035 C 6.5815 47.6258 6.5929 47.655 6.3003 48.2204 C 5.8431 49.104 3.86 50.2868 2.4067 50.5424 C 1.7331 50.6606 0.9947 50.8785 0.7654 51.0259 C -0.5683 51.8861 0.1082 56.0182 1.8385 57.5819 C 2.6794 58.3416 4.8185 59.1997 7.7707 59.9609 C 11.7639 60.9905 13.3974 60.8858 15.5664 59.4639 L 16.5739 58.8031 L 18.5805 59.3165 C 20.3166 59.7608 20.9396 59.8277 23.2011 59.8142 C 24.6388 59.8056 26.1647 59.7394 26.5927 59.6675 L 27.3696 59.5365 L 26.038 60.9378 C 24.3988 62.6639 24.151 63.3645 24.3319 65.7642 C 24.4857 67.7971 24.2607 68.6367 22.7568 71.6387 C 20.8257 75.4939 20.7367 76.2778 22.0775 77.6571 L 22.7319 78.3307 L 22.2947 80.4975 C 21.5983 83.9468 21.1148 84.9365 18.8867 87.4686 C 16.8573 89.7757 16.3482 90.4956 16.3482 91.0582 C 16.3482 91.9098 16.8737 92.0821 18.6909 91.8265 C 20.8898 91.5174 25.6798 91.0482 26.6404 91.0482 L 27.4643 91.0482 L 27.4621 91.8486 C 27.4564 94.3913 28.0716 107.2235 28.2162 107.5702 C 28.5124 108.2816 29.1818 108.5422 31.5152 108.8541 C 34.1698 109.2087 40.5748 109.4052 41.1224 109.1489 Z "/>
        <path id="path53" fill="#fb9897" stroke-width="0.1884004222282076" d="M 40.5036 109.2279 C 40.5769 109.1503 41.7013 109.0292 43.0015 108.9602 C 44.9212 108.8584 45.4268 108.7715 45.6931 108.4959 C 46.0064 108.1719 45.9829 108.1256 45.1783 107.4677 C 43.9963 106.5028 41.0611 103.671 40.6567 103.1056 C 40.3455 102.6705 40.332 102.3259 40.4794 98.606 C 40.567 96.3908 40.6738 94.543 40.7172 94.4996 C 40.7599 94.4568 41.3424 94.7224 42.011 95.0899 C 43.344 95.8226 43.9322 95.9095 44.5638 95.4666 C 45.9865 94.4704 47.0802 82.8751 46.2158 77.954 C 45.5137 73.9565 42.3101 64.1742 40.154 59.4439 C 40.0756 59.2723 40.3042 59.2082 40.9949 59.2082 C 42.5258 59.2082 42.8847 58.5581 42.1492 57.1169 C 41.7682 56.3699 41.7675 56.3279 42.0822 54.1077 C 42.3799 52.0107 42.4454 51.8099 43.0343 51.1854 C 44.0532 50.1052 45.2495 48.3236 46.314 46.3028 C 46.8595 45.2667 47.4277 44.2762 47.5765 44.1018 C 47.7253 43.9273 48.4744 43.5556 49.2413 43.2758 C 51.0251 42.6257 51.5797 42.1279 51.5783 41.178 C 51.5769 40.1897 51.2757 39.1821 50.5245 37.6476 C 49.7604 36.0889 49.7191 35.322 50.2809 33.1459 C 50.5978 31.9183 50.6576 31.2718 50.575 29.9431 C 50.4931 28.6336 50.523 28.2989 50.7132 28.3716 C 51.3626 28.6208 53.0872 28.7019 53.7786 28.5154 C 54.8823 28.2185 55.4427 27.6987 56.0907 26.3721 C 56.9936 24.5236 57.2926 22.6522 57.1794 19.5555 C 57.0178 15.1236 56.2409 13.1419 53.6704 10.5998 C 49.3759 6.3524 41.3011 2.3427 34.644 1.1507 C 31.496 0.5875 27.1239 0.5861 24.5085 1.1479 C 18.0465 2.5357 11.6991 6.1879 7.6824 10.8284 C 2.359 16.9785 0.0498 24.4559 0.8765 32.8668 C 1.2033 36.1936 1.753 37.8135 4.2951 42.9404 C 5.5362 45.4426 6.5516 47.6073 6.5516 47.7497 C 6.5516 48.5123 4.2837 50.2426 2.9963 50.4612 C 0.4784 50.8899 0.1459 51.1811 0.1459 52.962 C 0.1459 54.4409 0.6479 56.1115 1.3828 57.0742 C 2.1845 58.1259 4.8477 59.2488 8.7184 60.1681 C 11.1979 60.757 12.9445 60.7263 14.4071 60.0677 C 15.0494 59.7793 15.7195 59.3827 15.8968 59.1869 C 16.3098 58.7304 16.4237 58.7361 18.7828 59.3271 C 20.6413 59.7921 20.9631 59.817 24.0941 59.7344 L 27.4265 59.6476 L 26.4019 60.5832 C 25.8386 61.098 25.1479 61.9105 24.8674 62.389 C 24.3803 63.2186 24.3568 63.3766 24.3561 65.8027 L 24.3554 68.3454 L 22.8736 71.4344 C 20.9197 75.5074 20.8285 76.2458 22.106 77.66 L 22.7675 78.392 L 22.3723 80.3345 C 21.6132 84.0564 21.2444 84.8077 18.7714 87.6566 C 16.5355 90.2329 16.3482 90.4885 16.3482 90.9642 C 16.3482 91.5637 17.1059 92.0586 17.8008 91.9134 C 18.238 91.8222 21.8325 91.4256 26.4538 90.9592 L 27.4222 90.8609 L 27.5369 93.2627 C 27.6003 94.5836 27.7462 98.2493 27.8616 101.4102 C 27.9883 104.8879 28.1564 107.3417 28.2874 107.6258 C 28.6093 108.3243 29.2409 108.5379 31.9147 108.8527 C 34.78 109.1895 40.312 109.4316 40.5036 109.2279 Z M 29.6304 85.1879 C 29.2159 85.0747 28.7289 84.8497 28.5473 84.6887 C 28.0887 84.2807 28.1222 83.0204 28.6392 81.2146 L 29.0614 79.7427 L 31.1357 79.8617 C 32.8816 79.9621 33.2804 80.0439 33.6542 80.3808 C 34.268 80.9333 35.1845 82.5696 35.1866 83.1172 C 35.1887 83.6897 33.9747 84.8732 33.0988 85.1523 C 32.2436 85.4257 30.5624 85.4428 29.6304 85.1879 Z M 33.3174 59.5849 C 31.4568 58.86 29.8447 58.2662 29.735 58.2662 C 29.4687 58.2662 29.4773 58.18 29.913 56.4767 C 30.4022 54.5648 30.388 53.8143 29.8447 52.7405 C 29.5997 52.2563 29.4367 51.8604 29.483 51.8604 C 29.5285 51.8604 30.2591 52.1047 31.1058 52.4037 C 32.6787 52.9577 33.9476 53.2518 35.7121 53.4704 L 36.7061 53.5929 L 36.0418 54.3292 C 35.475 54.9558 35.3767 55.1986 35.3767 55.969 C 35.3767 56.9581 36.0745 58.2996 36.9219 58.9384 C 37.3591 59.268 37.3655 59.3065 37.107 60.0919 C 36.9596 60.5384 36.808 60.9036 36.7702 60.9036 C 36.7325 60.9036 35.1788 60.3105 33.3174 59.5849 Z M 32.1767 51.5706 C 27.8623 50.4121 25.7176 48.6853 20.7943 42.4071 C 20.0196 41.4194 19.1117 40.5066 18.5008 40.1014 C 17.0781 39.1565 16.8196 38.6894 16.8196 37.0666 C 16.8196 35.9593 16.8986 35.6111 17.2732 35.0628 C 17.8464 34.2261 18.7514 33.6002 19.5845 33.465 C 20.1649 33.371 20.3194 33.4507 21.102 34.2439 C 21.5819 34.7303 22.3602 35.7044 22.833 36.4086 C 23.3051 37.1129 23.8092 37.7338 23.9538 37.7893 C 24.2728 37.9118 24.6381 37.5771 24.6381 37.1613 C 24.6381 36.9277 24.9578 36.806 26.0038 36.6429 C 29.4908 36.0982 31.7167 35.1575 34.9837 32.8476 C 39.8827 29.3848 42.0274 28.1529 44.0696 27.6296 C 45.2723 27.3213 46.3916 27.3711 48.3762 27.8211 C 49.2926 28.029 49.4265 28.1202 49.5319 28.6072 C 49.8145 29.9174 49.6878 31.3031 49.116 33.1388 C 48.3769 35.5143 48.4317 36.2392 49.5105 38.3974 C 50.0531 39.4826 50.3294 40.2851 50.3393 40.8042 L 50.3543 41.5825 L 49.0355 41.9357 C 47.4476 42.3608 47.2532 42.521 46.3852 44.116 C 45.2737 46.1611 43.7798 48.4696 43.569 48.4696 C 43.4608 48.4696 42.8975 48.1726 42.3186 47.8102 C 41.5574 47.3345 40.9949 46.7613 40.2928 45.7452 C 39.7581 44.9719 39.234 44.2855 39.1279 44.22 C 38.7875 44.0099 38.0434 44.3133 37.9159 44.7149 C 37.6503 45.5515 39.8414 47.7945 41.9234 48.8164 C 42.4675 49.0834 42.9125 49.3625 42.9125 49.4358 C 42.9125 49.6644 41.3509 50.9312 40.5791 51.3292 C 38.6123 52.3425 35.3945 52.4351 32.1767 51.5706 Z M 42.6647 34.3401 C 43.3732 33.648 43.5619 32.8326 43.2087 31.9881 C 42.7331 30.8488 41.5368 30.6658 40.6624 31.5972 C 40.1582 32.1334 40.0137 34.0766 40.4395 34.5921 C 40.8774 35.1219 41.9946 34.9952 42.6647 34.3401 Z "/>
        <path id="path51" fill="#a39f9a" stroke-width="0.1884004222282076" d="M 40.5036 109.2279 C 40.5769 109.1503 41.7013 109.0292 43.0015 108.9602 C 44.9212 108.8584 45.4268 108.7715 45.6931 108.4959 C 46.0064 108.1719 45.9829 108.1256 45.1783 107.4677 C 43.9963 106.5028 41.0611 103.671 40.6567 103.1056 C 40.3455 102.6705 40.332 102.3259 40.4794 98.606 C 40.567 96.3908 40.6738 94.543 40.7172 94.4996 C 40.7599 94.4568 41.3424 94.7224 42.011 95.0899 C 43.344 95.8226 43.9322 95.9095 44.5638 95.4666 C 45.9865 94.4704 47.0802 82.8751 46.2158 77.954 C 45.5137 73.9565 42.3101 64.1742 40.154 59.4439 C 40.0756 59.2723 40.3042 59.2082 40.9949 59.2082 C 42.5258 59.2082 42.8847 58.5581 42.1492 57.1169 C 41.7682 56.3699 41.7675 56.3279 42.0822 54.1077 C 42.3799 52.0107 42.4454 51.8099 43.0343 51.1854 C 44.0532 50.1052 45.2495 48.3236 46.314 46.3028 C 46.8595 45.2667 47.4277 44.2762 47.5765 44.1018 C 47.7253 43.9273 48.4744 43.5556 49.2413 43.2758 C 51.0251 42.6257 51.5797 42.1279 51.5783 41.178 C 51.5769 40.1897 51.2757 39.1821 50.5245 37.6476 C 49.7604 36.0889 49.7191 35.322 50.2809 33.1459 C 50.5978 31.9183 50.6576 31.2718 50.575 29.9431 C 50.4931 28.6336 50.523 28.2989 50.7132 28.3716 C 51.3626 28.6208 53.0872 28.7019 53.7786 28.5154 C 54.8823 28.2185 55.4427 27.6987 56.0907 26.3721 C 56.9936 24.5236 57.2926 22.6522 57.1794 19.5555 C 57.0178 15.1236 56.2409 13.1419 53.6704 10.5998 C 49.3759 6.3524 41.3011 2.3427 34.644 1.1507 C 31.496 0.5875 27.1239 0.5861 24.5085 1.1479 C 18.0465 2.5357 11.6991 6.1879 7.6824 10.8284 C 2.359 16.9785 0.0498 24.4559 0.8765 32.8668 C 1.2033 36.1936 1.753 37.8135 4.2951 42.9404 C 5.5362 45.4426 6.5516 47.6073 6.5516 47.7497 C 6.5516 48.5123 4.2837 50.2426 2.9963 50.4612 C 0.4784 50.8899 0.1459 51.1811 0.1459 52.962 C 0.1459 54.4409 0.6479 56.1115 1.3828 57.0742 C 2.1845 58.1259 4.8477 59.2488 8.7184 60.1681 C 11.1979 60.757 12.9445 60.7263 14.4071 60.0677 C 15.0494 59.7793 15.7195 59.3827 15.8968 59.1869 C 16.3098 58.7304 16.4237 58.7361 18.7828 59.3271 C 20.6413 59.7921 20.9631 59.817 24.0941 59.7344 L 27.4265 59.6476 L 26.4019 60.5832 C 25.8386 61.098 25.1479 61.9105 24.8674 62.389 C 24.3803 63.2186 24.3568 63.3766 24.3561 65.8027 L 24.3554 68.3454 L 22.8736 71.4344 C 20.9197 75.5074 20.8285 76.2458 22.106 77.66 L 22.7675 78.392 L 22.3723 80.3345 C 21.6132 84.0564 21.2444 84.8077 18.7714 87.6566 C 16.5355 90.2329 16.3482 90.4885 16.3482 90.9642 C 16.3482 91.5637 17.1059 92.0586 17.8008 91.9134 C 18.238 91.8222 21.8325 91.4256 26.4538 90.9592 L 27.4222 90.8609 L 27.5369 93.2627 C 27.6003 94.5836 27.7462 98.2493 27.8616 101.4102 C 27.9883 104.8879 28.1564 107.3417 28.2874 107.6258 C 28.6093 108.3243 29.2409 108.5379 31.9147 108.8527 C 34.78 109.1895 40.312 109.4316 40.5036 109.2279 Z M 35.915 108.1847 C 33.0782 107.8999 30.079 107.4399 29.6873 107.2306 C 29.4025 107.0782 29.3477 106.7998 29.3477 105.5045 C 29.3477 104.0669 28.877 93.7889 28.7161 91.7282 L 28.6449 90.8075 L 31.0217 90.9165 C 32.3291 90.9763 33.7226 91.1208 34.1185 91.2376 L 34.8391 91.4498 L 34.7295 92.6147 C 34.5692 94.3159 34.2581 99.5453 34.2011 101.4785 C 34.1577 102.9667 34.1933 103.1768 34.5286 103.4111 C 34.7359 103.5556 35.7961 104.2606 36.8842 104.9776 C 39.6562 106.804 40.0984 107.2185 39.9631 107.8629 C 39.8613 108.3485 39.7929 108.3806 38.8601 108.3806 C 38.3133 108.3806 36.9881 108.2923 35.915 108.1847 Z M 40.2999 106.3462 C 39.6114 105.7559 38.3069 104.7248 37.4004 104.0562 L 35.7534 102.84 L 35.7534 97.3307 L 35.7534 91.8215 L 36.2718 92.0045 C 36.5566 92.1056 37.4681 92.5521 38.2969 92.9964 C 39.4447 93.6123 39.7951 93.8915 39.7659 94.1692 C 39.7445 94.3693 39.6306 96.3687 39.5131 98.6117 C 39.3458 101.8032 39.3493 102.7866 39.5295 103.1334 C 39.7816 103.6183 42.058 106.2636 42.9752 107.138 L 43.5491 107.6849 L 42.5501 107.5524 C 41.697 107.4399 41.3695 107.264 40.2999 106.3462 Z M 29.6304 85.1879 C 29.2159 85.0747 28.7289 84.8497 28.5473 84.6887 C 28.088 84.2807 28.1215 83.0204 28.6392 81.2146 L 29.0614 79.7427 L 31.1357 79.8617 C 32.8816 79.9621 33.2804 80.0439 33.6542 80.3808 C 34.268 80.9333 35.1845 82.5696 35.1866 83.1172 C 35.1887 83.6897 33.9747 84.8732 33.0988 85.1523 C 32.2436 85.4257 30.5624 85.4428 29.6304 85.1879 Z M 33.3174 59.5849 C 31.4568 58.86 29.8447 58.2662 29.735 58.2662 C 29.4687 58.2662 29.4773 58.18 29.913 56.4767 C 30.4022 54.5648 30.388 53.8143 29.8447 52.7405 C 29.5997 52.2563 29.4367 51.8604 29.483 51.8604 C 29.5285 51.8604 30.2591 52.1047 31.1058 52.4037 C 32.6787 52.9577 33.9476 53.2518 35.7114 53.4704 L 36.7061 53.5929 L 36.0418 54.3292 C 35.475 54.9558 35.3767 55.1986 35.3767 55.969 C 35.3767 56.9581 36.0745 58.2996 36.9219 58.9384 C 37.3591 59.268 37.3655 59.3065 37.107 60.0919 C 36.9596 60.5384 36.808 60.9036 36.7702 60.9036 C 36.7325 60.9036 35.1788 60.3105 33.3174 59.5849 Z M 32.1767 51.5706 C 27.8623 50.4121 25.7176 48.6853 20.7943 42.4071 C 20.0196 41.4194 19.1117 40.5066 18.5008 40.1014 C 17.0781 39.1565 16.8196 38.6894 16.8196 37.0666 C 16.8196 35.9593 16.8979 35.6111 17.2732 35.0628 C 17.8464 34.2261 18.7514 33.6002 19.5845 33.465 C 20.1649 33.371 20.3194 33.4507 21.102 34.2439 C 21.5819 34.7303 22.3602 35.7044 22.833 36.4086 C 23.3051 37.1129 23.8092 37.7338 23.9538 37.7893 C 24.2728 37.9118 24.6381 37.5771 24.6381 37.1613 C 24.6381 36.9277 24.9578 36.806 26.0038 36.6429 C 29.4908 36.0982 31.7167 35.1575 34.9837 32.8476 C 39.8827 29.3848 42.0274 28.1529 44.0696 27.6296 C 45.2723 27.3213 46.3916 27.3711 48.3762 27.8211 C 49.2926 28.029 49.4265 28.1202 49.5319 28.6072 C 49.8145 29.9174 49.6878 31.3031 49.116 33.1388 C 48.3769 35.5143 48.4317 36.2392 49.5105 38.3974 C 50.0531 39.4826 50.3294 40.2851 50.3393 40.8042 L 50.3543 41.5825 L 49.0355 41.9357 C 47.4476 42.3608 47.2532 42.521 46.3852 44.116 C 45.2737 46.1611 43.7798 48.4696 43.569 48.4696 C 43.4608 48.4696 42.8975 48.1726 42.3186 47.8102 C 41.5574 47.3345 40.9949 46.7613 40.2928 45.7452 C 39.7581 44.9719 39.234 44.2855 39.1279 44.22 C 38.7875 44.0099 38.0434 44.3133 37.9159 44.7149 C 37.6503 45.5515 39.8414 47.7945 41.9234 48.8164 C 42.4675 49.0834 42.9125 49.3625 42.9125 49.4358 C 42.9125 49.6644 41.3509 50.9312 40.5791 51.3292 C 38.6123 52.3425 35.3945 52.4351 32.1767 51.5706 Z M 42.6647 34.3401 C 43.3732 33.648 43.5619 32.8326 43.2087 31.9881 C 42.7331 30.8488 41.5368 30.6658 40.6624 31.5972 C 40.1582 32.1334 40.0137 34.0766 40.4395 34.5921 C 40.8774 35.1219 41.9946 34.9952 42.6647 34.3401 Z "/>
        <path id="path49" fill="#d2d217" stroke-width="0.1884004222282076" d="M 41.3111 109.1083 C 42.1406 109.0136 43.4544 108.8747 44.2312 108.8 C 45.4667 108.6803 45.6518 108.6141 45.7009 108.2716 C 45.7401 107.9946 45.5422 107.7304 45.0288 107.3751 C 44.6286 107.0974 43.3882 105.9446 42.2731 104.8124 L 40.2451 102.7545 L 40.3597 99.6798 C 40.4231 97.9894 40.52 96.0896 40.5755 95.458 L 40.6759 94.3102 L 42.0295 95.0293 C 43.6032 95.8646 44.019 95.9144 44.5631 95.3341 C 45.1256 94.7338 45.3036 94.1677 45.723 91.6591 C 46.2578 88.4634 46.4928 85.7013 46.4885 82.6786 C 46.4842 79.5733 46.3112 78.2025 45.535 75.1279 C 44.5111 71.0755 40.9771 60.8673 40.1718 59.6383 C 39.8912 59.2111 39.8955 59.2082 40.7941 59.2082 C 41.7027 59.2082 42.5358 58.8216 42.5358 58.4007 C 42.5358 58.279 42.3507 57.7328 42.1242 57.1867 L 41.7134 56.1941 L 42.0559 53.9802 C 42.392 51.8141 42.4169 51.7479 43.2166 50.8849 C 44.2533 49.7655 45.4553 47.9049 46.544 45.7331 C 47.4469 43.9302 47.5309 43.8547 49.4101 43.169 C 50.7673 42.6734 51.5797 41.9286 51.5769 41.1837 C 51.5733 40.3421 51.1219 38.8688 50.4768 37.5949 C 49.7554 36.1694 49.7127 35.1611 50.2795 32.958 C 50.6007 31.7104 50.6519 31.1223 50.5515 29.8519 L 50.4269 28.284 L 51.3327 28.4285 C 53.4475 28.766 54.5056 28.4648 55.5168 27.2379 C 57.4044 24.9479 57.8003 18.486 56.2965 14.5134 C 55.3366 11.977 53.3514 9.8864 49.5069 7.3635 C 42.9153 3.037 36.0382 0.7805 29.4424 0.7805 C 24.903 0.7805 21.5377 1.6214 16.8858 3.9193 C 10.8767 6.8871 6.2554 11.4828 3.4399 17.289 C 1.3108 21.6803 0.4464 26.7174 0.8864 32.1683 C 1.2225 36.3346 1.8321 38.171 4.7636 43.8525 C 5.747 45.758 6.5516 47.5175 6.5516 47.7625 C 6.5516 48.7359 4.3222 50.259 2.3455 50.6357 C 1.288 50.8365 0.9 51.0052 0.5475 51.4154 C 0.1317 51.8982 0.1053 52.052 0.1993 53.4255 C 0.3189 55.1687 1.1285 57.0592 2.0314 57.7022 C 3.5866 58.8095 8.4963 60.2934 11.1822 60.4679 C 13.1966 60.5982 14.3801 60.292 15.6753 59.3036 L 16.4899 58.6813 L 18.2558 59.1797 C 19.9057 59.6447 20.266 59.676 23.7252 59.6611 L 27.4279 59.6454 L 26.2089 60.8467 C 24.5491 62.4823 24.3739 62.9458 24.4116 65.6033 C 24.4487 68.1938 24.307 68.7335 22.7974 71.7441 C 20.946 75.4383 20.8485 76.3412 22.1644 77.635 C 22.7817 78.2424 22.8544 78.4033 22.7312 78.8961 C 22.6535 79.2073 22.3709 80.4363 22.1031 81.6283 C 21.5356 84.1526 21.0592 85.074 19.2413 87.1617 C 16.4707 90.344 16.0456 91.0468 16.5747 91.5758 C 16.8816 91.8827 17.6022 91.8621 21.4409 91.4377 C 23.251 91.2369 25.3679 91.0176 26.1448 90.9492 L 27.5582 90.8253 L 27.5668 91.7375 C 27.6024 95.5734 28.1001 106.9037 28.2546 107.41 C 28.3892 107.8508 28.6292 108.1164 29.0522 108.293 C 30.4891 108.894 38.524 109.428 41.3111 109.1083 Z M 35.915 108.1847 C 33.0782 107.8999 30.079 107.4399 29.6873 107.2306 C 29.4025 107.0782 29.3477 106.7998 29.3477 105.5045 C 29.3477 104.0669 28.877 93.7882 28.7161 91.7282 L 28.6449 90.8075 L 31.0217 90.9165 C 32.3291 90.9763 33.7226 91.1208 34.1185 91.2376 L 34.8391 91.4498 L 34.7295 92.6147 C 34.5692 94.3159 34.2581 99.5453 34.2011 101.4785 C 34.1577 102.9667 34.1933 103.1768 34.5286 103.4111 C 34.7366 103.5556 35.7961 104.2606 36.8842 104.9776 C 39.6562 106.804 40.0984 107.2185 39.9631 107.8629 C 39.8613 108.3485 39.7929 108.3806 38.8601 108.3806 C 38.3133 108.3806 36.9881 108.2923 35.915 108.1847 Z M 40.2999 106.3462 C 39.6114 105.7559 38.3069 104.7248 37.4004 104.0562 L 35.7534 102.84 L 35.7534 97.3307 L 35.7534 91.8215 L 36.2718 92.0045 C 36.5566 92.1056 37.4681 92.5521 38.2969 92.9964 C 39.4447 93.6123 39.7951 93.8915 39.7659 94.1692 C 39.7445 94.3693 39.6306 96.3687 39.5131 98.6117 C 39.3458 101.8032 39.3493 102.7866 39.5295 103.1334 C 39.7816 103.6183 42.058 106.2636 42.9752 107.138 L 43.5491 107.6849 L 42.5501 107.5524 C 41.697 107.4399 41.3695 107.264 40.2999 106.3462 Z M 41.4108 90.8524 C 41.5631 90.7555 41.8152 90.6772 41.9704 90.6772 C 42.1264 90.6765 42.0416 90.7883 41.7825 90.925 C 41.2683 91.1956 40.9629 91.1358 41.4108 90.8524 Z M 41.0476 85.8081 C 40.7799 85.3082 41.2078 84.5577 41.7874 84.51 L 42.2531 84.4723 L 41.7825 84.6118 C 41.1922 84.7877 41.0355 85.5511 41.5176 85.9035 C 41.8173 86.1228 41.8202 86.1499 41.5425 86.1499 C 41.3709 86.1499 41.148 85.9961 41.0476 85.8081 Z M 29.0436 85.0355 C 28.0567 84.5876 27.9314 84.112 28.3323 82.3368 C 28.5024 81.5841 28.6812 80.6599 28.7296 80.2825 C 28.8158 79.6153 28.8378 79.5989 29.5072 79.6794 C 29.886 79.7249 30.9534 79.8218 31.8783 79.8944 L 33.5617 80.0269 L 34.3748 81.216 C 35.3981 82.7128 35.4429 83.38 34.5764 84.2188 C 34.2396 84.5442 33.6671 84.9394 33.3046 85.096 C 32.3455 85.5112 30.0177 85.4777 29.0436 85.0355 Z M 43.7299 79.0962 C 43.7976 78.9196 43.6901 78.8042 43.4202 78.7651 C 43.0934 78.7174 43.0699 78.6789 43.307 78.5821 C 43.7207 78.4133 44.1223 78.701 43.982 79.0656 C 43.9186 79.2315 43.8125 79.3675 43.7463 79.3675 C 43.6801 79.3675 43.673 79.245 43.7299 79.0962 Z M 38.7683 76.2586 C 38.6387 76.1034 38.5924 75.9759 38.6643 75.9759 C 38.7362 75.9759 38.9221 76.1034 39.0773 76.2586 C 39.2333 76.4138 39.2795 76.5413 39.1813 76.5413 C 39.083 76.5413 38.8972 76.4138 38.7683 76.2586 Z M 40.0415 75.5109 C 39.993 75.2546 40.0251 75.0901 40.1141 75.1449 C 40.27 75.2418 40.3491 75.9759 40.2031 75.9759 C 40.1632 75.9759 40.0906 75.7666 40.0415 75.5109 Z M 28.0645 75.4689 C 28.0211 75.1656 28.1635 74.974 28.6 74.7483 C 29.2936 74.3902 29.7251 74.4927 29.7251 75.0175 C 29.7251 75.8663 28.1806 76.2857 28.0645 75.4689 Z M 29.2487 75.4832 C 29.6304 75.1015 29.5179 74.7312 29.0458 74.8131 C 28.5615 74.8971 28.1443 75.3279 28.3002 75.5814 C 28.4839 75.8784 28.8962 75.8356 29.2487 75.4832 Z M 25.9946 72.3586 C 25.8699 72.2347 25.7681 72.0489 25.7681 71.9456 C 25.7681 71.8431 25.8806 71.9129 26.0181 72.1009 C 26.1882 72.333 26.394 72.4028 26.6603 72.318 C 27.1495 72.1628 27.351 71.6779 27.0676 71.3361 C 26.9345 71.1766 26.9259 71.0776 27.0441 71.0776 C 27.3439 71.0776 27.4821 71.6345 27.277 72.0168 C 26.9808 72.5701 26.3691 72.7332 25.9946 72.3586 Z M 40.4637 69.2113 C 40.8361 69.1059 40.9344 68.9564 40.9337 68.4943 C 40.9337 68.1724 40.997 67.9495 41.0754 67.9979 C 41.2975 68.1354 41.2413 68.9051 40.9913 69.1558 C 40.8667 69.2804 40.5912 69.3737 40.379 69.363 C 40.0543 69.3473 40.0678 69.3231 40.4637 69.2113 Z M 30.1174 58.4371 L 29.4025 58.2234 L 29.7478 56.9061 C 30.3844 54.483 30.3859 53.971 29.7628 52.7448 C 29.342 51.9167 29.2814 51.6803 29.5129 51.775 C 31.7616 52.6943 34.5016 53.3679 35.9912 53.3679 L 36.9582 53.3679 L 36.3786 53.9802 C 36.0596 54.3171 35.7036 54.7778 35.5875 55.0042 C 35.0698 56.0139 35.5206 57.4679 36.7247 58.672 C 37.3833 59.3307 37.4132 59.4104 37.2203 59.9972 C 37.1077 60.3404 36.991 60.7206 36.9618 60.8417 C 36.9276 60.9813 35.7997 60.6217 33.87 59.8562 C 32.1988 59.194 30.5105 58.5553 30.1174 58.4371 Z M 32.3625 51.6981 C 28.046 50.526 26.117 49.0585 21.6324 43.535 C 20.0894 41.6345 19.116 40.6176 18.3213 40.0765 C 17.0532 39.2127 16.7527 38.6338 16.7356 37.0146 C 16.7199 35.5121 17.3672 34.4084 18.6489 33.754 C 19.7768 33.1787 20.261 33.2798 21.2437 34.2995 C 21.7222 34.7958 22.4898 35.7742 22.9491 36.4734 C 23.5799 37.4326 23.8783 37.7316 24.1645 37.6911 C 24.4145 37.6547 24.5391 37.4995 24.5313 37.2332 C 24.5199 36.8743 24.6765 36.8038 25.944 36.6002 C 29.6816 35.9992 31.622 35.1333 35.8189 32.1939 C 42.3279 27.636 44.1551 26.941 47.7816 27.646 C 49.4101 27.9621 49.4713 27.992 49.5817 28.5424 C 49.8366 29.8178 49.6906 31.5082 49.1922 33.0584 C 48.4595 35.3348 48.5043 36.2057 49.4514 38.1283 C 50.4098 40.0729 50.7075 41.0933 50.4184 41.4408 C 50.3044 41.5782 49.7348 41.8217 49.1523 41.982 C 47.4071 42.4612 47.3551 42.5067 46.2058 44.5425 C 44.8379 46.9678 43.8531 48.4696 43.6324 48.4696 C 43.3333 48.4696 42.0388 47.749 41.4556 47.2584 C 41.1444 46.9963 40.5321 46.2323 40.0941 45.5608 C 39.2682 44.2926 38.7555 43.9444 38.2876 44.3325 C 37.7329 44.7925 37.9793 45.4511 39.1685 46.6901 C 39.9403 47.4933 40.782 48.1285 41.7055 48.6034 L 43.0877 49.3155 L 42.3877 50.0383 C 41.4919 50.9647 40.4388 51.5834 39.14 51.948 C 37.7287 52.3439 34.2723 52.2172 32.3625 51.6981 Z M 42.649 34.2639 C 43.1724 33.7405 43.2899 33.4799 43.2899 32.839 C 43.2899 31.8692 43.0314 31.3608 42.4212 31.1287 C 41.8394 30.9079 40.7742 31.3095 40.4787 31.8621 C 40.134 32.5058 40.2237 34.2347 40.6197 34.5929 C 41.1815 35.1013 41.9334 34.9795 42.649 34.2639 Z "/>
        <path id="path47" fill="#b95a4d" stroke-width="0.1884004222282076" d="M 41.3111 109.1083 C 42.1406 109.0136 43.4544 108.8747 44.2312 108.8 C 45.4667 108.6803 45.6518 108.6141 45.7009 108.2716 C 45.7401 107.9946 45.5422 107.7304 45.0288 107.3751 C 44.6286 107.0974 43.3882 105.9446 42.2731 104.8124 L 40.2451 102.7545 L 40.3597 99.6798 C 40.4231 97.9894 40.52 96.0896 40.5755 95.458 L 40.6759 94.3102 L 42.0295 95.0293 C 43.6032 95.8646 44.019 95.9144 44.5631 95.3341 C 45.1256 94.7338 45.3036 94.1677 45.723 91.6591 C 46.2578 88.4634 46.4928 85.7013 46.4885 82.6786 C 46.4842 79.5733 46.3112 78.2025 45.535 75.1279 C 44.5111 71.0755 40.9771 60.8673 40.1718 59.6383 C 39.8912 59.2111 39.8955 59.2082 40.7941 59.2082 C 41.7027 59.2082 42.5358 58.8216 42.5358 58.4007 C 42.5358 58.279 42.3507 57.7328 42.1242 57.1867 L 41.7134 56.1941 L 42.0559 53.9802 C 42.392 51.8141 42.4169 51.7479 43.2166 50.8849 C 44.2533 49.7655 45.4553 47.9049 46.544 45.7331 C 47.4469 43.9302 47.5309 43.8547 49.4101 43.169 C 50.7673 42.6734 51.5797 41.9286 51.5769 41.1837 C 51.5733 40.3421 51.1219 38.8688 50.4768 37.5949 C 49.7554 36.1694 49.7127 35.1611 50.2795 32.958 C 50.6007 31.7104 50.6519 31.1223 50.5515 29.8519 L 50.4269 28.284 L 51.3327 28.4285 C 53.4475 28.766 54.5056 28.4648 55.5168 27.2379 C 57.4044 24.9479 57.8003 18.486 56.2965 14.5134 C 55.3366 11.977 53.3514 9.8864 49.5069 7.3635 C 42.9153 3.037 36.0382 0.7805 29.4424 0.7805 C 24.903 0.7805 21.5377 1.6214 16.8858 3.9193 C 10.8767 6.8871 6.2554 11.4828 3.4399 17.289 C 1.3108 21.6803 0.4464 26.7174 0.8864 32.1683 C 1.2225 36.3346 1.8321 38.171 4.7636 43.8525 C 5.747 45.758 6.5516 47.5175 6.5516 47.7625 C 6.5516 48.7359 4.3222 50.259 2.3455 50.6357 C 1.288 50.8365 0.9 51.0052 0.5475 51.4154 C 0.1317 51.8982 0.1053 52.052 0.1993 53.4255 C 0.3189 55.1687 1.1285 57.0592 2.0314 57.7022 C 3.5866 58.8095 8.4963 60.2934 11.1822 60.4679 C 13.1966 60.5982 14.3801 60.292 15.6753 59.3036 L 16.4899 58.6813 L 18.2558 59.1797 C 19.9057 59.6447 20.266 59.676 23.7252 59.6611 L 27.4279 59.6454 L 26.2089 60.8467 C 24.5491 62.4823 24.3739 62.9458 24.4116 65.6033 C 24.4487 68.1938 24.307 68.7335 22.7974 71.7441 C 20.946 75.4383 20.8485 76.3412 22.1644 77.635 C 22.7817 78.2424 22.8544 78.4033 22.7312 78.8961 C 22.6535 79.2073 22.3709 80.4363 22.1031 81.6283 C 21.5356 84.1526 21.0592 85.074 19.2413 87.1617 C 16.4707 90.344 16.0456 91.0468 16.5747 91.5758 C 16.8816 91.8827 17.6022 91.8621 21.4409 91.4377 C 23.251 91.2369 25.3679 91.0176 26.1448 90.9492 L 27.5582 90.8253 L 27.5668 91.7375 C 27.6024 95.5734 28.1001 106.9037 28.2546 107.41 C 28.3892 107.8508 28.6292 108.1164 29.0522 108.293 C 30.4891 108.894 38.524 109.428 41.3111 109.1083 Z M 35.915 108.1847 C 33.0782 107.8999 30.079 107.4399 29.6873 107.2306 C 29.4025 107.0782 29.3477 106.7998 29.3477 105.5045 C 29.3477 104.0669 28.877 93.7882 28.7161 91.7282 L 28.6449 90.8075 L 31.0217 90.9165 C 32.3291 90.9763 33.7226 91.1208 34.1185 91.2376 L 34.8391 91.4498 L 34.7295 92.6147 C 34.5692 94.3159 34.2581 99.5453 34.2011 101.4785 C 34.1577 102.9667 34.1933 103.1768 34.5286 103.4111 C 34.7366 103.5556 35.7961 104.2606 36.8842 104.9776 C 39.6562 106.804 40.0984 107.2185 39.9631 107.8629 C 39.8613 108.3485 39.7929 108.3806 38.8601 108.3806 C 38.3133 108.3806 36.9881 108.2923 35.915 108.1847 Z M 40.2999 106.3462 C 39.6114 105.7559 38.3069 104.7248 37.4004 104.0562 L 35.7534 102.84 L 35.7534 97.3307 L 35.7534 91.8215 L 36.2718 92.0045 C 36.5566 92.1056 37.4681 92.5521 38.2969 92.9964 C 39.4447 93.6123 39.7951 93.8915 39.7659 94.1692 C 39.7445 94.3693 39.6306 96.3687 39.5131 98.6117 C 39.3458 101.8032 39.3493 102.7866 39.5295 103.1334 C 39.7816 103.6183 42.058 106.2636 42.9752 107.138 L 43.5491 107.6849 L 42.5501 107.5524 C 41.697 107.4399 41.3695 107.264 40.2999 106.3462 Z M 41.4108 90.8524 C 41.5631 90.7555 41.8152 90.6772 41.9704 90.6772 C 42.1264 90.6765 42.0416 90.7883 41.7825 90.925 C 41.2683 91.1956 40.9629 91.1358 41.4108 90.8524 Z M 41.0476 85.8081 C 40.7799 85.3082 41.2078 84.5577 41.7874 84.51 L 42.2531 84.4723 L 41.7825 84.6118 C 41.1922 84.7877 41.0355 85.5511 41.5176 85.9035 C 41.8173 86.1228 41.8202 86.1499 41.5425 86.1499 C 41.3709 86.1499 41.148 85.9961 41.0476 85.8081 Z M 29.0436 85.0355 C 28.0567 84.5876 27.9314 84.112 28.3323 82.3368 C 28.5024 81.5841 28.6812 80.6599 28.7296 80.2825 C 28.8158 79.6153 28.8378 79.5989 29.5072 79.6794 C 29.886 79.7249 30.9534 79.8218 31.8783 79.8944 L 33.5617 80.0269 L 34.3748 81.216 C 35.3981 82.7128 35.4429 83.38 34.5764 84.2188 C 34.2396 84.5442 33.6671 84.9394 33.3046 85.096 C 32.3455 85.5112 30.0177 85.4777 29.0436 85.0355 Z M 43.7385 79.0748 C 43.7997 78.9139 43.7841 78.8235 43.7022 78.874 C 43.621 78.9246 43.4451 78.8982 43.312 78.8156 C 43.119 78.6967 43.1247 78.6447 43.3383 78.5629 C 43.7292 78.4133 44.1166 78.7152 43.982 79.0656 C 43.9186 79.2315 43.8125 79.3675 43.7463 79.3675 C 43.6801 79.3675 43.6765 79.2358 43.7385 79.0748 Z M 38.7683 76.2586 C 38.6387 76.1034 38.5924 75.9759 38.6643 75.9759 C 38.7362 75.9759 38.9221 76.1034 39.0773 76.2586 C 39.2333 76.4138 39.2795 76.5413 39.1813 76.5413 C 39.083 76.5413 38.8972 76.4138 38.7683 76.2586 Z M 40.0415 75.5109 C 39.993 75.2546 40.0251 75.0901 40.1141 75.1449 C 40.27 75.2418 40.3491 75.9759 40.2031 75.9759 C 40.1632 75.9759 40.0906 75.7666 40.0415 75.5109 Z M 28.1236 75.4105 C 28.1236 75.0794 28.2205 74.9477 28.4512 74.9655 C 28.6313 74.9797 28.736 74.9221 28.684 74.838 C 28.5623 74.6408 29.2836 74.4065 29.5349 74.5618 C 29.8668 74.7675 29.74 75.3785 29.3007 75.6882 C 28.6854 76.1226 28.1236 75.9902 28.1236 75.4105 Z M 28.8179 75.6591 C 28.6819 75.6042 28.5195 75.6113 28.4569 75.674 C 28.3942 75.7367 28.506 75.7808 28.704 75.773 C 28.924 75.7637 28.9681 75.7189 28.8179 75.6591 Z M 25.9533 72.2974 C 25.8222 72.14 25.7688 71.9563 25.8358 71.8894 C 25.902 71.8232 25.9568 71.8723 25.9568 71.999 C 25.9568 72.1265 26.0544 72.1699 26.174 72.0959 C 26.3093 72.0126 26.3406 72.0439 26.2573 72.1792 C 26.1818 72.301 26.231 72.3949 26.3698 72.3935 C 26.6625 72.39 27.2663 72.0282 26.9929 72.0197 C 26.8896 72.0168 26.9266 71.9371 27.0748 71.8424 C 27.2991 71.7007 27.3033 71.6209 27.099 71.3746 C 26.9623 71.2101 26.938 71.0776 27.0441 71.0776 C 27.3439 71.0776 27.4821 71.6345 27.277 72.0168 C 26.9615 72.6057 26.3214 72.7417 25.9533 72.2974 Z M 40.3697 69.222 C 40.7421 69.1009 40.8867 68.8318 40.9095 68.2187 C 40.9273 67.7459 41.2171 68.0186 41.2171 68.5078 C 41.2171 69.0404 40.8774 69.3872 40.379 69.363 C 39.998 69.3445 39.998 69.343 40.3697 69.222 Z M 30.1174 58.4371 L 29.4025 58.2234 L 29.7478 56.9061 C 30.3844 54.483 30.3866 53.971 29.7628 52.7448 C 29.342 51.9167 29.2814 51.6803 29.5129 51.775 C 31.7616 52.6943 34.5016 53.3679 35.9912 53.3679 L 36.9582 53.3679 L 36.3786 53.9802 C 36.0596 54.3171 35.7036 54.7778 35.5875 55.0042 C 35.0698 56.0139 35.5206 57.4679 36.7247 58.672 C 37.3833 59.3307 37.4132 59.4104 37.2203 59.9972 C 37.1077 60.3404 36.991 60.7206 36.9618 60.8417 C 36.9276 60.9813 35.7997 60.6217 33.87 59.8562 C 32.1988 59.194 30.5105 58.5553 30.1174 58.4371 Z M 8.2471 59.1384 C 5.616 58.4641 3.3295 57.5812 2.5513 56.9396 C 2.0998 56.5679 1.7295 56.0111 1.4668 55.309 C 1.0367 54.159 0.885 52.1766 1.2033 51.8583 C 1.3115 51.7501 1.9446 51.5749 2.6096 51.4695 C 4.6426 51.1455 7.0985 49.4536 7.4253 48.1513 C 7.5784 47.5418 7.1263 46.4445 5.0278 42.3302 C 3.3402 39.0219 2.3953 36.4777 2.0136 34.2162 C 1.6726 32.1989 1.7267 26.852 2.1105 24.6368 C 3.8444 14.6237 11.3289 6.3766 21.6688 3.0861 C 26.5137 1.5445 31.5544 1.5317 37.3434 3.0463 C 42.9552 4.5145 49.9071 8.198 53.2218 11.4593 C 55.5844 13.7835 56.4232 16.3982 56.2374 20.8621 C 56.0814 24.6175 55.2625 26.7801 53.7822 27.3433 C 53.0124 27.6367 53.0388 27.641 48.2145 26.3379 C 44.9789 25.4642 43.3212 25.7184 40.3014 27.5527 C 38.821 28.452 38.0947 28.9761 33.8344 32.2195 C 32.7271 33.0626 31.5764 33.8787 31.2774 34.0339 C 30.5845 34.3913 28.0503 34.8499 25.8628 35.0123 C 24.93 35.0813 24.0748 35.2116 23.9616 35.3021 C 23.8277 35.4089 23.3984 34.993 22.729 34.1079 C 22.1636 33.361 21.4153 32.5827 21.0664 32.3791 C 19.7077 31.5858 17.516 32.1939 16.1054 33.7548 C 15.2737 34.6755 15.1541 35.0934 15.2474 36.7483 C 15.357 38.6801 16.0164 39.8714 17.5502 40.9074 C 18.4253 41.4985 19.2335 42.318 20.4305 43.8276 C 22.4478 46.3725 25.4954 49.4807 26.8818 50.4071 C 27.549 50.8529 27.9834 51.3029 28.1379 51.7102 C 28.2675 52.052 28.5252 52.7256 28.7111 53.2069 L 29.0486 54.0821 L 28.4077 56.0004 C 28.0553 57.0549 27.6779 58.0326 27.5682 58.1722 C 27.324 58.4848 22.1957 58.927 20.8962 58.7475 C 18.9316 58.4762 17.2917 58.0404 17.422 57.824 C 17.4932 57.7043 17.7837 57.2849 18.0671 56.8912 C 18.3498 56.4974 18.859 55.5226 19.1979 54.7244 C 19.7448 53.4348 19.8145 53.0731 19.8238 51.4688 C 19.8338 49.6879 19.8217 49.6395 18.9508 47.8892 C 17.9653 45.9097 17.0076 44.5133 16.6345 44.5133 C 16.094 44.5133 16.2407 45.0809 17.1422 46.4801 C 18.4858 48.565 18.9857 49.893 18.9857 51.3776 C 18.9857 53.3629 17.892 55.9099 16.2969 57.641 C 14.3017 59.8056 12.3008 60.1781 8.2471 59.1384 Z M 37.9807 57.8553 C 37.3876 57.4452 36.6955 56.3906 36.6955 55.8985 C 36.6955 55.2612 37.8782 53.5487 38.3888 53.4476 C 39.1193 53.3024 40.7101 52.8694 41.0576 52.7213 C 41.341 52.6003 41.3367 52.7135 41.0106 53.9546 C 40.5741 55.618 40.5563 56.5935 40.9493 57.3533 L 41.247 57.9294 L 40.2779 57.7955 C 39.4027 57.6751 39.2981 57.6994 39.2076 58.0454 C 39.0965 58.4719 38.806 58.4271 37.9807 57.8553 Z M 32.3625 51.6981 C 28.046 50.526 26.117 49.0585 21.6324 43.535 C 20.0894 41.6345 19.116 40.6176 18.3213 40.0765 C 17.0532 39.2127 16.7527 38.6338 16.7356 37.0146 C 16.7199 35.5121 17.3672 34.4084 18.6489 33.754 C 19.7768 33.1787 20.261 33.2798 21.2437 34.2995 C 21.7222 34.7958 22.4898 35.7742 22.9491 36.4734 C 23.5799 37.4326 23.8783 37.7316 24.1645 37.6911 C 24.4145 37.6547 24.5391 37.4995 24.5313 37.2332 C 24.5199 36.8743 24.6765 36.8038 25.944 36.6002 C 29.6816 35.9992 31.622 35.1333 35.8189 32.1939 C 42.3279 27.636 44.1551 26.941 47.7816 27.646 C 49.4101 27.9621 49.4713 27.992 49.5817 28.5424 C 49.8366 29.8178 49.6906 31.5082 49.1922 33.0584 C 48.4595 35.3348 48.5043 36.2057 49.4514 38.1283 C 50.4098 40.0729 50.7075 41.0933 50.4184 41.4408 C 50.3044 41.5782 49.7348 41.8217 49.1523 41.982 C 47.4071 42.4612 47.3551 42.5067 46.2058 44.5425 C 44.8379 46.9678 43.8531 48.4696 43.6324 48.4696 C 43.3333 48.4696 42.0388 47.749 41.4556 47.2584 C 41.1444 46.9963 40.5321 46.2323 40.0941 45.5608 C 39.2682 44.2926 38.7555 43.9444 38.2876 44.3325 C 37.7329 44.7925 37.9793 45.4511 39.1685 46.6901 C 39.9403 47.4933 40.782 48.1285 41.7055 48.6034 L 43.0877 49.3155 L 42.3877 50.0383 C 41.4919 50.9647 40.4388 51.5834 39.14 51.948 C 37.7287 52.3439 34.2716 52.2172 32.3625 51.6981 Z M 42.649 34.2639 C 43.1724 33.7405 43.2899 33.4799 43.2899 32.839 C 43.2899 31.8692 43.0314 31.3608 42.4212 31.1287 C 41.8394 30.9079 40.7742 31.3095 40.4787 31.8621 C 40.134 32.5058 40.2237 34.2347 40.6197 34.5929 C 41.1815 35.1013 41.9334 34.9795 42.649 34.2639 Z "/>
        <path id="path45" fill="#a3a312" stroke-width="0.1884004222282076" d="M 41.3111 109.1083 C 42.1406 109.0136 43.4544 108.8747 44.2312 108.8 C 45.4667 108.6803 45.6518 108.6141 45.7009 108.2716 C 45.7401 107.9946 45.5422 107.7304 45.0288 107.3751 C 44.6286 107.0974 43.3882 105.9446 42.2731 104.8124 L 40.2451 102.7545 L 40.3597 99.6798 C 40.4231 97.9894 40.52 96.0896 40.5755 95.458 L 40.6759 94.3102 L 42.0295 95.0293 C 43.6032 95.8646 44.019 95.9144 44.5631 95.3341 C 45.1256 94.7338 45.3036 94.1677 45.723 91.6591 C 46.2578 88.4634 46.4928 85.7013 46.4885 82.6786 C 46.4842 79.5733 46.3112 78.2025 45.535 75.1279 C 44.5111 71.0755 40.9771 60.8673 40.1718 59.6383 C 39.8912 59.2111 39.8955 59.2082 40.7941 59.2082 C 41.7027 59.2082 42.5358 58.8216 42.5358 58.4007 C 42.5358 58.279 42.3507 57.7328 42.1242 57.1867 L 41.7134 56.1941 L 42.0559 53.9802 C 42.392 51.8141 42.4169 51.7479 43.2166 50.8849 C 44.2533 49.7655 45.4553 47.9049 46.544 45.7331 C 47.4469 43.9302 47.5309 43.8547 49.4101 43.169 C 50.7673 42.6734 51.5797 41.9286 51.5769 41.1837 C 51.5733 40.3421 51.1219 38.8688 50.4768 37.5949 C 49.7554 36.1694 49.7127 35.1611 50.2795 32.958 C 50.6007 31.7104 50.6519 31.1223 50.5515 29.8519 L 50.4269 28.284 L 51.3327 28.4285 C 53.4475 28.766 54.5056 28.4648 55.5168 27.2379 C 57.4044 24.9479 57.8003 18.486 56.2965 14.5134 C 55.3366 11.977 53.3514 9.8864 49.5069 7.3635 C 42.9153 3.037 36.0382 0.7805 29.4424 0.7805 C 24.903 0.7805 21.5377 1.6214 16.8858 3.9193 C 10.8767 6.8871 6.2554 11.4828 3.4399 17.289 C 1.3108 21.6803 0.4464 26.7174 0.8864 32.1683 C 1.2225 36.3346 1.8321 38.171 4.7636 43.8525 C 5.747 45.758 6.5516 47.5175 6.5516 47.7625 C 6.5516 48.7359 4.3222 50.259 2.3455 50.6357 C 1.288 50.8365 0.9 51.0052 0.5475 51.4154 C 0.1317 51.8982 0.1053 52.052 0.1993 53.4255 C 0.3189 55.1687 1.1285 57.0592 2.0314 57.7022 C 3.5866 58.8095 8.4963 60.2934 11.1822 60.4679 C 13.1966 60.5982 14.3801 60.292 15.6753 59.3036 L 16.4899 58.6813 L 18.2558 59.1797 C 19.9057 59.6447 20.266 59.676 23.7252 59.6611 L 27.4279 59.6454 L 26.2089 60.8467 C 24.5491 62.4823 24.3739 62.9458 24.4116 65.6033 C 24.4487 68.1938 24.307 68.7335 22.7974 71.7441 C 20.946 75.4383 20.8485 76.3412 22.1644 77.635 C 22.7817 78.2424 22.8544 78.4033 22.7312 78.8961 C 22.6535 79.2073 22.3709 80.4363 22.1031 81.6283 C 21.5356 84.1526 21.0592 85.074 19.2413 87.1617 C 16.4707 90.344 16.0456 91.0468 16.5747 91.5758 C 16.8816 91.8827 17.6022 91.8621 21.4409 91.4377 C 23.251 91.2369 25.3679 91.0176 26.1448 90.9492 L 27.5582 90.8253 L 27.5668 91.7375 C 27.6024 95.5734 28.1001 106.9037 28.2546 107.41 C 28.3892 107.8508 28.6292 108.1164 29.0522 108.293 C 30.4891 108.894 38.524 109.428 41.3111 109.1083 Z M 32.574 107.8244 C 29.0842 107.3046 29.3477 107.4577 29.3477 105.9517 C 29.3477 104.8202 28.9674 96.9455 28.6983 92.5079 L 28.5986 90.8595 L 30.4457 90.8595 C 32.2913 90.8595 34.3919 91.1351 34.6832 91.4156 C 34.7679 91.4968 34.6988 93.6729 34.5286 96.2512 C 34.3592 98.8296 34.2474 101.4821 34.2809 102.1464 L 34.3407 103.3534 L 35.2379 103.8419 C 36.0995 104.3111 38.9769 106.3106 39.8442 107.0419 C 40.2131 107.353 40.2344 107.4534 40.0329 107.9085 L 39.8043 108.4233 L 37.4495 108.3115 C 36.1543 108.2495 33.9604 108.0302 32.574 107.8244 Z M 42.0651 107.5268 C 41.5225 107.4385 41.0476 107.1551 40.3697 106.5164 C 39.8513 106.0279 38.6009 105.0082 37.5905 104.2499 L 35.7534 102.8713 L 35.7513 101.6224 C 35.7498 100.9359 35.695 98.4451 35.6288 96.0875 C 35.5248 92.3947 35.5462 91.8016 35.784 91.8016 C 36.1158 91.8016 39.3365 93.4215 39.6434 93.7419 C 39.8058 93.9121 39.7944 95.0664 39.5985 98.3939 L 39.3379 102.8193 L 39.8043 103.4759 C 40.0614 103.8369 41.0448 104.9648 41.9904 105.983 C 43.2984 107.3915 43.6032 107.8116 43.2643 107.7411 C 43.0193 107.6906 42.4796 107.5937 42.0651 107.5268 Z M 41.4435 91.7638 C 41.0889 91.4099 41.1779 90.8972 41.6173 90.7577 C 42.0409 90.6238 42.3393 90.9044 42.345 91.4405 C 42.35 92.0002 41.8565 92.1768 41.4435 91.7638 Z M 41.7825 91.0482 C 41.9519 90.9385 41.9754 90.8645 41.8408 90.8623 C 41.7169 90.8609 41.5638 90.9442 41.4998 91.0482 C 41.3552 91.2817 41.4207 91.2817 41.7825 91.0482 Z M 22.4114 87.3291 C 22.4805 86.7331 23.0651 86.5131 23.256 87.0108 C 23.335 87.2166 23.2531 87.4273 23.0309 87.5897 C 22.5097 87.9714 22.3452 87.9023 22.4114 87.3291 Z M 41.0476 85.8081 C 40.7977 85.3417 41.2014 84.5656 41.7333 84.4887 C 42.3108 84.4061 42.5266 85.2627 42.058 85.7803 C 41.6408 86.241 41.2847 86.251 41.0476 85.8081 Z M 41.5809 85.8309 C 41.5731 85.7469 41.4948 85.509 41.4058 85.3018 C 41.2491 84.9387 41.2434 84.9401 41.2306 85.3374 C 41.2228 85.5646 41.3018 85.8031 41.4058 85.8672 C 41.509 85.9313 41.5881 85.9149 41.5809 85.8309 Z M 29.0436 85.0355 C 28.0567 84.5876 27.9314 84.112 28.3323 82.3368 C 28.5024 81.5841 28.6812 80.6599 28.7296 80.2825 C 28.8158 79.6153 28.8378 79.5989 29.5072 79.6794 C 29.886 79.7249 30.9527 79.8218 31.8783 79.8944 L 33.5617 80.0269 L 34.3748 81.216 C 35.3981 82.7128 35.4429 83.38 34.5764 84.2188 C 34.2396 84.5442 33.6671 84.9394 33.3046 85.096 C 32.3455 85.5112 30.0177 85.4777 29.0436 85.0355 Z M 42.7751 79.4259 C 42.6654 79.0962 43.4223 78.4155 43.7563 78.5436 C 44.1301 78.6875 44.1194 78.9709 43.725 79.4066 C 43.3846 79.7826 42.8975 79.7926 42.7751 79.4259 Z M 38.8153 76.3248 C 38.6522 76.1618 38.6693 75.9731 38.8829 75.5594 C 39.1058 75.1271 39.2738 75.0232 39.6733 75.0695 C 40.3918 75.1528 40.4423 75.7886 39.7623 76.1945 C 39.1086 76.5847 39.0795 76.589 38.8153 76.3248 Z M 28.1236 75.4105 C 28.1236 75.0787 28.2205 74.9477 28.4512 74.9655 C 28.6313 74.9797 28.736 74.9221 28.684 74.838 C 28.5623 74.6408 29.2836 74.4065 29.5349 74.5618 C 29.8668 74.7675 29.74 75.3785 29.3007 75.6882 C 28.6854 76.1226 28.1236 75.9902 28.1236 75.4105 Z M 28.8179 75.6591 C 28.6819 75.6042 28.5195 75.6113 28.4569 75.674 C 28.3942 75.7367 28.506 75.7808 28.704 75.773 C 28.924 75.7637 28.9681 75.7189 28.8179 75.6591 Z M 25.9654 72.3123 C 25.8407 72.1628 25.7674 71.8452 25.8009 71.606 C 25.9077 70.8512 27.4457 70.9288 27.4607 71.69 C 27.4657 71.9293 26.7258 72.5851 26.451 72.5851 C 26.3079 72.5851 26.0893 72.4626 25.9654 72.3123 Z M 26.8989 72.1927 C 27.1218 72.0332 27.0733 72.0076 26.6696 72.0717 C 26.3883 72.1165 26.1192 72.0788 26.0715 71.9876 C 26.0237 71.8965 26.0067 71.93 26.0337 72.0617 C 26.0978 72.3793 26.545 72.4469 26.8989 72.1927 Z M 27.2756 71.6537 C 27.2756 71.5561 27.1908 71.4244 27.0869 71.3603 C 26.9836 71.2962 26.8989 71.376 26.8989 71.5376 C 26.8989 71.6993 26.9836 71.831 27.0869 71.831 C 27.1908 71.831 27.2756 71.7512 27.2756 71.6537 Z M 39.8164 69.019 C 39.1756 68.3113 39.9731 67.4105 40.8333 67.8712 C 41.509 68.2329 41.2213 69.3822 40.4552 69.3822 C 40.285 69.3822 39.9973 69.2184 39.8164 69.019 Z M 40.9266 69.0183 C 40.9864 68.9215 40.9358 68.7812 40.814 68.7065 C 40.683 68.6253 40.6439 68.6516 40.7179 68.7713 C 40.787 68.8823 40.7364 69.0162 40.6061 69.0682 C 40.4366 69.1365 40.4331 69.1679 40.594 69.1786 C 40.7172 69.1871 40.8667 69.1145 40.9266 69.0183 Z M 30.1174 58.4371 L 29.4025 58.2227 L 29.7478 56.9061 C 30.3844 54.4822 30.3866 53.971 29.7628 52.7441 C 29.342 51.9167 29.2814 51.6803 29.5129 51.775 C 31.7616 52.6943 34.5016 53.3679 35.9912 53.3679 L 36.9582 53.3679 L 36.3786 53.9802 C 36.0596 54.3171 35.7036 54.7778 35.5875 55.0042 C 35.0698 56.0139 35.5206 57.4679 36.7247 58.672 C 37.3833 59.3307 37.4132 59.4104 37.2203 59.9972 C 37.1077 60.3404 36.991 60.7206 36.9618 60.8417 C 36.9276 60.9813 35.7997 60.6217 33.87 59.8562 C 32.1988 59.194 30.5105 58.5553 30.1174 58.4371 Z M 8.2471 59.1384 C 5.616 58.4641 3.3295 57.5812 2.5513 56.9396 C 2.0998 56.5679 1.7295 56.0111 1.4668 55.309 C 1.0367 54.159 0.885 52.1766 1.2033 51.8583 C 1.3115 51.7501 1.9446 51.5756 2.6096 51.4695 C 4.6426 51.1455 7.0985 49.4536 7.4253 48.1513 C 7.5784 47.5418 7.1263 46.4445 5.0278 42.3302 C 3.3402 39.0219 2.3953 36.4777 2.0136 34.2162 C 1.6726 32.1989 1.7267 26.852 2.1105 24.6368 C 3.8444 14.6237 11.3289 6.3766 21.6688 3.0861 C 26.5137 1.5445 31.5544 1.5317 37.3434 3.0463 C 42.9552 4.5145 49.9071 8.198 53.2218 11.4593 C 55.5844 13.7835 56.4232 16.3982 56.2374 20.8621 C 56.0814 24.6175 55.2625 26.7801 53.7822 27.3433 C 53.0124 27.6367 53.0388 27.641 48.2145 26.3379 C 44.9789 25.4642 43.3212 25.7184 40.3014 27.5527 C 38.821 28.452 38.0947 28.9761 33.8344 32.2195 C 32.7271 33.0626 31.5764 33.8787 31.2774 34.0339 C 30.5845 34.3913 28.0503 34.8499 25.8628 35.0123 C 24.93 35.0813 24.0748 35.2116 23.9616 35.3021 C 23.8277 35.4089 23.3984 34.993 22.729 34.1079 C 22.1636 33.361 21.4153 32.5827 21.0664 32.3791 C 19.7077 31.5858 17.516 32.1939 16.1054 33.7548 C 15.2737 34.6755 15.1541 35.0934 15.2474 36.7483 C 15.357 38.6801 16.0164 39.8714 17.5502 40.9074 C 18.4253 41.4985 19.2335 42.318 20.4305 43.8276 C 22.4478 46.3725 25.4954 49.4807 26.8818 50.4071 C 27.549 50.8529 27.9834 51.3029 28.1379 51.7102 C 28.2675 52.052 28.5252 52.7256 28.7111 53.2069 L 29.0486 54.0821 L 28.4077 56.0004 C 28.0553 57.0549 27.6779 58.0326 27.5682 58.1722 C 27.324 58.4848 22.1957 58.927 20.8962 58.7475 C 18.9316 58.4762 17.2917 58.0404 17.422 57.824 C 17.4932 57.7043 17.7837 57.2849 18.0671 56.8912 C 18.3498 56.4974 18.859 55.5226 19.1979 54.7244 C 19.7448 53.4348 19.8145 53.0731 19.8238 51.4688 C 19.8338 49.6879 19.8217 49.6395 18.9508 47.8892 C 17.9653 45.9097 17.0076 44.5133 16.6345 44.5133 C 16.094 44.5133 16.2407 45.0809 17.1422 46.4801 C 18.4858 48.565 18.9857 49.893 18.9857 51.3776 C 18.9857 53.3629 17.892 55.9099 16.2969 57.641 C 14.3017 59.8056 12.3008 60.1781 8.2471 59.1384 Z M 37.9807 57.8553 C 37.3876 57.4452 36.6955 56.3906 36.6955 55.8985 C 36.6955 55.2612 37.8782 53.5487 38.3888 53.4476 C 39.1193 53.3024 40.7101 52.8694 41.0576 52.7213 C 41.341 52.6003 41.3367 52.7135 41.0106 53.9546 C 40.5741 55.618 40.5563 56.5935 40.9493 57.3533 L 41.247 57.9294 L 40.2779 57.7955 C 39.4027 57.6751 39.2981 57.6994 39.2076 58.0454 C 39.0965 58.4719 38.806 58.4271 37.9807 57.8553 Z M 32.3625 51.6981 C 28.046 50.526 26.117 49.0585 21.6324 43.535 C 20.0894 41.6345 19.116 40.6176 18.3213 40.0765 C 17.0532 39.2127 16.7527 38.6338 16.7356 37.0146 C 16.7199 35.5121 17.3672 34.4084 18.6489 33.754 C 19.7768 33.1787 20.261 33.2805 21.2437 34.3002 C 21.7222 34.7958 22.4898 35.7742 22.9491 36.4734 C 23.5799 37.4326 23.8783 37.7316 24.1645 37.6911 C 24.4145 37.6547 24.5391 37.4995 24.5313 37.2332 C 24.5199 36.8743 24.6765 36.8038 25.944 36.6002 C 29.6816 35.9992 31.622 35.1333 35.8189 32.1939 C 42.3279 27.636 44.1551 26.941 47.7816 27.646 C 49.4101 27.9621 49.4713 27.992 49.5817 28.5424 C 49.8366 29.8178 49.6906 31.5082 49.1922 33.0584 C 48.4595 35.3348 48.5043 36.2057 49.4514 38.1283 C 50.4098 40.0729 50.7075 41.0933 50.4184 41.4408 C 50.3044 41.5782 49.7348 41.8217 49.1523 41.982 C 47.4071 42.4612 47.3551 42.5067 46.2058 44.5425 C 44.8379 46.9678 43.8531 48.4696 43.6324 48.4696 C 43.3333 48.4696 42.0388 47.749 41.4556 47.2584 C 41.1444 46.9963 40.5321 46.2323 40.0941 45.5608 C 39.2682 44.2926 38.7555 43.9444 38.2876 44.3325 C 37.7329 44.7925 37.9793 45.4511 39.1685 46.6901 C 39.9403 47.4933 40.782 48.1285 41.7055 48.6034 L 43.0877 49.3155 L 42.3877 50.0383 C 41.4919 50.9647 40.4388 51.5834 39.14 51.948 C 37.7287 52.3439 34.2716 52.2172 32.3625 51.6981 Z M 42.649 34.2639 C 43.1724 33.7405 43.2899 33.4799 43.2899 32.839 C 43.2899 31.8692 43.0314 31.3608 42.4212 31.1287 C 41.8394 30.9079 40.7742 31.3095 40.4787 31.8621 C 40.134 32.5058 40.2237 34.2347 40.6197 34.5929 C 41.1815 35.1013 41.9334 34.9795 42.649 34.2639 Z "/>
        <path id="path43" fill="#013efa" stroke-width="0.1884004222282076" d="M 41.3111 109.1083 C 42.1406 109.0136 43.4544 108.8747 44.2312 108.8 C 45.4667 108.6803 45.6518 108.6141 45.7009 108.2716 C 45.7401 107.9946 45.5422 107.7304 45.0288 107.3751 C 44.6286 107.0974 43.3882 105.9446 42.2731 104.8124 L 40.2451 102.7545 L 40.3597 99.6798 C 40.4231 97.9894 40.52 96.0896 40.5755 95.458 L 40.6759 94.3102 L 42.0295 95.0293 C 43.6032 95.8646 44.019 95.9144 44.5631 95.3341 C 45.1256 94.7338 45.3036 94.1677 45.723 91.6591 C 46.2578 88.4634 46.4928 85.7013 46.4885 82.6786 C 46.4842 79.5733 46.3112 78.2025 45.535 75.1279 C 44.5111 71.0755 40.9771 60.8673 40.1718 59.6383 C 39.8912 59.2111 39.8955 59.2082 40.7941 59.2082 C 41.7027 59.2082 42.5358 58.8216 42.5358 58.4007 C 42.5358 58.279 42.3507 57.7328 42.1242 57.1867 L 41.7134 56.1941 L 42.0559 53.9802 C 42.392 51.8141 42.4169 51.7479 43.2166 50.8849 C 44.2533 49.7655 45.4553 47.9049 46.544 45.7331 C 47.4469 43.9302 47.5309 43.8547 49.4101 43.169 C 50.7673 42.6734 51.5797 41.9286 51.5769 41.1837 C 51.5733 40.3421 51.1219 38.8688 50.4768 37.5949 C 49.7554 36.1694 49.7127 35.1611 50.2795 32.958 C 50.6007 31.7104 50.6519 31.1223 50.5515 29.8519 L 50.4269 28.284 L 51.3327 28.4285 C 53.4475 28.766 54.5056 28.4648 55.5168 27.2379 C 57.4044 24.9479 57.8003 18.486 56.2965 14.5134 C 55.3366 11.977 53.3514 9.8864 49.5069 7.3635 C 42.9153 3.037 36.0382 0.7805 29.4424 0.7805 C 24.903 0.7805 21.5377 1.6214 16.8858 3.9193 C 10.8767 6.8871 6.2554 11.4828 3.4399 17.289 C 1.3108 21.6803 0.4464 26.7174 0.8864 32.1683 C 1.2225 36.3346 1.8321 38.171 4.7636 43.8525 C 5.747 45.758 6.5516 47.5175 6.5516 47.7625 C 6.5516 48.7359 4.3222 50.259 2.3455 50.6357 C 1.288 50.8365 0.9 51.0052 0.5475 51.4154 C 0.1317 51.8982 0.1053 52.052 0.1993 53.4255 C 0.3189 55.1687 1.1285 57.0592 2.0314 57.7022 C 3.5866 58.8095 8.4963 60.2934 11.1822 60.4679 C 13.1966 60.5982 14.3801 60.292 15.6753 59.3036 L 16.4899 58.6813 L 18.2558 59.1797 C 19.9057 59.6447 20.266 59.676 23.7252 59.6611 L 27.4279 59.6454 L 26.2089 60.8467 C 24.5491 62.4823 24.3739 62.9458 24.4116 65.6033 C 24.4487 68.1938 24.307 68.7335 22.7974 71.7441 C 20.946 75.4383 20.8485 76.3412 22.1644 77.635 C 22.7817 78.2424 22.8544 78.4033 22.7312 78.8961 C 22.6535 79.2073 22.3709 80.4363 22.1031 81.6283 C 21.5356 84.1526 21.0592 85.074 19.2413 87.1617 C 16.4707 90.344 16.0456 91.0468 16.5747 91.5758 C 16.8816 91.8827 17.6022 91.8621 21.4409 91.4377 C 23.251 91.2369 25.3679 91.0176 26.1448 90.9492 L 27.5582 90.8253 L 27.5668 91.7375 C 27.6024 95.5734 28.1001 106.9037 28.2546 107.41 C 28.3892 107.8508 28.6292 108.1164 29.0522 108.293 C 30.4891 108.894 38.524 109.428 41.3111 109.1083 Z M 32.574 107.8244 C 29.0842 107.3046 29.3477 107.4577 29.3477 105.9517 C 29.3477 104.8202 28.9674 96.9455 28.6983 92.5079 L 28.5986 90.8595 L 30.4457 90.8595 C 32.2913 90.8595 34.3919 91.1351 34.6832 91.4156 C 34.7679 91.4968 34.6988 93.6729 34.5286 96.2512 C 34.3592 98.8296 34.2474 101.4821 34.2809 102.1464 L 34.3407 103.3534 L 35.2379 103.8419 C 36.0995 104.3111 38.9769 106.3106 39.8442 107.0419 C 40.2131 107.353 40.2344 107.4534 40.0329 107.9085 L 39.8043 108.4233 L 37.4495 108.3115 C 36.1543 108.2495 33.9604 108.0302 32.574 107.8244 Z M 42.0651 107.5268 C 41.5225 107.4385 41.0476 107.1551 40.3697 106.5164 C 39.8513 106.0279 38.6009 105.0082 37.5905 104.2499 L 35.7534 102.8713 L 35.7513 101.6224 C 35.7498 100.9359 35.695 98.4451 35.6288 96.0875 C 35.5248 92.3947 35.5462 91.8016 35.784 91.8016 C 36.1158 91.8016 39.3365 93.4215 39.6434 93.7419 C 39.8058 93.9121 39.7944 95.0664 39.5985 98.3939 L 39.3379 102.8193 L 39.8043 103.4759 C 40.0614 103.8369 41.0448 104.9648 41.9904 105.983 C 43.2984 107.3915 43.6032 107.8116 43.2643 107.7411 C 43.0193 107.6906 42.4796 107.5937 42.0651 107.5268 Z M 41.4435 91.7638 C 41.0889 91.4099 41.1779 90.8972 41.6173 90.7577 C 42.0409 90.6238 42.3393 90.9044 42.345 91.4405 C 42.35 92.0002 41.8565 92.1768 41.4435 91.7638 Z M 22.4114 87.3291 C 22.4805 86.7331 23.0651 86.5131 23.256 87.0108 C 23.335 87.2166 23.2531 87.4273 23.0309 87.5897 C 22.5097 87.9714 22.3452 87.9023 22.4114 87.3291 Z M 41.0476 85.8081 C 40.7977 85.3417 41.2014 84.5656 41.7333 84.4887 C 42.3108 84.4061 42.5266 85.2627 42.058 85.7803 C 41.6408 86.241 41.2847 86.251 41.0476 85.8081 Z M 29.0436 85.0355 C 28.0567 84.5876 27.9314 84.112 28.3323 82.3368 C 28.5024 81.5841 28.6812 80.6599 28.7296 80.2825 C 28.8158 79.6153 28.8378 79.5982 29.5072 79.6794 C 29.886 79.7249 30.9527 79.8218 31.8783 79.8944 L 33.5617 80.0269 L 34.3748 81.216 C 35.3981 82.7128 35.4429 83.38 34.5764 84.2188 C 34.2396 84.5442 33.6671 84.9394 33.3046 85.096 C 32.3455 85.5112 30.0177 85.4777 29.0436 85.0355 Z M 42.7751 79.4259 C 42.6654 79.0962 43.4223 78.4155 43.7563 78.5436 C 44.1301 78.6875 44.1194 78.9702 43.725 79.4066 C 43.3846 79.7826 42.8975 79.7926 42.7751 79.4259 Z M 38.8153 76.3248 C 38.6522 76.1618 38.6693 75.9731 38.8829 75.5594 C 39.1058 75.1271 39.2738 75.0232 39.6733 75.0695 C 40.3918 75.1528 40.4423 75.7886 39.7623 76.1945 C 39.1086 76.5847 39.0795 76.589 38.8153 76.3248 Z M 28.0645 75.4689 C 28.0211 75.1656 28.1635 74.974 28.6 74.7483 C 29.2936 74.3902 29.7251 74.4927 29.7251 75.0175 C 29.7251 75.8663 28.1806 76.2857 28.0645 75.4689 Z M 25.9654 72.3123 C 25.8407 72.1628 25.7674 71.8452 25.8009 71.606 C 25.9077 70.8512 27.4457 70.9288 27.4607 71.69 C 27.4657 71.9293 26.7258 72.5851 26.451 72.5851 C 26.3079 72.5851 26.0893 72.4626 25.9654 72.3123 Z M 39.8164 69.0183 C 39.1756 68.3113 39.9731 67.4105 40.8333 67.8712 C 41.509 68.2329 41.2213 69.3822 40.4552 69.3822 C 40.285 69.3822 39.9973 69.2184 39.8164 69.0183 Z M 30.1174 58.4371 L 29.4025 58.2227 L 29.7478 56.9061 C 30.3844 54.483 30.3866 53.971 29.7628 52.7448 C 29.342 51.9167 29.2814 51.6803 29.5129 51.775 C 31.7616 52.6943 34.5016 53.3679 35.9912 53.3679 L 36.9582 53.3679 L 36.3786 53.9802 C 36.0596 54.3171 35.7036 54.7778 35.5875 55.0042 C 35.0698 56.0139 35.5206 57.4679 36.7247 58.672 C 37.3833 59.3307 37.4132 59.4104 37.2203 59.9972 C 37.1077 60.3404 36.991 60.7206 36.9618 60.8417 C 36.9276 60.9813 35.7997 60.6217 33.87 59.8562 C 32.1988 59.194 30.5105 58.5553 30.1174 58.4371 Z M 8.2228 59.1876 C 5.6687 58.546 3.8358 57.8781 2.72 57.1838 C 1.7737 56.5942 1.1058 55.1594 0.9577 53.3964 C 0.8551 52.1688 0.8751 52.0748 1.298 51.8056 C 1.5451 51.6482 2.1888 51.4617 2.7278 51.3912 C 3.8928 51.2381 5.5811 50.2939 6.5986 49.2258 C 7.7023 48.0673 7.6247 47.64 5.5854 43.6439 C 2.2251 37.0602 1.7566 35.3683 1.7573 29.8178 C 1.7573 25.5568 2.0272 23.7189 3.1266 20.4805 C 7.0102 9.0475 19.6501 0.7577 31.4205 1.924 C 36.0902 2.3869 40.0657 3.5269 44.5111 5.6781 C 50.1072 8.3853 53.8626 11.2628 55.1849 13.8554 C 57.0157 17.4435 56.6831 24.7578 54.5946 26.8463 C 53.6504 27.7905 52.9975 27.782 49.5995 26.7787 C 47.4327 26.1385 46.6615 25.9961 45.268 25.9783 C 43.6737 25.9569 43.4836 25.9982 42.0879 26.6647 C 40.4388 27.4516 38.0733 29.0395 35.0356 31.3971 C 31.0872 34.4611 30.3851 34.7552 26.389 35.0165 C 25.3743 35.0828 24.3639 35.2494 24.1439 35.3868 C 23.7736 35.6168 23.6967 35.5691 23.1249 34.7524 C 22.2811 33.5461 21.4409 32.6639 20.8321 32.3449 C 19.2955 31.5402 16.4999 32.7522 15.5984 34.6142 C 15.2417 35.3512 15.1854 35.7072 15.2666 36.7148 C 15.414 38.5583 16.1588 39.8935 17.573 40.8512 C 18.31 41.3504 19.2563 42.301 20.2931 43.5834 C 22.3139 46.082 25.9433 49.7235 27.2286 50.541 C 27.7882 50.8977 28.2176 51.31 28.2176 51.4916 C 28.2176 51.6682 28.3963 52.2179 28.6157 52.7128 C 29.1098 53.8293 29.0379 54.5784 28.2262 56.7929 L 27.6266 58.4278 L 26.3677 58.5802 C 24.0136 58.865 19.957 58.7689 18.4937 58.3936 L 17.1543 58.0504 L 17.9575 56.852 C 19.4557 54.6183 20.177 51.9466 19.7704 50.1394 C 19.3695 48.3578 17.2924 44.7063 16.6779 44.7035 C 16.2115 44.7013 16.2656 44.9847 16.91 45.9211 C 17.8108 47.2299 18.7728 49.2322 19.0092 50.2903 C 19.5561 52.732 17.7061 56.904 15.3164 58.6201 C 13.4572 59.9552 11.8024 60.0876 8.2228 59.1876 Z M 38.2563 58.1159 C 37.4567 57.6894 36.6955 56.6327 36.6955 55.9498 C 36.6955 55.6493 36.971 54.9536 37.3078 54.4046 C 37.881 53.4711 37.9786 53.3992 38.8338 53.2846 C 39.3358 53.2169 40.0813 53.0282 40.4901 52.8644 C 40.8988 52.7007 41.2648 52.5996 41.3039 52.6387 C 41.3438 52.6779 41.2135 53.3878 41.0156 54.2166 C 40.5605 56.1186 40.5634 56.4112 41.0455 57.3561 L 41.4385 58.1273 L 40.9038 57.9991 C 40.6097 57.9294 40.2252 57.829 40.0493 57.777 C 39.872 57.7243 39.5779 57.8468 39.3899 58.0525 C 38.9712 58.5104 38.9933 58.509 38.2563 58.1159 Z M 32.3625 51.6981 C 28.046 50.526 26.117 49.0585 21.6324 43.535 C 20.0894 41.6345 19.116 40.6176 18.3213 40.0765 C 17.0532 39.2127 16.7527 38.6338 16.7356 37.0146 C 16.7199 35.5121 17.3672 34.4084 18.6489 33.754 C 19.7768 33.1787 20.261 33.2798 21.2437 34.2995 C 21.7222 34.7958 22.4898 35.7742 22.9491 36.4734 C 23.5799 37.4326 23.8783 37.7316 24.1645 37.6911 C 24.4145 37.6547 24.5391 37.4995 24.5313 37.2332 C 24.5199 36.8743 24.6765 36.8038 25.944 36.6002 C 29.6816 35.9992 31.622 35.1333 35.8189 32.1939 C 42.3279 27.636 44.1551 26.941 47.7816 27.646 C 49.4101 27.9621 49.4713 27.992 49.5817 28.5424 C 49.8366 29.8178 49.6906 31.5082 49.1922 33.0584 C 48.4595 35.3348 48.5043 36.2057 49.4514 38.1283 C 50.4098 40.0729 50.7075 41.0926 50.4184 41.4408 C 50.3044 41.5782 49.7348 41.8217 49.1523 41.982 C 47.4071 42.4612 47.3551 42.5067 46.2058 44.5425 C 44.8379 46.9678 43.8531 48.4696 43.6324 48.4696 C 43.3333 48.4696 42.0388 47.749 41.4556 47.2584 C 41.1444 46.9963 40.5321 46.2323 40.0941 45.5608 C 39.2682 44.2926 38.7555 43.9444 38.2876 44.3325 C 37.7329 44.7925 37.9793 45.4511 39.1685 46.6901 C 39.9403 47.4933 40.782 48.1285 41.7055 48.6034 L 43.0877 49.3155 L 42.3877 50.0383 C 41.4919 50.9647 40.4388 51.5834 39.14 51.948 C 37.7287 52.3439 34.2723 52.2165 32.3625 51.6981 Z M 42.649 34.2639 C 43.1724 33.7405 43.2899 33.4799 43.2899 32.839 C 43.2899 31.8692 43.0314 31.3608 42.4212 31.1287 C 41.8394 30.9079 40.7742 31.3095 40.4787 31.8621 C 40.134 32.5058 40.2237 34.2347 40.6197 34.5929 C 41.1815 35.1013 41.9334 34.9795 42.649 34.2639 Z "/>
        <path id="path41" fill="#625c59" stroke-width="0.1884004222282076" d="M 41.3111 109.1083 C 42.1406 109.0136 43.4544 108.8747 44.2312 108.8 C 45.4667 108.6803 45.6518 108.6141 45.7009 108.2716 C 45.7401 107.9946 45.5422 107.7304 45.0288 107.3751 C 44.6286 107.0974 43.3882 105.9446 42.2731 104.8124 L 40.2451 102.7545 L 40.3597 99.6798 C 40.4231 97.9894 40.52 96.0896 40.5755 95.458 L 40.6759 94.3102 L 42.0295 95.0293 C 43.6032 95.8646 44.019 95.9144 44.5631 95.3341 C 45.1256 94.7338 45.3036 94.1677 45.723 91.6591 C 46.2578 88.4634 46.4928 85.7013 46.4885 82.6786 C 46.4842 79.5733 46.3112 78.2025 45.535 75.1279 C 44.5111 71.0755 40.9771 60.8673 40.1718 59.6383 C 39.8912 59.2111 39.8955 59.2082 40.7941 59.2082 C 41.7027 59.2082 42.5358 58.8216 42.5358 58.4007 C 42.5358 58.279 42.3507 57.7328 42.1242 57.1867 L 41.7134 56.1941 L 42.0559 53.9802 C 42.392 51.8141 42.4169 51.7479 43.2166 50.8849 C 44.2533 49.7655 45.4553 47.9049 46.544 45.7331 C 47.4469 43.9302 47.5309 43.8547 49.4101 43.169 C 50.7673 42.6734 51.5797 41.9286 51.5769 41.1837 C 51.5733 40.3421 51.1219 38.8688 50.4768 37.5949 C 49.7554 36.1694 49.7127 35.1611 50.2795 32.958 C 50.6007 31.7104 50.6519 31.1223 50.5515 29.8519 L 50.4269 28.284 L 51.3327 28.4285 C 53.4475 28.766 54.5056 28.4648 55.5168 27.2379 C 57.4044 24.9479 57.8003 18.486 56.2965 14.5134 C 55.3366 11.977 53.3514 9.8864 49.5069 7.3635 C 42.9153 3.037 36.0382 0.7805 29.4424 0.7805 C 24.903 0.7805 21.5377 1.6214 16.8858 3.9193 C 10.8767 6.8871 6.2554 11.4828 3.4399 17.289 C 1.3108 21.6803 0.4464 26.7174 0.8864 32.1683 C 1.2225 36.3346 1.8321 38.171 4.7636 43.8525 C 5.747 45.758 6.5516 47.5175 6.5516 47.7625 C 6.5516 48.7359 4.3222 50.259 2.3455 50.6357 C 1.288 50.8365 0.9 51.0052 0.5475 51.4154 C 0.1317 51.8982 0.1053 52.052 0.1993 53.4255 C 0.3189 55.1687 1.1285 57.0592 2.0314 57.7022 C 3.5866 58.8095 8.4963 60.2934 11.1822 60.4679 C 13.1966 60.5982 14.3801 60.292 15.6753 59.3036 L 16.4899 58.6813 L 18.2558 59.1797 C 19.9057 59.6447 20.266 59.676 23.7252 59.6611 L 27.4279 59.6454 L 26.2089 60.8467 C 24.5491 62.4823 24.3739 62.9458 24.4116 65.6033 C 24.4487 68.1938 24.307 68.7335 22.7974 71.7441 C 20.946 75.4383 20.8485 76.3412 22.1644 77.635 C 22.7817 78.2424 22.8544 78.4033 22.7312 78.8961 C 22.6535 79.2073 22.3709 80.4363 22.1031 81.6283 C 21.5356 84.1526 21.0592 85.074 19.2413 87.1617 C 16.4707 90.344 16.0456 91.0468 16.5747 91.5758 C 16.8816 91.8827 17.6022 91.8621 21.4409 91.4377 C 23.251 91.2369 25.3679 91.0176 26.1448 90.9492 L 27.5582 90.8253 L 27.5668 91.7375 C 27.6024 95.5734 28.1001 106.9037 28.2546 107.41 C 28.3892 107.8508 28.6292 108.1164 29.0522 108.293 C 30.4891 108.894 38.524 109.428 41.3111 109.1083 Z M 32.574 107.8244 C 29.0842 107.3046 29.3477 107.4577 29.3477 105.9517 C 29.3477 104.8202 28.9674 96.9455 28.6983 92.5079 L 28.5986 90.8595 L 30.4457 90.8595 C 32.2913 90.8595 34.3919 91.1351 34.6832 91.4156 C 34.7679 91.4968 34.6988 93.6729 34.5286 96.2512 C 34.3592 98.8296 34.2474 101.4821 34.2809 102.1464 L 34.3407 103.3534 L 35.2379 103.8419 C 36.0995 104.3111 38.9769 106.3106 39.8442 107.0419 C 40.2131 107.353 40.2344 107.4534 40.0329 107.9085 L 39.8043 108.4233 L 37.4495 108.3115 C 36.1543 108.2495 33.9604 108.0302 32.574 107.8244 Z M 42.0651 107.5268 C 41.5225 107.4385 41.0476 107.1551 40.3697 106.5164 C 39.8513 106.0279 38.6009 105.0082 37.5905 104.2499 L 35.7534 102.8713 L 35.7513 101.6224 C 35.7498 100.9359 35.695 98.4451 35.6288 96.0875 C 35.5248 92.3947 35.5462 91.8016 35.784 91.8016 C 36.1158 91.8016 39.3365 93.4215 39.6434 93.7419 C 39.8058 93.9121 39.7944 95.0664 39.5985 98.3939 L 39.3379 102.8193 L 39.8043 103.4759 C 40.0614 103.8369 41.0448 104.9648 41.9904 105.983 C 43.2984 107.3915 43.6032 107.8116 43.2643 107.7411 C 43.0193 107.6906 42.4796 107.5937 42.0651 107.5268 Z M 40.6118 92.8946 C 37.6219 91.1813 35.9108 90.4159 34.1135 89.9886 C 32.161 89.5244 27.7071 89.6034 22.4015 90.1966 C 19.9797 90.4664 17.9639 90.6537 17.9219 90.6124 C 17.8799 90.5704 18.656 89.5393 19.6451 88.321 C 22.2057 85.1694 22.7383 84.1511 23.5835 80.7895 C 23.8199 79.8517 24.0898 79.0884 24.1838 79.0926 C 24.2785 79.0969 25.019 79.2158 25.8301 79.3561 C 27.1858 79.5911 27.2962 79.6438 27.1944 80.0076 C 26.8975 81.0715 26.6796 83.2155 26.7921 83.9646 C 27.0185 85.4749 28.0375 86.2866 30.2527 86.7224 C 32.4359 87.1518 34.1327 86.664 35.4244 85.2349 C 36.7076 83.8143 36.7012 82.7014 35.4009 80.9782 L 34.6568 79.9927 L 35.7919 79.7812 C 38.5127 79.2756 38.8267 78.1335 37.0522 75.1983 C 35.8075 73.1383 35.2792 72.0945 35.0157 71.1716 C 34.8975 70.7572 34.7202 68.7257 34.6219 66.6571 C 34.4617 63.2884 34.3962 62.802 33.9967 61.9938 C 33.7511 61.4982 33.5595 61.0923 33.5702 61.0923 C 33.5809 61.0923 34.3521 61.3031 35.2842 61.5609 C 37.2302 62.0992 37.8262 62.1476 37.8262 61.766 C 37.8262 61.3914 38.7911 60.2827 38.9556 60.4686 C 39.1955 60.7406 40.8119 64.7374 42.0374 68.0912 C 45.1669 76.6538 45.7515 79.7178 45.3563 85.4905 C 45.1441 88.5887 44.395 93.5938 44.0454 94.2461 C 43.7955 94.7139 43.7648 94.7018 40.6118 92.8946 Z M 42.3101 91.9525 C 42.434 91.8279 42.5308 91.5951 42.5244 91.4341 C 42.5166 91.2554 42.4461 91.306 42.3414 91.5659 C 42.152 92.0387 41.8031 92.1092 41.4051 91.7546 C 41.1808 91.5545 41.1786 91.568 41.3908 91.8486 C 41.6821 92.2338 41.9932 92.2694 42.3101 91.9525 Z M 23.3229 87.5584 C 23.669 87.1411 23.4724 87.0927 23.0836 87.5 C 22.9021 87.6901 22.8287 87.8453 22.9191 87.8453 C 23.0103 87.8453 23.1919 87.7157 23.3229 87.5584 Z M 22.3993 87.3212 C 22.462 86.9467 22.4342 86.7708 22.3296 86.8755 C 22.2349 86.9702 22.1886 87.2486 22.227 87.4936 C 22.2861 87.871 22.3132 87.8446 22.3993 87.3212 Z M 42.2239 85.8053 C 42.5657 85.4279 42.6341 84.9138 42.3649 84.7471 C 42.2709 84.6895 42.2396 84.8141 42.2944 85.0248 C 42.3528 85.2491 42.2553 85.5624 42.0594 85.7789 C 41.875 85.9826 41.7668 86.1499 41.8181 86.1499 C 41.87 86.1499 42.053 85.9947 42.2239 85.8053 Z M 43.6908 79.6196 C 43.9265 79.3347 43.9129 79.329 43.5405 79.5612 C 43.1945 79.7762 43.0791 79.7741 42.7872 79.5441 C 42.471 79.2956 42.4639 79.3006 42.7003 79.6025 C 43.025 80.0169 43.3575 80.0219 43.6908 79.6196 Z M 42.9951 78.8569 C 43.0969 78.5885 43.0756 78.5671 42.8897 78.7515 C 42.7608 78.8797 42.7032 79.0314 42.7608 79.0898 C 42.8185 79.1475 42.9239 79.0428 42.9951 78.8569 Z M 39.815 76.2479 C 40.1668 75.9667 40.1639 75.9631 39.7573 76.1603 C 39.5238 76.2736 39.3329 76.4053 39.3329 76.4537 C 39.3329 76.5976 39.4312 76.5563 39.815 76.2479 Z M 38.915 75.5202 C 39.0296 75.2688 39.3194 75.0253 39.558 74.9797 C 39.9909 74.8971 39.9909 74.8971 39.5729 74.8715 C 39.1799 74.8473 38.403 75.674 38.618 75.8883 C 38.6665 75.9375 38.8003 75.7716 38.915 75.5202 Z M 40.087 69.311 C 40.087 69.2718 39.9382 69.123 39.7573 68.9813 C 39.4583 68.747 39.4519 68.7534 39.6861 69.0525 C 39.9325 69.3658 40.087 69.4662 40.087 69.311 Z M 39.8585 67.9502 C 39.9923 67.805 40.0187 67.6861 39.9168 67.6861 C 39.721 67.6861 39.4383 68.0449 39.5501 68.151 C 39.5864 68.1852 39.7253 68.0948 39.8585 67.9502 Z M 29.0436 85.0355 C 28.0567 84.5876 27.9314 84.112 28.3323 82.3368 C 28.5024 81.5841 28.6812 80.6599 28.7303 80.2825 C 28.8158 79.6153 28.8378 79.5989 29.5072 79.6794 C 29.886 79.7249 30.9534 79.8218 31.8783 79.8944 L 33.5617 80.0269 L 34.3748 81.216 C 35.3981 82.7128 35.4429 83.38 34.5764 84.2188 C 34.2396 84.5442 33.6671 84.9394 33.3046 85.096 C 32.3455 85.5112 30.0177 85.4777 29.0436 85.0355 Z M 29.8191 78.8861 C 27.4208 78.6526 24.8353 77.7233 23.5344 76.6289 C 23.0872 76.2529 22.9426 75.9766 22.9426 75.4981 C 22.9426 74.7035 23.6533 72.4384 24.7613 69.7033 C 25.5922 67.6533 25.6136 67.5486 25.5096 66.0853 C 25.3209 63.4137 25.6328 62.8262 28.1728 61.0703 C 29.4687 60.1745 29.6147 60.1197 30.3802 60.2343 C 31.4426 60.3938 32.7834 61.5438 33.1964 62.6503 C 33.3872 63.1609 33.5581 64.5993 33.6727 66.65 C 33.9341 71.3496 34.1064 71.9528 36.155 75.3165 C 37.3513 77.2826 37.5485 77.9491 37.0729 78.4247 C 36.877 78.6205 36.3943 78.8334 35.9998 78.8982 C 35.6053 78.963 35.1553 79.0428 35 79.0755 C 34.6397 79.1524 31.2987 79.0307 29.8191 78.8861 Z M 25.7539 71.7213 C 25.7446 71.502 25.6998 71.4572 25.6399 71.6074 C 25.5851 71.7434 25.5922 71.9058 25.6549 71.9684 C 25.7176 72.0311 25.7617 71.92 25.7539 71.7213 Z M 26.5222 71.0776 L 27.1816 70.9388 L 26.5806 70.9139 C 26.2495 70.9003 25.9269 70.9737 25.8628 71.0776 C 25.7987 71.1816 25.7724 71.2549 25.8044 71.2414 C 25.8365 71.2279 26.159 71.1538 26.5222 71.0776 Z M 30.1174 58.4371 L 29.4025 58.2227 L 29.7478 56.9061 C 30.3844 54.483 30.3866 53.971 29.7628 52.7448 C 29.342 51.9167 29.2814 51.6803 29.5129 51.775 C 31.7616 52.6943 34.5016 53.3679 35.9912 53.3679 L 36.9582 53.3679 L 36.3786 53.9802 C 36.0596 54.3171 35.7036 54.7778 35.5875 55.0042 C 35.0698 56.0139 35.5206 57.4679 36.7247 58.672 C 37.3833 59.3307 37.4132 59.4104 37.2203 59.9972 C 37.1077 60.3404 36.991 60.7206 36.9618 60.8417 C 36.9276 60.9813 35.7997 60.6217 33.87 59.8562 C 32.1988 59.194 30.5105 58.5553 30.1174 58.4371 Z M 8.2228 59.1876 C 5.6687 58.546 3.8358 57.8781 2.72 57.1838 C 1.7737 56.5942 1.1058 55.1594 0.9577 53.3964 C 0.8551 52.1688 0.8751 52.0748 1.298 51.8056 C 1.5451 51.6482 2.1888 51.4617 2.7278 51.3912 C 3.8928 51.2381 5.5811 50.2939 6.5986 49.2258 C 7.7023 48.0673 7.6247 47.64 5.5854 43.6439 C 2.2251 37.0609 1.7566 35.3683 1.7573 29.8178 C 1.7573 25.5568 2.0272 23.7189 3.1266 20.4805 C 7.0102 9.0475 19.6501 0.7577 31.4205 1.924 C 36.0902 2.3869 40.0657 3.5269 44.5111 5.6781 C 50.1072 8.3853 53.8626 11.2628 55.1849 13.8554 C 57.0157 17.4435 56.6831 24.7585 54.5946 26.8463 C 53.6504 27.7905 52.9975 27.782 49.5995 26.7787 C 47.4327 26.1385 46.6615 25.9961 45.268 25.9783 C 43.6737 25.9569 43.4836 25.9982 42.0879 26.6647 C 40.4388 27.4516 38.0733 29.0395 35.0356 31.3971 C 31.0872 34.4618 30.3851 34.7552 26.389 35.0165 C 25.3743 35.0828 24.3639 35.2494 24.1439 35.3868 C 23.7736 35.6168 23.6967 35.5691 23.1249 34.7524 C 22.2811 33.5461 21.4409 32.6639 20.8321 32.3456 C 19.2955 31.5402 16.4999 32.7522 15.5984 34.6142 C 15.2417 35.3512 15.1854 35.7072 15.2666 36.7148 C 15.414 38.5583 16.1588 39.8935 17.573 40.8512 C 18.31 41.3504 19.2563 42.301 20.2931 43.5834 C 22.3139 46.082 25.9433 49.7235 27.2286 50.541 C 27.7882 50.8977 28.2176 51.31 28.2176 51.4916 C 28.2176 51.6682 28.3963 52.2179 28.6157 52.7128 C 29.1098 53.8293 29.0379 54.5784 28.2262 56.7929 L 27.6266 58.4278 L 26.3677 58.5802 C 24.0136 58.865 19.957 58.7689 18.4937 58.3936 L 17.1543 58.0504 L 17.9575 56.852 C 19.4557 54.6183 20.177 51.9466 19.7704 50.1394 C 19.3695 48.3578 17.2924 44.7063 16.6779 44.7035 C 16.2115 44.7013 16.2656 44.9847 16.91 45.9211 C 17.8108 47.2299 18.7728 49.2322 19.0092 50.2903 C 19.5561 52.732 17.7061 56.904 15.3164 58.6201 C 13.4572 59.9552 11.8024 60.0876 8.2228 59.1876 Z M 38.2563 58.1159 C 37.4567 57.6894 36.6955 56.6327 36.6955 55.9505 C 36.6955 55.6493 36.971 54.9536 37.3078 54.4046 C 37.881 53.4711 37.9786 53.3992 38.8338 53.2846 C 39.3358 53.2169 40.0813 53.0282 40.4901 52.8644 C 40.8988 52.7007 41.2648 52.5996 41.3039 52.6387 C 41.3438 52.6779 41.2135 53.3878 41.0156 54.2166 C 40.5605 56.1186 40.5634 56.4112 41.0455 57.3561 L 41.4385 58.1273 L 40.9038 57.9991 C 40.6097 57.9294 40.2252 57.829 40.0493 57.777 C 39.872 57.7243 39.5779 57.8468 39.3899 58.0525 C 38.9712 58.5104 38.9933 58.509 38.2563 58.1159 Z M 32.3625 51.6981 C 28.046 50.526 26.117 49.0585 21.6324 43.535 C 20.0894 41.6345 19.116 40.6176 18.3213 40.0765 C 17.0532 39.2127 16.7527 38.6338 16.7356 37.0146 C 16.7199 35.5121 17.3672 34.4084 18.6489 33.754 C 19.7768 33.1787 20.261 33.2805 21.2437 34.3002 C 21.7222 34.7958 22.4898 35.7742 22.9491 36.4734 C 23.5799 37.4326 23.8783 37.7316 24.1645 37.6911 C 24.4145 37.6547 24.5391 37.4995 24.5313 37.2332 C 24.5199 36.8743 24.6765 36.8038 25.944 36.6002 C 29.6816 35.9992 31.622 35.1333 35.8189 32.1939 C 42.3279 27.636 44.1551 26.941 47.7816 27.646 C 49.4101 27.9621 49.4713 27.992 49.5817 28.5424 C 49.8366 29.8178 49.6906 31.5082 49.1922 33.0584 C 48.4595 35.3348 48.5043 36.2057 49.4514 38.1283 C 50.4098 40.0729 50.7075 41.0933 50.4184 41.4408 C 50.3044 41.5782 49.7348 41.8217 49.1523 41.982 C 47.4071 42.4612 47.3551 42.5067 46.2058 44.5425 C 44.8379 46.9678 43.8531 48.4696 43.6324 48.4696 C 43.3333 48.4696 42.0388 47.749 41.4556 47.2584 C 41.1444 46.9963 40.5321 46.2323 40.0941 45.5608 C 39.2682 44.2926 38.7555 43.9444 38.2876 44.3325 C 37.7329 44.7925 37.9793 45.4511 39.1685 46.6901 C 39.9403 47.4933 40.782 48.1285 41.7055 48.6034 L 43.0877 49.3155 L 42.3877 50.0383 C 41.4919 50.9647 40.4388 51.5834 39.14 51.948 C 37.7287 52.3439 34.2723 52.2172 32.3625 51.6981 Z M 42.649 34.2639 C 43.1724 33.7405 43.2899 33.4799 43.2899 32.839 C 43.2899 31.8692 43.0314 31.3608 42.4212 31.1287 C 41.8394 30.9079 40.7742 31.3095 40.4787 31.8621 C 40.134 32.5058 40.2237 34.2347 40.6197 34.5929 C 41.1815 35.1013 41.9334 34.9795 42.649 34.2639 Z "/>
        <path id="path39" fill="#030302" stroke-width="0.1884004222282076" d="M 41.3111 108.9602 C 41.5183 108.8633 42.4653 108.7779 43.4152 108.7708 C 45.1961 108.7572 45.7387 108.659 45.7387 108.3507 C 45.7387 108.2524 44.5004 106.9714 42.9873 105.5038 L 40.2358 102.8357 L 40.3711 98.5904 C 40.4459 96.2555 40.5285 94.3201 40.5556 94.2902 C 40.5826 94.2603 41.2555 94.5779 42.0502 94.9966 C 42.8456 95.4153 43.6253 95.7578 43.7841 95.7578 C 43.9421 95.7578 44.3074 95.5228 44.5951 95.2351 C 45.0416 94.7887 45.1769 94.3821 45.5201 92.4559 C 46.1488 88.927 46.3155 87.4117 46.4315 84.1711 C 46.5576 80.6471 46.3439 78.5386 45.5329 75.3165 C 44.4627 71.0605 41.0775 61.3223 40.0778 59.6241 L 39.7132 59.0031 L 40.3562 59.1242 C 41.195 59.2816 42.1185 59.0708 42.3315 58.6735 C 42.4411 58.4691 42.3998 58.0938 42.214 57.6054 C 41.7518 56.3927 41.7205 55.5347 42.068 53.6085 C 42.377 51.8896 42.4454 51.7344 43.3639 50.6499 C 44.5175 49.2877 44.9091 48.6803 46.4002 45.9375 L 47.5331 43.854 L 49.1623 43.1946 C 50.0588 42.8314 50.9211 42.4227 51.0792 42.2867 C 51.7962 41.6665 51.5976 40.058 50.5408 37.9189 C 49.6465 36.1096 49.6095 35.6261 50.1748 33.1751 C 50.6512 31.1102 50.6847 30.0834 50.3244 28.5624 C 50.2332 28.1779 50.2688 28.1643 50.9503 28.3224 C 52.0305 28.5731 53.5821 28.5332 54.292 28.2363 C 56.3121 27.3925 57.5817 22.8694 57.0755 18.32 C 56.8163 15.9887 56.2189 14.032 55.3558 12.6862 C 53.1349 9.2263 45.6696 4.4953 39.0047 2.3249 C 35.7335 1.2597 33.4143 0.9122 29.5364 0.9051 C 25.7019 0.898 24.3255 1.103 21.1831 2.1519 C 13.2935 4.7865 7.1284 10.0359 3.6279 17.101 C 1.6284 21.1363 0.8993 24.5001 0.8993 29.6874 C 0.8993 35.1141 1.4696 37.2346 4.5685 43.3278 C 5.7399 45.632 6.5516 47.4513 6.5516 47.776 C 6.5516 48.7929 4.236 50.4327 2.4736 50.6634 C 0.5496 50.9155 0.037 51.5507 0.2135 53.4619 C 0.5432 57.0378 2.0742 58.3445 7.6212 59.7871 C 11.6393 60.8317 13.5121 60.7178 15.5671 59.3036 L 16.5291 58.6421 L 18.3698 59.1249 C 20.5957 59.7088 22.7212 59.8598 25.4854 59.6305 C 26.6254 59.5358 27.5832 59.4767 27.6131 59.4987 C 27.6437 59.5201 27.1018 60.0791 26.409 60.7392 C 24.6594 62.4082 24.4209 63.0149 24.4736 65.6617 C 24.5213 68.0699 24.3041 68.9493 23.115 71.1602 C 22.7212 71.8915 22.133 73.159 21.8069 73.9757 C 21.0827 75.7908 21.1482 76.4259 22.1786 77.5474 L 22.8978 78.3307 L 22.4577 80.4035 C 21.6282 84.3071 21.3533 84.829 18.2402 88.4107 C 16.633 90.2592 16.2806 90.8403 16.4686 91.3309 C 16.6416 91.7823 17.385 91.8671 19.1438 91.6371 C 21.4993 91.3287 26.2153 90.8595 26.9587 90.8595 L 27.5953 90.8595 L 27.7242 95.1454 C 27.7954 97.5031 27.9399 101.2549 28.0453 103.4823 C 28.281 108.4717 28.1478 108.241 31.0459 108.6697 C 33.3502 109.0107 40.7542 109.2201 41.3111 108.9602 Z M 34.2467 108.0772 C 30.9463 107.6963 29.5186 107.43 29.4395 107.1814 C 29.4025 107.0639 29.1946 103.3712 28.9774 98.9756 C 28.6584 92.5079 28.6292 90.9521 28.8243 90.821 C 29.3776 90.4508 34.9466 91.1044 34.8776 91.5317 C 34.8619 91.6285 34.696 94.2247 34.5087 97.3015 C 34.1776 102.7496 34.1776 102.9062 34.5194 103.2836 C 34.7124 103.4965 34.9459 103.671 35.0392 103.671 C 35.25 103.671 37.0942 104.9071 38.92 106.2714 C 39.9368 107.0312 40.2643 107.3794 40.1732 107.6051 C 40.1055 107.7725 40.0229 108.0373 39.9888 108.1926 C 39.9546 108.3478 39.9204 108.4966 39.9126 108.523 C 39.8869 108.6098 36.6549 108.3556 34.2467 108.0772 Z M 42.0388 107.6293 C 41.8131 107.6279 40.9344 107.0269 40.04 106.2615 C 39.1621 105.5102 37.8462 104.4713 37.1156 103.9537 L 35.7876 103.0116 L 35.6658 101.6928 C 35.5989 100.9673 35.5697 98.3953 35.6017 95.9778 L 35.6594 91.5815 L 37.8041 92.6553 L 39.9489 93.7284 L 39.8307 94.9788 C 39.7659 95.6666 39.6577 97.7566 39.5893 99.6236 L 39.4654 103.0187 L 40.4723 104.2285 C 41.0255 104.8936 42.0146 105.9845 42.669 106.6517 L 43.8595 107.8657 L 43.1503 107.7482 C 42.7608 107.6842 42.2602 107.6308 42.0388 107.6293 Z M 40.8625 93.0484 C 38.0826 91.4534 36.024 90.4857 34.5685 90.0883 C 33.2533 89.7294 30.3965 89.5906 27.6209 89.7501 C 24.8702 89.9089 18.4538 90.5982 17.9568 90.789 C 17.4462 90.9848 17.6371 90.6751 19.0541 89.0067 C 22.0205 85.5155 22.8714 83.9389 23.6298 80.5353 C 23.9417 79.1361 24.0186 78.9823 24.3554 79.0755 C 24.5626 79.1325 25.311 79.2778 26.0181 79.3974 C 27.188 79.5961 27.2941 79.6509 27.1937 80.0098 C 26.8975 81.0715 26.6796 83.2162 26.7921 83.9646 C 27.0185 85.4749 28.0375 86.2866 30.2527 86.7224 C 32.2906 87.1233 33.6991 86.7836 35.1011 85.5532 C 35.9827 84.7792 36.3188 84.0935 36.3188 83.0709 C 36.3188 82.3774 36.1757 82.0406 35.4821 81.0985 L 34.6454 79.9621 L 35.4351 79.8396 C 36.7631 79.6345 37.426 79.3618 37.8234 78.8569 C 38.5248 77.9654 38.3389 77.3687 36.2511 73.8091 C 34.9837 71.6487 34.822 70.9438 34.6155 66.7013 C 34.4247 62.7707 34.2032 61.7425 33.4235 61.1586 C 33.0767 60.8987 33.0711 60.8745 33.3815 60.9806 C 34.4396 61.3423 37.1042 62.0344 37.4389 62.0344 C 37.6874 62.0344 37.8262 61.9119 37.8262 61.6926 C 37.8262 61.5046 38.0762 61.1116 38.3816 60.8189 L 38.9378 60.2863 L 39.4198 61.3757 C 40.2601 63.2762 42.3478 68.8104 43.2927 71.643 C 45.2815 77.6037 45.7209 80.5089 45.3691 85.3908 C 45.0102 90.3739 44.2555 94.6277 43.7292 94.6277 C 43.6673 94.6277 42.377 93.9171 40.8625 93.0484 Z M 29.0799 85.1316 C 28.0375 84.6959 27.8844 84.149 28.2924 82.3154 C 28.4804 81.4709 28.6776 80.4982 28.731 80.1536 C 28.8271 79.5284 28.83 79.527 29.7001 79.6302 C 30.1801 79.6879 31.2318 79.789 32.0378 79.856 C 33.4321 79.972 33.5296 80.0105 34.0679 80.6613 C 34.3784 81.038 34.8092 81.7088 35.025 82.1531 C 35.3653 82.8538 35.386 83.0353 35.1809 83.5302 C 34.8875 84.238 33.9448 84.9729 32.8859 85.3196 C 31.9282 85.6322 30.0576 85.5404 29.0799 85.1316 Z M 29.7251 78.8804 C 27.2805 78.6255 24.297 77.4876 23.3051 76.4316 C 23.026 76.1347 22.8892 75.768 22.9042 75.3578 C 22.9305 74.6721 23.9246 71.6893 24.9592 69.1935 C 25.593 67.6647 25.6179 67.5209 25.5047 66.0198 C 25.306 63.3809 25.6243 62.8155 28.3622 60.9414 C 29.7187 60.0121 29.7386 60.0057 30.5119 60.2343 C 30.942 60.3611 31.6291 60.747 32.0407 61.0923 C 33.2384 62.0978 33.4413 62.792 33.6713 66.6657 C 33.9412 71.2151 34.2566 72.3337 36.0639 75.1585 C 37.0971 76.7741 37.5001 77.7888 37.2758 78.209 C 37.0679 78.597 36.3458 78.9338 35.4707 79.0506 C 34.8007 79.1403 31.1962 79.0335 29.7251 78.8804 Z M 33.4798 59.7736 C 31.6512 59.048 29.9729 58.4549 29.7514 58.4549 C 29.2651 58.4549 29.2658 58.5111 29.7251 56.7594 C 30.2591 54.7215 30.2143 53.6783 29.5399 52.4557 C 29.1098 51.6753 29.0571 51.4802 29.3078 51.5884 C 31.5807 52.5732 34.6689 53.365 36.264 53.3721 C 37.1505 53.3764 37.159 53.3821 36.7603 53.7018 C 36.1429 54.1967 35.3767 55.4378 35.3767 55.9434 C 35.3767 56.6647 35.8559 57.616 36.6591 58.4905 C 37.4025 59.3001 37.4047 59.3058 37.196 60.1973 C 37.0807 60.6893 36.9461 61.0923 36.8956 61.0923 C 36.8457 61.0923 35.3084 60.4992 33.4798 59.7736 Z M 7.7764 59.1285 C 5.4301 58.504 3.0867 57.5847 2.4281 57.0314 C 2.1333 56.7829 1.6989 56.1321 1.4625 55.5859 C 1.0054 54.5271 0.7604 52.3183 1.0524 51.891 C 1.1478 51.7522 1.8349 51.5222 2.5797 51.3805 C 4.1171 51.0871 5.8033 50.1671 6.724 49.1183 C 7.6724 48.0381 7.5763 47.6422 5.235 42.9596 C 2.8845 38.26 2.161 36.2256 1.8314 33.3973 C 1.5195 30.7185 1.7046 25.9619 2.2137 23.5544 C 3.1294 19.2279 5.0684 15.4027 8.2584 11.6302 C 12.0901 7.0986 18.2672 3.5362 24.6381 2.1832 C 26.8035 1.7232 31.3514 1.7325 33.964 2.201 C 39.5637 3.2058 44.8251 5.3291 49.6871 8.5462 C 54.9072 11.9998 56.3563 14.4927 56.3577 20.0212 C 56.3584 22.8253 56.0593 24.4588 55.254 26.0474 C 54.3888 27.7549 53.4012 27.9123 49.9114 26.8983 C 46.5647 25.9256 45.1413 25.7519 43.6488 26.1328 C 42.0018 26.5529 39.8364 27.8268 36.5851 30.2891 C 31.8399 33.8815 31.2268 34.2674 29.7243 34.6092 C 28.9802 34.7787 27.5526 34.9667 26.5521 35.0265 C 25.5509 35.087 24.5056 35.2444 24.2279 35.3761 C 23.7366 35.6097 23.6996 35.5826 22.7212 34.2753 C 21.0322 32.0195 19.9085 31.6093 17.9347 32.5279 C 15.5956 33.6173 14.7838 35.4317 15.5187 37.9317 C 15.9587 39.4299 16.386 40.0138 17.7075 40.9224 C 18.5378 41.4935 19.4542 42.4355 20.7758 44.0761 C 22.8964 46.7094 25.5545 49.3803 27.0691 50.4007 C 27.8943 50.9561 28.1557 51.2694 28.4747 52.084 C 29.0486 53.5494 28.9767 54.9871 28.2368 56.8769 C 27.5298 58.6827 27.7676 58.5866 23.5728 58.7703 C 21.0087 58.8828 19.8558 58.7788 17.8115 58.2476 L 17.108 58.0654 L 17.867 56.9531 C 18.8162 55.5625 19.4663 53.9795 19.7448 52.3817 C 19.9242 51.3506 19.9093 50.949 19.6536 49.9521 C 19.1623 48.0345 17.2376 44.7013 16.6216 44.7013 C 16.193 44.7013 16.287 44.9712 17.2091 46.3975 C 18.3491 48.1591 19.0014 49.6708 19.1203 50.8286 C 19.4044 53.5815 16.9998 57.9144 14.4719 59.2047 C 12.8741 60.02 11.0469 59.9993 7.7764 59.1285 Z M 37.1419 57.139 C 36.536 56.2489 36.5794 55.5283 37.3078 54.3719 C 37.8597 53.496 38.0035 53.3878 38.7676 53.271 C 39.234 53.2005 40.018 52.9891 40.5107 52.8025 C 41.0027 52.6152 41.4058 52.517 41.4058 52.5832 C 41.4058 52.6501 41.2249 53.511 41.0042 54.4965 C 40.5791 56.3927 40.5798 56.3998 41.3652 57.94 C 41.4065 58.0198 40.9607 58.029 40.3754 57.96 C 39.3949 57.8446 39.3038 57.8667 39.2062 58.2391 L 39.1008 58.6428 L 38.3446 58.2192 C 37.9288 57.9863 37.3876 57.5 37.1419 57.1397 Z M 31.9859 51.6682 C 30.2064 51.1434 28.4982 50.3765 27.3489 49.5854 C 26.0031 48.6597 23.7544 46.3028 21.4174 43.3691 C 20.041 41.6402 19.0491 40.5771 18.5293 40.273 C 17.3273 39.5681 16.935 39.0475 16.7164 37.8648 C 16.4678 36.5211 16.7128 35.5235 17.5146 34.61 C 18.211 33.8167 18.9992 33.3774 19.7647 33.3553 C 20.4711 33.3354 21.4459 34.2504 22.8828 36.2797 C 23.9203 37.7452 24.3013 37.973 24.4152 37.1976 C 24.4487 36.9726 24.5078 36.7889 24.5476 36.7889 C 24.5868 36.7889 25.5217 36.6144 26.6254 36.4015 C 29.9964 35.7507 31.4112 35.1283 34.7551 32.8262 C 41.21 28.3815 42.8057 27.5534 45.2018 27.4096 C 46.9862 27.302 49.4407 27.7869 49.5781 28.2747 C 49.628 28.4499 49.7213 29.1021 49.7861 29.7238 C 49.8829 30.6566 49.8031 31.1992 49.3296 32.8326 C 48.5392 35.5556 48.5677 36.0861 49.6287 38.3554 C 50.12 39.4064 50.5131 40.5279 50.5238 40.9103 C 50.543 41.5853 50.5302 41.5967 49.4129 41.9328 C 47.5374 42.4968 47.4633 42.5673 45.7956 45.3607 C 43.6566 48.9438 43.8239 48.8128 42.4368 47.9868 C 41.8181 47.6172 41.0519 46.9607 40.735 46.5271 C 40.4188 46.0927 39.9268 45.4198 39.6427 45.031 C 39.1143 44.3097 38.643 44.1481 38.2406 44.5511 C 37.797 44.9947 38.032 45.4853 39.286 46.7343 C 40.1155 47.561 40.9992 48.2175 41.8266 48.6227 C 43.0955 49.2443 43.0962 49.2443 42.7943 49.7043 C 42.3272 50.4178 40.8596 51.4076 39.6149 51.8483 C 38.6187 52.2015 38.1851 52.2392 35.9421 52.1666 C 34.058 52.1061 33.0326 51.9772 31.9859 51.6682 Z M 42.2681 34.5494 C 42.9816 34.1151 43.3775 33.225 43.2166 32.4196 C 42.9602 31.1393 41.8829 30.7442 40.9159 31.5758 C 40.505 31.9297 40.3889 32.2181 40.3192 33.0612 C 40.2458 33.9456 40.2942 34.1699 40.6303 34.506 C 41.1209 34.9966 41.5176 35.0073 42.2681 34.5494 Z "/>
      </g>
    </g>
  </g>
</svg>