<svg xmlns="http://www.w3.org/2000/svg" xmlns:xlink="http://www.w3.org/1999/xlink" version="1.1" width="73.22009350933946" height="139.52780224957385" viewBox="0.5693205491785336 0.3914309636835384 73.22009350933946 139.52780224957385">
  <!-- Exported by Scratch - http://scratch.mit.edu/ -->
  <g id="ID0.7414877298288047">
    <g id="layer1">
      <g id="g21">
        <path id="path35" fill="#f4dcbd" stroke-width="0.24083020367540361" d="M 9.6993 139.4038 C 9.0685 138.8313 8.1638 137.4195 7.036 135.2486 C 6.7948 134.7853 6.5208 134.3484 6.4271 134.2774 C 6.3333 134.2064 5.9701 133.5028 5.6206 132.7118 C 5.272 131.9217 4.9033 131.2209 4.8032 131.1553 C 4.4582 130.9269 2.676 126.6343 2.504 125.6175 C 2.4093 125.0577 1.9797 123.8262 1.5492 122.8805 C 0.8911 121.435 0.6945 120.4274 0.9011 119.5563 C 0.9748 119.2423 2.0443 119.5263 2.9882 120.1107 C 4.0641 120.7779 9.6584 122.967 10.2855 122.967 C 10.5076 122.967 11.8902 122.3744 13.3575 121.6499 L 16.0254 120.3328 L 15.6012 118.2174 C 14.7356 113.8929 14.3633 109.2344 14.4825 104.2273 C 14.5927 99.6206 14.6245 99.3767 15.593 95.662 C 17.0831 89.9467 20.5292 79.968 22.5271 75.5834 C 22.6272 75.364 22.335 75.2821 21.4521 75.2821 C 19.4851 75.2821 19.0983 74.5831 19.9867 72.6334 C 20.4755 71.5611 20.4764 71.5193 20.0549 68.6621 C 19.6435 65.8686 19.5989 65.7421 18.696 64.8082 C 17.489 63.5602 15.9962 61.3056 14.4279 58.362 C 13.7389 57.0694 12.947 55.8516 12.6676 55.6559 C 12.389 55.4602 11.487 55.076 10.6651 54.803 C 9.8431 54.529 8.8756 54.032 8.5142 53.698 C 7.9071 53.1345 7.8679 52.9853 7.9872 51.6773 C 8.0718 50.7397 8.4468 49.5437 9.1022 48.121 C 10.2546 45.6206 10.3174 44.8133 9.5819 41.967 C 9.1778 40.4032 9.1013 39.5695 9.2051 37.8928 L 9.3361 35.7857 L 8.3285 35.9668 C 5.0745 36.5512 3.3905 35.8303 2.1599 33.3271 C 0.0136 28.9626 0.2767 20.3492 2.6806 16.2459 C 6.1622 10.3057 19.2194 2.9202 29.494 1.0806 C 33.5681 0.3506 39.1342 0.3452 42.5275 1.0688 C 50.5848 2.7855 58.7076 7.404 63.7393 13.1302 C 68.2286 18.2393 71.0184 23.7798 72.2645 30.0631 C 72.706 32.2886 72.8034 33.5975 72.807 37.3512 C 72.8134 44.7368 72.3273 46.5818 68.2022 54.8394 C 66.7058 57.8349 65.4806 60.4391 65.4806 60.6257 C 65.4806 61.7362 68.3505 63.7842 70.4941 64.2038 C 72.4648 64.5897 73.0892 64.881 73.3968 65.5564 C 74.0849 67.0655 73.3859 70.853 72.1116 72.5232 C 71.7602 72.9847 70.9638 73.6182 70.343 73.9313 C 67.8472 75.1884 63.4553 76.5036 60.225 76.9624 C 57.6545 77.3265 55.2133 76.6775 53.3755 75.141 C 52.7529 74.6213 52.6473 74.6058 51.7845 74.9098 C 49.275 75.7955 46.8956 76.0686 42.7933 75.942 L 38.7692 75.8182 L 40.0926 77.027 C 40.8199 77.6924 41.7092 78.7364 42.0678 79.3481 C 42.6877 80.404 42.7223 80.6251 42.7377 83.7117 C 42.7568 87.3308 42.6649 87.0031 44.9377 91.6079 C 47.0895 95.9697 47.1978 97.5316 45.4475 99.0044 L 44.7439 99.5969 L 45.148 101.8288 C 46.0564 106.8551 46.5507 107.8008 50.9816 113.0146 C 52.5117 114.8141 52.9632 115.5077 52.9086 115.9737 C 52.7848 117.0287 51.9911 117.1961 48.9837 116.8002 C 47.5273 116.6081 45.5349 116.427 44.5564 116.3979 C 42.4565 116.3342 42.6358 115.9937 42.4892 120.3173 C 42.2963 125.9825 42.1816 126.6825 41.3041 127.5854 C 40.585 128.3254 36.2915 130.4326 35.5042 130.4326 C 35.3285 130.4326 34.5676 130.7576 33.8121 131.1553 C 33.0566 131.5522 32.2392 131.8771 31.9953 131.8771 C 31.7522 131.8771 30.8293 132.2485 29.9445 132.7018 C 29.0589 133.1551 28.2115 133.4782 28.0595 133.42 C 27.9074 133.3617 26.5394 133.8569 25.0175 134.5204 C 23.4965 135.184 22.1321 135.7274 21.9855 135.7283 C 21.839 135.7292 20.602 136.2198 19.2348 136.8169 C 17.8686 137.4149 16.526 137.9456 16.2502 137.9966 C 15.9753 138.0485 14.8648 138.4808 13.7835 138.9578 C 11.619 139.9126 10.4066 140.0446 9.6993 139.4038 Z "/>
        <path id="path33" fill="#fc9797" stroke-width="0.24083020367540361" d="M 10.0306 139.5649 C 8.8838 138.8977 3.3887 128.7687 2.7871 126.2137 C 2.6005 125.4218 2.1481 124.0683 1.7822 123.2073 C 0.9229 121.1866 0.6917 120.3719 0.8565 119.9423 C 1.0303 119.4908 1.7722 119.499 2.4767 119.9605 C 3.1912 120.4283 9.865 123.1053 10.291 123.0953 C 11.0073 123.0771 16.0891 120.4293 15.9853 120.128 C 15.7478 119.4389 14.9076 114.0067 14.6464 111.4699 C 14.4844 109.8961 14.4161 106.8223 14.4825 104.1244 C 14.5936 99.6406 14.6309 99.3576 15.5976 95.6466 C 17.0639 90.0159 20.5528 79.9161 22.5271 75.5834 C 22.6272 75.364 22.335 75.2821 21.4521 75.2821 C 19.4851 75.2821 19.0983 74.5831 19.9867 72.6334 C 20.4755 71.5611 20.4764 71.5193 20.0549 68.6621 C 19.6435 65.8686 19.5989 65.7421 18.696 64.8082 C 17.4672 63.5375 15.9344 61.2201 14.5535 58.5449 C 13.9382 57.3525 13.1773 56.1447 12.8614 55.8598 C 12.5465 55.5758 11.5862 55.1097 10.7288 54.8239 C 9.8723 54.539 8.8756 54.032 8.5142 53.698 C 7.9071 53.1345 7.8679 52.9853 7.9872 51.6773 C 8.0718 50.7397 8.4468 49.5437 9.1022 48.121 C 10.2546 45.6206 10.3174 44.8133 9.5819 41.967 C 9.1778 40.4032 9.1013 39.5695 9.2051 37.8928 L 9.3361 35.7857 L 8.3285 35.9668 C 5.069 36.5512 3.3824 35.8284 2.1718 33.3271 C 0.0127 28.867 0.2667 20.3655 2.6806 16.2459 C 4.6822 12.8298 9.6775 8.9896 16.5924 5.5498 C 23.816 1.9553 29.3474 0.5572 36.3407 0.5563 C 41.9777 0.5554 46.0673 1.5549 51.8818 4.3538 C 61.1452 8.8139 68.0802 16.5217 71.1349 25.7532 C 72.4283 29.6617 72.8052 32.3405 72.7997 37.5925 C 72.7924 44.6858 72.2281 46.8012 68.2076 54.8121 C 66.7121 57.7922 65.487 60.4182 65.4842 60.6484 C 65.4751 61.7717 68.7519 64.0327 70.7817 64.3021 C 73.1392 64.6152 73.669 65.1905 73.669 67.4414 C 73.669 69.3911 72.8525 71.7386 71.793 72.8345 C 70.3758 74.3009 65.4733 76.0959 60.8421 76.845 C 57.7419 77.3465 55.7549 76.9032 53.4875 75.2066 L 52.6929 74.6113 L 51.3057 75.0309 C 48.4339 75.9011 46.7536 76.0777 42.664 75.9429 L 38.7063 75.8119 L 40.0544 77.0134 C 40.7962 77.6742 41.7001 78.72 42.0623 79.3372 C 42.6886 80.4021 42.7204 80.6024 42.6758 83.2293 C 42.6503 84.753 42.7405 86.4324 42.8761 86.9621 C 43.0117 87.4928 43.891 89.4916 44.8294 91.4049 C 46.7099 95.2415 47.0267 96.5823 46.3577 97.8766 C 46.142 98.2935 45.6514 98.8669 45.2663 99.1509 C 44.7047 99.5669 44.6073 99.769 44.7703 100.1786 C 44.8813 100.4598 45.1489 101.6358 45.3637 102.7927 C 46.1265 106.886 46.7546 108.1139 49.9758 111.8085 C 52.5754 114.7904 53.0042 115.4057 52.9159 116.0274 C 52.7757 117.0123 51.9283 117.187 49.1048 116.8157 C 47.7139 116.6327 45.696 116.4106 44.621 116.3223 L 42.6658 116.1621 L 42.5111 117.2162 C 42.4264 117.796 42.6476 119.9532 42.3427 121.2812 C 41.8521 123.4548 41.2914 125.6102 40.0052 127.336 C 39.0586 128.7159 37.3401 129.3649 35.9365 130.1914 C 35.3485 130.54 34.9089 130.5701 34.0069 131.0334 C 33.1048 131.4967 32.1637 131.8753 31.9152 131.8762 C 31.6667 131.8771 30.8229 132.2021 30.041 132.5999 C 29.2591 132.9976 28.3981 133.3226 28.1268 133.3226 C 27.8556 133.3226 26.7478 133.6949 25.6656 134.1491 C 24.5824 134.6042 21.8545 135.6955 19.6026 136.5757 C 17.3507 137.455 14.6227 138.5464 13.5405 138.9997 C 11.4925 139.858 10.7415 139.9791 10.0306 139.5649 Z M 35.9793 108.4917 C 36.5091 108.3469 37.1326 108.0593 37.3638 107.8536 C 37.9436 107.3384 37.909 105.7728 37.2655 103.4263 L 36.7457 101.5284 L 34.0742 101.6823 C 31.8232 101.8115 31.3144 101.9162 30.8356 102.3467 C 30.051 103.0531 28.8796 105.1448 28.8768 105.8447 C 28.8741 106.5765 30.426 108.0884 31.5465 108.4461 C 32.6397 108.7957 34.7878 108.8175 35.9793 108.4917 Z M 31.2835 75.7636 C 33.6446 74.837 35.6953 74.0779 35.8382 74.0779 C 36.1868 74.0779 36.1768 73.9741 35.618 71.7905 C 34.9926 69.3465 35.0108 68.3872 35.7053 67.0146 C 36.0185 66.3956 36.2269 65.8895 36.1677 65.8895 C 36.1095 65.8895 35.1638 66.2063 34.0678 66.5931 C 32.1464 67.2712 30.5316 67.6362 28.0795 67.9448 L 26.9226 68.0904 L 27.7782 69.038 C 28.5082 69.8463 28.6338 70.1548 28.6338 71.1415 C 28.6338 72.4058 27.7418 74.1207 26.6586 74.9371 C 26.0997 75.3586 26.0925 75.4077 26.4229 76.4117 C 26.6104 76.9824 26.8152 77.4494 26.8762 77.4494 C 26.9381 77.4494 28.9214 76.6911 31.2835 75.7636 Z M 32.7244 65.5245 C 38.2531 64.0263 40.9846 61.8272 47.2752 53.8054 C 48.2646 52.5429 49.4251 51.376 50.2061 50.8581 C 52.0248 49.6502 52.3561 49.0531 52.3561 46.9787 C 52.3561 45.5633 52.255 45.1182 51.7753 44.4173 C 51.0381 43.3396 49.8848 42.5477 48.7962 42.3711 C 48.0207 42.2455 47.8486 42.3338 46.8501 43.3769 C 46.2466 44.0059 45.2627 45.252 44.6619 46.1477 C 44.0621 47.0424 43.4204 47.8316 43.2365 47.9026 C 42.8297 48.0582 42.3609 47.6313 42.3609 47.1043 C 42.3609 46.8094 41.9176 46.6428 40.4949 46.4043 C 35.8765 45.6288 33.3242 44.5457 29.1362 41.5856 C 22.7301 37.0572 19.6863 35.3406 17.1131 34.8053 C 15.9917 34.5723 15.3236 34.5914 13.3511 34.9155 C 12.0322 35.1312 10.8599 35.4015 10.7461 35.5153 C 10.6323 35.6291 10.4776 36.5421 10.402 37.5442 C 10.2828 39.1144 10.3574 39.6587 10.9418 41.4891 C 11.9649 44.6949 11.9039 46.0066 10.6114 48.5907 C 10.0379 49.7385 9.5091 51.1184 9.4372 51.6554 C 9.2897 52.7486 9.4572 52.8742 11.7437 53.3867 C 13.1409 53.6998 13.4922 54.0238 14.5617 55.9899 C 15.9826 58.6041 17.8922 61.555 18.1617 61.555 C 18.3 61.555 19.02 61.1755 19.7609 60.7122 C 20.7331 60.1041 21.4521 59.3705 22.3496 58.0725 C 23.775 56.0108 23.8824 55.9198 24.6579 56.1146 C 25.4398 56.3103 25.6428 57.0913 25.1185 57.8941 C 24.3139 59.1265 22.1066 61.0335 20.5565 61.8354 C 19.7018 62.2768 19.0018 62.7119 19.0018 62.8002 C 19 63.0842 21.0125 64.7099 21.9846 65.2105 C 24.5059 66.5094 28.6438 66.6304 32.7244 65.5245 Z M 19.3149 43.4916 C 18.4602 42.6551 18.2409 41.8432 18.5585 40.6909 C 18.9909 39.1253 20.7203 38.7357 21.8317 39.9527 C 22.518 40.7054 22.741 42.5468 22.2586 43.4798 C 21.9364 44.1033 21.7398 44.2152 20.967 44.2152 C 20.2789 44.2152 19.8738 44.0378 19.3149 43.4916 Z "/>
        <path id="path31" fill="#d2d218" stroke-width="0.24083020367540361" d="M 9.8231 139.3037 C 9.0185 138.5181 8.4505 137.6589 6.9067 134.8882 C 4.887 131.2618 2.9127 127.0602 2.7215 125.9771 C 2.6278 125.4473 2.1335 123.9691 1.622 122.6921 C 0.3276 119.459 0.6344 118.9683 3.1229 120.2882 C 3.842 120.6705 5.7635 121.4979 7.3937 122.1277 L 10.3565 123.2737 L 13.1136 121.902 C 14.63 121.1474 15.9899 120.604 16.1355 120.6941 C 16.3212 120.8088 16.3303 120.7233 16.1655 120.4065 C 15.4101 118.9547 14.4252 110.5042 14.4252 105.4797 C 14.4252 101.2272 14.7301 98.947 15.8788 94.6153 C 17.1422 89.8512 20.5219 80.1837 22.5335 75.5834 C 22.6281 75.3649 22.336 75.2821 21.4722 75.2821 C 20.6229 75.2821 20.1651 75.1556 19.8811 74.8416 C 19.375 74.2827 19.3777 74.2181 20.0012 72.7162 L 20.5192 71.4655 L 20.0868 68.6175 C 19.6635 65.834 19.6308 65.7448 18.6368 64.6862 C 17.2851 63.2453 15.9325 61.1864 14.6027 58.5449 C 14.0019 57.3525 13.2565 56.1492 12.9443 55.8707 C 12.633 55.5921 11.6363 55.1079 10.7297 54.7948 C 8.4614 54.0111 7.8188 53.2374 7.9972 51.508 C 8.0746 50.7634 8.5351 49.3516 9.1095 48.1065 C 10.2555 45.6188 10.3146 44.8378 9.5819 41.8396 C 9.1787 40.1857 9.1049 39.351 9.2233 37.7618 L 9.3716 35.7638 L 8.4669 35.9431 C 6.843 36.2644 4.9297 36.1361 4.1069 35.6491 C 0.4878 33.5119 -0.5089 22.9406 2.3447 16.9631 C 4.1642 13.1493 9.5619 8.9468 17.5782 5.1011 C 27.9056 0.1458 37.8571 -0.7944 46.9821 2.3222 C 60.5827 6.967 69.9635 17.4956 72.3983 30.8495 C 72.8825 33.5046 72.9481 40.8438 72.5103 43.4925 C 72.0087 46.529 70.8263 49.6147 68.0948 55.0123 C 66.6575 57.8541 65.4806 60.3763 65.4806 60.6175 C 65.4806 61.8791 68.6646 64.0163 71.0075 64.3285 C 71.996 64.4605 72.4939 64.6771 73.0245 65.2087 C 73.709 65.8932 73.7263 65.9687 73.6198 67.8137 C 73.5297 69.3611 73.3568 70.0183 72.6859 71.3545 C 71.9923 72.7371 71.661 73.1149 70.5769 73.7602 C 69.1597 74.604 64.9245 76.0349 62.1091 76.6211 C 58.4637 77.3793 55.9214 77.0097 53.8352 75.4168 L 52.8112 74.6349 L 50.0541 75.3413 C 47.3799 76.0276 47.1723 76.0449 43.0372 75.922 L 38.7764 75.7955 L 40.3284 77.3174 C 42.4783 79.4255 42.7186 80.0581 42.6585 83.4705 C 42.6312 84.9942 42.725 86.619 42.8652 87.0832 C 43.0062 87.5465 43.8846 89.5208 44.8167 91.4705 C 46.7855 95.5856 47.0285 96.7243 46.2166 98.0368 C 45.9208 98.5165 45.4211 99.0772 45.1052 99.2838 C 44.7903 99.4895 44.5946 99.759 44.6701 99.8809 C 44.7457 100.0029 45.0579 101.3191 45.3637 102.8046 C 46.1693 106.7195 46.6872 107.8909 48.646 110.2202 C 49.5844 111.337 50.9389 112.9481 51.6552 113.8019 C 53.4893 115.9864 53.3737 116.9586 51.2838 116.9322 C 50.6813 116.924 48.4885 116.7301 46.4105 116.5016 L 42.6331 116.0848 L 42.4938 117.1779 C 42.4164 117.7787 42.3454 119.5709 42.3345 121.1602 C 42.3081 125.2434 41.9841 126.7171 40.8727 127.7975 C 40.3848 128.2708 39.5174 128.8133 38.9457 129.0008 C 38.3741 129.1893 37.5303 129.5342 37.0725 129.7672 C 36.6137 130.0012 36.0813 130.1914 35.8892 130.1914 C 35.6971 130.1914 35.0955 130.4517 34.5521 130.7703 C 34.0096 131.0889 32.9164 131.5358 32.1227 131.7643 C 31.3299 131.9918 30.2376 132.436 29.6969 132.751 C 29.1554 133.065 28.4918 133.3226 28.2224 133.3226 C 27.7664 133.3226 24.7308 134.4649 19.2412 136.7032 C 11.1684 139.9945 10.6723 140.1311 9.8231 139.3037 Z M 12.4081 137.5042 C 13.1864 137.1546 14.6355 136.5694 15.6294 136.2025 C 20.7831 134.3011 26.6167 132.0428 26.8379 131.8635 C 26.9754 131.7524 27.5861 131.5495 28.1942 131.4129 C 28.8022 131.2773 29.99 130.8504 30.8329 130.4645 C 31.6767 130.0795 32.637 129.6826 32.9665 129.5816 C 33.5172 129.415 34.6659 128.9107 37.5449 127.5718 C 40.0253 126.4176 40.3311 125.6676 40.5577 120.1726 C 40.7079 116.5253 40.6834 116.0374 40.3438 115.9063 C 39.9333 115.7498 32.7517 115.6378 32.6033 115.7862 C 32.555 115.8344 32.4058 116.5517 32.2729 117.3782 C 31.9252 119.5409 30.9567 121.1729 29.3565 122.2961 C 27.486 123.6087 13.8354 130.4326 13.0799 130.4326 C 12.7231 130.4326 12.0595 130.0958 11.5361 129.6498 C 10.7015 128.9389 6.4007 126.3676 5.5068 126.0453 C 5.3029 125.9716 4.9079 126.0981 4.6275 126.3248 L 4.1169 126.738 L 5.383 129.2475 C 6.0784 130.6274 6.9077 132.1529 7.2253 132.6381 C 7.5421 133.1223 8.1811 134.1409 8.6453 134.9009 C 9.5874 136.4456 10.7688 138.1386 10.9045 138.1386 C 10.9536 138.1386 11.6299 137.8528 12.4081 137.5042 Z M 13.8527 128.0032 C 14.4989 127.7265 18.1853 125.9352 22.0447 124.0219 L 29.0625 120.5439 L 29.5704 119.3625 C 29.8499 118.7126 30.0792 118.0181 30.0792 117.8187 C 30.0792 117.6194 30.1876 117.3891 30.3195 117.3072 C 30.4524 117.2253 30.5607 116.8994 30.5607 116.5836 L 30.5607 116.0083 L 29.3593 116.3651 C 28.6984 116.5617 27.6262 116.9895 26.9763 117.3154 C 26.3264 117.6421 25.7366 117.9088 25.6656 117.9088 C 25.5955 117.9088 24.9064 118.323 24.1355 118.8282 C 23.3645 119.3333 22.3005 119.9696 21.7707 120.2427 C 21.24 120.5157 20.2761 121.0236 19.6271 121.3713 C 18.3483 122.0567 17.7812 122.1405 17.0557 121.7527 C 16.6744 121.5488 16.0709 121.7718 13.8026 122.9569 C 12.2716 123.757 10.828 124.4115 10.5968 124.4115 C 10.0871 124.4115 6.9641 123.4794 4.7413 122.6629 C 3.1466 122.0777 3.1284 122.0768 3.3924 122.5783 C 4.0086 123.7516 4.6294 124.2294 7.2117 125.522 C 8.7072 126.2711 10.5358 127.2487 11.2749 127.6938 C 12.014 128.1398 12.6321 128.5048 12.6484 128.5048 C 12.6648 128.5057 13.2064 128.2799 13.8527 128.0032 Z M 37.0033 108.1531 C 37.7224 107.728 37.7852 107.5914 37.7852 106.4682 C 37.7852 105.7965 37.6086 104.6004 37.3911 103.8113 C 37.1744 103.0212 36.9888 102.1756 36.9787 101.9308 C 36.9605 101.5139 36.7758 101.4966 34.0615 101.6522 C 30.8566 101.8361 31.0832 101.7205 29.595 103.9223 C 28.6293 105.3505 28.6465 106.2753 29.6578 107.2528 C 30.9294 108.4835 31.8542 108.7775 34.1734 108.691 C 35.6544 108.6364 36.4372 108.4871 37.0033 108.1531 Z M 31.369 75.7636 C 33.7256 74.837 35.7873 74.0779 35.9502 74.0779 C 36.165 74.0779 36.0976 73.5026 35.7035 71.9707 C 34.9917 69.2046 35.0054 68.6256 35.8218 67.0073 C 36.1987 66.26 36.4881 65.6492 36.4654 65.6492 C 36.4426 65.6492 35.7499 65.9232 34.9271 66.2572 C 32.9628 67.0555 29.7634 67.8128 28.3471 67.8146 C 27.02 67.8165 26.7697 68.0622 27.4605 68.6866 C 29.1563 70.2213 28.9924 72.4395 27.0318 74.5011 C 26.0533 75.5288 26.0679 75.4441 26.5985 77.149 C 26.6504 77.3147 26.7806 77.4494 26.888 77.4494 C 26.9963 77.4494 29.0125 76.6911 31.369 75.7636 Z M 30.741 66.0078 C 37.2891 64.7654 40.3284 62.6245 46.3786 54.9914 C 48.9245 51.7783 48.9109 51.792 50.6822 50.6241 C 51.6252 50.0025 51.9629 49.6056 52.1868 48.8574 C 52.935 46.3606 52.265 44.1998 50.3709 42.9983 C 48.3065 41.6894 47.5064 42.0853 44.9851 45.6607 C 43.8154 47.3191 43.3294 47.8279 42.9635 47.776 C 42.6458 47.7305 42.4874 47.5312 42.4983 47.1908 C 42.512 46.7475 42.34 46.6519 41.2941 46.5172 C 39.1897 46.2469 35.3503 45.1901 33.8257 44.4628 C 33.0211 44.0787 30.629 42.5568 28.5109 41.0813 C 19.6799 34.9282 17.4162 34.0326 12.9606 34.93 C 11.8456 35.1549 10.8344 35.4352 10.7133 35.5536 C 10.5922 35.6719 10.4439 36.6149 10.3838 37.6489 C 10.2928 39.2336 10.3793 39.8516 10.9354 41.572 C 11.9539 44.7241 11.8766 45.9911 10.4949 48.7737 C 9.8295 50.1135 9.3671 51.3742 9.3671 51.8493 C 9.3671 52.7377 9.4144 52.7686 11.8893 53.5278 L 13.3266 53.9692 L 14.6582 56.2684 C 16.5788 59.5844 17.8813 61.5505 18.158 61.5505 C 18.29 61.5505 18.9645 61.2255 19.6563 60.8296 C 20.8314 60.1551 21.2883 59.6536 23.1078 57.0394 C 23.5302 56.4323 24.0108 56.0163 24.2866 56.0163 C 24.8782 56.0163 25.4872 56.8665 25.3297 57.4708 C 25.1112 58.3037 21.8007 61.2082 20.2142 61.9573 L 18.7087 62.6682 L 19.9293 63.766 C 20.6002 64.3694 21.5595 65.0594 22.062 65.3006 C 24.3111 66.3783 27.4405 66.6332 30.741 66.0078 Z M 19.3377 43.396 C 18.6687 42.727 18.5194 42.3939 18.5194 41.5747 C 18.5194 39.6914 19.5225 38.8659 21.0398 39.5003 C 22.0511 39.9226 22.356 40.4779 22.4233 42.0143 C 22.5207 44.2517 20.9124 44.9716 19.3377 43.396 Z "/>
        <path id="path29" fill="#b65d54" stroke-width="0.24083020367540361" d="M 9.8231 139.3037 C 9.0185 138.5181 8.4505 137.6589 6.9067 134.8882 C 4.887 131.2618 2.9127 127.0602 2.7215 125.9771 C 2.6278 125.4473 2.1335 123.9691 1.622 122.6921 C 0.3276 119.459 0.6344 118.9683 3.1229 120.2882 C 3.842 120.6705 5.7635 121.4979 7.3937 122.1277 L 10.3565 123.2737 L 13.1136 121.902 C 14.63 121.1474 15.9899 120.604 16.1355 120.6941 C 16.3212 120.8088 16.3303 120.7233 16.1655 120.4065 C 15.4101 118.9547 14.4252 110.5042 14.4252 105.4797 C 14.4252 101.2272 14.7301 98.947 15.8788 94.6153 C 17.1422 89.8512 20.5219 80.1837 22.5335 75.5834 C 22.6281 75.3649 22.336 75.2821 21.4722 75.2821 C 20.6229 75.2821 20.1651 75.1556 19.8811 74.8416 C 19.375 74.2827 19.3777 74.2181 20.0012 72.7162 L 20.5192 71.4655 L 20.0868 68.6175 C 19.6635 65.834 19.6308 65.7448 18.6368 64.6862 C 17.2851 63.2453 15.9325 61.1864 14.6027 58.5449 C 14.0019 57.3525 13.2565 56.1492 12.9443 55.8707 C 12.633 55.5921 11.6363 55.1079 10.7297 54.7948 C 8.4614 54.0111 7.8188 53.2374 7.9972 51.508 C 8.0746 50.7634 8.5351 49.3516 9.1095 48.1065 C 10.2555 45.6188 10.3146 44.8378 9.5819 41.8396 C 9.1787 40.1857 9.1049 39.351 9.2233 37.7618 L 9.3716 35.7638 L 8.4669 35.9431 C 6.843 36.2644 4.9297 36.1361 4.1069 35.6491 C 0.4878 33.5119 -0.5089 22.9406 2.3447 16.9631 C 4.1642 13.1493 9.5619 8.9468 17.5782 5.1011 C 27.9056 0.1458 37.8571 -0.7944 46.9821 2.3222 C 60.5827 6.967 69.9635 17.4956 72.3983 30.8495 C 72.8825 33.5046 72.9481 40.8438 72.5103 43.4925 C 72.0087 46.529 70.8263 49.6147 68.0948 55.0123 C 66.6575 57.8541 65.4806 60.3763 65.4806 60.6175 C 65.4806 61.8791 68.6646 64.0163 71.0075 64.3285 C 71.996 64.4605 72.4939 64.6771 73.0245 65.2087 C 73.709 65.8932 73.7263 65.9687 73.6198 67.8137 C 73.5297 69.3611 73.3568 70.0183 72.6859 71.3545 C 71.9923 72.7371 71.661 73.1149 70.5769 73.7602 C 69.1597 74.604 64.9245 76.0349 62.1091 76.6211 C 58.4637 77.3793 55.9214 77.0097 53.8352 75.4168 L 52.8112 74.6349 L 50.0541 75.3413 C 47.3799 76.0276 47.1723 76.0449 43.0372 75.922 L 38.7764 75.7955 L 40.3284 77.3174 C 42.4783 79.4255 42.7186 80.0581 42.6585 83.4705 C 42.6312 84.9942 42.725 86.619 42.8652 87.0832 C 43.0062 87.5465 43.8846 89.5208 44.8167 91.4705 C 46.7855 95.5856 47.0285 96.7243 46.2166 98.0368 C 45.9208 98.5165 45.4211 99.0772 45.1052 99.2838 C 44.7903 99.4895 44.5946 99.759 44.6701 99.8809 C 44.7457 100.0029 45.0579 101.3191 45.3637 102.8046 C 46.1693 106.7195 46.6872 107.8909 48.646 110.2202 C 49.5844 111.337 50.9389 112.9481 51.6552 113.8019 C 53.4893 115.9864 53.3737 116.9586 51.2838 116.9322 C 50.6813 116.924 48.4885 116.7301 46.4105 116.5016 L 42.6331 116.0848 L 42.4938 117.1779 C 42.4164 117.7787 42.3454 119.5709 42.3345 121.1602 C 42.3081 125.2434 41.9841 126.7171 40.8727 127.7975 C 40.3848 128.2708 39.5174 128.8133 38.9457 129.0008 C 38.3741 129.1893 37.5303 129.5342 37.0725 129.7672 C 36.6137 130.0012 36.0813 130.1914 35.8892 130.1914 C 35.6971 130.1914 35.0955 130.4517 34.5521 130.7703 C 34.0096 131.0889 32.9164 131.5358 32.1227 131.7643 C 31.3299 131.9918 30.2376 132.436 29.6969 132.751 C 29.1554 133.065 28.4918 133.3226 28.2224 133.3226 C 27.7664 133.3226 24.7308 134.4649 19.2412 136.7032 C 11.1684 139.9945 10.6723 140.1311 9.8231 139.3037 Z M 12.4081 137.5042 C 13.1864 137.1546 14.6355 136.5694 15.6294 136.2025 C 20.7831 134.3011 26.6167 132.0428 26.8379 131.8635 C 26.9754 131.7524 27.5861 131.5495 28.1942 131.4129 C 28.8022 131.2773 29.99 130.8504 30.8329 130.4645 C 31.6767 130.0795 32.637 129.6826 32.9665 129.5816 C 33.5172 129.415 34.6659 128.9107 37.5449 127.5718 C 40.0253 126.4176 40.3311 125.6676 40.5577 120.1726 C 40.7079 116.5253 40.6834 116.0374 40.3438 115.9063 C 39.9333 115.7498 32.7517 115.6378 32.6033 115.7862 C 32.555 115.8344 32.4058 116.5517 32.2729 117.3782 C 31.9252 119.5409 30.9567 121.1729 29.3565 122.2961 C 27.486 123.6087 13.8354 130.4326 13.0799 130.4326 C 12.7231 130.4326 12.0595 130.0958 11.5361 129.6498 C 10.7015 128.9389 6.4007 126.3676 5.5068 126.0453 C 5.3029 125.9716 4.9079 126.0981 4.6275 126.3248 L 4.1169 126.738 L 5.383 129.2475 C 6.0784 130.6274 6.9077 132.1529 7.2253 132.6381 C 7.5421 133.1223 8.1811 134.1409 8.6453 134.9009 C 9.5874 136.4456 10.7688 138.1386 10.9045 138.1386 C 10.9536 138.1386 11.6299 137.8528 12.4081 137.5042 Z M 13.8527 128.0032 C 14.4989 127.7265 18.1853 125.9352 22.0447 124.0219 L 29.0625 120.5439 L 29.5704 119.3625 C 29.8499 118.7126 30.0792 118.0181 30.0792 117.8187 C 30.0792 117.6194 30.1876 117.3891 30.3195 117.3072 C 30.4524 117.2253 30.5607 116.8994 30.5607 116.5836 L 30.5607 116.0083 L 29.3593 116.3651 C 28.6984 116.5617 27.6262 116.9895 26.9763 117.3154 C 26.3264 117.6421 25.7366 117.9088 25.6656 117.9088 C 25.5955 117.9088 24.9064 118.323 24.1355 118.8282 C 23.3645 119.3333 22.3005 119.9696 21.7707 120.2427 C 21.24 120.5157 20.2761 121.0236 19.6271 121.3713 C 18.3483 122.0567 17.7812 122.1405 17.0557 121.7527 C 16.6744 121.5488 16.0709 121.7718 13.8026 122.9569 C 12.2716 123.757 10.828 124.4115 10.5968 124.4115 C 10.0871 124.4115 6.9641 123.4794 4.7413 122.6629 C 3.1466 122.0777 3.1284 122.0768 3.3924 122.5783 C 4.0086 123.7516 4.6294 124.2294 7.2117 125.522 C 8.7072 126.2711 10.5358 127.2487 11.2749 127.6938 C 12.014 128.1398 12.6321 128.5048 12.6484 128.5048 C 12.6648 128.5057 13.2064 128.2799 13.8527 128.0032 Z M 21.1645 108.8039 C 21.1618 108.4525 21.129 108.4461 20.9269 108.7574 C 20.6229 109.2289 20.6229 109.5484 20.9269 109.36 C 21.0598 109.2781 21.1663 109.0278 21.1645 108.8039 Z M 37.0033 108.1531 C 37.7224 107.728 37.7852 107.5914 37.7852 106.4682 C 37.7852 105.7965 37.6086 104.6004 37.3911 103.8113 C 37.1744 103.0212 36.9888 102.1756 36.9787 101.9308 C 36.9605 101.5139 36.7758 101.4966 34.0615 101.6522 C 30.8566 101.8361 31.0832 101.7205 29.595 103.9223 C 28.6293 105.3505 28.6465 106.2753 29.6578 107.2528 C 30.9294 108.4835 31.8542 108.7775 34.1734 108.691 C 35.6544 108.6364 36.4372 108.4871 37.0033 108.1531 Z M 37.665 95.9806 C 37.665 95.5109 36.5373 94.9766 36.2223 95.298 C 36.0576 95.4663 36.165 95.6985 36.5573 96.0189 C 37.1835 96.5304 37.665 96.514 37.665 95.9806 Z M 40.1937 91.7217 C 39.8623 91.6607 39.5119 91.4859 39.4145 91.333 C 39.2971 91.1492 39.237 91.1446 39.2343 91.3175 C 39.2279 91.7381 39.5092 91.9019 40.1736 91.8664 L 40.7962 91.8336 Z M 22.4816 87.6557 C 22.3341 87.3799 22.1539 87.2124 22.082 87.2843 C 21.8836 87.4828 22.2022 88.1582 22.4934 88.1582 C 22.6718 88.1582 22.6682 88.0043 22.4816 87.6557 Z M 31.9716 75.8756 C 34.3282 74.949 36.3889 74.1899 36.5518 74.1899 C 36.7667 74.1899 36.7002 73.6146 36.3052 72.0827 C 35.5943 69.3165 35.6079 68.7367 36.4235 67.1192 C 36.8003 66.3719 37.0898 65.7612 37.067 65.7612 C 37.0443 65.7612 36.3525 66.0342 35.5288 66.3692 C 33.5645 67.1675 30.366 67.9248 28.9497 67.9266 C 27.6216 67.9284 27.3722 68.1742 28.0622 68.7986 C 29.7579 70.3332 29.595 72.5514 27.6344 74.6131 C 26.6559 75.6407 26.6695 75.5561 27.2002 77.2609 C 27.2521 77.4266 27.3822 77.5613 27.4906 77.5613 C 27.598 77.5613 29.615 76.8031 31.9716 75.8756 Z M 62.2739 75.7491 C 64.9854 75.1829 67.9537 74.2354 69.856 73.3279 C 71.8176 72.3931 72.3564 71.7222 72.9381 69.4895 C 73.6936 66.5877 73.3058 65.7011 71.1722 65.4481 C 68.9085 65.1804 65.2876 62.7684 65.0701 61.3848 C 64.9153 60.3999 65.3604 59.2549 67.7671 54.4471 C 71.6747 46.6419 72.168 44.7996 72.1853 37.9447 C 72.2081 29.5788 70.6252 24.1785 66.2661 17.7477 C 64.2518 14.7768 59.8627 10.4159 56.9318 8.4735 C 50.6103 4.2855 43.9492 2.1347 37.3037 2.1347 C 28.7175 2.1356 19.5607 5.0911 11.1347 10.5788 C 4.1761 15.1117 2.3092 18.5187 2.5604 26.2274 C 2.6924 30.2688 3.2367 32.386 4.5238 33.8669 C 5.6789 35.194 6.5463 35.2058 10.8517 33.9525 C 13.8581 33.0777 14.7684 32.9112 16.5924 32.9021 C 18.3801 32.8939 18.9918 32.994 20.0841 33.4773 C 22.2622 34.4403 24.8145 36.1188 29.4976 39.6669 C 31.937 41.5146 34.3928 43.2095 34.9544 43.4334 C 36.0813 43.8821 38.0919 44.2253 41.3979 44.5329 C 42.5903 44.644 43.7281 44.8033 43.9265 44.887 C 44.1768 44.9926 44.5354 44.674 45.0943 43.8493 C 45.5385 43.194 46.3886 42.2091 46.9848 41.6602 C 48.0525 40.6754 48.0889 40.6626 49.5844 40.7582 C 51.3566 40.8711 52.9423 41.7212 54.131 43.1967 C 54.7572 43.974 54.8838 44.3591 54.9593 45.7253 C 55.1122 48.5079 53.9417 50.859 51.7662 52.1342 C 51.0745 52.5393 49.8165 53.8445 48.1599 55.8752 C 45.0215 59.7227 42.0614 62.7083 40.0416 64.0627 C 39.1988 64.6289 38.5325 65.1804 38.5625 65.2888 C 38.5926 65.398 38.3359 66.1007 37.9918 66.8516 C 37.2363 68.5028 37.2928 69.2391 38.4114 72.2556 L 39.1979 74.3792 L 42.319 74.6796 C 45.7724 75.0109 48.5959 74.8825 50.7905 74.2927 C 51.5851 74.0797 52.2732 73.8676 52.3197 73.8221 C 52.3661 73.7775 52.1294 73.3798 51.7936 72.9392 C 50.7732 71.6021 49.4443 68.5364 49.1566 66.8598 C 48.839 65.0011 49.1038 63.3445 50.0496 61.2783 C 50.8041 59.6299 52.5827 56.9074 53.0123 56.7418 C 53.7323 56.466 53.5621 57.4153 52.6364 58.8398 C 50.8478 61.5914 50.0887 63.5147 50.0942 65.2769 C 50.1078 69.666 53.5967 74.726 57.4133 75.8911 C 58.4127 76.1969 60.4106 76.1377 62.2739 75.7491 Z M 25.5354 73.9687 C 26.5348 73.3597 27.5515 71.9989 27.5461 71.2771 C 27.5443 70.9586 27.2739 70.2641 26.9462 69.7343 C 26.6186 69.2046 26.2827 68.582 26.1999 68.3499 C 26.1052 68.085 25.7994 67.9284 25.3761 67.9284 C 25.0056 67.9284 24.0208 67.7163 23.187 67.4569 C 22.3533 67.1966 21.6433 67.0118 21.6105 67.0446 C 21.5777 67.0774 21.7616 67.9129 22.0183 68.9005 C 22.6136 71.1943 22.609 71.9325 21.9946 73.0803 L 21.4958 74.0096 L 22.1148 73.8594 C 22.4552 73.7766 22.9977 73.6446 23.3199 73.5654 C 23.7523 73.4608 23.9889 73.5554 24.221 73.9268 C 24.6033 74.5403 24.5988 74.5394 25.5354 73.9687 Z M 31.3435 66.1189 C 37.8917 64.8773 40.93 62.7365 46.9803 55.1024 C 49.5262 51.8903 49.5125 51.9039 51.2838 50.7361 C 52.2268 50.1144 52.5645 49.7176 52.7893 48.9694 C 53.5366 46.4726 52.8667 44.3117 50.9725 43.1102 C 48.9081 41.8013 48.1081 42.1973 45.5867 45.7726 C 44.418 47.4302 43.931 47.9399 43.5651 47.8871 C 43.2484 47.8425 43.0891 47.6432 43.1 47.3027 C 43.1146 46.8595 42.9425 46.763 41.8958 46.6292 C 39.7922 46.3588 35.9529 45.3021 34.4283 44.5748 C 33.6227 44.1907 31.2316 42.6688 29.1135 41.1933 C 20.2825 35.0402 18.0188 34.1445 13.5623 35.042 C 12.4473 35.2668 11.436 35.5472 11.315 35.6655 C 11.1939 35.7838 11.0464 36.7268 10.9864 37.7608 C 10.8944 39.3455 10.9809 39.9636 11.5371 41.683 C 12.5556 44.836 12.4782 46.1031 11.0974 48.8856 C 10.432 50.2255 9.9697 51.4861 9.9697 51.9613 C 9.9697 52.8496 10.0161 52.8806 12.491 53.6397 L 13.9282 54.0803 L 15.2608 56.3804 C 17.1804 59.6963 18.483 61.6624 18.7597 61.6624 C 18.8926 61.6624 19.5661 61.3375 20.2579 60.9415 C 21.4339 60.2671 21.8909 59.7655 23.7104 57.1514 C 24.1327 56.5442 24.6124 56.1274 24.8891 56.1274 C 25.4799 56.1274 26.0897 56.9784 25.9313 57.5828 C 25.7138 58.4157 22.4024 61.3202 20.8168 62.0693 L 19.3113 62.7802 L 20.531 63.8779 C 21.2018 64.4805 22.1621 65.1713 22.6636 65.4116 C 24.9137 66.4903 28.0422 66.7451 31.3435 66.1189 Z M 19.3377 43.396 C 18.6687 42.727 18.5194 42.3939 18.5194 41.5747 C 18.5194 39.6914 19.5225 38.8659 21.0398 39.5003 C 22.0511 39.9226 22.356 40.4779 22.4233 42.0143 C 22.5207 44.2517 20.9124 44.9716 19.3377 43.396 Z "/>
        <path id="path27" fill="#013efa" stroke-width="0.24083020367540361" d="M 9.8186 139.3037 C 9.2178 138.7229 7.9226 136.8324 7.9226 136.5375 C 7.9226 136.4456 7.7696 136.1998 7.5821 135.9904 C 6.9168 135.2468 3.3887 128.1206 2.9819 126.6998 C 2.7543 125.9052 2.1472 124.1539 1.632 122.8095 C 0.3395 119.4371 0.6253 118.9547 3.1229 120.2982 C 3.842 120.6841 5.7762 121.5133 7.4201 122.1396 L 10.4093 123.2792 L 13.1536 121.9129 C 14.6628 121.162 16.0108 120.6168 16.1492 120.7023 C 16.3203 120.8079 16.3248 120.7142 16.1628 120.4065 C 15.8288 119.7712 14.9677 114.4764 14.6391 111.0457 C 14.2541 107.0144 14.4935 100.3379 15.1206 97.6227 C 16.4168 92.013 21.2501 77.757 22.5116 75.8246 C 22.863 75.2858 22.8575 75.2821 21.5723 75.2821 C 20.6256 75.2821 20.1724 75.1647 19.8811 74.8416 C 19.3695 74.2772 19.3777 74.1343 19.9985 72.7317 C 20.5137 71.5675 20.5137 71.5548 20.0959 68.6666 C 19.6799 65.7958 19.6663 65.7594 18.6386 64.6862 C 17.398 63.3882 15.8652 61.0216 14.3351 58.0406 C 13.1527 55.736 13.0398 55.6358 10.6951 54.7793 C 9.9023 54.4899 8.9393 53.9392 8.5552 53.5551 C 7.9071 52.907 7.8679 52.7632 7.9963 51.5134 C 8.0846 50.6624 8.4942 49.4217 9.1131 48.1319 C 10.2682 45.7235 10.3447 44.6813 9.5828 41.7267 C 9.1759 40.1493 9.104 39.3638 9.2233 37.7618 L 9.3716 35.7638 L 8.4669 35.9113 C 7.969 35.9932 7.2781 36.1115 6.9322 36.1752 C 5.8909 36.3673 4.1724 35.7975 3.3314 34.9801 C 1.7358 33.43 0.9539 30.8022 0.7782 26.394 C 0.6226 22.4937 1.145 19.4444 2.4148 16.8348 C 4.0186 13.5407 9.2123 9.3236 15.7987 5.9685 C 28.2433 -0.3721 39.1132 -1.1658 49.8939 3.4772 C 56.5923 6.3617 61.7296 10.2966 65.7291 15.6051 C 70.7235 22.2333 72.7815 28.6022 72.7933 37.4723 C 72.8034 44.5065 72.1034 47.1216 68.1121 54.9668 C 66.6648 57.8122 65.4806 60.3918 65.4806 60.6985 C 65.4806 61.9218 68.7092 64.0408 71.0439 64.3503 C 72.0096 64.4787 72.5148 64.6989 73.0336 65.2178 C 73.7054 65.8886 73.7254 65.9796 73.6207 67.7682 C 73.4778 70.2149 72.5248 72.4122 71.1877 73.3807 C 69.0587 74.9235 62.0008 76.9679 58.8068 76.9679 C 56.7925 76.9679 55.0376 76.4017 53.6859 75.3158 L 52.8085 74.6104 L 50.6558 75.2366 C 48.6533 75.8192 48.1636 75.8628 43.6543 75.8628 L 38.8056 75.8628 L 40.342 77.3474 C 42.4674 79.4009 42.7141 80.0544 42.6531 83.4687 C 42.6258 84.9906 42.7195 86.6162 42.8624 87.0814 C 43.0044 87.5456 43.8846 89.5208 44.8167 91.4705 C 46.7855 95.5856 47.0285 96.7243 46.2166 98.0368 C 45.9208 98.5165 45.4356 99.0672 45.138 99.262 C 44.5354 99.657 44.4945 99.252 45.6104 103.9351 C 45.9408 105.3223 46.4824 107.0016 46.8146 107.6679 C 47.1459 108.3333 48.6096 110.2648 50.0659 111.9596 C 54.4887 117.1069 54.2794 117.37 46.4551 116.4998 L 42.7223 116.0857 L 42.5384 116.9121 C 42.4374 117.3663 42.5029 119.8394 42.2644 121.3759 C 41.9349 123.6833 41.3924 125.3645 40.5059 127.1995 C 40.2246 127.955 39.5811 128.502 38.8556 128.9881 C 38.426 129.2812 37.6924 129.4441 37.4311 129.6234 C 37.1699 129.8037 36.7739 129.9511 36.5518 129.9511 C 36.3307 129.9511 35.5497 130.266 34.8179 130.6511 C 34.0851 131.0361 32.8554 131.5331 32.0836 131.7561 C 31.3126 131.9791 30.3359 132.3723 29.9154 132.6308 C 29.494 132.8893 28.7949 133.1451 28.3616 133.1997 C 27.9284 133.2543 26.8097 133.623 25.8758 134.0189 C 24.9428 134.4149 22.336 135.458 20.0841 136.3363 C 17.8331 137.2147 15.1233 138.296 14.0638 138.7384 C 11.2858 139.899 10.5376 139.9991 9.8186 139.3037 Z M 12.0623 137.7545 C 12.7049 137.4222 16.8619 135.8221 23.6239 133.3044 C 24.6443 132.9248 25.965 132.385 26.5594 132.1056 C 27.1547 131.8262 27.892 131.564 28.1978 131.5231 C 29.27 131.3802 38.4005 127.4671 39.0759 126.8609 C 39.9879 126.0399 40.4303 124.7383 40.5368 122.5564 C 40.5932 121.3914 40.7161 119.4508 40.8099 118.2447 C 41.0156 115.5905 41.3487 115.7744 36.2442 115.7289 C 32.3657 115.6943 32.2574 115.7289 32.2501 117.025 C 32.2447 118.0745 31.0532 120.8552 30.3487 121.466 C 30.0019 121.7655 29.3929 122.1878 28.9952 122.4026 C 28.5974 122.6174 28.2187 122.8732 28.1523 122.9715 C 27.9557 123.2619 13.4968 130.4326 13.1072 130.4326 C 12.9097 130.4326 12.1915 130.0112 11.5107 129.4951 C 10.8298 128.9799 9.1222 127.8976 7.7159 127.0894 L 5.1591 125.6203 L 4.5939 126.1864 L 4.0277 126.7517 L 4.8041 128.2909 C 7.1197 132.8857 10.4075 138.1386 10.9673 138.1386 C 11.1602 138.1386 11.6527 137.9656 12.0623 137.7545 Z M 14.9795 127.5508 C 16.1974 127.0266 19.6599 125.3554 22.6737 123.839 C 25.6865 122.3225 28.1523 121.1429 28.1523 121.2184 C 28.1523 121.294 28.3808 121.1492 28.6593 120.8971 C 29.2755 120.3391 29.96 119.0293 30.1894 117.9698 C 30.2822 117.5393 30.4579 117.187 30.5799 117.187 C 30.7018 117.187 30.801 116.9158 30.801 116.5845 C 30.801 116.2531 30.7665 115.9828 30.7246 115.9828 C 30.3796 115.9828 27.9256 116.8293 27.2248 117.1907 C 26.7414 117.4401 26.0752 117.7596 25.7438 117.9016 C 25.4125 118.0436 24.6543 118.4768 24.0581 118.8655 C 23.4619 119.2532 22.4871 119.8321 21.8909 120.1516 C 21.2947 120.472 20.2761 121.0191 19.6271 121.3686 C 18.3264 122.0686 17.7757 122.145 17.0967 121.7209 C 16.7162 121.4833 16.2047 121.6526 13.9091 122.7758 C 12.4045 123.5122 10.9782 124.1803 10.7397 124.2604 C 10.5012 124.3405 8.6671 123.8653 6.6619 123.2045 C 4.6576 122.5437 2.9828 122.003 2.94 122.003 C 2.8963 122.003 3.2149 122.5401 3.6463 123.1954 C 4.2243 124.0738 4.7004 124.4916 5.4568 124.7819 C 6.4817 125.1752 10.99 127.5554 11.8893 128.1771 C 12.531 128.6204 12.4673 128.6331 14.9795 127.5508 Z M 20.9251 116.8284 C 21.3247 116.346 21.058 115.7416 20.4454 115.7416 C 19.8993 115.7416 19.5944 116.2622 19.8101 116.8257 C 19.9876 117.2881 20.5428 117.289 20.9251 116.8284 Z M 45.1307 111.1486 C 45.1307 110.7891 44.9714 110.5397 44.7084 110.4887 C 44.1668 110.3849 43.9019 111.0612 44.2969 111.5382 C 44.7147 112.0406 45.1307 111.8467 45.1307 111.1486 Z M 21.3593 108.8649 C 21.3984 108.5927 21.2109 108.1713 20.9424 107.9282 C 20.5428 107.5669 20.389 107.5414 20.0886 107.7899 C 19.3504 108.4034 19.8574 109.5648 20.8041 109.4292 C 21.0789 109.3891 21.3192 109.1452 21.3593 108.8649 Z M 36.7293 108.2969 C 37.9909 107.7234 38.1511 107.1163 37.6387 104.8471 C 37.4211 103.885 37.1926 102.7035 37.1307 102.2211 C 37.0206 101.3682 36.9924 101.3464 36.1368 101.4502 C 35.6525 101.5084 34.289 101.6322 33.1057 101.725 L 30.9549 101.8934 L 29.9145 103.4144 C 28.6065 105.3277 28.5492 106.1806 29.6578 107.2528 C 30.0883 107.6688 30.8193 108.1731 31.2835 108.3742 C 32.5095 108.904 35.4842 108.8621 36.7293 108.2969 Z M 19.1074 101.3136 C 19.3286 100.9559 18.9918 100.3579 18.4784 100.195 C 17.8212 99.9865 17.6683 100.2168 17.9933 100.9295 C 18.2663 101.5303 18.8498 101.7305 19.1074 101.3136 Z M 24.2047 96.8553 C 24.2766 96.6669 24.2119 96.281 24.0608 95.9979 C 23.7195 95.3608 22.7774 95.4281 22.65 96.098 C 22.4952 96.9054 23.9198 97.5981 24.2047 96.8553 Z M 37.9299 96.1954 C 38.0282 96.0371 37.8662 95.7239 37.5567 95.4727 C 36.5355 94.6462 35.4122 95.1013 36.2342 96.0088 C 36.7011 96.5249 37.6614 96.6305 37.9299 96.1954 Z M 40.8217 91.5205 C 41.0192 90.735 40.6815 90.3955 39.8041 90.4956 C 38.5835 90.6358 38.8529 92.1404 40.0981 92.1404 C 40.5077 92.1404 40.7098 91.9674 40.8217 91.5205 Z M 23.0468 87.7567 C 23.5247 87.2798 23.3745 86.608 22.7237 86.3113 C 22.2012 86.0737 22.0374 86.1065 21.6142 86.5298 C 20.9315 87.2124 21.1982 88.0462 22.0993 88.0462 C 22.4616 88.0462 22.8876 87.916 23.0468 87.7567 Z M 35.3567 74.2963 L 36.2706 74.0224 L 35.8291 72.3394 C 35.0154 69.241 35.0136 68.5874 35.81 67.0191 C 36.348 65.9614 36.4262 65.6592 36.1295 65.7803 C 33.255 66.9554 29.7525 67.8165 27.8483 67.8165 L 26.6131 67.8165 L 27.354 68.5993 C 27.7609 69.0298 28.216 69.6187 28.3644 69.9082 C 29.0261 71.1989 28.4499 73.0575 26.9107 74.5967 C 26.0688 75.4387 26.0306 75.5406 26.2772 76.2906 C 26.422 76.7294 26.5703 77.2145 26.6086 77.3693 C 26.6522 77.5486 28.094 77.0889 30.5598 76.1104 C 32.6961 75.263 34.8543 74.4465 35.3567 74.2963 Z M 62.2302 75.516 C 64.9818 74.9089 67.869 73.9605 69.6103 73.0903 C 71.175 72.3084 71.7912 71.4683 72.3355 69.3775 C 73.091 66.4757 72.7041 65.5891 70.5697 65.3361 C 69.0605 65.1577 66.7713 63.9826 65.4688 62.7192 C 63.9168 61.2128 64.0279 60.6366 67.0271 54.6464 C 71.0712 46.5691 71.6028 44.573 71.6009 37.4714 C 71.6 33.8569 71.4999 32.5143 71.0703 30.3544 C 70.242 26.1828 69.1452 23.2865 67.068 19.7876 C 61.8716 11.0321 52.8248 4.6687 42.5275 2.5261 C 37.6377 1.5084 30.7765 1.9863 24.8072 3.7594 C 15.573 6.5028 5.4522 12.9126 3.3669 17.34 C 2.362 19.4708 1.875 21.9794 1.865 25.0587 C 1.8477 31.0989 3.4151 34.8226 5.9756 34.8226 C 6.4844 34.8226 8.405 34.3775 10.2418 33.8323 C 13.058 32.9976 13.9464 32.8365 15.9052 32.8092 L 18.229 32.7755 L 20.7221 34.0362 C 22.4142 34.8909 24.7635 36.4647 28.0321 38.9314 C 30.6809 40.9312 33.2659 42.7835 33.7775 43.0474 C 35.0336 43.6982 37.3993 44.1697 40.3939 44.3663 C 41.9031 44.4656 43.0044 44.6522 43.1928 44.8406 C 43.4468 45.0945 43.668 44.9134 44.3998 43.8502 C 44.8931 43.1348 45.7843 42.099 46.3804 41.5492 C 47.4509 40.5634 47.4864 40.5507 48.9819 40.6463 C 50.7586 40.7591 52.3406 41.6102 53.5366 43.0948 C 54.2339 43.9604 54.2821 44.1488 54.2821 45.9847 C 54.2821 47.685 54.1856 48.142 53.5603 49.3935 C 52.9878 50.5377 52.5363 51.0465 51.3885 51.8402 C 50.4218 52.5083 49.0601 53.911 47.2943 56.0536 C 44.1377 59.8866 41.3915 62.6409 39.3799 63.9908 C 38.5689 64.5351 37.9308 65.0685 37.9609 65.1777 C 37.9909 65.286 37.7333 65.9896 37.3893 66.7415 C 36.6301 68.3999 36.6975 69.2482 37.8243 72.2292 L 38.6026 74.2863 L 40.4221 74.4839 C 43.6452 74.8325 48.0871 74.7214 50.1342 74.2408 L 52.0075 73.8012 L 51.3621 73.0366 C 50.3245 71.806 48.9309 68.6702 48.6005 66.8207 C 48.2446 64.8309 48.4758 63.289 49.447 61.1664 C 50.2025 59.5179 51.9801 56.7955 52.4107 56.6307 C 53.1307 56.354 52.9605 57.3034 52.0348 58.7279 C 51.4977 59.5544 50.7031 60.9889 50.2689 61.9164 C 49.5981 63.3518 49.4852 63.8524 49.5089 65.2879 C 49.5835 69.7206 52.9878 74.6122 56.8107 75.78 C 57.8866 76.1077 60.0156 76.0048 62.2302 75.516 Z M 24.7572 73.9705 C 25.1276 73.7784 25.773 73.2323 26.1899 72.7572 C 27.1829 71.6257 27.1938 70.6354 26.2253 69.3001 C 25.8285 68.7513 25.5035 68.1933 25.5035 68.0595 C 25.5035 67.9257 25.1877 67.8165 24.8018 67.8165 C 24.4167 67.8165 23.4191 67.6044 22.5845 67.345 C 21.7507 67.0846 21.0416 66.8999 21.0089 66.9326 C 20.9761 66.9654 21.159 67.801 21.4157 68.7895 C 22.011 71.0833 22.0074 71.8205 21.3921 72.9683 L 20.8942 73.8977 L 21.5131 73.7475 C 21.8526 73.6647 22.3951 73.5327 22.7173 73.4544 C 23.1497 73.3488 23.3864 73.4435 23.6185 73.8148 C 23.9926 74.4147 23.917 74.4038 24.7572 73.9705 Z M 32.4868 65.682 C 38.0046 64.1838 40.4704 62.3078 46.203 55.2472 C 48.1754 52.8178 49.4197 51.5171 50.4355 50.8262 C 52.0566 49.7221 52.4407 48.9821 52.4626 46.9122 C 52.4826 44.9917 51.6552 43.5808 50.0168 42.7443 C 48.575 42.0089 47.956 42.1381 46.6999 43.4416 C 46.0883 44.076 45.107 45.3266 44.5199 46.2205 C 43.7135 47.4465 43.3321 47.8288 42.9662 47.777 C 42.6467 47.7305 42.4874 47.5321 42.4983 47.1917 C 42.5129 46.7329 42.3117 46.6428 40.6915 46.3825 C 35.9138 45.6143 33.4334 44.5074 28.0686 40.75 C 19.7482 34.9237 17.4126 34.0353 12.7768 34.9355 C 10.6951 35.3406 10.6168 35.3788 10.4766 36.0824 C 10.1508 37.7126 10.3365 39.8735 10.9736 41.855 C 11.9102 44.765 11.8529 45.8782 10.6423 48.3358 C 9.4171 50.8217 9.0367 52.1251 9.4062 52.5702 C 9.5519 52.7459 10.28 53.0572 11.0246 53.262 C 13.2556 53.8746 13.322 53.9328 14.7911 56.5351 C 16.5397 59.6354 17.7985 61.555 18.0807 61.555 C 18.463 61.555 20.1177 60.6339 20.8632 60.0067 C 21.261 59.6718 22.0438 58.6951 22.6036 57.8368 C 23.6594 56.2156 24.3148 55.7705 24.9128 56.2666 C 25.6219 56.8546 25.3078 57.6966 23.7869 59.2804 C 22.8011 60.3071 21.7243 61.119 20.5437 61.7261 L 18.777 62.6364 L 19.6717 63.5602 C 20.8177 64.7445 22.163 65.5354 23.8233 66.0015 C 25.6282 66.5076 30.0465 66.3446 32.4868 65.682 Z M 19.3377 43.396 C 18.6687 42.727 18.5194 42.3939 18.5194 41.5747 C 18.5194 40.335 18.8489 39.6851 19.629 39.3883 C 20.3726 39.1062 21.7343 39.6195 22.112 40.3259 C 22.5526 41.1487 22.4379 43.3587 21.9318 43.8166 C 21.2137 44.4665 20.2525 44.3108 19.3377 43.396 Z "/>
        <path id="path25" fill="#635b59" stroke-width="0.24083020367540361" d="M 9.8186 139.3037 C 9.2178 138.7229 7.9226 136.8324 7.9226 136.5375 C 7.9226 136.4456 7.7696 136.1998 7.5821 135.9904 C 6.9168 135.2468 3.3887 128.1206 2.9819 126.6998 C 2.7543 125.9052 2.1472 124.1539 1.632 122.8095 C 0.3395 119.4371 0.6253 118.9547 3.1229 120.2982 C 3.842 120.6841 5.7762 121.5133 7.4201 122.1396 L 10.4093 123.2792 L 13.1536 121.9129 C 14.6628 121.162 16.0108 120.6168 16.1492 120.7023 C 16.3203 120.8079 16.3248 120.7142 16.1628 120.4065 C 15.8288 119.7712 14.9677 114.4764 14.6391 111.0457 C 14.2541 107.0144 14.4935 100.3379 15.1206 97.6227 C 16.4168 92.013 21.2501 77.757 22.5116 75.8246 C 22.863 75.2858 22.8575 75.2821 21.5723 75.2821 C 20.6256 75.2821 20.1724 75.1647 19.8811 74.8416 C 19.3695 74.2772 19.3777 74.1343 19.9985 72.7317 C 20.5137 71.5675 20.5137 71.5548 20.0959 68.6666 C 19.6799 65.7958 19.6663 65.7594 18.6386 64.6862 C 17.398 63.3882 15.8652 61.0216 14.3351 58.0406 C 13.1527 55.736 13.0398 55.6358 10.6951 54.7793 C 9.9023 54.4899 8.9393 53.9392 8.5552 53.5551 C 7.9071 52.907 7.8679 52.7632 7.9963 51.5134 C 8.0846 50.6624 8.4942 49.4217 9.1131 48.1319 C 10.2682 45.7235 10.3447 44.6813 9.5828 41.7267 C 9.1759 40.1493 9.104 39.3638 9.2233 37.7618 L 9.3716 35.7638 L 8.4669 35.9113 C 7.969 35.9932 7.2781 36.1115 6.9322 36.1752 C 5.8909 36.3673 4.1724 35.7975 3.3314 34.9801 C 1.7358 33.43 0.9539 30.8022 0.7782 26.394 C 0.6226 22.4937 1.145 19.4444 2.4148 16.8348 C 4.0186 13.5407 9.2123 9.3236 15.7987 5.9685 C 28.2433 -0.3721 39.1132 -1.1658 49.8939 3.4772 C 56.5923 6.3617 61.7296 10.2966 65.7291 15.6051 C 70.7235 22.2333 72.7815 28.6022 72.7933 37.4723 C 72.8034 44.5065 72.1034 47.1216 68.1121 54.9668 C 66.6648 57.8122 65.4806 60.3918 65.4806 60.6985 C 65.4806 61.9218 68.7092 64.0408 71.0439 64.3503 C 72.0096 64.4787 72.5148 64.6989 73.0336 65.2178 C 73.7054 65.8886 73.7254 65.9796 73.6207 67.7682 C 73.4778 70.2149 72.5248 72.4122 71.1877 73.3807 C 69.0587 74.9235 62.0008 76.9679 58.8068 76.9679 C 56.7925 76.9679 55.0376 76.4017 53.6859 75.3158 L 52.8085 74.6104 L 50.6558 75.2366 C 48.6533 75.8192 48.1636 75.8628 43.6543 75.8628 L 38.8056 75.8628 L 40.342 77.3474 C 42.4674 79.4009 42.7141 80.0544 42.6531 83.4687 C 42.6258 84.9906 42.7195 86.6162 42.8624 87.0814 C 43.0044 87.5456 43.8846 89.5208 44.8167 91.4705 C 46.7855 95.5856 47.0285 96.7243 46.2166 98.0368 C 45.9208 98.5165 45.4356 99.0672 45.138 99.262 C 44.5354 99.657 44.4945 99.252 45.6104 103.9351 C 45.9408 105.3223 46.4824 107.0016 46.8146 107.6679 C 47.1459 108.3333 48.6096 110.2648 50.0659 111.9596 C 54.4887 117.1069 54.2794 117.37 46.4551 116.4998 L 42.7223 116.0857 L 42.5384 116.9121 C 42.4374 117.3663 42.4446 119.7384 42.2644 121.3759 C 41.9977 124.1867 41.6482 125.6285 40.7334 127.4726 C 40.4203 128.2308 39.6594 128.5785 38.8556 128.9881 C 38.3914 129.2329 37.6924 129.4441 37.4311 129.6234 C 37.1699 129.8037 36.7739 129.9511 36.5518 129.9511 C 36.3307 129.9511 35.5497 130.266 34.8179 130.6511 C 34.0851 131.0361 32.8554 131.5331 32.0836 131.7561 C 31.3126 131.9791 30.3359 132.3723 29.9154 132.6308 C 29.494 132.8893 28.7949 133.1451 28.3616 133.1997 C 27.9284 133.2543 26.8097 133.623 25.8758 134.0189 C 24.9428 134.4149 22.336 135.458 20.0841 136.3363 C 17.8331 137.2147 15.1233 138.296 14.0638 138.7384 C 11.2858 139.899 10.5376 139.9991 9.8186 139.3037 Z M 12.0623 137.7545 C 12.7049 137.4222 16.8619 135.8221 23.6239 133.3044 C 24.6443 132.9248 25.965 132.385 26.5594 132.1056 C 27.1547 131.8262 27.892 131.564 28.1978 131.5231 C 29.27 131.3802 38.4005 127.4671 39.0759 126.8609 C 39.9879 126.0399 40.4303 124.7383 40.5368 122.5564 C 40.5932 121.3914 40.7161 119.4508 40.8099 118.2447 C 41.0156 115.5905 41.3487 115.7744 36.2442 115.7289 C 32.3657 115.6943 32.2574 115.7289 32.2501 117.025 C 32.2447 118.0745 31.0532 120.8552 30.3487 121.466 C 30.0019 121.7655 29.3929 122.1878 28.9952 122.4026 C 28.5974 122.6174 28.2187 122.8732 28.1523 122.9715 C 27.9557 123.2619 13.4968 130.4326 13.1072 130.4326 C 12.9097 130.4326 12.1915 130.0112 11.5107 129.4951 C 10.8298 128.9799 9.1222 127.8976 7.7159 127.0894 L 5.1591 125.6203 L 4.5939 126.1864 L 4.0277 126.7517 L 4.8041 128.2909 C 7.1197 132.8857 10.4075 138.1386 10.9673 138.1386 C 11.1602 138.1386 11.6527 137.9656 12.0623 137.7545 Z M 14.9795 127.5508 C 16.1974 127.0266 19.6599 125.3554 22.6737 123.839 C 25.6865 122.3225 28.1523 121.1429 28.1523 121.2184 C 28.1523 121.294 28.3808 121.1492 28.6593 120.8971 C 29.2755 120.3391 29.96 119.0293 30.1894 117.9698 C 30.2822 117.5393 30.4579 117.187 30.5799 117.187 C 30.7018 117.187 30.801 116.9158 30.801 116.5845 C 30.801 116.2531 30.7665 115.9828 30.7246 115.9828 C 30.3796 115.9828 27.9256 116.8293 27.2248 117.1907 C 26.7414 117.4401 26.0752 117.7596 25.7438 117.9016 C 25.4125 118.0436 24.6543 118.4768 24.0581 118.8655 C 23.4619 119.2532 22.4871 119.8321 21.8909 120.1516 C 21.2947 120.472 20.2761 121.0191 19.6271 121.3686 C 18.3264 122.0686 17.7757 122.145 17.0967 121.7209 C 16.7162 121.4833 16.2047 121.6526 13.9091 122.7758 C 12.4045 123.5122 10.9782 124.1803 10.7397 124.2604 C 10.5012 124.3405 8.6671 123.8653 6.6619 123.2045 C 4.6576 122.5437 2.9828 122.003 2.94 122.003 C 2.8963 122.003 3.2149 122.5401 3.6463 123.1954 C 4.2243 124.0738 4.7004 124.4916 5.4568 124.7819 C 6.4817 125.1752 10.99 127.5554 11.8893 128.1771 C 12.531 128.6204 12.4673 128.6331 14.9795 127.5508 Z M 21.9427 118.343 C 25.7639 116.153 27.952 115.1745 30.2485 114.6284 C 32.7444 114.0349 38.4378 114.136 45.2199 114.8942 C 48.3165 115.2392 50.8924 115.4785 50.9461 115.4257 C 50.9998 115.372 50.0086 114.054 48.7434 112.4966 C 45.4702 108.468 44.7894 107.1664 43.7089 102.8692 C 43.4077 101.6704 43.0618 100.6947 42.9416 100.7001 C 42.8215 100.7056 41.8739 100.8576 40.8372 101.0369 C 39.1041 101.3382 38.9639 101.4047 39.0932 101.8698 C 39.4728 103.2297 39.7513 105.9703 39.6075 106.9279 C 39.318 108.8585 38.0155 109.8961 35.1838 110.4532 C 32.393 111.0021 30.224 110.3786 28.5737 108.5517 C 26.9326 106.7358 26.9408 105.3132 28.6029 103.1104 L 29.5549 101.8507 L 28.1031 101.5812 C 24.6261 100.9341 24.2238 99.4741 26.492 95.7221 C 28.084 93.0888 28.7585 91.7545 29.0953 90.5748 C 29.2464 90.045 29.473 87.4482 29.5986 84.804 C 29.8034 80.4977 29.8872 79.876 30.3978 78.8429 C 30.7118 78.2094 30.9576 77.6906 30.944 77.6906 C 30.9294 77.6906 29.9436 77.96 28.753 78.2895 C 26.2654 78.9776 25.5035 79.0395 25.5035 78.5516 C 25.5035 78.0729 24.2693 76.6556 24.059 76.8932 C 23.7523 77.2409 21.6861 82.35 20.1196 86.6372 C 16.1191 97.5826 15.3727 101.4993 15.8779 108.8785 C 16.1492 112.8389 17.1067 119.2369 17.5527 120.0706 C 17.8722 120.6686 17.9114 120.6532 21.9427 118.343 Z M 19.7709 117.1388 C 19.6126 116.9795 19.4897 116.6819 19.4979 116.4761 C 19.507 116.2477 19.5971 116.3123 19.7309 116.6445 C 19.9739 117.2489 20.419 117.339 20.9278 116.8857 C 21.2146 116.63 21.2182 116.6473 20.946 117.0059 C 20.5738 117.4983 20.176 117.5438 19.7709 117.1388 Z M 19.8811 115.6815 C 19.9421 115.5823 20.196 115.5013 20.4454 115.5013 C 20.6948 115.5013 20.9488 115.5823 21.0107 115.6815 C 21.0717 115.7807 20.8177 115.8617 20.4454 115.8617 C 20.0741 115.8617 19.8192 115.7807 19.8811 115.6815 Z M 44.0421 111.5218 C 43.8746 111.3197 43.7845 111.1076 43.8409 111.0503 C 43.8983 110.9939 44.0776 111.1586 44.2387 111.418 C 44.5882 111.9778 44.4717 112.0388 44.0421 111.5218 Z M 45.1307 111.1887 C 45.1307 110.8045 45.2117 110.5397 45.3118 110.6016 C 45.4111 110.6625 45.4921 110.9775 45.4921 111.3006 C 45.4921 111.6237 45.4111 111.8886 45.3118 111.8886 C 45.2117 111.8886 45.1307 111.5737 45.1307 111.1887 Z M 19.8811 109.2808 C 19.3732 108.7201 19.3741 108.184 19.882 107.7635 C 20.2488 107.4613 20.2534 107.4786 19.9448 107.9756 C 19.5124 108.6692 19.8938 109.36 20.7094 109.36 C 21.4467 109.36 21.5978 108.6546 21.0089 107.9574 L 20.5665 107.4331 L 21.1081 107.8918 C 21.707 108.3988 21.8035 108.9896 21.3611 109.4319 C 20.9433 109.8497 20.3398 109.7878 19.8811 109.2808 Z M 17.9305 101.2381 C 17.4635 100.5718 17.4526 100.1121 17.8986 99.941 C 18.3055 99.7845 19.2412 100.2405 19.2412 100.5955 C 19.2412 100.732 19.071 100.6747 18.8635 100.4662 C 18.0351 99.6388 17.438 100.235 18.1435 101.1853 C 18.4539 101.604 18.5476 101.6176 19.0464 101.3136 C 19.5561 101.0023 19.5752 101.0069 19.2721 101.3737 C 18.8207 101.9198 18.3765 101.8752 17.9305 101.2381 Z M 22.914 97.0711 C 22.3196 96.6515 22.2122 96.0098 22.6609 95.5601 C 23.1251 95.0968 23.7759 95.2251 24.1928 95.8614 C 24.9711 97.0483 24.079 97.8921 22.914 97.0711 Z M 24.2047 96.8553 C 24.2766 96.6669 24.2119 96.281 24.0608 95.9979 C 23.7195 95.3617 22.7774 95.4281 22.65 96.098 C 22.4952 96.9054 23.9198 97.599 24.2047 96.8553 Z M 21.1572 87.785 C 21.0098 87.5083 20.9415 87.2297 21.0061 87.1642 C 21.0707 87.0996 21.1954 87.2716 21.2828 87.5465 C 21.4649 88.1199 22.5426 88.2383 23.0951 87.7449 C 23.3827 87.4891 23.3854 87.5073 23.1142 87.866 C 22.6636 88.4603 21.4931 88.4121 21.1572 87.785 Z M 21.1681 86.7509 C 21.1681 86.7009 21.3575 86.5116 21.5896 86.3295 C 21.9719 86.03 21.9801 86.0382 21.6806 86.4205 C 21.3657 86.8219 21.1681 86.9494 21.1681 86.7509 Z M 22.8539 86.3605 C 22.6372 86.2203 22.6072 86.1256 22.7792 86.1229 C 22.9376 86.1211 23.1333 86.2276 23.2152 86.3605 C 23.4 86.659 23.3163 86.659 22.8539 86.3605 Z M 36.7293 108.2969 C 37.9909 107.7243 38.1511 107.1163 37.6387 104.8471 C 37.4211 103.885 37.1926 102.7035 37.1307 102.2211 C 37.0206 101.3682 36.9924 101.3473 36.1368 101.4502 C 35.6525 101.5084 34.289 101.6322 33.1057 101.725 L 30.9549 101.8944 L 29.9145 103.4144 C 28.6065 105.3277 28.5492 106.1806 29.6578 107.2528 C 30.0883 107.6688 30.8193 108.174 31.2835 108.3742 C 32.5095 108.9049 35.4842 108.8621 36.7293 108.2969 Z M 35.7381 100.4362 C 38.8037 100.1376 42.1088 98.9498 43.7717 97.5508 C 44.3443 97.0702 44.5291 96.717 44.5291 96.1053 C 44.5291 95.0895 43.6197 92.1941 42.2034 88.6979 C 41.1421 86.0774 41.1139 85.9436 41.2468 84.0731 C 41.4889 80.6579 41.0902 79.907 37.8425 77.6624 C 36.1868 76.5173 35.9993 76.4472 35.0208 76.5938 C 33.6628 76.7976 31.9488 78.2677 31.4209 79.6821 C 31.177 80.3348 30.9585 82.1734 30.8129 84.7949 C 30.4788 90.8024 30.2576 91.5733 27.6398 95.8732 C 26.1098 98.3863 25.8576 99.2383 26.4666 99.8463 C 26.7169 100.0967 27.334 100.3688 27.8383 100.4516 C 28.3416 100.5345 28.9169 100.6364 29.1153 100.6783 C 29.5768 100.7766 33.8467 100.6209 35.7381 100.4362 Z M 36.1969 96.1745 C 35.739 95.6329 35.739 95.6329 36.2387 96.0544 C 36.8267 96.5486 37.5522 96.5978 38.0264 96.1745 C 38.314 95.9178 38.3168 95.936 38.0455 96.2947 C 37.6041 96.8781 36.7457 96.8217 36.1969 96.1745 Z M 37.2463 95.3098 C 36.6711 94.9612 36.5182 94.9539 36.0421 95.2497 C 35.5433 95.561 35.5251 95.5555 35.8282 95.1896 C 36.2669 94.6581 36.8832 94.6845 37.5786 95.2634 C 38.2622 95.8332 38.1402 95.8505 37.2463 95.3098 Z M 39.1269 92.0029 C 38.6763 91.5524 38.6381 90.9025 39.0377 90.5029 C 39.3553 90.1852 40.5814 90.1079 40.7589 90.3946 C 40.8208 90.4938 40.4767 90.5748 39.9961 90.5748 C 39.3462 90.5748 39.0996 90.6868 39.0358 91.0081 C 38.8056 92.1695 40.4695 92.5946 40.8772 91.4777 C 41.0101 91.1137 41.1275 90.958 41.1385 91.1328 C 41.2031 92.2232 39.9088 92.7839 39.1269 92.0029 Z M 35.3567 74.2963 L 36.2706 74.0224 L 35.8291 72.3394 C 35.0154 69.2419 35.0136 68.5874 35.81 67.02 C 36.348 65.9614 36.4262 65.6592 36.1295 65.7803 C 33.255 66.9554 29.7525 67.8165 27.8483 67.8165 L 26.6131 67.8165 L 27.354 68.5993 C 27.7609 69.0298 28.216 69.6187 28.3644 69.9082 C 29.0261 71.1989 28.4499 73.0575 26.9107 74.5967 C 26.0688 75.4387 26.0306 75.5406 26.2772 76.2906 C 26.422 76.7294 26.5703 77.2154 26.6086 77.3702 C 26.6522 77.5486 28.094 77.0889 30.5598 76.1104 C 32.6961 75.2639 34.8543 74.4474 35.3567 74.2963 Z M 62.2302 75.516 C 64.9818 74.9098 67.869 73.9605 69.6103 73.0903 C 71.175 72.3084 71.7912 71.4692 72.3355 69.3775 C 73.091 66.4757 72.7041 65.5891 70.5697 65.3361 C 69.0605 65.1577 66.7713 63.9835 65.4688 62.7192 C 63.9168 61.2128 64.0279 60.6366 67.0271 54.6464 C 71.0712 46.5691 71.6028 44.573 71.6009 37.4723 C 71.6 33.8569 71.4999 32.5143 71.0703 30.3544 C 70.242 26.1828 69.1452 23.2865 67.068 19.7876 C 61.8716 11.0321 52.8248 4.6687 42.5275 2.5261 C 37.6377 1.5084 30.7765 1.9863 24.8072 3.7594 C 15.573 6.5028 5.4522 12.9126 3.3669 17.34 C 2.362 19.4708 1.875 21.9794 1.865 25.0587 C 1.8477 31.0989 3.4151 34.8226 5.9756 34.8226 C 6.4844 34.8226 8.405 34.3775 10.2418 33.8323 C 13.058 32.9976 13.9464 32.8365 15.9052 32.8092 L 18.229 32.7755 L 20.7221 34.0362 C 22.4142 34.8909 24.7635 36.4647 28.0321 38.9314 C 30.6809 40.9312 33.2659 42.7835 33.7775 43.0474 C 35.0336 43.6982 37.3993 44.1697 40.3939 44.3663 C 41.9031 44.4656 43.0044 44.6522 43.1928 44.8406 C 43.4468 45.0945 43.668 44.9134 44.3998 43.8502 C 44.8931 43.1348 45.7843 42.099 46.3804 41.5492 C 47.4509 40.5634 47.4864 40.5507 48.9819 40.6463 C 50.7586 40.7591 52.3406 41.6102 53.5366 43.0948 C 54.2339 43.9604 54.2821 44.1488 54.2821 45.9847 C 54.2821 47.685 54.1856 48.142 53.5603 49.3935 C 52.9878 50.5377 52.5363 51.0465 51.3885 51.8402 C 50.4218 52.5083 49.0601 53.911 47.2943 56.0536 C 44.1377 59.8866 41.3915 62.6409 39.3799 63.9908 C 38.5689 64.5351 37.9308 65.0685 37.9609 65.1777 C 37.9909 65.286 37.7333 65.9896 37.3893 66.7415 C 36.6301 68.3999 36.6975 69.2482 37.8243 72.2292 L 38.6026 74.2863 L 40.4221 74.4839 C 43.6452 74.8325 48.0871 74.7214 50.1342 74.2408 L 52.0075 73.8012 L 51.3621 73.0366 C 50.3245 71.806 48.9309 68.6702 48.6005 66.8207 C 48.2446 64.8309 48.4758 63.289 49.447 61.1664 C 50.2025 59.5179 51.9801 56.7955 52.4107 56.6307 C 53.1307 56.354 52.9605 57.3034 52.0348 58.7279 C 51.4977 59.5544 50.7031 60.9889 50.2689 61.9164 C 49.5981 63.3518 49.4852 63.8524 49.5089 65.2879 C 49.5835 69.7206 52.9878 74.6122 56.8107 75.78 C 57.8866 76.1077 60.0156 76.0048 62.2302 75.516 Z M 24.7572 73.9705 C 25.1276 73.7784 25.773 73.2323 26.1899 72.7572 C 27.1829 71.6257 27.1938 70.6354 26.2253 69.3001 C 25.8285 68.7513 25.5035 68.1933 25.5035 68.0595 C 25.5035 67.9257 25.1877 67.8165 24.8018 67.8165 C 24.4167 67.8165 23.4191 67.6044 22.5845 67.345 C 21.7507 67.0846 21.0416 66.8999 21.0089 66.9326 C 20.9761 66.9654 21.159 67.801 21.4157 68.7895 C 22.011 71.0833 22.0074 71.8205 21.3921 72.9683 L 20.8942 73.8977 L 21.5131 73.7475 C 21.8526 73.6647 22.3951 73.5327 22.7173 73.4544 C 23.1497 73.3488 23.3864 73.4435 23.6185 73.8148 C 23.9926 74.4147 23.917 74.4038 24.7572 73.9705 Z M 32.4868 65.682 C 38.0046 64.1838 40.4704 62.3078 46.203 55.2472 C 48.1754 52.8178 49.4197 51.5171 50.4355 50.8262 C 52.0566 49.7221 52.4407 48.9821 52.4626 46.9122 C 52.4826 44.9917 51.6552 43.5808 50.0168 42.7443 C 48.575 42.0089 47.956 42.1381 46.6999 43.4416 C 46.0883 44.076 45.107 45.3266 44.5199 46.2205 C 43.7135 47.4465 43.3321 47.8288 42.9662 47.777 C 42.6467 47.7305 42.4874 47.5321 42.4983 47.1917 C 42.5129 46.7329 42.3117 46.6428 40.6915 46.3825 C 35.9138 45.6143 33.4334 44.5074 28.0686 40.75 C 19.7482 34.9237 17.4126 34.0353 12.7768 34.9355 C 10.6951 35.3406 10.6168 35.3788 10.4766 36.0824 C 10.1508 37.7126 10.3365 39.8735 10.9736 41.855 C 11.9102 44.765 11.8529 45.8782 10.6423 48.3358 C 9.4171 50.8217 9.0367 52.1251 9.4062 52.5702 C 9.5519 52.7459 10.28 53.0572 11.0246 53.262 C 13.2556 53.8746 13.322 53.9328 14.7911 56.5351 C 16.5397 59.6354 17.7985 61.555 18.0807 61.555 C 18.463 61.555 20.1177 60.6339 20.8632 60.0067 C 21.261 59.6718 22.0438 58.6951 22.6036 57.8368 C 23.6594 56.2156 24.3148 55.7705 24.9128 56.2666 C 25.6219 56.8546 25.3078 57.6966 23.7869 59.2804 C 22.8011 60.3071 21.7243 61.119 20.5437 61.7261 L 18.777 62.6364 L 19.6717 63.5602 C 20.8177 64.7445 22.163 65.5354 23.8233 66.0015 C 25.6282 66.5076 30.0465 66.3446 32.4868 65.682 Z M 19.3377 43.396 C 18.6687 42.727 18.5194 42.3939 18.5194 41.5747 C 18.5194 40.335 18.8489 39.6851 19.629 39.3883 C 20.3726 39.1062 21.7343 39.6195 22.112 40.3259 C 22.5526 41.1487 22.4379 43.3587 21.9318 43.8166 C 21.2137 44.4665 20.2525 44.3108 19.3377 43.396 Z "/>
        <path id="path23" fill="#040303" stroke-width="0.24083020367540361" d="M 9.196 138.3479 C 7.0069 135.3742 2.6241 126.4886 2.6241 125.0259 C 2.6241 124.7519 2.2464 123.6615 1.784 122.6029 C 0.4733 119.6 0.6471 119.1995 2.7953 120.28 C 4.7868 121.2812 9.7421 123.2073 10.3265 123.2073 C 10.5986 123.2073 11.9985 122.6165 13.4376 121.8947 C 14.8767 121.1729 16.1046 120.6322 16.1646 120.6923 C 16.2247 120.7533 16.0818 119.9077 15.8461 118.8136 C 14.7001 113.5043 14.1385 105.193 14.6446 101.0515 C 14.7984 99.7926 15.2517 97.4625 15.6513 95.8732 C 17.0202 90.4328 21.3465 77.9846 22.6245 75.8137 L 23.0914 75.02 L 22.2686 75.1747 C 21.1964 75.3759 20.0158 75.1064 19.7446 74.5985 C 19.6044 74.3373 19.6572 73.8576 19.8938 73.2341 C 20.4846 71.6831 20.5246 70.5863 20.0813 68.1241 C 19.6854 65.9268 19.598 65.7284 18.4238 64.3421 C 16.9493 62.6009 16.4486 61.8245 14.5426 58.3183 L 13.0945 55.6549 L 11.0119 54.8121 C 9.8659 54.3479 8.7636 53.8263 8.5615 53.6515 C 7.6458 52.8587 7.8989 50.8025 9.2497 48.0682 C 10.3929 45.7553 10.4402 45.1373 9.7175 42.0043 C 9.1086 39.3647 9.0658 38.0521 9.5264 36.1079 C 9.6429 35.6164 9.5974 35.5991 8.7263 35.8011 C 7.3455 36.1215 5.3621 36.0706 4.4546 35.691 C 1.8723 34.6124 0.2494 28.8315 0.8965 23.0152 C 1.4254 18.2593 2.5613 15.8627 5.708 12.868 C 11.0292 7.8017 20.7968 2.9357 28.9333 1.2991 C 31.1597 0.8503 32.4404 0.7529 36.0995 0.7493 C 40.9992 0.7448 42.7687 1.0096 46.7773 2.3486 C 56.8635 5.7155 64.7433 12.4257 69.218 21.4569 C 71.7739 26.6151 72.706 30.915 72.706 37.546 C 72.706 44.4829 71.9769 47.1935 68.0165 54.9823 C 66.5183 57.9278 65.4806 60.2534 65.4806 60.6685 C 65.4806 61.9683 68.4406 64.0645 70.6935 64.3594 C 73.1529 64.6816 73.8082 65.4936 73.5825 67.9366 C 73.1611 72.5078 71.205 74.178 64.1134 76.0221 C 58.977 77.3574 56.5841 77.2118 53.9562 75.4041 L 52.7274 74.5585 L 50.3736 75.1756 C 47.5292 75.922 44.8112 76.115 41.2777 75.8219 C 39.8205 75.7008 38.5971 75.6253 38.558 75.6535 C 38.5188 75.6817 39.2115 76.3953 40.0972 77.2391 C 42.3336 79.3727 42.6385 80.1482 42.5712 83.5315 C 42.5102 86.6099 42.7878 87.734 44.3079 90.5602 C 44.8112 91.4959 45.5631 93.1152 45.9799 94.1593 C 46.9066 96.4794 46.8219 97.2913 45.5057 98.7249 L 44.5855 99.7262 L 45.148 102.3759 C 46.2011 107.3311 46.5925 108.083 50.3954 112.4448 C 52.7229 115.1135 53.036 115.596 52.8412 116.2113 C 52.6182 116.9149 51.7644 117.0459 49.3851 116.7419 C 45.0506 116.1876 42.5548 115.95 42.4255 116.0793 C 42.2544 116.2495 42.3072 121.0837 42.0059 123.5541 C 41.863 124.7383 41.6791 125.9534 41.234 127.063 C 40.9683 127.5727 40.3921 127.8858 39.9534 128.2335 C 39.643 128.4802 39.4655 128.5794 38.8693 128.7469 C 38.2731 128.9135 37.7852 129.1274 37.7852 129.2211 C 37.7852 129.3158 37.3246 129.5306 36.7621 129.699 C 36.1987 129.8665 35.3312 130.2114 34.8333 130.4654 C 34.3354 130.7184 33.1977 131.1908 32.3047 131.514 C 31.4118 131.838 30.2513 132.3232 29.727 132.5917 C 29.2018 132.8611 28.5191 133.0814 28.2096 133.0814 C 27.9002 133.0814 27.3085 133.2561 26.8953 133.47 C 26.4811 133.6839 25.2132 134.2119 24.0772 134.6424 C 21.2928 135.6983 18.3164 136.8761 17.4353 137.272 C 16.4004 137.7372 13.4067 138.8431 12.9798 138.9186 C 12.7813 138.9532 12.551 139.0752 12.4682 139.189 C 12.3845 139.3028 11.8283 139.4502 11.2321 139.5176 C 10.1526 139.6395 10.1417 139.6332 9.196 138.3479 Z M 12.9798 137.4896 C 13.1791 137.4213 13.6661 137.2293 14.0638 137.0645 C 15.1079 136.6294 18.2363 135.4279 21.2883 134.2883 C 22.7456 133.744 24.6962 132.9676 25.6237 132.5616 C 26.5503 132.1566 27.689 131.7406 28.1523 131.6387 C 28.9578 131.4612 33.5982 129.5934 36.2879 128.3646 C 36.9869 128.0451 37.6123 127.783 37.6778 127.783 C 37.7424 127.783 38.5179 127.2896 39.3772 126.3466 C 40.1563 124.7874 40.5823 125.0268 40.8499 120.077 C 40.9755 117.7587 41.0575 115.8326 41.032 115.7971 C 40.9409 115.667 32.5241 115.6251 32.3958 115.7534 C 32.3229 115.8262 32.2155 116.2686 32.1573 116.7374 C 31.9234 118.6225 30.9257 120.8853 30.0219 121.5789 C 27.9511 123.169 20.145 127.2013 19.6854 126.9173 C 19.527 126.819 19.4733 126.8509 19.5598 126.9911 C 19.6462 127.1303 18.4411 127.864 16.7672 128.6904 C 13.2155 130.4445 12.8705 130.53 12.1688 129.8273 C 11.7409 129.3995 8.6644 127.4835 6.5891 126.353 L 5.1354 125.5611 L 4.5056 126.1218 L 3.8757 126.6834 L 4.8442 128.6176 C 6.5763 132.0783 10.0215 137.7335 10.6705 138.1823 C 10.8007 138.2724 11.2922 138.1814 11.7628 137.9802 C 12.2334 137.7781 12.7813 137.5579 12.9798 137.4896 Z M 22.8402 123.9099 L 29.1763 120.7251 L 29.7625 119.3779 C 30.0856 118.6361 30.4506 117.8415 30.5753 117.6112 C 30.7 117.3818 30.801 116.9185 30.801 116.5836 C 30.801 116.0392 30.73 115.991 30.1393 116.1348 C 28.3817 116.5644 23.9871 118.5824 23.1506 119.3452 C 22.9212 119.5545 21.6651 120.2609 20.3599 120.9144 C 18.0506 122.0704 17.9669 122.0922 17.3143 121.7172 C 16.6589 121.3413 16.5724 121.3659 13.7298 122.7512 C 12.1269 123.5322 10.6405 124.1712 10.4266 124.1712 C 9.8167 124.1712 4.5374 122.4809 3.4907 121.9502 L 2.5504 121.4742 L 3.2231 122.642 C 4.0059 124.0019 4.5338 124.6527 4.8533 124.6527 C 5.1682 124.6527 9.4244 126.8181 11.132 127.8476 L 12.5356 128.6941 L 14.5199 127.894 C 15.6112 127.4535 19.355 125.6603 22.8402 123.9099 Z M 21.6242 118.5342 C 25.529 116.2905 28.4936 114.9806 30.6809 114.5319 C 32.9992 114.0559 38.9794 114.2024 45.0442 114.8833 C 48.0434 115.22 50.6712 115.5632 50.8842 115.6451 C 51.5551 115.9018 51.3211 115.5195 49.4989 113.3732 C 45.7069 108.9104 44.6192 106.8951 43.6498 102.5443 C 43.2511 100.7557 43.1537 100.5591 42.7223 100.6783 C 42.4574 100.7511 41.5007 100.9368 40.5969 101.0897 C 39.1014 101.3437 38.9658 101.4138 39.0941 101.8725 C 39.4728 103.2297 39.7513 105.9712 39.6075 106.9279 C 39.318 108.8585 38.0155 109.8961 35.1838 110.4532 C 32.5614 110.9693 30.5853 110.4832 28.9142 108.9113 C 27.8246 107.8854 27.4296 107.0553 27.4296 105.7856 C 27.4296 104.8972 27.6125 104.4676 28.5127 103.2451 C 29.21 102.2985 29.4721 101.7733 29.2473 101.7733 C 28.0849 101.7733 26.3 101.1625 25.6947 100.5572 C 24.5423 99.4049 24.7435 98.674 27.516 93.9463 C 29.1362 91.1847 29.3438 90.2844 29.6068 84.8604 C 29.8517 79.836 30.1339 78.5225 31.1315 77.7752 C 31.5738 77.443 31.5811 77.412 31.1852 77.5477 C 29.8326 78.0101 26.4256 78.8948 25.9978 78.8948 C 25.681 78.8948 25.5035 78.7382 25.5035 78.4579 C 25.5035 78.2185 25.1877 77.7197 24.8027 77.3501 L 24.1018 76.6793 L 23.573 77.8471 C 22.5999 79.9925 19.7892 87.4018 18.5613 91.0563 C 15.9762 98.7513 15.4092 102.4714 15.8606 108.7511 C 16.3194 115.1208 17.2842 120.5585 17.9569 120.5585 C 18.0361 120.5585 19.6863 119.6474 21.6242 118.5342 Z M 36.6829 108.4198 C 38.0155 107.8627 38.2112 107.1636 37.6896 104.8198 C 37.4493 103.7403 37.1972 102.4969 37.1298 102.0564 C 37.006 101.2572 37.0024 101.2554 35.8901 101.3874 C 35.2766 101.4611 33.9322 101.5903 32.9028 101.6759 C 31.1205 101.8243 30.9949 101.8734 30.3068 102.7054 C 29.9099 103.1869 29.3593 104.0443 29.0835 104.6123 C 28.6484 105.5079 28.622 105.74 28.8841 106.3727 C 29.2591 107.2774 30.4643 108.2168 31.8178 108.66 C 33.0429 109.0596 35.4332 108.9422 36.6829 108.4198 Z M 35.8592 100.4289 C 38.9831 100.103 42.7978 98.6485 44.0648 97.2986 C 44.4226 96.9191 44.5964 96.4503 44.5773 95.926 C 44.5445 95.0504 43.2729 91.2365 41.9504 88.0462 C 41.1403 86.0929 41.1084 85.9081 41.2532 83.9893 C 41.5071 80.616 41.1002 79.8933 37.6004 77.4976 C 35.8664 76.3098 35.841 76.3016 34.8525 76.5938 C 34.3036 76.7558 33.4243 77.2491 32.8991 77.6906 C 31.3627 78.9795 31.1014 79.8742 30.8183 84.8022 C 30.4879 90.573 30.0701 92.053 27.7554 95.6721 C 26.4201 97.7601 25.9186 99.0317 26.2135 99.5842 C 26.4529 100.0302 27.354 100.4262 28.6338 100.6464 C 29.3365 100.7675 33.9386 100.6291 35.8592 100.4289 Z M 31.0586 76.0048 C 33.397 75.0773 35.5415 74.3191 35.8246 74.3191 C 36.4472 74.3191 36.4453 74.391 35.8592 72.1519 C 35.1765 69.5468 35.2338 68.2133 36.0949 66.6505 C 36.6456 65.6529 36.712 65.4035 36.3916 65.5418 C 33.4862 66.8006 29.5386 67.8128 27.5006 67.8219 C 26.3664 67.8274 26.3555 67.8347 26.8652 68.2434 C 27.6553 68.876 28.6338 70.4625 28.6338 71.1087 C 28.6338 72.0308 28.0212 73.2469 26.9945 74.3646 C 26.0442 75.3995 26.0424 75.4068 26.3082 76.5464 C 26.4556 77.1763 26.6286 77.6906 26.6923 77.6906 C 26.756 77.6906 28.7212 76.9324 31.0586 76.0048 Z M 63.915 75.1802 C 66.9151 74.3819 69.9098 73.2068 70.7517 72.4996 C 71.1285 72.1819 71.6847 71.3499 71.986 70.6518 C 72.5703 69.2983 72.8835 66.4748 72.5103 65.9287 C 72.3883 65.7512 71.5099 65.4572 70.5578 65.276 C 68.5927 64.901 66.4382 63.725 65.2603 62.3842 C 64.0488 61.0043 64.1708 60.4973 67.1636 54.5117 C 70.1683 48.5042 71.093 45.9046 71.5145 42.2883 C 71.9132 38.864 71.6765 32.7837 71.0257 29.7063 C 69.8551 24.1757 67.3766 19.286 63.2997 14.4637 C 58.4009 8.671 50.5047 4.1171 42.3609 2.3877 C 39.5929 1.8006 33.7793 1.8115 30.4397 2.4105 C 23.2817 3.6948 16.556 6.4091 10.341 10.5215 C 3.6682 14.9361 1.8159 18.1228 1.814 25.1897 C 1.8131 28.7742 2.1954 30.8623 3.2249 32.893 C 4.3308 35.0757 5.5933 35.2768 10.0552 33.9807 C 14.3324 32.7373 16.1519 32.5152 18.0597 33.0022 C 20.1651 33.5392 22.9331 35.1676 27.0901 38.3152 C 33.1558 42.9073 33.9386 43.4006 35.8592 43.8375 C 36.8103 44.0541 38.6353 44.2944 39.9151 44.3718 C 41.194 44.4483 42.5311 44.6494 42.8852 44.8178 C 43.5142 45.1164 43.5606 45.0818 44.8121 43.4106 C 46.9703 40.527 48.4075 40.0027 50.9307 41.1769 C 53.9198 42.5696 54.9575 44.8888 54.0181 48.0846 C 53.4556 49.9997 52.9104 50.7461 51.2201 51.9076 C 50.1588 52.6376 48.9873 53.8418 47.298 55.9389 C 44.5873 59.3049 41.1894 62.7192 39.2534 64.0236 C 38.1984 64.7335 37.8644 65.134 37.4566 66.1753 C 36.7239 68.0486 36.8149 69.8863 37.7606 72.302 C 38.6645 74.6104 38.3605 74.4875 43.7226 74.7223 C 47.0012 74.8671 48.474 74.7333 51.0872 74.0542 L 51.9865 73.8212 L 51.0171 72.3994 C 49.8029 70.6218 48.9719 68.5983 48.616 66.5558 C 48.3866 65.2378 48.4057 64.7244 48.7325 63.4501 C 49.3605 60.9989 51.8209 56.7381 52.6091 56.7381 C 53.1562 56.7381 53.036 57.0831 51.8573 58.9063 C 50.4 61.1582 49.5671 63.0906 49.4142 64.5706 C 49.051 68.0895 52.1249 73.6292 55.3562 75.2776 C 57.3987 76.3198 59.7344 76.2934 63.915 75.1802 Z M 26.3774 72.6379 C 27.152 71.4992 27.0964 70.579 26.1653 69.0999 C 25.4599 67.9803 25.276 67.8419 24.2993 67.6936 C 23.7031 67.6026 22.701 67.3322 22.072 67.0937 C 21.4421 66.8544 20.9269 66.7287 20.9269 66.8134 C 20.9269 66.899 21.1581 67.9994 21.4412 69.2592 C 21.9846 71.6831 21.9828 71.6922 20.9788 73.661 C 20.9269 73.763 21.4958 73.7748 22.244 73.6865 C 23.4983 73.539 23.6139 73.5673 23.7386 74.0433 L 23.8733 74.5594 L 24.84 74.0178 C 25.3716 73.7202 26.0633 73.0985 26.3774 72.6379 Z M 32.9692 65.6438 C 35.2439 64.9729 37.4266 63.9926 38.8957 62.9823 C 40.6169 61.7981 43.4905 58.7852 46.4778 55.0351 C 48.2373 52.8251 49.5052 51.4661 50.1697 51.0774 C 51.7062 50.1763 52.2077 49.5109 52.4871 47.9991 C 52.8048 46.2815 52.4917 45.0062 51.4668 43.8384 C 50.5766 42.8244 49.569 42.2628 48.5905 42.2346 C 47.6875 42.2091 46.4414 43.3788 44.6046 45.9729 C 43.2784 47.8461 42.7914 48.1374 42.6458 47.1462 C 42.603 46.8585 42.5275 46.6237 42.4774 46.6237 C 42.4264 46.6237 41.2313 46.4007 39.8205 46.1285 C 35.5115 45.2966 33.7028 44.5011 29.4284 41.5583 C 21.1782 35.8767 19.1374 34.8181 16.0745 34.6342 C 13.7935 34.4968 10.656 35.1166 10.4803 35.7401 C 10.4175 35.9641 10.2982 36.7978 10.2154 37.5925 C 10.0907 38.7849 10.1927 39.4794 10.798 41.5665 C 11.8083 45.0472 11.7719 45.7253 10.4157 48.6262 C 9.7876 49.9697 9.2861 51.4033 9.2715 51.893 C 9.2469 52.755 9.2633 52.7695 10.6924 53.1992 C 13.089 53.9201 13.1837 54.0102 15.3154 57.581 C 18.0497 62.1612 17.8358 61.9947 19.6089 60.9379 C 20.3999 60.4664 21.3793 59.6263 21.7844 59.0719 C 22.1894 58.5167 22.8175 57.6565 23.1816 57.1596 C 23.856 56.2375 24.4586 56.0309 24.9729 56.5461 C 25.5409 57.1131 25.2396 57.7412 23.6367 59.3377 C 22.5763 60.3936 21.4476 61.2328 20.389 61.7507 C 18.767 62.5453 18.767 62.5453 19.152 63.1334 C 19.75 64.0454 21.6251 65.3106 23.2161 65.874 C 24.4896 66.3255 25.0439 66.3738 27.9111 66.2809 C 30.3195 66.2035 31.6312 66.0388 32.9692 65.6438 Z M 19.8247 43.761 C 18.9135 43.2058 18.4065 42.068 18.6122 41.0386 C 18.9399 39.402 20.3171 38.8968 21.5532 39.96 C 22.0793 40.4123 22.2267 40.781 22.3168 41.8587 C 22.4106 42.9892 22.3487 43.2759 21.9182 43.7064 C 21.291 44.3336 20.784 44.3463 19.8247 43.761 Z "/>
      </g>
    </g>
  </g>
</svg>