<svg xmlns="http://www.w3.org/2000/svg" xmlns:xlink="http://www.w3.org/1999/xlink" version="1.1" width="57.475079252754135" height="108.64437551740258" viewBox="0.14805641053394317 0.033331297618904104 57.475079252754135 108.64437551740258">
  <!-- Exported by Scratch - http://scratch.mit.edu/ -->
  <g id="ID0.3104691249318421">
    <g id="layer1">
      <g id="g21">
        <path id="path39" fill="#f5dcbd" stroke-width="0.18856497052757265" d="M 31.2523 108.5726 C 29.4948 108.4635 24.7248 107.5898 23.804 107.2078 C 23.5966 107.1222 23.3001 107.0574 23.144 107.0645 C 22.6858 107.0859 20.4408 105.9827 20.0545 105.5465 C 19.535 104.9592 19.5314 104.3064 20.036 102.405 C 20.6945 99.9262 21.4671 96.8581 21.651 95.9915 C 21.7393 95.576 21.8512 95.0508 21.899 94.8234 C 22.0116 94.2932 22.7763 91.5664 22.9103 91.2172 C 22.9958 90.9949 22.7777 90.9713 21.6175 91.0754 C 20.8499 91.1445 19.6034 91.2935 18.8472 91.4075 C 17.1361 91.6648 16.5446 91.4674 16.5446 90.6378 C 16.5446 90.0627 17.0406 89.3585 19.0853 87.0345 C 21.3153 84.5001 21.7992 83.5095 22.4962 80.0573 L 22.9338 77.8893 L 22.2788 77.2151 C 20.9368 75.8339 21.0252 75.0492 22.9587 71.1907 C 24.4639 68.186 24.6891 67.3458 24.5352 65.3111 C 24.3513 62.878 24.6015 62.1795 26.2642 60.4798 L 27.6154 59.0986 L 26.7189 59.2219 C 26.2257 59.2903 24.6891 59.3509 23.3044 59.358 C 21.1549 59.3687 20.4935 59.2953 18.7788 58.857 L 16.7705 58.3438 L 15.762 59.0052 C 13.5898 60.4299 11.957 60.5332 7.9488 59.4998 C 5.1059 58.7665 2.9607 57.9041 2.0571 57.1301 C 0.306 55.6314 -0.4031 51.4308 0.9481 50.5599 C 1.1776 50.4124 1.9167 50.1957 2.5909 50.0781 C 3.5031 49.9192 4.1438 49.6491 5.096 49.0212 C 7.1193 47.6877 7.1357 47.8902 4.5942 42.8158 C 1.3152 36.2662 0.9859 35.0155 0.9959 29.1451 C 1.0009 26.2729 1.0878 24.8262 1.3344 23.5163 C 2.9558 14.8999 8.7321 7.473 17.0156 3.3537 C 22.3758 0.6889 27.2591 -0.2818 32.4781 0.282 C 36.9552 0.7652 40.1245 1.7294 44.9237 4.0706 C 50.4185 6.7503 54.5999 10.0066 56.0224 12.7148 C 57.8718 16.2333 58.045 22.3589 56.3944 25.8831 C 55.5349 27.7204 54.2008 28.3939 52.0221 28.0931 L 50.7514 27.9171 L 50.8291 29.542 C 50.8875 30.7543 50.8055 31.5989 50.5083 32.8667 C 50.2888 33.8011 50.1092 34.8017 50.1092 35.091 C 50.1092 35.3797 50.4592 36.3753 50.8868 37.3039 C 51.9095 39.5246 52.0905 41.1346 51.3949 41.8302 C 51.1412 42.0839 50.4299 42.4716 49.8142 42.6925 C 47.8771 43.3881 47.8279 43.4351 46.5708 45.8241 C 45.3592 48.1268 44.3415 49.6348 43.1613 50.877 C 42.7921 51.2661 42.5398 51.584 42.6004 51.584 C 42.6617 51.584 42.594 52.1991 42.4507 52.9509 C 42.1186 54.6913 42.1271 56.2607 42.4721 56.8643 C 42.8234 57.4786 42.8263 58.2669 42.4778 58.5562 C 42.3253 58.6824 41.79 58.7829 41.2876 58.7786 L 40.3739 58.7715 L 41.485 61.5417 C 42.9952 65.3089 44.9002 71.0632 45.7896 74.5453 C 46.9528 79.0973 47.1131 82.5517 46.4311 88.3544 C 45.8117 93.6247 45.2965 95.1805 44.1312 95.2945 C 43.539 95.3529 42.0937 94.7379 40.989 93.9589 C 40.4716 93.594 40.453 93.5926 40.56 93.9361 C 40.6212 94.1328 40.7574 95.5874 40.8621 97.1682 C 41.1422 101.393 41.1615 101.4735 41.9753 101.8427 C 43.7321 102.6402 46.5038 104.0755 47.1723 104.5345 C 47.9619 105.0754 48.3304 105.9035 48.031 106.463 C 47.8008 106.8928 45.4547 107.5099 43.0373 107.7758 C 40.1559 108.0936 36.0736 108.0437 35.5262 107.6853 C 34.8891 107.2676 34.5634 106.0033 33.8728 101.2711 C 33.004 95.3166 32.2557 90.8031 32.1139 90.6613 C 32.064 90.6114 31.8794 90.6257 31.7048 90.6927 C 31.5302 90.7597 31.4369 90.8644 31.4974 90.925 C 31.5587 90.9863 31.4304 91.5116 31.2131 92.0938 C 30.995 92.6754 30.8275 93.433 30.841 93.7772 C 30.8539 94.1221 30.7947 94.3609 30.7092 94.3081 C 30.5745 94.2248 30.1711 95.2332 29.9987 96.0856 C 29.9666 96.2409 29.601 97.5523 29.1848 98.999 L 28.4293 101.6296 L 28.8505 102.1092 C 29.0828 102.3736 29.3408 102.6195 29.4242 102.6565 C 29.6452 102.7542 32.2001 105.3213 32.8081 106.0568 C 33.0931 106.4017 33.3362 106.7809 33.3483 106.8999 C 33.3597 107.0189 33.3967 107.3482 33.4309 107.6311 C 33.4644 107.914 33.4096 108.1963 33.3091 108.259 C 32.9306 108.4927 32.0726 108.6232 31.2523 108.5726 Z "/>
        <path id="path37" fill="#fa9898" stroke-width="0.18856497052757265" d="M 30.2153 108.3994 C 26.9997 107.9746 22.9801 107.0453 21.5711 106.4003 C 19.6312 105.5123 19.4609 105.054 20.1201 102.5097 C 20.3232 101.7244 21.0053 98.9613 21.6353 96.3685 C 22.2653 93.7758 22.8297 91.4937 22.8889 91.2978 C 22.9915 90.9614 22.9103 90.9492 21.4208 91.0725 C 20.5541 91.1452 19.3041 91.2871 18.6434 91.389 C 17.6506 91.5422 17.3649 91.523 16.9935 91.2799 C 16.1198 90.7069 16.3357 90.2494 18.8366 87.3701 C 21.4678 84.3412 21.812 83.6506 22.5653 79.8926 L 22.9573 77.9363 L 22.3009 77.2101 C 21.0274 75.8004 21.1257 75.0093 23.0792 70.962 L 24.5587 67.8953 L 24.5587 65.3495 C 24.5594 62.9214 24.5829 62.7632 25.0711 61.9329 C 25.3519 61.454 26.0432 60.6408 26.607 60.1256 L 27.6318 59.1891 L 24.2964 59.2767 C 21.1635 59.3587 20.8413 59.3338 18.9812 58.8684 C 16.6194 58.2768 16.5061 58.2711 16.092 58.728 C 15.9153 58.924 15.2446 59.3209 14.6018 59.6103 C 13.1379 60.2688 11.389 60.2995 8.9074 59.7101 C 5.0211 58.7871 2.3685 57.6661 1.5582 56.6042 C 0.8006 55.6107 0.3281 54.0435 0.3281 52.5226 C 0.3281 51.3353 0.3808 51.14 0.8091 50.743 C 1.1249 50.4501 1.6273 50.2541 2.2709 50.1729 C 4.0661 49.9448 6.7394 48.2579 6.7394 47.3521 C 6.7394 47.1703 5.7231 44.9717 4.4809 42.4673 C 1.9972 37.4578 1.4007 35.7424 1.0899 32.7121 C 0.3288 25.2994 1.7763 19.0442 5.5706 13.3384 C 9.7819 7.0076 16.8553 2.316 24.7112 0.6419 C 27.351 0.0796 31.7291 0.0803 34.8684 0.6426 C 43.3387 2.1613 53.8223 8.2391 56.1215 12.9635 C 57.0216 14.8129 57.3052 16.1556 57.4114 19.062 C 57.5247 22.1622 57.2254 24.0344 56.3217 25.8852 C 55.6732 27.2123 55.1123 27.7325 54.0076 28.0297 C 53.3156 28.2164 51.5888 28.1352 50.9395 27.8865 C 50.7485 27.8131 50.7193 28.1487 50.8005 29.4594 C 50.8832 30.7885 50.8241 31.4356 50.5069 32.665 C 49.9311 34.8936 49.9802 35.525 50.8825 37.4828 C 51.3956 38.5967 51.6893 39.5332 51.7555 40.2673 C 51.8482 41.2843 51.8154 41.4111 51.3593 41.8337 C 51.0856 42.0875 50.234 42.5236 49.4664 42.8037 C 48.6988 43.0838 47.9484 43.4551 47.8001 43.6297 C 47.6512 43.8043 47.0825 44.7957 46.5365 45.8326 C 45.4711 47.8552 44.273 49.6384 43.2539 50.7195 C 42.6638 51.3445 42.5982 51.5462 42.301 53.6444 C 41.986 55.8665 41.9868 55.9086 42.368 56.6562 C 43.1042 58.0987 42.745 58.7494 41.2128 58.7494 C 40.5215 58.7494 40.2927 58.8135 40.3704 58.9853 C 42.5334 63.731 45.7433 73.5369 46.4353 77.5115 C 46.9748 80.6153 46.8102 86.2534 46.0405 90.9941 C 45.2929 95.6002 44.7277 96.0849 41.9497 94.5013 L 40.4937 93.6717 L 40.582 94.3602 C 40.6305 94.7386 40.7182 95.7699 40.7766 96.6515 C 41.0375 100.6054 41.0945 101.2725 41.1871 101.4222 C 41.2413 101.5098 42.3509 102.0893 43.653 102.7086 C 44.9544 103.3286 46.4774 104.1397 47.0368 104.511 C 47.9883 105.1424 48.051 105.2308 47.9975 105.8672 C 47.927 106.7132 47.5942 106.8906 45.1147 107.408 C 42.8192 107.8877 36.3359 108.0316 35.5597 107.6204 C 34.9026 107.2719 34.8185 106.8999 33.6148 99.0083 C 33.2514 96.6229 32.8672 94.2048 32.761 93.6339 C 32.6555 93.0638 32.5045 92.1729 32.4253 91.6541 C 32.3106 90.9079 32.2073 90.7112 31.9258 90.7112 C 31.7312 90.7112 31.5509 90.8388 31.5259 90.9941 C 31.501 91.1495 31.2972 91.7396 31.072 92.3048 C 30.8467 92.8699 30.7014 93.4814 30.7491 93.6632 C 30.7969 93.8449 30.7577 94.0188 30.6629 94.0509 C 30.5688 94.0822 30.0343 95.6772 29.4755 97.5951 C 28.9168 99.5129 28.4079 101.2112 28.3438 101.3694 C 28.2647 101.5647 28.713 102.1021 29.7592 103.0663 C 32.1524 105.2707 33.3269 106.7296 33.3269 107.4978 C 33.3269 107.9404 33.2129 108.2013 32.962 108.3352 C 32.6092 108.5248 31.3784 108.5533 30.2153 108.3994 Z M 33.1979 84.7318 C 33.6177 84.6056 34.2961 84.1837 34.7067 83.7939 C 35.3687 83.1631 35.44 83.0113 35.3445 82.4248 C 35.2362 81.7535 34.4102 80.3993 33.773 79.8463 C 33.5172 79.6247 32.8537 79.5085 31.3449 79.4215 L 29.2689 79.3018 L 28.8462 80.7749 C 28.3281 82.5823 28.2946 83.8431 28.7543 84.255 C 29.4869 84.9128 31.7747 85.158 33.1979 84.7318 Z M 37.3208 59.6338 C 37.5795 58.8477 37.5738 58.8092 37.1362 58.4792 C 36.2881 57.84 35.5897 56.4973 35.5897 55.5073 C 35.5897 54.7362 35.688 54.4932 36.2546 53.866 L 36.9203 53.1298 L 35.9246 53.0065 C 34.1593 52.7877 32.8886 52.4934 31.315 51.9389 C 30.4676 51.6403 29.7364 51.3959 29.6908 51.3959 C 29.6444 51.3959 29.8077 51.7921 30.0528 52.276 C 30.5966 53.3508 30.6101 54.1019 30.1212 56.0155 C 29.6772 57.7516 29.673 57.805 29.9794 57.8136 C 30.1091 57.8172 31.7005 58.4066 33.515 59.1242 C 35.3303 59.8419 36.8689 60.4327 36.9345 60.4377 C 37.0001 60.4427 37.174 60.0807 37.3208 59.6338 Z M 38.8224 51.5006 C 39.5116 51.3545 40.4024 51.0666 40.8023 50.8606 C 41.5584 50.4708 43.1328 49.1979 43.1313 48.977 C 43.1313 48.9072 42.5833 48.5672 41.9141 48.2208 C 40.7004 47.5937 38.9721 46.0999 38.3421 45.1349 C 37.9316 44.5063 38.0898 43.8948 38.7027 43.7416 C 39.3099 43.5891 39.394 43.6604 40.5101 45.2746 C 41.2128 46.2916 41.7758 46.8653 42.5369 47.3421 C 43.1171 47.7049 43.6808 48.0013 43.7891 48.0013 C 44.0001 48.0013 45.4946 45.6908 46.6078 43.644 C 47.4766 42.0475 47.6711 41.8872 49.2604 41.4617 L 50.5803 41.1082 L 50.5654 40.3293 C 50.5554 39.8076 50.2753 39.0001 49.7165 37.8833 C 48.6946 35.8386 48.6375 34.7953 49.4151 32.3878 C 49.9197 30.8256 50.0159 29.7102 49.7671 28.3105 C 49.6403 27.5943 49.6018 27.5629 48.5998 27.3348 C 48.0296 27.2059 47.0846 27.0441 46.4995 26.9749 C 44.2289 26.7077 41.7922 27.7988 36.5326 31.4356 C 34.7173 32.6907 32.7233 33.9992 32.1011 34.3434 C 30.8289 35.0461 28.4849 35.7723 26.3027 36.1387 C 25.1559 36.3311 24.8409 36.4522 24.8409 36.701 C 24.8409 36.8756 24.7184 37.1207 24.5673 37.2455 C 24.2359 37.5206 24.0199 37.306 22.2881 34.9798 C 20.8449 33.0406 20.428 32.7662 19.3989 33.0748 C 18.4439 33.3606 17.1774 34.7211 17.0042 35.6476 C 16.8368 36.5378 17.0327 37.9553 17.3998 38.5155 C 17.5573 38.7564 18.141 39.2552 18.6954 39.6237 C 19.3568 40.0627 20.2783 41.0199 21.3716 42.4032 C 25.9684 48.2216 28.1008 49.9363 32.1011 51.0331 C 34.882 51.795 36.802 51.9289 38.8224 51.5006 Z M 40.5813 33.8488 C 40.2036 33.1183 40.3775 31.6765 40.9156 31.0879 C 41.7858 30.1343 43.1399 30.4393 43.4784 31.6651 C 43.7271 32.5674 43.5554 33.2031 42.8862 33.8581 C 42.4479 34.2857 42.1314 34.4247 41.5926 34.4247 C 40.9876 34.4247 40.8336 34.337 40.5813 33.8488 Z "/>
        <path id="path35" fill="#a29e9a" stroke-width="0.18856497052757265" d="M 30.2153 108.3994 C 26.9997 107.9746 22.9801 107.0453 21.5711 106.4003 C 19.6312 105.5123 19.4609 105.054 20.1201 102.5097 C 20.3232 101.7244 21.0053 98.9613 21.6353 96.3685 C 22.2653 93.7758 22.8297 91.4937 22.8889 91.2978 C 22.9915 90.9614 22.9103 90.9492 21.4208 91.0725 C 20.5541 91.1452 19.3041 91.2871 18.6434 91.389 C 17.6506 91.5422 17.3649 91.523 16.9935 91.2799 C 16.1198 90.7069 16.3357 90.2494 18.8366 87.3701 C 21.4678 84.3412 21.812 83.6506 22.5653 79.8926 L 22.9573 77.9363 L 22.3009 77.2101 C 21.0274 75.8004 21.1257 75.0093 23.0792 70.962 L 24.5587 67.8953 L 24.5587 65.3495 C 24.5594 62.9214 24.5829 62.7632 25.0711 61.9329 C 25.3519 61.454 26.0432 60.6408 26.607 60.1256 L 27.6318 59.1891 L 24.2964 59.2767 C 21.1635 59.3587 20.8413 59.3338 18.9812 58.8684 C 16.6194 58.2768 16.5061 58.2711 16.092 58.728 C 15.9153 58.924 15.2446 59.3209 14.6018 59.6103 C 13.1379 60.2688 11.389 60.2995 8.9074 59.7101 C 5.0211 58.7871 2.3685 57.6661 1.5582 56.6042 C 0.8006 55.6107 0.3281 54.0435 0.3281 52.5226 C 0.3281 51.3353 0.3808 51.14 0.8091 50.743 C 1.1249 50.4501 1.6273 50.2541 2.2709 50.1729 C 4.0661 49.9448 6.7394 48.2579 6.7394 47.3521 C 6.7394 47.1703 5.7231 44.9717 4.4809 42.4673 C 1.9972 37.4578 1.4007 35.7424 1.0899 32.7121 C 0.3288 25.2994 1.7763 19.0442 5.5706 13.3384 C 9.7819 7.0076 16.8553 2.316 24.7112 0.6419 C 27.351 0.0796 31.7291 0.0803 34.8684 0.6426 C 43.3387 2.1613 53.8223 8.2391 56.1215 12.9635 C 57.0216 14.8129 57.3052 16.1556 57.4114 19.062 C 57.5247 22.1622 57.2254 24.0344 56.3217 25.8852 C 55.6732 27.2123 55.1123 27.7325 54.0076 28.0297 C 53.3156 28.2164 51.5888 28.1352 50.9395 27.8865 C 50.7485 27.8131 50.7193 28.1487 50.8005 29.4594 C 50.8832 30.7885 50.8241 31.4356 50.5069 32.665 C 49.9311 34.8936 49.9802 35.525 50.8825 37.4828 C 51.3956 38.5967 51.6893 39.5332 51.7555 40.2673 C 51.8482 41.2843 51.8154 41.4111 51.3593 41.8337 C 51.0856 42.0875 50.234 42.5236 49.4664 42.8037 C 48.6988 43.0838 47.9484 43.4551 47.8001 43.6297 C 47.6512 43.8043 47.0825 44.7957 46.5365 45.8326 C 45.4711 47.8552 44.273 49.6384 43.2539 50.7195 C 42.6638 51.3445 42.5982 51.5462 42.301 53.6444 C 41.986 55.8665 41.9868 55.9086 42.368 56.6562 C 43.1042 58.0987 42.745 58.7494 41.2128 58.7494 C 40.5215 58.7494 40.2927 58.8135 40.3704 58.9853 C 42.5334 63.731 45.7433 73.5369 46.4353 77.5115 C 46.9748 80.6153 46.8102 86.2534 46.0405 90.9941 C 45.2929 95.6002 44.7277 96.0849 41.9497 94.5013 L 40.4937 93.6717 L 40.582 94.3602 C 40.6305 94.7386 40.7182 95.7699 40.7766 96.6515 C 41.0375 100.6054 41.0945 101.2725 41.1871 101.4222 C 41.2413 101.5098 42.3509 102.0893 43.653 102.7086 C 44.9544 103.3286 46.4774 104.1397 47.0368 104.511 C 47.9883 105.1424 48.051 105.2308 47.9975 105.8672 C 47.927 106.7132 47.5942 106.8906 45.1147 107.408 C 42.8192 107.8877 36.3359 108.0316 35.5597 107.6204 C 34.9026 107.2719 34.8185 106.8999 33.6148 99.0083 C 33.2514 96.6229 32.8672 94.2048 32.761 93.6339 C 32.6555 93.0638 32.5045 92.1729 32.4253 91.6541 C 32.3106 90.9079 32.2073 90.7112 31.9258 90.7112 C 31.7312 90.7112 31.5509 90.8388 31.5259 90.9941 C 31.501 91.1495 31.2972 91.7396 31.072 92.3048 C 30.8467 92.8699 30.7014 93.4814 30.7491 93.6632 C 30.7969 93.8449 30.7577 94.0188 30.6629 94.0509 C 30.5688 94.0822 30.0343 95.6772 29.4755 97.5951 C 28.9168 99.5129 28.4079 101.2112 28.3438 101.3694 C 28.2647 101.5647 28.713 102.1021 29.7592 103.0663 C 32.1524 105.2707 33.3269 106.7296 33.3269 107.4978 C 33.3269 107.9404 33.2129 108.2013 32.962 108.3352 C 32.6092 108.5248 31.3784 108.5533 30.2153 108.3994 Z M 31.5993 107.0011 C 31.8203 106.6469 31.7889 106.54 31.3143 106.0411 C 30.3792 105.0562 27.1572 102.308 26.9384 102.308 C 26.8222 102.308 26.7267 102.1527 26.7267 101.9631 C 26.7267 101.616 28.301 96.866 29.7243 92.9198 C 30.2752 91.3933 30.4263 90.7675 30.2595 90.7055 C 29.9188 90.5801 25.4717 90.4682 24.9293 90.5722 C 24.3542 90.682 24.5103 90.1403 22.3836 99.3853 C 21.9546 101.2518 21.482 103.1462 21.3338 103.5952 C 21.1863 104.0434 21.1143 104.4903 21.1749 104.5886 C 21.3431 104.8602 22.9252 105.6021 24.0869 105.9542 C 25.3804 106.3454 30.2395 107.3717 30.8774 107.3874 C 31.1639 107.3945 31.4483 107.242 31.5993 107.0011 Z M 44.9088 106.3939 C 45.9536 106.1658 46.2679 105.9157 46.3242 105.2678 C 46.3384 105.1103 43.3836 103.6764 42.135 103.2345 C 41.7416 103.0949 41.1394 102.7235 40.7959 102.4092 C 40.178 101.8434 40.1687 101.8085 39.9563 99.3853 C 39.724 96.7306 39.5622 94.2796 39.5544 93.3004 C 39.5494 92.7224 39.4653 92.6447 38.1824 92.0368 C 36.7884 91.3761 34.9126 90.806 34.1358 90.806 C 33.746 90.806 33.7039 90.8929 33.7075 91.7011 C 33.7096 92.1943 33.9206 93.785 34.1771 95.2368 C 34.8556 99.0767 35.4051 102.3166 35.7593 104.5708 L 36.0707 106.5507 L 36.8205 106.679 C 37.948 106.8721 43.6359 106.6718 44.9088 106.3939 Z M 33.1979 84.7318 C 33.6177 84.6056 34.2961 84.1837 34.7067 83.7939 C 35.3687 83.1631 35.44 83.0113 35.3452 82.4248 C 35.2362 81.7535 34.4102 80.3993 33.773 79.8463 C 33.5172 79.6247 32.8537 79.5085 31.3449 79.4215 L 29.2689 79.3018 L 28.8462 80.7749 C 28.3281 82.5823 28.2946 83.8431 28.7543 84.255 C 29.4869 84.9128 31.7747 85.158 33.1979 84.7318 Z M 37.3208 59.6338 C 37.5795 58.8477 37.5738 58.8092 37.1362 58.4792 C 36.2881 57.84 35.5897 56.4973 35.5897 55.5073 C 35.5897 54.7362 35.688 54.4932 36.2546 53.866 L 36.9203 53.1298 L 35.9246 53.0065 C 34.1593 52.7877 32.8886 52.4934 31.315 51.9389 C 30.4676 51.6403 29.7364 51.3959 29.6908 51.3959 C 29.6444 51.3959 29.8077 51.7921 30.0528 52.276 C 30.5966 53.3508 30.6101 54.1019 30.1212 56.0155 C 29.6772 57.7516 29.673 57.805 29.9794 57.8136 C 30.1091 57.8172 31.7005 58.4066 33.515 59.1242 C 35.3303 59.8419 36.8689 60.4327 36.9345 60.4377 C 37.0001 60.4427 37.174 60.0807 37.3208 59.6338 Z M 38.8224 51.5006 C 39.5116 51.3545 40.4024 51.0666 40.8023 50.8606 C 41.5584 50.4708 43.1328 49.1979 43.1313 48.977 C 43.1313 48.9072 42.5833 48.5672 41.9141 48.2208 C 40.7004 47.5937 38.9721 46.0999 38.3421 45.1349 C 37.9316 44.5063 38.0898 43.8948 38.7027 43.7416 C 39.3099 43.5891 39.394 43.6604 40.5101 45.2746 C 41.2128 46.2916 41.7758 46.8653 42.5369 47.3421 C 43.1171 47.7049 43.6808 48.0013 43.7891 48.0013 C 44.0001 48.0013 45.4946 45.6908 46.6078 43.644 C 47.4766 42.0475 47.6711 41.8872 49.2604 41.4617 L 50.5803 41.1082 L 50.5654 40.3293 C 50.5554 39.8076 50.2753 39.0001 49.7165 37.8833 C 48.6946 35.8386 48.6375 34.7953 49.4151 32.3878 C 49.9197 30.8256 50.0159 29.7102 49.7671 28.3105 C 49.6403 27.5943 49.6018 27.5629 48.5998 27.3348 C 48.0296 27.2059 47.0846 27.0441 46.4995 26.9749 C 44.2289 26.7077 41.7922 27.7988 36.5326 31.4356 C 34.7173 32.6907 32.7233 33.9992 32.1011 34.3434 C 30.8289 35.0461 28.4849 35.7723 26.3027 36.1387 C 25.1559 36.3311 24.8409 36.4522 24.8409 36.701 C 24.8409 36.8756 24.7184 37.1207 24.5673 37.2455 C 24.2359 37.5206 24.0199 37.306 22.2881 34.9798 C 20.8449 33.0406 20.428 32.7662 19.3989 33.0748 C 18.4439 33.3606 17.1774 34.7211 17.0042 35.6476 C 16.8368 36.5378 17.0327 37.9553 17.3998 38.5155 C 17.5573 38.7564 18.141 39.2552 18.6954 39.6237 C 19.3568 40.0627 20.2783 41.0199 21.3716 42.4032 C 25.9684 48.2216 28.1008 49.9363 32.1011 51.0331 C 34.882 51.795 36.802 51.9289 38.8224 51.5006 Z M 40.5813 33.8488 C 40.2036 33.1183 40.3775 31.6765 40.9156 31.0879 C 41.7858 30.1343 43.1399 30.4393 43.4784 31.6651 C 43.7271 32.5674 43.5554 33.2031 42.8862 33.8581 C 42.4479 34.2857 42.1314 34.4247 41.5926 34.4247 C 40.9876 34.4247 40.8336 34.337 40.5813 33.8488 Z "/>
        <path id="path33" fill="#d2d219" stroke-width="0.18856497052757265" d="M 27.9525 107.9404 C 26.8115 107.7373 25.369 107.4422 24.7469 107.2847 C 24.1247 107.1272 23.4818 106.9975 23.3179 106.9961 C 23.154 106.9947 22.39 106.6818 21.6203 106.3012 C 19.5328 105.2671 19.5286 105.2486 20.3973 101.6239 C 20.7922 99.9783 21.2347 98.2065 21.3816 97.6884 C 21.5277 97.1696 21.8526 95.8547 22.1021 94.7657 C 22.3522 93.6767 22.6858 92.3654 22.8433 91.8515 C 23.0015 91.3377 23.1105 90.8979 23.087 90.8737 C 23.0628 90.8495 22.0265 90.95 20.7836 91.0968 C 17.1853 91.5215 16.5446 91.446 16.5446 90.5958 C 16.5446 90.2344 17.5131 88.9402 19.4402 86.7273 C 21.2597 84.6377 21.7365 83.7155 22.3045 81.189 C 22.5725 79.996 22.8554 78.7659 22.9331 78.4544 C 23.0557 77.9612 22.9837 77.8002 22.3651 77.1923 C 21.0487 75.898 21.1457 74.9936 22.9994 71.2962 C 24.516 68.2701 24.6585 67.7264 24.6129 65.1414 C 24.5651 62.4924 24.739 62.037 26.4224 60.3942 L 27.6532 59.1934 L 23.8432 59.1998 C 20.2598 59.2062 19.9334 59.177 18.3669 58.7087 L 16.7013 58.2106 L 15.8782 58.8384 C 14.5747 59.8334 13.3931 60.1405 11.374 60.0101 C 8.6858 59.8355 3.7718 58.3503 2.2146 57.242 C 1.3116 56.5985 0.5013 54.7063 0.3815 52.9616 C 0.2875 51.5869 0.3138 51.4329 0.7293 50.9497 C 1.0828 50.5392 1.4712 50.3703 2.5289 50.1686 C 4.5073 49.7923 6.7394 48.2679 6.7394 47.2943 C 6.7394 47.0499 5.9006 45.2211 4.8757 43.2299 C 1.9445 37.5341 1.2781 35.3939 0.9895 30.7472 C 0.8512 28.5101 1.1028 25.0393 1.5667 22.7915 C 2.9679 16.011 7.4621 9.4813 13.5 5.4539 C 16.8717 3.2054 21.6959 1.2142 25.3127 0.5777 C 28.7935 -0.0345 33.9013 0.2756 37.7926 1.336 C 44.4455 3.1484 52.9714 8.2213 55.3489 11.7812 C 56.7543 13.8857 57.4456 16.4593 57.4549 19.6222 C 57.4692 24.2931 56.1036 27.5266 53.925 27.9805 C 53.3912 28.0917 52.6528 28.1024 52.0891 28.0069 C 50.5483 27.7461 50.6409 27.6484 50.7785 29.3803 C 50.8782 30.6374 50.8255 31.2311 50.5055 32.4762 C 49.9375 34.6812 49.981 35.6904 50.7029 37.1172 C 51.3486 38.3922 51.8004 39.8667 51.804 40.7091 C 51.8069 41.4546 50.9937 42.2001 49.6353 42.6961 C 47.7545 43.3824 47.6704 43.458 46.766 45.2618 C 45.677 47.4362 44.474 49.2984 43.4364 50.4181 C 42.6353 51.2818 42.6111 51.3488 42.2747 53.5168 L 41.9312 55.7326 L 42.3431 56.726 C 42.5697 57.2727 42.755 57.8193 42.755 57.9412 C 42.755 58.3552 41.9212 58.7494 41.0432 58.7494 L 40.1701 58.7494 L 40.6234 59.6958 C 41.8535 62.2665 44.7726 70.7895 45.7611 74.6971 C 46.0776 75.95 46.4332 77.6897 46.5515 78.5628 C 46.9784 81.7264 46.456 89.5581 45.5666 93.3147 C 45.3129 94.3872 44.5824 95.3323 44.0108 95.328 C 43.787 95.3266 42.8969 94.9453 42.0331 94.4813 L 40.4623 93.6382 L 40.5856 95.5689 C 40.9049 100.5591 41.031 101.4371 41.4815 101.7842 C 41.7152 101.9638 41.9782 102.1128 42.0659 102.1149 C 42.4201 102.1242 46.4867 104.2074 47.2335 104.7618 C 49.12 106.1637 47.7096 107.1023 42.966 107.6026 C 40.2906 107.8848 36.1064 107.867 35.6324 107.5705 C 35.1428 107.2655 34.9019 106.5329 34.552 104.2879 C 34.3902 103.2509 34.1329 101.6809 33.9804 100.7993 C 33.8279 99.9177 33.5728 98.3056 33.4138 97.2166 C 33.2549 96.1276 32.9584 94.2889 32.7546 93.1301 C 32.5508 91.9712 32.384 90.9257 32.384 90.8067 C 32.384 90.6877 32.2009 90.6178 31.9764 90.6506 C 31.4867 90.7233 31.3214 91.1645 29.6551 96.8674 C 28.9988 99.1124 28.4065 101.1228 28.3388 101.3359 C 28.2397 101.6481 28.5626 102.0565 30.0179 103.4597 C 32.9356 106.2741 33.9469 107.8748 33.0283 108.2276 C 32.4588 108.4457 30.0158 108.3074 27.9525 107.9404 Z M 31.6129 106.9797 C 31.8623 106.5792 31.7775 106.468 29.8191 104.6243 C 28.6887 103.5595 27.5242 102.5817 27.2306 102.4513 C 26.7773 102.2496 26.711 102.1284 26.788 101.6481 C 26.8386 101.3367 27.6938 98.756 28.6894 95.9131 C 29.6851 93.0695 30.4662 90.7098 30.4248 90.6692 C 30.3842 90.6278 29.1691 90.5459 27.7252 90.486 C 24.697 90.3606 24.3827 90.4518 24.1888 91.5073 C 24.1176 91.8993 23.7655 93.4501 23.407 94.9538 C 23.0485 96.4576 22.6181 98.2821 22.4499 99.0083 C 22.1577 100.2726 21.3224 103.5659 21.1271 104.2266 C 20.9169 104.9371 23.2445 105.8921 27.1985 106.7167 C 28.4429 106.9769 29.6309 107.2263 29.8383 107.2719 C 30.8011 107.4843 31.3542 107.3931 31.6129 106.9797 Z M 43.132 106.6355 C 46.079 106.2656 46.1966 106.2285 46.2586 105.6427 C 46.3113 105.146 46.2044 105.059 44.5824 104.2694 C 43.6302 103.8061 42.5348 103.3322 42.1492 103.2167 C 41.7637 103.1006 41.1607 102.7428 40.8094 102.4214 C 40.2164 101.8776 40.163 101.7301 40.0461 100.3282 C 39.8344 97.7896 39.689 95.6736 39.6384 94.388 C 39.6114 93.7138 39.5807 93.0574 39.5693 92.9298 C 39.5273 92.4402 36.1605 91.074 34.1714 90.7397 L 33.602 90.6435 L 33.7289 92.1858 C 33.8464 93.604 34.6211 98.3241 35.2982 101.7422 C 35.4521 102.5197 35.6759 103.9372 35.7956 104.8908 L 36.0137 106.6255 L 36.7913 106.6968 C 38.3692 106.8407 41.7587 106.8079 43.132 106.6355 Z M 42.1122 90.6663 C 42.5697 90.754 42.7294 90.5516 42.3759 90.3328 C 42.011 90.1076 41.4344 90.4411 41.4572 90.8652 C 41.475 91.2115 41.4929 91.2215 41.5684 90.9286 C 41.634 90.6763 41.7843 90.6036 42.1122 90.6663 Z M 23.144 87.3388 C 23.144 87.2996 22.9744 87.2226 22.767 87.1677 C 22.5596 87.1136 22.437 87.1464 22.4955 87.2404 C 22.5967 87.4043 23.144 87.4877 23.144 87.3388 Z M 42.1892 85.5257 C 42.4172 85.3782 42.3887 85.3425 42.0423 85.3397 C 41.8057 85.3383 41.5627 85.2086 41.5021 85.0518 C 41.3368 84.6213 41.7972 84.1766 42.2633 84.317 C 42.569 84.4089 42.6111 84.384 42.445 84.2094 C 42.1207 83.8666 41.577 84.0526 41.2619 84.6135 C 41.0282 85.0297 41.0232 85.1629 41.2313 85.4131 C 41.5164 85.7566 41.7836 85.788 42.1892 85.5257 Z M 33.4744 84.6676 C 33.86 84.5066 34.4508 84.1082 34.7879 83.7818 C 35.656 82.9422 35.6111 82.2744 34.5869 80.7764 L 33.7723 79.5862 L 32.0882 79.4536 C 31.1618 79.3809 30.0942 79.284 29.715 79.2384 C 29.0451 79.1571 29.023 79.1742 28.9367 79.842 C 28.8883 80.2198 28.7094 81.1448 28.5391 81.8981 C 28.0929 83.8737 28.2868 84.3426 29.7328 84.7809 C 30.5888 85.0411 32.7361 84.9755 33.4744 84.6676 Z M 44.2638 78.4373 C 44.2638 78.1202 43.8091 77.8921 43.5254 78.0674 C 43.4086 78.1394 43.4599 78.3176 43.6573 78.5257 C 44.0143 78.9013 44.2638 78.8649 44.2638 78.4373 Z M 39.5494 75.9087 C 39.5494 75.8054 39.4646 75.7206 39.3612 75.7206 C 39.2572 75.7206 39.1695 75.5296 39.1666 75.2958 C 39.1617 74.9095 39.1431 74.9017 38.9628 75.2117 C 38.821 75.4554 38.8295 75.6286 38.992 75.8246 C 39.2536 76.1389 39.5494 76.1838 39.5494 75.9087 Z M 40.4922 75.1504 C 40.4922 74.9523 40.3226 74.7 40.1152 74.5888 C 39.9021 74.4748 39.7382 74.4634 39.7382 74.5624 C 39.7382 74.6587 39.8715 74.7884 40.034 74.8504 C 40.2378 74.9288 40.2898 75.0891 40.2022 75.3656 C 40.1167 75.6365 40.143 75.7256 40.2834 75.6386 C 40.3982 75.5673 40.4922 75.3478 40.4922 75.1504 Z M 29.5133 75.2381 C 29.9837 74.9088 30.0721 74.2531 29.6665 74.0978 C 29.2653 73.9438 28.2355 74.5496 28.2355 74.9395 C 28.2355 75.5994 28.807 75.7334 29.5133 75.2381 Z M 28.6588 74.9188 C 28.7016 74.7891 28.9382 74.6537 29.184 74.618 C 29.5753 74.561 29.6003 74.591 29.3822 74.8539 C 29.0864 75.2096 28.5469 75.258 28.6588 74.9188 Z M 27.2612 71.8364 C 27.7081 71.5236 27.7651 70.8151 27.3546 70.6804 C 27.2192 70.6355 27.17 70.7446 27.2263 70.9612 C 27.3389 71.391 26.8863 71.8101 26.4794 71.6533 C 26.3162 71.5913 26.1487 71.314 26.1067 71.0375 C 26.0461 70.6427 26.0233 70.6833 26.0012 71.2264 C 25.9634 72.14 26.4751 72.3873 27.2612 71.8364 Z M 41.4031 68.2965 C 41.4366 67.9986 41.3731 67.6629 41.2612 67.551 C 41.1158 67.4056 41.0581 67.5161 41.0581 67.9387 C 41.0581 68.5516 40.5478 68.9165 40.0874 68.6322 C 39.9478 68.5452 39.9192 68.5787 40.0098 68.7248 C 40.0874 68.8503 40.4181 68.9272 40.746 68.8952 C 41.2441 68.8474 41.351 68.7498 41.4031 68.2965 Z M 37.2866 60.0457 C 37.2866 59.8376 37.3735 59.5055 37.4797 59.3074 C 37.6386 59.0095 37.5474 58.8221 36.9545 58.2291 C 35.7336 57.0076 35.2797 55.5579 35.8006 54.5417 C 35.9168 54.315 36.2731 53.8539 36.5924 53.5168 L 37.1718 52.9039 L 36.2047 52.9039 C 34.7138 52.9039 31.9714 52.2297 29.7207 51.3096 C 29.4884 51.2148 29.5497 51.4514 29.9709 52.2803 C 30.5923 53.5026 30.5923 53.9793 29.9716 56.3961 L 29.6352 57.7038 L 32.188 58.6724 C 33.592 59.2048 35.2504 59.8519 35.8726 60.1106 C 37.107 60.623 37.2866 60.6145 37.2866 60.0457 Z M 40.1616 51.2148 C 40.8208 50.9647 41.6568 50.4266 42.2961 49.8429 L 43.3473 48.8822 L 41.9376 48.146 C 40.2699 47.2758 38.2295 45.2981 38.2295 44.5519 C 38.2295 43.9404 38.6913 43.5577 39.1624 43.7787 C 39.3598 43.8713 39.9748 44.5833 40.5286 45.3615 C 41.2548 46.3793 41.8235 46.9473 42.5619 47.3884 C 43.1256 47.7255 43.6851 48.0013 43.8041 48.0013 C 44.0706 48.0013 44.9743 46.6479 46.4282 44.0709 C 47.5785 42.0333 47.6305 41.9877 49.3773 41.508 C 49.9603 41.3477 50.5304 41.104 50.6445 40.9664 C 50.9303 40.6222 50.6366 39.6216 49.6716 37.6503 C 48.7295 35.7253 48.6853 34.8508 49.4172 32.5767 C 49.9161 31.0251 50.0622 29.3325 49.8063 28.0568 C 49.6966 27.5059 49.6353 27.476 48.0054 27.1588 C 44.3757 26.454 42.5469 27.1495 36.0323 31.7115 C 31.8317 34.6534 29.8896 35.5201 26.1487 36.1216 C 24.8801 36.3254 24.7233 36.3959 24.734 36.7551 C 24.7426 37.0224 24.6179 37.177 24.3642 37.2134 C 24.0727 37.2554 23.7776 36.9604 23.1383 35.9897 C 21.9196 34.1403 20.6931 32.9159 20.0581 32.9159 C 19.5036 32.9159 18.5515 33.3378 17.9856 33.8345 C 17.3485 34.394 16.9209 35.4908 16.9323 36.5385 C 16.9494 38.1563 17.2501 38.7364 18.5194 39.6009 C 19.3141 40.1418 20.289 41.1595 21.8298 43.0574 C 26.5963 48.9285 28.7493 50.4601 33.7039 51.5035 C 35.5177 51.8855 38.7811 51.7394 40.1616 51.2148 Z M 40.8044 34.0797 C 40.4424 33.6799 40.3739 31.9809 40.6961 31.3793 C 40.9918 30.8263 42.058 30.4243 42.6403 30.6453 C 43.2511 30.8776 43.509 31.3865 43.509 32.3571 C 43.509 33.8517 41.6625 35.0283 40.8044 34.0797 Z "/>
        <path id="path31" fill="#ac5f57" stroke-width="0.18856497052757265" d="M 27.9525 107.9404 C 26.8115 107.7373 25.369 107.4422 24.7469 107.2847 C 24.1247 107.1272 23.4818 106.9975 23.3179 106.9961 C 23.154 106.9947 22.39 106.6818 21.6203 106.3012 C 19.5328 105.2671 19.5286 105.2486 20.3973 101.6239 C 20.7922 99.9783 21.2347 98.2065 21.3816 97.6884 C 21.5277 97.1696 21.8526 95.8547 22.1021 94.7657 C 22.3522 93.6767 22.6858 92.3654 22.8433 91.8515 C 23.0015 91.3377 23.1105 90.8979 23.087 90.8737 C 23.0628 90.8495 22.0265 90.95 20.7836 91.0968 C 17.1853 91.5215 16.5446 91.446 16.5446 90.5958 C 16.5446 90.2344 17.5131 88.9402 19.4402 86.7273 C 21.2597 84.6377 21.7365 83.7155 22.3045 81.189 C 22.5725 79.996 22.8554 78.7659 22.9331 78.4544 C 23.0557 77.9612 22.9837 77.8002 22.3651 77.1923 C 21.0487 75.898 21.1457 74.9936 22.9994 71.2962 C 24.516 68.2701 24.6585 67.7264 24.6129 65.1414 C 24.5651 62.4924 24.739 62.037 26.4224 60.3942 L 27.6532 59.1934 L 23.8432 59.1998 C 20.2598 59.2062 19.9334 59.177 18.3669 58.7087 L 16.7013 58.2106 L 15.8782 58.8384 C 14.5747 59.8334 13.3931 60.1405 11.374 60.0101 C 8.6858 59.8355 3.7718 58.3503 2.2146 57.242 C 1.3116 56.5985 0.5013 54.7063 0.3815 52.9616 C 0.2875 51.5869 0.3138 51.4329 0.7293 50.9497 C 1.0828 50.5392 1.4712 50.3703 2.5289 50.1686 C 4.5073 49.7923 6.7394 48.2679 6.7394 47.2943 C 6.7394 47.0499 5.9006 45.2211 4.8757 43.2299 C 1.9445 37.5341 1.2781 35.3939 0.9895 30.7472 C 0.8512 28.5101 1.1028 25.0393 1.5667 22.7915 C 2.9679 16.011 7.4621 9.4813 13.5 5.4539 C 16.8717 3.2054 21.6959 1.2142 25.3127 0.5777 C 28.7935 -0.0345 33.9013 0.2756 37.7926 1.336 C 44.4455 3.1484 52.9714 8.2213 55.3489 11.7812 C 56.7543 13.8857 57.4456 16.4593 57.4549 19.6222 C 57.4692 24.2931 56.1036 27.5266 53.925 27.9805 C 53.3912 28.0917 52.6528 28.1024 52.0891 28.0069 C 50.5483 27.7461 50.6409 27.6484 50.7785 29.3803 C 50.8782 30.6374 50.8255 31.2311 50.5055 32.4762 C 49.9375 34.6812 49.981 35.6904 50.7029 37.1172 C 51.3486 38.3922 51.8004 39.8667 51.804 40.7091 C 51.8069 41.4546 50.9937 42.2001 49.6353 42.6961 C 47.7545 43.3824 47.6704 43.458 46.766 45.2618 C 45.677 47.4362 44.474 49.2984 43.4364 50.4181 C 42.6353 51.2818 42.6111 51.3488 42.2747 53.5168 L 41.9312 55.7326 L 42.3431 56.726 C 42.5697 57.2727 42.755 57.8193 42.755 57.9412 C 42.755 58.3552 41.9212 58.7494 41.0432 58.7494 L 40.1701 58.7494 L 40.6234 59.6958 C 41.8535 62.2665 44.7726 70.7895 45.7611 74.6971 C 46.0776 75.95 46.4332 77.6897 46.5515 78.5628 C 46.9784 81.7264 46.456 89.5581 45.5666 93.3147 C 45.3129 94.3872 44.5824 95.3323 44.0108 95.328 C 43.787 95.3266 42.8969 94.9453 42.0331 94.4813 L 40.4623 93.6382 L 40.5856 95.5689 C 40.9049 100.5591 41.031 101.4371 41.4815 101.7842 C 41.7152 101.9638 41.9782 102.1128 42.0659 102.1149 C 42.4201 102.1242 46.4867 104.2074 47.2335 104.7618 C 49.12 106.1637 47.7096 107.1023 42.966 107.6026 C 40.2906 107.8848 36.1064 107.867 35.6324 107.5705 C 35.1428 107.2655 34.9019 106.5329 34.552 104.2879 C 34.3902 103.2509 34.1329 101.6809 33.9804 100.7993 C 33.8279 99.9177 33.5728 98.3056 33.4138 97.2166 C 33.2549 96.1276 32.9584 94.2889 32.7546 93.1301 C 32.5508 91.9712 32.384 90.9257 32.384 90.8067 C 32.384 90.6877 32.2009 90.6178 31.9764 90.6506 C 31.4867 90.7233 31.3214 91.1645 29.6551 96.8674 C 28.9988 99.1124 28.4065 101.1228 28.3388 101.3359 C 28.2397 101.6481 28.5626 102.0565 30.0179 103.4597 C 32.9356 106.2741 33.9469 107.8748 33.0283 108.2276 C 32.4588 108.4457 30.0158 108.3074 27.9525 107.9404 Z M 31.6129 106.9797 C 31.8623 106.5792 31.7775 106.468 29.8191 104.6243 C 28.6887 103.5595 27.5242 102.5817 27.2306 102.4513 C 26.7773 102.2496 26.711 102.1284 26.788 101.6481 C 26.8386 101.3367 27.6938 98.756 28.6894 95.9131 C 29.6851 93.0695 30.4662 90.7098 30.4248 90.6692 C 30.3842 90.6278 29.1691 90.5459 27.7252 90.486 C 24.697 90.3606 24.3827 90.4518 24.1888 91.5073 C 24.1176 91.8993 23.7655 93.4501 23.407 94.9538 C 23.0485 96.4576 22.6181 98.2821 22.4499 99.0083 C 22.1577 100.2726 21.3224 103.5659 21.1271 104.2266 C 20.9169 104.9371 23.2445 105.8921 27.1985 106.7167 C 28.4429 106.9769 29.6309 107.2263 29.8383 107.2719 C 30.8011 107.4843 31.3542 107.3931 31.6129 106.9797 Z M 43.132 106.6355 C 46.079 106.2656 46.1966 106.2285 46.2586 105.6427 C 46.3113 105.146 46.2044 105.059 44.5824 104.2694 C 43.6302 103.8061 42.5348 103.3322 42.1492 103.2167 C 41.7637 103.1006 41.1607 102.7428 40.8094 102.4214 C 40.2164 101.8776 40.163 101.7301 40.0461 100.3282 C 39.8344 97.7896 39.689 95.6736 39.6384 94.388 C 39.6114 93.7138 39.5807 93.0574 39.5693 92.9298 C 39.5273 92.4402 36.1605 91.074 34.1714 90.7397 L 33.602 90.6435 L 33.7289 92.1858 C 33.8464 93.604 34.6211 98.3241 35.2982 101.7422 C 35.4521 102.5197 35.6759 103.9372 35.7956 104.8908 L 36.0137 106.6255 L 36.7913 106.6968 C 38.3692 106.8407 41.7587 106.8079 43.132 106.6355 Z M 42.1122 90.6663 C 42.5697 90.754 42.7294 90.5516 42.3759 90.3328 C 42.011 90.1076 41.4344 90.4411 41.4572 90.8652 C 41.475 91.2115 41.4929 91.2215 41.5684 90.9286 C 41.634 90.6763 41.7843 90.6036 42.1122 90.6663 Z M 23.144 87.3388 C 23.144 87.2996 22.9744 87.2226 22.767 87.1677 C 22.5596 87.1136 22.437 87.1464 22.4955 87.2404 C 22.5967 87.4043 23.144 87.4877 23.144 87.3388 Z M 42.1892 85.5257 C 42.4172 85.3782 42.3887 85.3425 42.0423 85.3397 C 41.8057 85.3383 41.5627 85.2086 41.5021 85.0518 C 41.3368 84.6213 41.7972 84.1766 42.2633 84.317 C 42.569 84.4089 42.6111 84.384 42.445 84.2094 C 42.1207 83.8666 41.577 84.0526 41.2619 84.6135 C 41.0282 85.0297 41.0232 85.1629 41.2313 85.4131 C 41.5164 85.7566 41.7836 85.788 42.1892 85.5257 Z M 33.4744 84.6676 C 33.86 84.5066 34.4508 84.1082 34.7879 83.7818 C 35.656 82.9422 35.6111 82.2744 34.5869 80.7764 L 33.7723 79.5862 L 32.0882 79.4536 C 31.1618 79.3809 30.0942 79.284 29.715 79.2384 C 29.0451 79.1571 29.023 79.1742 28.9367 79.842 C 28.8883 80.2198 28.7094 81.1448 28.5391 81.8981 C 28.0929 83.8737 28.2868 84.3426 29.7328 84.7809 C 30.5888 85.0411 32.7361 84.9755 33.4744 84.6676 Z M 44.2638 78.4373 C 44.2638 78.1202 43.8091 77.8921 43.5254 78.0674 C 43.4086 78.1394 43.4599 78.3176 43.6573 78.5257 C 44.0143 78.9013 44.2638 78.8649 44.2638 78.4373 Z M 39.5494 75.9087 C 39.5494 75.8054 39.4646 75.7206 39.3612 75.7206 C 39.2572 75.7206 39.1695 75.5296 39.1666 75.2958 C 39.1617 74.9095 39.1431 74.9017 38.9628 75.2117 C 38.821 75.4554 38.8295 75.6286 38.992 75.8246 C 39.2536 76.1389 39.5494 76.1838 39.5494 75.9087 Z M 40.4922 75.1504 C 40.4922 74.9523 40.3226 74.7 40.1152 74.5888 C 39.9021 74.4748 39.7382 74.4634 39.7382 74.5624 C 39.7382 74.6587 39.8715 74.7884 40.034 74.8504 C 40.2378 74.9288 40.2898 75.0891 40.2022 75.3656 C 40.1167 75.6365 40.143 75.7256 40.2834 75.6386 C 40.3982 75.5673 40.4922 75.3478 40.4922 75.1504 Z M 29.5133 75.2381 C 29.9837 74.9088 30.0721 74.2531 29.6665 74.0978 C 29.2653 73.9438 28.2355 74.5496 28.2355 74.9395 C 28.2355 75.5994 28.807 75.7334 29.5133 75.2381 Z M 27.2612 71.8364 C 27.7081 71.5236 27.7651 70.8151 27.3546 70.6804 C 27.2192 70.6355 27.17 70.7446 27.2263 70.9612 C 27.3389 71.391 26.8863 71.8101 26.4794 71.6533 C 26.3162 71.5913 26.1487 71.314 26.1067 71.0375 C 26.0461 70.6427 26.0233 70.6833 26.0012 71.2264 C 25.9634 72.14 26.4751 72.3873 27.2612 71.8364 Z M 41.4031 68.2965 C 41.4366 67.9986 41.3731 67.6629 41.2612 67.551 C 41.1158 67.4056 41.0581 67.4869 41.0581 67.834 C 41.0581 68.4055 40.6212 68.8332 40.2022 68.6721 C 40.024 68.6037 39.9549 68.6372 40.029 68.7562 C 40.096 68.8645 40.4181 68.9272 40.746 68.8952 C 41.2441 68.8474 41.351 68.7498 41.4031 68.2965 Z M 37.2866 60.0457 C 37.2866 59.8376 37.3735 59.5055 37.4797 59.3074 C 37.6386 59.0095 37.5474 58.8221 36.9545 58.2291 C 35.7336 57.0076 35.2797 55.5579 35.8006 54.5417 C 35.9168 54.315 36.2731 53.8539 36.5924 53.5168 L 37.1718 52.9039 L 36.2047 52.9039 C 34.7138 52.9039 31.9714 52.2297 29.7207 51.3096 C 29.4884 51.2148 29.5497 51.4514 29.9709 52.2803 C 30.5923 53.5026 30.5923 53.9793 29.9716 56.3961 L 29.6352 57.7038 L 32.188 58.6724 C 33.592 59.2048 35.2504 59.8519 35.8726 60.1106 C 37.107 60.623 37.2866 60.6145 37.2866 60.0457 Z M 13.9981 58.9218 C 16.3521 58.0417 18.6605 54.883 19.1722 51.842 C 19.3668 50.6882 19.3483 50.4116 19.0069 49.3063 C 18.7959 48.6242 18.1495 47.2801 17.5708 46.3194 C 16.6087 44.7237 16.4106 44.0416 16.9087 44.0416 C 17.1924 44.0416 18.56 46.1419 19.3404 47.7768 C 19.9712 49.0967 20.0324 49.3711 20.031 50.83 C 20.0289 52.8056 19.5336 54.3699 18.3291 56.2036 C 17.8644 56.9113 17.5181 57.5235 17.5594 57.5649 C 17.6008 57.6062 18.4709 57.8129 19.4937 58.0253 C 21.0673 58.351 21.7151 58.3902 23.7099 58.2783 C 25.0063 58.2056 26.4423 58.0908 26.9013 58.0238 C 27.7209 57.9034 27.7437 57.8806 28.2412 56.6655 C 28.5198 55.9856 28.8591 54.9949 28.9945 54.464 C 29.2225 53.5767 29.2083 53.4099 28.8199 52.4 C 28.5882 51.7957 28.383 51.1742 28.3637 51.0181 C 28.3452 50.8628 27.8998 50.4387 27.3738 50.076 C 25.2486 48.6093 22.9751 46.2838 19.9327 42.4638 C 19.3654 41.7518 18.466 40.8894 17.9336 40.5481 C 16.1433 39.3978 15.3052 37.6866 15.447 35.468 C 15.5112 34.4574 15.6223 34.1289 16.0998 33.5359 C 17.0249 32.3878 18.2714 31.7186 19.6462 31.6309 C 20.7544 31.5604 20.8634 31.5917 21.5241 32.1726 C 21.9104 32.5111 22.6074 33.2844 23.0735 33.8901 C 23.7477 34.7653 23.9864 34.9577 24.2401 34.8259 C 24.4155 34.7354 25.3648 34.6014 26.3497 34.528 C 28.7336 34.3505 30.6814 33.9678 31.5658 33.5039 C 31.9642 33.2943 33.3925 32.2745 34.7409 31.2361 C 38.1161 28.6369 41.4244 26.424 42.713 25.9038 C 44.4491 25.2025 46.7218 25.3058 49.7322 26.2231 C 52.6329 27.1068 53.9984 27.1902 54.7039 26.5281 C 55.9682 25.3415 56.6104 22.5321 56.4721 18.7904 C 56.3645 15.8855 55.9547 14.2535 54.9291 12.6507 C 53.2892 10.0878 48.2178 6.5935 42.909 4.3692 C 34.5356 0.8614 26.969 0.4423 20.2405 3.1156 C 12.9384 6.0163 7.8027 10.6088 4.5244 17.1712 C 2.0656 22.0916 1.2261 29.0624 2.4013 34.7995 C 2.8353 36.9176 3.3983 38.2953 5.659 42.7766 C 7.7258 46.8724 7.8861 47.4861 7.1578 48.5088 C 6.6995 49.1516 4.7688 50.4458 3.7411 50.7986 C 3.3884 50.9198 2.8318 51.0181 2.5046 51.0181 C 1.447 51.0181 1.1726 51.3894 1.2054 52.7735 C 1.2375 54.1433 1.7513 55.5202 2.5374 56.3405 C 3.2066 57.0403 5.3383 57.8948 8.3123 58.6567 C 11.2415 59.4065 12.5414 59.467 13.9981 58.9218 Z M 39.5173 57.5998 C 39.7211 57.2734 39.8793 57.2256 40.4245 57.3283 C 40.7873 57.396 41.2113 57.5007 41.3667 57.5599 C 41.5784 57.6411 41.552 57.51 41.2598 57.0304 C 40.7823 56.2478 40.7766 55.3206 41.237 53.5639 C 41.428 52.8383 41.5691 52.2283 41.552 52.2083 C 41.5349 52.1884 41.0211 52.3373 40.4117 52.5383 C 39.8017 52.7393 39.0676 52.9039 38.7804 52.9039 C 38.3499 52.9039 38.1404 53.0928 37.5838 53.9822 C 37.2132 54.5759 36.9096 55.2415 36.9096 55.4632 C 36.9096 56.0212 37.6429 57.0546 38.4034 57.5663 C 39.1816 58.0908 39.2101 58.0915 39.5173 57.5998 Z M 40.1616 51.2148 C 40.8208 50.9647 41.6568 50.4273 42.2961 49.8429 L 43.3473 48.8822 L 41.9376 48.1467 C 40.2692 47.2758 38.2295 45.2988 38.2295 44.5526 C 38.2295 43.9404 38.6913 43.5577 39.1624 43.7794 C 39.3598 43.8713 39.9748 44.584 40.5286 45.3615 C 41.2541 46.38 41.8235 46.9473 42.5619 47.3884 C 43.1256 47.7255 43.6844 48.0013 43.8041 48.0013 C 44.0706 48.0013 44.9743 46.6487 46.4282 44.0709 C 47.5785 42.0333 47.6305 41.9877 49.3773 41.508 C 49.9603 41.3477 50.5304 41.1047 50.6445 40.9671 C 50.9303 40.6222 50.6366 39.6216 49.6716 37.6503 C 48.7295 35.7253 48.6853 34.8508 49.4172 32.5767 C 49.9161 31.0251 50.0615 29.3332 49.8063 28.0568 C 49.6966 27.5066 49.6353 27.476 48.0054 27.1595 C 44.3757 26.454 42.5469 27.1495 36.0323 31.7115 C 31.8317 34.6534 29.8896 35.5201 26.1487 36.1216 C 24.8801 36.3254 24.7226 36.3959 24.734 36.7551 C 24.7426 37.0231 24.6179 37.1778 24.3634 37.2141 C 24.0727 37.2554 23.7776 36.9611 23.1383 35.9897 C 21.9196 34.1403 20.6931 32.9159 20.0581 32.9159 C 19.5036 32.9159 18.5515 33.3385 17.9856 33.8345 C 17.3485 34.394 16.9209 35.4908 16.9323 36.5385 C 16.9494 38.157 17.2501 38.7371 18.5194 39.6009 C 19.3141 40.1418 20.2883 41.1595 21.8298 43.0574 C 26.5963 48.9285 28.7493 50.4601 33.7039 51.5035 C 35.517 51.8855 38.7811 51.7401 40.1616 51.2148 Z M 40.8044 34.0797 C 40.4424 33.6799 40.3739 31.9809 40.6961 31.3793 C 40.9918 30.8263 42.058 30.4243 42.6403 30.646 C 43.2511 30.8776 43.509 31.3865 43.509 32.3571 C 43.509 33.8517 41.6625 35.0283 40.8044 34.0797 Z "/>
        <path id="path29" fill="#0742f0" stroke-width="0.18856497052757265" d="M 27.9525 107.9404 C 26.8115 107.7373 25.369 107.4422 24.7469 107.2847 C 24.1247 107.1272 23.4818 106.9975 23.3179 106.9961 C 23.154 106.9947 22.39 106.6818 21.6203 106.3012 C 19.5328 105.2671 19.5286 105.2486 20.3973 101.6239 C 20.7922 99.9783 21.2347 98.2065 21.3816 97.6884 C 21.5277 97.1696 21.8526 95.8547 22.1021 94.7657 C 22.3522 93.6767 22.6858 92.3654 22.8433 91.8515 C 23.0015 91.3377 23.1105 90.8979 23.087 90.8737 C 23.0628 90.8495 22.0265 90.95 20.7836 91.0968 C 17.1853 91.5215 16.5446 91.446 16.5446 90.5958 C 16.5446 90.2344 17.5131 88.9402 19.4402 86.7273 C 21.2597 84.6377 21.7365 83.7155 22.3045 81.189 C 22.5725 79.996 22.8554 78.7659 22.9331 78.4544 C 23.0557 77.9612 22.9837 77.8002 22.3651 77.1923 C 21.0487 75.898 21.1457 74.9936 22.9994 71.2962 C 24.516 68.2701 24.6585 67.7264 24.6129 65.1414 C 24.5651 62.4924 24.739 62.037 26.4224 60.3942 L 27.6532 59.1934 L 23.8432 59.1998 C 20.2598 59.2062 19.9334 59.177 18.3669 58.7087 L 16.7013 58.2106 L 15.8782 58.8384 C 14.5747 59.8334 13.3931 60.1405 11.374 60.0101 C 8.6858 59.8355 3.7718 58.3503 2.2146 57.242 C 1.3116 56.5985 0.5013 54.7063 0.3815 52.9616 C 0.2875 51.5869 0.3138 51.4329 0.7293 50.9497 C 1.0828 50.5392 1.4712 50.3703 2.5289 50.1686 C 4.5073 49.7923 6.7394 48.2679 6.7394 47.2943 C 6.7394 47.0499 5.9006 45.2211 4.8757 43.2299 C 1.9445 37.5341 1.2781 35.3939 0.9895 30.7472 C 0.8512 28.5101 1.1028 25.0393 1.5667 22.7915 C 2.9679 16.011 7.4621 9.4813 13.5 5.4539 C 16.8717 3.2054 21.6959 1.2142 25.3127 0.5777 C 28.7935 -0.0345 33.9013 0.2756 37.7926 1.336 C 44.4455 3.1484 52.9714 8.2213 55.3489 11.7812 C 56.7543 13.8857 57.4456 16.4593 57.4549 19.6222 C 57.4692 24.2931 56.1036 27.5266 53.925 27.9805 C 53.3912 28.0917 52.6528 28.1024 52.0891 28.0069 C 50.5483 27.7461 50.6409 27.6484 50.7785 29.3803 C 50.8782 30.6374 50.8255 31.2311 50.5055 32.4762 C 49.9375 34.6812 49.981 35.6904 50.7029 37.1172 C 51.3486 38.3922 51.8004 39.8667 51.804 40.7091 C 51.8069 41.4546 50.9937 42.2001 49.6353 42.6961 C 47.7545 43.3824 47.6704 43.458 46.766 45.2618 C 45.677 47.4362 44.474 49.2984 43.4364 50.4181 C 42.6353 51.2818 42.6111 51.3488 42.2747 53.5168 L 41.9312 55.7326 L 42.3431 56.726 C 42.5697 57.2727 42.755 57.8193 42.755 57.9412 C 42.755 58.3552 41.9212 58.7494 41.0432 58.7494 L 40.1701 58.7494 L 40.6234 59.6958 C 41.8535 62.2665 44.7726 70.7895 45.7611 74.6971 C 46.0776 75.95 46.4332 77.6897 46.5515 78.5628 C 46.9784 81.7264 46.456 89.5581 45.5666 93.3147 C 45.3129 94.3872 44.5824 95.3323 44.0108 95.328 C 43.787 95.3266 42.8969 94.9453 42.0331 94.4813 L 40.4623 93.6382 L 40.5856 95.5689 C 40.9049 100.5591 41.031 101.4371 41.4815 101.7842 C 41.7152 101.9638 41.9782 102.1128 42.0659 102.1149 C 42.4201 102.1242 46.4867 104.2074 47.2335 104.7618 C 49.12 106.1637 47.7096 107.1023 42.966 107.6026 C 40.2906 107.8848 36.1064 107.867 35.6324 107.5705 C 35.1428 107.2655 34.9019 106.5329 34.552 104.2879 C 34.3902 103.2509 34.1329 101.6809 33.9804 100.7993 C 33.8279 99.9177 33.5728 98.3056 33.4138 97.2166 C 33.2549 96.1276 32.9584 94.2889 32.7546 93.1301 C 32.5508 91.9712 32.384 90.9257 32.384 90.8067 C 32.384 90.6877 32.2009 90.6178 31.9764 90.6506 C 31.4867 90.7233 31.3214 91.1645 29.6551 96.8674 C 28.9988 99.1124 28.4065 101.1228 28.3388 101.3359 C 28.2397 101.6481 28.5626 102.0565 30.0179 103.4597 C 32.9356 106.2741 33.9469 107.8748 33.0283 108.2276 C 32.4588 108.4457 30.0158 108.3074 27.9525 107.9404 Z M 31.7255 107.0146 C 31.8067 106.6455 31.7618 106.3312 31.5993 106.133 C 31.062 105.4774 27.5534 102.4513 27.1472 102.2924 C 26.5956 102.0771 26.5457 102.2703 28.8063 95.8967 L 30.6451 90.7112 L 29.9587 90.5808 C 29.1249 90.4219 25.2792 90.3919 24.7283 90.5395 C 24.2786 90.6606 24.3934 90.2693 22.8782 96.8396 C 22.2917 99.3803 21.6417 102.1299 21.4322 102.9502 C 21.2233 103.7698 21.0943 104.5502 21.1457 104.6841 C 21.3823 105.3006 24.1625 106.2314 28.053 106.9968 C 29.1384 107.2106 30.1968 107.4209 30.4042 107.4643 C 31.3834 107.671 31.5972 107.5976 31.7255 107.0139 Z M 45.2537 106.4545 C 46.2992 106.2243 46.3377 106.1943 46.3377 105.6092 C 46.3377 105.0205 46.2778 104.9756 44.216 104.0306 C 40.9819 102.5482 40.4253 102.2133 40.277 101.6609 C 40.1145 101.0523 39.7382 95.7143 39.7382 94.0152 L 39.7382 92.758 L 38.3706 92.0789 C 36.9623 91.379 35.3174 90.8366 34.17 90.6948 C 33.5379 90.6157 33.515 90.635 33.515 91.2393 C 33.515 91.8665 34.2028 96.1369 35.0993 101.0822 C 35.363 102.534 35.6681 104.3549 35.7771 105.1281 C 35.8869 105.9014 36.08 106.6055 36.2076 106.6932 C 36.5497 106.9284 43.9958 106.7317 45.2537 106.4545 Z M 42.5355 91.0177 C 42.6168 90.4461 42.3331 90.1689 41.8314 90.3278 C 41.3924 90.4675 41.309 90.9806 41.6668 91.3391 C 42.0138 91.6862 42.4635 91.5194 42.5355 91.0177 Z M 23.407 86.9817 C 23.5688 86.7223 23.5517 86.6054 23.3329 86.4657 C 23.1775 86.3667 22.9837 86.284 22.9024 86.2826 C 22.7114 86.279 22.4071 87.0822 22.524 87.2803 C 22.6665 87.5212 23.179 87.348 23.407 86.9817 Z M 42.2804 85.4074 C 42.45 85.2378 42.5612 84.88 42.5298 84.6063 C 42.4493 83.9136 41.6532 83.9172 41.2627 84.612 C 41.0289 85.029 41.0232 85.1622 41.2313 85.4131 C 41.5499 85.7972 41.8927 85.7951 42.2804 85.4074 Z M 33.4744 84.6669 C 34.2726 84.3334 35.1813 83.5373 35.3994 82.98 C 35.5868 82.5003 35.2234 81.6045 34.3667 80.4385 L 33.7075 79.5406 L 31.6001 79.4037 C 30.4412 79.3289 29.3893 79.227 29.2624 79.1785 C 29.1135 79.1215 28.9995 79.346 28.9403 79.8092 C 28.8897 80.2048 28.7094 81.1448 28.5391 81.8981 C 28.1378 83.6749 28.2633 84.1509 29.251 84.5992 C 30.2374 85.0468 32.4781 85.0831 33.4744 84.6669 Z M 43.9744 78.9326 C 44.5389 78.309 43.9502 77.617 43.3587 78.2093 C 43.0515 78.5164 43.0707 79.3032 43.3858 79.3032 C 43.5254 79.3032 43.7898 79.1365 43.9744 78.9326 Z M 39.8979 75.8004 C 40.5557 75.4725 40.6847 74.9038 40.1673 74.6145 C 39.5209 74.2524 38.5338 75.2723 38.9935 75.8268 C 39.2664 76.1553 39.1816 76.1582 39.8979 75.8004 Z M 29.5133 75.2381 C 29.9837 74.9088 30.0721 74.2531 29.6665 74.0978 C 29.2653 73.9438 28.2355 74.5496 28.2355 74.9395 C 28.2355 75.5994 28.807 75.7334 29.5133 75.2381 Z M 27.2505 71.8443 C 27.8057 71.4551 27.79 70.8536 27.2185 70.637 C 26.4409 70.3412 25.9727 70.5885 25.9727 71.2955 C 25.9727 72.1365 26.5058 72.3659 27.2505 71.8443 Z M 41.3995 68.226 C 41.448 67.7271 41.3717 67.5753 40.9876 67.3999 C 40.7281 67.2816 40.3818 67.2367 40.2171 67.3002 C 39.7831 67.4662 39.657 67.9437 39.9029 68.4847 C 40.0782 68.8688 40.2307 68.9443 40.7296 68.8966 C 41.2662 68.8446 41.3482 68.7633 41.3995 68.226 Z M 37.2866 60.0457 C 37.2866 59.8376 37.3757 59.5012 37.484 59.2981 C 37.6486 58.991 37.5738 58.8278 37.0393 58.321 C 36.2275 57.5528 35.5897 56.3098 35.5897 55.4988 C 35.5897 54.8488 35.8783 54.3043 36.6908 53.422 L 37.169 52.9039 L 36.2026 52.9039 C 34.9119 52.9039 32.9763 52.4813 31.0577 51.7814 C 30.1918 51.465 29.4705 51.207 29.4542 51.207 C 29.4385 51.207 29.6665 51.6852 29.9616 52.2703 C 30.5945 53.5247 30.6009 53.7862 30.0571 56.0141 L 29.6423 57.7095 L 32.1916 58.6774 C 33.5942 59.2098 35.2504 59.8554 35.8726 60.1127 C 37.107 60.623 37.2866 60.6145 37.2866 60.0457 Z M 14.5647 58.7066 C 17.0755 57.4238 19.195 53.8995 19.2449 50.9241 C 19.2635 49.8002 19.1751 49.4082 18.6491 48.2843 C 18.3099 47.558 17.6877 46.4348 17.2672 45.7877 C 16.5488 44.6816 16.4077 43.9233 16.9615 44.145 C 17.63 44.4122 19.5941 47.9899 19.9533 49.5963 C 20.1479 50.4644 20.1507 50.9547 19.969 52.0294 C 19.7295 53.442 18.7425 55.7589 17.9215 56.8351 C 17.3214 57.6219 17.3649 57.6532 19.6882 58.0908 C 21.4614 58.4244 23.985 58.4165 26.835 58.0673 L 27.7915 57.9504 L 28.3972 56.349 C 29.276 54.0257 29.328 53.3593 28.7343 52.0622 C 28.4649 51.4735 28.2633 50.9226 28.2868 50.8371 C 28.3103 50.7523 27.7957 50.3247 27.1422 49.8864 C 25.5586 48.8238 23.4947 46.7506 20.9782 43.6946 C 19.5963 42.0155 18.5301 40.9179 17.7732 40.3948 C 16.8745 39.7734 16.521 39.3743 16.0728 38.4784 C 15.5831 37.4992 15.5076 37.1407 15.5076 35.8094 C 15.5076 34.3726 15.5454 34.2251 16.0913 33.5466 C 17.0278 32.3849 18.2664 31.7186 19.6576 31.6302 C 20.8285 31.5554 20.8563 31.5654 21.693 32.3365 C 22.1591 32.7662 22.8255 33.5374 23.1725 34.0505 C 23.6108 34.6969 23.8909 34.9456 24.0869 34.863 C 24.243 34.7967 25.1759 34.6734 26.1615 34.5893 C 28.8249 34.3605 30.2951 34.0761 31.3471 33.5865 C 31.8652 33.3449 33.9868 31.8633 36.0608 30.2939 C 38.6364 28.3461 40.4516 27.1282 41.7843 26.4547 L 43.7364 25.4676 L 45.5559 25.4883 C 47.1046 25.5061 47.7118 25.6158 49.6374 26.2259 C 51.1954 26.7191 52.2722 26.9479 53.0933 26.9593 C 54.235 26.9757 54.3127 26.9464 54.922 26.2822 C 56.465 24.5996 57.0643 19.2687 56.1364 15.4736 C 56.0096 14.9555 55.6639 14.0133 55.3689 13.3812 C 53.7525 9.9232 45.8203 4.8981 38.5858 2.7486 C 33.912 1.3596 28.5398 0.9861 24.7112 1.7822 C 17.9585 3.1876 11.622 7.0682 7.5918 12.2665 C 4.7425 15.9411 3.2273 19.2173 2.3628 23.5719 C 2.0264 25.2631 1.948 26.3143 1.9473 29.1444 C 1.9459 34.7047 2.3621 36.2677 5.5286 42.592 C 7.8769 47.2822 7.9638 47.7334 6.7487 48.9129 C 5.7288 49.9021 3.9364 50.8221 2.7548 50.9618 C 1.0835 51.16 0.7806 51.8541 1.3722 54.1262 C 1.9402 56.3063 2.7113 56.952 6.0795 58.063 C 10.1689 59.4122 12.7937 59.611 14.5647 58.7066 Z M 39.5273 57.5984 C 39.8159 57.242 39.9249 57.2228 40.5949 57.4088 C 41.6539 57.7024 41.6653 57.6939 41.247 56.9135 C 40.778 56.0397 40.7773 55.4518 41.2413 53.6651 C 41.4423 52.8911 41.5855 52.2375 41.5599 52.2112 C 41.5342 52.1855 40.979 52.3309 40.3262 52.534 C 39.6727 52.7378 38.9015 52.9039 38.6115 52.9039 C 38.2808 52.9039 38.0406 53.0265 37.9665 53.2339 C 37.9016 53.4156 37.6386 53.9031 37.3821 54.3179 C 36.7784 55.2943 36.7884 55.9371 37.4199 56.6876 C 37.8432 57.19 38.8994 57.9918 39.1417 57.9946 C 39.1773 57.9946 39.3505 57.8165 39.5273 57.5984 Z M 40.1616 51.2198 C 40.8122 50.9697 41.6653 50.4195 42.2961 49.8422 L 43.3473 48.8822 L 41.9376 48.146 C 40.2478 47.2644 38.2295 45.2988 38.2295 44.5355 C 38.2295 44.0089 38.7775 43.5969 39.2408 43.7744 C 39.3976 43.835 39.8815 44.4301 40.3162 45.0978 C 40.7517 45.7656 41.3624 46.5268 41.6739 46.7883 C 42.2647 47.2865 43.5547 48.0013 43.8604 48.0013 C 44.0699 48.0013 45.5559 45.7022 46.704 43.6033 C 47.5471 42.0611 47.6469 41.9827 49.3773 41.5073 C 49.9603 41.3477 50.5304 41.104 50.6445 40.9664 C 50.9338 40.6179 50.6352 39.5973 49.6759 37.6503 C 48.733 35.736 48.691 34.8879 49.4243 32.5759 C 49.9147 31.028 50.0594 29.3218 49.8071 28.0589 C 49.6987 27.5173 49.6239 27.4774 48.1572 27.1866 C 44.3037 26.4219 42.7607 26.9992 35.9973 31.7357 C 31.8338 34.652 29.8811 35.5208 26.1487 36.1216 C 24.8801 36.3254 24.7226 36.3959 24.734 36.7544 C 24.7426 37.021 24.6179 37.177 24.3677 37.2134 C 24.0812 37.254 23.7826 36.9547 23.1512 35.9947 C 21.9474 34.1631 20.6945 32.9159 20.0602 32.9159 C 19.2969 32.9159 18.1445 33.5758 17.553 34.3512 C 17.1439 34.8872 17.0156 35.2863 16.9615 36.1914 C 16.8539 37.9717 17.1831 38.6901 18.523 39.6023 C 19.2813 40.119 20.1956 41.0526 21.3053 42.4424 C 23.6386 45.3658 26.1901 48.0569 27.5477 49.0255 C 28.8626 49.9634 30.9095 50.8307 32.8551 51.274 C 33.5813 51.4393 34.3453 51.6147 34.5527 51.6631 C 34.7601 51.7116 35.8626 51.7251 37.0036 51.6938 C 38.5908 51.6503 39.3327 51.5391 40.1616 51.2198 Z M 40.8044 34.0797 C 40.5906 33.8431 40.4922 33.3955 40.4922 32.6565 C 40.4922 31.2767 41.0146 30.6531 42.1699 30.6531 C 43.1092 30.6531 43.509 31.1499 43.509 32.3165 C 43.509 33.0043 43.4021 33.2494 42.8683 33.7832 C 42.1364 34.5152 41.3061 34.6342 40.8044 34.0797 Z "/>
        <path id="path27" fill="#013dfa" stroke-width="0.18856497052757265" d="M 27.9525 107.9404 C 26.8115 107.7373 25.369 107.4422 24.7469 107.2847 C 24.1247 107.1272 23.4818 106.9975 23.3179 106.9961 C 23.154 106.9947 22.39 106.6818 21.6203 106.3012 C 19.5328 105.2671 19.5286 105.2486 20.3973 101.6239 C 20.7922 99.9783 21.2347 98.2065 21.3816 97.6884 C 21.5277 97.1696 21.8526 95.8547 22.1021 94.7657 C 22.3522 93.6767 22.6858 92.3654 22.8433 91.8515 C 23.0015 91.3377 23.1105 90.8979 23.087 90.8737 C 23.0628 90.8495 22.0265 90.95 20.7836 91.0968 C 17.1853 91.5215 16.5446 91.446 16.5446 90.5958 C 16.5446 90.2344 17.5131 88.9402 19.4402 86.7273 C 21.2597 84.6377 21.7365 83.7155 22.3045 81.189 C 22.5725 79.996 22.8554 78.7659 22.9331 78.4544 C 23.0557 77.9612 22.9837 77.8002 22.3651 77.1923 C 21.0487 75.898 21.1457 74.9936 22.9994 71.2962 C 24.516 68.2701 24.6585 67.7264 24.6129 65.1414 C 24.5651 62.4924 24.739 62.037 26.4224 60.3942 L 27.6532 59.1934 L 23.8432 59.1998 C 20.2598 59.2062 19.9334 59.177 18.3669 58.7087 L 16.7013 58.2106 L 15.8782 58.8384 C 14.5747 59.8334 13.3931 60.1405 11.374 60.0101 C 8.6858 59.8355 3.7718 58.3503 2.2146 57.242 C 1.3116 56.5985 0.5013 54.7063 0.3815 52.9616 C 0.2875 51.5869 0.3138 51.4329 0.7293 50.9497 C 1.0828 50.5392 1.4712 50.3703 2.5289 50.1686 C 4.5073 49.7923 6.7394 48.2679 6.7394 47.2943 C 6.7394 47.0499 5.9006 45.2211 4.8757 43.2299 C 1.9445 37.5341 1.2781 35.3939 0.9895 30.7472 C 0.8512 28.5101 1.1028 25.0393 1.5667 22.7915 C 2.9679 16.011 7.4621 9.4813 13.5 5.4539 C 16.8717 3.2054 21.6959 1.2142 25.3127 0.5777 C 28.7935 -0.0345 33.9013 0.2756 37.7926 1.336 C 44.4455 3.1484 52.9714 8.2213 55.3489 11.7812 C 56.7543 13.8857 57.4456 16.4593 57.4549 19.6222 C 57.4692 24.2931 56.1036 27.5266 53.925 27.9805 C 53.3912 28.0917 52.6528 28.1024 52.0891 28.0069 C 50.5483 27.7461 50.6409 27.6484 50.7785 29.3803 C 50.8782 30.6374 50.8255 31.2311 50.5055 32.4762 C 49.9375 34.6812 49.981 35.6904 50.7029 37.1172 C 51.3486 38.3922 51.8004 39.8667 51.804 40.7091 C 51.8069 41.4546 50.9937 42.2001 49.6353 42.6961 C 47.7545 43.3824 47.6704 43.458 46.766 45.2618 C 45.677 47.4362 44.474 49.2984 43.4364 50.4181 C 42.6353 51.2818 42.6111 51.3488 42.2747 53.5168 L 41.9312 55.7326 L 42.3431 56.726 C 42.5697 57.2727 42.755 57.8193 42.755 57.9412 C 42.755 58.3552 41.9212 58.7494 41.0432 58.7494 L 40.1701 58.7494 L 40.6234 59.6958 C 41.8535 62.2665 44.7726 70.7895 45.7611 74.6971 C 46.0776 75.95 46.4332 77.6897 46.5515 78.5628 C 46.9784 81.7264 46.456 89.5581 45.5666 93.3147 C 45.3129 94.3872 44.5824 95.3323 44.0108 95.328 C 43.787 95.3266 42.8969 94.9453 42.0331 94.4813 L 40.4623 93.6382 L 40.5856 95.5689 C 40.9049 100.5591 41.031 101.4371 41.4815 101.7842 C 41.7152 101.9638 41.9782 102.1128 42.0659 102.1149 C 42.4201 102.1242 46.4867 104.2074 47.2335 104.7618 C 49.12 106.1637 47.7096 107.1023 42.966 107.6026 C 40.2906 107.8848 36.1064 107.867 35.6324 107.5705 C 35.1428 107.2655 34.9019 106.5329 34.552 104.2879 C 34.3902 103.2509 34.1329 101.6809 33.9804 100.7993 C 33.8279 99.9177 33.5728 98.3056 33.4138 97.2166 C 33.2549 96.1276 32.9584 94.2889 32.7546 93.1301 C 32.5508 91.9712 32.384 90.9257 32.384 90.8067 C 32.384 90.6877 32.2009 90.6178 31.9764 90.6506 C 31.4867 90.7233 31.3214 91.1645 29.6551 96.8674 C 28.9988 99.1124 28.4065 101.1228 28.3388 101.3359 C 28.2397 101.6481 28.5626 102.0565 30.0179 103.4597 C 32.9356 106.2741 33.9469 107.8748 33.0283 108.2276 C 32.4588 108.4457 30.0158 108.3074 27.9525 107.9404 Z M 31.7255 107.0146 C 31.8067 106.6455 31.7618 106.3312 31.5993 106.133 C 31.062 105.4774 27.5534 102.4513 27.1472 102.2924 C 26.5956 102.0771 26.5457 102.2703 28.8063 95.8967 L 30.6451 90.7112 L 29.9587 90.5808 C 29.1249 90.4219 25.2792 90.3919 24.7283 90.5395 C 24.2786 90.6606 24.3934 90.2693 22.8782 96.8396 C 22.2917 99.3803 21.6417 102.1299 21.4322 102.9502 C 21.2233 103.7698 21.0943 104.5502 21.1457 104.6841 C 21.3823 105.3006 24.1625 106.2314 28.053 106.9968 C 29.1384 107.2106 30.1968 107.4209 30.4042 107.4643 C 31.3834 107.671 31.5972 107.5976 31.7255 107.0139 Z M 45.2537 106.4545 C 46.2992 106.2243 46.3377 106.1943 46.3377 105.6092 C 46.3377 105.0205 46.2778 104.9756 44.216 104.0306 C 40.9819 102.5482 40.4253 102.2133 40.277 101.6609 C 40.1145 101.0523 39.7382 95.7143 39.7382 94.0152 L 39.7382 92.758 L 38.3706 92.0789 C 36.9623 91.379 35.3174 90.8366 34.17 90.6948 C 33.5379 90.6157 33.515 90.635 33.515 91.2393 C 33.515 91.8665 34.2028 96.1369 35.0993 101.0822 C 35.363 102.534 35.6681 104.3549 35.7771 105.1281 C 35.8869 105.9014 36.08 106.6055 36.2076 106.6932 C 36.5497 106.9284 43.9958 106.7317 45.2537 106.4545 Z M 44.417 93.2099 C 44.9558 91.0775 45.2915 88.7207 45.5937 84.9598 C 45.8324 81.9865 45.6792 79.011 45.1774 76.8516 C 44.1362 72.3724 39.6406 60.0714 39.0448 60.07 C 38.7668 60.0693 38.0406 60.9737 38.0406 61.3207 C 38.0406 61.6735 37.5196 61.6436 35.9211 61.201 C 35.1728 60.9936 34.4073 60.8233 34.2213 60.8233 C 33.9092 60.8233 33.9049 60.866 34.1622 61.3642 C 34.5791 62.1695 34.8321 64.0582 34.8335 66.3708 C 34.8371 69.9913 35.2533 71.4395 37.2467 74.7485 C 38.2758 76.4575 38.5281 77.292 38.2423 78.0439 C 37.9936 78.6967 37.3721 79.0723 36.1584 79.3025 C 35.6025 79.408 35.1093 79.532 35.063 79.5783 C 35.0167 79.6247 35.2732 80.0694 35.6331 80.5668 C 36.5939 81.8946 36.7642 82.5274 36.4207 83.4995 C 35.8277 85.1815 33.917 86.465 32.007 86.4643 C 29.8205 86.4636 27.6895 85.5043 27.1835 84.2935 C 26.8479 83.491 26.8514 82.2081 27.1928 80.6231 C 27.3382 79.9489 27.3988 79.3403 27.3275 79.2712 C 27.1992 79.1457 25.2614 78.7224 24.5787 78.6704 C 24.2808 78.6476 24.1489 78.9305 23.7819 80.3801 C 23.201 82.6707 22.5803 84.1623 21.6146 85.5849 C 21.1792 86.2263 20.7722 86.7936 20.7095 86.8456 C 20.3589 87.1371 18.054 90.1147 18.1239 90.1852 C 18.1702 90.2316 19.7217 90.0969 21.5718 89.8866 C 32.8579 88.6024 34.6917 88.8696 41.3411 92.7659 C 43.8789 94.2526 44.1441 94.291 44.417 93.2099 Z M 43.0315 93.3845 C 42.6203 93.1586 42.2412 92.9312 42.1892 92.8799 C 42.1371 92.8279 41.8927 92.6711 41.6447 92.5321 C 41.3974 92.3924 40.8885 92.1045 40.5136 91.8921 C 40.1388 91.6798 39.1531 91.1759 38.3235 90.7711 C 37.494 90.367 36.668 89.9551 36.4877 89.8553 C 36.3074 89.7555 35.9945 89.6743 35.7921 89.6743 C 35.589 89.6743 35.3766 89.598 35.3189 89.5053 C 35.1378 89.2117 33.7189 89.077 29.8468 88.9858 C 27.5085 88.9309 25.9385 88.9694 25.699 89.0877 C 25.4866 89.1925 24.6343 89.3236 23.804 89.3792 C 22.9744 89.4348 21.5319 89.5545 20.5983 89.6443 C 19.6654 89.7348 18.8672 89.779 18.8244 89.7427 C 18.7824 89.707 19.1687 89.1889 19.6825 88.5917 C 20.1964 87.9944 20.8135 87.224 21.0537 86.8805 C 21.301 86.5263 21.5989 86.2975 21.7415 86.3524 C 21.894 86.4109 21.956 86.3517 21.899 86.202 C 21.8462 86.0659 22.0429 85.5392 22.3344 85.0325 C 23.1134 83.6813 23.2673 83.3149 23.7113 81.7542 C 24.5972 78.6419 24.3984 78.9718 25.2849 79.1372 C 26.7531 79.4101 27.1044 79.5356 27.1044 79.785 C 27.1044 79.9226 27.0196 80.0872 26.9156 80.1513 C 26.6362 80.3238 26.6761 84.1217 26.9626 84.6242 C 27.4016 85.3931 27.9311 85.7566 29.6117 86.4422 C 29.9017 86.5605 30.8959 86.6567 31.8203 86.6567 C 33.2856 86.6567 33.6184 86.5926 34.4045 86.1579 C 35.3459 85.6376 36.5318 84.4702 36.5326 84.064 C 36.5326 83.9343 36.6174 83.8288 36.7207 83.8288 C 36.8248 83.8288 36.9096 83.4012 36.9096 82.8781 C 36.9096 82.1041 36.787 81.7463 36.2475 80.9453 C 35.4928 79.8256 35.5754 79.6325 36.8996 79.4208 C 37.9259 79.2562 38.8602 78.1551 38.7234 77.2699 C 38.6307 76.6656 37.7149 74.5881 37.4583 74.4 C 37.2011 74.2118 36.2197 72.3952 35.8284 71.3832 C 35.3695 70.1951 35.2483 69.2365 35.0416 65.1607 C 34.9604 63.5529 34.8278 62.047 34.748 61.8132 C 34.6161 61.4276 34.6618 61.3891 35.2469 61.3891 C 35.6011 61.3891 35.9752 61.4732 36.0772 61.5752 C 36.1798 61.6778 36.6722 61.7833 37.1726 61.8111 C 37.9031 61.851 38.1247 61.789 38.2972 61.4982 C 38.4155 61.2994 38.6328 60.9858 38.7804 60.8019 C 39.0327 60.4883 39.064 60.4969 39.2992 60.9501 C 39.4368 61.2153 39.5494 61.5851 39.5494 61.7726 C 39.5494 61.9593 39.6164 62.1403 39.6976 62.1752 C 39.905 62.2629 40.6811 64.1921 40.6811 64.6198 C 40.6811 64.8136 40.7659 64.9718 40.8693 64.9718 C 40.9733 64.9718 41.0581 65.1365 41.0581 65.3381 C 41.0581 65.5391 41.133 65.7501 41.2242 65.8064 C 41.3154 65.8634 41.4316 66.1014 41.4829 66.3366 C 41.5335 66.5711 41.6418 66.9224 41.7231 67.117 C 41.8649 67.457 41.8521 67.4584 41.371 67.1427 C 40.7844 66.7585 39.6527 66.8818 39.4731 67.3493 C 39.2793 67.8554 39.3498 68.4547 39.6541 68.8902 C 40.0069 69.3926 40.9598 69.456 41.4537 69.0092 C 41.9875 68.5267 42.4557 68.8275 42.7265 69.8274 C 42.8598 70.3198 43.0479 70.8707 43.1449 71.0503 C 43.2418 71.2306 43.3209 71.5492 43.3209 71.758 C 43.3209 71.9668 43.4057 72.1372 43.509 72.1372 C 43.6131 72.1372 43.6993 72.3282 43.7008 72.5619 C 43.7022 72.795 43.8397 73.368 44.0065 73.8348 C 44.737 75.8781 45.0185 77.302 45.1974 79.8549 C 45.3528 82.072 45.1639 87.0566 44.8368 89.3913 C 44.7349 90.1168 44.598 91.0932 44.5325 91.56 C 44.4669 92.0261 44.3372 92.4887 44.2445 92.587 C 44.1512 92.6861 44.0749 92.9569 44.0749 93.1892 C 44.0749 93.805 43.8682 93.8435 43.0315 93.3845 Z M 42.7807 91.937 C 42.8819 91.937 42.9382 91.5372 42.9068 91.0469 C 42.8584 90.2957 42.7671 90.1126 42.3196 89.8688 C 41.8114 89.5916 41.7715 89.6008 41.3232 90.1168 C 40.9961 90.4924 40.8935 90.7725 40.9819 91.0504 C 41.1964 91.7275 41.8335 92.1779 42.3459 92.0161 C 42.4842 91.9727 42.6802 91.937 42.7807 91.937 Z M 41.5584 91.4032 C 41.3867 91.2137 41.2477 90.9378 41.2491 90.7903 C 41.2505 90.6435 41.3589 90.734 41.49 90.992 C 41.81 91.6256 42.3338 91.7026 42.5555 91.1495 C 42.6595 90.8901 42.7358 90.8302 42.7429 91.0034 C 42.7572 91.3427 42.3994 91.7482 42.0865 91.7482 C 41.9675 91.7482 41.7302 91.5928 41.5584 91.4032 Z M 23.7997 87.2319 C 24.1888 86.4786 24.1639 86.3068 23.6294 86.0631 C 22.911 85.7359 22.2525 85.9961 22.1056 86.6646 C 21.9474 87.3844 22.2596 87.7885 22.9737 87.7885 C 23.3785 87.7885 23.583 87.6509 23.7997 87.2319 Z M 22.39 86.7622 C 22.39 86.6133 22.467 86.4429 22.5611 86.3852 C 22.6551 86.3268 22.6872 86.4493 22.633 86.6567 C 22.5183 87.0972 22.39 87.1528 22.39 86.7622 Z M 23.0514 86.2819 C 22.9851 86.175 23.0606 86.1436 23.2288 86.2077 C 23.5553 86.3332 23.6151 86.4686 23.3443 86.4686 C 23.2467 86.4686 23.1148 86.3845 23.0514 86.2819 Z M 42.7593 85.5713 C 43.209 85.0005 43.229 84.6163 42.8384 84.059 C 42.4222 83.4646 41.5705 83.5024 41.0717 84.1367 C 40.5493 84.8009 40.5785 85.4181 41.1543 85.8706 C 41.7238 86.3189 42.2483 86.2206 42.7593 85.5713 Z M 42.5334 84.833 C 42.6139 84.4381 42.661 84.3904 42.7165 84.6498 C 42.7572 84.8422 42.708 85.0824 42.6075 85.1829 C 42.4892 85.3012 42.4635 85.1772 42.5334 84.833 Z M 44.2823 79.2826 C 44.7798 78.7502 44.8083 78.6504 44.593 78.1986 C 44.2645 77.5108 43.2931 77.4068 42.8676 78.0147 C 42.5113 78.5228 42.4749 79.3246 42.7928 79.6425 C 43.1755 80.0252 43.71 79.8955 44.2823 79.2826 Z M 42.9539 79.2206 C 42.7871 79.0196 42.7828 78.8493 42.9375 78.5606 C 43.2197 78.0325 43.2703 78.0703 43.1727 78.7374 C 43.0757 79.3937 43.3644 79.4793 43.9659 78.9733 C 44.3571 78.6433 44.3571 78.6433 43.9987 79.0673 C 43.5832 79.5577 43.271 79.6033 42.9539 79.2206 Z M 40.1017 76.1988 C 40.9847 75.7419 41.1486 74.7805 40.4231 74.3052 C 39.6833 73.8205 38.4397 74.5033 38.424 75.4027 C 38.4069 76.3869 39.1004 76.7162 40.1017 76.1988 Z M 39.6876 75.8852 C 39.8159 75.7562 39.9677 75.6985 40.0261 75.7569 C 40.0839 75.8146 39.9791 75.9201 39.7931 75.9907 C 39.5244 76.0933 39.503 76.0719 39.6876 75.8852 Z M 39.2151 74.6679 C 39.394 74.4812 39.5807 74.3693 39.6306 74.4185 C 39.6805 74.4684 39.5337 74.6209 39.3049 74.7584 C 38.9079 74.9972 38.9037 74.9929 39.2151 74.6679 Z M 41.9376 68.2402 C 41.8684 68.1711 41.815 67.9801 41.8178 67.8162 C 41.8228 67.571 41.8592 67.5788 42.0238 67.8618 C 42.2269 68.211 42.1678 68.4704 41.9376 68.2402 Z M 33.4744 84.6669 C 34.2726 84.3334 35.1813 83.5373 35.3994 82.98 C 35.5868 82.5003 35.2234 81.6045 34.3667 80.4385 L 33.7075 79.5406 L 31.6001 79.4037 C 30.4412 79.3289 29.3893 79.227 29.2624 79.1785 C 29.1135 79.1215 28.9995 79.346 28.9403 79.8092 C 28.8897 80.2048 28.7094 81.1448 28.5391 81.8981 C 28.1378 83.6749 28.2633 84.1509 29.251 84.5992 C 30.2374 85.0468 32.4781 85.0831 33.4744 84.6669 Z M 36.9067 78.2677 C 37.8396 77.7845 37.6087 76.625 36.1548 74.4947 C 35.3509 73.3167 34.5306 71.5685 34.2976 70.5343 C 34.18 70.0162 33.9947 68.1069 33.8856 66.2917 C 33.7759 64.4772 33.5963 62.709 33.4865 62.3634 C 33.0718 61.0563 31.3528 59.6972 30.1212 59.7022 C 29.5212 59.7044 26.9206 61.5381 26.2264 62.4475 C 25.7204 63.111 25.704 63.2058 25.7403 65.1892 C 25.7767 67.1534 25.7489 67.3151 25.1125 68.8524 C 24.0926 71.3162 23.144 74.2809 23.144 75.0043 C 23.144 76.7426 27.1451 78.401 31.8181 78.5991 C 34.1764 78.6989 36.3451 78.5578 36.9067 78.2677 Z M 30.4042 78.1715 C 30.0927 78.0924 29.4827 78.0176 29.0479 78.0054 C 28.6132 77.9933 28.2055 77.8978 28.1414 77.7945 C 28.0772 77.6904 27.7736 77.6056 27.4679 77.6056 C 27.1614 77.6056 26.7631 77.5294 26.5827 77.436 C 26.4031 77.3433 25.8494 77.0675 25.3534 76.8238 C 24.1154 76.2152 23.3329 75.4676 23.3329 74.8931 C 23.3329 74.6344 23.4177 74.37 23.521 74.3059 C 23.6251 74.2417 23.7099 73.9809 23.7099 73.7265 C 23.7099 73.472 23.8083 73.0736 23.928 72.842 C 24.3969 71.9341 24.4639 71.7523 24.4639 71.386 C 24.4639 71.1772 24.5487 71.0061 24.6528 71.0061 C 24.7568 71.0061 24.8417 70.7987 24.8417 70.5457 C 24.8417 70.2927 24.9265 70.0333 25.0298 69.9692 C 25.1339 69.905 25.2187 69.6456 25.2187 69.3919 C 25.2187 69.1389 25.3035 68.9322 25.4068 68.9322 C 25.5109 68.9322 25.5957 68.7669 25.5957 68.5659 C 25.5957 68.3642 25.6805 68.1476 25.7838 68.0834 C 25.8943 68.015 25.9727 66.9502 25.9727 65.5263 C 25.9727 64.0254 26.0454 63.0861 26.1615 63.0861 C 26.2649 63.0861 26.3497 62.9742 26.3497 62.8373 C 26.3497 62.7005 26.5414 62.4247 26.7745 62.2244 C 27.6418 61.4818 28.765 60.6351 28.8833 60.6351 C 28.9503 60.6351 29.2468 60.4562 29.5418 60.2382 C 30.0343 59.874 30.1376 59.8626 30.7912 60.0963 C 31.7298 60.4334 33.0568 61.774 33.2293 62.5601 C 33.3041 62.9015 33.4345 64.4109 33.5193 65.9147 C 33.7089 69.2615 33.8878 70.7923 34.1044 70.9263 C 34.1957 70.9826 34.2698 71.2777 34.2698 71.5827 C 34.2698 71.8877 34.3546 72.1372 34.4579 72.1372 C 34.562 72.1372 34.6468 72.2476 34.6468 72.3831 C 34.6468 72.7294 35.0901 73.6431 35.2597 73.6445 C 35.3374 73.6452 35.4008 73.725 35.4008 73.8213 C 35.4008 73.9175 35.7401 74.5076 36.1555 75.1319 C 36.5703 75.7569 36.9096 76.399 36.9096 76.5594 C 36.9096 76.7205 37.0001 76.8516 37.1105 76.8516 C 37.221 76.8516 37.2852 77.0846 37.2517 77.3704 C 37.2068 77.7603 37.0756 77.9042 36.7207 77.952 C 36.462 77.9862 36.1691 78.0924 36.0707 78.1872 C 35.8576 78.3924 31.2195 78.3789 30.4042 78.1715 Z M 30.0742 75.2445 C 30.6586 74.5717 30.613 74.1163 29.9324 73.8348 C 29.2368 73.5462 28.3602 73.8455 27.9162 74.5232 C 27.6532 74.9252 27.656 75.0114 27.9497 75.459 C 28.229 75.8859 28.3652 75.9372 28.961 75.8424 C 29.3679 75.7776 29.8233 75.5331 30.0742 75.2445 Z M 27.3574 72.3374 C 28.4578 71.9191 28.0673 70.0633 26.8792 70.0633 C 26.0418 70.0633 25.5957 70.5343 25.5957 71.4188 C 25.5957 72.0003 25.6819 72.1842 26.0197 72.3203 C 26.5813 72.5463 26.8015 72.5484 27.3574 72.3374 Z M 25.7988 71.2734 C 25.8081 71.0539 25.853 71.009 25.9128 71.1594 C 25.9677 71.2955 25.9606 71.458 25.8979 71.5207 C 25.8351 71.5834 25.7909 71.4722 25.7988 71.2734 Z M 37.2866 60.0457 C 37.2866 59.8376 37.3757 59.5012 37.484 59.2981 C 37.6486 58.991 37.5738 58.8278 37.0393 58.321 C 36.2275 57.5528 35.5897 56.3098 35.5897 55.4988 C 35.5897 54.8488 35.8783 54.3043 36.6908 53.4227 L 37.1683 52.9039 L 36.2026 52.9039 C 34.9119 52.9039 32.9763 52.4813 31.0577 51.7814 C 30.1918 51.465 29.4705 51.207 29.4542 51.207 C 29.4385 51.207 29.6665 51.6852 29.9616 52.2703 C 30.5945 53.5247 30.6009 53.7862 30.0571 56.0141 L 29.6423 57.7095 L 32.1916 58.6774 C 33.5942 59.2098 35.2504 59.8554 35.8726 60.1127 C 37.107 60.623 37.2866 60.6145 37.2866 60.0457 Z M 14.5647 58.7066 C 17.0755 57.4238 19.195 53.8995 19.2449 50.9241 C 19.2635 49.8002 19.1751 49.4082 18.6491 48.2843 C 18.3099 47.558 17.6877 46.4348 17.2672 45.7877 C 16.5488 44.6816 16.4077 43.9233 16.9615 44.145 C 17.63 44.4122 19.5941 47.9899 19.9533 49.5963 C 20.1479 50.4644 20.1507 50.9547 19.969 52.0294 C 19.7295 53.442 18.7425 55.7589 17.9215 56.8351 C 17.3214 57.6219 17.3649 57.6532 19.6882 58.0908 C 21.4614 58.4244 23.985 58.4165 26.835 58.0673 L 27.7915 57.9504 L 28.3972 56.349 C 29.276 54.0257 29.328 53.3593 28.7343 52.0622 C 28.4649 51.4735 28.2633 50.9226 28.2868 50.8371 C 28.3103 50.7523 27.7957 50.3247 27.1422 49.8864 C 25.5586 48.8238 23.4947 46.7506 20.9782 43.6946 C 19.5963 42.0155 18.5301 40.9179 17.7732 40.3948 C 16.8745 39.7734 16.521 39.3743 16.0728 38.4784 C 15.5831 37.4992 15.5076 37.1407 15.5076 35.8094 C 15.5076 34.3726 15.5454 34.2251 16.0913 33.5466 C 17.027 32.3849 18.2664 31.7186 19.6576 31.6302 C 20.8285 31.5554 20.8563 31.5654 21.693 32.3365 C 22.1591 32.7662 22.8255 33.5374 23.1725 34.0505 C 23.6108 34.6969 23.8909 34.9456 24.0869 34.863 C 24.243 34.7967 25.1759 34.6734 26.1615 34.5893 C 28.8249 34.3605 30.2944 34.0761 31.3471 33.5865 C 31.8652 33.3449 33.9868 31.8633 36.0608 30.2939 C 38.6364 28.3461 40.4516 27.1282 41.7843 26.4547 L 43.7364 25.4676 L 45.5559 25.4883 C 47.1046 25.5061 47.7118 25.6158 49.6374 26.2259 C 51.1954 26.7191 52.2722 26.9479 53.0933 26.9593 C 54.235 26.9757 54.3127 26.9464 54.922 26.2822 C 56.465 24.5996 57.0643 19.2687 56.1364 15.4736 C 56.0096 14.9555 55.6639 14.0133 55.3689 13.3812 C 53.7525 9.9232 45.8203 4.8981 38.5858 2.7486 C 33.912 1.3596 28.5398 0.9861 24.7112 1.7822 C 17.9585 3.1876 11.622 7.0682 7.5918 12.2665 C 4.7425 15.9411 3.2273 19.2173 2.3628 23.5719 C 2.0264 25.2631 1.948 26.3143 1.9473 29.1444 C 1.9459 34.7047 2.3621 36.2677 5.5286 42.592 C 7.8769 47.2822 7.9638 47.7334 6.7487 48.9129 C 5.7288 49.9021 3.9364 50.8221 2.7548 50.9618 C 1.0835 51.16 0.7806 51.8541 1.3722 54.1262 C 1.9402 56.3063 2.7113 56.952 6.0795 58.063 C 10.1689 59.4122 12.7937 59.611 14.5647 58.7066 Z M 39.5273 57.5984 C 39.8159 57.242 39.9249 57.2228 40.5949 57.4088 C 41.6539 57.7024 41.6653 57.6939 41.247 56.9135 C 40.778 56.0397 40.7773 55.4518 41.2413 53.6651 C 41.4423 52.8911 41.5855 52.2375 41.5599 52.2119 C 41.5342 52.1862 40.979 52.3309 40.3262 52.534 C 39.6727 52.7378 38.9015 52.9039 38.6115 52.9039 C 38.2808 52.9039 38.0406 53.0265 37.9665 53.2339 C 37.9016 53.4156 37.6386 53.9031 37.3821 54.3179 C 36.7784 55.2943 36.7884 55.9371 37.4199 56.6876 C 37.8432 57.19 38.8994 57.9918 39.1417 57.9946 C 39.1773 57.9946 39.3505 57.8165 39.5273 57.5984 Z M 40.1616 51.2198 C 40.8122 50.9697 41.6646 50.4195 42.2961 49.8422 L 43.3473 48.8822 L 41.9376 48.146 C 40.2478 47.2644 38.2295 45.2988 38.2295 44.5355 C 38.2295 44.0089 38.7775 43.5969 39.2408 43.7744 C 39.3976 43.835 39.8815 44.4301 40.3162 45.0978 C 40.7517 45.7656 41.3624 46.5268 41.6739 46.7883 C 42.2647 47.2865 43.5547 48.0013 43.8604 48.0013 C 44.0699 48.0013 45.5559 45.7022 46.704 43.6033 C 47.5471 42.0611 47.6469 41.9827 49.3773 41.5073 C 49.9603 41.3477 50.5304 41.104 50.6445 40.9664 C 50.9338 40.6179 50.6352 39.5973 49.6759 37.6503 C 48.733 35.736 48.691 34.8879 49.4243 32.5759 C 49.9147 31.028 50.0594 29.3218 49.8071 28.0589 C 49.6987 27.5173 49.6239 27.4774 48.1572 27.1866 C 44.3037 26.4219 42.7607 26.9992 35.9973 31.7357 C 31.8338 34.652 29.8811 35.5208 26.1487 36.1216 C 24.8794 36.3254 24.7226 36.3959 24.734 36.7544 C 24.7426 37.021 24.6179 37.177 24.3677 37.2134 C 24.0812 37.254 23.7826 36.9547 23.1512 35.9947 C 21.9474 34.1631 20.6945 32.9159 20.0602 32.9159 C 19.2969 32.9159 18.1445 33.5758 17.553 34.3512 C 17.1439 34.8872 17.0156 35.2863 16.9615 36.1914 C 16.8539 37.9717 17.1831 38.6901 18.523 39.6023 C 19.2813 40.119 20.1956 41.0526 21.3053 42.4424 C 23.6386 45.3658 26.1901 48.0569 27.5477 49.0255 C 28.8626 49.9634 30.9095 50.8307 32.8551 51.274 C 33.5813 51.4393 34.3446 51.6147 34.5527 51.6631 C 34.7601 51.7116 35.8626 51.7251 37.0036 51.6938 C 38.5908 51.6503 39.3327 51.5391 40.1616 51.2198 Z M 40.8044 34.0797 C 40.5906 33.8431 40.4922 33.3955 40.4922 32.6565 C 40.4922 31.2767 41.0146 30.6531 42.1699 30.6531 C 43.1092 30.6531 43.509 31.1499 43.509 32.3165 C 43.509 33.0043 43.4021 33.2494 42.8683 33.7832 C 42.1364 34.5152 41.3061 34.6342 40.8044 34.0797 Z "/>
        <path id="path25" fill="#635c59" stroke-width="0.18856497052757265" d="M 27.9525 107.9404 C 26.8115 107.7373 25.369 107.4422 24.7469 107.2847 C 24.1247 107.1272 23.4818 106.9975 23.3179 106.9961 C 23.154 106.9947 22.39 106.6818 21.6203 106.3012 C 19.5328 105.2671 19.5286 105.2486 20.3973 101.6239 C 20.7922 99.9783 21.2347 98.2065 21.3816 97.6884 C 21.5277 97.1696 21.8526 95.8547 22.1021 94.7657 C 22.3522 93.6767 22.6858 92.3654 22.8433 91.8515 C 23.0015 91.3377 23.1105 90.8979 23.087 90.8737 C 23.0628 90.8495 22.0265 90.95 20.7836 91.0968 C 17.1853 91.5215 16.5446 91.446 16.5446 90.5958 C 16.5446 90.2344 17.5131 88.9402 19.4402 86.7273 C 21.2597 84.6377 21.7365 83.7155 22.3045 81.189 C 22.5725 79.996 22.8554 78.7659 22.9331 78.4544 C 23.0557 77.9612 22.9837 77.8002 22.3651 77.1923 C 21.0487 75.898 21.1457 74.9936 22.9994 71.2962 C 24.516 68.2701 24.6585 67.7264 24.6129 65.1414 C 24.5651 62.4924 24.739 62.037 26.4224 60.3942 L 27.6532 59.1934 L 23.8432 59.1998 C 20.2598 59.2062 19.9334 59.177 18.3669 58.7087 L 16.7013 58.2106 L 15.8782 58.8384 C 14.5747 59.8334 13.3931 60.1405 11.374 60.0101 C 8.6858 59.8355 3.7718 58.3503 2.2146 57.242 C 1.3116 56.5985 0.5013 54.7063 0.3815 52.9616 C 0.2875 51.5869 0.3138 51.4329 0.7293 50.9497 C 1.0828 50.5392 1.4712 50.3703 2.5289 50.1686 C 4.5073 49.7923 6.7394 48.2679 6.7394 47.2943 C 6.7394 47.0499 5.9006 45.2211 4.8757 43.2299 C 1.9445 37.5341 1.2781 35.3939 0.9895 30.7472 C 0.8512 28.5101 1.1028 25.0393 1.5667 22.7915 C 2.9679 16.011 7.4621 9.4813 13.5 5.4539 C 16.8717 3.2054 21.6959 1.2142 25.3127 0.5777 C 28.7935 -0.0345 33.9013 0.2756 37.7926 1.336 C 44.4455 3.1484 52.9714 8.2213 55.3489 11.7812 C 56.7543 13.8857 57.4456 16.4593 57.4549 19.6222 C 57.4692 24.2931 56.1036 27.5266 53.925 27.9805 C 53.3912 28.0917 52.6528 28.1024 52.0891 28.0069 C 50.5483 27.7461 50.6409 27.6484 50.7785 29.3803 C 50.8782 30.6374 50.8255 31.2311 50.5055 32.4762 C 49.9375 34.6812 49.981 35.6904 50.7029 37.1172 C 51.3486 38.3922 51.8004 39.8667 51.804 40.7091 C 51.8069 41.4546 50.9937 42.2001 49.6353 42.6961 C 47.7545 43.3824 47.6704 43.458 46.766 45.2618 C 45.677 47.4362 44.474 49.2984 43.4364 50.4181 C 42.6353 51.2818 42.6111 51.3488 42.2747 53.5168 L 41.9312 55.7326 L 42.3431 56.726 C 42.5697 57.2727 42.755 57.8193 42.755 57.9412 C 42.755 58.3552 41.9212 58.7494 41.0432 58.7494 L 40.1701 58.7494 L 40.6234 59.6958 C 41.8535 62.2665 44.7726 70.7895 45.7611 74.6971 C 46.0776 75.95 46.4332 77.6897 46.5515 78.5628 C 46.9784 81.7264 46.456 89.5581 45.5666 93.3147 C 45.3129 94.3872 44.5824 95.3323 44.0108 95.328 C 43.787 95.3266 42.8969 94.9453 42.0331 94.4813 L 40.4623 93.6382 L 40.5856 95.5689 C 40.9049 100.5591 41.031 101.4371 41.4815 101.7842 C 41.7152 101.9638 41.9782 102.1128 42.0659 102.1149 C 42.4201 102.1242 46.4867 104.2074 47.2335 104.7618 C 49.12 106.1637 47.7096 107.1023 42.966 107.6026 C 40.2906 107.8848 36.1064 107.867 35.6324 107.5705 C 35.1428 107.2655 34.9019 106.5329 34.552 104.2879 C 34.3902 103.2509 34.1329 101.6809 33.9804 100.7993 C 33.8279 99.9177 33.5728 98.3056 33.4138 97.2166 C 33.2549 96.1276 32.9584 94.2889 32.7546 93.1301 C 32.5508 91.9712 32.384 90.9257 32.384 90.8067 C 32.384 90.6877 32.2009 90.6178 31.9764 90.6506 C 31.4867 90.7233 31.3214 91.1645 29.6551 96.8674 C 28.9988 99.1124 28.4065 101.1228 28.3388 101.3359 C 28.2397 101.6481 28.5626 102.0565 30.0179 103.4597 C 32.9356 106.2741 33.9469 107.8748 33.0283 108.2276 C 32.4588 108.4457 30.0158 108.3074 27.9525 107.9404 Z M 31.7255 107.0146 C 31.8067 106.6455 31.7618 106.3312 31.5993 106.133 C 31.062 105.4774 27.5534 102.4513 27.1472 102.2924 C 26.5956 102.0771 26.5457 102.2703 28.8063 95.8967 L 30.6451 90.7112 L 29.9587 90.5808 C 29.1249 90.4219 25.2792 90.3919 24.7283 90.5395 C 24.2786 90.6606 24.3934 90.2693 22.8782 96.8396 C 22.2917 99.3803 21.6417 102.1299 21.4322 102.9502 C 21.2233 103.7698 21.0943 104.5502 21.1457 104.6841 C 21.3823 105.3006 24.1625 106.2314 28.053 106.9968 C 29.1384 107.2106 30.1968 107.4209 30.4042 107.4643 C 31.3834 107.671 31.5972 107.5976 31.7255 107.0139 Z M 45.2537 106.4545 C 46.2992 106.2243 46.3377 106.1943 46.3377 105.6092 C 46.3377 105.0205 46.2778 104.9756 44.216 104.0306 C 40.9819 102.5482 40.4253 102.2133 40.277 101.6609 C 40.1145 101.0523 39.7382 95.7143 39.7382 94.0152 L 39.7382 92.758 L 38.3706 92.0789 C 36.9623 91.379 35.3174 90.8366 34.17 90.6948 C 33.5379 90.6157 33.515 90.635 33.515 91.2393 C 33.515 91.8665 34.2028 96.1369 35.0993 101.0822 C 35.363 102.534 35.6681 104.3549 35.7771 105.1281 C 35.8869 105.9014 36.08 106.6055 36.2076 106.6932 C 36.5497 106.9284 43.9958 106.7317 45.2537 106.4545 Z M 44.417 93.2099 C 44.9558 91.0775 45.2915 88.7207 45.5937 84.9598 C 45.8324 81.9865 45.6792 79.011 45.1774 76.8516 C 44.1362 72.3724 39.6406 60.0714 39.0448 60.07 C 38.7668 60.0693 38.0406 60.9737 38.0406 61.3207 C 38.0406 61.6735 37.5196 61.6436 35.9211 61.201 C 35.1728 60.9936 34.4073 60.8233 34.2213 60.8233 C 33.9092 60.8233 33.9049 60.866 34.1622 61.3642 C 34.5791 62.1695 34.8321 64.0582 34.8335 66.3708 C 34.8371 69.9913 35.2533 71.4395 37.2467 74.7485 C 38.2758 76.4575 38.5281 77.292 38.2423 78.0439 C 37.9936 78.6967 37.3721 79.0723 36.1584 79.3025 C 35.6025 79.408 35.1093 79.532 35.063 79.5783 C 35.0167 79.6247 35.2732 80.0694 35.6331 80.5668 C 36.5939 81.8946 36.7642 82.5274 36.4207 83.4995 C 35.8277 85.1815 33.917 86.465 32.007 86.4643 C 29.8205 86.4636 27.6895 85.5043 27.1835 84.2935 C 26.8479 83.491 26.8514 82.2081 27.1928 80.6231 C 27.3382 79.9489 27.3988 79.3403 27.3275 79.2712 C 27.1992 79.1457 25.2614 78.7224 24.5787 78.6704 C 24.2808 78.6476 24.1489 78.9305 23.7819 80.3801 C 23.201 82.6707 22.5803 84.1623 21.6146 85.5849 C 21.1792 86.2263 20.7722 86.7936 20.7095 86.8456 C 20.3589 87.1371 18.054 90.1147 18.1239 90.1852 C 18.1702 90.2316 19.7217 90.0969 21.5718 89.8866 C 32.8579 88.6024 34.6917 88.8696 41.3411 92.7659 C 43.8789 94.2526 44.1441 94.291 44.417 93.2099 Z M 41.5584 91.4032 C 41.3867 91.2137 41.2477 90.9378 41.2491 90.7903 C 41.2505 90.6435 41.3589 90.734 41.49 90.992 C 41.81 91.6256 42.3338 91.7026 42.5555 91.1495 C 42.6595 90.8901 42.7358 90.8302 42.7429 91.0034 C 42.7572 91.3427 42.3994 91.7482 42.0865 91.7482 C 41.9675 91.7482 41.7302 91.5928 41.5584 91.4032 Z M 22.39 86.7622 C 22.39 86.6133 22.467 86.4429 22.5611 86.3852 C 22.6551 86.3268 22.6872 86.4493 22.633 86.6567 C 22.5183 87.0972 22.39 87.1528 22.39 86.7622 Z M 23.0514 86.2819 C 22.9851 86.175 23.0606 86.1436 23.2288 86.2077 C 23.5553 86.3332 23.6151 86.4686 23.3443 86.4686 C 23.2467 86.4686 23.1148 86.3845 23.0514 86.2819 Z M 42.5334 84.833 C 42.6139 84.4381 42.661 84.3904 42.7165 84.6498 C 42.7572 84.8422 42.708 85.0824 42.6075 85.1829 C 42.4892 85.3005 42.4635 85.1772 42.5334 84.833 Z M 42.9539 79.2206 C 42.7871 79.0196 42.7828 78.85 42.9375 78.5606 C 43.2197 78.0325 43.2703 78.0703 43.1727 78.7374 C 43.0757 79.3937 43.3644 79.4793 43.9659 78.9733 C 44.3571 78.6433 44.3571 78.6433 43.9987 79.0673 C 43.5832 79.5577 43.271 79.6033 42.9539 79.2206 Z M 39.6876 75.8852 C 39.8159 75.7562 39.9677 75.6985 40.0261 75.7569 C 40.0839 75.8146 39.9791 75.9201 39.7931 75.9907 C 39.5244 76.0933 39.503 76.0719 39.6876 75.8852 Z M 39.2151 74.6679 C 39.394 74.4812 39.5807 74.3693 39.6306 74.4185 C 39.6805 74.4684 39.5337 74.6209 39.3049 74.7584 C 38.9079 74.9972 38.9037 74.9929 39.2151 74.6679 Z M 33.4744 84.6669 C 34.2726 84.3334 35.1813 83.5373 35.3994 82.98 C 35.5868 82.5003 35.2234 81.6045 34.3667 80.4385 L 33.7075 79.5406 L 31.6001 79.4037 C 30.4412 79.3289 29.3893 79.227 29.2624 79.1785 C 29.1135 79.1215 28.9995 79.346 28.9403 79.8092 C 28.8897 80.2048 28.7094 81.1448 28.5391 81.8981 C 28.1378 83.6749 28.2633 84.1509 29.251 84.5992 C 30.2374 85.0468 32.4781 85.0831 33.4744 84.6669 Z M 36.9067 78.2677 C 37.8396 77.7845 37.6087 76.625 36.1548 74.4947 C 35.3509 73.3167 34.5306 71.5685 34.2976 70.5343 C 34.18 70.0162 33.9947 68.1069 33.8856 66.2917 C 33.7759 64.4772 33.5963 62.709 33.4865 62.3634 C 33.0718 61.0563 31.3528 59.6972 30.1212 59.7022 C 29.5212 59.7044 26.9206 61.5381 26.2264 62.4475 C 25.7204 63.111 25.704 63.2058 25.7403 65.1892 C 25.7767 67.1534 25.7489 67.3151 25.1125 68.8524 C 24.0926 71.3162 23.144 74.2809 23.144 75.0043 C 23.144 76.7426 27.1451 78.401 31.8181 78.5991 C 34.1764 78.6989 36.3451 78.5578 36.9067 78.2677 Z M 25.7988 71.2734 C 25.8081 71.0532 25.853 71.009 25.9128 71.1594 C 25.9677 71.2955 25.9606 71.458 25.8979 71.5207 C 25.8351 71.5834 25.7909 71.4722 25.7988 71.2734 Z M 37.2866 60.0457 C 37.2866 59.8376 37.3757 59.5012 37.484 59.2981 C 37.6486 58.991 37.5738 58.8278 37.0393 58.321 C 36.2275 57.5528 35.5897 56.3098 35.5897 55.4988 C 35.5897 54.8488 35.8783 54.3043 36.6908 53.422 L 37.1683 52.9039 L 36.2026 52.9039 C 34.9119 52.9039 32.9763 52.4813 31.0577 51.7814 C 30.1918 51.465 29.4705 51.207 29.4542 51.207 C 29.4385 51.207 29.6665 51.6852 29.9616 52.2703 C 30.5945 53.5247 30.6009 53.7862 30.0571 56.0141 L 29.6423 57.7095 L 32.1916 58.6774 C 33.5942 59.2098 35.2504 59.8554 35.8726 60.1127 C 37.107 60.623 37.2866 60.6145 37.2866 60.0457 Z M 14.5647 58.7066 C 17.0755 57.4238 19.195 53.8995 19.2449 50.9241 C 19.2635 49.8002 19.1751 49.4082 18.6491 48.2843 C 18.3099 47.558 17.6877 46.4348 17.2672 45.7877 C 16.5488 44.6816 16.4077 43.9233 16.9615 44.145 C 17.63 44.4122 19.5941 47.9899 19.9533 49.5963 C 20.1479 50.4644 20.1507 50.9547 19.969 52.0294 C 19.7295 53.442 18.7425 55.7589 17.9215 56.8351 C 17.3214 57.6219 17.3649 57.6532 19.6882 58.0908 C 21.4614 58.4244 23.985 58.4165 26.835 58.0673 L 27.7915 57.9504 L 28.3972 56.349 C 29.276 54.0257 29.328 53.3593 28.7343 52.0622 C 28.4649 51.4735 28.2633 50.9226 28.2868 50.8371 C 28.3103 50.7523 27.7957 50.3247 27.1422 49.8864 C 25.5586 48.8238 23.4947 46.7506 20.9782 43.6946 C 19.5963 42.0155 18.5301 40.9179 17.7732 40.3948 C 16.8745 39.7734 16.521 39.3743 16.0728 38.4784 C 15.5831 37.4992 15.5076 37.1407 15.5076 35.8094 C 15.5076 34.3726 15.5454 34.2251 16.0913 33.5466 C 17.0278 32.3849 18.2664 31.7186 19.6576 31.6302 C 20.8285 31.5554 20.8563 31.5654 21.693 32.3365 C 22.1591 32.7662 22.8255 33.5374 23.1725 34.0505 C 23.6108 34.6969 23.8909 34.9456 24.0869 34.863 C 24.243 34.7967 25.1759 34.6734 26.1615 34.5893 C 28.8249 34.3605 30.2951 34.0761 31.3471 33.5865 C 31.8652 33.3449 33.9868 31.8633 36.0608 30.2939 C 38.6364 28.3461 40.4516 27.1282 41.7843 26.4547 L 43.7364 25.4676 L 45.5559 25.4883 C 47.1046 25.5061 47.7118 25.6158 49.6374 26.2259 C 51.1954 26.7191 52.2722 26.9479 53.0933 26.9593 C 54.235 26.9757 54.3127 26.9464 54.922 26.2822 C 56.465 24.5996 57.0643 19.2687 56.1364 15.4736 C 56.0096 14.9555 55.6639 14.0133 55.3689 13.3812 C 53.7525 9.9232 45.8203 4.8981 38.5858 2.7486 C 33.912 1.3596 28.5398 0.9861 24.7112 1.7822 C 17.9585 3.1876 11.622 7.0682 7.5918 12.2665 C 4.7425 15.9411 3.2273 19.2173 2.3628 23.5719 C 2.0264 25.2631 1.948 26.3143 1.9473 29.1444 C 1.9459 34.7047 2.3621 36.2677 5.5286 42.592 C 7.8769 47.2822 7.9638 47.7334 6.7487 48.9129 C 5.7288 49.9021 3.9364 50.8221 2.7548 50.9618 C 1.0835 51.16 0.7806 51.8541 1.3722 54.1262 C 1.9402 56.3063 2.7113 56.952 6.0795 58.063 C 10.1689 59.4122 12.7937 59.611 14.5647 58.7066 Z M 39.5273 57.5984 C 39.8159 57.242 39.9249 57.2228 40.5949 57.4088 C 41.6539 57.7024 41.6653 57.6939 41.247 56.9135 C 40.778 56.0397 40.7773 55.4518 41.2413 53.6651 C 41.4423 52.8911 41.5855 52.2375 41.5599 52.2112 C 41.5342 52.1855 40.979 52.3309 40.3262 52.534 C 39.6727 52.7378 38.9015 52.9039 38.6115 52.9039 C 38.2808 52.9039 38.0406 53.0265 37.9665 53.2339 C 37.9016 53.4156 37.6386 53.9031 37.3821 54.3179 C 36.7784 55.2943 36.7884 55.9371 37.4199 56.6876 C 37.8432 57.19 38.8994 57.9918 39.1417 57.9946 C 39.1773 57.9946 39.3505 57.8165 39.5273 57.5984 Z M 40.1616 51.2198 C 40.8122 50.9697 41.6653 50.4195 42.2961 49.8422 L 43.3473 48.8822 L 41.9376 48.146 C 40.2478 47.2644 38.2295 45.2988 38.2295 44.5355 C 38.2295 44.0089 38.7775 43.5969 39.2408 43.7744 C 39.3976 43.835 39.8815 44.4301 40.3162 45.0978 C 40.7517 45.7656 41.3624 46.5268 41.6739 46.7883 C 42.2647 47.2865 43.5547 48.0013 43.8604 48.0013 C 44.0699 48.0013 45.5559 45.7022 46.704 43.6033 C 47.5471 42.0611 47.6469 41.9827 49.3773 41.5073 C 49.9603 41.3477 50.5304 41.104 50.6445 40.9664 C 50.9338 40.6179 50.6352 39.5973 49.6759 37.6503 C 48.733 35.736 48.691 34.8879 49.4243 32.5759 C 49.9147 31.028 50.0594 29.3218 49.8071 28.0589 C 49.6987 27.5173 49.6239 27.4774 48.1572 27.1866 C 44.3037 26.4219 42.7607 26.9992 35.9973 31.7357 C 31.8338 34.6513 29.8811 35.5208 26.1487 36.1216 C 24.8794 36.3254 24.7226 36.3952 24.734 36.7544 C 24.7426 37.021 24.6179 37.177 24.3677 37.2134 C 24.0812 37.254 23.7826 36.9547 23.1512 35.9947 C 21.9474 34.1631 20.6945 32.9159 20.0602 32.9159 C 19.2969 32.9159 18.1445 33.5758 17.553 34.3512 C 17.1439 34.8872 17.0156 35.2863 16.9615 36.1914 C 16.8539 37.9717 17.1831 38.6901 18.523 39.6023 C 19.2813 40.119 20.1956 41.0526 21.3053 42.4424 C 23.6386 45.3658 26.1901 48.0569 27.5477 49.0255 C 28.8626 49.9634 30.9095 50.8307 32.8551 51.274 C 33.5813 51.4393 34.3453 51.6139 34.5527 51.6631 C 34.7601 51.7116 35.8626 51.7251 37.0036 51.6938 C 38.5908 51.6503 39.3327 51.5391 40.1616 51.2198 Z M 40.8044 34.0797 C 40.5906 33.8431 40.4922 33.3955 40.4922 32.6565 C 40.4922 31.2767 41.0146 30.6531 42.1699 30.6531 C 43.1092 30.6531 43.509 31.1499 43.509 32.3165 C 43.509 33.0043 43.4021 33.2494 42.8683 33.7832 C 42.1364 34.5152 41.3061 34.6342 40.8044 34.0797 Z "/>
        <path id="path23" fill="#050405" stroke-width="0.18856497052757265" d="M 29.4613 108.0423 C 24.2266 107.2299 20.8934 106.2585 20.1807 105.3384 C 19.8977 104.9742 19.8771 104.176 20.1272 103.273 C 20.2313 102.8982 20.9033 100.1728 21.6217 97.2166 C 22.3401 94.2611 23.0207 91.5985 23.1348 91.2992 L 23.3422 90.7561 L 22.1591 90.8773 C 21.5084 90.9443 20.2405 91.0939 19.3418 91.2094 C 17.4796 91.4503 16.8111 91.3476 16.6358 90.796 C 16.484 90.3185 16.7641 89.8809 18.4346 87.9852 C 21.4977 84.5094 21.8092 83.9143 22.6523 79.9304 L 23.0977 77.8237 L 22.4563 77.2015 C 21.611 76.3826 21.3267 75.4426 21.631 74.4719 C 21.7571 74.0693 22.3622 72.7102 22.9751 71.4516 C 24.6378 68.035 24.6906 67.8432 24.6635 65.2961 C 24.635 62.5344 24.8609 61.9543 26.6141 60.2816 C 27.3075 59.621 27.8499 59.0622 27.8193 59.0401 C 27.7886 59.018 26.8308 59.0772 25.6897 59.172 C 22.9281 59.4008 20.7957 59.2504 18.5843 58.6702 L 16.7591 58.192 L 15.7834 58.8484 C 13.6845 60.261 11.8259 60.3729 7.8099 59.3288 C 4.9769 58.5926 2.9044 57.7302 1.9979 56.9113 C 1.0123 56.0205 0.4663 54.5352 0.4414 52.6744 C 0.4172 50.8392 0.6687 50.5285 2.4063 50.2491 C 4.5116 49.9099 6.7394 48.399 6.7394 47.31 C 6.7394 46.9815 5.9348 45.1762 4.7539 42.855 C 1.6515 36.7537 1.0821 34.6178 1.0821 29.0795 C 1.0821 24.0209 1.829 20.6099 3.8131 16.6054 C 7.3167 9.5341 13.4864 4.2802 21.3837 1.6439 C 24.5288 0.5941 25.9057 0.3882 29.7442 0.3953 C 32.5857 0.4003 33.6255 0.4801 35.3552 0.8258 C 41.7209 2.0965 49.3588 5.8994 53.5401 9.8804 C 56.0039 12.2252 56.8933 14.1024 57.3074 17.8255 C 57.8141 22.3795 56.5434 26.9058 54.5215 27.7503 C 53.8109 28.0475 52.2573 28.0874 51.1768 27.8366 C 50.4948 27.6784 50.4592 27.6919 50.5504 28.0768 C 50.911 29.5991 50.8775 30.6267 50.4007 32.6935 C 49.8349 35.1473 49.8719 35.6305 50.7663 37.4415 C 51.8247 39.5831 52.0228 41.1923 51.3058 41.8131 C 51.1476 41.9499 50.2846 42.3583 49.3873 42.7218 L 47.7567 43.3817 L 46.6228 45.467 C 45.1304 48.2123 44.7384 48.8202 43.5832 50.1836 C 42.6645 51.269 42.5961 51.4244 42.2861 53.1448 C 41.939 55.0733 41.9704 55.9314 42.4329 57.1458 C 42.6225 57.644 42.661 58.0082 42.5462 58.222 C 42.3374 58.6125 41.3033 58.8335 40.5044 58.6581 L 39.9207 58.5299 L 40.2906 59.1584 C 40.8999 60.1933 42.1471 63.4795 43.7129 68.1782 C 46.3256 76.0142 46.8352 78.7117 46.652 83.7347 C 46.5301 87.0694 46.3313 88.8874 45.7348 92.123 C 45.3991 93.944 45.2523 94.3716 44.814 94.8099 C 44.5275 95.0964 44.1626 95.3316 44.0044 95.3316 C 43.5889 95.3316 40.8208 93.8556 40.53 93.48 C 40.3205 93.2085 40.2998 93.2719 40.3825 93.9169 C 40.4359 94.3317 40.5279 95.6893 40.5856 96.9337 C 40.7481 100.403 40.8714 101.2198 41.304 101.6951 C 41.5157 101.9289 41.763 102.1199 41.8535 102.1199 C 42.1179 102.1199 45.9956 104.0648 46.9435 104.6735 C 47.8721 105.2693 48.1693 105.9178 47.7196 106.3682 C 47.0568 107.031 43.5169 107.6019 39.4931 107.6952 C 35.3709 107.7907 35.3659 107.7886 34.9326 105.828 C 34.6005 104.3228 34.0788 101.1065 33.5207 97.1225 C 33.3176 95.6708 33.0675 94.1435 32.9656 93.7287 C 32.8636 93.3132 32.7218 92.4017 32.6506 91.7011 C 32.523 90.4568 32.5087 90.4283 31.9806 90.4283 C 31.5958 90.4283 31.439 90.5231 31.4326 90.7582 C 31.4283 90.94 31.2929 91.4282 31.1311 91.843 C 30.6885 92.9811 28.2084 101.2283 28.2077 101.564 C 28.207 101.7251 29.3159 102.9616 30.6721 104.3114 C 32.7347 106.3632 33.138 106.8571 33.138 107.3275 C 33.138 108.4208 32.5878 108.5277 29.4613 108.0423 Z M 32.007 106.6376 C 32.007 106.2791 28.0986 102.6109 27.3396 102.2567 C 27.1066 102.1484 26.9156 101.9617 26.9156 101.8434 C 26.9156 101.5369 28.4193 97.151 30.0086 92.8236 C 30.3814 91.8073 30.6871 90.9043 30.6871 90.8181 C 30.6871 90.5915 28.7821 90.3862 26.9156 90.4105 C 24.9799 90.4361 24.1511 90.5729 24.1461 90.868 C 24.1432 91.074 23.8617 92.2805 22.9537 95.9915 C 22.7499 96.8211 22.3679 98.4752 22.1035 99.6683 C 21.8391 100.8606 21.4493 102.4677 21.2369 103.2388 L 20.8513 104.6414 L 21.291 104.9763 C 22.2596 105.7154 25.059 106.5549 29.065 107.3083 L 31.3471 107.7373 L 31.677 107.3589 C 31.858 107.1508 32.007 106.8258 32.007 106.6376 Z M 43.7385 106.731 C 46.5287 106.349 46.461 106.3761 46.4895 105.6292 C 46.513 105.0041 46.4895 104.9863 44.4505 104.0299 C 43.3166 103.4975 42.3174 103.0621 42.2312 103.0621 C 42.145 103.0621 41.6839 102.8148 41.2056 102.5112 C 40.3561 101.9724 40.334 101.9339 40.2114 100.7672 C 40.143 100.1108 40.0297 98.0469 39.9592 96.1797 L 39.8323 92.7858 L 38.7006 92.1736 C 37.6308 91.5949 35.2333 90.7725 33.9811 90.5544 L 33.4096 90.4546 L 33.5393 91.9028 C 33.6105 92.6996 33.7566 93.8606 33.8635 94.4827 C 34.1408 96.1013 34.8014 99.8678 35.1371 101.7422 C 35.2946 102.6238 35.512 103.9814 35.6196 104.7597 C 35.7272 105.5372 35.879 106.3012 35.9574 106.4566 C 36.2404 107.021 40.5165 107.1721 43.7385 106.731 Z M 44.2339 93.8698 C 44.6593 93.0545 45.2965 88.9274 45.6001 85.0176 C 45.9635 80.3459 45.5423 77.3882 43.7257 71.855 C 42.4457 67.9573 40.7217 63.379 39.5401 60.7399 L 39.1225 59.8077 L 38.5815 60.4135 C 38.2843 60.7463 38.0406 61.144 38.0406 61.2979 C 38.0406 61.4519 37.8774 61.578 37.6771 61.578 C 37.3115 61.578 34.2869 60.7955 33.6376 60.5332 C 33.3775 60.4277 33.4089 60.5118 33.7638 60.8667 C 34.4736 61.5766 34.6432 62.4518 34.8328 66.3865 C 35.053 70.9506 35.12 71.1815 37.2531 74.7485 C 39.0141 77.6933 38.697 78.8521 36.0002 79.3268 L 34.8513 79.5292 L 35.5719 80.5006 C 36.5596 81.8318 36.7264 82.4063 36.4242 83.4297 C 35.976 84.9463 34.3553 86.1985 32.565 86.4101 C 30.7113 86.6297 28.0808 85.763 27.3867 84.7033 C 26.8308 83.8545 26.84 81.911 27.4109 79.5691 C 27.4978 79.2134 27.3802 79.1514 26.2214 78.9398 C 24.0762 78.5485 24.2751 78.4338 23.7897 80.3502 C 22.8875 83.9079 22.1078 85.2834 18.8615 89.035 C 17.8195 90.2394 17.6578 90.548 18.1709 90.3513 C 18.6185 90.1795 24.6984 89.5196 27.7679 89.3101 C 30.876 89.097 33.607 89.3008 35.4008 89.8795 C 36.8212 90.3371 39.4417 91.632 42.001 93.14 C 42.9859 93.7209 43.8526 94.197 43.9267 94.1977 C 44.0008 94.1991 44.1391 94.0516 44.2339 93.8698 Z M 33.0005 84.8886 C 34.103 84.5564 34.9504 83.9528 35.3224 83.2323 C 35.6944 82.5132 35.4949 81.8803 34.4686 80.5205 L 33.7267 79.5384 L 32.2536 79.4158 C 31.444 79.3488 30.3778 79.2455 29.8853 79.1864 C 29.0885 79.0909 28.9895 79.1194 28.9895 79.4436 C 28.9895 79.6446 28.8199 80.472 28.6125 81.2831 C 28.1478 83.1004 28.14 83.6692 28.5733 84.2044 C 28.9375 84.6541 30.3657 85.1152 31.4582 85.1359 C 31.831 85.143 32.5244 85.0318 33.0005 84.8886 Z M 36.8939 78.2741 C 37.3479 78.0389 37.4754 77.8494 37.4754 77.4054 C 37.4754 76.7946 36.9816 75.707 36.1548 74.4947 C 34.5549 72.1493 34.1664 70.7346 33.8899 66.2454 C 33.6497 62.3399 33.4637 61.7042 32.24 60.6016 C 31.6941 60.1099 31.223 59.8711 30.6194 59.7806 C 29.8148 59.6602 29.6915 59.7058 28.3794 60.613 C 25.8358 62.3719 25.5223 62.962 25.7175 65.6325 C 25.8223 67.0685 25.7938 67.2218 25.1196 68.8381 C 24.0413 71.4238 23.144 74.2082 23.144 74.9701 C 23.144 75.4398 23.2773 75.7762 23.5688 76.0413 C 24.7804 77.1459 26.9177 78.0118 29.2724 78.3532 C 32.1745 78.7737 36.0052 78.7338 36.8939 78.2741 Z M 37.4099 59.7393 C 37.6187 58.847 37.6173 58.8413 36.8732 58.031 C 36.0715 57.1579 35.5897 56.2036 35.5897 55.4881 C 35.5897 55.0142 36.6402 53.2809 36.9274 53.2809 C 37.0215 53.2809 37.0977 53.1961 37.0977 53.0928 C 37.0977 52.9887 36.7549 52.9039 36.3359 52.9039 C 34.8884 52.9039 31.7127 52.075 29.5154 51.1236 C 29.2646 51.0146 29.3166 51.2098 29.7478 51.991 C 30.422 53.2146 30.4669 54.2587 29.9324 56.2984 C 29.4713 58.0566 29.4698 57.9946 29.9794 57.9989 C 30.2132 58.001 31.8466 58.5862 33.6098 59.3003 C 35.3723 60.0137 36.9017 60.6059 37.0079 60.6166 C 37.1141 60.6266 37.2951 60.2325 37.4099 59.7393 Z M 14.4371 58.8441 C 16.4255 57.9184 18.4146 55.2208 19.1095 52.5076 C 19.6497 50.4002 19.2157 48.7247 17.4062 45.9274 C 16.4825 44.4999 16.3892 44.2298 16.8175 44.2298 C 17.4675 44.2298 19.5564 47.9514 19.9377 49.7895 C 20.3246 51.6539 19.6569 54.1112 18.1531 56.3533 L 17.3121 57.6069 L 18.0127 57.7894 C 20.0552 58.3196 21.2098 58.4244 23.7748 58.3111 C 27.9739 58.1272 27.7352 58.2234 28.4436 56.416 C 29.184 54.5246 29.2553 53.0856 28.6816 51.6196 C 28.3609 50.8001 28.1036 50.4943 27.2726 49.9406 C 25.8993 49.0262 22.8419 45.9317 20.6988 43.2876 C 19.5015 41.8109 18.5736 40.8702 17.7896 40.3407 C 16.5253 39.4854 16.1683 38.9887 15.715 37.455 C 14.9774 34.9549 15.7898 33.1368 18.1317 32.0464 C 20.108 31.1256 21.2326 31.5368 22.9238 33.7968 C 23.9166 35.1224 23.9365 35.1366 24.4326 34.8779 C 24.7091 34.734 25.4025 34.6135 25.9727 34.6107 C 26.5428 34.6078 27.604 34.5209 28.3295 34.4175 C 31.0149 34.0355 31.372 33.8531 35.4856 30.7614 C 43.2781 24.906 44.0927 24.6658 50.1734 26.4247 C 53.6285 27.4246 54.6213 27.2629 55.4836 25.5617 C 57.2967 21.9833 56.9617 15.5563 54.7923 12.2808 C 53.5936 10.4713 49.8156 7.6875 45.7469 5.6143 C 41.7872 3.5974 38.4084 2.4521 34.175 1.6924 C 31.5609 1.2234 27.0089 1.2149 24.8409 1.6746 C 18.4624 3.0294 12.2649 6.6042 8.452 11.1298 C 5.2385 14.9441 3.3128 18.7391 2.3977 23.0651 C 1.8882 25.474 1.7029 30.2348 2.015 32.9159 C 2.3443 35.7474 3.0691 37.7828 5.4217 42.4866 C 7.765 47.1732 7.8605 47.5702 6.9112 48.6513 C 5.9897 49.7004 4.3027 50.6212 2.764 50.9148 C 2.0186 51.0566 1.3301 51.2868 1.2353 51.4258 C 0.9424 51.8534 1.1883 54.0642 1.6458 55.1239 C 1.8817 55.6713 2.3172 56.3219 2.6122 56.5707 C 3.9222 57.6725 9.4441 59.2939 11.9249 59.3045 C 13.1443 59.3102 13.6254 59.2219 14.4371 58.8441 Z M 40.5899 57.5 C 41.1586 57.567 41.6233 57.5962 41.6233 57.5656 C 41.6233 57.5342 41.4537 57.1765 41.2463 56.7695 C 40.7809 55.8566 40.7852 55.6641 41.3133 53.6109 C 41.547 52.7036 41.733 51.961 41.728 51.961 C 41.7223 51.9617 41.2933 52.1228 40.7745 52.3202 C 40.2563 52.5169 39.4503 52.7364 38.9835 52.8077 C 38.2188 52.9239 38.0748 53.0322 37.5225 53.9095 C 37.1854 54.444 36.9096 55.1268 36.9096 55.4261 C 36.9096 56.2065 37.5667 57.1622 38.4768 57.7046 L 39.2621 58.1728 L 39.409 57.7758 C 39.5422 57.4159 39.6534 57.3903 40.5899 57.5 Z M 39.7895 51.378 C 41.0674 50.9476 42.5334 49.9712 43.023 49.2229 L 43.3344 48.7482 L 42.4315 48.3612 C 40.4081 47.4946 38.0819 45.2197 38.3064 44.3267 C 38.511 43.5093 39.26 43.6946 39.9777 44.7401 C 40.9747 46.1925 41.929 47.1482 42.9232 47.6892 L 43.8604 48.1995 L 44.3286 47.5816 C 44.9088 46.8183 47.0917 43.1508 47.0917 42.9405 C 47.0917 42.5571 48.0888 41.9178 49.0958 41.6549 C 50.7963 41.2101 50.9203 41.1104 50.7749 40.3015 C 50.7065 39.9209 50.2746 38.7984 49.8142 37.8071 C 48.7972 35.6148 48.7701 35.0561 49.5519 32.3507 C 50.0066 30.775 50.1007 30.1585 50.0116 29.3332 C 49.8071 27.4289 49.8662 27.5087 48.4223 27.1802 C 46.6477 26.7768 44.9337 26.8039 43.4584 27.2593 C 42.0787 27.6855 39.3983 29.2627 36.0608 31.6124 C 32.729 33.9578 32.0198 34.3776 30.3614 34.9827 C 29.2297 35.396 25.364 36.3104 24.7504 36.3104 C 24.7112 36.3104 24.6521 36.4943 24.6186 36.7202 C 24.5045 37.4935 24.1382 37.264 23.0001 35.7046 C 20.9568 32.9052 20.2299 32.4591 18.87 33.1689 C 17.295 33.9921 16.5716 35.5956 16.928 37.4757 C 17.1425 38.6067 17.4119 38.9545 18.7318 39.8012 C 19.3668 40.2088 20.2092 41.0819 21.2105 42.3711 C 25.3028 47.6421 27.567 49.6013 30.9693 50.8136 C 33.8685 51.847 37.675 52.0907 39.7895 51.378 Z M 40.8479 34.0263 C 40.5108 33.6892 40.4623 33.4647 40.5357 32.5795 C 40.6063 31.7357 40.7217 31.447 41.1337 31.0928 C 42.125 30.2398 43.2261 30.6795 43.4428 32.0151 C 43.5782 32.8475 43.1256 33.7554 42.3837 34.1389 C 41.6411 34.523 41.3211 34.4995 40.8479 34.0263 Z "/>
      </g>
    </g>
  </g>
</svg>