<svg xmlns="http://www.w3.org/2000/svg" xmlns:xlink="http://www.w3.org/1999/xlink" version="1.1" width="58.35652324188583" height="110.67973491180771" viewBox="0.609388606603775 0.4884858298856354 58.35652324188583 110.67973491180771">
  <!-- Exported by Scratch - http://scratch.mit.edu/ -->
  <g id="ID0.1581835402175784">
    <g id="layer1">
      <g id="g47">
        <path id="path65" fill="#f5dcbd" stroke-width="0.1914460324131775" d="M 29.3208 110.8506 C 28.6363 110.6993 27.5683 110.4852 26.9467 110.3752 C 26.3252 110.2652 25.679 110.1046 25.5104 110.0177 C 25.3426 109.9316 24.7471 109.7529 24.187 109.6219 C 23.5807 109.4794 22.9931 109.1929 22.7334 108.9128 C 22.3412 108.4903 22.3043 108.2884 22.36 106.8774 C 22.394 106.0156 22.5496 104.1047 22.7044 102.6308 C 22.86 101.1568 23.0814 99.0462 23.1979 97.9405 C 23.3137 96.8349 23.4562 95.2083 23.5141 94.3263 L 23.6197 92.7221 L 22.3065 92.8495 C 21.5843 92.9196 20.3651 93.0723 19.5981 93.1888 C 17.8608 93.4522 17.2595 93.2525 17.2595 92.4095 C 17.2595 91.8256 17.7638 91.1107 19.8398 88.7511 C 22.1031 86.1781 22.5944 85.1723 23.3021 81.6673 L 23.7464 79.4662 L 23.0814 78.7817 C 21.7196 77.3794 21.8094 76.5828 23.7717 72.6653 C 25.2999 69.6147 25.5285 68.7616 25.373 66.6958 C 25.1885 64.2574 25.4403 63.5461 27.1067 61.7914 L 28.4597 60.3674 L 27.6689 60.5006 C 27.2347 60.5744 25.6783 60.6388 24.2102 60.6453 C 21.915 60.6547 21.2573 60.5838 19.5156 60.1388 L 17.4896 59.6221 L 16.465 60.2936 C 14.261 61.7393 12.6019 61.845 8.5433 60.7987 C 5.5752 60.0331 3.5022 59.2046 2.5789 58.4138 C 0.775 56.8697 0.0413 52.6114 1.4255 51.7193 C 1.6578 51.5695 2.4081 51.3481 3.0926 51.2279 C 4.5702 50.9682 6.5853 49.7663 7.0491 48.8684 C 7.3465 48.2938 7.335 48.2642 5.1338 43.8721 C 2.5897 38.7955 1.872 36.7427 1.5435 33.6045 C 1.2721 31.0149 1.4096 26.5475 1.8329 24.2009 C 3.3777 15.6353 9.3747 7.9364 17.7385 3.7831 C 20.3108 2.506 22.8723 1.5776 25.3006 1.0436 C 27.8809 0.4756 32.7983 0.4264 35.6383 0.9402 C 44.2532 2.4966 54.8312 8.5189 57.3413 13.2959 C 59.2182 16.8682 59.394 23.0874 57.719 26.6654 C 56.8463 28.5308 55.4918 29.2146 53.2791 28.9093 L 51.9897 28.7305 L 52.0686 30.3803 C 52.1272 31.6111 52.0447 32.4685 51.7422 33.755 C 51.5194 34.7044 51.337 35.7203 51.337 36.014 C 51.337 36.3071 51.6923 37.3179 52.1265 38.2607 C 53.1655 40.5154 53.3486 42.15 52.6424 42.8562 C 52.3855 43.1138 51.6634 43.5074 51.0382 43.7317 C 49.0715 44.4379 49.0216 44.4857 47.7452 46.9111 C 46.5535 49.1759 45.4956 50.7576 44.382 51.9436 C 44.0615 52.2851 43.7713 52.759 43.7366 52.9964 C 43.7019 53.2344 43.589 53.8972 43.4855 54.4696 C 43.2185 55.9377 43.2626 57.5578 43.5839 58.1193 C 43.9211 58.7097 43.9479 59.4977 43.6411 59.8045 C 43.5145 59.9304 42.9689 60.0339 42.4284 60.0339 L 41.4443 60.0339 L 42.5601 62.8196 C 45.3958 69.9005 47.5701 77.4489 47.9058 81.375 C 48.2893 85.8619 47.3118 94.929 46.2792 96.4673 C 45.7127 97.3117 44.9797 97.353 43.5325 96.6229 C 42.9074 96.3074 42.1469 95.8465 41.8415 95.5983 C 41.5362 95.3509 41.0492 94.9992 40.7598 94.8169 C 40.3054 94.531 40.233 94.5253 40.233 94.7771 C 40.233 94.9377 40.3206 95.0687 40.427 95.0687 C 40.542 95.0687 40.5782 95.361 40.516 95.7865 C 40.4588 96.1815 40.576 98.1193 40.7779 100.0925 C 41.1165 103.4057 41.1795 103.7096 41.5984 104.0591 C 41.8481 104.2668 42.1599 104.4397 42.2916 104.4433 C 42.4233 104.4469 42.5304 104.5316 42.5304 104.6322 C 42.5304 104.7327 42.8965 104.9874 43.3444 105.1987 C 44.3104 105.6546 45.8415 106.546 45.9768 106.732 C 46.0296 106.8036 46.4001 107.109 46.8009 107.41 C 47.3653 107.834 48.0824 108.9107 48.0824 109.334 C 48.0824 109.3622 47.6989 109.5655 47.23 109.7862 C 46.5368 110.1118 45.7756 110.2196 43.1613 110.3622 C 41.3929 110.4591 38.9552 110.5134 37.7447 110.483 C 36.0283 110.4396 35.4734 110.4888 35.2259 110.7066 C 34.7621 111.1147 30.9387 111.208 29.3208 110.8506 Z M 33.506 106.2682 C 33.1456 103.7537 32.7643 100.9622 32.4076 98.2278 C 32.2021 96.6482 31.9647 95.1403 31.8815 94.8769 C 31.7354 94.4146 31.7252 94.4203 31.5907 95.0687 C 30.9163 98.319 29.8997 103.9209 29.9062 104.3536 C 29.9098 104.6068 30.2911 104.9831 31.0321 105.4643 C 31.6478 105.8651 32.4843 106.4809 32.8902 106.8333 C 33.2961 107.1857 33.6376 107.4613 33.6492 107.4454 C 33.6608 107.4302 33.5964 106.8998 33.506 106.2682 Z "/>
        <path id="path63" fill="#fa9899" stroke-width="0.1914460324131775" d="M 27.7897 110.4721 C 24.9656 109.8448 23.1986 109.2985 22.784 108.923 C 22.3361 108.5178 22.313 106.9223 22.7037 103.2798 C 22.8549 101.8696 23.1169 99.2517 23.2847 97.4615 C 23.4533 95.6714 23.6342 93.8726 23.6863 93.4638 L 23.7818 92.7207 L 22.1957 92.8524 C 21.3238 92.9247 20.0619 93.0687 19.3912 93.1722 C 18.3832 93.3277 18.0931 93.3082 17.7161 93.0615 C 16.8283 92.4797 17.0475 92.0145 19.5865 89.0919 C 22.2529 86.0225 22.6017 85.3257 23.381 81.5016 L 23.7833 79.5277 L 23.1111 78.7839 C 21.813 77.3469 21.9056 76.5965 23.8904 72.4577 L 25.3961 69.3195 L 25.3968 66.7349 C 25.3976 64.2697 25.4214 64.109 25.9164 63.2661 C 26.2022 62.7798 26.9041 61.9542 27.4764 61.4311 L 28.5169 60.4803 L 25.1306 60.5693 C 21.949 60.6525 21.6227 60.6272 19.7341 60.1547 C 17.3362 59.5541 17.2204 59.5483 16.8008 60.0122 C 16.6206 60.2111 15.9397 60.6142 15.287 60.9079 C 13.8008 61.5765 12.0259 61.6076 9.5064 61.0092 C 5.573 60.0751 2.8676 58.934 2.0521 57.8653 C 1.3061 56.887 0.7953 55.1895 0.7953 53.6867 C 0.7953 51.877 1.1332 51.581 3.6925 51.1455 C 5 50.9233 7.3046 49.165 7.3046 48.3901 C 7.3046 48.2454 6.2727 46.0457 5.0123 43.5031 C 2.4291 38.2933 1.8698 36.6472 1.5377 33.2666 C 0.6976 24.7198 3.0441 17.1215 8.4536 10.872 C 12.5353 6.1564 18.9852 2.4452 25.5517 1.035 C 28.2094 0.4641 32.6521 0.4655 35.8511 1.0378 C 42.6158 2.2491 50.8211 6.3236 55.1857 10.6397 C 57.7978 13.2229 58.5865 15.2366 58.7515 19.7401 C 58.8658 22.8869 58.5627 24.7885 57.6444 26.6669 C 56.9867 28.0149 56.4165 28.5431 55.2957 28.8449 C 54.5924 29.0344 52.8399 28.9519 52.18 28.6987 C 51.9868 28.6249 51.9571 28.965 52.0396 30.2956 C 52.1236 31.6458 52.0635 32.3028 51.7408 33.5503 C 51.1699 35.7615 51.2126 36.5408 51.9882 38.1247 C 52.7523 39.684 53.0577 40.7079 53.0591 41.7122 C 53.0606 42.6775 52.4969 43.1832 50.6851 43.8439 C 49.9051 44.1282 49.1439 44.5059 48.9926 44.6832 C 48.8421 44.8605 48.2647 45.867 47.7097 46.9198 C 46.6287 48.9733 45.4124 50.7837 44.377 51.8813 C 43.7786 52.5159 43.712 52.72 43.4095 54.8509 C 43.0897 57.107 43.0912 57.1497 43.4783 57.9087 C 44.225 59.3732 43.8603 60.0339 42.3054 60.0339 C 41.6035 60.0339 41.3705 60.099 41.4501 60.2734 C 43.6447 65.088 46.9022 75.0386 47.6084 79.0827 C 48.2901 82.9886 47.7901 91.4472 46.6323 95.586 C 46.3335 96.6547 45.8133 97.1743 45.0405 97.1743 C 44.4565 97.1743 42.3263 96.0173 41.3104 95.1475 C 40.4711 94.429 40.233 94.348 40.233 94.7814 C 40.233 94.9391 40.3191 95.0687 40.4248 95.0687 C 40.5304 95.0687 40.6165 95.1598 40.6165 95.2713 C 40.6165 95.3827 40.5246 95.4174 40.4125 95.348 C 40.2772 95.2648 40.2439 95.437 40.3141 95.8632 C 40.372 96.2163 40.5536 97.9688 40.7186 99.7589 C 40.8828 101.549 41.0565 103.2017 41.1042 103.431 C 41.1853 103.8189 42.3821 104.779 43.1556 105.0757 C 43.4428 105.1857 44.2431 105.7016 46.6374 107.321 C 47.3617 107.8108 47.6287 108.1618 47.7539 108.7891 C 47.8979 109.5091 47.73 109.6726 46.5513 109.962 C 45.178 110.2985 43.6657 110.3897 39.3365 110.3976 C 36.3684 110.4034 35.2599 110.4671 35.2049 110.6342 C 35.1514 110.7949 34.3388 110.8708 32.464 110.8904 C 30.3034 110.9128 29.4199 110.8339 27.7897 110.4721 Z M 33.6507 106.7949 C 33.0653 102.8681 32.4184 98.2589 32.3005 97.1743 C 32.0733 95.081 31.9676 94.4941 31.82 94.4941 C 31.7325 94.4941 31.6153 94.7315 31.5581 95.0209 C 31.5009 95.3103 31.3671 95.9348 31.26 96.4087 C 31.1529 96.8827 30.8859 98.2611 30.6674 99.4716 C 30.4481 100.6829 30.1847 102.041 30.082 102.4897 C 29.9792 102.939 29.8953 103.6322 29.8953 104.0301 C 29.8953 104.7241 29.9713 104.8094 31.7621 106.1242 C 32.7882 106.8774 33.6579 107.4982 33.6934 107.5033 C 33.7288 107.5084 33.71 107.1893 33.6507 106.7949 Z M 34.1673 86.4125 C 35.1521 86.118 36.4053 84.9502 36.4024 84.3294 C 36.4003 83.7729 35.4697 82.1101 34.8453 81.5487 C 34.4654 81.2064 34.0609 81.1232 32.286 81.0212 L 30.1782 80.9003 L 29.7499 82.396 C 29.2238 84.2302 29.1898 85.511 29.6558 85.9292 C 30.4004 86.597 32.7223 86.846 34.1673 86.4125 Z M 38.3539 60.9318 C 38.6166 60.1337 38.6101 60.0946 38.1658 59.7596 C 37.3055 59.1106 36.5956 57.7474 36.5956 56.7423 C 36.5956 55.9594 36.6962 55.7127 37.2714 55.0759 L 37.9465 54.3277 L 36.9364 54.2033 C 35.1434 53.9811 33.854 53.6823 32.2556 53.1194 C 31.3953 52.8155 30.6536 52.5673 30.6066 52.5673 C 30.5603 52.5673 30.7253 52.9696 30.9742 53.4616 C 31.527 54.5528 31.5407 55.3154 31.0436 57.2582 C 30.5928 59.0201 30.5892 59.0751 30.9004 59.0831 C 31.0321 59.0867 32.6471 59.6858 34.49 60.4145 C 36.333 61.1431 37.8944 61.7429 37.961 61.748 C 38.0276 61.7531 38.2041 61.3855 38.3539 60.9318 Z M 39.8778 52.6744 C 40.5775 52.526 41.4819 52.2337 41.8879 52.0239 C 42.6686 51.6223 44.2539 50.3351 44.2539 50.1035 C 44.2539 50.0283 43.8017 49.7453 43.2489 49.474 C 41.1324 48.4357 38.906 46.1564 39.1759 45.3062 C 39.3054 44.8981 40.0616 44.5899 40.4074 44.8033 C 40.5152 44.8699 41.0478 45.5674 41.5912 46.3532 C 42.3046 47.385 42.8763 47.9682 43.6498 48.4516 C 44.2388 48.8199 44.8104 49.1216 44.9204 49.1216 C 45.1345 49.1216 46.6526 46.7758 47.7828 44.6977 C 48.6641 43.0769 48.8617 42.9141 50.476 42.4821 L 51.816 42.1232 L 51.8008 41.3323 C 51.7907 40.8048 51.5092 39.9894 50.9579 38.8859 C 49.8617 36.6935 49.8059 35.9569 50.5577 33.543 C 51.138 31.6777 51.2668 30.2696 50.9796 28.9382 C 50.8725 28.4433 50.7365 28.3507 49.8059 28.1394 C 45.5752 27.1806 43.877 27.8174 36.1962 33.2471 C 32.8764 35.5944 30.6145 36.5502 27.0712 37.1037 C 26.0083 37.2694 25.6834 37.3932 25.6834 37.6305 C 25.6834 38.0531 25.3122 38.3932 24.988 38.2687 C 24.8419 38.2123 24.3288 37.5813 23.8491 36.8657 C 23.3687 36.1501 22.5778 35.1602 22.0908 34.666 C 21.2956 33.86 21.1379 33.7789 20.5482 33.8744 C 19.7016 34.0119 18.7819 34.6479 18.1994 35.4981 C 17.8188 36.0553 17.7385 36.4091 17.7385 37.5343 C 17.7385 39.1833 18.0012 39.658 19.4469 40.6182 C 20.0677 41.0299 20.9903 41.9575 21.7775 42.9611 C 26.6797 49.2121 28.9539 51.0753 33.0537 52.199 C 35.8771 52.9732 37.8271 53.1092 39.8778 52.6744 Z M 41.6635 34.7529 C 41.445 34.3296 41.3973 33.92 41.4906 33.2695 C 41.7822 31.2312 43.8278 30.6335 44.555 32.3737 C 45.1193 33.7254 44.1056 35.3375 42.691 35.3375 C 42.0767 35.3375 41.9204 35.2485 41.6635 34.7529 Z "/>
        <path id="path61" fill="#a29e9a" stroke-width="0.1914460324131775" d="M 27.7897 110.4721 C 24.9656 109.8448 23.1986 109.2985 22.784 108.923 C 22.3361 108.5178 22.313 106.9223 22.7037 103.2798 C 22.8549 101.8696 23.1169 99.2517 23.2847 97.4615 C 23.4533 95.6714 23.6342 93.8726 23.6863 93.4638 L 23.7818 92.7207 L 22.1957 92.8524 C 21.3238 92.9247 20.0619 93.0687 19.3912 93.1722 C 18.3832 93.3277 18.0931 93.3082 17.7161 93.0615 C 16.8283 92.4797 17.0475 92.0145 19.5865 89.0919 C 22.2529 86.0225 22.6017 85.3257 23.381 81.5016 L 23.7833 79.5277 L 23.1111 78.7839 C 21.813 77.3469 21.9056 76.5965 23.8904 72.4577 L 25.3961 69.3195 L 25.3968 66.7349 C 25.3976 64.2697 25.4214 64.109 25.9164 63.2661 C 26.2022 62.7798 26.9041 61.9542 27.4764 61.4311 L 28.5169 60.4803 L 25.1306 60.5693 C 21.949 60.6525 21.6227 60.6272 19.7341 60.1547 C 17.3362 59.5541 17.2204 59.5483 16.8008 60.0122 C 16.6206 60.2111 15.9397 60.6142 15.287 60.9079 C 13.8008 61.5765 12.0259 61.6076 9.5064 61.0092 C 5.573 60.0751 2.8676 58.934 2.0521 57.8653 C 1.3061 56.887 0.7953 55.1895 0.7953 53.6867 C 0.7953 51.877 1.1332 51.581 3.6925 51.1455 C 5 50.9233 7.3046 49.165 7.3046 48.3901 C 7.3046 48.2454 6.2727 46.0457 5.0123 43.5031 C 2.4291 38.2933 1.8698 36.6472 1.5377 33.2666 C 0.6976 24.7198 3.0441 17.1215 8.4536 10.872 C 12.5353 6.1564 18.9852 2.4452 25.5517 1.035 C 28.2094 0.4641 32.6521 0.4655 35.8511 1.0378 C 42.6158 2.2491 50.8211 6.3236 55.1857 10.6397 C 57.7978 13.2229 58.5865 15.2366 58.7515 19.7401 C 58.8658 22.8869 58.5627 24.7885 57.6444 26.6669 C 56.9867 28.0149 56.4165 28.5431 55.2957 28.8449 C 54.5924 29.0344 52.8399 28.9519 52.18 28.6987 C 51.9868 28.6249 51.9571 28.965 52.0396 30.2956 C 52.1236 31.6458 52.0635 32.3028 51.7408 33.5503 C 51.1699 35.7615 51.2126 36.5408 51.9882 38.1247 C 52.7523 39.684 53.0577 40.7079 53.0591 41.7122 C 53.0606 42.6775 52.4969 43.1832 50.6851 43.8439 C 49.9051 44.1282 49.1439 44.5059 48.9926 44.6832 C 48.8421 44.8605 48.2647 45.867 47.7097 46.9198 C 46.6287 48.9733 45.4124 50.7837 44.377 51.8813 C 43.7786 52.5159 43.712 52.72 43.4095 54.8509 C 43.0897 57.107 43.0912 57.1497 43.4783 57.9087 C 44.225 59.3732 43.8603 60.0339 42.3054 60.0339 C 41.6035 60.0339 41.3705 60.099 41.4501 60.2734 C 43.6447 65.088 46.9022 75.0386 47.6084 79.0827 C 48.2901 82.9886 47.7901 91.4472 46.6323 95.586 C 46.3335 96.6547 45.8133 97.1743 45.0405 97.1743 C 44.4565 97.1743 42.3263 96.0173 41.3104 95.1475 C 40.8908 94.7886 40.4747 94.4941 40.3857 94.4941 C 40.2967 94.4941 40.2685 94.9898 40.3235 95.5954 C 40.7128 99.8891 41.0304 103.0758 41.1042 103.431 C 41.1853 103.8189 42.3821 104.779 43.1556 105.0757 C 43.4428 105.1857 44.2431 105.7016 46.6374 107.321 C 47.3617 107.8108 47.6287 108.1618 47.7539 108.7891 C 47.8979 109.5091 47.73 109.6726 46.5513 109.962 C 45.178 110.2985 43.6657 110.3897 39.3365 110.3976 C 36.3677 110.4034 35.2599 110.4671 35.2049 110.6342 C 35.1514 110.7949 34.3388 110.8708 32.464 110.8904 C 30.3034 110.9128 29.4199 110.8339 27.789 110.4721 Z M 33.6138 109.5141 C 33.6811 109.2457 33.6861 108.9454 33.6246 108.8463 C 33.5631 108.7479 32.6992 108.0988 31.7043 107.4049 C 30.7093 106.7117 29.8953 106.0837 29.8953 106.0091 C 29.8953 105.9353 29.637 105.5916 29.3208 105.2458 C 29.0053 104.9006 28.7477 104.5149 28.7492 104.3898 C 28.7564 103.8493 29.8642 98.1728 30.5567 95.128 C 31.2014 92.2945 31.2115 92.3842 30.2303 92.3885 C 29.7824 92.3907 28.433 92.3914 27.2304 92.3907 C 26.0278 92.39 25.0184 92.4153 24.9866 92.4464 C 24.9316 92.5021 24.5647 96.4131 24.1494 101.3862 C 24.0394 102.7024 23.8535 104.7081 23.737 105.8434 C 23.6205 106.978 23.5676 107.9498 23.6205 108.0019 C 23.7883 108.1697 25.729 108.8065 27.5024 109.2746 C 28.5307 109.5467 29.9199 109.7529 30.9481 109.7876 C 31.896 109.8188 32.7071 109.8795 32.7513 109.9229 C 33.0081 110.1755 33.5067 109.9396 33.6138 109.5141 Z M 45.5267 109.1198 C 45.7633 109.0568 45.9761 108.813 46.0267 108.5482 C 46.102 108.156 45.9413 107.9787 44.945 107.3506 C 43.1599 106.2262 40.9045 105.0236 40.5818 105.0236 C 40.2055 105.0236 39.7396 104.4788 39.5999 103.8753 C 39.5384 103.6119 39.44 101.803 39.3807 99.8544 C 39.3206 97.9065 39.2222 95.6866 39.1614 94.9203 C 39.0529 93.5484 39.0406 93.5224 38.3503 93.1751 C 37.9646 92.9819 37.3474 92.7301 36.9784 92.6157 C 36.2317 92.3849 33.4379 92.2098 33.1709 92.377 C 33.0718 92.4392 33.0689 92.9645 33.1644 93.6324 C 33.8424 98.3566 34.1369 100.3399 34.7831 104.5453 C 34.9444 105.5981 35.1383 107.0192 35.2143 107.7037 L 35.3511 108.9483 L 36.1173 109.0648 C 37.118 109.2167 44.9934 109.263 45.5267 109.1198 Z M 33.6507 106.7949 C 33.0653 102.8681 32.4184 98.2589 32.3005 97.1743 C 32.0726 95.081 31.9676 94.4941 31.8193 94.4941 C 31.7325 94.4941 31.6153 94.7315 31.5581 95.0209 C 31.5009 95.3103 31.3671 95.9348 31.26 96.4087 C 31.1529 96.8827 30.8859 98.2611 30.6674 99.4716 C 30.4481 100.6829 30.1847 102.041 30.082 102.4897 C 29.9792 102.939 29.8953 103.6322 29.8953 104.0301 C 29.8953 104.7241 29.9713 104.8094 31.7614 106.1242 C 32.7882 106.8774 33.6572 107.4982 33.6926 107.5033 C 33.7288 107.5084 33.7093 107.1893 33.6507 106.7949 Z M 34.1673 86.4125 C 35.1521 86.118 36.4046 84.9502 36.4024 84.3294 C 36.4003 83.7729 35.469 82.1101 34.8453 81.5487 C 34.4654 81.2064 34.0602 81.1232 32.286 81.0212 L 30.1782 80.9003 L 29.7492 82.396 C 29.2238 84.2302 29.1898 85.511 29.6558 85.9292 C 30.4004 86.597 32.7223 86.846 34.1673 86.4125 Z M 38.3539 60.9318 C 38.6166 60.1337 38.6101 60.0946 38.1658 59.7596 C 37.3047 59.1106 36.5956 57.7474 36.5956 56.7423 C 36.5956 55.9594 36.6955 55.7127 37.2714 55.0759 L 37.9465 54.3277 L 36.9364 54.2026 C 35.1434 53.9811 33.854 53.6823 32.2556 53.1186 C 31.3953 52.8155 30.6536 52.5673 30.6066 52.5673 C 30.5596 52.5673 30.7253 52.9696 30.9742 53.4616 C 31.5263 54.5528 31.5407 55.3154 31.0436 57.2582 C 30.5928 59.0201 30.5885 59.0744 30.9004 59.0831 C 31.0321 59.0867 32.6471 59.6858 34.49 60.4145 C 36.3322 61.1424 37.8944 61.7429 37.961 61.748 C 38.0276 61.7531 38.2041 61.3855 38.3539 60.9318 Z M 39.8778 52.6744 C 40.5775 52.526 41.4819 52.2337 41.8879 52.0239 C 42.6679 51.6223 44.2532 50.3351 44.2532 50.1035 C 44.2532 50.0283 43.801 49.7453 43.2482 49.474 C 41.1324 48.4349 38.906 46.1564 39.1759 45.3062 C 39.3054 44.8981 40.0616 44.5891 40.4074 44.8033 C 40.5152 44.8699 41.0478 45.5674 41.5912 46.3532 C 42.3046 47.385 42.8763 47.9682 43.6498 48.4516 C 44.238 48.8199 44.8104 49.1216 44.9204 49.1216 C 45.1345 49.1216 46.6526 46.7758 47.7821 44.6977 C 48.6641 43.0769 48.8617 42.9141 50.4753 42.4821 L 51.8153 42.1232 L 51.8001 41.3323 C 51.79 40.8048 51.5092 39.9894 50.9579 38.8859 C 49.8617 36.6935 49.8059 35.9569 50.557 33.543 C 51.138 31.6777 51.2668 30.2696 50.9796 28.9382 C 50.8725 28.4433 50.7365 28.3507 49.8052 28.1394 C 45.5752 27.1806 43.877 27.8174 36.1962 33.2471 C 32.8764 35.5936 30.6145 36.5495 27.0712 37.1037 C 26.0083 37.2694 25.6834 37.3932 25.6834 37.6305 C 25.6834 38.0531 25.3122 38.3932 24.988 38.2687 C 24.8411 38.2123 24.3288 37.5813 23.8491 36.8657 C 23.3687 36.1501 22.5778 35.1602 22.0901 34.666 C 21.2949 33.86 21.1379 33.7789 20.5482 33.8744 C 19.7016 34.0119 18.7819 34.6479 18.1994 35.4981 C 17.8188 36.0553 17.7385 36.4091 17.7385 37.5343 C 17.7385 39.1833 18.0012 39.658 19.4469 40.6182 C 20.0677 41.0299 20.9903 41.9575 21.7775 42.9611 C 26.679 49.2121 28.9539 51.0753 33.0537 52.199 C 35.8771 52.9732 37.8271 53.1085 39.8778 52.6744 Z M 41.6635 34.7529 C 41.445 34.3296 41.3973 33.92 41.4899 33.2688 C 41.7822 31.2312 43.827 30.6335 44.5542 32.3737 C 45.1193 33.7254 44.1056 35.3375 42.6903 35.3375 C 42.076 35.3375 41.9197 35.2485 41.6635 34.7529 Z "/>
        <path id="path59" fill="#d2d21a" stroke-width="0.1914460324131775" d="M 28.2419 110.4808 C 26.9641 110.2377 25.7579 109.9584 25.5618 109.86 C 25.3657 109.7623 24.7312 109.5727 24.1516 109.4389 C 23.4237 109.2703 22.9844 109.0431 22.729 108.7023 C 22.3759 108.232 22.3694 108.0872 22.6002 105.6112 C 22.7326 104.1828 22.9135 102.2386 23.0018 101.2907 C 23.0901 100.3428 23.3079 98.0332 23.4859 96.1584 C 23.6646 94.2829 23.7797 92.7214 23.742 92.6874 C 23.7044 92.6541 22.7254 92.7402 21.5677 92.8791 C 17.9961 93.3075 17.2595 93.2199 17.2595 92.3668 C 17.2595 92 18.2436 90.686 20.1994 88.4393 C 22.0467 86.3177 22.5308 85.3814 23.1075 82.8164 C 23.3795 81.6051 23.6668 80.3562 23.7456 80.04 C 23.8708 79.5393 23.797 79.3758 23.1697 78.7585 C 21.8332 77.4445 21.9316 76.5263 23.8137 72.7724 C 25.3469 69.7131 25.4909 69.1647 25.4533 66.5323 C 25.4149 63.8319 25.5929 63.3609 27.2803 61.6988 L 28.5191 60.4781 L 24.7558 60.4941 C 21.2406 60.51 20.8752 60.4774 19.1987 60.0049 L 17.4035 59.4984 L 16.5757 60.1308 C 15.2603 61.1351 14.0577 61.4463 12.0107 61.3139 C 9.2806 61.1366 4.2916 59.6287 2.7113 58.5035 C 1.7945 57.8508 0.9711 55.929 0.8495 54.1577 C 0.754 52.7619 0.7815 52.6056 1.2034 52.115 C 1.5615 51.6983 1.9559 51.5275 3.0304 51.3227 C 5.039 50.94 7.3046 49.3922 7.3046 48.4031 C 7.3046 48.1542 6.4869 46.3662 5.4877 44.43 C 2.5087 38.6558 1.8893 36.7904 1.5478 32.5539 C 0.8626 24.0599 3.2562 16.7705 8.7532 10.6093 C 13.1076 5.7302 20.182 1.8989 26.7362 0.8714 C 28.6681 0.569 32.7325 0.6138 35.0638 0.9633 C 40.1592 1.7267 45.9044 4.0363 50.9543 7.351 C 54.8608 9.9147 56.8782 12.0398 57.8536 14.6165 C 59.3817 18.6533 58.9794 25.2197 57.0612 27.5468 C 56.0338 28.7935 54.9592 29.0996 52.8102 28.7566 L 51.8891 28.6104 L 52.0157 30.203 C 52.1178 31.4946 52.0657 32.0915 51.7393 33.3592 C 51.1634 35.598 51.2068 36.6226 51.9405 38.0712 C 52.5953 39.3656 53.0541 40.8627 53.0577 41.718 C 53.0606 42.4748 52.235 43.2317 50.8566 43.7353 C 48.9463 44.4328 48.861 44.5088 47.9435 46.3409 C 46.8371 48.5478 45.6164 50.4392 44.5622 51.576 C 43.7496 52.453 43.7243 52.5202 43.3835 54.7214 L 43.0347 56.971 L 43.4529 57.9796 C 43.683 58.5346 43.8712 59.0896 43.8712 59.2133 C 43.8712 59.6417 43.0239 60.0339 42.1006 60.0339 C 41.1874 60.0339 41.1838 60.0368 41.4682 60.4709 C 42.2627 61.6836 45.8234 71.9331 46.9059 76.1233 C 47.6743 79.0972 47.8914 80.8193 47.8914 83.9451 C 47.8914 87.7931 47.1663 94.1164 46.5339 95.7857 C 46.2626 96.5021 45.6034 97.1743 45.1729 97.1743 C 44.7351 97.1743 42.2634 95.9456 41.7945 95.4949 C 41.6057 95.3132 41.1773 94.9681 40.8423 94.7279 C 40.0912 94.1895 40.1093 93.767 40.6433 99.4007 L 41.0637 103.8275 L 41.9769 104.4259 C 42.4797 104.7544 42.9819 105.0236 43.0933 105.0236 C 43.2055 105.0236 43.2967 105.1097 43.2967 105.2154 C 43.2967 105.3203 43.3871 105.4071 43.4971 105.4071 C 43.7865 105.4071 45.7322 106.6741 46.7676 107.5373 C 47.7524 108.3579 48.0607 109.1639 47.5375 109.5496 C 46.8813 110.0329 44.7366 110.2384 40.0854 110.263 C 37.482 110.2775 35.2997 110.3593 35.236 110.4461 C 34.7809 111.0662 31.404 111.0828 28.2419 110.4808 Z M 33.621 109.4852 C 33.7758 108.8658 33.6333 108.7117 31.6464 107.3506 C 30.7296 106.7233 29.8599 105.986 29.7137 105.7125 C 29.5675 105.439 29.3794 105.2154 29.2955 105.2154 C 29.2115 105.2154 29.0538 105.0489 28.9445 104.8449 C 28.8013 104.5764 28.8519 103.8796 29.1305 102.308 C 29.8324 98.3501 30.8627 93.4602 31.1558 92.7004 C 31.2802 92.377 31.2122 92.3509 30.451 92.4283 C 29.9872 92.4754 29.3497 92.4392 29.0335 92.348 C 28.7181 92.2568 27.6718 92.238 26.7094 92.3061 L 24.9598 92.4305 L 24.8491 93.1273 C 24.7883 93.5108 24.606 95.5043 24.4439 97.5578 C 24.0474 102.5685 23.8202 105.2421 23.6588 106.7949 C 23.585 107.5055 23.5611 108.0872 23.6053 108.0872 C 23.6501 108.0872 24.2008 108.2696 24.8288 108.4932 C 27.564 109.4664 29.5683 109.8376 32.6073 109.9338 C 33.4112 109.9599 33.5132 109.9143 33.621 109.4852 Z M 45.5231 109.1364 C 46.17 108.9968 46.2156 108.1943 45.602 107.7406 C 44.7735 107.1278 40.9913 105.0236 40.7186 105.0236 C 40.5804 105.0236 40.283 104.8731 40.0579 104.6886 C 39.6781 104.3775 39.6361 104.083 39.4617 100.5251 C 39.359 98.4188 39.2483 96.0064 39.2157 95.1642 L 39.1571 93.6331 L 38.0594 93.0781 C 37.2049 92.6469 36.5363 92.4833 35.0436 92.3408 C 33.9886 92.2402 33.0877 92.1953 33.0421 92.2409 C 32.956 92.327 33.2288 94.4008 33.9177 98.8978 C 34.4133 102.1308 34.5913 103.3522 35.0146 106.3962 C 35.1998 107.7305 35.4119 108.8817 35.4849 108.9548 C 35.7838 109.2522 44.2771 109.4063 45.5231 109.1364 Z M 33.2542 103.549 C 32.9821 101.57 32.6767 99.434 32.5754 98.8016 C 32.4741 98.1699 32.2903 96.7929 32.1673 95.7409 C 32.0205 94.4927 31.8931 93.9609 31.8012 94.2091 C 31.1399 95.9919 29.6544 103.6727 29.8208 104.4534 C 29.8917 104.7877 30.4163 105.2783 31.532 106.0554 C 32.417 106.6712 33.2505 107.3079 33.3844 107.4693 C 33.6029 107.7334 33.6348 107.732 33.6883 107.4556 C 33.7216 107.2862 33.5262 105.5287 33.2542 103.549 Z M 43.2185 92.4385 C 43.6823 92.5275 43.8451 92.322 43.4862 92.1006 C 43.1158 91.8712 42.5304 92.2098 42.5528 92.6403 C 42.5716 92.992 42.5897 93.0021 42.6664 92.7047 C 42.7323 92.4486 42.8849 92.3748 43.2185 92.4385 Z M 23.9605 89.0608 C 23.9605 89.0203 23.7883 88.9422 23.5771 88.8872 C 23.3665 88.8314 23.2428 88.8647 23.3014 88.9602 C 23.4041 89.1267 23.9605 89.2113 23.9605 89.0608 Z M 43.1874 87.241 C 43.2453 87.1477 43.1208 87.0268 42.9117 86.9719 C 42.7019 86.9169 42.5304 86.7454 42.5304 86.5905 C 42.5304 86.1926 43.0441 85.8149 43.3994 85.9516 C 43.5723 86.0175 43.6498 85.9856 43.5825 85.8771 C 43.1505 85.1781 41.9392 86.2808 42.3321 87.0153 C 42.5499 87.4219 43.0014 87.5413 43.1874 87.241 Z M 34.4481 86.3481 C 34.8395 86.1846 35.4401 85.7801 35.7823 85.4495 C 36.6629 84.5964 36.6181 83.9184 35.5776 82.3974 L 34.7512 81.189 L 33.0414 81.0545 C 32.1008 80.9806 31.0161 80.8822 30.6312 80.8359 C 29.951 80.7542 29.9293 80.7708 29.8418 81.4488 C 29.7918 81.8323 29.6102 82.7715 29.4373 83.5363 C 28.9843 85.5421 29.1819 86.0182 30.65 86.4632 C 31.5183 86.7273 33.6984 86.6607 34.4481 86.3481 Z M 45.4023 80.0226 C 45.4023 79.7006 44.9406 79.4691 44.6526 79.6471 C 44.534 79.7209 44.5861 79.9011 44.7872 80.1124 C 45.149 80.4937 45.4023 80.4568 45.4023 80.0226 Z M 40.6165 77.4554 C 40.6165 77.3505 40.5304 77.2644 40.4248 77.2644 C 40.3199 77.2644 40.2309 77.0704 40.2272 76.8331 C 40.2222 76.4409 40.2041 76.433 40.021 76.7477 C 39.877 76.9952 39.885 77.171 40.05 77.37 C 40.3155 77.6898 40.6165 77.7354 40.6165 77.4554 Z M 41.5731 76.6855 C 41.5731 76.4843 41.3799 76.2188 41.1426 76.0943 C 40.7229 75.8744 40.7207 75.878 41.0514 76.2514 C 41.2634 76.4909 41.3416 76.7644 41.2583 76.9807 C 41.1672 77.2188 41.1954 77.2839 41.3495 77.1884 C 41.4725 77.1124 41.5731 76.8859 41.5731 76.6855 Z M 30.4271 76.7745 C 30.9083 76.438 30.993 75.7745 30.5755 75.6139 C 30.1949 75.4684 29.1298 76.1269 29.1298 76.5075 C 29.1298 77.1421 29.7274 77.2651 30.4271 76.7745 Z M 29.5125 76.5053 C 29.5125 76.2658 30.1913 75.9011 30.3468 76.0567 C 30.514 76.2239 30.0943 76.6898 29.7759 76.6898 C 29.6312 76.6898 29.5125 76.6066 29.5125 76.5053 Z M 28.1841 73.2319 C 28.5907 72.8252 28.6218 72.2768 28.2456 72.1516 C 28.1117 72.1067 28.0647 72.2558 28.1204 72.5474 C 28.1884 72.9041 28.1103 73.0466 27.789 73.1479 C 27.2948 73.305 27.0878 73.1356 26.9699 72.4779 C 26.9062 72.1212 26.878 72.1784 26.8585 72.7015 C 26.8223 73.6696 27.4822 73.9337 28.1841 73.2319 Z M 27.7376 71.9794 C 27.6739 71.9157 27.509 71.9092 27.3708 71.9642 C 27.2181 72.0257 27.2629 72.0705 27.4865 72.0799 C 27.6884 72.0886 27.8013 72.043 27.7376 71.9794 Z M 42.4146 70.0691 C 42.5941 69.6024 42.5528 69.0684 42.3263 68.928 C 42.2142 68.8593 42.1382 68.9186 42.1577 69.0605 C 42.2395 69.6581 42.123 69.9425 41.7171 70.1386 C 41.2895 70.3448 41.2902 70.3463 41.7923 70.3593 C 42.0861 70.3665 42.3473 70.245 42.4146 70.0691 Z M 38.3192 61.35 C 38.3192 61.1388 38.4067 60.8016 38.5145 60.6004 C 38.6766 60.298 38.584 60.1077 37.982 59.5056 C 36.7418 58.2654 36.2816 56.7937 36.8105 55.7619 C 36.9285 55.5318 37.2895 55.0636 37.6137 54.7214 L 38.2027 54.0991 L 37.2201 54.0991 C 35.7063 54.0991 32.922 53.4146 30.637 52.4805 C 30.4018 52.3842 30.4633 52.6244 30.891 53.466 C 31.5248 54.7112 31.5226 55.2322 30.8772 57.6909 L 30.527 59.0252 L 31.5031 59.3334 C 32.0407 59.5035 33.7288 60.1489 35.2556 60.7676 C 36.7823 61.3869 38.0963 61.8573 38.1752 61.8139 C 38.2541 61.7704 38.3192 61.5613 38.3192 61.35 Z M 41.2381 52.3842 C 41.9074 52.1302 42.7561 51.5839 43.4052 50.9913 L 44.4717 50.016 L 43.0412 49.2685 C 41.3473 48.385 39.2757 46.3771 39.2757 45.6202 C 39.2757 45.0247 39.715 44.6492 40.2229 44.8106 C 40.4378 44.8793 40.9928 45.5211 41.4566 46.2374 C 41.9197 46.9538 42.5883 47.7562 42.9414 48.0211 C 43.6447 48.5478 44.7091 49.1216 44.9826 49.1216 C 45.2091 49.1216 46.2062 47.6021 47.6005 45.1311 C 48.7676 43.0624 48.8212 43.0161 50.5939 42.5291 C 51.1858 42.3663 51.7647 42.1189 51.8804 41.9792 C 52.1706 41.6297 51.8725 40.6138 50.8928 38.6124 C 49.9362 36.658 49.892 35.7702 50.6344 33.4613 C 51.1409 31.886 51.2893 30.1683 51.0302 28.8724 C 50.9181 28.313 50.8566 28.2826 49.201 27.9614 C 45.5173 27.2458 43.6056 27.9722 37.0761 32.5713 C 32.8866 35.5213 30.8678 36.4243 27.0119 37.0712 C 25.742 37.2846 25.5654 37.3635 25.5756 37.7137 C 25.5835 37.9749 25.4526 38.1327 25.1971 38.1696 C 24.8954 38.2123 24.5546 37.8548 23.7022 36.6001 C 21.8926 33.9359 21.0626 33.4215 19.6915 34.1161 C 18.3051 34.818 17.6365 35.9221 17.6539 37.4836 C 17.6705 39.0596 17.9918 39.747 19.0301 40.4257 C 20.347 41.2875 20.5344 41.4807 22.9034 44.4314 C 27.1182 49.6795 29.569 51.4783 33.82 52.445 C 34.5573 52.6129 35.3323 52.7909 35.5428 52.8401 C 35.7534 52.89 36.8735 52.9023 38.0319 52.8668 C 39.6151 52.8184 40.4103 52.699 41.2381 52.3842 Z M 41.89 34.9873 C 41.5225 34.5814 41.4537 32.8564 41.78 32.2457 C 42.0811 31.6842 43.1628 31.2761 43.754 31.5004 C 44.3741 31.7363 44.6367 32.2529 44.6367 33.2384 C 44.6367 34.7557 42.7619 35.9504 41.89 34.9873 Z "/>
        <path id="path57" fill="#ac6059" stroke-width="0.1914460324131775" d="M 28.2419 110.4808 C 26.9641 110.2377 25.7579 109.9584 25.5618 109.86 C 25.3657 109.7623 24.7312 109.5727 24.1516 109.4389 C 23.4237 109.2703 22.9844 109.0431 22.729 108.7023 C 22.3759 108.232 22.3694 108.0872 22.6002 105.6112 C 22.7326 104.1828 22.9135 102.2386 23.0018 101.2907 C 23.0901 100.3428 23.3079 98.0332 23.4859 96.1584 C 23.6646 94.2829 23.7797 92.7214 23.742 92.6874 C 23.7044 92.6541 22.7254 92.7402 21.5677 92.8791 C 17.9961 93.3075 17.2595 93.2199 17.2595 92.3668 C 17.2595 92 18.2436 90.686 20.1994 88.4393 C 22.0467 86.3177 22.5308 85.3814 23.1075 82.8164 C 23.3795 81.6051 23.6668 80.3562 23.7456 80.04 C 23.8708 79.5393 23.797 79.3758 23.1697 78.7585 C 21.8332 77.4445 21.9316 76.5263 23.8137 72.7724 C 25.3469 69.7131 25.4909 69.1647 25.4533 66.5323 C 25.4149 63.8319 25.5929 63.3609 27.2803 61.6988 L 28.5191 60.4781 L 24.7558 60.4941 C 21.2406 60.51 20.8752 60.4774 19.1987 60.0049 L 17.4035 59.4984 L 16.5757 60.1308 C 15.2603 61.1351 14.0577 61.4463 12.0107 61.3139 C 9.2806 61.1366 4.2916 59.6287 2.7113 58.5035 C 1.7945 57.8508 0.9711 55.929 0.8495 54.1577 C 0.754 52.7619 0.7815 52.6056 1.2034 52.115 C 1.5615 51.6983 1.9559 51.5275 3.0304 51.3227 C 5.039 50.94 7.3046 49.3922 7.3046 48.4031 C 7.3046 48.1542 6.4869 46.3662 5.4877 44.43 C 2.5087 38.6558 1.8893 36.7904 1.5478 32.5539 C 0.8626 24.0599 3.2562 16.7705 8.7532 10.6093 C 13.1076 5.7302 20.182 1.8989 26.7362 0.8714 C 28.6681 0.569 32.7325 0.6138 35.0638 0.9633 C 40.1592 1.7267 45.9044 4.0363 50.9543 7.351 C 54.8608 9.9147 56.8782 12.0398 57.8536 14.6165 C 59.3817 18.6533 58.9794 25.2197 57.0612 27.5468 C 56.0338 28.7935 54.9592 29.0996 52.8102 28.7566 L 51.8891 28.6104 L 52.0157 30.203 C 52.1178 31.4946 52.0657 32.0915 51.7393 33.3592 C 51.1634 35.598 51.2068 36.6226 51.9405 38.0712 C 52.5953 39.3656 53.0541 40.8627 53.0577 41.718 C 53.0606 42.4748 52.235 43.2317 50.8566 43.7353 C 48.9463 44.4328 48.861 44.5088 47.9435 46.3409 C 46.8371 48.5478 45.6164 50.4392 44.5622 51.576 C 43.7496 52.453 43.7243 52.5202 43.3835 54.7214 L 43.0347 56.971 L 43.4529 57.9796 C 43.683 58.5346 43.8712 59.0896 43.8712 59.2133 C 43.8712 59.6417 43.0239 60.0339 42.1006 60.0339 C 41.1874 60.0339 41.1838 60.0368 41.4682 60.4709 C 42.2627 61.6836 45.8234 71.9331 46.9059 76.1233 C 47.6743 79.0972 47.8914 80.8193 47.8914 83.9451 C 47.8914 87.7931 47.1663 94.1164 46.5339 95.7857 C 46.2626 96.5021 45.6034 97.1743 45.1729 97.1743 C 44.7351 97.1743 42.2634 95.9456 41.7945 95.4949 C 41.6057 95.3132 41.1773 94.9681 40.8423 94.7279 C 40.0912 94.1895 40.1093 93.767 40.6433 99.4007 L 41.0637 103.8275 L 41.9769 104.4259 C 42.4797 104.7544 42.9819 105.0236 43.0933 105.0236 C 43.2055 105.0236 43.2967 105.1097 43.2967 105.2154 C 43.2967 105.3203 43.3871 105.4071 43.4971 105.4071 C 43.7865 105.4071 45.7322 106.6741 46.7676 107.5373 C 47.7524 108.3579 48.0607 109.1639 47.5375 109.5496 C 46.8813 110.0329 44.7366 110.2384 40.0854 110.263 C 37.482 110.2775 35.2997 110.3593 35.236 110.4461 C 34.7809 111.0662 31.404 111.0828 28.2419 110.4808 Z M 33.621 109.4852 C 33.7758 108.8658 33.6333 108.7117 31.6464 107.3506 C 30.7296 106.7233 29.8599 105.986 29.7137 105.7125 C 29.5675 105.439 29.3794 105.2154 29.2955 105.2154 C 29.2115 105.2154 29.0538 105.0489 28.9445 104.8449 C 28.8013 104.5764 28.8519 103.8796 29.1305 102.308 C 29.8324 98.3501 30.8627 93.4602 31.1558 92.7004 C 31.2802 92.377 31.2122 92.3509 30.451 92.4283 C 29.9872 92.4754 29.3497 92.4392 29.0335 92.348 C 28.7181 92.2568 27.6718 92.238 26.7094 92.3061 L 24.9598 92.4305 L 24.8491 93.1273 C 24.7883 93.5108 24.606 95.5043 24.4439 97.5578 C 24.0474 102.5685 23.8202 105.2421 23.6588 106.7949 C 23.585 107.5055 23.5611 108.0872 23.6053 108.0872 C 23.6501 108.0872 24.2008 108.2696 24.8288 108.4932 C 27.564 109.4664 29.5683 109.8376 32.6073 109.9338 C 33.4112 109.9599 33.5132 109.9143 33.621 109.4852 Z M 45.5231 109.1364 C 46.17 108.9968 46.2156 108.1943 45.602 107.7406 C 44.7735 107.1278 40.9913 105.0236 40.7186 105.0236 C 40.5804 105.0236 40.283 104.8731 40.0579 104.6886 C 39.6781 104.3775 39.6361 104.083 39.4617 100.5251 C 39.359 98.4188 39.2483 96.0064 39.2157 95.1642 L 39.1571 93.6331 L 38.0594 93.0781 C 37.2049 92.6469 36.5363 92.4833 35.0436 92.3408 C 33.9886 92.2402 33.0877 92.1953 33.0421 92.2409 C 32.956 92.327 33.2288 94.4008 33.9177 98.8978 C 34.4133 102.1308 34.5913 103.3522 35.0146 106.3962 C 35.1998 107.7305 35.4119 108.8817 35.4849 108.9548 C 35.7838 109.2522 44.2771 109.4063 45.5231 109.1364 Z M 33.2542 103.549 C 32.9821 101.57 32.6767 99.434 32.5754 98.8016 C 32.4741 98.1699 32.2903 96.7929 32.1673 95.7409 C 32.0205 94.4927 31.8931 93.9609 31.8012 94.2091 C 31.1399 95.9919 29.6544 103.6727 29.8208 104.4534 C 29.8917 104.7877 30.4163 105.2783 31.532 106.0554 C 32.417 106.6712 33.2505 107.3079 33.3844 107.4693 C 33.6029 107.7334 33.6348 107.732 33.6883 107.4556 C 33.7216 107.2862 33.5262 105.5287 33.2542 103.549 Z M 43.2185 92.4385 C 43.6823 92.5275 43.8451 92.322 43.4862 92.1006 C 43.1158 91.8712 42.5304 92.2098 42.5528 92.6403 C 42.5716 92.992 42.5897 93.0021 42.6664 92.7047 C 42.7323 92.4486 42.8849 92.3748 43.2185 92.4385 Z M 23.9605 89.0608 C 23.9605 89.0203 23.7883 88.9422 23.5771 88.8872 C 23.3665 88.8314 23.2428 88.8647 23.3014 88.9602 C 23.4041 89.1267 23.9605 89.2113 23.9605 89.0608 Z M 43.1874 87.241 C 43.2453 87.1477 43.1208 87.0268 42.9117 86.9719 C 42.7019 86.9169 42.5304 86.7454 42.5304 86.5905 C 42.5304 86.1926 43.0441 85.8149 43.3994 85.9516 C 43.5723 86.0175 43.6498 85.9856 43.5825 85.8771 C 43.1505 85.1781 41.9392 86.2808 42.3321 87.0153 C 42.5499 87.4219 43.0014 87.5413 43.1874 87.241 Z M 34.4481 86.3481 C 34.8395 86.1846 35.4401 85.7801 35.7823 85.4495 C 36.6629 84.5964 36.6181 83.9184 35.5776 82.3974 L 34.7512 81.189 L 33.0414 81.0545 C 32.1008 80.9806 31.0161 80.8822 30.6312 80.8359 C 29.951 80.7542 29.9293 80.7708 29.8418 81.4488 C 29.7918 81.8323 29.6102 82.7715 29.4373 83.5363 C 28.9843 85.5421 29.1819 86.0182 30.65 86.4632 C 31.5183 86.7273 33.6984 86.6607 34.4481 86.3481 Z M 45.4023 80.0226 C 45.4023 79.7006 44.9406 79.4691 44.6526 79.6471 C 44.534 79.7209 44.5861 79.9011 44.7872 80.1124 C 45.149 80.4937 45.4023 80.4568 45.4023 80.0226 Z M 40.6165 77.4554 C 40.6165 77.3505 40.5304 77.2644 40.4248 77.2644 C 40.3199 77.2644 40.2309 77.0704 40.2272 76.8331 C 40.2222 76.4409 40.2041 76.433 40.021 76.7477 C 39.877 76.9952 39.885 77.171 40.05 77.37 C 40.3155 77.6898 40.6165 77.7354 40.6165 77.4554 Z M 41.5731 76.6855 C 41.5731 76.4843 41.3799 76.2188 41.1426 76.0943 C 40.7229 75.8744 40.7207 75.878 41.0514 76.2514 C 41.2634 76.4909 41.3416 76.7644 41.2583 76.9807 C 41.1672 77.2188 41.1954 77.2839 41.3495 77.1884 C 41.4725 77.1124 41.5731 76.8859 41.5731 76.6855 Z M 30.4271 76.7745 C 30.9083 76.438 30.993 75.7745 30.5755 75.6139 C 30.1949 75.4684 29.1298 76.1269 29.1298 76.5075 C 29.1298 77.1421 29.7274 77.2651 30.4271 76.7745 Z M 28.1841 73.2319 C 28.5907 72.8252 28.6218 72.2768 28.2456 72.1516 C 28.1117 72.1067 28.0647 72.2558 28.1204 72.5474 C 28.1884 72.9041 28.1103 73.0466 27.789 73.1479 C 27.2948 73.305 27.0878 73.1356 26.9699 72.4779 C 26.9062 72.1212 26.878 72.1784 26.8585 72.7015 C 26.8223 73.6696 27.4822 73.9337 28.1841 73.2319 Z M 27.7376 71.9794 C 27.6739 71.9157 27.509 71.9092 27.3708 71.9642 C 27.2181 72.0257 27.2629 72.0705 27.4865 72.0799 C 27.6884 72.0886 27.8013 72.043 27.7376 71.9794 Z M 42.4146 70.0691 C 42.5991 69.5887 42.5499 69.0663 42.3068 68.9165 C 42.1549 68.8224 42.123 68.8832 42.2091 69.1068 C 42.2916 69.3217 42.1722 69.5995 41.8676 69.9042 L 41.3994 70.3723 L 41.8488 70.3723 C 42.0962 70.3723 42.3509 70.2356 42.4146 70.0691 Z M 38.3192 61.35 C 38.3192 61.1388 38.4067 60.8016 38.5145 60.6004 C 38.6766 60.298 38.584 60.1077 37.982 59.5056 C 36.7418 58.2654 36.2816 56.7937 36.8105 55.7619 C 36.9285 55.5318 37.2895 55.0636 37.6137 54.7214 L 38.2027 54.0991 L 37.2201 54.0991 C 35.7063 54.0991 32.922 53.4146 30.637 52.4805 C 30.4018 52.3842 30.4633 52.6244 30.891 53.466 C 31.5248 54.7112 31.5226 55.2322 30.8772 57.6909 L 30.527 59.0252 L 31.5031 59.3334 C 32.0407 59.5035 33.7288 60.1489 35.2556 60.7676 C 36.7823 61.3869 38.0963 61.8573 38.1752 61.8139 C 38.2541 61.7704 38.3192 61.5613 38.3192 61.35 Z M 14.7161 60.1967 C 16.9997 59.3486 19.2052 56.3812 19.8868 53.2395 C 20.1734 51.9182 20.169 51.8032 19.7826 50.5304 C 19.5605 49.7989 18.8955 48.3995 18.3058 47.4205 C 17.2935 45.7411 17.0873 44.9734 17.7132 45.2136 C 18.3376 45.4531 20.2479 48.8423 20.7023 50.5174 C 21.2153 52.4059 20.5619 55.1808 19.0692 57.4529 C 18.6003 58.167 18.2168 58.7719 18.2168 58.7973 C 18.2168 58.8233 18.842 59.0042 19.6053 59.1996 C 20.7023 59.481 21.5937 59.5469 23.865 59.5158 C 25.4439 59.4941 27.1602 59.408 27.679 59.324 L 28.6211 59.1721 L 29.1348 57.9174 C 29.4178 57.2278 29.7622 56.2221 29.9004 55.683 C 30.1312 54.7821 30.1167 54.6128 29.7231 53.5875 C 29.4872 52.9739 29.2788 52.343 29.26 52.1845 C 29.2405 52.0268 28.6775 51.5232 28.0082 51.0659 C 26.3983 49.9668 24.1429 47.6853 21.593 44.5776 C 20.2298 42.9162 19.1987 41.8504 18.5989 41.4814 C 16.9874 40.4894 16.1112 38.8273 16.1112 36.7608 C 16.1112 35.4142 16.4448 34.6313 17.3623 33.826 C 18.3897 32.9237 19.4802 32.475 20.6574 32.47 C 21.5518 32.4664 21.7493 32.5445 22.457 33.1834 C 22.8947 33.5785 23.5879 34.3549 23.9974 34.9091 C 24.5922 35.7145 24.8079 35.8831 25.0691 35.747 C 25.2492 35.6537 26.2145 35.5162 27.2152 35.4424 C 29.5328 35.2695 31.6066 34.878 32.4184 34.4584 C 32.7679 34.2782 34.1977 33.2608 35.5956 32.1972 C 39.8372 28.9715 42.3263 27.3362 43.9667 26.6987 C 45.3574 26.1575 45.6389 26.1126 47.0296 26.2045 C 47.9869 26.2682 49.4579 26.5743 50.9543 27.0229 C 53.9036 27.9057 55.2914 27.9874 56.0019 27.3203 C 57.2899 26.1119 57.944 23.2408 57.7949 19.4557 C 57.6784 16.5115 57.2573 14.8357 56.2306 13.2308 C 54.5794 10.6491 49.6866 7.2584 44.2539 4.9307 C 35.7035 1.2672 27.9243 0.8106 20.9722 3.5638 C 16.6727 5.2664 13.5005 7.3141 10.4557 10.351 C 4.4522 16.3393 1.8054 23.7509 2.5022 32.6234 C 2.8017 36.4366 3.2605 37.8606 5.8965 43.1651 C 7.4276 46.2476 8.1265 47.8604 8.1388 48.3394 C 8.1642 49.2895 7.5614 50.0746 6.1063 50.9877 C 4.7344 51.8495 3.8654 52.1845 3.0051 52.1845 C 1.9226 52.1845 1.6527 52.5579 1.6874 54.0072 C 1.7113 55.0122 1.8466 55.5455 2.3206 56.5086 C 2.8936 57.6728 2.9913 57.7654 4.3003 58.3913 C 6.4934 59.4398 10.7387 60.565 12.6098 60.5932 C 13.1952 60.6019 14.0664 60.4383 14.7161 60.1967 Z M 40.5832 58.8667 C 40.7909 58.5353 40.9515 58.4869 41.5044 58.5903 C 41.8734 58.6598 42.3039 58.7654 42.4609 58.8262 C 42.6766 58.9087 42.6498 58.7756 42.3524 58.2886 C 41.8575 57.476 41.8495 56.4854 42.3263 54.7677 C 42.5297 54.0347 42.678 53.4168 42.6563 53.3958 C 42.6353 53.3741 42.1107 53.5231 41.4913 53.7279 C 40.872 53.9319 40.1267 54.0991 39.8358 54.0991 C 39.398 54.0991 39.186 54.2908 38.6209 55.1939 C 38.2439 55.7959 37.9357 56.4724 37.9357 56.6975 C 37.9357 57.264 38.681 58.3125 39.4523 58.8327 C 40.2424 59.3653 40.2714 59.366 40.5832 58.8667 Z M 41.2381 52.3842 C 41.9074 52.1302 42.7561 51.5847 43.4052 50.9913 L 44.4717 50.016 L 43.0412 49.2692 C 41.3473 48.385 39.2765 46.3771 39.2765 45.6202 C 39.2765 45.0247 39.715 44.6492 40.2229 44.8106 C 40.4378 44.8793 40.9928 45.5211 41.4566 46.2374 C 41.9197 46.9538 42.5883 47.7562 42.9414 48.0211 C 43.6447 48.5478 44.7091 49.1216 44.9826 49.1216 C 45.2091 49.1216 46.2062 47.6021 47.6005 45.1311 C 48.7676 43.0624 48.8212 43.0161 50.5939 42.5291 C 51.1858 42.3663 51.7647 42.1189 51.8804 41.9792 C 52.1706 41.6297 51.8725 40.6138 50.8928 38.6124 C 49.9362 36.658 49.892 35.7702 50.6344 33.4613 C 51.1409 31.886 51.2893 30.1683 51.0302 28.8724 C 50.9181 28.313 50.8566 28.2826 49.2018 27.9614 C 45.5173 27.2458 43.6056 27.9722 37.0761 32.5713 C 32.8866 35.5213 30.8678 36.4243 27.0119 37.0712 C 25.742 37.2846 25.5654 37.3635 25.5756 37.7137 C 25.5835 37.9757 25.4526 38.1327 25.1971 38.1696 C 24.8954 38.213 24.5546 37.8548 23.7022 36.6001 C 21.8926 33.9359 21.0626 33.4215 19.6915 34.1161 C 18.3051 34.818 17.6372 35.9221 17.6539 37.4836 C 17.6705 39.0596 17.9918 39.747 19.0301 40.4257 C 20.347 41.2875 20.5344 41.4807 22.9034 44.4314 C 27.1182 49.6795 29.569 51.4783 33.82 52.445 C 34.5573 52.6129 35.3323 52.7909 35.5428 52.8401 C 35.7534 52.89 36.8735 52.9023 38.0319 52.8668 C 39.6151 52.8184 40.4103 52.699 41.2381 52.3842 Z M 41.89 34.9873 C 41.5225 34.5814 41.4537 32.8564 41.78 32.2457 C 42.0811 31.6842 43.1628 31.2761 43.754 31.5004 C 44.3741 31.7363 44.6367 32.2529 44.6367 33.2384 C 44.6367 34.7557 42.7619 35.9504 41.89 34.9873 Z "/>
        <path id="path55" fill="#013dfa" stroke-width="0.1914460324131775" d="M 28.2419 110.4808 C 26.9641 110.2377 25.7579 109.9584 25.5618 109.86 C 25.3657 109.7623 24.7312 109.5727 24.1516 109.4389 C 23.4237 109.2703 22.9844 109.0431 22.729 108.7023 C 22.3759 108.232 22.3694 108.0872 22.6002 105.6112 C 22.7326 104.1828 22.9135 102.2386 23.0018 101.2907 C 23.0901 100.3428 23.3079 98.0332 23.4859 96.1584 C 23.6646 94.2829 23.7797 92.7214 23.742 92.6874 C 23.7044 92.6541 22.7254 92.7402 21.5677 92.8791 C 17.9961 93.3075 17.2595 93.2199 17.2595 92.3668 C 17.2595 92 18.2436 90.686 20.1994 88.4393 C 22.0467 86.3177 22.5308 85.3814 23.1075 82.8164 C 23.3795 81.6051 23.6668 80.3562 23.7456 80.04 C 23.8708 79.5393 23.797 79.3758 23.1697 78.7585 C 21.8332 77.4445 21.9316 76.5263 23.8137 72.7724 C 25.3469 69.7131 25.4909 69.1647 25.4533 66.5323 C 25.4149 63.8319 25.5929 63.3609 27.2803 61.6988 L 28.5191 60.4781 L 24.7558 60.4941 C 21.2406 60.51 20.8752 60.4774 19.1987 60.0049 L 17.4035 59.4984 L 16.5757 60.1308 C 15.2603 61.1351 14.0577 61.4463 12.0107 61.3139 C 9.2806 61.1366 4.2916 59.6287 2.7113 58.5035 C 1.7945 57.8508 0.9711 55.929 0.8495 54.1577 C 0.754 52.7619 0.7815 52.6056 1.2034 52.115 C 1.5615 51.6983 1.9559 51.5275 3.0304 51.3227 C 5.039 50.94 7.3046 49.3922 7.3046 48.4031 C 7.3046 48.1542 6.4869 46.3662 5.4877 44.43 C 2.5087 38.6558 1.8893 36.7904 1.5478 32.5539 C 0.8626 24.0599 3.2562 16.7705 8.7532 10.6093 C 13.1076 5.7302 20.182 1.8989 26.7362 0.8714 C 28.6681 0.569 32.7325 0.6138 35.0638 0.9633 C 40.1592 1.7267 45.9044 4.0363 50.9543 7.351 C 54.8608 9.9147 56.8782 12.0398 57.8536 14.6165 C 59.3817 18.6533 58.9794 25.2197 57.0612 27.5468 C 56.0338 28.7935 54.9592 29.0996 52.8102 28.7566 L 51.8891 28.6104 L 52.0157 30.203 C 52.1178 31.4946 52.0657 32.0915 51.7393 33.3592 C 51.1634 35.598 51.2068 36.6226 51.9405 38.0712 C 52.5953 39.3656 53.0541 40.8627 53.0577 41.718 C 53.0606 42.4748 52.235 43.2317 50.8566 43.7353 C 48.9463 44.4328 48.861 44.5088 47.9435 46.3409 C 46.8371 48.5478 45.6164 50.4392 44.5622 51.576 C 43.7496 52.453 43.7243 52.5202 43.3835 54.7214 L 43.0347 56.971 L 43.4529 57.9796 C 43.683 58.5346 43.8712 59.0896 43.8712 59.2133 C 43.8712 59.6417 43.0239 60.0339 42.1006 60.0339 C 41.1874 60.0339 41.1838 60.0368 41.4682 60.4709 C 42.2627 61.6836 45.8234 71.9331 46.9059 76.1233 C 47.6743 79.0972 47.8914 80.8193 47.8914 83.9451 C 47.8914 87.7931 47.1663 94.1164 46.5339 95.7857 C 46.2626 96.5021 45.6034 97.1743 45.1729 97.1743 C 44.7351 97.1743 42.2634 95.9456 41.7945 95.4949 C 41.6057 95.3132 41.1773 94.9681 40.8423 94.7279 C 40.0912 94.1895 40.1093 93.767 40.6433 99.4007 L 41.0637 103.8275 L 41.9769 104.4259 C 42.4797 104.7544 42.9819 105.0236 43.0933 105.0236 C 43.2055 105.0236 43.2967 105.1097 43.2967 105.2154 C 43.2967 105.3203 43.3871 105.4071 43.4971 105.4071 C 43.7865 105.4071 45.7322 106.6741 46.7676 107.5373 C 47.7524 108.3579 48.0607 109.1639 47.5375 109.5496 C 46.8813 110.0329 44.7366 110.2384 40.0854 110.263 C 37.482 110.2775 35.2997 110.3593 35.236 110.4461 C 34.7809 111.0662 31.404 111.0828 28.2419 110.4808 Z M 33.8504 109.5199 C 34.0544 109.0793 34.0088 108.991 33.2759 108.4034 C 32.8381 108.0525 31.9083 107.3637 31.2093 106.8724 C 29.6421 105.7696 28.9366 104.8854 28.9431 104.0316 C 28.9489 103.3167 30.1963 97.1063 30.909 94.2467 L 31.3765 92.3719 L 30.4923 92.3856 C 30.006 92.3929 28.8208 92.3422 27.8584 92.2728 C 26.8968 92.2033 25.8107 92.2026 25.446 92.2706 L 24.7825 92.3951 L 24.6624 93.8755 C 24.5958 94.6895 24.4142 96.9492 24.2572 98.8971 C 23.7833 104.8015 23.5821 107.0091 23.4707 107.5402 C 23.3737 108.0033 23.4439 108.0749 24.2847 108.3745 C 25.8375 108.928 26.111 109.0112 27.6935 109.4107 C 29.7144 109.9208 29.8931 109.9447 31.9054 109.9736 C 33.5675 109.9975 33.6362 109.9816 33.8504 109.5199 Z M 45.8748 109.2037 C 45.9059 109.1683 45.9884 108.8767 46.0571 108.5554 C 46.1794 107.9823 46.1418 107.9461 44.1997 106.7899 C 43.1093 106.1401 41.7366 105.3883 41.1491 105.1191 C 40.5608 104.85 39.9957 104.5251 39.8937 104.3963 C 39.6759 104.1235 39.521 102.0736 39.3539 97.2698 C 39.2179 93.3364 39.2381 93.3885 37.5746 92.7482 C 36.7678 92.4377 36.0479 92.3292 34.6818 92.3133 C 33.5646 92.301 32.875 92.3661 32.8938 92.4841 C 32.9105 92.589 33.189 94.4847 33.5117 96.696 C 33.8337 98.9072 34.2795 101.879 34.5009 103.3008 C 34.7223 104.7219 34.9849 106.5699 35.0848 107.4064 C 35.1847 108.2428 35.3142 108.9751 35.3728 109.0337 C 35.6586 109.3188 45.6258 109.4801 45.8748 109.2037 Z M 33.2542 103.549 C 32.9821 101.57 32.6767 99.4333 32.5754 98.8016 C 32.4741 98.1699 32.2903 96.7922 32.1673 95.7409 C 32.0205 94.4927 31.8931 93.9601 31.8012 94.2091 C 31.1399 95.9919 29.6544 103.6727 29.8208 104.4527 C 29.8917 104.787 30.4163 105.2783 31.532 106.0554 C 32.417 106.6712 33.2505 107.3072 33.3844 107.4693 C 33.6029 107.7327 33.6348 107.732 33.6883 107.4556 C 33.7216 107.2862 33.5262 105.5287 33.2542 103.549 Z M 43.6476 92.7952 C 43.7301 92.2149 43.4421 91.9334 42.9327 92.0948 C 42.487 92.2366 42.4023 92.7576 42.7663 93.1215 C 43.1187 93.4739 43.5752 93.3046 43.6476 92.7952 Z M 24.2268 88.6976 C 24.3911 88.4342 24.3744 88.3155 24.1516 88.1737 C 23.7355 87.9082 23.6154 87.9393 23.3839 88.372 C 22.9844 89.1187 23.7753 89.4233 24.2268 88.6976 Z M 43.3777 87.0435 C 43.8256 86.5493 43.7048 85.8004 43.165 85.7237 C 42.5731 85.6398 42.0398 86.4675 42.3321 87.0145 C 42.597 87.5087 42.9479 87.5189 43.3777 87.0435 Z M 34.4481 86.3481 C 34.8395 86.1846 35.4401 85.7801 35.7823 85.4487 C 36.6629 84.5964 36.6181 83.9184 35.5776 82.3974 L 34.7512 81.1883 L 33.0414 81.0545 C 32.1008 80.9806 31.0161 80.8822 30.6312 80.8359 C 29.951 80.7534 29.9293 80.7708 29.8418 81.4488 C 29.7918 81.8323 29.6102 82.7715 29.4373 83.5363 C 29.0299 85.3402 29.1573 85.8235 30.1609 86.2787 C 31.1608 86.7331 33.4365 86.77 34.4481 86.3481 Z M 45.1085 80.5255 C 45.6823 79.8924 45.0846 79.1898 44.4833 79.7911 C 44.1715 80.103 44.1917 80.9018 44.5115 80.9018 C 44.6526 80.9018 44.9218 80.7325 45.1085 80.5255 Z M 40.9696 77.3454 C 41.6303 77.0162 41.7706 76.4359 41.2591 76.1501 C 40.7938 75.8896 40.309 76.0842 40.0594 76.632 C 39.893 76.9966 39.8937 77.1804 40.0594 77.3809 C 40.3278 77.7043 40.2439 77.7079 40.9696 77.3454 Z M 30.4271 76.7745 C 30.9083 76.4373 30.993 75.7745 30.5755 75.6139 C 30.1949 75.4684 29.1298 76.1269 29.1298 76.5075 C 29.1298 77.1421 29.7274 77.2644 30.4271 76.7745 Z M 28.1725 73.2435 C 28.6949 72.721 28.6529 72.3144 28.0509 72.085 C 27.2557 71.7826 26.8324 72.0177 26.8324 72.7623 C 26.8324 73.6653 27.5075 73.9084 28.1725 73.2435 Z M 42.4522 69.894 C 42.6187 69.2291 42.4392 68.8731 41.8661 68.7291 C 40.9696 68.504 40.4545 69.4165 41.1086 70.0713 C 41.5883 70.551 42.3111 70.4555 42.4522 69.894 Z M 38.3192 61.35 C 38.3192 61.1388 38.4089 60.7972 38.5196 60.591 C 38.686 60.2792 38.6108 60.1135 38.0674 59.599 C 37.2439 58.819 36.5956 57.5571 36.5956 56.7336 C 36.5956 56.0737 36.8894 55.5209 37.7143 54.6259 L 38.1991 54.0991 L 37.2186 54.0991 C 35.9082 54.0991 33.9423 53.67 31.9944 52.9595 C 31.1153 52.6382 30.383 52.3763 30.3671 52.3763 C 30.3504 52.3763 30.5827 52.8618 30.8823 53.4558 C 31.5241 54.7293 31.5313 54.9949 30.9785 57.2568 L 30.5581 58.9782 L 33.1463 59.9608 C 34.5696 60.5013 36.2512 61.1568 36.8829 61.4181 C 38.1368 61.9361 38.3192 61.9275 38.3192 61.35 Z M 15.2501 59.9904 C 17.7993 58.688 19.9505 55.1099 20.0011 52.089 C 20.0207 50.9479 19.931 50.55 19.397 49.4089 C 19.0525 48.6716 18.4303 47.5457 18.0149 46.9067 C 17.2364 45.7078 17.1307 45.3952 17.4397 45.2042 C 17.7023 45.0421 18.3311 45.7772 19.2334 47.3025 C 20.2074 48.9472 20.8861 50.8546 20.8926 51.9653 C 20.9027 53.6592 19.8637 56.4746 18.6343 58.0867 C 18.0214 58.8913 18.1104 58.9528 20.491 59.3819 C 22.2659 59.701 24.8867 59.6865 27.7079 59.3414 L 28.679 59.2227 L 29.2933 57.5969 C 30.1855 55.238 30.239 54.5615 29.6356 53.2445 C 29.362 52.6469 29.158 52.0876 29.1819 52.0007 C 29.2057 51.9146 28.6913 51.4855 28.0386 51.0478 C 26.5538 50.0514 24.1205 47.6296 22.1335 45.1716 C 20.279 42.8764 19.3629 41.9445 18.156 41.1232 C 16.821 40.2151 16.2118 38.8447 16.2089 36.7434 C 16.2067 35.2832 16.2451 35.1356 16.8 34.4461 C 17.7501 33.2666 19.0084 32.5901 20.4201 32.5004 C 21.6089 32.4244 21.6379 32.4345 22.4881 33.2181 C 22.9627 33.6552 23.6711 34.4786 24.0626 35.0473 C 24.6834 35.9489 24.8107 36.0459 25.0517 35.8049 C 25.2138 35.6428 25.6986 35.5285 26.229 35.5285 C 27.5625 35.5285 30.2202 35.1725 31.4734 34.8259 C 32.3591 34.5806 33.2093 34.0401 35.8366 32.0503 C 39.9689 28.9201 41.5796 27.8405 43.4378 26.9534 C 44.8198 26.2935 45.0441 26.2443 46.6468 26.2537 C 48.094 26.2617 48.8255 26.3963 51.2104 27.0902 C 54.6112 28.08 55.3066 28.0721 56.2573 27.0345 C 57.7899 25.3623 58.3883 19.9065 57.4563 16.0969 C 57.3282 15.5709 56.9773 14.6143 56.677 13.9725 C 55.0367 10.4617 46.9833 5.3598 39.6375 3.1775 C 34.8873 1.7658 29.4134 1.3837 25.5517 2.1934 C 21.8282 2.9741 17.8492 4.6536 14.5671 6.8301 C 12.2712 8.3532 8.5802 12.0268 7.0665 14.2959 C 3.6954 19.3508 2.4486 23.5787 2.4421 29.9765 C 2.4371 35.6204 2.8618 37.2166 6.0738 43.6318 C 8.4594 48.3951 8.5477 48.8503 7.3147 50.0471 C 6.2793 51.0514 4.4595 51.9855 3.259 52.1273 C 1.563 52.3285 1.2547 53.0333 1.8553 55.34 C 2.432 57.5534 3.2156 58.209 6.6345 59.3371 C 10.7871 60.7068 13.4521 60.9087 15.2501 59.9904 Z M 40.5941 58.8653 C 40.8864 58.5035 40.9979 58.484 41.6773 58.6728 C 42.7525 58.9709 42.7641 58.9622 42.3394 58.1699 C 41.864 57.2828 41.8633 56.6859 42.3336 54.8719 C 42.5376 54.0861 42.6838 53.4225 42.6577 53.3965 C 42.6317 53.3705 42.0673 53.5173 41.4045 53.7236 C 40.7417 53.9305 39.9487 54.0991 39.6419 54.0991 C 39.3351 54.0991 39.0847 54.1859 39.0847 54.2923 C 39.0847 54.3987 38.8264 54.8422 38.5102 55.2778 C 37.7743 56.2944 37.757 57.1113 38.4545 57.9406 C 38.8836 58.4507 39.9559 59.2647 40.2026 59.2676 C 40.2381 59.2676 40.4147 59.0867 40.5941 58.8653 Z M 41.2381 52.3893 C 41.8987 52.1353 42.7641 51.5767 43.4052 50.9906 L 44.4717 50.016 L 43.0412 49.2685 C 41.3249 48.3734 39.2765 46.3778 39.2765 45.6029 C 39.2765 45.0681 39.8322 44.6499 40.3032 44.8301 C 40.4617 44.8916 40.953 45.4958 41.3951 46.1738 C 41.8365 46.8518 42.4566 47.6245 42.7728 47.8901 C 43.3734 48.3959 44.6823 49.1216 44.9934 49.1216 C 45.2054 49.1216 46.7148 46.7874 47.8798 44.6564 C 48.7365 43.0906 48.8378 43.011 50.5939 42.5284 C 51.1858 42.3663 51.7647 42.1189 51.8804 41.9792 C 52.1742 41.6254 51.8718 40.5892 50.8978 38.6124 C 49.9405 36.6689 49.8978 35.8078 50.6417 33.4605 C 51.1402 31.8889 51.2871 30.1567 51.0302 28.8745 C 50.921 28.3246 50.8443 28.2841 49.3552 27.9889 C 45.4435 27.2125 43.877 27.7986 37.0102 32.6074 C 32.7831 35.5683 30.8005 36.4504 27.0104 37.0603 C 25.7225 37.2673 25.5633 37.3389 25.5748 37.7029 C 25.5835 37.9764 25.4598 38.1276 25.2051 38.1566 C 24.92 38.1891 24.5524 37.8071 23.7688 36.6616 C 22.4975 34.8035 21.4584 33.8057 20.7935 33.8057 C 20.0496 33.8057 18.8731 34.4902 18.2805 35.2666 C 17.8492 35.8324 17.7342 36.2072 17.6763 37.2383 C 17.5757 39.0162 17.8984 39.6913 19.2935 40.621 C 20.0569 41.1297 20.949 42.0393 22.0923 43.4741 C 24.4555 46.4386 27.0495 49.1759 28.4315 50.1614 C 29.7658 51.1136 31.8446 51.9942 33.82 52.4443 C 34.5573 52.6121 35.3323 52.7901 35.5428 52.8393 C 35.7534 52.8885 36.8735 52.9023 38.0319 52.8705 C 39.6426 52.8263 40.3958 52.7134 41.2381 52.3893 Z M 41.89 34.9873 C 41.673 34.7471 41.5738 34.2927 41.5738 33.5423 C 41.5738 32.148 42.1049 31.5083 43.2641 31.5083 C 44.2026 31.5083 44.4768 31.8245 44.5933 33.0416 C 44.678 33.9229 44.6382 34.0343 44.0094 34.6624 C 43.2431 35.4294 42.4067 35.5575 41.89 34.9873 Z "/>
        <path id="path53" fill="#625d5a" stroke-width="0.1914460324131775" d="M 28.2419 110.4808 C 26.9641 110.2377 25.7579 109.9584 25.5618 109.86 C 25.3657 109.7623 24.7312 109.5727 24.1516 109.4389 C 23.4237 109.2703 22.9844 109.0431 22.729 108.7023 C 22.3759 108.232 22.3694 108.0872 22.6002 105.6112 C 22.7326 104.1828 22.9135 102.2386 23.0018 101.2907 C 23.0901 100.3428 23.3079 98.0332 23.4859 96.1584 C 23.6646 94.2829 23.7797 92.7214 23.742 92.6874 C 23.7044 92.6541 22.7254 92.7402 21.5677 92.8791 C 17.9961 93.3075 17.2595 93.2199 17.2595 92.3668 C 17.2595 92 18.2436 90.686 20.1994 88.4393 C 22.0467 86.3177 22.5308 85.3814 23.1075 82.8164 C 23.3795 81.6051 23.6668 80.3562 23.7456 80.04 C 23.8708 79.5393 23.797 79.3758 23.1697 78.7585 C 21.8332 77.4445 21.9316 76.5263 23.8137 72.7724 C 25.3469 69.7131 25.4909 69.1647 25.4533 66.5323 C 25.4149 63.8319 25.5929 63.3609 27.2803 61.6988 L 28.5191 60.4781 L 24.7558 60.4941 C 21.2406 60.51 20.8752 60.4774 19.1987 60.0049 L 17.4035 59.4984 L 16.5757 60.1308 C 15.2603 61.1351 14.0577 61.4463 12.0107 61.3139 C 9.2806 61.1366 4.2916 59.6287 2.7113 58.5035 C 1.7945 57.8508 0.9711 55.929 0.8495 54.1577 C 0.754 52.7619 0.7815 52.6056 1.2034 52.115 C 1.5615 51.6983 1.9559 51.5275 3.0304 51.3227 C 5.039 50.94 7.3046 49.3922 7.3046 48.4031 C 7.3046 48.1542 6.4869 46.3662 5.4877 44.43 C 2.5087 38.6558 1.8893 36.7904 1.5478 32.5539 C 0.8626 24.0599 3.2562 16.7705 8.7532 10.6093 C 13.1076 5.7302 20.182 1.8989 26.7362 0.8714 C 28.6681 0.569 32.7325 0.6138 35.0638 0.9633 C 40.1592 1.7267 45.9044 4.0363 50.9543 7.351 C 54.8608 9.9147 56.8782 12.0398 57.8536 14.6165 C 59.3817 18.6533 58.9794 25.2197 57.0612 27.5468 C 56.0338 28.7935 54.9592 29.0996 52.8102 28.7566 L 51.8891 28.6104 L 52.0157 30.203 C 52.1178 31.4946 52.0657 32.0915 51.7393 33.3592 C 51.1634 35.598 51.2068 36.6226 51.9405 38.0712 C 52.5953 39.3656 53.0541 40.8627 53.0577 41.718 C 53.0606 42.4748 52.235 43.2317 50.8566 43.7353 C 48.9463 44.4328 48.861 44.5088 47.9435 46.3409 C 46.8371 48.5478 45.6164 50.4392 44.5622 51.576 C 43.7496 52.453 43.7243 52.5202 43.3835 54.7214 L 43.0347 56.971 L 43.4529 57.9796 C 43.683 58.5346 43.8712 59.0896 43.8712 59.2133 C 43.8712 59.6417 43.0239 60.0339 42.1006 60.0339 C 41.1874 60.0339 41.1838 60.0368 41.4682 60.4709 C 42.2627 61.6836 45.8234 71.9331 46.9059 76.1233 C 47.6743 79.0972 47.8914 80.8193 47.8914 83.9451 C 47.8914 87.7931 47.1663 94.1164 46.5339 95.7857 C 46.2626 96.5021 45.6034 97.1743 45.1729 97.1743 C 44.7351 97.1743 42.2634 95.9456 41.7945 95.4949 C 41.6057 95.3132 41.1773 94.9681 40.8423 94.7279 C 40.0912 94.1895 40.1093 93.767 40.6433 99.4007 L 41.0637 103.8275 L 41.9769 104.4259 C 42.4797 104.7544 42.9819 105.0236 43.0933 105.0236 C 43.2055 105.0236 43.2967 105.1097 43.2967 105.2154 C 43.2967 105.3203 43.3871 105.4071 43.4971 105.4071 C 43.7865 105.4071 45.7322 106.6741 46.7676 107.5373 C 47.7524 108.3579 48.0607 109.1639 47.5375 109.5496 C 46.8813 110.0329 44.7366 110.2384 40.0854 110.263 C 37.482 110.2775 35.2997 110.3593 35.236 110.4461 C 34.7809 111.0662 31.404 111.0828 28.2419 110.4808 Z M 33.8504 109.5199 C 34.0544 109.0793 34.0088 108.991 33.2759 108.4034 C 32.8381 108.0525 31.9083 107.3637 31.2093 106.8724 C 29.6421 105.7696 28.9366 104.8854 28.9431 104.0316 C 28.9489 103.3167 30.1963 97.1063 30.909 94.2467 L 31.3765 92.3719 L 30.4923 92.3856 C 30.006 92.3929 28.8208 92.3422 27.8584 92.2728 C 26.8968 92.2033 25.8107 92.2026 25.446 92.2706 L 24.7825 92.3951 L 24.6624 93.8755 C 24.5958 94.6895 24.4142 96.9492 24.2572 98.8971 C 23.7833 104.8015 23.5821 107.0091 23.4707 107.5402 C 23.3737 108.0033 23.4439 108.0749 24.2847 108.3745 C 25.8375 108.928 26.111 109.0112 27.6935 109.4107 C 29.7144 109.9208 29.8931 109.9447 31.9054 109.9736 C 33.5675 109.9975 33.6362 109.9816 33.8504 109.5199 Z M 45.8748 109.2037 C 45.9059 109.1683 45.9884 108.8767 46.0571 108.5554 C 46.1794 107.9823 46.1418 107.9461 44.1997 106.7899 C 43.1093 106.1401 41.7366 105.3883 41.1491 105.1191 C 40.5608 104.85 39.9957 104.5251 39.8937 104.3963 C 39.6759 104.1235 39.521 102.0736 39.3539 97.2698 C 39.2179 93.3364 39.2381 93.3885 37.5746 92.7482 C 36.7678 92.4377 36.0479 92.3292 34.6818 92.3133 C 33.5646 92.301 32.875 92.3661 32.8938 92.4841 C 32.9105 92.589 33.189 94.4847 33.5117 96.696 C 33.8337 98.9072 34.2795 101.879 34.5009 103.3008 C 34.7223 104.7219 34.9849 106.5699 35.0848 107.4064 C 35.1847 108.2428 35.3142 108.9751 35.3728 109.0337 C 35.6586 109.3188 45.6258 109.4801 45.8748 109.2037 Z M 33.2542 103.549 C 32.9821 101.57 32.6767 99.4333 32.5754 98.8016 C 32.4741 98.1699 32.2903 96.7922 32.1673 95.7409 C 32.0205 94.4927 31.8931 93.9601 31.8012 94.2091 C 31.1399 95.9919 29.6544 103.6727 29.8208 104.4527 C 29.8917 104.787 30.4163 105.2783 31.532 106.0554 C 32.417 106.6712 33.2505 107.3072 33.3844 107.4693 C 33.6029 107.7327 33.6348 107.732 33.6883 107.4556 C 33.7216 107.2862 33.5262 105.5287 33.2542 103.549 Z M 45.5571 94.4486 C 46.382 90.6143 46.6266 88.2396 46.6266 84.0602 C 46.6266 80.21 46.5347 79.5234 45.5629 76.1153 C 44.0202 70.7015 40.5579 61.6612 40.0275 61.6612 C 39.8778 61.6612 39.5941 61.9904 39.398 62.392 C 39.0543 63.0953 39.0124 63.1185 38.3025 62.9983 C 37.8959 62.9296 37.0493 62.7176 36.4205 62.5273 C 35.7925 62.337 35.2389 62.2205 35.1912 62.2675 C 35.1441 62.3153 35.2433 62.6293 35.4119 62.9651 C 35.5804 63.3008 35.7461 64.1358 35.7794 64.8203 C 36.1325 72.0286 36.2548 72.5959 38.1462 75.7637 C 39.5789 78.1638 39.8097 78.9062 39.3799 79.7368 C 39.0355 80.404 37.8235 81.0812 36.9625 81.0885 C 36.6911 81.0906 36.4176 81.1435 36.3554 81.2057 C 36.2939 81.2672 36.5884 81.8489 37.0102 82.498 C 37.6947 83.5501 37.7685 83.7765 37.6926 84.5942 C 37.5905 85.6969 36.9089 86.6361 35.532 87.5703 C 34.592 88.207 34.5884 88.2077 32.5718 88.144 C 30.8569 88.0905 30.4091 88.0066 29.6015 87.5905 C 29.0791 87.3213 28.4496 86.804 28.2029 86.4422 C 27.7861 85.8286 27.7615 85.6448 27.8469 83.7729 C 27.8968 82.6673 27.9988 81.5769 28.0726 81.3497 C 28.1964 80.972 28.111 80.9162 27.0893 80.7115 C 26.4742 80.5877 25.7941 80.4459 25.5792 80.396 C 25.2427 80.3179 25.1523 80.4488 24.941 81.3215 C 24.004 85.1948 23.0814 86.9624 20.2833 90.246 C 18.6213 92.1968 18.7045 92.0796 19.0916 91.9312 C 19.2841 91.8574 20.2211 91.7178 21.1748 91.6216 C 22.1277 91.5246 24.1139 91.3133 25.5879 91.152 C 29.5147 90.7207 33.6608 90.7583 35.553 91.2424 C 37.1788 91.6577 40.2026 93.0723 43.0904 94.7669 C 44.3227 95.4898 44.9652 95.7669 45.1172 95.641 C 45.2402 95.5397 45.4377 95.0028 45.5571 94.4486 Z M 42.5774 93.3154 C 42.2077 92.9457 42.2945 92.2344 42.7388 91.9964 C 42.958 91.8791 43.1802 91.8249 43.2315 91.8762 C 43.2829 91.9283 43.1469 92.0268 42.9284 92.0962 C 42.4653 92.2431 42.4052 92.8111 42.8155 93.1519 C 43.2901 93.5463 43.7344 93.2322 43.6375 92.5716 C 43.5861 92.2243 43.6223 92.0629 43.7265 92.1671 C 43.8227 92.2634 43.8726 92.589 43.8379 92.8914 C 43.7894 93.3147 43.665 93.4544 43.2952 93.4971 C 43.0311 93.5282 42.7084 93.4464 42.5774 93.3154 Z M 23.2326 89.0955 C 22.7167 88.5796 23.119 87.7938 23.899 87.7938 C 24.2058 87.7938 24.3723 87.9364 24.4569 88.2743 C 24.6639 89.0999 23.81 89.6722 23.2326 89.0955 Z M 24.2268 88.6976 C 24.3911 88.4342 24.3744 88.3155 24.1516 88.1737 C 23.7355 87.9082 23.6154 87.9393 23.3839 88.372 C 22.9844 89.118 23.7753 89.4233 24.2268 88.6976 Z M 42.3777 87.372 C 42.2511 87.2461 42.1505 87.0522 42.1534 86.9415 C 42.1563 86.8308 42.2475 86.8915 42.3546 87.0753 C 42.4617 87.2598 42.6614 87.4103 42.7974 87.4103 C 43.2084 87.4103 43.7142 86.7063 43.6469 86.2302 C 43.5593 85.6108 42.8502 85.5356 42.4537 86.1021 C 42.2851 86.3423 42.1476 86.4465 42.1476 86.3344 C 42.1476 86.0334 42.7988 85.4965 43.1635 85.4965 C 43.3372 85.4965 43.6165 85.7056 43.7843 85.9617 C 44.1317 86.4914 43.9406 87.0659 43.3046 87.406 C 42.8314 87.6593 42.6585 87.6527 42.3777 87.3727 Z M 44.0644 80.9995 C 43.7605 80.6333 43.9595 79.8331 44.3958 79.6666 C 44.6657 79.5639 44.6852 79.5863 44.4927 79.7795 C 44.1903 80.0841 44.1794 80.9018 44.4783 80.9018 C 44.6013 80.9018 44.8596 80.7592 45.0521 80.5849 C 45.2445 80.4105 45.4023 80.3627 45.4023 80.4778 C 45.4023 80.6833 44.6751 81.2845 44.4262 81.2845 C 44.3574 81.2845 44.1946 81.1565 44.0644 80.9995 Z M 40.0174 77.5031 C 39.7794 77.2 39.7859 77.1927 40.0898 77.4308 C 40.2743 77.5755 40.4248 77.726 40.4248 77.7658 C 40.4248 77.9235 40.2678 77.8222 40.0174 77.5031 Z M 40.6976 77.4785 C 40.7547 77.3859 40.9971 77.2607 41.2352 77.2007 C 41.6541 77.0958 41.6563 77.1016 41.2974 77.3693 C 40.8857 77.6768 40.5355 77.7405 40.6976 77.4785 Z M 39.8633 76.7738 C 39.8401 76.4055 40.3575 75.8693 40.6332 75.9778 C 40.8459 76.0625 40.8387 76.0886 40.5977 76.1001 C 40.4291 76.1088 40.1983 76.3092 40.084 76.5459 C 39.9697 76.7832 39.8705 76.8859 39.8633 76.7738 Z M 41.5883 76.6515 C 41.5803 76.472 41.4226 76.2383 41.2381 76.1305 C 41.0543 76.0234 41.0008 75.933 41.1194 75.9294 C 41.4349 75.9214 41.8169 76.446 41.7026 76.7311 C 41.6389 76.8896 41.5984 76.8613 41.5883 76.6515 Z M 40.9327 70.2131 C 40.7591 70.0206 40.6165 69.682 40.6165 69.4613 C 40.6165 68.5569 41.7902 68.1278 42.4052 68.8079 C 42.7301 69.1668 42.8473 70.1806 42.5637 70.1806 C 42.4768 70.1806 42.4428 69.9244 42.4891 69.6118 C 42.5579 69.1401 42.4848 69.0026 42.0579 68.8087 C 41.4566 68.5344 40.932 68.7652 40.8546 69.3383 C 40.7808 69.8839 41.0688 70.2015 41.788 70.3716 L 42.4349 70.5243 L 41.8423 70.5438 C 41.4913 70.5554 41.1209 70.4208 40.9327 70.2131 Z M 34.4481 86.3481 C 34.8395 86.1846 35.4401 85.7801 35.7823 85.4487 C 36.6629 84.5964 36.6181 83.9184 35.5776 82.3974 L 34.7512 81.189 L 33.0414 81.0545 C 32.1008 80.9806 31.0161 80.8822 30.6312 80.8359 C 29.951 80.7534 29.9293 80.7708 29.8418 81.4488 C 29.7918 81.8323 29.6102 82.7715 29.4373 83.5363 C 29.0299 85.3402 29.1573 85.8235 30.1609 86.2787 C 31.1608 86.7331 33.4365 86.77 34.4481 86.3481 Z M 37.3199 79.9047 C 38.8886 79.5212 38.8351 79.0436 36.8518 75.7622 C 36.194 74.6732 35.5269 73.3375 35.3699 72.7948 C 34.9864 71.4664 34.6818 68.9056 34.6818 67.0106 C 34.6818 64.6199 34.375 63.4289 33.5052 62.4405 C 33.0183 61.8877 32.4604 61.4969 31.8728 61.2965 C 31.0017 60.9998 30.9597 61.0042 30.1775 61.4622 C 28.9214 62.1988 27.242 63.6387 26.925 64.2509 C 26.7116 64.664 26.6457 65.3659 26.6711 66.9679 C 26.7029 69.012 26.6732 69.1943 26.1197 70.3723 C 25.7984 71.0561 25.1675 72.7152 24.7174 74.0582 C 24.0242 76.1291 23.9331 76.5733 24.1183 76.98 C 24.4251 77.6536 26.3802 78.8627 27.8208 79.2708 C 30.4185 80.0053 35.5189 80.3461 37.3199 79.9047 Z M 30.0871 76.9286 C 30.6059 76.6696 30.7556 76.4786 30.7506 76.082 C 30.747 75.7998 30.8114 75.6117 30.8938 75.6624 C 31.4163 75.9851 30.4836 77.2644 29.726 77.2636 C 29.556 77.2636 29.718 77.1131 30.0871 76.9286 Z M 29.0654 76.9453 C 28.7586 76.6385 28.9858 76.0806 29.5603 75.7304 C 29.9025 75.522 30.2687 75.3527 30.3736 75.3548 C 30.4792 75.357 30.2361 75.5495 29.8338 75.7825 C 29.2578 76.116 29.1196 76.2984 29.1848 76.6392 C 29.2745 77.1066 29.2615 77.1406 29.0654 76.9453 Z M 27.0234 73.606 C 26.7868 73.4352 26.8006 73.42 27.0987 73.517 C 27.645 73.6957 28.1421 73.467 28.4525 72.8954 C 28.6059 72.6132 28.7347 72.4938 28.739 72.6306 C 28.7484 72.9497 27.8831 73.8187 27.5589 73.8151 C 27.4221 73.8136 27.1812 73.7196 27.0234 73.606 Z M 26.6711 72.7239 C 26.6255 71.8072 27.514 71.407 28.2796 72.0004 C 28.6247 72.2688 28.6124 72.2746 28.0994 72.0915 C 27.2962 71.8043 26.8679 72.0105 26.7782 72.7268 L 26.7022 73.3397 Z M 38.3496 61.9658 C 38.3496 61.7545 38.44 61.413 38.55 61.2068 C 38.7171 60.8949 38.6412 60.7292 38.0978 60.214 C 37.2743 59.4347 36.6267 58.1728 36.6267 57.3494 C 36.6267 56.6895 36.9198 56.1367 37.7447 55.2409 L 38.2295 54.7149 L 37.249 54.7149 C 35.9386 54.7149 33.9734 54.2858 32.0255 53.5752 C 31.1464 53.254 30.4134 52.9913 30.3975 52.9913 C 30.3816 52.9913 30.6131 53.4775 30.9127 54.0716 C 31.5552 55.3451 31.5617 55.6106 31.0089 57.8718 L 30.5885 59.5939 L 33.1767 60.5765 C 34.6 61.1171 36.2816 61.7726 36.914 62.0338 C 38.1672 62.5512 38.3496 62.5425 38.3496 61.9658 Z M 15.2805 60.6062 C 17.8297 59.3038 19.9816 55.7257 20.0323 52.7048 C 20.0511 51.563 19.9613 51.1657 19.4273 50.0239 C 19.0829 49.2873 18.4606 48.1614 18.0453 47.5218 C 17.2667 46.3235 17.1611 46.011 17.4708 45.8192 C 17.7327 45.6571 18.3615 46.393 19.2645 47.9183 C 20.2378 49.5623 20.9165 51.4703 20.923 52.581 C 20.9331 54.2742 19.8941 57.0904 18.6654 58.7025 C 18.0518 59.5064 18.1408 59.5686 20.5214 59.997 C 22.2963 60.3168 24.9178 60.3023 27.7383 59.9572 L 28.7094 59.8385 L 29.3244 58.2126 C 30.2166 55.853 30.2694 55.1772 29.6667 53.8596 C 29.3932 53.2619 29.1884 52.7026 29.2123 52.6165 C 29.2361 52.5304 28.7217 52.1013 28.069 51.6635 C 26.5842 50.6672 24.1508 48.2454 22.1646 45.7874 C 20.3094 43.4922 19.3941 42.5602 18.1871 41.739 C 16.8514 40.8309 16.2422 39.4597 16.2393 37.3592 C 16.2371 35.8983 16.2755 35.7507 16.8304 35.0618 C 17.7805 33.8817 19.0388 33.2058 20.4512 33.1154 C 21.64 33.0401 21.6683 33.0496 22.5185 33.8339 C 22.9931 34.2709 23.7015 35.0937 24.0937 35.6631 C 24.7145 36.5647 24.8411 36.6616 25.0821 36.4207 C 25.2449 36.2579 25.7297 36.1443 26.2593 36.1443 C 27.5929 36.1443 30.2513 35.7883 31.5045 35.4417 C 32.3902 35.1964 33.2397 34.6559 35.867 32.6661 C 39.9993 29.5359 41.61 28.4563 43.4689 27.5685 C 44.8509 26.9086 45.0745 26.8601 46.6772 26.8688 C 48.1244 26.8775 48.8559 27.0113 51.2408 27.7059 C 54.6416 28.6951 55.337 28.6878 56.2877 27.6502 C 57.8203 25.978 58.4187 20.5223 57.4874 16.7127 C 57.3586 16.1859 57.0077 15.2301 56.7081 14.5882 C 55.0671 11.0775 47.0137 5.9748 39.6686 3.7925 C 34.9177 2.3815 29.4445 1.9995 25.5821 2.8092 C 21.8586 3.5899 17.8796 5.2693 14.5982 7.4458 C 12.3016 8.969 8.6106 12.6426 7.0969 14.9117 C 3.7258 19.9666 2.479 24.1944 2.4732 30.5923 C 2.4682 36.2355 2.8922 37.8317 6.1049 44.2469 C 8.4898 49.0109 8.5781 49.466 7.3451 50.6628 C 6.3096 51.6672 4.4899 52.6006 3.2902 52.7431 C 1.5934 52.9443 1.2851 53.649 1.8864 55.9558 C 2.4631 58.1692 3.246 58.824 6.6656 59.9521 C 10.8175 61.3218 13.4824 61.5244 15.2805 60.6055 Z M 40.6245 59.481 C 40.9175 59.1193 41.0282 59.0997 41.7084 59.2886 C 42.7836 59.5867 42.7952 59.578 42.3705 58.7857 C 41.8944 57.8979 41.8936 57.3016 42.3647 55.4876 C 42.5687 54.7018 42.7142 54.0376 42.6881 54.0115 C 42.6621 53.9855 42.0984 54.1331 41.4349 54.3393 C 40.7721 54.5455 39.9791 54.7149 39.6723 54.7149 C 39.3662 54.7149 39.1151 54.8017 39.1151 54.9073 C 39.1151 55.0137 38.8568 55.4572 38.5406 55.8936 C 37.8047 56.9095 37.7874 57.7271 38.4849 58.5556 C 38.9147 59.0664 39.987 59.8805 40.233 59.8826 C 40.2692 59.8834 40.445 59.7025 40.6245 59.481 Z M 41.2685 53.005 C 41.9291 52.7511 42.7945 52.1917 43.4356 51.6064 L 44.5029 50.631 L 43.0716 49.8843 C 41.356 48.9885 39.3069 46.9936 39.3069 46.2186 C 39.3069 45.6839 39.8633 45.2657 40.3336 45.4459 C 40.4928 45.5066 40.9841 46.1115 41.4255 46.7895 C 41.8676 47.4675 42.4877 48.2403 42.8039 48.5059 C 43.4037 49.0109 44.7134 49.7367 45.0238 49.7367 C 45.2366 49.7367 46.7452 47.4024 47.9109 45.2722 C 48.7669 43.7064 48.8682 43.6268 50.625 43.1442 C 51.2162 42.9821 51.7958 42.7346 51.9115 42.595 C 52.2053 42.2411 51.9021 41.205 50.9282 39.2274 C 49.9709 37.2846 49.9282 36.4236 50.6721 34.0763 C 51.1706 32.5047 51.3175 30.7725 51.0613 29.4903 C 50.9514 28.9404 50.8754 28.8998 49.3863 28.6046 C 45.4739 27.8275 43.9074 28.4136 37.0406 33.2232 C 32.8135 36.1834 30.8309 37.0661 27.0415 37.6754 C 25.7528 37.883 25.5937 37.9539 25.6052 38.3186 C 25.6139 38.5921 25.4909 38.7434 25.2355 38.7723 C 24.9504 38.8049 24.5835 38.4221 23.7999 37.2767 C 22.5286 35.4193 21.4888 34.4215 20.8238 34.4215 C 20.0807 34.4215 18.9035 35.1052 18.3116 35.8824 C 17.8796 36.4475 17.7646 36.823 17.7067 37.8541 C 17.6061 39.6319 17.9288 40.3063 19.3246 41.2368 C 20.0872 41.7455 20.9801 42.655 22.1227 44.0891 C 24.4859 47.0544 27.0806 49.7909 28.4619 50.7772 C 29.7969 51.7294 31.875 52.61 33.8504 53.06 C 34.5877 53.2279 35.3627 53.4052 35.5732 53.4544 C 35.7838 53.5036 36.9039 53.5181 38.0623 53.4862 C 39.6737 53.4421 40.427 53.3292 41.2685 53.005 Z M 41.9211 35.6031 C 41.7041 35.3628 41.6042 34.9077 41.6042 34.1581 C 41.6042 32.763 42.1353 32.1241 43.2952 32.1241 C 44.233 32.1241 44.5072 32.4403 44.6244 33.6574 C 44.7091 34.5379 44.6686 34.6494 44.0405 35.2782 C 43.2735 36.0452 42.437 36.1732 41.9211 35.6031 Z "/>
        <path id="path51" fill="#0b2fa1" stroke-width="0.1914460324131775" d="M 27.8852 110.305 C 26.7268 110.0604 25.3918 109.7211 24.9178 109.551 C 24.4439 109.3803 23.8723 109.2399 23.6472 109.2384 C 22.5908 109.2312 22.4099 107.8007 22.8954 103.3008 C 23.0488 101.8797 23.3115 99.2951 23.4786 97.5578 C 23.6451 95.8205 23.8267 93.979 23.881 93.4659 L 23.9801 92.5333 L 22.8694 92.657 C 22.2587 92.725 21.0127 92.8762 20.1003 92.9927 C 18.2081 93.2337 17.5301 93.1295 17.3521 92.5702 C 17.1973 92.0817 17.4462 91.6975 19.2964 89.576 C 22.3195 86.1086 22.6313 85.511 23.4678 81.5718 L 23.9157 79.4662 L 23.1842 78.6695 C 22.1379 77.5299 22.0706 76.8845 22.8064 75.0401 C 23.1378 74.2102 23.7362 72.9229 24.1357 72.1791 C 25.344 69.9324 25.5647 69.0388 25.5162 66.5916 C 25.4627 63.9021 25.7058 63.2856 27.4836 61.5895 C 28.187 60.9188 28.7376 60.3515 28.7072 60.3291 C 28.6761 60.3066 27.7029 60.3667 26.5452 60.4629 C 23.7355 60.6959 21.5756 60.5425 19.3137 59.9492 L 17.4433 59.4586 L 16.4665 60.1308 C 14.3775 61.5678 12.4745 61.6836 8.3914 60.6221 C 2.7547 59.1569 1.1998 57.8291 0.864 54.1953 C 0.6846 52.2525 1.2063 51.6071 3.1614 51.351 C 4.9515 51.1165 7.3046 49.4501 7.3046 48.4169 C 7.3046 48.0876 6.4804 46.2382 5.2894 43.8967 C 2.1411 37.705 1.5615 35.5502 1.5615 30.0359 C 1.5615 24.7646 2.3025 21.3464 4.3336 17.2459 C 7.8914 10.0666 14.1554 4.7324 22.1733 2.0559 C 25.3599 0.9915 26.7658 0.781 30.6609 0.7846 C 33.5704 0.7875 34.5877 0.8649 36.3576 1.2216 C 42.8256 2.5226 50.591 6.3909 54.821 10.4183 C 57.3217 12.7988 58.2255 14.7047 58.6459 18.4847 C 59.1596 23.1083 57.8695 27.7038 55.8174 28.5612 C 55.096 28.8629 53.5186 28.9035 52.4217 28.6488 C 51.7292 28.4881 51.6923 28.5019 51.7849 28.8926 C 52.1511 30.4382 52.1178 31.4816 51.6337 33.5799 C 51.0585 36.0712 51.0961 36.5618 52.0049 38.4004 C 53.0787 40.5747 53.2806 42.2086 52.5519 42.8388 C 52.3913 42.9777 51.515 43.3923 50.6048 43.7614 L 48.9492 44.4314 L 47.798 46.5486 C 46.2821 49.3358 45.8849 49.953 44.712 51.3372 C 43.7786 52.4392 43.7098 52.5969 43.3951 54.3437 C 43.0427 56.3009 43.0745 57.1728 43.5434 58.4058 C 43.7323 58.9015 43.7742 59.2828 43.6628 59.4912 C 43.4464 59.8942 42.5087 60.1084 41.6556 59.9485 L 41.0022 59.8262 L 41.3734 60.4564 C 42.3886 62.1822 45.8284 72.0778 46.9167 76.4026 C 47.2344 77.6659 47.5947 79.5183 47.717 80.519 C 48.1121 83.7563 47.7112 89.8965 46.8031 94.4941 C 46.5542 95.7546 46.3632 96.2409 45.9565 96.6482 C 45.6678 96.9377 45.3002 97.1743 45.1389 97.1743 C 44.6816 97.1743 41.9038 95.6605 41.4776 95.1786 C 41.0963 94.7481 40.2526 94.2148 40.1426 94.335 C 39.9935 94.4999 41.0369 103.7863 41.2316 104.0207 C 41.3539 104.1676 41.8466 104.4882 42.3271 104.7335 C 43.2735 105.2154 46.5701 107.3897 47.2691 107.9924 C 47.7626 108.4179 47.8284 109.0793 47.4181 109.4895 C 46.9478 109.9599 42.5774 110.331 38.2229 110.2703 C 36.3301 110.2435 35.2628 110.3028 35.0906 110.4446 C 34.9357 110.5713 33.8453 110.6769 32.4105 110.7037 C 30.4843 110.7399 29.5617 110.6588 27.8852 110.305 Z M 33.791 110.0481 C 34.019 109.6791 34.1413 108.4577 33.9452 108.5105 C 33.6485 108.5894 30.925 106.6256 29.8302 105.5439 L 28.904 104.6278 L 29.0372 103.6293 C 29.1638 102.6836 29.6211 100.2639 30.1124 97.9405 C 30.2347 97.361 30.5393 96.1627 30.7882 95.2778 C 31.0371 94.3921 31.2904 93.3581 31.3504 92.9804 L 31.4604 92.293 L 30.4387 92.2634 C 27.6052 92.1823 25.0857 92.1888 24.9417 92.2778 C 24.8527 92.3328 24.6776 93.479 24.5524 94.8241 C 24.4273 96.1692 24.2442 98.1316 24.1451 99.1851 C 23.9128 101.6539 23.5257 106.6509 23.5011 107.5048 C 23.483 108.1234 23.5409 108.1885 24.3752 108.5004 C 25.6356 108.9714 28.8367 109.8065 30.0863 109.991 C 31.4799 110.1965 33.6789 110.2305 33.791 110.0481 Z M 34.49 109.7254 C 34.49 109.6791 34.4039 109.5879 34.2983 109.5228 C 34.1934 109.4577 34.1072 109.496 34.1072 109.6075 C 34.1072 109.7189 34.1934 109.8101 34.2983 109.8101 C 34.4039 109.8101 34.49 109.7717 34.49 109.7254 Z M 46.0383 109.2356 C 46.0889 109.1827 46.1606 108.8846 46.1975 108.572 C 46.2568 108.0648 46.1439 107.9252 45.1382 107.258 C 44.5195 106.8478 43.0977 106.0431 41.9797 105.4701 C 40.8611 104.8963 39.8901 104.2747 39.8213 104.088 C 39.681 103.7103 39.3416 95.8856 39.4248 94.9507 C 39.4537 94.6229 39.3966 94.1403 39.2967 93.8784 C 39.0927 93.3408 37.8756 92.6968 36.4697 92.3813 C 35.5602 92.178 32.9995 92.0919 32.8323 92.2597 C 32.7831 92.3089 32.8721 93.1548 33.0298 94.1396 C 33.3099 95.8798 33.5573 97.5071 34.2057 101.8652 C 34.3786 103.0229 34.642 104.7248 34.7918 105.6459 C 34.9415 106.5677 35.0645 107.6068 35.0645 107.9548 C 35.0645 108.8919 35.4032 109.2081 36.5001 109.2949 C 37.8481 109.402 45.9261 109.3513 46.0383 109.2356 Z M 33.634 105.8745 C 33.485 104.7219 33.1796 102.4875 32.9553 100.9079 C 32.731 99.3284 32.4032 96.8581 32.2267 95.4189 C 32.0501 93.979 31.8338 92.7301 31.7462 92.6432 C 31.6587 92.5564 31.6478 92.725 31.7209 93.0188 C 31.8591 93.5694 31.587 94.8993 31.1189 95.9594 C 30.9727 96.2908 30.8526 96.7647 30.8526 97.0122 C 30.8526 97.2597 30.5871 98.8349 30.2622 100.5136 C 29.6565 103.6416 29.6261 105.2154 30.171 105.2154 C 30.3092 105.2154 30.5386 105.355 30.6797 105.5251 C 30.8215 105.6958 31.5639 106.258 32.3309 106.7754 C 33.0971 107.2928 33.7245 107.8137 33.7245 107.9331 C 33.7245 108.0532 33.765 108.1097 33.8149 108.0597 C 33.8648 108.0098 33.7838 107.0265 33.634 105.8745 Z M 45.5571 94.4486 C 46.382 90.6143 46.6266 88.2403 46.6266 84.0609 C 46.6266 80.21 46.5347 79.5234 45.5629 76.1153 C 44.0202 70.7015 40.5579 61.6612 40.0275 61.6612 C 39.8778 61.6612 39.5941 61.9904 39.3973 62.3927 C 39.0543 63.0953 39.0124 63.1185 38.3025 62.9983 C 37.8959 62.9303 37.0493 62.7183 36.4205 62.528 C 35.7925 62.3377 35.2389 62.2205 35.1912 62.2683 C 35.1441 62.3153 35.2433 62.6293 35.4119 62.9651 C 35.5804 63.3008 35.7461 64.1358 35.7794 64.8203 C 36.1325 72.0286 36.2548 72.5966 38.1462 75.7637 C 39.5789 78.1638 39.8097 78.9062 39.3799 79.7368 C 39.0355 80.404 37.8235 81.0819 36.9625 81.0892 C 36.6911 81.0914 36.4176 81.1435 36.3554 81.2057 C 36.2939 81.2679 36.5884 81.8489 37.0102 82.498 C 37.6947 83.5501 37.7685 83.7765 37.6926 84.5949 C 37.5905 85.6976 36.9089 86.6361 35.532 87.5703 C 34.592 88.207 34.5884 88.2077 32.5718 88.1448 C 30.8569 88.0905 30.4091 88.0073 29.6015 87.5912 C 29.0784 87.3213 28.4496 86.8047 28.2029 86.4422 C 27.7861 85.8286 27.7615 85.6455 27.8469 83.7736 C 27.8968 82.668 27.9988 81.5769 28.0726 81.3497 C 28.1964 80.972 28.111 80.917 27.0893 80.7115 C 26.4742 80.5877 25.7919 80.4452 25.5734 80.3946 C 25.2261 80.3142 25.1436 80.443 24.9186 81.4155 C 24.5474 83.0211 23.6711 85.4733 23.1147 86.4625 C 22.8513 86.9313 22.0503 88.0384 21.3354 88.9226 C 20.6205 89.8075 19.8202 90.8169 19.5569 91.1679 C 19.2942 91.5181 18.9708 91.8068 18.8391 91.809 C 18.7074 91.8119 18.6003 91.9001 18.6003 92.0058 C 18.6003 92.2518 18.8521 92.2511 19.0988 92.0043 C 19.2052 91.898 20.1053 91.7294 21.0995 91.6288 C 22.0937 91.5282 24.1139 91.314 25.5879 91.152 C 29.5147 90.7207 33.6608 90.7583 35.553 91.2424 C 37.1788 91.6585 40.2026 93.0723 43.0904 94.7669 C 44.3227 95.4905 44.9652 95.7676 45.1172 95.641 C 45.2402 95.5397 45.4377 95.0028 45.5571 94.4486 Z M 42.5268 93.2453 C 42.1751 92.8212 42.3748 92.7728 42.7699 93.1859 C 42.9544 93.3791 43.0297 93.5369 42.937 93.5369 C 42.8444 93.5369 42.6599 93.4059 42.5268 93.2453 Z M 43.5282 93.2691 C 43.6642 93.1222 43.8053 93.0304 43.8422 93.0651 C 43.9558 93.1729 43.6679 93.5369 43.4689 93.5369 C 43.3661 93.5369 43.3922 93.4167 43.5282 93.2691 Z M 42.3394 92.4001 C 42.3394 92.301 42.4247 92.1671 42.5282 92.1027 C 42.6368 92.0354 42.6693 92.1121 42.6035 92.2829 C 42.4768 92.6143 42.3394 92.6751 42.3394 92.4001 Z M 43.5962 92.2532 C 43.492 91.9804 43.5137 91.958 43.7033 92.1461 C 43.8343 92.2757 43.8929 92.4305 43.8336 92.4891 C 43.7749 92.5485 43.6679 92.4421 43.5962 92.2532 Z M 23.2326 89.0955 C 22.695 88.5579 23.1328 87.7786 23.9511 87.8163 C 24.4041 87.8373 24.3976 87.8481 23.865 87.9617 C 23.4135 88.0587 23.2905 88.1867 23.2905 88.5615 C 23.2905 89.2461 24.1726 89.2446 24.3636 88.5594 C 24.475 88.1585 24.4996 88.144 24.5155 88.4733 C 24.538 88.9371 24.1979 89.3249 23.7688 89.3249 C 23.6002 89.3249 23.3593 89.2215 23.2326 89.0955 Z M 42.3148 87.2671 C 42.0868 86.9762 42.0897 86.9603 42.3394 87.1455 C 42.4971 87.2627 42.7554 87.4067 42.9139 87.4653 C 43.1541 87.5543 43.1498 87.5746 42.8893 87.5869 C 42.7178 87.5956 42.4595 87.4516 42.3148 87.2671 Z M 43.2967 87.338 C 43.2967 87.2982 43.4472 87.1477 43.6317 87.003 C 43.9349 86.7649 43.9421 86.7721 43.704 87.0753 C 43.4537 87.3944 43.2967 87.4957 43.2967 87.338 Z M 42.1476 86.3344 C 42.1476 86.0406 42.7952 85.4958 43.1447 85.4958 C 43.3075 85.4958 43.555 85.647 43.6946 85.8308 C 43.9102 86.1159 43.9081 86.1303 43.6794 85.927 C 43.2735 85.5645 42.7779 85.639 42.4457 86.113 C 42.2822 86.3467 42.1476 86.4465 42.1476 86.3344 Z M 44.1006 81.0545 C 43.8234 80.7773 43.8097 80.3338 44.0651 79.9445 C 44.2004 79.7375 44.2214 79.8244 44.1396 80.2513 C 43.9942 81.011 44.4725 81.2571 45.0238 80.7057 C 45.2322 80.4973 45.4023 80.4083 45.4023 80.5074 C 45.4023 80.684 44.6599 81.2845 44.4406 81.2845 C 44.3799 81.2845 44.2272 81.1811 44.1006 81.0545 Z M 40.0174 77.5031 C 39.7794 77.1992 39.7859 77.1927 40.0898 77.4308 C 40.2743 77.5755 40.4248 77.726 40.4248 77.7658 C 40.4248 77.9235 40.2678 77.8222 40.0174 77.5031 Z M 41.4277 76.3527 C 41.2041 75.8758 41.2091 75.8606 41.4978 76.1486 C 41.6693 76.3201 41.7779 76.5524 41.7395 76.6645 C 41.7004 76.7767 41.5608 76.6363 41.4277 76.3527 Z M 40.9175 70.1965 C 40.7251 69.9837 40.6216 69.6415 40.6708 69.3825 C 40.7504 68.9628 40.7569 68.9664 40.7815 69.4389 C 40.8133 70.0489 41.1006 70.3108 41.8611 70.4222 L 42.4349 70.5062 L 41.8423 70.5344 C 41.4732 70.5525 41.1252 70.4251 40.9175 70.1965 Z M 42.3864 69.0366 C 42.2627 68.8376 41.9211 68.6393 41.6281 68.5952 C 41.0963 68.5149 41.0963 68.5149 41.5919 68.4859 C 42.0456 68.4599 42.9067 69.1024 42.6975 69.3115 C 42.6505 69.3586 42.5109 69.2348 42.3864 69.0366 Z M 33.9893 86.5652 C 35.1246 86.2237 36.087 85.4972 36.3966 84.749 C 36.605 84.2461 36.584 84.0616 36.2382 83.3489 C 36.0197 82.8981 35.5819 82.2158 35.2657 81.8337 C 34.7194 81.1724 34.6195 81.1326 33.2028 81.0154 C 32.3837 80.9474 31.3048 80.8424 30.8048 80.7831 C 29.9959 80.6862 29.8953 80.7151 29.8953 81.0443 C 29.8953 81.2476 29.7231 82.0884 29.5125 82.9119 C 29.0408 84.757 29.0328 85.3344 29.4727 85.8771 C 29.8425 86.3344 31.2925 86.8025 32.4018 86.8235 C 32.7795 86.8308 33.4944 86.7143 33.9893 86.5652 Z M 37.3199 79.9047 C 38.8886 79.5205 38.8351 79.0436 36.8518 75.7622 C 36.194 74.6725 35.5269 73.3375 35.3699 72.7948 C 34.9864 71.4664 34.6818 68.9056 34.6818 67.0106 C 34.6818 64.6199 34.375 63.4289 33.5052 62.4405 C 33.0183 61.8877 32.4604 61.4969 31.8728 61.2965 C 31.0017 60.9998 30.9604 61.0034 30.1775 61.4622 C 28.9214 62.1988 27.242 63.6387 26.925 64.2509 C 26.7116 64.664 26.6457 65.3659 26.6711 66.9679 C 26.7029 69.012 26.6732 69.1943 26.1197 70.3716 C 25.7984 71.0561 25.1675 72.7152 24.7174 74.0582 C 24.0242 76.1291 23.9331 76.5733 24.1183 76.98 C 24.4258 77.6536 26.3802 78.8627 27.8208 79.2701 C 30.4185 80.0053 35.5189 80.3461 37.3199 79.9047 Z M 29.6681 77.1334 C 29.8063 77.0777 29.9713 77.0849 30.035 77.1486 C 30.0986 77.2115 29.9858 77.2571 29.7839 77.2484 C 29.5603 77.2398 29.5154 77.1942 29.6681 77.1334 Z M 29.0075 76.7854 C 28.8469 76.3671 29.0466 75.9793 29.5494 75.7318 C 29.9865 75.5169 29.9865 75.5191 29.5314 75.886 C 29.2108 76.1443 29.1037 76.3794 29.1783 76.6645 C 29.2998 77.1298 29.1739 77.2188 29.0075 76.7854 Z M 30.5415 76.7434 C 30.752 76.4945 30.8584 76.158 30.7983 75.9301 C 30.7426 75.7159 30.7752 75.5886 30.8707 75.6479 C 31.184 75.8411 31.0523 76.4315 30.6131 76.8034 L 30.1826 77.1681 Z M 27.0119 74.1117 C 27.1501 74.056 27.315 74.0633 27.3787 74.1269 C 27.4424 74.1906 27.3288 74.2355 27.1276 74.2275 C 26.9041 74.2181 26.8592 74.1725 27.0119 74.1117 Z M 27.6218 73.9786 C 27.6218 73.9388 27.7723 73.7883 27.9569 73.6436 C 28.2608 73.4055 28.2673 73.412 28.0292 73.7159 C 27.7789 74.035 27.6218 74.1363 27.6218 73.9786 Z M 26.2818 72.7218 C 26.2818 72.6226 26.3672 72.4895 26.4714 72.4251 C 26.5799 72.3578 26.6117 72.4345 26.5466 72.6053 C 26.4193 72.9367 26.2818 72.9974 26.2818 72.7218 Z M 27.4308 72.4113 C 26.9685 72.237 26.8823 72.1545 27.1544 72.1472 C 27.3715 72.1414 27.7159 72.263 27.9207 72.4179 C 28.357 72.7478 28.3172 72.7471 27.4308 72.4121 Z M 38.0855 61.4636 C 38.2975 60.557 38.2953 60.5512 37.5399 59.7292 C 36.7237 58.84 36.2367 57.8733 36.2367 57.141 C 36.2367 56.6265 37.0153 55.3653 37.6426 54.8632 C 38.0486 54.5376 38.0392 54.5318 37.1383 54.5274 C 35.5175 54.5202 32.3801 53.7156 30.0697 52.7156 C 29.8157 52.6056 29.8685 52.8032 30.3056 53.5962 C 30.9908 54.8393 31.0364 55.8993 30.4937 57.9695 C 30.0256 59.7553 30.0241 59.6916 30.5415 59.6959 C 30.7781 59.6981 32.4365 60.2929 34.2266 61.0172 C 36.0168 61.7422 37.5696 62.3435 37.6774 62.3536 C 37.7852 62.3645 37.9682 61.9636 38.0855 61.4636 Z M 14.9795 60.4695 C 17.575 59.1236 20.0069 54.7467 19.7182 51.9428 C 19.5967 50.767 18.9339 49.2309 17.7754 47.44 C 16.8384 45.9914 16.7436 45.7172 17.1785 45.7172 C 17.8044 45.7172 19.7609 49.1035 20.2602 51.0528 C 20.5185 52.0608 20.5344 52.4761 20.355 53.505 C 20.0532 55.2387 19.5272 56.5448 18.5337 58.0252 L 17.6799 59.2987 L 18.3912 59.4832 C 20.4657 60.0216 21.6379 60.1279 24.242 60.0136 C 28.5046 59.8262 28.2629 59.9246 28.9814 58.0896 C 29.734 56.1692 29.8063 54.7076 29.2231 53.2192 C 28.899 52.3907 28.6334 52.0731 27.7948 51.508 C 26.2557 50.4718 23.5546 47.757 21.3998 45.0819 C 20.0569 43.4141 19.1263 42.4575 18.2819 41.8772 C 16.939 40.9532 16.5048 40.3606 16.0577 38.8382 C 15.3116 36.2977 16.1358 34.4533 18.5127 33.3469 C 20.5185 32.4128 21.661 32.8296 23.3766 35.1219 C 24.3708 36.4511 24.4084 36.4779 24.9077 36.2405 C 25.1899 36.1074 26.2521 35.9475 27.2695 35.886 C 28.2861 35.8245 29.7369 35.6334 30.493 35.462 C 32.0197 35.1146 32.6427 34.7225 37.4646 31.0713 C 40.775 28.5648 42.9674 27.2761 44.6606 26.8413 C 46.1866 26.4498 47.5303 26.6155 50.9962 27.6227 C 54.5519 28.656 55.5562 28.4975 56.4346 26.7631 C 58.2754 23.1308 57.936 16.6056 55.7328 13.2793 C 53.5664 10.0087 44.8379 4.9741 38.4856 3.3309 C 35.1687 2.4727 33.0436 2.1862 29.9192 2.176 C 25.467 2.1608 21.9338 3.0566 17.4744 5.3301 C 12.201 8.0189 8.3125 11.6925 5.4442 16.6967 C 3.0007 20.9608 1.9689 25.0562 1.9689 30.4968 C 1.9689 35.6711 2.5579 37.8483 5.6078 43.9473 C 7.9869 48.7048 8.0846 49.1079 7.1208 50.2055 C 6.1852 51.2714 4.4725 52.2062 2.9096 52.5036 C 2.1527 52.6476 1.4545 52.8813 1.3582 53.0224 C 1.0608 53.4566 1.3097 55.7011 1.7743 56.7778 C 2.0145 57.3328 2.4559 57.9934 2.7562 58.2459 C 3.4638 58.8421 5.9233 59.7878 8.573 60.4839 C 11.2473 61.1858 13.6069 61.1807 14.9795 60.4695 Z M 41.3307 59.1916 C 41.9175 59.2604 42.364 59.2509 42.3227 59.1699 C 41.5239 57.6048 41.5232 57.5969 41.9551 55.67 C 42.1795 54.6685 42.3632 53.7945 42.3632 53.7264 C 42.3632 53.6584 41.9537 53.7583 41.4537 53.9486 C 40.953 54.1389 40.1563 54.3531 39.6824 54.4254 C 38.906 54.5434 38.7598 54.6541 38.1991 55.5441 C 37.8568 56.0875 37.5768 56.7807 37.5768 57.0846 C 37.5768 57.8762 38.2447 58.8465 39.1687 59.3971 L 39.966 59.8732 L 40.1151 59.4695 C 40.2504 59.1033 40.3618 59.078 41.3307 59.1916 Z M 40.8314 52.8965 C 41.9088 52.4602 43.3697 51.4182 43.7778 50.796 C 44.0868 50.3249 44.0846 50.322 43.0326 49.8249 C 40.8806 48.8061 38.7714 46.7078 38.9972 45.8084 C 39.1839 45.0624 39.9328 45.1781 40.5717 46.0522 C 40.8604 46.4473 41.3604 47.1311 41.6824 47.5717 C 42.0044 48.0124 42.7822 48.6802 43.411 49.055 C 44.8205 49.8951 44.6505 50.0283 46.8241 46.3872 C 48.5187 43.5486 48.594 43.477 50.4999 42.9039 L 51.6482 42.5581 L 51.6026 41.8092 C 51.5773 41.3967 51.1684 40.2281 50.693 39.2122 C 49.6446 36.9692 49.6164 36.412 50.4123 33.6559 C 50.8747 32.0561 50.9695 31.4309 50.8797 30.593 C 50.6721 28.6589 50.7321 28.7399 49.2654 28.4064 C 47.4645 27.9968 45.7235 28.0243 44.2265 28.4874 C 42.8256 28.9201 40.1042 30.5214 36.7157 32.9063 C 33.333 35.2883 32.6131 35.7138 30.9286 36.3288 C 29.7795 36.7477 25.8556 37.6761 25.2326 37.6761 C 25.1921 37.6761 25.132 37.8635 25.0987 38.0922 C 24.983 38.8772 24.611 38.6442 23.4555 37.0611 C 21.8897 34.9164 21.0858 34.1675 20.3716 34.1877 C 19.5945 34.2094 18.7935 34.6566 18.0858 35.4627 C 17.2711 36.3903 17.0229 37.404 17.2754 38.7701 C 17.4968 39.9706 17.8955 40.5009 19.1126 41.2137 C 19.635 41.5197 20.6864 42.6485 22.1473 44.4697 C 26.5936 50.0152 28.6819 51.6426 32.7911 52.767 C 34.8844 53.3401 34.9632 53.3487 37.5768 53.2945 C 39.3597 53.2576 40.1896 53.1563 40.8314 52.8965 Z M 41.5753 35.357 C 41.2337 35.0155 41.1845 34.7869 41.2591 33.8889 C 41.33 33.0315 41.4479 32.7384 41.8661 32.3788 C 42.8726 31.5134 43.9906 31.9591 44.2105 33.3151 C 44.3473 34.161 43.8878 35.0821 43.1353 35.4714 C 42.3813 35.8614 42.0564 35.8375 41.5753 35.357 Z "/>
        <path id="path49" fill="#050304" stroke-width="0.1914460324131775" d="M 27.8852 110.305 C 26.7268 110.0604 25.3918 109.7211 24.9178 109.551 C 24.4439 109.3803 23.8723 109.2399 23.6472 109.2384 C 22.5908 109.2312 22.4099 107.8007 22.8954 103.3008 C 23.0488 101.8797 23.3115 99.2951 23.4786 97.5578 C 23.6451 95.8205 23.8267 93.979 23.881 93.4659 L 23.9801 92.5333 L 22.8694 92.657 C 22.2587 92.725 21.0127 92.8762 20.1003 92.9927 C 18.2081 93.2337 17.5301 93.1295 17.3521 92.5702 C 17.1973 92.0817 17.4462 91.6975 19.2964 89.576 C 22.3195 86.1086 22.6313 85.511 23.4678 81.5718 L 23.9157 79.4662 L 23.1842 78.6695 C 22.1379 77.5299 22.0706 76.8845 22.8064 75.0401 C 23.1378 74.2102 23.7362 72.9229 24.1357 72.1791 C 25.344 69.9324 25.5647 69.0388 25.5162 66.5916 C 25.4627 63.9021 25.7058 63.2856 27.4836 61.5895 C 28.187 60.9188 28.7376 60.3515 28.7072 60.3291 C 28.6761 60.3066 27.7029 60.3667 26.5452 60.4629 C 23.7355 60.6959 21.5756 60.5425 19.3137 59.9492 L 17.4433 59.4586 L 16.4665 60.1308 C 14.3775 61.5678 12.4745 61.6836 8.3914 60.6221 C 2.7547 59.1569 1.1998 57.8291 0.864 54.1953 C 0.6846 52.2525 1.2063 51.6071 3.1614 51.351 C 4.9515 51.1165 7.3046 49.4501 7.3046 48.4169 C 7.3046 48.0876 6.4804 46.2382 5.2894 43.8967 C 2.1411 37.705 1.5615 35.5502 1.5615 30.0359 C 1.5615 24.7646 2.3025 21.3464 4.3336 17.2459 C 7.8914 10.0666 14.1554 4.7324 22.1733 2.0559 C 25.3599 0.9915 26.7658 0.781 30.6609 0.7846 C 33.5704 0.7875 34.5877 0.8649 36.3576 1.2216 C 42.8256 2.5226 50.591 6.3909 54.821 10.4183 C 57.3217 12.7988 58.2255 14.7047 58.6459 18.4847 C 59.1596 23.1083 57.8695 27.7038 55.8174 28.5612 C 55.096 28.8629 53.5186 28.9035 52.4217 28.6488 C 51.7292 28.4881 51.6923 28.5019 51.7849 28.8926 C 52.1511 30.4382 52.1178 31.4816 51.6337 33.5799 C 51.0585 36.0712 51.0961 36.5618 52.0049 38.4004 C 53.0787 40.5747 53.2806 42.2086 52.5519 42.8388 C 52.3913 42.9777 51.515 43.3923 50.6048 43.7614 L 48.9492 44.4314 L 47.798 46.5486 C 46.2821 49.3358 45.8849 49.953 44.712 51.3372 C 43.7786 52.4392 43.7098 52.5969 43.3951 54.3437 C 43.0427 56.3009 43.0745 57.1728 43.5434 58.4058 C 43.7323 58.9015 43.7742 59.2828 43.6628 59.4912 C 43.4464 59.8942 42.5087 60.1084 41.6556 59.9485 L 41.0022 59.8262 L 41.3734 60.4564 C 42.3886 62.1822 45.8284 72.0778 46.9167 76.4026 C 47.2344 77.6659 47.5947 79.5183 47.717 80.519 C 48.1121 83.7563 47.7112 89.8965 46.8031 94.4941 C 46.5542 95.7546 46.3632 96.2409 45.9565 96.6482 C 45.6678 96.9377 45.3002 97.1743 45.1389 97.1743 C 44.6816 97.1743 41.9038 95.6605 41.4776 95.1786 C 41.0963 94.7481 40.2526 94.2148 40.1426 94.335 C 39.9935 94.4999 41.0369 103.7863 41.2316 104.0207 C 41.3539 104.1676 41.8466 104.4882 42.3271 104.7335 C 43.2735 105.2154 46.5701 107.3897 47.2691 107.9924 C 47.7626 108.4179 47.8284 109.0793 47.4181 109.4895 C 46.9478 109.9599 42.5774 110.331 38.2229 110.2703 C 36.3301 110.2435 35.2628 110.3028 35.0906 110.4446 C 34.9357 110.5713 33.8453 110.6769 32.4105 110.7037 C 30.4843 110.7399 29.5617 110.6588 27.8852 110.305 Z M 33.791 110.0481 C 34.019 109.6791 34.1413 108.4577 33.9452 108.5105 C 33.6485 108.5894 30.925 106.6256 29.8302 105.5439 L 28.904 104.6278 L 29.0372 103.6293 C 29.1638 102.6836 29.6211 100.2639 30.1124 97.9405 C 30.2347 97.361 30.5393 96.1627 30.7882 95.2778 C 31.0371 94.3921 31.2904 93.3581 31.3504 92.9804 L 31.4604 92.293 L 30.4387 92.2634 C 27.6052 92.1823 25.0857 92.1888 24.9417 92.2778 C 24.8527 92.3328 24.6776 93.479 24.5524 94.8241 C 24.4273 96.1692 24.2442 98.1316 24.1451 99.1851 C 23.9128 101.6539 23.5257 106.6509 23.5011 107.5048 C 23.483 108.1234 23.5409 108.1885 24.3752 108.5004 C 25.6356 108.9714 28.8367 109.8065 30.0863 109.991 C 31.4799 110.1965 33.6789 110.2305 33.791 110.0481 Z M 34.49 109.7254 C 34.49 109.6791 34.4039 109.5879 34.2983 109.5228 C 34.1934 109.4577 34.1072 109.496 34.1072 109.6075 C 34.1072 109.7189 34.1934 109.8101 34.2983 109.8101 C 34.4039 109.8101 34.49 109.7717 34.49 109.7254 Z M 46.0383 109.2356 C 46.0889 109.1827 46.1606 108.8846 46.1975 108.572 C 46.2568 108.0648 46.1439 107.9252 45.1382 107.258 C 44.5195 106.8478 43.0977 106.0431 41.9797 105.4701 C 40.8611 104.8963 39.8901 104.2747 39.8213 104.088 C 39.681 103.7103 39.3416 95.8856 39.4248 94.9507 C 39.4537 94.6229 39.3966 94.1403 39.2967 93.8784 C 39.0927 93.3408 37.8756 92.6968 36.4697 92.3813 C 35.5602 92.178 32.9995 92.0919 32.8323 92.2597 C 32.7831 92.3089 32.8721 93.1548 33.0298 94.1396 C 33.3099 95.8798 33.5573 97.5071 34.2057 101.8652 C 34.3786 103.0229 34.642 104.7248 34.7918 105.6459 C 34.9415 106.5677 35.0645 107.6068 35.0645 107.9548 C 35.0645 108.8919 35.4032 109.2081 36.5001 109.2949 C 37.8481 109.402 45.9261 109.3513 46.0383 109.2356 Z M 33.634 105.8745 C 33.485 104.7219 33.1796 102.4875 32.9553 100.9079 C 32.731 99.3284 32.4032 96.8581 32.2267 95.4189 C 32.0501 93.979 31.8338 92.7301 31.7462 92.6432 C 31.6587 92.5564 31.6478 92.725 31.7209 93.0188 C 31.8591 93.5694 31.587 94.8993 31.1189 95.9594 C 30.9727 96.2908 30.8526 96.7647 30.8526 97.0122 C 30.8526 97.2597 30.5871 98.8349 30.2622 100.5136 C 29.6565 103.6416 29.6261 105.2154 30.171 105.2154 C 30.3092 105.2154 30.5386 105.355 30.6797 105.5251 C 30.8215 105.6958 31.5639 106.258 32.3309 106.7754 C 33.0971 107.2928 33.7245 107.8137 33.7245 107.9331 C 33.7245 108.0532 33.765 108.1097 33.8149 108.0597 C 33.8648 108.0098 33.7838 107.0265 33.634 105.8745 Z M 45.3892 95.6671 C 45.8241 94.8552 46.2749 92.2786 46.6504 88.4639 C 47.2604 82.2657 46.9442 79.5704 44.8545 73.1479 C 43.3466 68.512 40.4545 61.1829 40.1332 61.1829 C 39.8908 61.1829 39.0963 62.2589 39.0905 62.596 C 39.0833 63.0215 38.7852 62.9875 36.1202 62.2552 C 35.1745 61.9955 34.3634 61.8204 34.3178 61.866 C 34.2722 61.9115 34.3279 61.9484 34.4423 61.9484 C 34.5566 61.9484 34.8308 62.2408 35.0515 62.5982 C 35.498 63.3203 35.8163 65.8181 35.825 68.6618 C 35.8344 71.695 36.2006 72.865 38.2143 76.2998 C 39.2996 78.1515 39.5312 79.1109 39.0905 79.9344 C 38.8546 80.375 37.5522 80.9018 36.6991 80.9018 C 36.3388 80.9018 35.9972 80.9778 35.9401 81.0704 C 35.8829 81.163 36.1014 81.5725 36.4256 81.9799 C 37.2447 83.0074 37.5529 83.655 37.5529 84.346 C 37.5529 85.8554 35.8641 87.5768 33.9567 88.0102 C 32.3092 88.385 29.8099 87.7982 28.7101 86.7787 C 27.8519 85.9834 27.6819 84.9444 28.0502 82.7382 C 28.2246 81.6948 28.323 80.7969 28.2694 80.7433 C 28.2159 80.6898 27.7195 80.5805 27.1667 80.5009 C 26.6146 80.4206 25.9012 80.299 25.5821 80.2303 L 25.0025 80.1051 L 24.6552 81.6044 C 23.865 85.016 22.9085 86.8177 20.148 90.0912 C 19.3043 91.0912 18.6112 91.9804 18.6068 92.0665 C 18.6032 92.1527 18.7508 92.178 18.9353 92.123 C 19.1191 92.068 20.9497 91.8292 23.0033 91.5919 C 27.9916 91.0166 34.2129 90.9703 35.9162 91.4956 C 37.4552 91.9703 40.0623 93.2214 42.712 94.7561 C 43.9182 95.4543 44.9703 96.026 45.0506 96.026 C 45.1316 96.026 45.2836 95.8646 45.3892 95.6671 Z M 33.9893 86.5652 C 35.1239 86.2237 36.087 85.4979 36.3966 84.749 C 36.605 84.2461 36.584 84.0616 36.2382 83.3496 C 36.0197 82.8981 35.5819 82.2165 35.2657 81.8337 C 34.7194 81.1724 34.6195 81.1333 33.2028 81.0154 C 32.3837 80.9474 31.3048 80.8432 30.8048 80.7831 C 29.9959 80.6862 29.8953 80.7151 29.8953 81.0443 C 29.8953 81.2484 29.7231 82.0884 29.5125 82.9119 C 29.0408 84.757 29.0328 85.3344 29.4727 85.8778 C 29.8425 86.3344 31.2925 86.8025 32.4018 86.8235 C 32.7795 86.8308 33.4944 86.7143 33.9893 86.5652 Z M 37.9885 79.9293 C 39.0384 79.451 38.9017 78.7434 37.2403 76.0574 C 35.367 73.0286 35.1789 72.3325 34.8721 67.2689 C 34.765 65.5099 34.5877 63.8297 34.477 63.536 C 34.2578 62.9535 33.0885 61.6583 32.4843 61.3291 C 32.2759 61.2155 31.8193 61.0584 31.4684 60.9788 C 30.9076 60.8529 30.6659 60.9463 29.4539 61.7603 C 28.6963 62.269 27.7318 63.041 27.3107 63.4752 L 26.5452 64.2646 L 26.5394 66.6003 C 26.5343 68.6278 26.475 69.0626 26.0915 69.8933 C 25.4837 71.2109 24.1776 74.8599 23.9497 75.8773 C 23.7977 76.5553 23.8223 76.8165 24.0799 77.2528 C 24.6219 78.171 26.7 79.2535 28.938 79.7839 C 31.1276 80.3034 36.9632 80.3967 37.9885 79.9293 Z M 38.4444 61.0389 C 38.6564 60.133 38.6549 60.1272 37.8988 59.3045 C 37.0826 58.4159 36.5963 57.4492 36.5963 56.7163 C 36.5963 56.2025 37.3742 54.9413 38.0015 54.4384 C 38.4075 54.1136 38.3988 54.1078 37.4972 54.1034 C 35.8764 54.0962 32.739 53.2916 30.4286 52.2909 C 30.1746 52.1809 30.2274 52.3792 30.6645 53.1722 C 31.3497 54.4146 31.3953 55.4746 30.8526 57.5455 C 30.3845 59.3305 30.383 59.2676 30.9004 59.2719 C 31.1377 59.2741 32.7961 59.8682 34.5855 60.5932 C 36.3757 61.3175 37.9285 61.9188 38.0363 61.9296 C 38.1441 61.9398 38.3279 61.5396 38.4444 61.0389 Z M 15.3384 60.0447 C 17.9339 58.6989 20.3665 54.322 20.0771 51.5188 C 19.9556 50.3423 19.2928 48.8061 18.135 47.016 C 17.1973 45.5667 17.1025 45.2925 17.5374 45.2925 C 18.164 45.2925 20.1198 48.6795 20.6191 50.6281 C 20.8774 51.6368 20.8933 52.0514 20.7139 53.081 C 20.4121 54.8147 19.8861 56.1208 18.8933 57.6012 L 18.0395 58.874 L 18.7501 59.0592 C 20.8246 59.5975 21.9968 59.7039 24.6009 59.5889 C 28.8635 59.4022 28.6218 59.4999 29.3403 57.6649 C 30.0929 55.7445 30.1652 54.2836 29.582 52.7945 C 29.2578 51.9667 28.9923 51.6483 28.1537 51.084 C 26.6146 50.0471 23.9135 47.3329 21.7587 44.6572 C 20.4165 42.99 19.4852 42.0327 18.6408 41.4524 C 17.2979 40.5292 16.8637 39.9358 16.4165 38.4134 C 15.6705 35.8729 16.4947 34.0293 18.8716 32.9222 C 20.8774 31.9888 22.0199 32.4056 23.7355 34.6979 C 24.7297 36.0263 24.7673 36.0538 25.2673 35.8165 C 25.5488 35.6826 26.611 35.5227 27.6284 35.462 C 28.645 35.4005 30.0957 35.2094 30.8519 35.0372 C 32.3786 34.6899 33.0016 34.2977 37.8235 30.6473 C 41.1346 28.1401 43.3263 26.8521 45.0195 26.4173 C 46.5455 26.0258 47.8892 26.1915 51.3558 27.1987 C 54.9115 28.232 55.9151 28.0735 56.7942 26.3391 C 58.635 22.706 58.2949 16.1808 56.0916 12.8553 C 53.9253 9.5847 45.1968 4.5494 38.8445 2.9068 C 35.5276 2.0487 33.4025 1.7621 30.2781 1.7513 C 25.8259 1.7368 22.2934 2.6319 17.8333 4.9061 C 12.5599 7.5942 8.6721 11.2685 5.8039 16.2727 C 3.3596 20.5368 2.3285 24.6315 2.3285 30.0728 C 2.3285 35.2471 2.9168 37.4236 5.9667 43.5226 C 8.3458 48.2808 8.4435 48.6839 7.4797 49.7808 C 6.5441 50.8466 4.8314 51.7815 3.2685 52.0796 C 2.5116 52.2236 1.8133 52.4573 1.7171 52.5984 C 1.4197 53.0325 1.6686 55.2771 2.1339 56.353 C 2.3734 56.908 2.8148 57.5694 3.1151 57.8219 C 3.8234 58.4174 6.2829 59.3638 8.9319 60.0592 C 11.6062 60.7618 13.9665 60.756 15.3384 60.0447 Z M 41.6896 58.7676 C 42.2764 58.8363 42.7229 58.8262 42.6816 58.7452 C 41.8828 57.1801 41.8821 57.1728 42.314 55.246 C 42.5384 54.2445 42.7221 53.3697 42.7221 53.3017 C 42.7221 53.2344 42.3126 53.3343 41.8126 53.5246 C 41.3126 53.7141 40.5152 53.9291 40.042 54.0014 C 39.2656 54.1194 39.1195 54.2293 38.558 55.1193 C 38.2164 55.6627 37.9364 56.3559 37.9364 56.6598 C 37.9364 57.4521 38.6035 58.4225 39.5276 58.9731 L 40.3249 59.4485 L 40.474 59.0455 C 40.6093 58.6786 40.7207 58.6533 41.6896 58.7676 Z M 41.1903 52.4718 C 42.2677 52.0355 43.7286 50.9942 44.1367 50.372 C 44.4457 49.9002 44.4442 49.898 43.3922 49.4002 C 41.2395 48.3821 39.1303 46.283 39.3561 45.3836 C 39.5435 44.6383 40.2916 44.7541 40.9306 45.6275 C 41.2193 46.0225 41.7193 46.7063 42.0413 47.1477 C 42.3632 47.5884 43.1411 48.2562 43.7706 48.631 C 45.1794 49.4711 45.0094 49.6035 47.183 45.9625 C 48.8776 43.1239 48.9536 43.0523 50.8587 42.4792 L 52.0071 42.134 L 51.9615 41.3844 C 51.9362 40.9727 51.5273 39.8041 51.0519 38.7882 C 50.0035 36.5451 49.9753 35.988 50.7712 33.2319 C 51.2336 31.6321 51.3291 31.0062 51.2386 30.1683 C 51.031 28.2342 51.091 28.3159 49.6243 27.9824 C 47.8233 27.5728 46.0824 27.6003 44.5853 28.0627 C 43.1845 28.4954 40.4631 30.0966 37.0746 32.4823 C 33.6919 34.8636 32.972 35.2897 31.2875 35.9041 C 30.1384 36.3237 26.2145 37.2521 25.5915 37.2521 C 25.5517 37.2521 25.4909 37.4388 25.4576 37.6674 C 25.3419 38.4532 24.9699 38.2195 23.8144 36.6363 C 22.2486 34.4916 21.4447 33.7427 20.7305 33.763 C 19.9541 33.7854 19.1524 34.2319 18.4455 35.0379 C 17.63 35.9663 17.3818 36.98 17.6343 38.3454 C 17.8565 39.5465 18.2544 40.0762 19.4715 40.7896 C 19.9939 41.0957 21.0453 42.2238 22.5062 44.0457 C 26.9525 49.5912 29.0408 51.2185 33.15 52.343 C 35.2433 52.9153 35.3221 52.924 37.9364 52.8705 C 39.7186 52.8336 40.5492 52.7315 41.1911 52.4718 Z M 41.9349 34.933 C 41.5926 34.5908 41.5434 34.3628 41.618 33.4642 C 41.6889 32.6074 41.8068 32.3144 42.225 31.9548 C 43.2315 31.0887 44.3495 31.5351 44.5694 32.8911 C 44.7069 33.7362 44.2474 34.6581 43.4942 35.0473 C 42.7402 35.4374 42.4153 35.4135 41.9349 34.933 Z "/>
      </g>
    </g>
  </g>
</svg>