<svg version="1.1" xmlns="http://www.w3.org/2000/svg" xmlns:xlink="http://www.w3.org/1999/xlink" width="188.35463" height="183.86903" viewBox="0,0,188.35463,183.86903"><g transform="translate(-207.3832,-125.5469)"><g data-paper-data="{&quot;isPaintingLayer&quot;:true}" fill-rule="nonzero" stroke-linejoin="miter" stroke-miterlimit="10" stroke-dasharray="" stroke-dashoffset="0" style="mix-blend-mode: normal"><path d="M234.001,275.7498c-0.4757,0.4103 -0.83,1.0484 -1.3884,1.2608c-0.2712,0.1027 -0.6633,-0.1364 -0.778,-0.3902c-0.1228,-0.3502 0.06,-0.7576 0.2006,-1.0772c0.5273,-1.1994 2.3486,-3.3107 1.805,-3.4958c-0.562,-0.1904 -2.7375,2.0318 -4.2946,2.5504c-0.3936,0.1312 -0.8695,-0.4303 -0.9079,-0.8493c-0.0141,-0.5372 0.4656,-0.9913 0.7814,-1.4514c0.4076,-0.5931 0.9177,-1.0989 1.4284,-1.6249c0.7965,-0.7665 2.9904,-1.9607 2.4914,-2.25c-0.6207,-0.3636 -3.2755,1.0042 -4.9686,0.9101c-0.4988,-0.0275 -0.8306,-0.8011 -0.7657,-1.2902c0.0582,-0.4295 0.663,-0.6154 1.0356,-0.7889c1.169,-0.5435 2.4149,-0.9336 3.6086,-1.4026c0.5989,-0.2273 1.905,-0.0739 1.8143,-0.666c-0.1658,-1.043 -1.8027,-1.5462 -2.3406,-2.5421c-0.2894,-0.536 -0.4797,-1.3729 -0.0786,-1.8279c0.3725,-0.426 1.1978,-0.2163 1.718,0.0384c0.8164,0.4022 1.4329,1.1681 2.0184,1.8417c0.7411,0.8536 1.2209,1.871 1.9341,2.7905c1.0443,1.3017 2.3683,2.4722 3.3368,3.8719c0.4469,0.6464 0.7741,1.3722 0.8895,2.1325c0.0604,0.3994 0.0242,0.9691 -0.3219,1.1878c-0.4152,0.2603 -1.0662,-0.3613 -1.4041,-0.0414c-0.5705,0.4953 -0.5482,1.398 -0.8624,2.0751c-0.369,0.7955 -0.6553,1.6318 -1.2512,2.3187c-0.3766,0.4338 -1.0804,1.0666 -1.5084,0.8369c-0.4429,-0.238 -0.2307,-1.1509 -0.2692,-1.7263c-0.013,-0.7119 0.5434,-2.0453 0.1151,-2.1211c-0.5514,-0.0971 -1.3691,1.1601 -2.0376,1.7305z" fill="#f6debf" stroke="#000000" stroke-width="0.77865" stroke-linecap="round"/><path d="M310.6551,246.7759c-0.0999,0.4233 1.3448,0.44 1.9935,0.7337c0.5132,0.263 1.4355,0.4293 1.4789,0.9303c0.0415,0.4839 -0.8181,0.8799 -1.3655,1.0541c-0.8666,0.2754 -1.748,0.2074 -2.6246,0.2316c-0.7462,0.0206 -1.5664,-0.3572 -2.2469,-0.0292c-0.4275,0.1837 -0.1143,1.0276 -0.5177,1.3059c-0.3377,0.2313 -0.8752,0.0391 -1.2182,-0.1744c-0.6525,-0.4068 -1.1896,-0.9946 -1.6064,-1.6608c-0.9022,-1.4433 -1.4532,-3.1224 -2.2354,-4.5965c-0.5623,-1.0189 -1.3068,-1.8621 -1.7975,-2.8805c-0.387,-0.8042 -0.8464,-1.6735 -0.8926,-2.5824c-0.0281,-0.5785 0.1059,-1.4195 0.6445,-1.593c0.5765,-0.1883 1.2698,0.3176 1.6476,0.7955c0.7017,0.8881 0.5162,2.5905 1.4084,3.1555c0.5079,0.3176 0.8838,-0.9426 1.3295,-1.4027c0.9031,-0.9106 1.7544,-1.9005 2.7161,-2.759c0.3068,-0.2735 0.7168,-0.7555 1.1344,-0.6388c0.4748,0.1339 1.054,0.7447 0.8818,1.2136c-0.5835,1.5921 -2.8902,3.489 -2.8019,4.203c0.0682,0.5727 2.0331,-0.9696 3.0522,-1.3977c0.6851,-0.2609 1.3515,-0.5293 2.0575,-0.6689c0.5476,-0.1079 1.1544,-0.3688 1.6421,-0.1433c0.3697,0.2011 0.697,0.8604 0.4208,1.1699c-1.0925,1.2248 -3.9942,2.3434 -4.0417,2.9349c-0.0451,0.5724 2.6146,-0.2648 3.9247,-0.2744c0.3492,-0.0026 0.7957,-0.0093 1.0687,0.242c0.1877,0.2058 0.2521,0.6605 0.0505,0.8689c-0.416,0.4288 -1.1422,0.5016 -1.7073,0.7762c-0.7884,0.3882 -2.2665,0.6417 -2.3955,1.1865z" fill="#f6debf" stroke="#000000" stroke-width="0.77865" stroke-linecap="round"/><path d="M223.6863,204.0803c1.1038,0.9068 3.6356,0.1047 4.1407,-1.1831c0.6413,-2.0154 -1.535,-4.0142 -1.6267,-6.0633c-0.0408,-0.8411 0.7814,-1.4942 1.1831,-2.2182c1.4481,-2.5472 3.257,-4.9358 4.2886,-7.69c1.2683,-3.383 1.9965,-6.8908 2.6619,-10.3519c0.323,-2.1762 -0.0455,-4.4229 0.2958,-6.5069c0.1668,-0.9553 0.2692,-2.8565 1.1831,-2.6619c1.9692,0.4235 3.063,2.6903 4.7323,3.845c3.454,2.3827 6.782,6.5093 11.2688,6.5956c6.1283,0.2899 11.4557,-5.7154 17.9235,-5.5604c8.6388,0.2082 16.889,3.9378 25.0516,6.7731c3.1056,1.0778 6.3549,2.4744 8.873,4.7027c1.0092,1.0322 0.7182,2.9074 0.9169,4.3478c0.3668,2.6359 0.2254,5.286 0.4437,7.9857c0.1419,1.9746 -0.7069,5.5841 0.8873,6.2112c1.4558,0.472 3.2321,-3.1512 5.1759,-4.2887c2.3502,-1.383 4.7512,-3.6367 7.5421,-3.4013c2.533,0.2307 5.3629,2.1727 6.359,4.5844c1.0749,2.6128 0.1432,5.6586 -0.8873,8.1336c-1.115,2.7873 -3.27,5.1144 -5.3238,7.0985c-1.27,1.2256 -2.8068,2.0792 -4.5844,2.6619c-1.8894,0.6022 -3.9461,0.624 -5.9154,0.7394c-1.5468,0.0739 -2.5554,-0.1295 -3.845,0c-1.0807,-0.1295 -2.1384,-0.808 -3.2534,0c-1.0074,0.8057 -0.5395,2.4099 -0.8873,3.5492c-0.7933,2.2035 -1.2872,4.5797 -2.3662,6.8027c-1.2333,1.8225 -2.1449,3.0854 -3.5492,4.4365c-1.981,1.9036 -3.6149,3.4268 -6.6548,4.8802c-4.9866,2.3064 -6.8707,3.0854 -10.4997,3.9929c-3.1234,0.7808 -5.8965,1.2315 -9.6125,1.0352c-4.8772,-0.3 -8.307,-0.7519 -12.2744,-1.9225c-5.0854,-1.502 -10.1159,-3.3446 -14.4926,-6.2112c-3.7326,-2.2389 -6.7069,-5.5947 -9.4646,-8.873c-2.2,-2.6099 -4.0343,-5.5415 -5.6196,-8.5773c-0.7489,-1.4351 -0.3508,-3.7042 -1.6268,-4.5844c-0.7766,-0.5087 -1.6296,1.4043 -2.6619,1.7746c-1.2369,0.4354 -2.5797,0.701 -3.9928,0.5915c-1.2299,-0.1035 -2.4188,-0.472 -3.5493,-1.183c-1.5007,-0.9489 -2.8855,-2.2071 -3.845,-3.6971c-0.9571,-1.5144 -1.6302,-2.9536 -1.7746,-4.4366c-0.162,-1.9869 0.242,-4.0626 0.8873,-5.6196c0.6117,-1.4593 1.3062,-3.3433 2.8098,-3.845c2.3898,-0.7962 5.4877,-1.2789 7.5421,0.1479c2.4786,1.7622 1.8196,6.0964 4.1408,7.9858z" fill="#f6debf" stroke="#000000" stroke-width="1.77461" stroke-linecap="round"/><path d="M257.1433,276.9414c0.9382,0 1.7888,0.2816 2.4046,0.737c0.6158,0.4549 0.9967,1.0832 0.9967,1.777c0,0.6939 -0.3809,1.3221 -0.9967,1.777c-0.6158,0.4555 -1.4664,0.7371 -2.4046,0.7371c-0.9382,0 -1.7888,-0.2816 -2.4046,-0.7371c-0.6158,-0.4549 -0.9967,-1.0831 -0.9967,-1.777c0,-0.6938 0.3809,-1.3221 0.9967,-1.777c0.6158,-0.4554 1.4664,-0.737 2.4046,-0.737z" fill="#000000" stroke="none" stroke-width="0.59154" stroke-linecap="butt"/><path d="M221.9687,200.2284c-0.4969,-1.1517 -0.9559,-2.4709 -1.7746,-3.5492c-0.9394,-1.0855 -2.562,-1.5664 -3.4014,-2.8098c-1.4942,-2.2207 -2.9464,-4.5383 -3.5492,-7.0985c-1.2718,-5.4806 -2.5211,-11.1374 -2.0704,-16.563c0.4549,-6.1218 1.3067,-12.4998 4.7323,-17.4503c4.9713,-7.1807 11.8095,-12.8334 18.9292,-17.4504c5.8391,-3.6202 12.6258,-5.2019 19.225,-6.8026c5.6982,-1.3825 11.6024,-1.8586 17.4503,-2.0704c4.9133,-0.1769 10.172,-0.0148 15.2025,1.0056c6.598,1.2996 13.6379,2.488 19.4911,5.9154c6.1342,3.5935 10.873,8.9523 15.2912,14.256c2.4005,2.8548 3.5569,6.6146 4.8802,9.8787c1.0056,2.4832 2.0621,4.9103 2.3662,7.6899c0.5033,4.8796 1.3853,10.0633 0,14.7885c-1.5049,5.1238 -4.9524,9.5722 -8.4294,13.6053c-1.4132,1.5966 -2.2834,0.8518 -3.4014,1.331c-1.296,0.5554 -2.6861,0.9718 -3.845,1.7746c-1.6356,1.1215 -2.2939,2.6666 -3.6971,3.6971c-1.0523,0.7713 -2.7139,2.3543 -3.6971,1.6267c-1.1198,-0.8897 -0.4182,-3.3511 -0.5915,-5.0281c-0.323,-3.1209 1.0701,-7.0115 -1.0352,-9.3167c-3.3505,-3.6705 -8.5726,-6.5654 -13.6941,-6.9801c-3.7846,-0.139 -6.3838,6.4673 -10.1153,5.5013c-4.6985,-1.2138 -5.4894,-9.3534 -10.2335,-10.3815c-7.5256,-1.6291 -15.4794,3.7468 -23.3066,3.3126c-2.7281,-0.1514 -4.8364,-2.9872 -6.8027,-5.028c-1.4409,-1.4949 -1.37,-3.9799 -4.7618,-6.3886c-1.3055,1.49 -0.3857,5.1002 -0.5916,7.6899c-0.1467,1.832 -0.3164,3.6315 -0.7394,5.4718c-0.4673,1.8698 -1.0991,3.8213 -1.9225,5.6196c-1.018,2.207 -2.0987,4.0348 -3.2534,6.0632c-0.7678,1.2257 -2.3709,2.2159 -2.5141,3.6971c-0.2052,2.1993 1.8539,4.5525 1.7747,6.9506c-0.0373,0.7252 -1.431,0.7139 -2.2183,1.0352c-0.698,0.1733 -1.6841,0.9742 -2.2183,0.4436c-1.0446,-1.0452 -0.8766,-2.9837 -1.4788,-4.4365z" fill="#666666" stroke="#000000" stroke-width="1.77461" stroke-linecap="round"/><path d="M252.7664,194.4974c0.7959,0 1.5176,0.6294 2.0401,1.647c0.5224,1.017 0.8457,2.4222 0.8457,3.9726c0,1.5504 -0.3233,2.9556 -0.8457,3.9726c-0.5225,1.0176 -1.2442,1.647 -2.0401,1.647c-0.7958,0 -1.5176,-0.6294 -2.0401,-1.647c-0.5224,-1.017 -0.8456,-2.4222 -0.8456,-3.9726c0,-1.5504 0.3232,-2.9556 0.8456,-3.9726c0.5225,-1.0176 1.2443,-1.647 2.0401,-1.647z" fill="#000000" stroke="none" stroke-width="0.60752" stroke-linecap="butt"/><path d="M279.1164,193.2474c0.7959,0 1.5176,0.6294 2.0401,1.647c0.5224,1.017 0.8457,2.4222 0.8457,3.9726c0,1.5504 -0.3233,2.9556 -0.8457,3.9726c-0.5225,1.0176 -1.2442,1.647 -2.0401,1.647c-0.7958,0 -1.5176,-0.6294 -2.0401,-1.647c-0.5224,-1.017 -0.8456,-2.4222 -0.8456,-3.9726c0,-1.5504 0.3232,-2.9556 0.8456,-3.9726c0.5225,-1.0176 1.2443,-1.647 2.0401,-1.647z" fill="#000000" stroke="none" stroke-width="0.60752" stroke-linecap="butt"/><g fill="none" stroke="#000000" stroke-linecap="round"><path d="M287.3744,217.9335c0,0 -7.4954,8.4891 -12.4223,10.9434c-3.3682,1.6528 -7.2061,1.693 -10.7956,1.331c-2.7607,-0.4579 -5.1008,-2.0787 -7.542,-3.6971c-2.6377,-1.8072 -6.8027,-6.8027 -6.8027,-6.8027" stroke-width="1.77461"/><path d="M246.8541,221.7785c0,0 -0.0479,0.1532 0.1479,0c0.7838,-0.6117 1.3049,-1.5546 2.0704,-2.2183c0.976,-0.7719 2.8098,-1.6267 2.8098,-1.6267" stroke-width="1.77461"/><path d="M284.9391,215.6938c0,0 1.7669,0.5478 2.6521,0.8895c1.0836,0.4184 3.2562,1.4682 3.2562,1.4682" stroke-width="1.77461"/></g><path d="M251.3074,249.9412c1.4138,-0.8704 2.7431,-3.0163 4.3826,-2.3834c2.2974,0.8947 2.7767,4.1135 4.4664,5.9096c0.749,0.8001 2.7953,0.5167 2.6123,1.4636c-0.3249,2.6601 -2.1633,4.8785 -3.796,6.9397c-1.7491,2.209 -4.0395,4.1553 -6.3449,6.0056c-2.0303,1.5295 -4.0894,3.5186 -6.6148,4.0963c-1.7684,0.4 -3.646,-0.1337 -5.051,-1.1304c-1.9457,-1.3836 -2.6561,-3.7029 -4.082,-5.4599c-1.1889,-1.4358 -4.1204,-2.2595 -4.1966,-4.0003c0.1318,-1.5031 2.9776,-1.7485 4.2865,-2.4959c1.5754,-0.9026 2.7325,-1.3078 4.816,-2.5591c3.2146,-2.1012 6.0475,-4.2785 9.5215,-6.3858z" fill="#ffffff" stroke="#000000" stroke-width="1.18307" stroke-linecap="round"/><path d="M290.657,243.0257c2.2421,-1.4507 3.7405,-4.7698 6.5236,-4.7093c2.3394,0.0529 3.6401,3.0779 4.8422,5.0733c1.6149,2.6824 2.9754,5.6241 3.2706,8.7288c0.192,1.0566 -1.0267,1.9225 -1.9515,2.5351c-2.7517,1.8251 -5.717,3.3241 -8.7217,4.6735c-2.5772,1.1551 -5.0708,3.3199 -7.7959,2.7982c-2.4796,-0.5106 -3.7775,-3.4723 -5.4286,-5.421c-1.4813,-1.7484 -4.2488,-3.2338 -4.0256,-5.4281c0.1745,-1.9822 3.2554,-2.2369 4.8475,-3.2043c2.7978,-1.7058 5.7109,-3.2889 8.4394,-5.0462z" fill="#ffffff" stroke="#000000" stroke-width="1.18307" stroke-linecap="round"/><path d="M271.0092,245.6357c4.43,-0.2058 9.2931,-0.1987 13.1617,2.0704c2.2993,1.1766 2.4785,4.5347 3.2535,7.0984c0.7524,2.4875 1.0564,4.675 1.3309,7.69c0.3425,4.6146 1.7102,9.5551 0.1479,13.9011c-0.6643,1.7368 -3.5398,0.5496 -5.3238,0.5916c-4.2786,0.3525 -8.5927,0.2212 -12.8659,0.5915c-3.8959,0.3372 -7.8616,1.2168 -11.8308,1.6267c-1.9852,0.1822 -5.3877,2.0349 -6.359,0.1479c-2.1875,-4.3975 -1.3085,-9.758 -1.331,-14.6405c0.216,-5.312 -1.8302,-12.1608 1.9225,-15.8236c4.3336,-4.2307 11.8444,-2.9713 17.894,-3.2535z" fill="#ffffff" stroke="#000000" stroke-width="1.18307" stroke-linecap="round"/><path d="M269.1183,242.905c1.0054,-0.0357 2.2327,-0.7407 2.9377,-0.1088c0.9222,0.8992 0.8713,2.4711 0.8704,3.6993c0.044,0.9627 0.118,2.2235 -0.6837,2.8011c-1.0606,0.7646 -2.6265,1.1877 -3.886,0.6806c-1.253,-0.45 -2.0751,-1.8453 -2.6113,-3.1553c-0.4618,-1.1415 -0.9222,-2.8084 -0.1088,-3.6993c0.7873,-0.8574 2.328,-0.1802 3.4817,-0.2176z" fill="#ffffff" stroke="#000000" stroke-width="0.87043" stroke-linecap="butt"/><path d="M286.3004,281.7195l-8.0744,19.4024l16.2672,5.3238l0.0592,1.4788h-4.1999l-42.2357,0.5916v-0.4141l14.3151,-8.0449l-2.8985,-12.0674c-0.9825,-4.0798 -2.6891,-6.0857 -0.7394,-7.8378c3.2463,-2.9139 8.5743,-2.7004 13.1025,-2.9577c4.9133,-0.291 10.0349,-0.1644 14.9067,1.331c1.218,0.3738 0.1047,1.5521 -0.5028,3.1943z" fill="#666666" stroke="#000000" stroke-width="1.77461" stroke-linecap="round"/><path d="M270.8318,307.1555l-0.2958,-22.5671" fill="none" stroke="#000000" stroke-width="1.77461" stroke-linecap="round"/><path d="M271.0282,282.8462c1.3588,0 2.5898,0.1021 3.4812,0.2674c0.8915,0.1649 1.4434,0.3929 1.4434,0.6446c0,0.2517 -0.5519,0.4796 -1.4434,0.6445c-0.8914,0.1653 -2.1224,0.2674 -3.4812,0.2674c-1.3587,0 -2.5897,-0.1021 -3.4812,-0.2674c-0.8914,-0.1649 -1.4433,-0.3928 -1.4433,-0.6445c0,-0.2517 0.5519,-0.4797 1.4433,-0.6446c0.8915,-0.1653 2.1225,-0.2674 3.4812,-0.2674z" fill="#000000" stroke="#000000" stroke-width="0.98283" stroke-linecap="butt"/><g stroke="none" stroke-width="0.0795" stroke-linecap="butt"><path d="M272.4506,255.079l1.3732,20.3943c0.0121,0.1794 -0.0691,0.3547 -0.223,0.4817l-3.8098,3.1433c-0.2989,0.2467 -0.7837,0.2467 -1.0826,0l-3.8097,-3.1433c-0.154,-0.1271 -0.2351,-0.3023 -0.2231,-0.4817l1.3733,-20.3943c0.0924,-1.3727 0.3029,-2.7383 0.6296,-4.0863l1.8058,-7.4495h1.531l1.8057,7.4495c0.3268,1.3481 0.5372,2.7136 0.6296,4.0863z" fill="#003fff"/><g fill="#000000"><path d="M265.1893,267.845l7.6935,-6.3478l0.1139,1.6923l-7.9347,6.5468l0.1273,-1.8913"/><path d="M264.9192,271.8575l8.2054,-6.7701l0.1139,1.6923l-8.4467,6.9692l0.1274,-1.8914"/><path d="M265.4596,263.8324l7.1815,-5.9253l0.1138,1.6922l-7.4227,6.1245l0.1274,-1.8914"/><path d="M273.608,272.2679l0.1139,1.6922l-5.6205,4.6373l-1.0824,-0.8931l6.589,-5.4364"/><path d="M273.3664,268.6775l0.1138,1.6923l-7.6753,6.3328l-0.9062,-0.7477c-0.0614,-0.0507 -0.1017,-0.1132 -0.1386,-0.1764z"/><path d="M271.8232,251.0025c0.1227,0.5068 0.2235,1.0167 0.3132,1.5279l-6.2639,5.1682l0.1274,-1.8913z"/><path d="M267.6859,246.8369l2.6064,-2.1506l0.3609,1.4886l-3.5086,2.8948l0.5413,-2.2328"/><path d="M272.4506,255.0789l0.0626,0.9302l-6.9109,5.702l0.1274,-1.8913l6.6543,-5.4904c0.0247,0.2497 0.0497,0.4994 0.0666,0.7495z"/><path d="M271.058,247.8444l0.3608,1.4885l-5.2245,4.3107c0.0892,-0.6976 0.2091,-1.392 0.3592,-2.0827z"/></g><path d="M270.8705,247.0713h-3.2415l0.8553,-3.5281h1.531l0.8552,3.5281" fill="#515262"/><g fill="#000000"><path d="M270.6532,246.1749l-1.0865,0.8964h-1.9377l0.0569,-0.2344l2.6064,-2.1506l0.3609,1.4886"/><path d="M271.3633,243.4055l-0.4594,1.8948c-0.0716,0.2952 -0.3858,0.5077 -0.7507,0.5077h-1.8068c-0.365,0 -0.6792,-0.2125 -0.7507,-0.5077l-0.4594,-1.8948c-0.0947,-0.3908 0.2677,-0.7555 0.7507,-0.7555h2.7256c0.483,0 0.8453,0.3647 0.7507,0.7555z"/></g><path d="M271.0889,244.5374l-0.185,0.7629c-0.0534,0.2206 -0.2427,0.3948 -0.4871,0.4688l-3.2496,-2.6811c0.0992,-0.2488 0.3749,-0.438 0.7198,-0.438h0.9142z" fill="#003fff"/></g><g stroke="none" stroke-width="0.05391" stroke-linecap="butt"><path d="M395.73783,254.56411c0,0.7332 -0.5607,1.2938 -1.2938,1.2938h-11.2125c-0.7331,0 -1.2937,-0.5606 -1.2937,-1.2938v-23.7187c0,-0.7331 0.5606,-1.2938 1.2937,-1.2938h11.2125c0.7331,0 1.2938,0.5607 1.2938,1.2938z" fill="#8eaeba"/><path d="M395.73783,254.13291c0,0.7331 -0.5607,1.2937 -1.2938,1.2937h-11.2125c-0.7331,0 -1.2937,-0.5606 -1.2937,-1.2937v-23.7188c0,-0.7331 0.5606,-1.2937 1.2937,-1.2937h11.2125c0.7331,0 1.2938,0.5606 1.2938,1.2937z" fill="#ffffff"/><path d="M395.73783,254.13291c0,0.7331 -0.5607,1.2937 -1.2938,1.2937h-11.2125c-0.7331,0 -1.2937,-0.5606 -1.2937,-1.2937v-23.2875c0,-0.7331 0.5606,-1.2938 1.2937,-1.2938h11.2125c0.7331,0 1.2938,0.5607 1.2938,1.2938z" fill="#d7eaf7"/><path d="M383.23153,229.55161h11.2125c0.7331,0 1.2938,0.4313 1.2938,1.1213v23.5894c0,0.7331 -0.5607,1.1643 -1.2938,1.1643h-11.2125" fill="#c1d8e5"/><path d="M394.44403,229.55161c0.7331,0 1.2938,0.4313 1.2938,1.1213v23.5894c0,0.7331 -0.5607,1.1643 -1.2938,1.1643" fill="#a7c4d1"/><path d="M381.93783,232.13911h13.8v20.7h-13.8z" fill="#094670"/><path d="M381.93783,232.13911h13.8v20.7" fill="#00233f"/><path d="M382.80033,232.13911h12.075v20.7h-12.075z" fill="#ea7711"/><path d="M382.80033,233.00161h12.075v19.8375h-12.075z" fill="#ffa515"/><path d="M382.80033,233.00161h12.075v19.8375" fill="#ed900a"/><g fill="#95aab5"><path d="M386.63843,230.15541c0.0476,0 0.0907,0.0194 0.1219,0.0506c0.0312,0.0312 0.0506,0.0743 0.0506,0.1219c0,0.0476 -0.0194,0.0907 -0.0506,0.1219c-0.0312,0.0312 -0.0743,0.0506 -0.1219,0.0506c-0.0476,0 -0.0907,-0.0194 -0.1219,-0.0506c-0.0313,-0.0312 -0.0506,-0.0743 -0.0506,-0.1219c0,-0.0476 0.0193,-0.0907 0.0506,-0.1219c0.0312,-0.0312 0.0743,-0.0506 0.1219,-0.0506z"/><path d="M387.28533,230.15541c0.0476,0 0.0907,0.0194 0.1219,0.0506c0.0312,0.0312 0.0506,0.0743 0.0506,0.1219c0,0.0476 -0.0194,0.0907 -0.0506,0.1219c-0.0312,0.0312 -0.0743,0.0506 -0.1219,0.0506c-0.0476,0 -0.0908,-0.0194 -0.122,-0.0506c-0.0312,-0.0312 -0.0505,-0.0743 -0.0505,-0.1219c0,-0.0476 0.0193,-0.0907 0.0505,-0.1219c0.0312,-0.0312 0.0744,-0.0506 0.122,-0.0506z"/><path d="M387.88903,230.15541c0.0476,0 0.0907,0.0194 0.122,0.0506c0.0312,0.0312 0.0505,0.0743 0.0505,0.1219c0,0.0476 -0.0193,0.0907 -0.0505,0.1219c-0.0313,0.0312 -0.0744,0.0506 -0.122,0.0506c-0.0476,0 -0.0907,-0.0194 -0.1219,-0.0506c-0.0312,-0.0312 -0.0506,-0.0743 -0.0506,-0.1219c0,-0.0476 0.0194,-0.0907 0.0506,-0.1219c0.0312,-0.0312 0.0743,-0.0506 0.1219,-0.0506z"/><path d="M388.53593,230.15541c0.0476,0 0.0907,0.0194 0.1219,0.0506c0.0312,0.0312 0.0506,0.0743 0.0506,0.1219c0,0.0476 -0.0194,0.0907 -0.0506,0.1219c-0.0312,0.0312 -0.0743,0.0506 -0.1219,0.0506c-0.0476,0 -0.0907,-0.0194 -0.1219,-0.0506c-0.0313,-0.0312 -0.0506,-0.0743 -0.0506,-0.1219c0,-0.0476 0.0193,-0.0907 0.0506,-0.1219c0.0312,-0.0312 0.0743,-0.0506 0.1219,-0.0506z"/><path d="M389.13963,230.15541c0.0476,0 0.0908,0.0194 0.122,0.0506c0.0312,0.0312 0.0505,0.0743 0.0505,0.1219c0,0.0476 -0.0193,0.0907 -0.0505,0.1219c-0.0312,0.0312 -0.0744,0.0506 -0.122,0.0506c-0.0476,0 -0.0907,-0.0194 -0.1219,-0.0506c-0.0312,-0.0312 -0.0506,-0.0743 -0.0506,-0.1219c0,-0.0476 0.0194,-0.0907 0.0506,-0.1219c0.0312,-0.0312 0.0743,-0.0506 0.1219,-0.0506z"/><path d="M389.78653,230.15541c0.0476,0 0.0907,0.0194 0.122,0.0506c0.0312,0.0312 0.0505,0.0743 0.0505,0.1219c0,0.0476 -0.0193,0.0907 -0.0505,0.1219c-0.0313,0.0312 -0.0744,0.0506 -0.122,0.0506c-0.0476,0 -0.0907,-0.0194 -0.1219,-0.0506c-0.0312,-0.0312 -0.0506,-0.0743 -0.0506,-0.1219c0,-0.0476 0.0194,-0.0907 0.0506,-0.1219c0.0312,-0.0312 0.0743,-0.0506 0.1219,-0.0506z"/><path d="M390.39033,230.15541c0.0476,0 0.0907,0.0194 0.1219,0.0506c0.0312,0.0312 0.0506,0.0743 0.0506,0.1219c0,0.0476 -0.0194,0.0907 -0.0506,0.1219c-0.0312,0.0312 -0.0743,0.0506 -0.1219,0.0506c-0.0476,0 -0.0908,-0.0194 -0.122,-0.0506c-0.0312,-0.0312 -0.0505,-0.0743 -0.0505,-0.1219c0,-0.0476 0.0193,-0.0907 0.0505,-0.1219c0.0312,-0.0312 0.0744,-0.0506 0.122,-0.0506z"/><path d="M391.03713,230.15541c0.0476,0 0.0908,0.0194 0.122,0.0506c0.0312,0.0312 0.0505,0.0743 0.0505,0.1219c0,0.0476 -0.0193,0.0907 -0.0505,0.1219c-0.0312,0.0312 -0.0744,0.0506 -0.122,0.0506c-0.0476,0 -0.0907,-0.0194 -0.1219,-0.0506c-0.0312,-0.0312 -0.0506,-0.0743 -0.0506,-0.1219c0,-0.0476 0.0194,-0.0907 0.0506,-0.1219c0.0312,-0.0312 0.0743,-0.0506 0.1219,-0.0506z"/><path d="M386.63843,230.71601c0.0476,0 0.0907,0.0194 0.1219,0.0506c0.0312,0.0312 0.0506,0.0743 0.0506,0.1219c0,0.0476 -0.0194,0.0907 -0.0506,0.122c-0.0312,0.0312 -0.0743,0.0505 -0.1219,0.0505c-0.0476,0 -0.0907,-0.0193 -0.1219,-0.0505c-0.0313,-0.0313 -0.0506,-0.0744 -0.0506,-0.122c0,-0.0476 0.0193,-0.0907 0.0506,-0.1219c0.0312,-0.0312 0.0743,-0.0506 0.1219,-0.0506z"/><path d="M387.28533,230.71601c0.0476,0 0.0907,0.0194 0.1219,0.0506c0.0312,0.0312 0.0506,0.0743 0.0506,0.1219c0,0.0476 -0.0194,0.0907 -0.0506,0.122c-0.0312,0.0312 -0.0743,0.0505 -0.1219,0.0505c-0.0476,0 -0.0908,-0.0193 -0.122,-0.0505c-0.0312,-0.0313 -0.0505,-0.0744 -0.0505,-0.122c0,-0.0476 0.0193,-0.0907 0.0505,-0.1219c0.0312,-0.0312 0.0744,-0.0506 0.122,-0.0506z"/><path d="M387.88903,230.71601c0.0476,0 0.0907,0.0194 0.122,0.0506c0.0312,0.0312 0.0505,0.0743 0.0505,0.1219c0,0.0476 -0.0193,0.0907 -0.0505,0.122c-0.0313,0.0312 -0.0744,0.0505 -0.122,0.0505c-0.0476,0 -0.0907,-0.0193 -0.1219,-0.0505c-0.0312,-0.0313 -0.0506,-0.0744 -0.0506,-0.122c0,-0.0476 0.0194,-0.0907 0.0506,-0.1219c0.0312,-0.0312 0.0743,-0.0506 0.1219,-0.0506z"/><path d="M388.53593,230.71601c0.0476,0 0.0907,0.0194 0.1219,0.0506c0.0312,0.0312 0.0506,0.0743 0.0506,0.1219c0,0.0476 -0.0194,0.0907 -0.0506,0.122c-0.0312,0.0312 -0.0743,0.0505 -0.1219,0.0505c-0.0476,0 -0.0907,-0.0193 -0.1219,-0.0505c-0.0313,-0.0313 -0.0506,-0.0744 -0.0506,-0.122c0,-0.0476 0.0193,-0.0907 0.0506,-0.1219c0.0312,-0.0312 0.0743,-0.0506 0.1219,-0.0506z"/><path d="M389.13963,230.71601c0.0476,0 0.0908,0.0194 0.122,0.0506c0.0312,0.0312 0.0505,0.0743 0.0505,0.1219c0,0.0476 -0.0193,0.0907 -0.0505,0.122c-0.0312,0.0312 -0.0744,0.0505 -0.122,0.0505c-0.0476,0 -0.0907,-0.0193 -0.1219,-0.0505c-0.0312,-0.0313 -0.0506,-0.0744 -0.0506,-0.122c0,-0.0476 0.0194,-0.0907 0.0506,-0.1219c0.0312,-0.0312 0.0743,-0.0506 0.1219,-0.0506z"/><path d="M389.78653,230.71601c0.0476,0 0.0907,0.0194 0.122,0.0506c0.0312,0.0312 0.0505,0.0743 0.0505,0.1219c0,0.0476 -0.0193,0.0907 -0.0505,0.122c-0.0313,0.0312 -0.0744,0.0505 -0.122,0.0505c-0.0476,0 -0.0907,-0.0193 -0.1219,-0.0505c-0.0312,-0.0313 -0.0506,-0.0744 -0.0506,-0.122c0,-0.0476 0.0194,-0.0907 0.0506,-0.1219c0.0312,-0.0312 0.0743,-0.0506 0.1219,-0.0506z"/><path d="M390.39033,230.71601c0.0476,0 0.0907,0.0194 0.1219,0.0506c0.0312,0.0312 0.0506,0.0743 0.0506,0.1219c0,0.0476 -0.0194,0.0907 -0.0506,0.122c-0.0312,0.0312 -0.0743,0.0505 -0.1219,0.0505c-0.0476,0 -0.0908,-0.0193 -0.122,-0.0505c-0.0312,-0.0313 -0.0505,-0.0744 -0.0505,-0.122c0,-0.0476 0.0193,-0.0907 0.0505,-0.1219c0.0312,-0.0312 0.0744,-0.0506 0.122,-0.0506z"/><path d="M391.03713,230.71601c0.0476,0 0.0908,0.0194 0.122,0.0506c0.0312,0.0312 0.0505,0.0743 0.0505,0.1219c0,0.0476 -0.0193,0.0907 -0.0505,0.122c-0.0312,0.0312 -0.0744,0.0505 -0.122,0.0505c-0.0476,0 -0.0907,-0.0193 -0.1219,-0.0505c-0.0312,-0.0313 -0.0506,-0.0744 -0.0506,-0.122c0,-0.0476 0.0194,-0.0907 0.0506,-0.1219c0.0312,-0.0312 0.0743,-0.0506 0.1219,-0.0506z"/><path d="M386.63843,231.27661c0.0476,0 0.0907,0.0194 0.1219,0.0506c0.0312,0.0312 0.0506,0.0744 0.0506,0.1219c0,0.0476 -0.0194,0.0908 -0.0506,0.122c-0.0312,0.0312 -0.0743,0.0505 -0.1219,0.0505c-0.0476,0 -0.0907,-0.0193 -0.1219,-0.0505c-0.0313,-0.0312 -0.0506,-0.0744 -0.0506,-0.122c0,-0.0475 0.0193,-0.0907 0.0506,-0.1219c0.0312,-0.0312 0.0743,-0.0506 0.1219,-0.0506z"/><path d="M387.28533,231.27661c0.0476,0 0.0907,0.0194 0.1219,0.0506c0.0312,0.0312 0.0506,0.0744 0.0506,0.1219c0,0.0476 -0.0194,0.0908 -0.0506,0.122c-0.0312,0.0312 -0.0743,0.0505 -0.1219,0.0505c-0.0476,0 -0.0908,-0.0193 -0.122,-0.0505c-0.0312,-0.0312 -0.0505,-0.0744 -0.0505,-0.122c0,-0.0475 0.0193,-0.0907 0.0505,-0.1219c0.0312,-0.0312 0.0744,-0.0506 0.122,-0.0506z"/><path d="M387.88903,231.27661c0.0476,0 0.0907,0.0194 0.122,0.0506c0.0312,0.0312 0.0505,0.0744 0.0505,0.1219c0,0.0476 -0.0193,0.0908 -0.0505,0.122c-0.0313,0.0312 -0.0744,0.0505 -0.122,0.0505c-0.0476,0 -0.0907,-0.0193 -0.1219,-0.0505c-0.0312,-0.0312 -0.0506,-0.0744 -0.0506,-0.122c0,-0.0475 0.0194,-0.0907 0.0506,-0.1219c0.0312,-0.0312 0.0743,-0.0506 0.1219,-0.0506z"/><path d="M388.53593,231.27661c0.0476,0 0.0907,0.0194 0.1219,0.0506c0.0312,0.0312 0.0506,0.0744 0.0506,0.1219c0,0.0476 -0.0194,0.0908 -0.0506,0.122c-0.0312,0.0312 -0.0743,0.0505 -0.1219,0.0505c-0.0476,0 -0.0907,-0.0193 -0.1219,-0.0505c-0.0313,-0.0312 -0.0506,-0.0744 -0.0506,-0.122c0,-0.0475 0.0193,-0.0907 0.0506,-0.1219c0.0312,-0.0312 0.0743,-0.0506 0.1219,-0.0506z"/><path d="M389.13963,231.27661c0.0476,0 0.0908,0.0194 0.122,0.0506c0.0312,0.0312 0.0505,0.0744 0.0505,0.1219c0,0.0476 -0.0193,0.0908 -0.0505,0.122c-0.0312,0.0312 -0.0744,0.0505 -0.122,0.0505c-0.0476,0 -0.0907,-0.0193 -0.1219,-0.0505c-0.0312,-0.0312 -0.0506,-0.0744 -0.0506,-0.122c0,-0.0475 0.0194,-0.0907 0.0506,-0.1219c0.0312,-0.0312 0.0743,-0.0506 0.1219,-0.0506z"/><path d="M389.78653,231.27661c0.0476,0 0.0907,0.0194 0.122,0.0506c0.0312,0.0312 0.0505,0.0744 0.0505,0.1219c0,0.0476 -0.0193,0.0908 -0.0505,0.122c-0.0313,0.0312 -0.0744,0.0505 -0.122,0.0505c-0.0476,0 -0.0907,-0.0193 -0.1219,-0.0505c-0.0312,-0.0312 -0.0506,-0.0744 -0.0506,-0.122c0,-0.0475 0.0194,-0.0907 0.0506,-0.1219c0.0312,-0.0312 0.0743,-0.0506 0.1219,-0.0506z"/><path d="M390.39033,231.27661c0.0476,0 0.0907,0.0194 0.1219,0.0506c0.0312,0.0312 0.0506,0.0744 0.0506,0.1219c0,0.0476 -0.0194,0.0908 -0.0506,0.122c-0.0312,0.0312 -0.0743,0.0505 -0.1219,0.0505c-0.0476,0 -0.0908,-0.0193 -0.122,-0.0505c-0.0312,-0.0312 -0.0505,-0.0744 -0.0505,-0.122c0,-0.0475 0.0193,-0.0907 0.0505,-0.1219c0.0312,-0.0312 0.0744,-0.0506 0.122,-0.0506z"/><path d="M391.03713,231.27661c0.0476,0 0.0908,0.0194 0.122,0.0506c0.0312,0.0312 0.0505,0.0744 0.0505,0.1219c0,0.0476 -0.0193,0.0908 -0.0505,0.122c-0.0312,0.0312 -0.0744,0.0505 -0.122,0.0505c-0.0476,0 -0.0907,-0.0193 -0.1219,-0.0505c-0.0312,-0.0312 -0.0506,-0.0744 -0.0506,-0.122c0,-0.0475 0.0194,-0.0907 0.0506,-0.1219c0.0312,-0.0312 0.0743,-0.0506 0.1219,-0.0506z"/><path d="M386.63843,253.35661c0.0476,0 0.0907,0.0194 0.1219,0.0506c0.0312,0.0312 0.0506,0.0744 0.0506,0.1219c0,0.0476 -0.0194,0.0908 -0.0506,0.122c-0.0312,0.0312 -0.0743,0.0505 -0.1219,0.0505c-0.0476,0 -0.0907,-0.0193 -0.1219,-0.0505c-0.0313,-0.0312 -0.0506,-0.0744 -0.0506,-0.122c0,-0.0475 0.0193,-0.0907 0.0506,-0.1219c0.0312,-0.0312 0.0743,-0.0506 0.1219,-0.0506z"/><path d="M387.28533,253.35661c0.0476,0 0.0907,0.0194 0.1219,0.0506c0.0312,0.0312 0.0506,0.0744 0.0506,0.1219c0,0.0476 -0.0194,0.0908 -0.0506,0.122c-0.0312,0.0312 -0.0743,0.0505 -0.1219,0.0505c-0.0476,0 -0.0908,-0.0193 -0.122,-0.0505c-0.0312,-0.0312 -0.0505,-0.0744 -0.0505,-0.122c0,-0.0475 0.0193,-0.0907 0.0505,-0.1219c0.0312,-0.0312 0.0744,-0.0506 0.122,-0.0506z"/><path d="M387.88903,253.35661c0.0476,0 0.0907,0.0194 0.122,0.0506c0.0312,0.0312 0.0505,0.0744 0.0505,0.1219c0,0.0476 -0.0193,0.0908 -0.0505,0.122c-0.0313,0.0312 -0.0744,0.0505 -0.122,0.0505c-0.0476,0 -0.0907,-0.0193 -0.1219,-0.0505c-0.0312,-0.0312 -0.0506,-0.0744 -0.0506,-0.122c0,-0.0475 0.0194,-0.0907 0.0506,-0.1219c0.0312,-0.0312 0.0743,-0.0506 0.1219,-0.0506z"/><path d="M388.53593,253.35661c0.0476,0 0.0907,0.0194 0.1219,0.0506c0.0312,0.0312 0.0506,0.0744 0.0506,0.1219c0,0.0476 -0.0194,0.0908 -0.0506,0.122c-0.0312,0.0312 -0.0743,0.0505 -0.1219,0.0505c-0.0476,0 -0.0907,-0.0193 -0.1219,-0.0505c-0.0313,-0.0312 -0.0506,-0.0744 -0.0506,-0.122c0,-0.0475 0.0193,-0.0907 0.0506,-0.1219c0.0312,-0.0312 0.0743,-0.0506 0.1219,-0.0506z"/><path d="M389.13963,253.35661c0.0476,0 0.0908,0.0194 0.122,0.0506c0.0312,0.0312 0.0505,0.0744 0.0505,0.1219c0,0.0476 -0.0193,0.0908 -0.0505,0.122c-0.0312,0.0312 -0.0744,0.0505 -0.122,0.0505c-0.0476,0 -0.0907,-0.0193 -0.1219,-0.0505c-0.0312,-0.0312 -0.0506,-0.0744 -0.0506,-0.122c0,-0.0475 0.0194,-0.0907 0.0506,-0.1219c0.0312,-0.0312 0.0743,-0.0506 0.1219,-0.0506z"/><path d="M389.78653,253.35661c0.0476,0 0.0907,0.0194 0.122,0.0506c0.0312,0.0312 0.0505,0.0744 0.0505,0.1219c0,0.0476 -0.0193,0.0908 -0.0505,0.122c-0.0313,0.0312 -0.0744,0.0505 -0.122,0.0505c-0.0476,0 -0.0907,-0.0193 -0.1219,-0.0505c-0.0312,-0.0312 -0.0506,-0.0744 -0.0506,-0.122c0,-0.0475 0.0194,-0.0907 0.0506,-0.1219c0.0312,-0.0312 0.0743,-0.0506 0.1219,-0.0506z"/><path d="M390.39033,253.35661c0.0476,0 0.0907,0.0194 0.1219,0.0506c0.0312,0.0312 0.0506,0.0744 0.0506,0.1219c0,0.0476 -0.0194,0.0908 -0.0506,0.122c-0.0312,0.0312 -0.0743,0.0505 -0.1219,0.0505c-0.0476,0 -0.0908,-0.0193 -0.122,-0.0505c-0.0312,-0.0312 -0.0505,-0.0744 -0.0505,-0.122c0,-0.0475 0.0193,-0.0907 0.0505,-0.1219c0.0312,-0.0312 0.0744,-0.0506 0.122,-0.0506z"/><path d="M391.03713,253.35661c0.0476,0 0.0908,0.0194 0.122,0.0506c0.0312,0.0312 0.0505,0.0744 0.0505,0.1219c0,0.0476 -0.0193,0.0908 -0.0505,0.122c-0.0312,0.0312 -0.0744,0.0505 -0.122,0.0505c-0.0476,0 -0.0907,-0.0193 -0.1219,-0.0505c-0.0312,-0.0312 -0.0506,-0.0744 -0.0506,-0.122c0,-0.0475 0.0194,-0.0907 0.0506,-0.1219c0.0312,-0.0312 0.0743,-0.0506 0.1219,-0.0506z"/><path d="M386.63843,253.87411c0.0476,0 0.0907,0.0194 0.1219,0.0506c0.0312,0.0312 0.0506,0.0744 0.0506,0.1219c0,0.0476 -0.0194,0.0908 -0.0506,0.122c-0.0312,0.0312 -0.0743,0.0505 -0.1219,0.0505c-0.0476,0 -0.0907,-0.0193 -0.1219,-0.0505c-0.0313,-0.0312 -0.0506,-0.0744 -0.0506,-0.122c0,-0.0475 0.0193,-0.0907 0.0506,-0.1219c0.0312,-0.0312 0.0743,-0.0506 0.1219,-0.0506z"/><path d="M387.28533,253.87411c0.0476,0 0.0907,0.0194 0.1219,0.0506c0.0312,0.0312 0.0506,0.0744 0.0506,0.1219c0,0.0476 -0.0194,0.0908 -0.0506,0.122c-0.0312,0.0312 -0.0743,0.0505 -0.1219,0.0505c-0.0476,0 -0.0908,-0.0193 -0.122,-0.0505c-0.0312,-0.0312 -0.0505,-0.0744 -0.0505,-0.122c0,-0.0475 0.0193,-0.0907 0.0505,-0.1219c0.0312,-0.0312 0.0744,-0.0506 0.122,-0.0506z"/><path d="M387.88903,253.87411c0.0476,0 0.0907,0.0194 0.122,0.0506c0.0312,0.0312 0.0505,0.0744 0.0505,0.1219c0,0.0476 -0.0193,0.0908 -0.0505,0.122c-0.0313,0.0312 -0.0744,0.0505 -0.122,0.0505c-0.0476,0 -0.0907,-0.0193 -0.1219,-0.0505c-0.0312,-0.0312 -0.0506,-0.0744 -0.0506,-0.122c0,-0.0475 0.0194,-0.0907 0.0506,-0.1219c0.0312,-0.0312 0.0743,-0.0506 0.1219,-0.0506z"/><path d="M388.53593,253.87411c0.0476,0 0.0907,0.0194 0.1219,0.0506c0.0312,0.0312 0.0506,0.0744 0.0506,0.1219c0,0.0476 -0.0194,0.0908 -0.0506,0.122c-0.0312,0.0312 -0.0743,0.0505 -0.1219,0.0505c-0.0476,0 -0.0907,-0.0193 -0.1219,-0.0505c-0.0313,-0.0312 -0.0506,-0.0744 -0.0506,-0.122c0,-0.0475 0.0193,-0.0907 0.0506,-0.1219c0.0312,-0.0312 0.0743,-0.0506 0.1219,-0.0506z"/><path d="M389.13963,253.87411c0.0476,0 0.0908,0.0194 0.122,0.0506c0.0312,0.0312 0.0505,0.0744 0.0505,0.1219c0,0.0476 -0.0193,0.0908 -0.0505,0.122c-0.0312,0.0312 -0.0744,0.0505 -0.122,0.0505c-0.0476,0 -0.0907,-0.0193 -0.1219,-0.0505c-0.0312,-0.0312 -0.0506,-0.0744 -0.0506,-0.122c0,-0.0475 0.0194,-0.0907 0.0506,-0.1219c0.0312,-0.0312 0.0743,-0.0506 0.1219,-0.0506z"/><path d="M389.78653,253.87411c0.0476,0 0.0907,0.0194 0.122,0.0506c0.0312,0.0312 0.0505,0.0744 0.0505,0.1219c0,0.0476 -0.0193,0.0908 -0.0505,0.122c-0.0313,0.0312 -0.0744,0.0505 -0.122,0.0505c-0.0476,0 -0.0907,-0.0193 -0.1219,-0.0505c-0.0312,-0.0312 -0.0506,-0.0744 -0.0506,-0.122c0,-0.0475 0.0194,-0.0907 0.0506,-0.1219c0.0312,-0.0312 0.0743,-0.0506 0.1219,-0.0506z"/><path d="M390.39033,253.87411c0.0476,0 0.0907,0.0194 0.1219,0.0506c0.0312,0.0312 0.0506,0.0744 0.0506,0.1219c0,0.0476 -0.0194,0.0908 -0.0506,0.122c-0.0312,0.0312 -0.0743,0.0505 -0.1219,0.0505c-0.0476,0 -0.0908,-0.0193 -0.122,-0.0505c-0.0312,-0.0312 -0.0505,-0.0744 -0.0505,-0.122c0,-0.0475 0.0193,-0.0907 0.0505,-0.1219c0.0312,-0.0312 0.0744,-0.0506 0.122,-0.0506z"/><path d="M391.03713,253.87411c0.0476,0 0.0908,0.0194 0.122,0.0506c0.0312,0.0312 0.0505,0.0744 0.0505,0.1219c0,0.0476 -0.0193,0.0908 -0.0505,0.122c-0.0312,0.0312 -0.0744,0.0505 -0.122,0.0505c-0.0476,0 -0.0907,-0.0193 -0.1219,-0.0505c-0.0312,-0.0312 -0.0506,-0.0744 -0.0506,-0.122c0,-0.0475 0.0194,-0.0907 0.0506,-0.1219c0.0312,-0.0312 0.0743,-0.0506 0.1219,-0.0506z"/><path d="M386.63843,254.43481c0.0476,0 0.0907,0.0193 0.1219,0.0505c0.0312,0.0313 0.0506,0.0744 0.0506,0.122c0,0.0476 -0.0194,0.0907 -0.0506,0.1219c-0.0312,0.0312 -0.0743,0.0506 -0.1219,0.0506c-0.0476,0 -0.0907,-0.0194 -0.1219,-0.0506c-0.0313,-0.0312 -0.0506,-0.0743 -0.0506,-0.1219c0,-0.0476 0.0193,-0.0907 0.0506,-0.122c0.0312,-0.0312 0.0743,-0.0505 0.1219,-0.0505z"/><path d="M387.28533,254.43481c0.0476,0 0.0907,0.0193 0.1219,0.0505c0.0312,0.0313 0.0506,0.0744 0.0506,0.122c0,0.0476 -0.0194,0.0907 -0.0506,0.1219c-0.0312,0.0312 -0.0743,0.0506 -0.1219,0.0506c-0.0476,0 -0.0908,-0.0194 -0.122,-0.0506c-0.0312,-0.0312 -0.0505,-0.0743 -0.0505,-0.1219c0,-0.0476 0.0193,-0.0907 0.0505,-0.122c0.0312,-0.0312 0.0744,-0.0505 0.122,-0.0505z"/><path d="M387.88903,254.43481c0.0476,0 0.0907,0.0193 0.122,0.0505c0.0312,0.0313 0.0505,0.0744 0.0505,0.122c0,0.0476 -0.0193,0.0907 -0.0505,0.1219c-0.0313,0.0312 -0.0744,0.0506 -0.122,0.0506c-0.0476,0 -0.0907,-0.0194 -0.1219,-0.0506c-0.0312,-0.0312 -0.0506,-0.0743 -0.0506,-0.1219c0,-0.0476 0.0194,-0.0907 0.0506,-0.122c0.0312,-0.0312 0.0743,-0.0505 0.1219,-0.0505z"/><path d="M388.53593,254.43481c0.0476,0 0.0907,0.0193 0.1219,0.0505c0.0312,0.0313 0.0506,0.0744 0.0506,0.122c0,0.0476 -0.0194,0.0907 -0.0506,0.1219c-0.0312,0.0312 -0.0743,0.0506 -0.1219,0.0506c-0.0476,0 -0.0907,-0.0194 -0.1219,-0.0506c-0.0313,-0.0312 -0.0506,-0.0743 -0.0506,-0.1219c0,-0.0476 0.0193,-0.0907 0.0506,-0.122c0.0312,-0.0312 0.0743,-0.0505 0.1219,-0.0505z"/><path d="M389.13963,254.43481c0.0476,0 0.0908,0.0193 0.122,0.0505c0.0312,0.0313 0.0505,0.0744 0.0505,0.122c0,0.0476 -0.0193,0.0907 -0.0505,0.1219c-0.0312,0.0312 -0.0744,0.0506 -0.122,0.0506c-0.0476,0 -0.0907,-0.0194 -0.1219,-0.0506c-0.0312,-0.0312 -0.0506,-0.0743 -0.0506,-0.1219c0,-0.0476 0.0194,-0.0907 0.0506,-0.122c0.0312,-0.0312 0.0743,-0.0505 0.1219,-0.0505z"/><path d="M389.78653,254.43481c0.0476,0 0.0907,0.0193 0.122,0.0505c0.0312,0.0313 0.0505,0.0744 0.0505,0.122c0,0.0476 -0.0193,0.0907 -0.0505,0.1219c-0.0313,0.0312 -0.0744,0.0506 -0.122,0.0506c-0.0476,0 -0.0907,-0.0194 -0.1219,-0.0506c-0.0312,-0.0312 -0.0506,-0.0743 -0.0506,-0.1219c0,-0.0476 0.0194,-0.0907 0.0506,-0.122c0.0312,-0.0312 0.0743,-0.0505 0.1219,-0.0505z"/><path d="M390.39033,254.43481c0.0476,0 0.0907,0.0193 0.1219,0.0505c0.0312,0.0313 0.0506,0.0744 0.0506,0.122c0,0.0476 -0.0194,0.0907 -0.0506,0.1219c-0.0312,0.0312 -0.0743,0.0506 -0.1219,0.0506c-0.0476,0 -0.0908,-0.0194 -0.122,-0.0506c-0.0312,-0.0312 -0.0505,-0.0743 -0.0505,-0.1219c0,-0.0476 0.0193,-0.0907 0.0505,-0.122c0.0312,-0.0312 0.0744,-0.0505 0.122,-0.0505z"/><path d="M391.03713,254.43481c0.0476,0 0.0908,0.0193 0.122,0.0505c0.0312,0.0313 0.0505,0.0744 0.0505,0.122c0,0.0476 -0.0193,0.0907 -0.0505,0.1219c-0.0312,0.0312 -0.0744,0.0506 -0.122,0.0506c-0.0476,0 -0.0907,-0.0194 -0.1219,-0.0506c-0.0312,-0.0312 -0.0506,-0.0743 -0.0506,-0.1219c0,-0.0476 0.0194,-0.0907 0.0506,-0.122c0.0312,-0.0312 0.0743,-0.0505 0.1219,-0.0505z"/></g><path d="M394.09903,230.67291c0,0.345 -0.2587,0.7762 -0.6037,0.7762c-0.345,0 -0.6038,-0.4743 -0.6038,-0.7762c0,-0.3019 0.2588,-0.6038 0.6038,-0.6038c0.345,0 0.6037,0.2588 0.6037,0.6038z" fill="#93b5c1"/><path d="M392.89153,230.67291c0,-0.345 0.2588,-0.7331 0.6038,-0.7331c0.345,0 0.6037,0.3881 0.6037,0.7331" fill="#dff1f7"/><path d="M393.49533,230.06911c0.1665,0 0.3175,0.0677 0.4267,0.177c0.1094,0.1093 0.177,0.2602 0.177,0.4268c0,0.1666 -0.0676,0.3175 -0.177,0.4268c-0.1092,0.1093 -0.2602,0.1769 -0.4267,0.1769c-0.1666,0 -0.3175,-0.0676 -0.4268,-0.1769c-0.1093,-0.1093 -0.177,-0.2602 -0.177,-0.4268c0,-0.1666 0.0677,-0.3175 0.177,-0.4268c0.1093,-0.1093 0.2602,-0.177 0.4268,-0.177z" fill="#00233f"/><path d="M393.49533,230.28481c0.107,0 0.2041,0.0435 0.2744,0.1137c0.0702,0.0703 0.1137,0.1673 0.1137,0.2744c0,0.1071 -0.0435,0.2041 -0.1137,0.2744c-0.0703,0.0702 -0.1674,0.1137 -0.2744,0.1137c-0.1071,0 -0.2041,-0.0435 -0.2744,-0.1137c-0.0703,-0.0703 -0.1138,-0.1673 -0.1138,-0.2744c0,-0.1071 0.0435,-0.2041 0.1138,-0.2744c0.0703,-0.0702 0.1673,-0.1137 0.2744,-0.1137z" fill="#2e79a3"/><path d="M393.23653,230.41411c0.1725,-0.1725 0.4313,-0.1725 0.5606,0c0.1725,0.1725 0.1725,0.4313 0,0.5607" fill="#225a7f"/><g fill="#53acd3"><path d="M393.27963,230.54351c0.0238,0 0.0454,0.0097 0.061,0.0253c0.0156,0.0156 0.0253,0.0372 0.0253,0.061c0,0.0237 -0.0097,0.0453 -0.0253,0.0609c-0.0156,0.0157 -0.0372,0.0253 -0.061,0.0253c-0.0237,0 -0.0453,-0.0096 -0.0609,-0.0253c-0.0157,-0.0156 -0.0253,-0.0372 -0.0253,-0.0609c0,-0.0238 0.0096,-0.0454 0.0253,-0.061c0.0156,-0.0156 0.0372,-0.0253 0.0609,-0.0253z"/><path d="M393.62463,230.80231c0.0238,0 0.0454,0.0096 0.061,0.0253c0.0156,0.0156 0.0253,0.0372 0.0253,0.0609c0,0.0238 -0.0097,0.0454 -0.0253,0.061c-0.0156,0.0156 -0.0372,0.0253 -0.061,0.0253c-0.0237,0 -0.0453,-0.0097 -0.0609,-0.0253c-0.0157,-0.0156 -0.0253,-0.0372 -0.0253,-0.061c0,-0.0237 0.0096,-0.0453 0.0253,-0.0609c0.0156,-0.0157 0.0372,-0.0253 0.0609,-0.0253z"/></g><path d="M382.80033,251.11411h12.075v1.725h-12.075z" fill="#ed900a"/><path d="M385.38783,230.84541c0,0.2587 -0.1725,0.4312 -0.345,0.4312h-1.4232c-0.2156,0 -0.3881,-0.1725 -0.3881,-0.4312v0c0,-0.2588 0.1725,-0.4313 0.345,-0.4313h1.4231c0.2157,0 0.3882,0.1725 0.3882,0.4313z" fill="#094670"/><path d="M383.66283,230.50041c0.0595,0 0.1134,0.0241 0.1524,0.0632c0.039,0.039 0.0632,0.0929 0.0632,0.1524c0,0.0595 -0.0242,0.1134 -0.0632,0.1525c-0.039,0.039 -0.0929,0.0631 -0.1524,0.0631c-0.0595,0 -0.1135,-0.0241 -0.1525,-0.0631c-0.039,-0.0391 -0.0632,-0.093 -0.0632,-0.1525c0,-0.0595 0.0242,-0.1134 0.0632,-0.1524c0.039,-0.0391 0.093,-0.0632 0.1525,-0.0632z" fill="#27d68a"/><path d="M383.66283,230.50041c0.1293,0 0.2156,0.0862 0.2156,0.2156c0,0.1294 -0.0863,0.2156 -0.2156,0.2156" fill="#15af83"/><path d="M383.57653,230.62981c0,0.0431 -0.0431,0.0431 -0.0862,0.0431c-0.0432,0 -0.0432,-0.0431 -0.0432,-0.0863c0,-0.0431 0.0432,-0.0431 0.0432,-0.0431c0.0862,0.0431 0.0862,0.0863 0.0862,0.0863z" fill="#cfffef"/></g></g></g></svg>