<svg xmlns="http://www.w3.org/2000/svg" xmlns:xlink="http://www.w3.org/1999/xlink" version="1.1" width="122.98862206935883" height="183.91851556301117" viewBox="0.38320380449295044 0.48488205671310425 122.98862206935883 183.91851556301117">
  <!-- Exported by Scratch - http://scratch.mit.edu/ -->
  <path id="ID0.7857112172059715" fill="#F6DEBF" stroke="#000000" stroke-width="0.7786492325266536" stroke-linecap="round" d="M 29.0386 149.0193 C 29.4669 149.0951 28.9105 150.4285 28.9235 151.1404 C 28.962 151.7158 28.7498 152.6287 29.1927 152.8667 C 29.6207 153.0964 30.3245 152.4636 30.7011 152.0298 C 31.297 151.3429 31.5833 150.5066 31.9523 149.7111 C 32.2665 149.034 32.2442 148.1313 32.8147 147.636 C 33.1526 147.3161 33.8036 147.9377 34.2188 147.6774 C 34.5649 147.4587 34.6011 146.889 34.5407 146.4896 C 34.4253 145.7293 34.0981 145.0035 33.6512 144.3571 C 32.6827 142.9574 31.3587 141.7869 30.3144 140.4852 C 29.6012 139.5657 29.1214 138.5483 28.3803 137.6947 C 27.7948 137.0211 27.1783 136.2552 26.3619 135.853 C 25.8417 135.5983 25.0164 135.3886 24.6439 135.8146 C 24.2428 136.2696 24.4331 137.1065 24.7225 137.6425 C 25.2604 138.6384 26.8973 139.1416 27.0631 140.1846 C 27.1538 140.7767 25.8477 140.6233 25.2488 140.8506 C 24.0551 141.3196 22.8092 141.7097 21.6402 142.2532 C 21.2676 142.4267 20.6628 142.6126 20.6046 143.0421 C 20.5397 143.5312 20.8715 144.3048 21.3703 144.3323 C 23.0634 144.4264 25.7182 143.0586 26.3389 143.4222 C 26.8379 143.7115 24.644 144.9057 23.8475 145.6722 C 23.3368 146.1982 22.8267 146.704 22.4191 147.2971 C 22.1033 147.7572 21.6236 148.2113 21.6377 148.7485 C 21.6761 149.1675 22.152 149.729 22.5456 149.5978 C 24.1027 149.0792 26.2782 146.857 26.8402 147.0474 C 27.3838 147.2325 25.5625 149.3438 25.0352 150.5432 C 24.8946 150.8628 24.7118 151.2702 24.8346 151.6204 C 24.9493 151.8742 25.3414 152.1133 25.6126 152.0106 C 26.171 151.7982 26.5253 151.1601 27.001 150.7498 C 27.6695 150.1794 28.4872 148.9222 29.0386 149.0193 Z "/>
  <path id="ID0.7857112172059715" fill="#F6DEBF" stroke="#000000" stroke-width="0.7786492504066931" stroke-linecap="round" d="M 103.6551 121.7759 C 103.5552 122.1992 104.9999 122.2159 105.6486 122.5096 C 106.1618 122.7726 107.0841 122.9389 107.1275 123.4399 C 107.169 123.9238 106.3094 124.3198 105.762 124.494 C 104.8954 124.7694 104.014 124.7014 103.1374 124.7256 C 102.3912 124.7462 101.571 124.3684 100.8905 124.6964 C 100.463 124.8801 100.7762 125.724 100.3728 126.0023 C 100.0351 126.2336 99.4976 126.0414 99.1546 125.8279 C 98.5021 125.4211 97.965 124.8333 97.5482 124.1671 C 96.646 122.7238 96.095 121.0447 95.3128 119.5706 C 94.7505 118.5517 94.006 117.7085 93.5153 116.6901 C 93.1283 115.8859 92.6689 115.0166 92.6227 114.1077 C 92.5946 113.5292 92.7286 112.6882 93.2672 112.5147 C 93.8437 112.3264 94.537 112.8323 94.9148 113.3102 C 95.6165 114.1983 95.431 115.9007 96.3232 116.4657 C 96.8311 116.7833 97.207 115.5231 97.6527 115.063 C 98.5558 114.1524 99.4071 113.1625 100.3688 112.304 C 100.6756 112.0305 101.0856 111.5485 101.5032 111.6652 C 101.978 111.7991 102.5572 112.4099 102.385 112.8788 C 101.8015 114.4709 99.4948 116.3678 99.5831 117.0818 C 99.6513 117.6545 101.6162 116.1122 102.6353 115.6841 C 103.3204 115.4232 103.9868 115.1548 104.6928 115.0152 C 105.2404 114.9073 105.8472 114.6464 106.3349 114.8719 C 106.7046 115.073 107.0319 115.7323 106.7557 116.0418 C 105.6632 117.2666 102.7615 118.3852 102.714 118.9767 C 102.6689 119.5491 105.3286 118.7119 106.6387 118.7023 C 106.9879 118.6997 107.4344 118.693 107.7074 118.9443 C 107.8951 119.1501 107.9595 119.6048 107.7579 119.8132 C 107.3419 120.242 106.6157 120.3148 106.0506 120.5894 C 105.2622 120.9776 103.7841 121.2311 103.6551 121.7759 Z "/>
  <path id="ID0.7580867386423051" fill="#F6DEBF" stroke="#000000" stroke-width="1.774609923362732" stroke-linecap="round" d="M 12.5455 71.0945 C 10.4911 69.6677 7.3932 70.1504 5.0034 70.9466 C 3.4998 71.4483 2.8053 73.3323 2.1936 74.7916 C 1.5483 76.3486 1.1443 78.4243 1.3063 80.4112 C 1.4507 81.8942 2.1238 83.3334 3.0809 84.8478 C 4.0404 86.3378 5.4252 87.596 6.9259 88.5449 C 8.0564 89.2559 9.2453 89.6244 10.4752 89.7279 C 11.8883 89.8374 13.2311 89.5718 14.468 89.1364 C 15.5003 88.7661 16.3533 86.8531 17.1299 87.3618 C 18.4059 88.242 18.0078 90.5111 18.7567 91.9462 C 20.342 94.982 22.1763 97.9136 24.3763 100.5235 C 27.134 103.8018 30.1083 107.1576 33.8409 109.3965 C 38.2176 112.2631 43.2481 114.1057 48.3335 115.6077 C 52.3009 116.7783 55.7307 117.2302 60.6079 117.5302 C 64.3239 117.7265 67.097 117.2758 70.2204 116.495 C 73.8494 115.5875 75.7335 114.8085 80.7201 112.5021 C 83.76 111.0487 85.3939 109.5255 87.3749 107.6219 C 88.7792 106.2708 89.6908 105.0079 90.9241 103.1854 C 92.0031 100.9624 92.497 98.5862 93.2903 96.3827 C 93.6381 95.2434 93.1702 93.6392 94.1776 92.8335 C 95.2926 92.0255 96.3503 92.704 97.431 92.8335 C 98.7206 92.704 99.7292 92.9074 101.276 92.8335 C 103.2453 92.7181 105.302 92.6963 107.1914 92.0941 C 108.969 91.5114 110.5058 90.6578 111.7758 89.4322 C 113.8296 87.4481 115.9846 85.121 117.0996 82.3337 C 118.1301 79.8587 119.0618 76.8129 117.9869 74.2001 C 116.9908 71.7884 114.1609 69.8464 111.6279 69.6157 C 108.837 69.3803 106.436 71.634 104.0858 73.017 C 102.142 74.1545 100.3657 77.7777 98.9099 77.3057 C 97.3157 76.6786 98.1645 73.0691 98.0226 71.0945 C 97.8043 68.3948 97.9457 65.7447 97.5789 63.1088 C 97.3802 61.6684 97.6712 59.7932 96.662 58.761 C 94.1439 56.5327 90.8946 55.1361 87.789 54.0583 C 79.6264 51.223 71.3762 47.4934 62.7374 47.2852 C 56.2696 47.1302 50.9422 53.1355 44.8139 52.8456 C 40.3271 52.7593 36.9991 48.6327 33.5451 46.25 C 31.8758 45.0953 30.782 42.8285 28.8128 42.405 C 27.8989 42.2104 27.7965 44.1116 27.6297 45.0669 C 27.2884 47.1509 27.6569 49.3976 27.3339 51.5738 C 26.6685 55.0349 25.9403 58.5427 24.672 61.9257 C 23.6404 64.6799 21.8315 67.0685 20.3834 69.6157 C 19.9817 70.3397 19.1595 70.9928 19.2003 71.8339 C 19.292 73.883 21.4683 75.8818 20.827 77.8972 C 20.3219 79.185 17.7901 79.9871 16.6863 79.0803 C 14.3651 77.1909 15.0241 72.8567 12.5455 71.0945 Z "/>
  <path id="ID0.7462119464762509" fill="#000000" stroke="none" d="M 50.1433 151.9414 C 51.0815 151.9414 51.9321 152.223 52.5479 152.6784 C 53.1637 153.1333 53.5446 153.7616 53.5446 154.4554 C 53.5446 155.1493 53.1637 155.7775 52.5479 156.2324 C 51.9321 156.6879 51.0815 156.9695 50.1433 156.9695 C 49.2051 156.9695 48.3545 156.6879 47.7387 156.2324 C 47.1229 155.7775 46.742 155.1493 46.742 154.4554 C 46.742 153.7616 47.1229 153.1333 47.7387 152.6784 C 48.3545 152.223 49.2051 151.9414 50.1433 151.9414 Z " stroke-width="0.5915366411209106"/>
  <path id="ID0.9240895360708237" fill="#666666" stroke="#000000" stroke-width="1.774609923362732" stroke-linecap="round" d="M 16.4475 79.6649 C 16.9817 80.1955 17.9678 79.3946 18.6658 79.2213 C 19.4531 78.9 20.8468 78.9113 20.8841 78.1861 C 20.9633 75.788 18.9042 73.4348 19.1094 71.2355 C 19.2526 69.7543 20.8557 68.7641 21.6235 67.5384 C 22.7782 65.51 23.8589 63.6822 24.8769 61.4752 C 25.7003 59.6769 26.3321 57.7254 26.7994 55.8556 C 27.2224 54.0153 27.3921 52.2158 27.5388 50.3838 C 27.7447 47.7941 26.8249 44.1839 28.1304 42.6939 C 31.5222 45.1026 31.4513 47.5876 32.8922 49.0825 C 34.8585 51.1233 36.9668 53.9591 39.6949 54.1105 C 47.5221 54.5447 55.4759 49.1688 63.0015 50.7979 C 67.7456 51.826 68.5365 59.9656 73.235 61.1794 C 76.9665 62.1454 79.5657 55.5391 83.3503 55.6781 C 88.4718 56.0928 93.6939 58.9877 97.0444 62.6582 C 99.1497 64.9634 97.7566 68.854 98.0796 71.9749 C 98.2529 73.6519 97.5513 76.1133 98.6711 77.003 C 99.6543 77.7306 101.3159 76.1476 102.3682 75.3763 C 103.7714 74.3458 104.4297 72.8007 106.0653 71.6792 C 107.2242 70.8764 108.6143 70.46 109.9103 69.9046 C 111.0283 69.4254 111.8985 70.1702 113.3117 68.5736 C 116.7887 64.5405 120.2362 60.0921 121.7411 54.9683 C 123.1264 50.2431 122.2444 45.0594 121.7411 40.1798 C 121.437 37.4002 120.3805 34.9731 119.3749 32.4899 C 118.0516 29.2258 116.8952 25.466 114.4947 22.6112 C 110.0765 17.3075 105.3377 11.9487 99.2035 8.3552 C 93.3503 4.9278 86.3104 3.7394 79.7124 2.4398 C 74.6819 1.4194 69.4232 1.2573 64.5099 1.4342 C 58.662 1.646 52.7578 2.1221 47.0596 3.5046 C 40.4604 5.1053 33.6737 6.687 27.8346 10.3072 C 20.7149 14.9242 13.8767 20.5769 8.9054 27.7576 C 5.4798 32.7081 4.628 39.0861 4.1731 45.2079 C 3.7224 50.6335 4.9717 56.2903 6.2435 61.7709 C 6.8463 64.3311 8.2985 66.6487 9.7927 68.8694 C 10.6321 70.1128 12.2547 70.5937 13.1941 71.6792 C 14.0128 72.7575 14.4718 74.0767 14.9687 75.2284 C 15.5709 76.6812 15.4029 78.6197 16.4475 79.6649 Z "/>
  <path id="ID0.48109486093744636" fill="#000000" stroke="none" d="M 45.7664 69.4974 C 46.5623 69.4974 47.284 70.1268 47.8065 71.1444 C 48.3289 72.1614 48.6522 73.5666 48.6522 75.117 C 48.6522 76.6674 48.3289 78.0726 47.8065 79.0896 C 47.284 80.1072 46.5623 80.7366 45.7664 80.7366 C 44.9706 80.7366 44.2488 80.1072 43.7263 79.0896 C 43.2039 78.0726 42.8807 76.6674 42.8807 75.117 C 42.8807 73.5666 43.2039 72.1614 43.7263 71.1444 C 44.2488 70.1268 44.9706 69.4974 45.7664 69.4974 Z " stroke-width="0.6075240969657898"/>
  <path id="ID0.48109486093744636" fill="#000000" stroke="none" d="M 72.1164 68.2474 C 72.9123 68.2474 73.634 68.8768 74.1565 69.8944 C 74.6789 70.9114 75.0022 72.3166 75.0022 73.867 C 75.0022 75.4174 74.6789 76.8226 74.1565 77.8396 C 73.634 78.8572 72.9123 79.4866 72.1164 79.4866 C 71.3206 79.4866 70.5988 78.8572 70.0763 77.8396 C 69.5539 76.8226 69.2307 75.4174 69.2307 73.867 C 69.2307 72.3166 69.5539 70.9114 70.0763 69.8944 C 70.5988 68.8768 71.3206 68.2474 72.1164 68.2474 Z " stroke-width="0.6075240969657898"/>
  <g id="ID0.09173762425780296">
    <path id="ID0.2451545875519514" fill="none" stroke="#000000" stroke-width="1.774609923362732" stroke-linecap="round" d="M 42.8118 94.7081 C 42.8118 94.7081 46.9768 99.7036 49.6145 101.5108 C 52.0557 103.1292 54.3958 104.75 57.1565 105.2079 C 60.746 105.5699 64.5839 105.5297 67.9521 103.8769 C 72.879 101.4226 80.3744 92.9335 80.3744 92.9335 "/>
    <path id="ID0.6410949653945863" fill="none" stroke="#000000" stroke-width="1.774609923362732" stroke-linecap="round" d="M 44.8822 92.9335 C 44.8822 92.9335 43.0484 93.7883 42.0724 94.5602 C 41.3069 95.2239 40.7858 96.1668 40.002 96.7785 C 39.8062 96.9317 39.8541 96.7785 39.8541 96.7785 "/>
    <path id="ID0.6410949653945863" fill="none" stroke="#000000" stroke-width="1.774609817503913" stroke-linecap="round" d="M 83.8474 93.0515 C 83.8474 93.0515 81.6748 92.0017 80.5912 91.5833 C 79.706 91.2416 77.9391 90.6938 77.9391 90.6938 "/>
  </g>
  <path id="ID0.2159977899864316" fill="#FFFFFF" stroke="#000000" stroke-width="1.1830731662383858" stroke-linecap="round" d="M 44.3074 124.9412 C 45.7212 124.0708 47.0505 121.9249 48.69 122.5578 C 50.9874 123.4525 51.4667 126.6713 53.1564 128.4674 C 53.9054 129.2675 55.9517 128.9841 55.7687 129.931 C 55.4438 132.5911 53.6054 134.8095 51.9727 136.8707 C 50.2236 139.0797 47.9332 141.026 45.6278 142.8763 C 43.5975 144.4058 41.5384 146.3949 39.013 146.9726 C 37.2446 147.3726 35.367 146.8389 33.962 145.8422 C 32.0163 144.4586 31.3059 142.1393 29.88 140.3823 C 28.6911 138.9465 25.7596 138.1228 25.6834 136.382 C 25.8152 134.8789 28.661 134.6335 29.9699 133.8861 C 31.5453 132.9835 32.7024 132.5783 34.7859 131.327 C 38.0005 129.2258 40.8334 127.0485 44.3074 124.9412 Z "/>
  <path id="ID0.8932876517064869" fill="#FFFFFF" stroke="#000000" stroke-width="1.183073113513684" stroke-linecap="round" d="M 83.657 118.0257 C 85.8991 116.575 87.3975 113.2559 90.1806 113.3164 C 92.52 113.3693 93.8207 116.3943 95.0228 118.3897 C 96.6377 121.0721 97.9982 124.0138 98.2934 127.1185 C 98.4854 128.1751 97.2667 129.041 96.3419 129.6536 C 93.5902 131.4787 90.6249 132.9777 87.6202 134.3271 C 85.043 135.4822 82.5494 137.647 79.8243 137.1253 C 77.3447 136.6147 76.0468 133.653 74.3957 131.7043 C 72.9144 129.9559 70.1469 128.4705 70.3701 126.2762 C 70.5446 124.294 73.6255 124.0393 75.2176 123.0719 C 78.0154 121.3661 80.9285 119.783 83.657 118.0257 Z "/>
  <path id="ID0.08180127292871475" fill="#FFFFFF" stroke="#000000" stroke-width="1.1830732822418213" stroke-linecap="round" d="M 64.0092 120.6357 C 68.4392 120.4299 73.3023 120.437 77.1709 122.7061 C 79.4702 123.8827 79.6494 127.2408 80.4244 129.8045 C 81.1768 132.292 81.4808 134.4795 81.7553 137.4945 C 82.0978 142.1091 83.4655 147.0496 81.9032 151.3956 C 81.2389 153.1324 78.3634 151.9452 76.5794 151.9872 C 72.3008 152.3397 67.9867 152.2084 63.7135 152.5787 C 59.8176 152.9159 55.8519 153.7955 51.8827 154.2054 C 49.8975 154.3876 46.495 156.2403 45.5237 154.3533 C 43.3362 149.9558 44.2152 144.5953 44.1927 139.7128 C 44.4087 134.4008 42.3625 127.552 46.1152 123.8892 C 50.4488 119.6585 57.9596 120.9179 64.0092 120.6357 Z "/>
  <path id="ID0.9750711899250746" fill="#FFFFFF" stroke="#000000" stroke-width="0.8704292178153992" d="M 62.1183 117.905 C 63.1237 117.8693 64.351 117.1643 65.056 117.7962 C 65.9782 118.6954 65.9273 120.2673 65.9264 121.4955 C 65.9704 122.4582 66.0444 123.719 65.2427 124.2966 C 64.1821 125.0612 62.6162 125.4843 61.3567 124.9772 C 60.1037 124.5272 59.2816 123.1319 58.7454 121.8219 C 58.2836 120.6804 57.8232 119.0135 58.6366 118.1226 C 59.4239 117.2652 60.9646 117.9424 62.1183 117.905 Z "/>
  <path id="ID0.3466710573993623" fill="#666666" stroke="#000000" stroke-width="1.774609923362732" stroke-linecap="round" d="M 79.3004 156.7195 L 71.226 176.1219 L 87.4932 181.4457 L 87.5524 182.9245 L 83.3525 182.9245 L 41.1168 183.5161 L 41.1168 183.102 L 55.4319 175.0571 L 52.5334 162.9897 C 51.5509 158.9099 49.8443 156.904 51.794 155.1519 C 55.0403 152.238 60.3683 152.4515 64.8965 152.1942 C 69.8098 151.9032 74.9314 152.0298 79.8032 153.5252 C 81.0212 153.899 79.9079 155.0773 79.3004 156.7195 Z "/>
  <path id="ID0.8156251180917025" fill="none" stroke="#000000" stroke-width="1.774609923362732" stroke-linecap="round" d="M 63.8318 182.1555 L 63.536 159.5884 "/>
  <path id="ID0.01869329297915101" fill="#000000" stroke="#000000" stroke-width="0.9828333138396934" d="M 64.0282 157.8462 C 65.387 157.8462 66.618 157.9483 67.5094 158.1136 C 68.4009 158.2785 68.9528 158.5065 68.9528 158.7582 C 68.9528 159.0099 68.4009 159.2378 67.5094 159.4027 C 66.618 159.568 65.387 159.6701 64.0282 159.6701 C 62.6695 159.6701 61.4385 159.568 60.547 159.4027 C 59.6556 159.2378 59.1037 159.0099 59.1037 158.7582 C 59.1037 158.5065 59.6556 158.2785 60.547 158.1136 C 61.4385 157.9483 62.6695 157.8462 64.0282 157.8462 Z "/>
  <g id="ID0.6248142127878964">
    <path id="ID0.12978794751688838" fill="#003FFF" d="M 64.821 125.9927 L 63.0153 118.5432 L 61.4843 118.5432 L 59.6785 125.9927 C 59.3518 127.3407 59.1413 128.7063 59.0489 130.079 L 57.6756 150.4733 C 57.6636 150.6527 57.7447 150.8279 57.8987 150.955 L 61.7084 154.0983 C 62.0073 154.345 62.4921 154.345 62.791 154.0983 L 66.6008 150.955 C 66.7547 150.828 66.8359 150.6527 66.8238 150.4733 L 65.4506 130.079 C 65.3582 128.7063 65.1478 127.3408 64.821 125.9927 Z " stroke-width="0.079496135238757"/>
    <g id="ID0.9315967988222837">
      <path id="ID0.175938555970788" fill="#000000" d="M 58.1893 142.845 L 58.062 144.7363 L 65.9967 138.1895 L 65.8828 136.4972 L 58.1893 142.845 " stroke-width="0.079496135238757"/>
      <path id="ID0.46518646366894245" fill="#000000" d="M 57.9192 146.8575 L 57.7918 148.7489 L 66.2385 141.7797 L 66.1246 140.0874 L 57.9192 146.8575 " stroke-width="0.079496135238757"/>
      <path id="ID0.6965857516042888" fill="#000000" d="M 58.4596 138.8324 L 58.3322 140.7238 L 65.7549 134.5993 L 65.6411 132.9071 L 58.4596 138.8324 " stroke-width="0.079496135238757"/>
      <path id="ID0.1310306848026812" fill="#000000" d="M 66.608 147.2679 L 60.019 152.7043 L 61.1014 153.5974 L 66.7219 148.9601 L 66.608 147.2679 " stroke-width="0.079496135238757"/>
      <path id="ID0.4569180617108941" fill="#000000" d="M 57.7601 150.7785 C 57.797 150.8417 57.8373 150.9042 57.8987 150.9549 L 58.8049 151.7026 L 66.4802 145.3698 L 66.3664 143.6775 L 57.7601 150.7785 Z " stroke-width="0.079496135238757"/>
      <path id="ID0.24527620524168015" fill="#000000" d="M 58.9999 130.8073 L 58.8725 132.6986 L 65.1364 127.5304 C 65.0467 127.0192 64.9459 126.5093 64.8232 126.0025 L 58.9999 130.8073 Z " stroke-width="0.079496135238757"/>
      <path id="ID0.5825217957608402" fill="#000000" d="M 60.6859 121.8369 L 60.1446 124.0697 L 63.6532 121.1749 L 63.2923 119.6863 L 60.6859 121.8369 " stroke-width="0.079496135238757"/>
      <path id="ID0.15262239007279277" fill="#000000" d="M 65.384 129.3294 L 58.7297 134.8198 L 58.6023 136.7111 L 65.5132 131.0091 L 65.4506 130.0789 C 65.4337 129.8288 65.4087 129.5791 65.384 129.3294 Z " stroke-width="0.079496135238757"/>
      <path id="ID0.5810127067379653" fill="#000000" d="M 59.5535 126.5609 C 59.4034 127.2516 59.2835 127.946 59.1943 128.6436 L 64.4188 124.3329 L 64.058 122.8444 L 59.5535 126.5609 Z " stroke-width="0.079496135238757"/>
    </g>
    <path id="ID0.23930309200659394" fill="#515262" d="M 63.8705 122.0713 L 63.0153 118.5432 L 61.4843 118.5432 L 60.629 122.0713 L 63.8705 122.0713 " stroke-width="0.079496135238757"/>
    <g id="ID0.9487194432877004">
      <path id="ID0.3178984634578228" fill="#000000" d="M 63.6532 121.1749 L 63.2923 119.6863 L 60.6859 121.8369 L 60.629 122.0713 L 62.5667 122.0713 L 63.6532 121.1749 " stroke-width="0.079496135238757"/>
      <path id="ID0.3138633584603667" fill="#000000" d="M 63.6126 117.65 L 60.887 117.65 C 60.404 117.65 60.0416 118.0147 60.1363 118.4055 L 60.5957 120.3003 C 60.6672 120.5955 60.9814 120.808 61.3464 120.808 L 63.1532 120.808 C 63.5181 120.808 63.8323 120.5955 63.9039 120.3003 L 64.3633 118.4055 C 64.4579 118.0147 64.0956 117.65 63.6126 117.65 Z " stroke-width="0.079496135238757"/>
    </g>
    <path id="ID0.5711964019574225" fill="#003FFF" d="M 61.8012 117.65 L 60.887 117.65 C 60.5421 117.65 60.2664 117.8392 60.1672 118.088 L 63.4168 120.7691 C 63.6612 120.6951 63.8505 120.5209 63.9039 120.3003 L 64.0889 119.5374 L 61.8012 117.65 Z " stroke-width="0.079496135238757"/>
  </g>
  <g id="ID0.2674377793446183">
    <path id="ID0.11819346388801932" fill="#8EAEBA" d="M 105.6166 131.0097 C 105.6166 131.7429 105.0559 132.3035 104.3228 132.3035 L 93.1103 132.3035 C 92.3772 132.3035 91.8166 131.7429 91.8166 131.0097 L 91.8166 107.291 C 91.8166 106.5579 92.3772 105.9972 93.1103 105.9972 L 104.3228 105.9972 C 105.0559 105.9972 105.6166 106.5579 105.6166 107.291 L 105.6166 131.0097 Z " stroke-width="0.053906249813735485"/>
    <path id="ID0.019795336294919252" fill="#FFFFFF" d="M 105.6166 130.5785 C 105.6166 131.3116 105.0559 131.8722 104.3228 131.8722 L 93.1103 131.8722 C 92.3772 131.8722 91.8166 131.3116 91.8166 130.5785 L 91.8166 106.8597 C 91.8166 106.1266 92.3772 105.566 93.1103 105.566 L 104.3228 105.566 C 105.0559 105.566 105.6166 106.1266 105.6166 106.8597 L 105.6166 130.5785 Z " stroke-width="0.053906249813735485"/>
    <path id="ID0.8467301512137055" fill="#D7EAF7" d="M 105.6166 130.5785 C 105.6166 131.3116 105.0559 131.8722 104.3228 131.8722 L 93.1103 131.8722 C 92.3772 131.8722 91.8166 131.3116 91.8166 130.5785 L 91.8166 107.291 C 91.8166 106.5579 92.3772 105.9972 93.1103 105.9972 L 104.3228 105.9972 C 105.0559 105.9972 105.6166 106.5579 105.6166 107.291 L 105.6166 130.5785 Z " stroke-width="0.053906249813735485"/>
    <path id="ID0.2900314754806459" fill="#C1D8E5" d="M 93.1103 105.9972 L 104.3228 105.9972 C 105.0559 105.9972 105.6166 106.4285 105.6166 107.1185 L 105.6166 130.7079 C 105.6166 131.441 105.0559 131.8722 104.3228 131.8722 L 93.1103 131.8722 " stroke-width="0.053906249813735485"/>
    <path id="ID0.7920452482067049" fill="#A7C4D1" d="M 104.3228 105.9972 C 105.0559 105.9972 105.6166 106.4285 105.6166 107.1185 L 105.6166 130.7079 C 105.6166 131.441 105.0559 131.8722 104.3228 131.8722 " stroke-width="0.053906249813735485"/>
    <path id="ID0.9980909670703113" fill="#094670" d="M 91.8166 108.5847 L 105.6166 108.5847 L 105.6166 129.2847 L 91.8166 129.2847 L 91.8166 108.5847 Z " stroke-width="0.053906249813735485"/>
    <path id="ID0.22485426580533385" fill="#00233F" d="M 105.6166 129.2847 L 105.6166 108.5847 L 91.8166 108.5847 " stroke-width="0.053906249813735485"/>
    <path id="ID0.9337981445714831" fill="#EA7711" d="M 92.6791 108.5847 L 104.7541 108.5847 L 104.7541 129.2847 L 92.6791 129.2847 L 92.6791 108.5847 Z " stroke-width="0.053906249813735485"/>
    <path id="ID0.6009759795852005" fill="#FFA515" d="M 92.6791 109.4472 L 104.7541 109.4472 L 104.7541 129.2847 L 92.6791 129.2847 L 92.6791 109.4472 Z " stroke-width="0.053906249813735485"/>
    <path id="ID0.21560631645843387" fill="#ED900A" d="M 104.7541 129.2847 L 104.7541 109.4472 L 92.6791 109.4472 " stroke-width="0.053906249813735485"/>
    <g id="ID0.07424429571256042">
      <path id="ID0.41198705509305" fill="#95AAB5" d="M 96.5172 106.601 C 96.5648 106.601 96.6079 106.6204 96.6391 106.6516 C 96.6703 106.6828 96.6897 106.7259 96.6897 106.7735 C 96.6897 106.8211 96.6703 106.8642 96.6391 106.8954 C 96.6079 106.9266 96.5648 106.946 96.5172 106.946 C 96.4696 106.946 96.4265 106.9266 96.3953 106.8954 C 96.364 106.8642 96.3447 106.8211 96.3447 106.7735 C 96.3447 106.7259 96.364 106.6828 96.3953 106.6516 C 96.4265 106.6204 96.4696 106.601 96.5172 106.601 Z " stroke-width="0.053906249813735485"/>
      <path id="ID0.5937537900172174" fill="#95AAB5" d="M 97.1641 106.601 C 97.2117 106.601 97.2548 106.6204 97.286 106.6516 C 97.3172 106.6828 97.3366 106.7259 97.3366 106.7735 C 97.3366 106.8211 97.3172 106.8642 97.286 106.8954 C 97.2548 106.9266 97.2117 106.946 97.1641 106.946 C 97.1165 106.946 97.0733 106.9266 97.0421 106.8954 C 97.0109 106.8642 96.9916 106.8211 96.9916 106.7735 C 96.9916 106.7259 97.0109 106.6828 97.0421 106.6516 C 97.0733 106.6204 97.1165 106.601 97.1641 106.601 Z " stroke-width="0.053906249813735485"/>
      <path id="ID0.04883936606347561" fill="#95AAB5" d="M 97.7678 106.601 C 97.8154 106.601 97.8585 106.6204 97.8898 106.6516 C 97.921 106.6828 97.9403 106.7259 97.9403 106.7735 C 97.9403 106.8211 97.921 106.8642 97.8898 106.8954 C 97.8585 106.9266 97.8154 106.946 97.7678 106.946 C 97.7202 106.946 97.6771 106.9266 97.6459 106.8954 C 97.6147 106.8642 97.5953 106.8211 97.5953 106.7735 C 97.5953 106.7259 97.6147 106.6828 97.6459 106.6516 C 97.6771 106.6204 97.7202 106.601 97.7678 106.601 Z " stroke-width="0.053906249813735485"/>
      <path id="ID0.4762874855659902" fill="#95AAB5" d="M 98.4147 106.601 C 98.4623 106.601 98.5054 106.6204 98.5366 106.6516 C 98.5678 106.6828 98.5872 106.7259 98.5872 106.7735 C 98.5872 106.8211 98.5678 106.8642 98.5366 106.8954 C 98.5054 106.9266 98.4623 106.946 98.4147 106.946 C 98.3671 106.946 98.324 106.9266 98.2928 106.8954 C 98.2615 106.8642 98.2422 106.8211 98.2422 106.7735 C 98.2422 106.7259 98.2615 106.6828 98.2928 106.6516 C 98.324 106.6204 98.3671 106.601 98.4147 106.601 Z " stroke-width="0.053906249813735485"/>
      <path id="ID0.8335676016286016" fill="#95AAB5" d="M 99.0184 106.601 C 99.066 106.601 99.1092 106.6204 99.1404 106.6516 C 99.1716 106.6828 99.1909 106.7259 99.1909 106.7735 C 99.1909 106.8211 99.1716 106.8642 99.1404 106.8954 C 99.1092 106.9266 99.066 106.946 99.0184 106.946 C 98.9708 106.946 98.9277 106.9266 98.8965 106.8954 C 98.8653 106.8642 98.8459 106.8211 98.8459 106.7735 C 98.8459 106.7259 98.8653 106.6828 98.8965 106.6516 C 98.9277 106.6204 98.9708 106.601 99.0184 106.601 Z " stroke-width="0.053906249813735485"/>
      <path id="ID0.9282150198705494" fill="#95AAB5" d="M 99.6653 106.601 C 99.7129 106.601 99.756 106.6204 99.7873 106.6516 C 99.8185 106.6828 99.8378 106.7259 99.8378 106.7735 C 99.8378 106.8211 99.8185 106.8642 99.7873 106.8954 C 99.756 106.9266 99.7129 106.946 99.6653 106.946 C 99.6177 106.946 99.5746 106.9266 99.5434 106.8954 C 99.5122 106.8642 99.4928 106.8211 99.4928 106.7735 C 99.4928 106.7259 99.5122 106.6828 99.5434 106.6516 C 99.5746 106.6204 99.6177 106.601 99.6653 106.601 Z " stroke-width="0.053906249813735485"/>
      <path id="ID0.23160990048199892" fill="#95AAB5" d="M 100.2691 106.601 C 100.3167 106.601 100.3598 106.6204 100.391 106.6516 C 100.4222 106.6828 100.4416 106.7259 100.4416 106.7735 C 100.4416 106.8211 100.4222 106.8642 100.391 106.8954 C 100.3598 106.9266 100.3167 106.946 100.2691 106.946 C 100.2215 106.946 100.1783 106.9266 100.1471 106.8954 C 100.1159 106.8642 100.0966 106.8211 100.0966 106.7735 C 100.0966 106.7259 100.1159 106.6828 100.1471 106.6516 C 100.1783 106.6204 100.2215 106.601 100.2691 106.601 Z " stroke-width="0.053906249813735485"/>
      <path id="ID0.6161990370601416" fill="#95AAB5" d="M 100.9159 106.601 C 100.9635 106.601 101.0067 106.6204 101.0379 106.6516 C 101.0691 106.6828 101.0884 106.7259 101.0884 106.7735 C 101.0884 106.8211 101.0691 106.8642 101.0379 106.8954 C 101.0067 106.9266 100.9635 106.946 100.9159 106.946 C 100.8683 106.946 100.8252 106.9266 100.794 106.8954 C 100.7628 106.8642 100.7434 106.8211 100.7434 106.7735 C 100.7434 106.7259 100.7628 106.6828 100.794 106.6516 C 100.8252 106.6204 100.8683 106.601 100.9159 106.601 Z " stroke-width="0.053906249813735485"/>
      <path id="ID0.39387632068246603" fill="#95AAB5" d="M 96.5172 107.1616 C 96.5648 107.1616 96.6079 107.181 96.6391 107.2122 C 96.6703 107.2434 96.6897 107.2865 96.6897 107.3341 C 96.6897 107.3817 96.6703 107.4248 96.6391 107.4561 C 96.6079 107.4873 96.5648 107.5066 96.5172 107.5066 C 96.4696 107.5066 96.4265 107.4873 96.3953 107.4561 C 96.364 107.4248 96.3447 107.3817 96.3447 107.3341 C 96.3447 107.2865 96.364 107.2434 96.3953 107.2122 C 96.4265 107.181 96.4696 107.1616 96.5172 107.1616 Z " stroke-width="0.053906249813735485"/>
      <path id="ID0.33845753828063607" fill="#95AAB5" d="M 97.1641 107.1616 C 97.2117 107.1616 97.2548 107.181 97.286 107.2122 C 97.3172 107.2434 97.3366 107.2865 97.3366 107.3341 C 97.3366 107.3817 97.3172 107.4248 97.286 107.4561 C 97.2548 107.4873 97.2117 107.5066 97.1641 107.5066 C 97.1165 107.5066 97.0733 107.4873 97.0421 107.4561 C 97.0109 107.4248 96.9916 107.3817 96.9916 107.3341 C 96.9916 107.2865 97.0109 107.2434 97.0421 107.2122 C 97.0733 107.181 97.1165 107.1616 97.1641 107.1616 Z " stroke-width="0.053906249813735485"/>
      <path id="ID0.9921418502926826" fill="#95AAB5" d="M 97.7678 107.1616 C 97.8154 107.1616 97.8585 107.181 97.8898 107.2122 C 97.921 107.2434 97.9403 107.2865 97.9403 107.3341 C 97.9403 107.3817 97.921 107.4248 97.8898 107.4561 C 97.8585 107.4873 97.8154 107.5066 97.7678 107.5066 C 97.7202 107.5066 97.6771 107.4873 97.6459 107.4561 C 97.6147 107.4248 97.5953 107.3817 97.5953 107.3341 C 97.5953 107.2865 97.6147 107.2434 97.6459 107.2122 C 97.6771 107.181 97.7202 107.1616 97.7678 107.1616 Z " stroke-width="0.053906249813735485"/>
      <path id="ID0.07782069267705083" fill="#95AAB5" d="M 98.4147 107.1616 C 98.4623 107.1616 98.5054 107.181 98.5366 107.2122 C 98.5678 107.2434 98.5872 107.2865 98.5872 107.3341 C 98.5872 107.3817 98.5678 107.4248 98.5366 107.4561 C 98.5054 107.4873 98.4623 107.5066 98.4147 107.5066 C 98.3671 107.5066 98.324 107.4873 98.2928 107.4561 C 98.2615 107.4248 98.2422 107.3817 98.2422 107.3341 C 98.2422 107.2865 98.2615 107.2434 98.2928 107.2122 C 98.324 107.181 98.3671 107.1616 98.4147 107.1616 Z " stroke-width="0.053906249813735485"/>
      <path id="ID0.9609737088903785" fill="#95AAB5" d="M 99.0184 107.1616 C 99.066 107.1616 99.1092 107.181 99.1404 107.2122 C 99.1716 107.2434 99.1909 107.2865 99.1909 107.3341 C 99.1909 107.3817 99.1716 107.4248 99.1404 107.4561 C 99.1092 107.4873 99.066 107.5066 99.0184 107.5066 C 98.9708 107.5066 98.9277 107.4873 98.8965 107.4561 C 98.8653 107.4248 98.8459 107.3817 98.8459 107.3341 C 98.8459 107.2865 98.8653 107.2434 98.8965 107.2122 C 98.9277 107.181 98.9708 107.1616 99.0184 107.1616 Z " stroke-width="0.053906249813735485"/>
      <path id="ID0.16225157212466002" fill="#95AAB5" d="M 99.6653 107.1616 C 99.7129 107.1616 99.756 107.181 99.7873 107.2122 C 99.8185 107.2434 99.8378 107.2865 99.8378 107.3341 C 99.8378 107.3817 99.8185 107.4248 99.7873 107.4561 C 99.756 107.4873 99.7129 107.5066 99.6653 107.5066 C 99.6177 107.5066 99.5746 107.4873 99.5434 107.4561 C 99.5122 107.4248 99.4928 107.3817 99.4928 107.3341 C 99.4928 107.2865 99.5122 107.2434 99.5434 107.2122 C 99.5746 107.181 99.6177 107.1616 99.6653 107.1616 Z " stroke-width="0.053906249813735485"/>
      <path id="ID0.8931672465987504" fill="#95AAB5" d="M 100.2691 107.1616 C 100.3167 107.1616 100.3598 107.181 100.391 107.2122 C 100.4222 107.2434 100.4416 107.2865 100.4416 107.3341 C 100.4416 107.3817 100.4222 107.4248 100.391 107.4561 C 100.3598 107.4873 100.3167 107.5066 100.2691 107.5066 C 100.2215 107.5066 100.1783 107.4873 100.1471 107.4561 C 100.1159 107.4248 100.0966 107.3817 100.0966 107.3341 C 100.0966 107.2865 100.1159 107.2434 100.1471 107.2122 C 100.1783 107.181 100.2215 107.1616 100.2691 107.1616 Z " stroke-width="0.053906249813735485"/>
      <path id="ID0.14296591002494097" fill="#95AAB5" d="M 100.9159 107.1616 C 100.9635 107.1616 101.0067 107.181 101.0379 107.2122 C 101.0691 107.2434 101.0884 107.2865 101.0884 107.3341 C 101.0884 107.3817 101.0691 107.4248 101.0379 107.4561 C 101.0067 107.4873 100.9635 107.5066 100.9159 107.5066 C 100.8683 107.5066 100.8252 107.4873 100.794 107.4561 C 100.7628 107.4248 100.7434 107.3817 100.7434 107.3341 C 100.7434 107.2865 100.7628 107.2434 100.794 107.2122 C 100.8252 107.181 100.8683 107.1616 100.9159 107.1616 Z " stroke-width="0.053906249813735485"/>
      <path id="ID0.1209077462553978" fill="#95AAB5" d="M 96.5172 107.7222 C 96.5648 107.7222 96.6079 107.7416 96.6391 107.7728 C 96.6703 107.804 96.6897 107.8472 96.6897 107.8947 C 96.6897 107.9423 96.6703 107.9855 96.6391 108.0167 C 96.6079 108.0479 96.5648 108.0672 96.5172 108.0672 C 96.4696 108.0672 96.4265 108.0479 96.3953 108.0167 C 96.364 107.9855 96.3447 107.9423 96.3447 107.8947 C 96.3447 107.8472 96.364 107.804 96.3953 107.7728 C 96.4265 107.7416 96.4696 107.7222 96.5172 107.7222 Z " stroke-width="0.053906249813735485"/>
      <path id="ID0.13465216429904103" fill="#95AAB5" d="M 97.1641 107.7222 C 97.2117 107.7222 97.2548 107.7416 97.286 107.7728 C 97.3172 107.804 97.3366 107.8472 97.3366 107.8947 C 97.3366 107.9423 97.3172 107.9855 97.286 108.0167 C 97.2548 108.0479 97.2117 108.0672 97.1641 108.0672 C 97.1165 108.0672 97.0733 108.0479 97.0421 108.0167 C 97.0109 107.9855 96.9916 107.9423 96.9916 107.8947 C 96.9916 107.8472 97.0109 107.804 97.0421 107.7728 C 97.0733 107.7416 97.1165 107.7222 97.1641 107.7222 Z " stroke-width="0.053906249813735485"/>
      <path id="ID0.8394834334030747" fill="#95AAB5" d="M 97.7678 107.7222 C 97.8154 107.7222 97.8585 107.7416 97.8898 107.7728 C 97.921 107.804 97.9403 107.8472 97.9403 107.8947 C 97.9403 107.9423 97.921 107.9855 97.8898 108.0167 C 97.8585 108.0479 97.8154 108.0672 97.7678 108.0672 C 97.7202 108.0672 97.6771 108.0479 97.6459 108.0167 C 97.6147 107.9855 97.5953 107.9423 97.5953 107.8947 C 97.5953 107.8472 97.6147 107.804 97.6459 107.7728 C 97.6771 107.7416 97.7202 107.7222 97.7678 107.7222 Z " stroke-width="0.053906249813735485"/>
      <path id="ID0.16096549527719617" fill="#95AAB5" d="M 98.4147 107.7222 C 98.4623 107.7222 98.5054 107.7416 98.5366 107.7728 C 98.5678 107.804 98.5872 107.8472 98.5872 107.8947 C 98.5872 107.9423 98.5678 107.9855 98.5366 108.0167 C 98.5054 108.0479 98.4623 108.0672 98.4147 108.0672 C 98.3671 108.0672 98.324 108.0479 98.2928 108.0167 C 98.2615 107.9855 98.2422 107.9423 98.2422 107.8947 C 98.2422 107.8472 98.2615 107.804 98.2928 107.7728 C 98.324 107.7416 98.3671 107.7222 98.4147 107.7222 Z " stroke-width="0.053906249813735485"/>
      <path id="ID0.9796996116638184" fill="#95AAB5" d="M 99.0184 107.7222 C 99.066 107.7222 99.1092 107.7416 99.1404 107.7728 C 99.1716 107.804 99.1909 107.8472 99.1909 107.8947 C 99.1909 107.9423 99.1716 107.9855 99.1404 108.0167 C 99.1092 108.0479 99.066 108.0672 99.0184 108.0672 C 98.9708 108.0672 98.9277 108.0479 98.8965 108.0167 C 98.8653 107.9855 98.8459 107.9423 98.8459 107.8947 C 98.8459 107.8472 98.8653 107.804 98.8965 107.7728 C 98.9277 107.7416 98.9708 107.7222 99.0184 107.7222 Z " stroke-width="0.053906249813735485"/>
      <path id="ID0.8471006415784359" fill="#95AAB5" d="M 99.6653 107.7222 C 99.7129 107.7222 99.756 107.7416 99.7873 107.7728 C 99.8185 107.804 99.8378 107.8472 99.8378 107.8947 C 99.8378 107.9423 99.8185 107.9855 99.7873 108.0167 C 99.756 108.0479 99.7129 108.0672 99.6653 108.0672 C 99.6177 108.0672 99.5746 108.0479 99.5434 108.0167 C 99.5122 107.9855 99.4928 107.9423 99.4928 107.8947 C 99.4928 107.8472 99.5122 107.804 99.5434 107.7728 C 99.5746 107.7416 99.6177 107.7222 99.6653 107.7222 Z " stroke-width="0.053906249813735485"/>
      <path id="ID0.451475206296891" fill="#95AAB5" d="M 100.2691 107.7222 C 100.3167 107.7222 100.3598 107.7416 100.391 107.7728 C 100.4222 107.804 100.4416 107.8472 100.4416 107.8947 C 100.4416 107.9423 100.4222 107.9855 100.391 108.0167 C 100.3598 108.0479 100.3167 108.0672 100.2691 108.0672 C 100.2215 108.0672 100.1783 108.0479 100.1471 108.0167 C 100.1159 107.9855 100.0966 107.9423 100.0966 107.8947 C 100.0966 107.8472 100.1159 107.804 100.1471 107.7728 C 100.1783 107.7416 100.2215 107.7222 100.2691 107.7222 Z " stroke-width="0.053906249813735485"/>
      <path id="ID0.4611096065491438" fill="#95AAB5" d="M 100.9159 107.7222 C 100.9635 107.7222 101.0067 107.7416 101.0379 107.7728 C 101.0691 107.804 101.0884 107.8472 101.0884 107.8947 C 101.0884 107.9423 101.0691 107.9855 101.0379 108.0167 C 101.0067 108.0479 100.9635 108.0672 100.9159 108.0672 C 100.8683 108.0672 100.8252 108.0479 100.794 108.0167 C 100.7628 107.9855 100.7434 107.9423 100.7434 107.8947 C 100.7434 107.8472 100.7628 107.804 100.794 107.7728 C 100.8252 107.7416 100.8683 107.7222 100.9159 107.7222 Z " stroke-width="0.053906249813735485"/>
      <path id="ID0.6014382066205144" fill="#95AAB5" d="M 96.5172 129.8022 C 96.5648 129.8022 96.6079 129.8216 96.6391 129.8528 C 96.6703 129.884 96.6897 129.9272 96.6897 129.9747 C 96.6897 130.0223 96.6703 130.0655 96.6391 130.0967 C 96.6079 130.1279 96.5648 130.1472 96.5172 130.1472 C 96.4696 130.1472 96.4265 130.1279 96.3953 130.0967 C 96.364 130.0655 96.3447 130.0223 96.3447 129.9747 C 96.3447 129.9272 96.364 129.884 96.3953 129.8528 C 96.4265 129.8216 96.4696 129.8022 96.5172 129.8022 Z " stroke-width="0.053906249813735485"/>
      <path id="ID0.06963934749364853" fill="#95AAB5" d="M 97.1641 129.8022 C 97.2117 129.8022 97.2548 129.8216 97.286 129.8528 C 97.3172 129.884 97.3366 129.9272 97.3366 129.9747 C 97.3366 130.0223 97.3172 130.0655 97.286 130.0967 C 97.2548 130.1279 97.2117 130.1472 97.1641 130.1472 C 97.1165 130.1472 97.0733 130.1279 97.0421 130.0967 C 97.0109 130.0655 96.9916 130.0223 96.9916 129.9747 C 96.9916 129.9272 97.0109 129.884 97.0421 129.8528 C 97.0733 129.8216 97.1165 129.8022 97.1641 129.8022 Z " stroke-width="0.053906249813735485"/>
      <path id="ID0.13320326805114746" fill="#95AAB5" d="M 97.7678 129.8022 C 97.8154 129.8022 97.8585 129.8216 97.8898 129.8528 C 97.921 129.884 97.9403 129.9272 97.9403 129.9747 C 97.9403 130.0223 97.921 130.0655 97.8898 130.0967 C 97.8585 130.1279 97.8154 130.1472 97.7678 130.1472 C 97.7202 130.1472 97.6771 130.1279 97.6459 130.0967 C 97.6147 130.0655 97.5953 130.0223 97.5953 129.9747 C 97.5953 129.9272 97.6147 129.884 97.6459 129.8528 C 97.6771 129.8216 97.7202 129.8022 97.7678 129.8022 Z " stroke-width="0.053906249813735485"/>
      <path id="ID0.21651099948212504" fill="#95AAB5" d="M 98.4147 129.8022 C 98.4623 129.8022 98.5054 129.8216 98.5366 129.8528 C 98.5678 129.884 98.5872 129.9272 98.5872 129.9747 C 98.5872 130.0223 98.5678 130.0655 98.5366 130.0967 C 98.5054 130.1279 98.4623 130.1472 98.4147 130.1472 C 98.3671 130.1472 98.324 130.1279 98.2928 130.0967 C 98.2615 130.0655 98.2422 130.0223 98.2422 129.9747 C 98.2422 129.9272 98.2615 129.884 98.2928 129.8528 C 98.324 129.8216 98.3671 129.8022 98.4147 129.8022 Z " stroke-width="0.053906249813735485"/>
      <path id="ID0.7789156679064035" fill="#95AAB5" d="M 99.0184 129.8022 C 99.066 129.8022 99.1092 129.8216 99.1404 129.8528 C 99.1716 129.884 99.1909 129.9272 99.1909 129.9747 C 99.1909 130.0223 99.1716 130.0655 99.1404 130.0967 C 99.1092 130.1279 99.066 130.1472 99.0184 130.1472 C 98.9708 130.1472 98.9277 130.1279 98.8965 130.0967 C 98.8653 130.0655 98.8459 130.0223 98.8459 129.9747 C 98.8459 129.9272 98.8653 129.884 98.8965 129.8528 C 98.9277 129.8216 98.9708 129.8022 99.0184 129.8022 Z " stroke-width="0.053906249813735485"/>
      <path id="ID0.7354996642097831" fill="#95AAB5" d="M 99.6653 129.8022 C 99.7129 129.8022 99.756 129.8216 99.7873 129.8528 C 99.8185 129.884 99.8378 129.9272 99.8378 129.9747 C 99.8378 130.0223 99.8185 130.0655 99.7873 130.0967 C 99.756 130.1279 99.7129 130.1472 99.6653 130.1472 C 99.6177 130.1472 99.5746 130.1279 99.5434 130.0967 C 99.5122 130.0655 99.4928 130.0223 99.4928 129.9747 C 99.4928 129.9272 99.5122 129.884 99.5434 129.8528 C 99.5746 129.8216 99.6177 129.8022 99.6653 129.8022 Z " stroke-width="0.053906249813735485"/>
      <path id="ID0.3841694351285696" fill="#95AAB5" d="M 100.2691 129.8022 C 100.3167 129.8022 100.3598 129.8216 100.391 129.8528 C 100.4222 129.884 100.4416 129.9272 100.4416 129.9747 C 100.4416 130.0223 100.4222 130.0655 100.391 130.0967 C 100.3598 130.1279 100.3167 130.1472 100.2691 130.1472 C 100.2215 130.1472 100.1783 130.1279 100.1471 130.0967 C 100.1159 130.0655 100.0966 130.0223 100.0966 129.9747 C 100.0966 129.9272 100.1159 129.884 100.1471 129.8528 C 100.1783 129.8216 100.2215 129.8022 100.2691 129.8022 Z " stroke-width="0.053906249813735485"/>
      <path id="ID0.9463631473481655" fill="#95AAB5" d="M 100.9159 129.8022 C 100.9635 129.8022 101.0067 129.8216 101.0379 129.8528 C 101.0691 129.884 101.0884 129.9272 101.0884 129.9747 C 101.0884 130.0223 101.0691 130.0655 101.0379 130.0967 C 101.0067 130.1279 100.9635 130.1472 100.9159 130.1472 C 100.8683 130.1472 100.8252 130.1279 100.794 130.0967 C 100.7628 130.0655 100.7434 130.0223 100.7434 129.9747 C 100.7434 129.9272 100.7628 129.884 100.794 129.8528 C 100.8252 129.8216 100.8683 129.8022 100.9159 129.8022 Z " stroke-width="0.053906249813735485"/>
      <path id="ID0.25377981131896377" fill="#95AAB5" d="M 96.5172 130.3197 C 96.5648 130.3197 96.6079 130.3391 96.6391 130.3703 C 96.6703 130.4015 96.6897 130.4447 96.6897 130.4922 C 96.6897 130.5398 96.6703 130.583 96.6391 130.6142 C 96.6079 130.6454 96.5648 130.6647 96.5172 130.6647 C 96.4696 130.6647 96.4265 130.6454 96.3953 130.6142 C 96.364 130.583 96.3447 130.5398 96.3447 130.4922 C 96.3447 130.4447 96.364 130.4015 96.3953 130.3703 C 96.4265 130.3391 96.4696 130.3197 96.5172 130.3197 Z " stroke-width="0.053906249813735485"/>
      <path id="ID0.9265255820937455" fill="#95AAB5" d="M 97.1641 130.3197 C 97.2117 130.3197 97.2548 130.3391 97.286 130.3703 C 97.3172 130.4015 97.3366 130.4447 97.3366 130.4922 C 97.3366 130.5398 97.3172 130.583 97.286 130.6142 C 97.2548 130.6454 97.2117 130.6647 97.1641 130.6647 C 97.1165 130.6647 97.0733 130.6454 97.0421 130.6142 C 97.0109 130.583 96.9916 130.5398 96.9916 130.4922 C 96.9916 130.4447 97.0109 130.4015 97.0421 130.3703 C 97.0733 130.3391 97.1165 130.3197 97.1641 130.3197 Z " stroke-width="0.053906249813735485"/>
      <path id="ID0.03995321225374937" fill="#95AAB5" d="M 97.7678 130.3197 C 97.8154 130.3197 97.8585 130.3391 97.8898 130.3703 C 97.921 130.4015 97.9403 130.4447 97.9403 130.4922 C 97.9403 130.5398 97.921 130.583 97.8898 130.6142 C 97.8585 130.6454 97.8154 130.6647 97.7678 130.6647 C 97.7202 130.6647 97.6771 130.6454 97.6459 130.6142 C 97.6147 130.583 97.5953 130.5398 97.5953 130.4922 C 97.5953 130.4447 97.6147 130.4015 97.6459 130.3703 C 97.6771 130.3391 97.7202 130.3197 97.7678 130.3197 Z " stroke-width="0.053906249813735485"/>
      <path id="ID0.18621463747695088" fill="#95AAB5" d="M 98.4147 130.3197 C 98.4623 130.3197 98.5054 130.3391 98.5366 130.3703 C 98.5678 130.4015 98.5872 130.4447 98.5872 130.4922 C 98.5872 130.5398 98.5678 130.583 98.5366 130.6142 C 98.5054 130.6454 98.4623 130.6647 98.4147 130.6647 C 98.3671 130.6647 98.324 130.6454 98.2928 130.6142 C 98.2615 130.583 98.2422 130.5398 98.2422 130.4922 C 98.2422 130.4447 98.2615 130.4015 98.2928 130.3703 C 98.324 130.3391 98.3671 130.3197 98.4147 130.3197 Z " stroke-width="0.053906249813735485"/>
      <path id="ID0.12435883702710271" fill="#95AAB5" d="M 99.0184 130.3197 C 99.066 130.3197 99.1092 130.3391 99.1404 130.3703 C 99.1716 130.4015 99.1909 130.4447 99.1909 130.4922 C 99.1909 130.5398 99.1716 130.583 99.1404 130.6142 C 99.1092 130.6454 99.066 130.6647 99.0184 130.6647 C 98.9708 130.6647 98.9277 130.6454 98.8965 130.6142 C 98.8653 130.583 98.8459 130.5398 98.8459 130.4922 C 98.8459 130.4447 98.8653 130.4015 98.8965 130.3703 C 98.9277 130.3391 98.9708 130.3197 99.0184 130.3197 Z " stroke-width="0.053906249813735485"/>
      <path id="ID0.54909014608711" fill="#95AAB5" d="M 99.6653 130.3197 C 99.7129 130.3197 99.756 130.3391 99.7873 130.3703 C 99.8185 130.4015 99.8378 130.4447 99.8378 130.4922 C 99.8378 130.5398 99.8185 130.583 99.7873 130.6142 C 99.756 130.6454 99.7129 130.6647 99.6653 130.6647 C 99.6177 130.6647 99.5746 130.6454 99.5434 130.6142 C 99.5122 130.583 99.4928 130.5398 99.4928 130.4922 C 99.4928 130.4447 99.5122 130.4015 99.5434 130.3703 C 99.5746 130.3391 99.6177 130.3197 99.6653 130.3197 Z " stroke-width="0.053906249813735485"/>
      <path id="ID0.1496713375672698" fill="#95AAB5" d="M 100.2691 130.3197 C 100.3167 130.3197 100.3598 130.3391 100.391 130.3703 C 100.4222 130.4015 100.4416 130.4447 100.4416 130.4922 C 100.4416 130.5398 100.4222 130.583 100.391 130.6142 C 100.3598 130.6454 100.3167 130.6647 100.2691 130.6647 C 100.2215 130.6647 100.1783 130.6454 100.1471 130.6142 C 100.1159 130.583 100.0966 130.5398 100.0966 130.4922 C 100.0966 130.4447 100.1159 130.4015 100.1471 130.3703 C 100.1783 130.3391 100.2215 130.3197 100.2691 130.3197 Z " stroke-width="0.053906249813735485"/>
      <path id="ID0.7206824794411659" fill="#95AAB5" d="M 100.9159 130.3197 C 100.9635 130.3197 101.0067 130.3391 101.0379 130.3703 C 101.0691 130.4015 101.0884 130.4447 101.0884 130.4922 C 101.0884 130.5398 101.0691 130.583 101.0379 130.6142 C 101.0067 130.6454 100.9635 130.6647 100.9159 130.6647 C 100.8683 130.6647 100.8252 130.6454 100.794 130.6142 C 100.7628 130.583 100.7434 130.5398 100.7434 130.4922 C 100.7434 130.4447 100.7628 130.4015 100.794 130.3703 C 100.8252 130.3391 100.8683 130.3197 100.9159 130.3197 Z " stroke-width="0.053906249813735485"/>
      <path id="ID0.7798485266976058" fill="#95AAB5" d="M 96.5172 130.8804 C 96.5648 130.8804 96.6079 130.8997 96.6391 130.9309 C 96.6703 130.9622 96.6897 131.0053 96.6897 131.0529 C 96.6897 131.1005 96.6703 131.1436 96.6391 131.1748 C 96.6079 131.206 96.5648 131.2254 96.5172 131.2254 C 96.4696 131.2254 96.4265 131.206 96.3953 131.1748 C 96.364 131.1436 96.3447 131.1005 96.3447 131.0529 C 96.3447 131.0053 96.364 130.9622 96.3953 130.9309 C 96.4265 130.8997 96.4696 130.8804 96.5172 130.8804 Z " stroke-width="0.053906249813735485"/>
      <path id="ID0.32987466966733336" fill="#95AAB5" d="M 97.1641 130.8804 C 97.2117 130.8804 97.2548 130.8997 97.286 130.9309 C 97.3172 130.9622 97.3366 131.0053 97.3366 131.0529 C 97.3366 131.1005 97.3172 131.1436 97.286 131.1748 C 97.2548 131.206 97.2117 131.2254 97.1641 131.2254 C 97.1165 131.2254 97.0733 131.206 97.0421 131.1748 C 97.0109 131.1436 96.9916 131.1005 96.9916 131.0529 C 96.9916 131.0053 97.0109 130.9622 97.0421 130.9309 C 97.0733 130.8997 97.1165 130.8804 97.1641 130.8804 Z " stroke-width="0.053906249813735485"/>
      <path id="ID0.8136006095446646" fill="#95AAB5" d="M 97.7678 130.8804 C 97.8154 130.8804 97.8585 130.8997 97.8898 130.9309 C 97.921 130.9622 97.9403 131.0053 97.9403 131.0529 C 97.9403 131.1005 97.921 131.1436 97.8898 131.1748 C 97.8585 131.206 97.8154 131.2254 97.7678 131.2254 C 97.7202 131.2254 97.6771 131.206 97.6459 131.1748 C 97.6147 131.1436 97.5953 131.1005 97.5953 131.0529 C 97.5953 131.0053 97.6147 130.9622 97.6459 130.9309 C 97.6771 130.8997 97.7202 130.8804 97.7678 130.8804 Z " stroke-width="0.053906249813735485"/>
      <path id="ID0.30047497199848294" fill="#95AAB5" d="M 98.4147 130.8804 C 98.4623 130.8804 98.5054 130.8997 98.5366 130.9309 C 98.5678 130.9622 98.5872 131.0053 98.5872 131.0529 C 98.5872 131.1005 98.5678 131.1436 98.5366 131.1748 C 98.5054 131.206 98.4623 131.2254 98.4147 131.2254 C 98.3671 131.2254 98.324 131.206 98.2928 131.1748 C 98.2615 131.1436 98.2422 131.1005 98.2422 131.0529 C 98.2422 131.0053 98.2615 130.9622 98.2928 130.9309 C 98.324 130.8997 98.3671 130.8804 98.4147 130.8804 Z " stroke-width="0.053906249813735485"/>
      <path id="ID0.7501604305580258" fill="#95AAB5" d="M 99.0184 130.8804 C 99.066 130.8804 99.1092 130.8997 99.1404 130.9309 C 99.1716 130.9622 99.1909 131.0053 99.1909 131.0529 C 99.1909 131.1005 99.1716 131.1436 99.1404 131.1748 C 99.1092 131.206 99.066 131.2254 99.0184 131.2254 C 98.9708 131.2254 98.9277 131.206 98.8965 131.1748 C 98.8653 131.1436 98.8459 131.1005 98.8459 131.0529 C 98.8459 131.0053 98.8653 130.9622 98.8965 130.9309 C 98.9277 130.8997 98.9708 130.8804 99.0184 130.8804 Z " stroke-width="0.053906249813735485"/>
      <path id="ID0.8581362324766815" fill="#95AAB5" d="M 99.6653 130.8804 C 99.7129 130.8804 99.756 130.8997 99.7873 130.9309 C 99.8185 130.9622 99.8378 131.0053 99.8378 131.0529 C 99.8378 131.1005 99.8185 131.1436 99.7873 131.1748 C 99.756 131.206 99.7129 131.2254 99.6653 131.2254 C 99.6177 131.2254 99.5746 131.206 99.5434 131.1748 C 99.5122 131.1436 99.4928 131.1005 99.4928 131.0529 C 99.4928 131.0053 99.5122 130.9622 99.5434 130.9309 C 99.5746 130.8997 99.6177 130.8804 99.6653 130.8804 Z " stroke-width="0.053906249813735485"/>
      <path id="ID0.9872115342877805" fill="#95AAB5" d="M 100.2691 130.8804 C 100.3167 130.8804 100.3598 130.8997 100.391 130.9309 C 100.4222 130.9622 100.4416 131.0053 100.4416 131.0529 C 100.4416 131.1005 100.4222 131.1436 100.391 131.1748 C 100.3598 131.206 100.3167 131.2254 100.2691 131.2254 C 100.2215 131.2254 100.1783 131.206 100.1471 131.1748 C 100.1159 131.1436 100.0966 131.1005 100.0966 131.0529 C 100.0966 131.0053 100.1159 130.9622 100.1471 130.9309 C 100.1783 130.8997 100.2215 130.8804 100.2691 130.8804 Z " stroke-width="0.053906249813735485"/>
      <path id="ID0.5511733586899936" fill="#95AAB5" d="M 100.9159 130.8804 C 100.9635 130.8804 101.0067 130.8997 101.0379 130.9309 C 101.0691 130.9622 101.0884 131.0053 101.0884 131.0529 C 101.0884 131.1005 101.0691 131.1436 101.0379 131.1748 C 101.0067 131.206 100.9635 131.2254 100.9159 131.2254 C 100.8683 131.2254 100.8252 131.206 100.794 131.1748 C 100.7628 131.1436 100.7434 131.1005 100.7434 131.0529 C 100.7434 131.0053 100.7628 130.9622 100.794 130.9309 C 100.8252 130.8997 100.8683 130.8804 100.9159 130.8804 Z " stroke-width="0.053906249813735485"/>
    </g>
    <path id="ID0.2837943476624787" fill="#93B5C1" d="M 103.9778 107.1185 C 103.9778 107.4635 103.7191 107.8947 103.3741 107.8947 C 103.0291 107.8947 102.7703 107.4204 102.7703 107.1185 C 102.7703 106.8166 103.0291 106.5147 103.3741 106.5147 C 103.7191 106.5147 103.9778 106.7735 103.9778 107.1185 Z " stroke-width="0.053906249813735485"/>
    <path id="ID0.9771860474720597" fill="#DFF1F7" d="M 102.7703 107.1185 C 102.7703 106.7735 103.0291 106.3854 103.3741 106.3854 C 103.7191 106.3854 103.9778 106.7735 103.9778 107.1185 " stroke-width="0.053906249813735485"/>
    <path id="ID0.7747780056670308" fill="#00233F" d="M 103.3741 106.5147 C 103.5406 106.5147 103.6916 106.5824 103.8008 106.6917 C 103.9102 106.801 103.9778 106.9519 103.9778 107.1185 C 103.9778 107.2851 103.9102 107.436 103.8008 107.5453 C 103.6916 107.6546 103.5406 107.7222 103.3741 107.7222 C 103.2075 107.7222 103.0566 107.6546 102.9473 107.5453 C 102.838 107.436 102.7703 107.2851 102.7703 107.1185 C 102.7703 106.9519 102.838 106.801 102.9473 106.6917 C 103.0566 106.5824 103.2075 106.5147 103.3741 106.5147 Z " stroke-width="0.053906249813735485"/>
    <path id="ID0.45106776617467403" fill="#2E79A3" d="M 103.3741 106.7304 C 103.4811 106.7304 103.5782 106.7739 103.6485 106.8441 C 103.7187 106.9144 103.7622 107.0114 103.7622 107.1185 C 103.7622 107.2256 103.7187 107.3226 103.6485 107.3929 C 103.5782 107.4631 103.4811 107.5066 103.3741 107.5066 C 103.267 107.5066 103.17 107.4631 103.0997 107.3929 C 103.0294 107.3226 102.9859 107.2256 102.9859 107.1185 C 102.9859 107.0114 103.0294 106.9144 103.0997 106.8441 C 103.17 106.7739 103.267 106.7304 103.3741 106.7304 Z " stroke-width="0.053906249813735485"/>
    <path id="ID0.6990586868487298" fill="#225A7F" d="M 103.1153 106.8597 C 103.2878 106.6872 103.5466 106.6872 103.6759 106.8597 C 103.8484 107.0322 103.8484 107.291 103.6759 107.4204 " stroke-width="0.053906249813735485"/>
    <g id="ID0.24915265571326017">
      <path id="ID0.008504712022840977" fill="#53ACD3" d="M 103.1584 106.9891 C 103.1822 106.9891 103.2038 106.9988 103.2194 107.0144 C 103.235 107.03 103.2447 107.0516 103.2447 107.0754 C 103.2447 107.0991 103.235 107.1207 103.2194 107.1363 C 103.2038 107.152 103.1822 107.1616 103.1584 107.1616 C 103.1347 107.1616 103.1131 107.152 103.0975 107.1363 C 103.0818 107.1207 103.0722 107.0991 103.0722 107.0754 C 103.0722 107.0516 103.0818 107.03 103.0975 107.0144 C 103.1131 106.9988 103.1347 106.9891 103.1584 106.9891 Z " stroke-width="0.053906249813735485"/>
      <path id="ID0.20491063920781016" fill="#53ACD3" d="M 103.5034 107.2479 C 103.5272 107.2479 103.5488 107.2575 103.5644 107.2732 C 103.58 107.2888 103.5897 107.3104 103.5897 107.3341 C 103.5897 107.3579 103.58 107.3795 103.5644 107.3951 C 103.5488 107.4107 103.5272 107.4204 103.5034 107.4204 C 103.4797 107.4204 103.4581 107.4107 103.4425 107.3951 C 103.4268 107.3795 103.4172 107.3579 103.4172 107.3341 C 103.4172 107.3104 103.4268 107.2888 103.4425 107.2732 C 103.4581 107.2575 103.4797 107.2479 103.5034 107.2479 Z " stroke-width="0.053906249813735485"/>
    </g>
    <path id="ID0.09299705037847161" fill="#ED900A" d="M 92.6791 127.5597 L 104.7541 127.5597 L 104.7541 129.2847 L 92.6791 129.2847 L 92.6791 127.5597 Z " stroke-width="0.053906249813735485"/>
    <path id="ID0.6273409179411829" fill="#094670" d="M 95.2666 107.291 C 95.2666 107.5497 95.0941 107.7222 94.9216 107.7222 L 93.4984 107.7222 C 93.2828 107.7222 93.1103 107.5497 93.1103 107.291 L 93.1103 107.291 C 93.1103 107.0322 93.2828 106.8597 93.4553 106.8597 L 94.8784 106.8597 C 95.0941 106.8597 95.2666 107.0322 95.2666 107.291 L 95.2666 107.291 Z " stroke-width="0.053906249813735485"/>
    <path id="ID0.08951936895027757" fill="#27D68A" d="M 93.5416 106.946 C 93.6011 106.946 93.655 106.9701 93.694 107.0092 C 93.733 107.0482 93.7572 107.1021 93.7572 107.1616 C 93.7572 107.2211 93.733 107.275 93.694 107.3141 C 93.655 107.3531 93.6011 107.3772 93.5416 107.3772 C 93.4821 107.3772 93.4281 107.3531 93.3891 107.3141 C 93.3501 107.275 93.3259 107.2211 93.3259 107.1616 C 93.3259 107.1021 93.3501 107.0482 93.3891 107.0092 C 93.4281 106.9701 93.4821 106.946 93.5416 106.946 Z " stroke-width="0.053906249813735485"/>
    <path id="ID0.548602310474962" fill="#15AF83" d="M 93.5416 106.946 C 93.6709 106.946 93.7572 107.0322 93.7572 107.1616 C 93.7572 107.291 93.6709 107.3772 93.5416 107.3772 " stroke-width="0.053906249813735485"/>
    <path id="ID0.8723138603381813" fill="#CFFFEF" d="M 93.4553 107.0754 C 93.4553 107.1185 93.4122 107.1185 93.3691 107.1185 C 93.3259 107.1185 93.3259 107.0754 93.3259 107.0322 C 93.3259 106.9891 93.3691 106.9891 93.3691 106.9891 C 93.4553 107.0322 93.4553 107.0754 93.4553 107.0754 Z " stroke-width="0.053906249813735485"/>
  </g>
</svg>