<svg xmlns="http://www.w3.org/2000/svg" xmlns:xlink="http://www.w3.org/1999/xlink" version="1.1" width="58.0231523209046" height="109.42778488926398" viewBox="0.0540286156917274 0.40815587375409007 58.0231523209046 109.42778488926398">
  <!-- Exported by Scratch - http://scratch.mit.edu/ -->
  <g id="ID0.02844411786645651">
    <g id="layer1">
      <g id="g52">
        <path id="path70" fill="#ccfdfd" stroke-width="0.17351242832647562" d="M 32.3208 109.6626 C 32.2959 109.639 31.6309 109.5715 30.844 109.5118 C 27.8568 109.2869 25.9852 109.0731 25.5458 108.9065 C 25.2959 108.8114 24.97 108.4993 24.8225 108.214 C 24.5424 107.6723 24.4834 106.4447 24.7097 105.8676 C 24.7818 105.6833 24.7464 105.1265 24.6316 104.6314 C 24.4323 103.7743 24.2467 100.8409 24.1273 96.6595 C 24.0801 95.001 24.2277 92.4034 24.4487 91.0204 C 24.6959 89.4733 24.9582 88.2313 25.1733 87.5873 C 25.3097 87.1781 25.4219 86.7767 25.4219 86.6941 C 25.4219 86.6121 25.0507 86.3065 24.5975 86.0153 C 24.1444 85.7242 23.4414 85.1667 23.0361 84.7765 C 22.3685 84.1345 22.2983 83.987 22.2983 83.2308 C 22.2983 82.4032 23.4892 78.0232 23.964 77.105 C 24.2945 76.4663 24.2749 76.3666 23.7673 76.0951 C 23.5253 75.9653 23.1646 75.5961 22.9659 75.2741 C 22.4708 74.4727 22.5941 73.325 23.3928 71.3052 C 23.8361 70.1844 24.2237 68.6309 24.7221 65.9762 C 25.109 63.9157 25.4973 62.0408 25.5851 61.8099 C 25.673 61.5791 26.2829 60.8538 26.94 60.1986 C 27.5978 59.5435 28.3592 58.6247 28.632 58.1578 C 29.3632 56.9046 29.3074 56.176 28.2549 53.2813 C 27.4935 51.1861 27.262 50.7388 26.5734 50.0279 C 26.134 49.5748 25.6756 49.2029 25.5543 49.2029 C 25.4337 49.2023 24.2808 48.6711 22.9921 48.0218 C 17.3287 45.1698 14.03 42.4935 12.6253 39.6093 C 11.2449 36.7763 10.2186 32.6316 10.031 29.1336 C 9.9661 27.9184 9.85 27.1171 9.7346 27.0882 C 7.0458 26.4186 4.4646 25.2356 3.4193 24.1942 C 1.9949 22.7764 0.6407 19.2738 0.2328 15.9528 C -0.3568 11.1563 1.8932 6.9933 6.8058 3.7917 C 9.6218 1.9555 12.386 0.9607 15.6525 0.6079 C 18.9151 0.2544 22.941 0.7554 24.928 1.7614 C 25.8075 2.206 28.5992 4.8043 29.6019 6.11 L 30.0196 6.6543 L 31.5811 6.3146 C 33.8652 5.8175 37.2603 5.8234 39.6493 6.3277 C 44.1507 7.2786 49.3518 9.5044 53.7909 12.3794 C 57.5414 14.8091 57.9493 15.4341 57.9519 18.7524 C 57.9539 21.3703 57.6548 22.3645 56.5839 23.2971 L 55.8475 23.9371 L 56.0757 24.9018 C 56.6705 27.4174 56.8869 29.1166 56.8948 31.3319 C 56.904 33.8665 56.7184 35.0017 55.6966 38.6545 L 55.1222 40.7078 L 55.8029 41.8829 C 56.1773 42.5296 56.5754 43.4962 56.6875 44.0307 C 56.8653 44.878 56.8535 45.0609 56.5957 45.4537 C 56.2455 45.9876 54.6657 46.8224 52.7987 47.4585 L 51.4595 47.9156 L 50.4837 49.9046 C 48.2691 54.4178 46.5922 55.8881 43.1664 56.3229 C 41.5393 56.5288 38.4414 56.2317 36.6812 55.6999 C 36.4589 55.633 36.3808 55.7937 36.2982 56.4908 L 36.1946 57.3656 L 37.6892 58.7939 C 39.5129 60.5364 41.0534 62.5654 41.5688 63.9052 C 41.8803 64.7138 41.9584 65.2909 41.9748 66.9022 C 41.9951 68.8912 41.9977 68.9043 42.9211 71.1904 C 43.5592 72.7715 44.0563 73.7218 44.5206 74.2497 C 45.64 75.5206 45.7476 76.2755 44.9685 77.3877 C 44.7344 77.7228 44.6806 77.9195 44.8124 77.9635 C 44.9219 78.0002 45.2695 78.2028 45.5843 78.4147 C 46.0787 78.7465 46.1633 78.9118 46.2092 79.6259 C 46.2794 80.7067 45.8446 82.1691 45.3029 82.678 C 45.0085 82.9547 44.6491 83.0885 44.1651 83.101 C 43.5047 83.1187 43.447 83.1613 43.289 83.7496 C 43.1959 84.0958 42.9185 84.6755 42.6725 85.0375 C 42.4273 85.3995 42.2614 85.8304 42.304 85.995 C 42.3473 86.1596 42.1951 87.4555 41.9663 88.8739 C 41.7374 90.2931 41.5111 92.0788 41.4626 92.8422 C 41.4141 93.6055 41.3032 94.5813 41.216 95.0109 C 41.0501 95.828 40.9268 96.7146 40.7583 98.2964 C 40.7032 98.8145 40.6022 99.4001 40.5347 99.5975 C 40.3628 100.0979 40.2861 103.1788 40.4245 104.0005 C 40.5281 104.6111 40.6127 104.7029 41.2659 104.9101 C 43.3178 105.5633 45.3757 106.808 45.3757 107.3969 C 45.3757 108.3478 42.2594 108.9937 36.8733 109.161 C 36.1408 109.1833 35.2857 109.3249 34.9165 109.4843 C 34.3794 109.7171 32.5136 109.845 32.3208 109.6626 Z M 33.94 105.3482 C 33.6783 104.8353 33.378 103.5283 32.6192 99.6086 L 32.4848 98.9148 L 32.2611 99.9562 C 32.1379 100.5287 31.9575 101.3485 31.8605 101.778 C 31.7627 102.2076 31.6795 102.9919 31.6755 103.5218 C 31.6716 104.051 31.5706 104.5835 31.4512 104.7035 C 31.2774 104.8793 31.286 104.954 31.4945 105.078 C 31.6375 105.1639 32.2625 105.5705 32.8828 105.9823 L 34.0101 106.7319 L 34.0672 106.2204 C 34.098 105.939 34.041 105.5462 33.94 105.3482 Z M 45.4925 104.093 C 45.3128 103.9133 45.7213 103.5237 45.9843 103.6247 C 46.1148 103.6746 46.1784 103.8261 46.1266 103.9612 C 46.0282 104.2182 45.6885 104.2884 45.4925 104.093 Z "/>
        <path id="path68" fill="#e4e4e4" stroke-width="0.17351242832647562" d="M 32.3208 109.6626 C 32.2959 109.639 31.6309 109.5715 30.844 109.5118 C 27.8568 109.2869 25.9852 109.0731 25.5458 108.9065 C 25.2959 108.8114 24.97 108.4993 24.8225 108.214 C 24.5424 107.6723 24.4834 106.4447 24.7097 105.8676 C 24.7818 105.6833 24.7464 105.1265 24.6316 104.6314 C 24.4323 103.7743 24.2467 100.8409 24.1273 96.6595 C 24.0801 95.001 24.2277 92.4034 24.4487 91.0204 C 24.6959 89.4733 24.9582 88.2313 25.1733 87.5873 C 25.3097 87.1781 25.4219 86.7767 25.4219 86.6941 C 25.4219 86.6121 25.0507 86.3065 24.5975 86.0153 C 24.1444 85.7242 23.4414 85.1667 23.0361 84.7765 C 22.3685 84.1345 22.2983 83.987 22.2983 83.2308 C 22.2983 82.4032 23.4892 78.0232 23.964 77.105 C 24.2945 76.4663 24.2749 76.3666 23.7673 76.0951 C 23.5253 75.9653 23.1646 75.5961 22.9659 75.2741 C 22.4708 74.4727 22.5941 73.325 23.3928 71.3052 C 23.8361 70.1844 24.2237 68.6309 24.7221 65.9762 C 25.109 63.9157 25.4973 62.0408 25.5851 61.8099 C 25.673 61.5791 26.2829 60.8538 26.94 60.1986 C 27.5978 59.5435 28.3592 58.6247 28.632 58.1578 C 29.3632 56.9046 29.3074 56.176 28.2549 53.2813 C 27.4935 51.1861 27.262 50.7388 26.5734 50.0279 C 26.134 49.5748 25.6756 49.2029 25.5543 49.2029 C 25.4337 49.2023 24.2808 48.6711 22.9921 48.0218 C 17.3287 45.1698 14.03 42.4935 12.6253 39.6093 C 11.2449 36.7763 10.2186 32.6316 10.031 29.1336 C 9.9661 27.9184 9.85 27.1171 9.7346 27.0882 C 7.0458 26.4186 4.4646 25.2356 3.4193 24.1942 C 1.9949 22.7764 0.6407 19.2738 0.2328 15.9528 C -0.3568 11.1563 1.8932 6.9933 6.8058 3.7917 C 9.6218 1.9555 12.386 0.9607 15.6525 0.6079 C 18.9151 0.2544 22.941 0.7554 24.928 1.7614 C 25.8075 2.206 28.5992 4.8043 29.6019 6.11 L 30.0196 6.6543 L 31.5811 6.3146 C 33.8652 5.8175 37.2603 5.8234 39.6493 6.3277 C 44.1507 7.2786 49.3518 9.5044 53.7909 12.3794 C 57.5414 14.8091 57.9493 15.4341 57.9519 18.7524 C 57.9539 21.3703 57.6548 22.3645 56.5839 23.2971 L 55.8475 23.9371 L 56.0757 24.9018 C 56.6705 27.4174 56.8869 29.1166 56.8948 31.3319 C 56.904 33.8665 56.7184 35.0017 55.6966 38.6545 L 55.1222 40.7078 L 55.8029 41.8829 C 56.1773 42.5296 56.5754 43.4962 56.6875 44.0307 C 56.8653 44.878 56.8535 45.0609 56.5957 45.4537 C 56.2455 45.9876 54.6657 46.8224 52.7987 47.4585 L 51.4595 47.9156 L 50.4837 49.9046 C 48.2691 54.4178 46.5922 55.8881 43.1664 56.3229 C 41.5393 56.5288 38.4414 56.2317 36.6812 55.6999 C 36.4589 55.633 36.3808 55.7937 36.2982 56.4908 L 36.1946 57.3656 L 37.6892 58.7939 C 39.5129 60.5364 41.0534 62.5654 41.5688 63.9052 C 41.8803 64.7138 41.9584 65.2909 41.9748 66.9022 C 41.9951 68.8912 41.9977 68.9043 42.9211 71.1904 C 43.5592 72.7715 44.0563 73.7218 44.5206 74.2497 C 45.64 75.5206 45.7476 76.2755 44.9685 77.3877 C 44.7344 77.7228 44.6806 77.9195 44.8124 77.9635 C 44.9219 78.0002 45.2695 78.2028 45.5843 78.4147 C 46.0787 78.7465 46.1633 78.9118 46.2092 79.6259 C 46.2794 80.7067 45.8446 82.1691 45.3029 82.678 C 45.0085 82.9547 44.6491 83.0885 44.1651 83.101 C 43.5047 83.1187 43.447 83.1613 43.289 83.7496 C 43.1959 84.0958 42.9185 84.6755 42.6725 85.0375 C 42.4273 85.3995 42.2614 85.8304 42.304 85.995 C 42.3473 86.1596 42.1951 87.4555 41.9663 88.8739 C 41.7374 90.2931 41.5111 92.0788 41.4626 92.8422 C 41.4141 93.6055 41.3032 94.5813 41.216 95.0109 C 41.0501 95.828 40.9268 96.7146 40.7583 98.2964 C 40.7032 98.8145 40.6022 99.4001 40.5347 99.5975 C 40.3628 100.0979 40.2861 103.1788 40.4245 104.0005 C 40.5281 104.6111 40.6127 104.7029 41.2659 104.9101 C 43.3178 105.5633 45.3757 106.808 45.3757 107.3969 C 45.3757 108.3478 42.2594 108.9937 36.8733 109.161 C 36.1408 109.1833 35.2857 109.3249 34.9165 109.4843 C 34.3794 109.7171 32.5136 109.845 32.3208 109.6626 Z M 33.94 105.3482 C 33.6783 104.8353 33.378 103.5283 32.6192 99.6086 L 32.4848 98.9148 L 32.2611 99.9562 C 32.1379 100.5287 31.9575 101.3485 31.8605 101.778 C 31.7627 102.2076 31.6795 102.9919 31.6755 103.5218 C 31.6716 104.051 31.5706 104.5835 31.4512 104.7035 C 31.2774 104.8793 31.286 104.954 31.4945 105.078 C 31.6375 105.1639 32.2625 105.5705 32.8828 105.9823 L 34.0101 106.7319 L 34.0672 106.2204 C 34.098 105.939 34.041 105.5462 33.94 105.3482 Z M 33.056 86.9393 C 34.2908 87.0462 37.6419 86.6613 39.0637 86.2494 C 40.1923 85.9222 41.5164 85.0362 42.0482 84.2532 C 42.4174 83.7102 42.4509 83.5174 42.361 82.4314 C 42.306 81.7632 41.8948 79.4207 41.4475 77.2257 C 40.5773 72.9598 40.5386 72.4377 40.7052 67.1619 C 40.7845 64.6561 40.7209 64.4075 39.5536 62.648 L 38.9201 61.6945 L 38.5784 62.1293 C 38.3082 62.4723 38.1377 62.5405 37.7718 62.4533 C 37.1783 62.311 34.4646 61.24 31.606 60.0209 L 29.3756 59.0694 L 29.1068 59.472 C 28.9586 59.6937 28.3729 60.3344 27.805 60.8971 C 26.5793 62.1096 26.4672 62.4047 25.8534 66.0346 C 25.2402 69.6585 25.1608 69.9857 24.4578 71.7839 C 23.5312 74.1553 23.6014 74.7442 24.8893 75.3954 C 26.2993 76.1082 31.1581 77.3129 32.6245 77.3129 C 33.3891 77.3129 33.7839 76.7489 33.8829 75.518 C 33.9347 74.8694 33.8547 74.392 33.5911 73.7828 C 33.2094 72.9001 33.0087 71.1314 32.7877 66.7074 C 32.7005 64.9682 32.7235 64.3105 32.8743 64.2174 C 32.9871 64.1478 33.1196 64.1314 33.1688 64.1806 C 33.2179 64.2298 33.4855 66.0923 33.7636 68.3187 C 34.1269 71.2317 34.3748 72.6109 34.6463 73.2352 C 35.1525 74.396 35.1447 76.28 34.6286 77.2906 C 34.2456 78.0415 33.8324 78.3537 33.2206 78.3537 C 32.9386 78.3537 32.8671 78.4311 32.9392 78.6573 C 33.3327 79.8836 33.7505 81.6235 33.7505 82.0379 C 33.7505 82.7895 33.315 83.4794 32.6376 83.8007 C 31.1837 84.4899 28.1578 84.6001 27.0063 84.0047 C 26.3373 83.6591 25.9419 82.9206 25.9419 82.0176 C 25.9419 81.2011 26.3321 79.2751 26.7151 78.1963 C 26.8646 77.7759 26.9604 77.4054 26.9276 77.3726 C 26.8954 77.3405 26.4974 77.2021 26.0442 77.0657 L 25.2199 76.8178 L 24.9713 77.412 C 24.6506 78.1799 23.1659 83.3023 23.1659 83.642 C 23.1659 84.0361 24.9884 85.3963 26.5879 86.195 C 28.165 86.9833 29.5494 87.2266 31.061 86.982 C 31.5378 86.9046 32.4356 86.8849 33.056 86.9393 Z M 43.6254 77.2014 C 44.0156 76.7588 44.3343 76.2637 44.3343 76.1017 C 44.3343 75.9397 44.0156 75.3619 43.6254 74.8176 C 43.2182 74.2484 42.6647 73.1119 42.3237 72.1433 L 41.7302 70.4586 L 41.7984 72.0207 C 41.8705 73.6634 42.5958 78.0068 42.7985 78.0068 C 42.8634 78.0068 43.2359 77.6441 43.6254 77.2014 Z M 45.4925 104.093 C 45.3128 103.9133 45.7213 103.5237 45.9843 103.6241 C 46.1148 103.6746 46.1784 103.8261 46.1266 103.9612 C 46.0282 104.2182 45.6885 104.2884 45.4925 104.093 Z "/>
        <path id="path66" fill="#f5dcbd" stroke-width="0.17351242832647562" d="M 32.1667 109.5066 C 32.1228 109.4626 31.3096 109.382 30.3593 109.3282 C 27.8083 109.1819 25.7334 108.8895 25.2959 108.6134 C 24.7798 108.2874 24.5877 107.4493 24.7667 106.3069 C 24.8598 105.7154 24.8448 105.0321 24.7267 104.4628 C 24.4113 102.9447 24.248 99.629 24.2906 95.6181 C 24.3286 92.0932 24.3726 91.6099 24.8671 89.3087 C 25.1615 87.9381 25.4435 86.776 25.4933 86.7262 C 25.5432 86.6764 25.0526 86.2632 24.4034 85.8068 C 23.7542 85.351 23.0053 84.7201 22.7403 84.4047 C 22.3095 83.8925 22.2675 83.7338 22.3508 82.9265 C 22.4563 81.9035 23.7693 77.4224 24.1306 76.8512 C 24.3483 76.507 24.3188 76.4394 23.7666 76.0184 C 22.4242 74.994 22.3757 74.15 23.4873 71.2127 C 23.9653 69.949 24.3293 68.4931 24.7182 66.2943 C 25.5537 61.5686 25.473 61.7883 26.8823 60.3862 C 28.2385 59.0379 29.2386 57.3754 29.2386 56.4704 C 29.2386 56.1517 28.8399 54.7575 28.3513 53.3718 C 27.5571 51.1152 27.3801 50.769 26.66 50.0581 C 26.1032 49.5085 25.3766 49.0554 24.3011 48.5878 C 22.5154 47.8113 19.298 45.9994 17.5267 44.7717 C 15.7902 43.5683 13.6221 41.3458 12.8798 40.0074 C 11.5249 37.5658 10.4612 33.5157 10.1215 29.5061 L 9.9156 27.0738 L 8.5161 26.6862 C 6.5015 26.1294 4.0928 24.9005 3.3052 24.0289 C 2.4939 23.1311 1.4565 20.9677 0.8564 18.9255 C 0.3088 17.0611 0.0898 13.6103 0.421 12.0633 C 0.7102 10.711 1.8303 8.5207 2.8841 7.2458 C 4.6043 5.1663 7.6052 3.0841 10.6363 1.8676 C 12.9198 0.9502 14.8616 0.6059 17.7871 0.5993 C 22.6839 0.5875 24.913 1.3312 27.4063 3.8068 C 28.188 4.5833 29.0956 5.5519 29.4235 5.9598 L 30.0196 6.7009 L 31.8414 6.3356 C 33.3714 6.028 34.0803 5.9828 36.2661 6.0529 C 39.1686 6.1454 41.3196 6.6005 44.5947 7.815 C 48.5642 9.286 54.4073 12.5151 56.3636 14.3186 C 57.7276 15.5757 58.2398 17.5484 57.8778 20.1492 C 57.6437 21.8327 57.1453 22.9082 56.3675 23.4059 C 55.9288 23.6873 55.8009 23.8728 55.8698 24.1312 C 55.9203 24.3221 56.1616 25.532 56.4055 26.8206 C 57.1991 31.0066 57.0404 33.5347 55.6691 38.5607 L 55.0461 40.8442 L 55.4219 41.3714 C 56.0521 42.2567 56.6698 43.7697 56.6993 44.4996 C 56.7446 45.6479 55.8553 46.3319 53.0551 47.3024 L 51.451 47.8579 L 50.407 49.9623 C 48.0146 54.7851 46.3266 56.1052 42.3387 56.2737 C 40.5825 56.3478 39.3227 56.218 36.7435 55.6946 L 36.1795 55.5799 L 36.1861 56.5996 C 36.1926 57.603 36.2051 57.6279 36.9658 58.188 C 38.2033 59.0982 40.4645 61.8132 41.1714 63.2376 C 41.7813 64.4666 41.8115 64.6121 41.9171 66.8812 C 42.0207 69.0932 42.0692 69.3437 42.6771 70.8002 C 43.5074 72.7919 44.0222 73.7447 44.7731 74.6799 C 45.5207 75.6118 45.5731 76.4204 44.9462 77.3437 L 44.5166 77.9759 L 45.019 78.151 C 46.2401 78.5766 46.5109 79.4711 45.9699 81.2929 C 45.5948 82.556 45.0787 83.0387 44.1041 83.0387 C 43.3526 83.0387 43.3356 83.0511 43.2326 83.6892 C 43.1749 84.0473 42.9355 84.6211 42.7014 84.9647 C 42.3774 85.4389 42.2469 85.9196 42.1584 86.9603 C 42.0941 87.7138 42.0069 88.3873 41.9656 88.4575 C 41.9236 88.527 41.8148 89.1907 41.7243 89.9317 C 41.6338 90.6734 41.4396 92.2565 41.2934 93.4494 C 41.1472 94.6423 40.9865 95.9696 40.9367 96.3992 C 40.8868 96.8287 40.7084 98.078 40.5399 99.1752 C 40.2513 101.0527 40.2245 101.597 40.3091 103.7952 L 40.3438 104.6852 L 41.4278 105.0826 C 42.8726 105.6111 44.735 106.543 45.0091 106.8735 C 45.339 107.271 45.1796 107.7071 44.5763 108.0592 C 43.6825 108.5812 42.2345 108.7753 37.5672 108.997 C 36.47 109.0495 35.2778 109.2029 34.9178 109.3387 C 34.3112 109.5682 32.3477 109.6876 32.1667 109.5066 Z M 34.0213 105.335 C 33.6619 104.3487 33.1294 102.1007 32.8704 100.4763 C 32.7484 99.7129 32.5976 99.0276 32.5353 98.9535 C 32.3746 98.7627 31.8952 100.8638 31.6526 102.8188 C 31.5404 103.7257 31.3693 104.5671 31.2729 104.6884 C 31.0584 104.9593 30.9856 104.8878 32.6428 106.0276 L 34.0101 106.9673 L 34.142 106.4984 C 34.2246 106.2046 34.1793 105.7698 34.0213 105.335 Z M 33.5767 86.9308 C 36.3061 86.8757 38.6387 86.5334 39.8638 86.0081 C 40.7865 85.6127 41.8253 84.7378 42.1741 84.0624 C 42.5781 83.2813 42.4784 82.253 41.538 77.5254 C 40.576 72.6863 40.4756 71.4344 40.757 67.7639 C 40.9419 65.3578 40.7366 64.4403 39.6316 62.7313 C 38.9188 61.6283 38.9057 61.6184 38.6506 62.0014 C 38.5017 62.2257 38.2151 62.3903 37.9738 62.3903 C 37.4964 62.3903 35.487 61.6375 31.8591 60.0983 L 29.3612 59.0392 L 29.011 59.5435 C 28.8189 59.8209 28.2077 60.4833 27.6535 61.0158 C 26.5046 62.1175 26.4901 62.1601 25.6776 66.8707 C 25.2618 69.2827 25.0244 70.1425 24.0165 72.8883 C 23.5948 74.0366 23.6066 74.2412 24.1313 74.8648 C 24.4775 75.2767 24.9884 75.5272 26.4377 75.9954 C 28.6326 76.705 31.4821 77.3129 32.6153 77.3129 C 33.3707 77.3129 33.4363 77.2749 33.6724 76.7109 C 34.0318 75.8505 33.9859 74.5468 33.5616 73.5887 C 33.2625 72.9125 33.1543 72.0646 32.9373 68.7043 C 32.793 66.468 32.7241 64.5098 32.7845 64.3531 C 33.0488 63.6645 33.2855 64.6607 33.7596 68.4518 C 34.1046 71.2094 34.3728 72.7217 34.6135 73.266 C 35.0332 74.2143 35.0896 76.1574 34.7237 77.0336 C 34.4102 77.7831 33.7885 78.3537 33.2835 78.3537 C 32.7989 78.3537 32.7995 78.3366 33.2435 79.742 C 33.4403 80.3624 33.6147 81.3244 33.6318 81.8805 C 33.6613 82.8177 33.6226 82.9285 33.1065 83.3902 C 32.3464 84.0709 31.3607 84.3208 29.4124 84.3273 C 25.9537 84.3391 25.292 83.0754 26.5518 78.8658 C 26.7892 78.073 26.9833 77.4074 26.9833 77.3851 C 26.9833 77.3477 25.416 76.7922 25.3097 76.7922 C 25.1366 76.7922 24.7241 77.953 23.9398 80.6444 L 23.0453 83.7155 L 23.5823 84.2204 C 24.3339 84.9267 26.1301 86.1045 27.1118 86.5347 C 28.0831 86.961 29.598 87.2056 30.4531 87.0751 C 30.7876 87.0239 32.1929 86.959 33.5767 86.9308 Z M 43.8825 76.9916 C 44.4642 76.1522 44.4517 75.7987 43.8117 75.0229 C 43.1572 74.2281 42.5401 72.9086 42.1505 71.4678 C 41.9551 70.7471 41.7997 70.4349 41.7085 70.5805 C 41.5216 70.8796 41.6521 72.1485 42.2076 75.4295 L 42.6666 78.1438 L 43.049 77.894 C 43.2588 77.7556 43.6346 77.3497 43.8825 76.9916 Z M 24.4008 47.4251 C 23.6355 46.4073 22.3908 44.3422 21.6064 42.7879 C 21.192 41.9669 20.8188 41.5557 19.7414 40.734 C 18.0992 39.4808 16.6434 37.9633 16.3043 37.152 C 15.5574 35.3657 16.7398 31.6394 18.3812 30.6072 C 19.4685 29.9232 21.5251 30.5554 22.8354 31.9772 C 23.701 32.9163 23.8598 33.3406 23.8598 34.7138 L 23.8598 35.8175 L 24.7707 36.2562 C 26.677 37.1737 26.904 37.072 27.1394 35.1971 C 27.3223 33.7406 27.4561 33.4678 28.6759 32.0736 C 30.8932 29.5389 34.9761 26.3445 37.8275 24.9129 C 41.2009 23.2197 43.6451 22.9364 51.0425 23.3803 C 54.345 23.5784 54.5811 23.5718 55.2612 23.2656 C 56.6541 22.6373 57.1741 21.4805 57.1741 19.0127 C 57.1741 16.2682 56.6279 15.3337 54.0007 13.586 C 49.7938 10.7871 44.6662 8.484 40.17 7.3724 C 38.7765 7.0281 38.0794 6.9651 35.6588 6.9651 C 33.2383 6.9651 32.5412 7.0281 31.1476 7.3724 C 25.9399 8.6597 21.032 11.1157 17.1798 14.3632 C 13.9913 17.0506 12.365 19.5138 11.4987 22.9672 C 10.9432 25.1798 10.9491 29.8944 11.5105 32.6959 C 12.8044 39.1522 14.4911 41.7688 19.5223 45.1226 C 20.8516 46.0086 24.8362 48.3301 25.0369 48.3347 C 25.0638 48.3353 24.7779 47.9261 24.4008 47.4251 Z M 10.1989 24.6375 C 10.37 23.0872 10.8888 21.2024 11.5387 19.7695 C 13.6989 15.0052 20.2581 9.9621 27.5407 7.4662 L 29.3993 6.8287 L 28.668 5.9696 C 27.6771 4.8043 25.6815 3.1097 24.7182 2.6159 C 23.2276 1.8512 22.0386 1.6342 18.8278 1.5417 C 15.3561 1.442 13.5631 1.7076 11.1275 2.6828 C 5.7034 4.8548 1.8591 8.8656 1.2971 12.9394 C 0.9653 15.3482 1.6237 18.7786 2.9451 21.5264 C 3.7419 23.1829 4.822 24.166 6.6333 24.8821 C 8.2105 25.5058 9.6454 25.9465 9.892 25.8829 C 9.9877 25.8579 10.1254 25.2979 10.1989 24.6375 Z M 45.6374 103.8569 C 45.6977 103.7605 45.819 103.7257 45.9082 103.7808 C 46.1489 103.9297 46.1037 104.0333 45.7987 104.0333 C 45.6505 104.0333 45.5777 103.9539 45.6374 103.8569 Z "/>
        <path id="path64" fill="#96affb" stroke-width="0.17351242832647562" d="M 32.1667 109.5066 C 32.1228 109.4626 31.3096 109.382 30.3593 109.3269 C 27.06 109.136 25.5635 108.8763 25.1018 108.414 C 24.7129 108.0251 24.69 107.9038 24.7772 106.6657 C 24.8343 105.8551 24.7687 104.6904 24.6093 103.6864 C 24.4257 102.5322 24.3391 100.5294 24.3208 97.0065 L 24.2939 91.9745 L 24.8572 89.3868 C 25.1674 87.963 25.4579 86.7616 25.5025 86.717 C 25.5471 86.6724 25.0526 86.2632 24.4034 85.8068 C 23.7542 85.351 23.0053 84.7201 22.7403 84.4047 C 22.3095 83.8925 22.2675 83.7338 22.3508 82.9265 C 22.4563 81.9035 23.7693 77.4224 24.1306 76.8512 C 24.3483 76.507 24.3188 76.4394 23.7666 76.0184 C 22.4242 74.994 22.3757 74.15 23.4873 71.2127 C 23.9778 69.9149 24.3404 68.4466 24.7949 65.9119 C 25.1412 63.9839 25.5065 62.1896 25.6074 61.9247 C 25.7084 61.6591 26.3124 60.9338 26.9505 60.3114 C 28.2372 59.0576 29.2386 57.3761 29.2386 56.4704 C 29.2386 56.1517 28.8399 54.7575 28.3513 53.3718 C 27.5571 51.1152 27.3801 50.769 26.66 50.0581 C 26.1032 49.5085 25.3766 49.0554 24.3011 48.5878 C 22.5226 47.8146 19.3079 46.0046 17.5267 44.7743 C 16.8585 44.3127 15.6459 43.266 14.8314 42.4482 C 13.6431 41.256 13.209 40.6697 12.6365 39.4867 C 11.2711 36.6668 10.4501 33.4015 10.1267 29.5081 L 9.9254 27.0764 L 8.5207 26.6875 C 6.5022 26.1294 4.0934 24.9011 3.3052 24.0289 C 2.4939 23.1311 1.4565 20.9677 0.8564 18.9255 C 0.3088 17.0611 0.0898 13.6103 0.421 12.0633 C 0.7102 10.711 1.8303 8.5207 2.8841 7.2458 C 4.6043 5.1663 7.6052 3.0841 10.6363 1.8676 C 12.906 0.9561 14.8577 0.6105 17.7871 0.602 C 22.6839 0.5875 24.9123 1.3299 27.4063 3.8068 C 28.188 4.5833 29.0956 5.5519 29.4235 5.9598 L 30.0196 6.7009 L 31.8414 6.3356 C 34.5361 5.7945 38.0754 5.925 40.9058 6.6707 C 43.748 7.4189 45.882 8.238 49.1059 9.8198 C 53.4925 11.9721 56.6456 14.1651 57.3565 15.5593 C 58.1664 17.147 58.1539 20.5571 57.3322 22.255 C 57.0489 22.84 56.4501 23.4499 55.8383 23.7771 C 55.8193 23.7869 55.9917 24.73 56.2213 25.8717 C 57.2522 31.0033 57.1558 32.9917 55.5904 38.821 L 55.0467 40.8442 L 55.4219 41.3714 C 56.0534 42.2581 56.6698 43.7703 56.6993 44.5035 C 56.7203 45.0268 56.622 45.3108 56.3039 45.6498 C 55.8016 46.1843 54.2644 46.9345 52.5691 47.4729 L 51.3467 47.8605 L 50.8687 49.0232 C 50.2398 50.5512 48.8711 52.838 47.9143 53.9574 C 45.8479 56.3767 42.6102 56.8797 36.7435 55.694 L 36.1795 55.5799 L 36.1861 56.5996 C 36.1926 57.603 36.2051 57.6279 36.9658 58.188 C 38.2033 59.0982 40.4645 61.8132 41.1714 63.2376 C 41.7813 64.4666 41.8115 64.6121 41.9171 66.8812 C 42.0207 69.0932 42.0692 69.3437 42.6771 70.8002 C 43.5074 72.7919 44.0222 73.7447 44.7731 74.6799 C 45.5207 75.6118 45.5731 76.4204 44.9462 77.3437 L 44.5166 77.9759 L 45.019 78.151 C 46.2401 78.5766 46.5109 79.4711 45.9699 81.2929 C 45.5948 82.5554 45.0787 83.0387 44.1048 83.0387 C 43.3585 83.0387 43.3362 83.0544 43.2365 83.6695 C 43.1801 84.0171 42.9401 84.5831 42.7034 84.928 C 42.3722 85.41 42.2463 85.875 42.1571 86.9426 C 42.0935 87.706 42.0069 88.3873 41.9656 88.4575 C 41.9236 88.527 41.8148 89.1907 41.7243 89.9317 C 41.6338 90.6734 41.4396 92.2565 41.2934 93.4494 C 41.1472 94.6423 40.9865 95.9696 40.9367 96.3992 C 40.8868 96.8287 40.7084 98.078 40.5399 99.1752 C 40.2513 101.0527 40.2245 101.597 40.3091 103.7952 L 40.3438 104.6852 L 41.4278 105.0826 C 42.7657 105.5718 44.4924 106.4112 44.8983 106.7693 C 45.6669 107.4467 44.8852 108.1976 43.0568 108.5373 C 41.9249 108.7478 40.7766 108.8442 37.5672 108.997 C 36.47 109.0495 35.2778 109.2029 34.9178 109.3387 C 34.3112 109.5682 32.3477 109.6876 32.1667 109.5066 Z M 33.8324 104.6799 C 33.5963 103.933 33.4029 103.1729 33.4029 102.9919 C 33.4029 102.8102 33.3321 102.4823 33.2455 102.2633 C 33.1583 102.0443 32.9943 101.279 32.8802 100.5635 C 32.7661 99.8474 32.6343 99.145 32.5864 99.0014 C 32.4428 98.5712 32.0375 100.1615 31.7457 102.2987 C 31.5962 103.3959 31.3948 104.4379 31.2984 104.6143 C 31.0879 104.9999 30.9738 104.8793 32.6428 106.0276 L 34.0101 106.9673 L 34.1361 106.503 C 34.22 106.1928 34.119 105.5875 33.8324 104.6799 Z M 33.5767 86.9308 C 36.3061 86.8757 38.6387 86.5334 39.8638 86.0081 C 40.7865 85.6127 41.8253 84.7378 42.1741 84.0624 C 42.5781 83.2813 42.4784 82.253 41.538 77.5254 C 40.576 72.6863 40.4763 71.4344 40.757 67.7639 C 40.9419 65.3578 40.7366 64.4403 39.6316 62.7313 C 38.9194 61.6283 38.9057 61.6184 38.6506 62.0014 C 38.5017 62.2257 38.2151 62.3903 37.9738 62.3903 C 37.4964 62.3903 35.487 61.6375 31.8591 60.0983 L 29.3612 59.0392 L 29.011 59.5435 C 28.8189 59.8209 28.2077 60.4833 27.6535 61.0158 C 26.5046 62.1175 26.4901 62.1601 25.6776 66.8707 C 25.2618 69.2827 25.0244 70.1425 24.0165 72.8883 C 23.5948 74.0366 23.6066 74.2412 24.1313 74.8648 C 24.4775 75.2767 24.9884 75.5272 26.4377 75.9954 C 28.6326 76.705 31.4821 77.3129 32.6153 77.3129 C 33.3707 77.3129 33.4363 77.2749 33.6724 76.7109 C 34.0318 75.8505 33.9859 74.5468 33.5616 73.5887 C 33.2625 72.9125 33.1543 72.0646 32.9373 68.7043 C 32.793 66.468 32.7241 64.5098 32.7845 64.3531 C 33.0488 63.6645 33.2855 64.6607 33.7596 68.4518 C 34.1046 71.2094 34.3728 72.7217 34.6135 73.266 C 35.0332 74.2143 35.0896 76.1574 34.7237 77.0336 C 34.4102 77.7831 33.7885 78.3537 33.2835 78.3537 C 32.7989 78.3537 32.7995 78.3366 33.2435 79.742 C 33.4403 80.3624 33.6147 81.3244 33.6318 81.8805 C 33.6613 82.8177 33.6226 82.9285 33.1065 83.3902 C 32.3464 84.0709 31.3607 84.3208 29.4124 84.3273 C 25.9537 84.3391 25.292 83.0754 26.5518 78.8658 C 26.7892 78.073 26.9833 77.4074 26.9833 77.3851 C 26.9833 77.3477 25.416 76.7922 25.3097 76.7922 C 25.1366 76.7922 24.7241 77.953 23.9398 80.6444 L 23.0453 83.7155 L 23.5823 84.2204 C 24.3339 84.9267 26.1301 86.1045 27.1118 86.5347 C 28.0831 86.961 29.598 87.2056 30.4531 87.0751 C 30.7876 87.0239 32.1929 86.959 33.5767 86.9308 Z M 31.5811 83.0741 C 32.4336 82.7836 32.45 82.7652 32.5044 81.9992 C 32.5399 81.4956 32.3956 80.7165 32.0946 79.7912 C 31.6414 78.3976 31.6139 78.3596 30.9981 78.252 C 29.7645 78.0356 28.1067 77.6808 27.8227 77.572 C 27.4929 77.4447 27.4561 77.532 27.0745 79.3629 C 26.7957 80.6995 26.7275 82.4753 26.9426 82.7934 C 27.2318 83.221 27.8424 83.3751 29.2386 83.3725 C 30.1685 83.3712 31.0341 83.261 31.5811 83.0741 Z M 44.9508 81.2169 C 45.1147 80.7873 45.2583 80.1453 45.2688 79.7899 C 45.2865 79.2141 45.2183 79.1052 44.6412 78.7924 L 43.9933 78.4409 L 43.4628 78.9714 L 42.9322 79.5026 L 43.1382 80.7499 L 43.3441 81.9973 L 43.9986 81.9973 C 44.6144 81.9973 44.6701 81.9514 44.9508 81.2169 Z M 43.8825 76.9916 C 44.4642 76.1522 44.4517 75.7987 43.8117 75.0229 C 43.1572 74.2281 42.5401 72.9086 42.1505 71.4678 C 41.9551 70.7471 41.7997 70.4349 41.7085 70.5805 C 41.5216 70.8796 41.6521 72.1485 42.2076 75.4295 L 42.6666 78.1438 L 43.049 77.894 C 43.2588 77.7556 43.6346 77.3497 43.8825 76.9916 Z M 38.0879 61.1213 C 38.0879 60.5823 37.1908 59.7134 36.9166 59.9875 C 36.6405 60.2636 35.9244 59.775 35.5532 59.0576 C 35.2817 58.5329 35.2771 57.7971 35.5316 55.7287 C 35.5598 55.4999 35.4142 55.349 35.0515 55.231 C 32.8763 54.5234 30.7325 53.4374 29.196 52.2648 L 28.4313 51.6812 L 29.2943 53.6092 C 30.1711 55.5681 30.3541 56.5209 30.0577 57.5846 C 29.9245 58.0621 29.9541 58.0863 31.6191 58.8693 C 34.7905 60.3606 37.48 61.5168 37.7842 61.5201 C 37.9869 61.522 38.0879 61.3896 38.0879 61.1213 Z M 45.3239 54.949 C 46.9726 54.2152 48.7144 51.912 49.9952 48.774 C 50.308 48.0081 50.6654 47.3274 50.7893 47.2611 C 50.9133 47.1942 51.6392 46.9385 52.4026 46.6919 C 54.1378 46.1318 55.8527 45.2223 55.9281 44.8222 C 55.9957 44.4622 55.2579 42.7886 54.6297 41.877 C 54.1037 41.115 54.0801 41.3157 55.1871 37.1442 C 55.9655 34.2121 56.016 33.8888 56.0167 31.8526 C 56.0173 29.7284 55.6934 27.5853 55.0061 25.172 L 54.7588 24.3044 L 52.8866 24.2178 C 51.857 24.1699 49.18 24.1339 46.9372 24.1371 C 43.3185 24.1417 42.6876 24.1857 41.3321 24.526 C 37.741 25.4277 33.5695 28.0988 29.6347 32.0145 C 27.9932 33.6481 27.6804 34.199 27.6784 35.4581 C 27.6765 36.3539 27.2463 37.2019 26.7269 37.3324 C 26.2685 37.4478 24.9654 37.053 24.2985 36.5972 C 24.1103 36.4687 23.9096 36.3638 23.8532 36.3638 C 23.7961 36.3638 23.6492 36.872 23.5253 37.4931 C 23.3154 38.5502 23.0997 38.9581 22.8721 38.7305 C 22.819 38.6774 22.9023 38.0046 23.0577 37.2353 C 23.2125 36.4654 23.3397 35.3086 23.3397 34.6646 C 23.3397 33.6285 23.2813 33.4225 22.8374 32.8835 C 22.2334 32.1516 20.8897 31.3883 19.9361 31.2355 C 19.3459 31.141 19.1597 31.1941 18.6934 31.5857 C 17.8074 32.3319 17.0205 34.1301 16.9477 35.5775 C 16.886 36.7887 16.8932 36.8104 17.652 37.84 C 18.5557 39.0663 20.2693 40.5963 21.152 40.9655 C 21.7081 41.1976 21.9009 41.4731 22.8879 43.4418 C 25.2986 48.2533 27.2037 50.3807 31.0827 52.5954 C 32.5871 53.4544 35.7205 54.5418 38.2663 55.0887 C 40.6147 55.593 44.0281 55.5254 45.3239 54.949 Z M 45.3311 50.1774 C 44.535 49.885 43.1572 48.7806 42.9093 48.2369 C 42.6935 47.7641 42.8332 47.2952 43.1893 47.2952 C 43.329 47.2952 43.8195 47.6933 44.2792 48.1799 C 45.362 49.3249 45.8263 49.5505 47.1018 49.5505 C 47.8973 49.5505 48.1517 49.6108 48.1517 49.799 C 48.1517 50.2752 46.2801 50.5257 45.3311 50.1774 Z M 41.7315 42.1761 C 41.7315 42.0003 41.9079 41.9164 42.2751 41.9164 C 42.5742 41.9164 43.0621 41.7701 43.3598 41.5911 C 44.0084 41.2022 45.6118 40.9478 45.5108 41.2501 C 45.4741 41.359 45.0773 41.5413 44.6294 41.6554 C 44.1809 41.7695 43.6707 41.9918 43.4962 42.1499 C 43.0791 42.5269 41.7315 42.5473 41.7315 42.1761 Z M 40.9812 41.1524 C 40.8501 40.8094 41.0239 40.6914 41.4882 40.8081 C 41.7072 40.8632 42.163 40.8166 42.5007 40.7058 C 43.1946 40.4763 43.8136 40.6028 43.8136 40.9734 C 43.8136 41.258 43.5395 41.3065 43.3808 41.0501 C 43.3139 40.9412 43.047 40.9734 42.6555 41.1366 C 41.8764 41.4626 41.1032 41.4698 40.9812 41.1524 Z M 45.3751 37.2576 C 44.4209 36.3034 44.5461 34.643 45.6649 33.4042 C 46.2007 32.8113 46.3824 32.7202 47.0231 32.7202 C 47.89 32.7202 48.1471 32.9622 48.3281 33.9498 C 48.6403 35.6568 47.4316 37.7521 46.1345 37.7521 C 45.9889 37.7521 45.6466 37.5291 45.3751 37.2576 Z M 24.4008 47.4251 C 23.6355 46.4073 22.3908 44.3422 21.6064 42.7879 C 21.192 41.9669 20.8188 41.5557 19.7414 40.734 C 18.0992 39.4808 16.6427 37.9633 16.3043 37.152 C 15.5574 35.3657 16.7398 31.6394 18.3812 30.6072 C 19.401 29.9652 21.0648 30.4 22.5324 31.6919 C 23.5456 32.5838 23.8598 33.2927 23.8598 34.6856 L 23.8598 35.8175 L 24.7707 36.2562 C 26.6757 37.173 26.904 37.0714 27.1387 35.2024 C 27.222 34.538 27.4194 33.7452 27.5768 33.4396 C 28.2995 32.0434 33.2317 27.6424 36.0188 25.9078 C 40.3333 23.2223 42.4476 22.9095 52.5803 23.4584 C 54.488 23.5613 54.7274 23.5397 55.3832 23.2052 C 56.7328 22.5167 57.1741 21.4457 57.1741 18.8619 C 57.1741 16.2446 56.5918 15.2983 53.8775 13.5034 C 49.7814 10.795 45.1705 8.6991 40.6907 7.5094 C 38.8493 7.0202 38.4676 6.9789 35.7454 6.971 C 33.2107 6.9638 32.5641 7.0196 31.1476 7.3711 C 23.7666 9.2014 16.6788 13.5985 13.5008 18.3183 C 12.607 19.6462 12.0449 20.9093 11.578 22.6406 C 11.1727 24.145 11.1288 24.6126 11.1262 27.5145 C 11.1229 30.9613 11.3354 32.5884 12.1623 35.4424 C 13.4975 40.0513 15.1246 42.1912 19.5223 45.1226 C 20.8516 46.0086 24.8362 48.3301 25.0369 48.3347 C 25.0638 48.3353 24.7772 47.9261 24.4008 47.4251 Z M 10.1523 25.2513 C 10.1523 24.1922 10.6409 22.0386 11.2252 20.5204 C 13.188 15.4249 19.8332 10.1077 27.542 7.4655 L 29.4025 6.8281 L 28.5087 5.8004 C 28.0175 5.2358 27.1027 4.3557 26.4751 3.8462 C 24.2578 2.0427 23.0243 1.6663 18.9151 1.5391 C 16.5955 1.4676 15.638 1.5096 14.4334 1.7365 C 11.4429 2.2992 8.663 3.5773 6.0077 5.6109 C 3.4422 7.5757 1.6434 10.3969 1.2899 13.0089 C 0.823 16.4545 2.3903 21.7468 4.4167 23.5686 C 5.2758 24.3411 7.0675 25.193 8.884 25.6927 C 10.1372 26.037 10.1523 26.0317 10.1523 25.2513 Z M 45.6374 103.8569 C 45.6977 103.7605 45.819 103.7257 45.9082 103.7808 C 46.1489 103.9297 46.1037 104.0333 45.7987 104.0333 C 45.6505 104.0333 45.5777 103.9539 45.6374 103.8569 Z "/>
        <path id="path62" fill="#a2a3a0" stroke-width="0.17351242832647562" d="M 32.1667 109.5066 C 32.1228 109.4626 31.3096 109.382 30.3593 109.3269 C 27.06 109.136 25.5635 108.8763 25.1018 108.414 C 24.7129 108.0251 24.69 107.9038 24.7772 106.6657 C 24.8343 105.8551 24.7687 104.6904 24.6093 103.6864 C 24.4257 102.5322 24.3391 100.5294 24.3208 97.0065 L 24.2939 91.9745 L 24.8572 89.3868 C 25.1674 87.963 25.4579 86.7616 25.5025 86.717 C 25.5471 86.6724 25.0526 86.2632 24.4034 85.8068 C 23.7542 85.351 23.0053 84.7201 22.7403 84.4047 C 22.3095 83.8925 22.2675 83.7338 22.3508 82.9265 C 22.4563 81.9035 23.7693 77.4224 24.1306 76.8512 C 24.3483 76.507 24.3188 76.4394 23.7666 76.0184 C 22.4242 74.994 22.3757 74.15 23.4873 71.2127 C 23.9778 69.9149 24.3404 68.4466 24.7949 65.9119 C 25.1412 63.9839 25.5065 62.1896 25.6074 61.9247 C 25.7084 61.6591 26.3124 60.9338 26.9505 60.3114 C 28.2372 59.0576 29.2386 57.3761 29.2386 56.4704 C 29.2386 56.1517 28.8399 54.7575 28.3513 53.3718 C 27.5571 51.1152 27.3801 50.769 26.66 50.0581 C 26.1032 49.5085 25.3766 49.0554 24.3011 48.5878 C 22.5226 47.8146 19.3079 46.0046 17.5267 44.7743 C 16.8585 44.3127 15.6459 43.266 14.8314 42.4482 C 13.6431 41.256 13.209 40.6697 12.6365 39.4867 C 11.2711 36.6668 10.4501 33.4015 10.1267 29.5081 L 9.9254 27.0764 L 8.5207 26.6875 C 6.5022 26.1294 4.0934 24.9011 3.3052 24.0289 C 2.4939 23.1311 1.4565 20.9677 0.8564 18.9255 C 0.3088 17.0611 0.0898 13.6103 0.421 12.0633 C 0.7102 10.711 1.8303 8.5207 2.8841 7.2458 C 4.6043 5.1663 7.6052 3.0841 10.6363 1.8676 C 12.906 0.9561 14.8577 0.6105 17.7871 0.602 C 22.6839 0.5875 24.9123 1.3299 27.4063 3.8068 C 28.188 4.5833 29.0956 5.5519 29.4235 5.9598 L 30.0196 6.7009 L 31.8414 6.3356 C 34.5361 5.7945 38.0754 5.925 40.9058 6.6707 C 43.748 7.4189 45.882 8.238 49.1059 9.8198 C 53.4925 11.9721 56.6456 14.1651 57.3565 15.5593 C 58.1664 17.147 58.1539 20.5571 57.3322 22.255 C 57.0489 22.84 56.4501 23.4499 55.8383 23.7771 C 55.8193 23.7869 55.9917 24.73 56.2213 25.8717 C 57.2522 31.0033 57.1558 32.9917 55.5904 38.821 L 55.0467 40.8442 L 55.4219 41.3714 C 56.0534 42.2581 56.6698 43.7703 56.6993 44.5035 C 56.7203 45.0268 56.622 45.3108 56.3039 45.6498 C 55.8016 46.1843 54.2644 46.9345 52.5691 47.4729 L 51.3467 47.8605 L 50.8687 49.0232 C 50.2398 50.5512 48.8711 52.838 47.9143 53.9574 C 45.8479 56.3767 42.6102 56.8797 36.7435 55.694 L 36.1795 55.5799 L 36.1861 56.5996 C 36.1926 57.603 36.2051 57.6279 36.9658 58.188 C 38.2033 59.0982 40.4645 61.8132 41.1714 63.2376 C 41.7813 64.4666 41.8115 64.6121 41.9171 66.8812 C 42.0207 69.0932 42.0692 69.3437 42.6771 70.8002 C 43.5074 72.7919 44.0222 73.7447 44.7731 74.6799 C 45.5207 75.6118 45.5731 76.4204 44.9462 77.3437 L 44.5166 77.9759 L 45.019 78.151 C 46.2401 78.5766 46.5109 79.4711 45.9699 81.2929 C 45.5948 82.5554 45.0787 83.0387 44.1048 83.0387 C 43.3585 83.0387 43.3362 83.0544 43.2365 83.6695 C 43.1801 84.0171 42.9401 84.5831 42.7034 84.928 C 42.3722 85.41 42.2463 85.875 42.1571 86.9426 C 42.0935 87.706 42.0069 88.3873 41.9656 88.4575 C 41.9236 88.527 41.8148 89.1907 41.7243 89.9317 C 41.6338 90.6734 41.4396 92.2565 41.2934 93.4494 C 41.1472 94.6423 40.9865 95.9696 40.9367 96.3992 C 40.8868 96.8287 40.7084 98.078 40.5399 99.1752 C 40.2513 101.0527 40.2245 101.597 40.3091 103.7952 L 40.3438 104.6852 L 41.4278 105.0826 C 42.7657 105.5718 44.4924 106.4112 44.8983 106.7693 C 45.6669 107.4467 44.8852 108.1976 43.0568 108.5373 C 41.9249 108.7478 40.7766 108.8442 37.5672 108.997 C 36.47 109.0495 35.2778 109.2029 34.9178 109.3387 C 34.3112 109.5682 32.3477 109.6876 32.1667 109.5066 Z M 33.7288 108.0677 C 33.6206 107.9005 32.7995 107.231 31.9057 106.5804 C 30.7115 105.7108 30.28 105.2957 30.2813 105.0183 C 30.2846 103.95 31.0289 100.052 31.5785 98.221 C 32.7556 94.3006 33.237 92.6677 33.5727 91.4538 C 33.7577 90.7856 34.0685 89.7783 34.2633 89.2143 C 34.4581 88.651 34.6174 88.1329 34.6174 88.064 C 34.6174 87.9945 33.113 87.9073 31.2748 87.8693 C 28.2752 87.8076 27.8581 87.7624 27.2194 87.4292 L 26.5065 87.058 L 26.2298 88.388 C 25.5353 91.7214 25.515 91.9693 25.5412 96.7461 C 25.5576 99.8231 25.6619 102.2987 25.835 103.7159 C 25.9819 104.9252 26.056 106.3069 25.999 106.787 C 25.9026 107.6041 25.9229 107.6657 26.3164 107.7648 C 26.9354 107.9202 31.3955 108.3255 32.7536 108.3504 C 33.8331 108.3694 33.9111 108.3471 33.7288 108.0677 Z M 42.3755 107.5897 C 43.9553 107.3339 44.2287 107.2251 43.7087 107.0618 C 43.5277 107.0047 43.2628 106.884 43.1198 106.7929 C 42.8476 106.6204 41.4698 105.9679 40.2133 105.4177 L 39.4762 105.0944 L 39.4762 102.6574 C 39.4762 100.45 39.688 98.3508 40.3445 94.0567 C 40.4468 93.3884 40.7216 91.5929 40.955 90.0655 C 41.1885 88.5388 41.4292 87.1138 41.4895 86.8993 C 41.6108 86.4652 41.2652 86.3406 41.1039 86.7597 C 40.9701 87.1079 39.5818 87.3905 36.6615 87.664 L 35.4955 87.7729 L 35.2444 88.6588 C 35.106 89.1467 34.7466 90.4433 34.4456 91.5404 C 34.1446 92.6382 33.7859 93.9262 33.6488 94.4036 C 33.5117 94.881 33.3826 95.4273 33.3622 95.6181 C 33.3163 96.0516 33.5393 97.9908 33.7413 98.9148 C 33.8246 99.2965 33.9878 100.1556 34.1039 100.8238 C 34.2889 101.8915 34.4508 102.5774 35.1453 105.2478 C 35.2325 105.5823 35.3053 106.2617 35.308 106.7575 C 35.3112 107.427 35.3899 107.7084 35.6155 107.8467 C 36.0031 108.0855 40.3281 107.9208 42.3755 107.5897 Z M 33.8324 104.6799 C 33.5963 103.933 33.4029 103.1729 33.4029 102.9919 C 33.4029 102.8102 33.3321 102.4823 33.2455 102.2633 C 33.1583 102.0443 32.9943 101.279 32.8802 100.5635 C 32.7661 99.8474 32.6343 99.145 32.5864 99.0014 C 32.4428 98.5712 32.0375 100.1615 31.7457 102.2987 C 31.5962 103.3959 31.3948 104.4379 31.2984 104.6143 C 31.0879 104.9999 30.9738 104.8793 32.6428 106.0276 L 34.0101 106.9673 L 34.1361 106.503 C 34.22 106.1928 34.119 105.5875 33.8324 104.6799 Z M 33.5767 86.9387 C 37.6065 86.8534 39.9241 86.3039 41.2816 85.1123 C 42.7139 83.8545 42.7276 83.2426 41.4619 77.0526 C 40.5747 72.7138 40.4776 71.4285 40.7589 67.7665 C 40.9432 65.3637 40.7373 64.441 39.6316 62.7313 C 38.9194 61.6283 38.9057 61.6184 38.6506 62.0014 C 38.5017 62.2257 38.2151 62.3903 37.9738 62.3903 C 37.4964 62.3903 35.487 61.6375 31.8591 60.0983 L 29.3612 59.0392 L 29.011 59.5435 C 28.8189 59.8209 28.2077 60.4833 27.6535 61.0158 C 26.5039 62.1188 26.4908 62.1562 25.6724 66.9022 C 25.4173 68.381 24.9772 70.2159 24.6946 70.9793 C 24.4113 71.7426 24.0558 72.7801 23.903 73.2837 C 23.6387 74.1599 23.6414 74.2202 23.9712 74.672 C 24.4185 75.2832 25.1477 75.6367 27.2574 76.2617 C 29.3061 76.8683 31.5844 77.3129 32.6507 77.3129 C 33.3655 77.3129 33.4389 77.2696 33.6724 76.7109 C 34.0239 75.8695 33.9852 74.5468 33.5832 73.6365 C 33.3439 73.0962 33.1911 72.1708 33.0697 70.5346 C 32.711 65.6673 32.6677 64.3452 32.8651 64.2233 C 33.132 64.058 33.3353 64.6889 33.4783 66.1211 C 33.8993 70.3504 34.2895 72.6929 34.7092 73.5047 C 35.0365 74.1376 35.0456 76.263 34.7237 77.0336 C 34.4102 77.7831 33.7885 78.3537 33.2835 78.3537 C 32.7989 78.3537 32.7995 78.3366 33.2435 79.742 C 33.4403 80.3624 33.6147 81.3244 33.6318 81.8805 C 33.6613 82.8177 33.6226 82.9285 33.1065 83.3902 C 32.3549 84.063 31.3778 84.3096 29.4124 84.3234 C 26.4646 84.3437 25.7255 83.6086 26.0927 81.0214 C 26.2029 80.2463 26.4482 79.1603 26.6377 78.6088 C 26.8279 78.0566 26.9833 77.547 26.9833 77.4756 C 26.9833 77.3746 25.555 76.7922 25.3084 76.7922 C 25.1392 76.7922 24.6749 78.0605 24.0362 80.262 C 23.6355 81.6464 23.2426 82.9895 23.164 83.2479 C 23.0387 83.6591 23.1076 83.7961 23.7102 84.3411 C 25.8232 86.2494 28.5448 87.3551 30.4531 87.0797 C 30.7876 87.0318 32.1929 86.9682 33.5767 86.9387 Z M 31.5811 83.0741 C 32.4336 82.7836 32.45 82.7652 32.5044 81.9992 C 32.5399 81.4956 32.3956 80.7165 32.0946 79.7912 C 31.6414 78.3976 31.6139 78.3596 30.9981 78.252 C 29.7645 78.0356 28.1067 77.6808 27.8227 77.572 C 27.4929 77.4447 27.4561 77.532 27.0745 79.3629 C 26.7957 80.6995 26.7275 82.4753 26.9426 82.7934 C 27.2318 83.221 27.8424 83.3751 29.2386 83.3725 C 30.1685 83.3712 31.0341 83.261 31.5811 83.0741 Z M 44.9508 81.2169 C 45.1147 80.7873 45.2583 80.1453 45.2688 79.7899 C 45.2865 79.2141 45.2183 79.1052 44.6412 78.7924 L 43.9933 78.4409 L 43.4628 78.9714 L 42.9322 79.5026 L 43.1382 80.7499 L 43.3441 81.9973 L 43.9986 81.9973 C 44.6144 81.9973 44.6701 81.9514 44.9508 81.2169 Z M 43.7362 77.1791 C 44.4635 76.2256 44.4825 75.8367 43.8385 75.0531 C 43.1441 74.2084 42.6916 73.2621 42.2417 71.7144 C 42.0292 70.9819 41.7813 70.4284 41.6915 70.4835 C 41.4829 70.6127 41.6252 72.0095 42.1977 75.4321 C 42.706 78.473 42.7283 78.4986 43.7362 77.1791 Z M 38.0879 61.122 C 38.0879 60.5823 37.1908 59.7134 36.9166 59.9875 C 36.6405 60.2636 35.9244 59.775 35.5532 59.0576 C 35.2817 58.5329 35.2771 57.7978 35.5316 55.7287 C 35.5598 55.4999 35.4142 55.349 35.0515 55.231 C 32.8763 54.5234 30.7325 53.4374 29.196 52.2648 L 28.4313 51.6812 L 29.2943 53.6092 C 30.1711 55.5681 30.3541 56.5209 30.0577 57.5846 C 29.9245 58.0621 29.9541 58.0863 31.6191 58.8693 C 34.7905 60.3606 37.48 61.5168 37.7842 61.5201 C 37.9869 61.522 38.0879 61.3896 38.0879 61.122 Z M 45.3239 54.949 C 46.9726 54.2152 48.7144 51.912 49.9952 48.774 C 50.308 48.0081 50.6654 47.3274 50.7893 47.2611 C 50.9133 47.1942 51.6392 46.9385 52.4026 46.6919 C 54.1378 46.1318 55.8527 45.2223 55.9281 44.8222 C 55.9957 44.4622 55.2579 42.7886 54.6297 41.877 C 54.1037 41.115 54.0801 41.3157 55.1871 37.1448 C 55.9655 34.2121 56.016 33.8888 56.0167 31.8526 C 56.0173 29.7284 55.6934 27.5853 55.0061 25.172 L 54.7588 24.3044 L 52.8866 24.2178 C 51.857 24.1699 49.18 24.1339 46.9372 24.1371 C 43.3185 24.1417 42.6876 24.1857 41.3321 24.526 C 37.741 25.4277 33.5695 28.0988 29.6347 32.0145 C 27.9932 33.6481 27.6804 34.199 27.6784 35.4581 C 27.6765 36.3539 27.2463 37.2025 26.7269 37.3324 C 26.2685 37.4478 24.9654 37.053 24.2985 36.5972 C 24.1103 36.4687 23.9096 36.3638 23.8532 36.3638 C 23.7961 36.3638 23.6492 36.872 23.5253 37.4931 C 23.3154 38.5502 23.0997 38.9581 22.8721 38.7305 C 22.819 38.6774 22.9023 38.0046 23.0577 37.2353 C 23.2125 36.4654 23.3397 35.3086 23.3397 34.6646 C 23.3397 33.6285 23.2813 33.4225 22.8374 32.8835 C 22.2334 32.1516 20.8897 31.3883 19.9361 31.2355 C 19.3459 31.141 19.1597 31.1941 18.6934 31.5857 C 17.8074 32.3319 17.0205 34.1301 16.9477 35.5775 C 16.886 36.7887 16.8932 36.8104 17.652 37.84 C 18.5557 39.0663 20.2693 40.5963 21.152 40.9655 C 21.7081 41.1976 21.9009 41.4731 22.8879 43.4418 C 25.2986 48.2533 27.2037 50.3807 31.0827 52.5954 C 32.5871 53.4544 35.7205 54.5418 38.2663 55.0887 C 40.6147 55.593 44.0281 55.5254 45.3239 54.949 Z M 45.3311 50.1774 C 44.535 49.885 43.1572 48.7806 42.9093 48.2369 C 42.6935 47.7641 42.8332 47.2952 43.1893 47.2952 C 43.329 47.2952 43.8195 47.6933 44.2792 48.1799 C 45.362 49.3249 45.8263 49.5505 47.1018 49.5505 C 47.8973 49.5505 48.1517 49.6108 48.1517 49.799 C 48.1517 50.2752 46.2801 50.5257 45.3311 50.1774 Z M 41.7315 42.1761 C 41.7315 42.0003 41.9079 41.9164 42.2751 41.9164 C 42.5742 41.9164 43.0621 41.7701 43.3598 41.5911 C 44.0084 41.2022 45.6118 40.9478 45.5108 41.2501 C 45.4741 41.359 45.0773 41.5413 44.6294 41.6554 C 44.1809 41.7695 43.6707 41.9918 43.4962 42.1499 C 43.0791 42.5269 41.7315 42.5473 41.7315 42.1761 Z M 40.9812 41.1524 C 40.8501 40.8094 41.0239 40.6914 41.4882 40.8081 C 41.7072 40.8632 42.163 40.8166 42.5007 40.7058 C 43.1946 40.4763 43.8136 40.6028 43.8136 40.9734 C 43.8136 41.258 43.5395 41.3065 43.3808 41.0501 C 43.3139 40.9412 43.047 40.9734 42.6555 41.1366 C 41.8764 41.4626 41.1032 41.4698 40.9812 41.1524 Z M 45.3751 37.2576 C 44.4209 36.3034 44.5461 34.643 45.6649 33.4042 C 46.2007 32.8113 46.3824 32.7202 47.0231 32.7202 C 47.89 32.7202 48.1471 32.9622 48.3281 33.9498 C 48.6403 35.6568 47.4316 37.7521 46.1345 37.7521 C 45.9889 37.7521 45.6466 37.5291 45.3751 37.2576 Z M 24.4008 47.4251 C 23.6355 46.4073 22.3908 44.3422 21.6064 42.7879 C 21.192 41.9669 20.8188 41.5564 19.7414 40.734 C 18.0992 39.4808 16.6427 37.9633 16.3043 37.152 C 15.5574 35.3657 16.7398 31.6394 18.3812 30.6072 C 19.401 29.9658 21.0648 30.4 22.5324 31.6919 C 23.5456 32.5838 23.8598 33.2927 23.8598 34.6856 L 23.8598 35.8175 L 24.7707 36.2562 C 26.6757 37.173 26.904 37.0714 27.1387 35.2024 C 27.222 34.538 27.4194 33.7452 27.5768 33.4396 C 28.2995 32.0434 33.2317 27.6424 36.0188 25.9078 C 40.3333 23.2223 42.4476 22.9095 52.5803 23.4584 C 54.488 23.5613 54.7274 23.5397 55.3832 23.2052 C 56.7328 22.5167 57.1741 21.4457 57.1741 18.8619 C 57.1741 16.2446 56.5918 15.2983 53.8775 13.5034 C 49.7814 10.795 45.1705 8.6991 40.6907 7.5094 C 38.8493 7.0202 38.4676 6.9789 35.7454 6.971 C 33.2107 6.9638 32.5641 7.0196 31.1476 7.3711 C 23.7666 9.2014 16.6788 13.5985 13.5008 18.3183 C 12.607 19.6462 12.0449 20.9093 11.578 22.6406 C 11.1727 24.145 11.1288 24.6126 11.1262 27.5145 C 11.1229 30.9613 11.3354 32.5884 12.1623 35.4424 C 13.4975 40.0513 15.1246 42.1912 19.5223 45.1226 C 20.8516 46.0086 24.8362 48.3301 25.0369 48.3347 C 25.0638 48.3353 24.7772 47.9261 24.4008 47.4251 Z M 10.1523 25.2513 C 10.1523 24.1922 10.6409 22.0386 11.2252 20.5204 C 13.188 15.4249 19.8332 10.1077 27.542 7.4655 L 29.4025 6.8281 L 28.5087 5.8004 C 28.0175 5.2358 27.1027 4.3557 26.4751 3.8462 C 24.2578 2.0427 23.0243 1.6663 18.9151 1.5391 C 16.5955 1.4676 15.638 1.5096 14.4334 1.7365 C 11.4429 2.2992 8.663 3.5773 6.0077 5.6109 C 3.4422 7.5757 1.6434 10.3969 1.2899 13.0089 C 0.823 16.4545 2.3903 21.7468 4.4167 23.5686 C 5.2758 24.3411 7.0675 25.193 8.884 25.6927 C 10.1372 26.037 10.1523 26.0317 10.1523 25.2513 Z M 45.6374 103.8569 C 45.6977 103.7605 45.819 103.7257 45.9082 103.7808 C 46.1489 103.9297 46.1037 104.0333 45.7987 104.0333 C 45.6505 104.0333 45.5777 103.9539 45.6374 103.8569 Z "/>
        <path id="path60" fill="#7589ab" stroke-width="0.17351242832647562" d="M 29.2386 109.1931 C 25.9924 108.8619 25.5261 108.759 25.1182 108.2848 C 24.6992 107.7982 24.6218 107.0886 24.8874 106.1633 C 24.9969 105.7823 24.968 105.1777 24.7975 104.2556 C 24.6329 103.3677 24.5149 101.0947 24.4526 97.6137 L 24.3582 92.3215 L 24.9569 89.4583 L 25.5556 86.5957 L 25.191 86.3354 C 22.5855 84.4755 22.2006 83.9909 22.3855 82.8059 C 22.537 81.8359 23.823 77.5405 24.1529 76.9017 C 24.3968 76.4309 24.3923 76.3791 24.0952 76.2138 C 23.5082 75.8892 22.8662 75.0773 22.7547 74.5192 C 22.6275 73.8825 22.8243 73.0594 23.5305 71.2822 C 24.1247 69.7864 24.2047 69.4506 24.8979 65.5309 C 25.189 63.8855 25.5392 62.2716 25.6756 61.945 C 25.8121 61.6184 26.46 60.8223 27.1151 60.1757 C 28.6287 58.6831 29.3081 57.3807 29.192 56.1937 C 29.1474 55.7373 28.7448 54.3483 28.2975 53.1075 C 27.2286 50.1401 26.902 49.801 23.5463 48.1661 C 19.2705 46.0827 15.9784 43.8589 14.2576 41.8915 C 12.1407 39.4716 10.5537 34.6239 10.153 29.3527 C 10.0592 28.1211 9.9621 27.102 9.9372 27.0876 C 9.9123 27.0731 8.9752 26.7642 7.8538 26.4016 C 4.2515 25.2356 2.9281 24.1384 1.766 21.3546 C 0.6433 18.6671 0.362 17.2952 0.358 14.5009 C 0.3554 12.1636 0.3888 11.9007 0.8289 10.795 C 2.1431 7.4911 5.3558 4.3531 9.3785 2.4441 C 12.4371 0.9928 14.8039 0.5416 18.6547 0.6748 C 22.8688 0.821 24.4873 1.3148 26.6364 3.1104 C 27.5768 3.8967 29.3114 5.7945 29.7763 6.5467 C 29.8642 6.6897 30.3384 6.6536 31.5201 6.4143 C 33.7144 5.9703 37.5947 5.9637 39.6493 6.4005 C 42.3073 6.9658 45.7908 8.2426 48.9767 9.8185 C 52.2852 11.4554 55.9052 13.7375 56.7879 14.7435 C 57.5348 15.5934 57.8686 16.8394 57.8686 18.7754 C 57.8686 21.2595 57.6371 22.0622 56.6292 23.0741 L 55.7812 23.9253 L 56.2409 26.1104 C 56.5531 27.5932 56.7275 29.0484 56.7839 30.638 C 56.8784 33.2973 56.6856 34.6358 55.6632 38.4348 C 55.0448 40.734 55.0402 40.7733 55.3478 41.298 C 56.6082 43.4503 56.9203 44.6937 56.399 45.4885 C 56.0796 45.9764 53.9712 47.0427 52.3022 47.5602 L 51.3349 47.8599 L 50.5709 49.5249 C 49.117 52.6944 47.3359 54.8952 45.6328 55.6245 C 43.7723 56.4219 40.6619 56.4993 37.6111 55.8232 L 36.1795 55.5058 L 36.1802 56.4757 L 36.1808 57.4456 L 38.139 59.4405 C 41.197 62.5569 41.9656 64.1334 41.8856 67.1291 C 41.843 68.724 41.8561 68.7817 42.767 71.0514 C 43.3113 72.4082 43.9546 73.689 44.3324 74.1664 C 45.5338 75.6866 45.6158 76.0912 44.9508 77.2264 L 44.5258 77.951 L 45.1154 78.2324 C 46.3089 78.8016 46.4683 79.6187 45.7902 81.6936 C 45.4636 82.6944 45.0144 83.0387 44.0353 83.0387 C 43.4031 83.0387 43.2936 83.0911 43.2936 83.3941 C 43.2936 83.7928 42.8673 84.705 42.4679 85.1602 C 42.3237 85.3254 42.1787 85.755 42.1466 86.1144 C 42.0351 87.3689 41.7052 89.8976 41.5524 90.6728 C 41.4678 91.1023 41.3144 92.2736 41.2114 93.2756 C 41.1085 94.2777 40.997 95.2929 40.9635 95.5316 C 40.9301 95.7703 40.8127 96.6681 40.7032 97.5265 C 40.593 98.3856 40.4422 99.3227 40.3674 99.6086 C 40.1766 100.3438 40.1458 103.9467 40.3261 104.4215 C 40.4173 104.6609 40.7412 104.9088 41.1472 105.0491 C 41.5164 105.177 42.5453 105.6328 43.4333 106.0617 C 44.9986 106.8178 45.0465 106.8578 44.9947 107.3831 C 44.9462 107.8802 44.8577 107.951 43.9356 108.2304 C 43.3205 108.4173 41.4987 108.6442 39.2506 108.8134 C 37.2275 108.9662 35.3119 109.1708 34.9945 109.2679 C 34.3846 109.4548 31.4257 109.4161 29.2386 109.1931 Z M 33.7288 108.0677 C 33.6199 107.9005 32.7995 107.231 31.9057 106.5804 C 30.7115 105.7108 30.28 105.2957 30.2813 105.0183 C 30.2846 103.95 31.0282 100.052 31.5785 98.221 C 32.7556 94.3006 33.237 92.6677 33.5727 91.4538 C 33.7577 90.7856 34.0685 89.7783 34.2633 89.2143 C 34.4581 88.651 34.6174 88.1329 34.6174 88.064 C 34.6174 87.9945 33.113 87.9073 31.2748 87.8693 C 28.2752 87.8076 27.8581 87.7624 27.2187 87.4292 L 26.5065 87.058 L 26.2298 88.388 C 25.5353 91.7214 25.515 91.9693 25.5412 96.7461 C 25.5576 99.8231 25.6619 102.2987 25.835 103.7159 C 25.9819 104.9252 26.056 106.3069 25.999 106.787 C 25.9026 107.6041 25.9222 107.6657 26.3164 107.7648 C 26.9348 107.9202 31.3955 108.3255 32.7536 108.3504 C 33.8324 108.3694 33.9105 108.3471 33.7288 108.0677 Z M 42.3755 107.5897 C 43.9553 107.3339 44.2287 107.2251 43.7087 107.0618 C 43.5277 107.0047 43.2628 106.884 43.1198 106.7929 C 42.8476 106.6204 41.4698 105.9679 40.2133 105.4177 L 39.4762 105.0944 L 39.4762 102.6574 C 39.4762 100.45 39.688 98.3508 40.3445 94.0567 C 40.4468 93.3884 40.7216 91.5929 40.955 90.0655 C 41.1885 88.5388 41.4292 87.1138 41.4895 86.8993 C 41.6108 86.4652 41.2646 86.3406 41.1039 86.7597 C 40.9701 87.1079 39.5818 87.3905 36.6615 87.664 L 35.4955 87.7729 L 35.2437 88.6588 C 35.106 89.1467 34.7466 90.4433 34.4456 91.5404 C 34.1446 92.6382 33.7859 93.9262 33.6488 94.4036 C 33.5111 94.881 33.3826 95.4273 33.3622 95.6181 C 33.3163 96.0516 33.5393 97.9908 33.7413 98.9148 C 33.8246 99.2965 33.9878 100.1556 34.1033 100.8238 C 34.2889 101.8915 34.4508 102.5774 35.1453 105.2478 C 35.2325 105.5823 35.3053 106.2617 35.3073 106.7575 C 35.3106 107.427 35.3899 107.7084 35.6155 107.8467 C 36.0031 108.0855 40.3274 107.9208 42.3755 107.5897 Z M 34.2692 106.5063 C 34.2685 106.1482 34.1098 105.3482 33.917 104.7278 C 33.5327 103.4955 33.4062 102.9519 32.9832 100.7366 C 32.591 98.68 32.5294 98.4295 32.4408 98.5181 C 32.3051 98.6538 31.6296 101.9859 31.4814 103.2529 C 31.4027 103.9205 31.3148 104.6366 31.2866 104.8439 C 31.2447 105.1429 31.5194 105.4157 32.6225 106.1732 C 33.3858 106.6971 34.0692 107.1332 34.1407 107.1411 C 34.2121 107.1496 34.2698 106.8637 34.2692 106.5063 Z M 34.1839 86.9564 C 38.2282 86.8351 40.8534 86.0166 41.9335 84.5404 C 42.4463 83.8401 42.4594 83.7771 42.3735 82.3442 C 42.325 81.5336 41.9151 79.0737 41.4626 76.8788 C 40.6927 73.148 40.6429 72.7466 40.696 70.7189 C 40.8304 65.5506 40.7976 64.7833 40.4055 63.9524 C 40.2028 63.5229 39.7582 62.7864 39.4172 62.3156 L 38.7975 61.4591 L 38.6204 61.9247 C 38.4951 62.2559 38.32 62.3903 38.0171 62.3903 C 37.6341 62.3903 34.4076 61.1495 30.7351 59.5888 L 29.3691 59.0084 L 28.9159 59.615 C 28.6661 59.9488 28.024 60.6511 27.4876 61.1758 L 26.5131 62.1306 L 26.1334 64.2128 C 25.9242 65.3578 25.6015 67.1179 25.4153 68.1252 C 25.2297 69.1319 24.7641 70.7858 24.3818 71.801 C 23.5791 73.9316 23.5351 74.4012 24.088 74.9534 C 24.8795 75.7456 29.4183 77.0755 31.9542 77.2592 L 33.3688 77.3615 L 33.6462 76.825 C 34.0272 76.0886 33.9977 74.5638 33.5819 73.508 C 33.3334 72.8784 33.1917 71.8888 33.0645 69.9011 C 32.9687 68.3948 32.8448 66.5179 32.7904 65.7309 C 32.7071 64.5334 32.7333 64.2993 32.9497 64.2993 C 33.1235 64.2993 33.2389 64.5407 33.3012 65.0364 C 33.3524 65.4424 33.5845 67.2963 33.818 69.1575 C 34.1072 71.4678 34.3551 72.7886 34.5997 73.3218 C 35.0083 74.2143 35.0797 75.7613 34.7604 76.8257 C 34.5269 77.6061 33.738 78.3537 33.1478 78.3537 L 32.7458 78.3537 L 33.1615 79.6613 C 33.6882 81.3218 33.7091 82.6498 33.2179 83.2741 C 32.734 83.8892 31.2368 84.3103 29.4989 84.3188 C 27.9073 84.3273 27.0351 84.0814 26.4521 83.461 C 25.7852 82.7514 25.915 81.1178 26.9092 77.7064 C 27.001 77.391 26.9295 77.2834 26.5256 77.1293 C 25.1635 76.6106 25.1825 76.5988 24.5936 78.3806 C 24.2991 79.2724 23.8598 80.7119 23.6171 81.5795 C 23.3745 82.4471 23.1292 83.2787 23.0721 83.4269 C 22.8131 84.1024 26.5898 86.6423 28.4326 87.0325 C 28.8287 87.1164 29.777 87.1485 30.5403 87.1046 C 31.3037 87.0607 32.9432 86.9938 34.1839 86.9564 Z M 31.3502 83.2098 C 31.7004 83.1108 32.1654 82.8859 32.3831 82.7095 C 32.7589 82.4052 32.7694 82.3383 32.5864 81.3539 C 32.4802 80.7854 32.2106 79.8574 31.9877 79.2934 C 31.6296 78.3897 31.5188 78.2606 31.0604 78.214 C 30.7745 78.1845 29.8819 78.0068 29.0779 77.8192 C 28.2739 77.6316 27.5591 77.5385 27.4902 77.612 C 27.2548 77.8631 26.7512 80.5178 26.7367 81.5802 C 26.721 82.7718 26.9184 83.1259 27.7421 83.3817 C 28.3618 83.5738 30.4059 83.4767 31.3502 83.2098 Z M 44.979 81.3467 C 45.1331 80.9887 45.2656 80.3493 45.2734 79.9256 C 45.2872 79.2357 45.2269 79.1137 44.6937 78.7511 L 44.0982 78.3465 L 43.5093 78.9137 C 42.9421 79.4607 42.9244 79.5171 43.0306 80.4358 C 43.2057 81.9553 43.2319 81.9973 44.0077 81.9973 C 44.6412 81.9973 44.7226 81.9428 44.979 81.3467 Z M 43.4221 77.6166 C 43.7212 77.3064 44.0838 76.8244 44.2274 76.5456 C 44.5239 75.9712 44.4661 75.8066 43.548 74.6038 C 43.1893 74.1343 42.7552 73.1729 42.4017 72.0666 C 42.0889 71.0868 41.7715 70.2113 41.6954 70.1208 C 41.4777 69.8592 41.5374 71.5223 41.8115 73.3395 C 42.2259 76.0879 42.6358 78.1799 42.7611 78.1799 C 42.8253 78.1799 43.1231 77.9268 43.4221 77.6166 Z M 38.1292 61.2709 C 38.2302 60.739 37.3744 59.8458 36.8465 59.9317 C 36.4025 60.0032 35.8542 59.5192 35.5414 58.7795 C 35.344 58.3126 35.3342 57.9434 35.489 56.8095 C 35.5945 56.0416 35.6562 55.3963 35.626 55.3746 C 35.5965 55.353 34.9473 55.1202 34.1839 54.8572 C 32.5136 54.2821 30.9384 53.4512 29.3953 52.333 L 28.2503 51.5028 L 29.1901 53.52 C 30.1193 55.513 30.1292 55.5523 30.0491 56.86 L 29.9685 58.1834 L 31.3824 58.8339 C 33.6127 59.8596 37.8164 61.6952 37.9377 61.6958 C 37.998 61.6965 38.0839 61.505 38.1285 61.2709 Z M 45.0216 55.1215 C 45.5141 54.9346 46.183 54.5785 46.5083 54.3306 C 47.6048 53.4938 49.3098 50.7349 50.308 48.1819 C 50.6614 47.2782 50.7047 47.2382 51.5907 47.0113 C 52.8111 46.6991 54.972 45.7908 55.5202 45.36 C 55.7616 45.1698 55.9576 44.8439 55.9557 44.6366 C 55.9511 44.1631 55.4074 42.9499 54.7169 41.8725 L 54.1883 41.0481 L 54.8185 38.8164 C 55.6802 35.7663 56.1334 33.3143 56.1334 31.703 C 56.1334 30.3023 55.6697 27.3918 55.1353 25.4323 L 54.8277 24.3044 L 51.1861 24.086 C 42.9244 23.5902 39.7897 24.2571 34.8994 27.5532 C 32.3759 29.2543 28.4293 32.8218 27.9729 33.8147 C 27.8326 34.119 27.664 34.8758 27.5978 35.4962 C 27.5309 36.1257 27.3565 36.7579 27.2037 36.9278 C 26.8141 37.3586 25.8514 37.3068 24.7536 36.7959 C 24.2434 36.5579 23.7981 36.3638 23.7647 36.3638 C 23.7312 36.3638 23.6138 36.8209 23.5037 37.3796 C 23.2905 38.4643 23.0813 38.9397 22.8984 38.7568 C 22.8361 38.6945 22.9043 38.1115 23.0492 37.4603 C 23.4702 35.5735 23.5686 34.3695 23.3548 33.7209 C 22.9541 32.5064 21.028 31.1705 19.6653 31.162 C 18.5281 31.1554 17.351 32.789 16.8814 35.0273 C 16.5706 36.51 16.9523 37.3029 18.9183 39.2598 C 19.9958 40.3313 20.7119 40.9038 21.1041 41.0055 C 21.6412 41.1445 21.7828 41.3465 22.9036 43.5749 C 24.5051 46.7581 25.4815 48.193 27.081 49.7118 C 28.5087 51.068 30.7476 52.6131 32.2461 53.2754 C 34.1859 54.1339 37.842 55.1353 40.4304 55.5176 C 41.5452 55.6828 44.133 55.4592 45.0216 55.1215 Z M 44.9416 49.9735 C 44.1946 49.5879 42.7729 48.1451 42.7729 47.7733 C 42.7729 47.0795 43.3336 47.2198 44.1455 48.1176 C 45.2616 49.3524 45.701 49.5853 46.9411 49.5971 C 48.0992 49.6076 48.4199 49.8043 47.7169 50.0712 C 47.0342 50.3309 45.5312 50.2784 44.9416 49.9735 Z M 41.8521 42.3256 C 41.6475 42.121 41.921 41.9164 42.3991 41.9164 C 42.6594 41.9164 43.1795 41.7597 43.5533 41.5688 C 43.9336 41.3754 44.5435 41.2298 44.935 41.2403 L 45.6354 41.258 L 44.7678 41.5223 C 44.291 41.6678 43.7146 41.9328 43.487 42.1118 C 43.089 42.424 42.0823 42.5558 41.8521 42.3256 Z M 41.1531 41.2796 C 40.8967 41.0239 41.0678 40.875 41.6193 40.875 C 41.9387 40.875 42.4483 40.7891 42.7506 40.6835 C 43.167 40.5379 43.3624 40.5432 43.5572 40.7045 C 43.9284 41.0127 43.8746 41.2665 43.4825 41.0566 C 43.2431 40.9288 42.9801 40.9511 42.5335 41.1373 C 41.8744 41.4134 41.3413 41.4678 41.1531 41.2796 Z M 45.7954 37.5514 C 44.8321 37.0884 44.5311 35.4227 45.181 34.1492 C 45.8302 32.8769 47.0467 32.3411 47.8887 32.9569 C 48.4062 33.3353 48.4671 35.0935 47.9969 36.0647 C 47.3831 37.3324 46.5339 37.9062 45.7954 37.5514 Z M 24.0408 46.8178 C 23.48 45.983 22.5993 44.5186 22.0839 43.5644 C 21.2307 41.9866 21.0129 41.7236 19.683 40.6645 C 16.3194 37.9862 15.5974 36.571 16.3312 34.096 C 16.7332 32.7412 17.3162 31.6814 18.0415 30.9849 C 18.6042 30.4446 18.7741 30.379 19.5754 30.3895 C 20.5703 30.4026 21.3146 30.7233 22.4118 31.6119 C 23.3974 32.41 23.8598 33.4206 23.8598 34.7774 L 23.8598 35.8582 L 24.9444 36.371 C 26.077 36.9068 26.7098 37.0124 26.904 36.6989 C 26.9669 36.5966 27.0882 35.9605 27.1728 35.285 C 27.3814 33.6245 27.8011 32.9772 30.1351 30.7174 C 33.7262 27.2397 37.598 24.6893 40.5091 23.884 C 43.2037 23.1384 46.787 23.0341 52.3016 23.5404 C 54.6218 23.7535 55.4153 23.5587 56.2914 22.5606 C 57.0259 21.7238 57.2207 20.8109 57.1407 18.5819 C 57.0358 15.6623 56.5728 15.0517 52.6505 12.662 C 46.5929 8.9719 40.2435 6.8012 35.5723 6.8235 C 29.0346 6.8543 20.2057 10.8809 15.2695 16.0827 C 11.9728 19.5571 10.8921 22.7482 11.075 28.4687 C 11.2121 32.7379 11.9971 36.0719 13.6372 39.349 C 14.9416 41.9544 18.3137 44.7914 23.1659 47.3647 C 24.168 47.8959 25.0041 48.332 25.0238 48.3333 C 25.0441 48.3347 24.6015 47.6526 24.0408 46.8178 Z M 10.2186 24.8401 C 10.7006 20.1328 13.1172 16.242 17.7569 12.702 C 20.3414 10.7301 24.3149 8.6282 27.504 7.5462 C 28.4103 7.2386 29.2261 6.9205 29.3173 6.8399 C 29.415 6.752 28.7402 5.9644 27.6509 4.8941 C 25.576 2.8572 24.4362 2.1909 22.2917 1.7614 C 17.7254 0.8479 13.2864 1.4381 9.2998 3.4888 C 4.3623 6.028 1.4762 9.6093 1.1765 13.567 C 0.9528 16.5266 2.3405 21.3552 3.9728 23.2944 C 4.519 23.9443 6.1756 24.8382 7.9836 25.4592 C 10.0612 26.1727 10.0828 26.1668 10.2186 24.8401 Z "/>
        <path id="path58" fill="#5d6b97" stroke-width="0.17351242832647562" d="M 29.1068 109.1314 C 27.5552 109.0016 26.0127 108.7813 25.6789 108.6416 C 24.8664 108.3019 24.6415 107.7018 24.8618 106.463 C 24.9864 105.7653 24.968 105.1344 24.7943 104.1205 C 24.6579 103.3204 24.5096 100.6356 24.4454 97.7868 L 24.3345 92.8422 L 24.8762 89.9547 C 25.174 88.367 25.4586 86.961 25.5084 86.8311 C 25.5661 86.6803 25.0926 86.2265 24.2093 85.5877 C 22.5954 84.4211 22.2222 83.8519 22.3855 82.8059 C 22.537 81.8359 23.823 77.5405 24.1529 76.9024 C 24.3968 76.4309 24.3923 76.3791 24.0952 76.2138 C 23.5299 75.901 22.8682 75.0852 22.7659 74.5756 C 22.6373 73.931 22.8446 73.0476 23.5732 71.1458 C 23.9732 70.1011 24.3805 68.4249 24.8152 66.0346 C 25.1707 64.0777 25.5681 62.2178 25.6986 61.9011 C 25.8284 61.5843 26.4324 60.842 27.0404 60.2524 C 28.9631 58.3886 29.6412 56.6659 29.0458 55.1575 C 28.9402 54.8893 28.548 53.8119 28.1755 52.7639 C 27.245 50.1492 26.8876 49.8089 23.0977 47.9228 C 17.4172 45.097 14.1966 42.5151 12.7316 39.6132 C 11.3951 36.9658 10.3674 32.8028 10.1799 29.2766 L 10.0658 27.1341 L 8.0498 26.4731 C 5.8274 25.7445 5.2194 25.4671 4.1177 24.6814 C 1.4985 22.8131 -0.4263 15.9685 0.5285 11.9184 C 1.6716 7.0701 7.2872 2.4015 13.729 0.9443 C 14.3711 0.7987 15.9109 0.7121 17.8737 0.7102 C 21.312 0.7069 23.061 0.9738 24.6408 1.743 C 25.8088 2.3123 27.7263 3.9964 28.8917 5.4758 C 29.9737 6.8504 29.6504 6.7822 32.6225 6.2654 C 37.2629 5.4588 42.5761 6.6307 49.1852 9.9175 C 52.3265 11.4796 55.9321 13.7684 56.7879 14.7435 C 57.5434 15.6033 57.8686 16.8362 57.8686 18.839 C 57.8686 21.0824 57.5361 22.1665 56.5459 23.1567 L 55.7825 23.9201 L 56.2593 26.1944 C 56.6738 28.1716 56.7354 28.8543 56.7302 31.4184 L 56.7243 34.3682 L 55.8921 37.5481 L 55.0599 40.7274 L 55.8566 42.2863 C 57.346 45.2 56.8639 45.9863 52.7338 47.3805 L 51.3297 47.8546 L 50.6772 49.302 C 49.037 52.9436 47.1916 55.0946 45.08 55.8238 C 44.0497 56.1793 43.6044 56.2278 41.5583 56.2068 C 39.9733 56.1904 38.7247 56.075 37.6977 55.8501 L 36.1795 55.5176 L 36.1795 56.4842 L 36.1795 57.4509 L 38.0525 59.3566 C 41.2075 62.5674 41.7669 63.6711 41.8325 66.815 C 41.8758 68.8722 41.8869 68.9233 42.748 71.0422 C 43.2273 72.2213 43.8392 73.4896 44.1074 73.8602 C 44.375 74.23 44.7704 74.7796 44.9849 75.0806 C 45.4918 75.7921 45.4787 76.4178 44.9416 77.2093 C 44.7029 77.5608 44.5081 77.8828 44.5081 77.9254 C 44.5081 77.9674 44.775 78.1137 45.1016 78.2501 C 45.4282 78.3865 45.8315 78.7058 45.9974 78.959 C 46.2597 79.359 46.2742 79.5557 46.1096 80.4404 C 45.7476 82.3881 45.1974 83.0387 43.912 83.0387 C 43.3913 83.0387 43.3205 83.0984 43.2228 83.621 C 43.1624 83.941 42.8922 84.5463 42.6227 84.9654 C 42.302 85.4638 42.1197 85.9943 42.0961 86.496 C 42.0771 86.9184 41.9446 88.0116 41.8016 88.9251 C 41.5511 90.5311 41.376 91.8703 40.7884 96.6595 C 40.6363 97.8996 40.4481 99.1883 40.37 99.5221 C 40.1582 100.4317 40.1241 103.8897 40.3222 104.4117 C 40.4396 104.7199 40.7091 104.935 41.157 105.078 C 42.1059 105.381 44.3671 106.4525 44.7245 106.7686 C 44.8918 106.9162 45.0282 107.2073 45.0282 107.4159 C 45.0282 107.8205 44.6596 108.0514 43.5257 108.3543 C 42.807 108.5465 37.0032 109.0488 36.0057 109.0055 C 35.6719 108.9905 35.203 109.0757 34.9643 109.1944 C 34.4325 109.4593 32.8173 109.4416 29.1068 109.1314 Z M 33.9105 108.09 C 33.4035 107.5425 30.8512 105.5954 30.64 105.5954 C 30.3187 105.5954 30.3206 105.0373 30.6492 102.885 C 30.9817 100.7078 31.2388 99.6998 32.7897 94.4902 C 33.2022 93.1064 33.7937 91.1154 34.1039 90.0655 C 34.4148 89.0162 34.7092 88.047 34.7591 87.9132 C 34.8332 87.7119 34.6213 87.685 33.5622 87.7597 C 31.3732 87.9139 27.6102 87.6594 27.0954 87.3223 C 26.8495 87.161 26.5806 87.0292 26.4974 87.0292 C 26.3728 87.0292 25.8698 89.5238 25.4887 92.0309 C 25.3189 93.1464 25.4251 101.216 25.6271 102.5735 C 25.7393 103.329 25.837 104.8058 25.8435 105.8558 L 25.8553 107.7641 L 27.0594 107.9615 C 27.7217 108.0697 29.0864 108.2114 30.0924 108.2763 C 31.0978 108.3406 31.9549 108.4271 31.9969 108.4691 C 32.0388 108.5111 32.5812 108.5452 33.2022 108.5452 L 34.3308 108.5452 L 33.9105 108.09 Z M 42.5125 107.6703 C 43.2759 107.5641 43.9704 107.41 44.0563 107.3267 C 44.1455 107.2395 43.4097 106.8021 42.321 106.2945 C 41.2809 105.8105 40.235 105.3154 39.9962 105.1947 C 39.5752 104.9816 39.5615 104.9167 39.5136 102.908 C 39.4664 100.913 39.5175 100.4389 40.6278 92.5818 C 40.675 92.248 40.9058 90.7803 41.1413 89.3212 C 41.5623 86.7111 41.5564 85.976 41.117 86.576 C 40.9996 86.7367 40.6402 86.9479 40.3196 87.0449 C 39.8277 87.1931 36.2156 87.7007 35.5283 87.7178 C 35.409 87.7211 35.3119 87.8496 35.3119 88.0044 C 35.3119 88.1585 35.1604 88.7638 34.9748 89.3487 C 34.2666 91.5883 33.9485 92.7248 33.5747 94.357 L 33.1884 96.0451 L 33.7524 99.3011 C 34.062 101.0914 34.5125 103.2208 34.7525 104.0326 C 34.9925 104.8445 35.2037 105.9823 35.2214 106.562 C 35.2385 107.1418 35.3171 107.7195 35.3952 107.8461 C 35.5086 108.0297 36.1067 108.0546 38.3312 107.97 C 39.8671 107.911 41.7492 107.7766 42.5125 107.6703 Z M 34.2705 106.5247 C 34.2705 106.1771 34.1164 105.3757 33.9282 104.7442 C 33.5137 103.3526 32.709 99.6027 32.709 99.0637 C 32.709 97.3881 31.766 100.4618 31.4775 103.0765 C 31.3935 103.8411 31.3037 104.6379 31.2794 104.8465 C 31.2433 105.1449 31.5286 105.4295 32.6225 106.1876 C 33.3858 106.7168 34.0692 107.1516 34.1407 107.1536 C 34.2121 107.1555 34.2705 106.8722 34.2705 106.5247 Z M 31.8959 87.0193 C 32.3326 86.9092 32.7877 86.8961 33.031 86.9859 C 33.4671 87.1472 36.6523 86.86 38.3791 86.5039 C 40.2494 86.1176 41.7636 85.1379 42.2745 83.983 C 42.6739 83.0793 42.6135 82.5462 41.4488 76.7057 L 40.6534 72.7145 L 40.7701 69.7647 C 40.8344 68.1423 40.8776 66.4359 40.8658 65.9723 C 40.8389 64.881 40.3346 63.5825 39.4795 62.4034 L 38.7968 61.4617 L 38.6204 61.926 C 38.5115 62.2119 38.3128 62.3903 38.1023 62.3903 C 37.6203 62.3903 35.8719 61.7365 32.3759 60.2491 L 29.354 58.9631 L 28.7139 59.8143 C 28.3624 60.2826 27.7565 60.9377 27.3676 61.2709 C 26.5013 62.0119 26.4311 62.2251 25.7589 66.1211 C 25.433 68.0105 24.9812 69.93 24.6159 70.9793 C 23.4728 74.2595 23.4564 74.6406 24.4283 75.238 C 25.8894 76.1364 30.8433 77.3779 32.5707 77.2788 C 33.3753 77.2323 33.5144 77.168 33.715 76.7483 C 34.0665 76.0118 34.0134 74.3992 33.6081 73.4955 C 33.334 72.8837 33.2166 72.0561 33.0691 69.6782 C 32.9648 68.0079 32.8402 66.1592 32.791 65.5696 C 32.7346 64.8915 32.7714 64.4548 32.8907 64.3813 C 32.9943 64.317 33.1084 64.2941 33.1452 64.3302 C 33.1812 64.3669 33.4153 66.108 33.6652 68.2007 C 33.9616 70.6848 34.2456 72.3394 34.4836 72.967 C 34.9335 74.1546 35.0575 75.6288 34.7912 76.6184 C 34.5492 77.5162 33.7688 78.3537 33.1747 78.3537 L 32.7464 78.3537 L 33.1615 79.6987 C 33.5996 81.1185 33.696 82.4911 33.397 83.0492 C 32.791 84.1817 28.567 84.7536 27.001 83.9155 C 25.9603 83.3587 25.8173 81.8038 26.557 79.0888 C 26.8043 78.1819 26.9426 77.3831 26.8646 77.3136 C 26.6862 77.1536 25.6166 76.7922 25.3228 76.7922 C 25.0526 76.7922 24.7582 77.5746 23.8676 80.6608 C 23.4873 81.9776 23.1299 83.1298 23.0735 83.2216 C 22.8688 83.5515 23.1777 84.0066 24.0886 84.7182 C 25.2848 85.6527 27.1905 86.6974 28.1913 86.9669 C 29.1815 87.2345 30.9436 87.2594 31.8959 87.0193 Z M 31.3502 83.2098 C 31.7004 83.1108 32.1654 82.8859 32.3831 82.7095 C 32.7589 82.4052 32.7687 82.3383 32.5858 81.3546 C 32.4802 80.7854 32.2106 79.8574 31.9877 79.2934 C 31.6296 78.3897 31.5188 78.2606 31.0604 78.214 C 30.7745 78.1845 29.8819 78.0068 29.0779 77.8192 C 28.2739 77.6316 27.5591 77.5385 27.4902 77.612 C 27.2548 77.8631 26.7512 80.5178 26.7367 81.5802 C 26.721 82.7724 26.9184 83.1259 27.7421 83.3817 C 28.3618 83.5745 30.4059 83.4767 31.3502 83.2098 Z M 44.979 81.3467 C 45.1324 80.9887 45.2656 80.3493 45.2734 79.9256 C 45.2872 79.2357 45.2269 79.1137 44.6937 78.7511 L 44.0982 78.3465 L 43.5093 78.9137 C 42.9421 79.4607 42.9244 79.5171 43.0306 80.4358 C 43.2057 81.9553 43.2319 81.9973 44.0077 81.9973 C 44.6412 81.9973 44.7226 81.9428 44.979 81.3467 Z M 44.1822 76.6689 C 44.5743 76.0367 44.5212 75.8636 43.5428 74.577 C 43.1932 74.1166 42.7283 73.068 42.3125 71.801 L 41.6449 69.7647 L 41.5905 70.6317 C 41.5275 71.6265 41.7433 73.3952 42.2837 76.3187 L 42.6614 78.3615 L 43.249 77.7936 C 43.5723 77.4815 43.992 76.9752 44.1822 76.6689 Z M 38.1285 61.2709 C 38.2302 60.739 37.3744 59.8458 36.8458 59.9317 C 36.4025 60.0032 35.8542 59.5192 35.5414 58.7795 C 35.3434 58.3126 35.3335 57.9434 35.489 56.8095 C 35.5939 56.0416 35.6555 55.3963 35.626 55.3746 C 35.5965 55.353 34.9473 55.1202 34.1839 54.8572 C 32.5136 54.2821 30.9384 53.4512 29.3953 52.333 L 28.2503 51.5028 L 29.1901 53.52 C 30.1187 55.513 30.1292 55.5523 30.0491 56.86 L 29.9685 58.1834 L 31.3824 58.8339 C 33.6127 59.8596 37.8164 61.6952 37.9377 61.6958 C 37.998 61.6965 38.0839 61.505 38.1285 61.2709 Z M 45.0216 55.1215 C 45.5134 54.9346 46.1824 54.5785 46.5083 54.3306 C 47.6041 53.4938 49.3092 50.7349 50.308 48.1819 C 50.6608 47.2782 50.7047 47.2382 51.5907 47.0119 C 52.8111 46.6991 54.972 45.7908 55.5196 45.36 C 55.7616 45.1698 55.9576 44.8439 55.9557 44.6366 C 55.9511 44.1631 55.4068 42.9499 54.7162 41.8725 L 54.1883 41.0488 L 54.8185 38.8164 C 55.6796 35.7663 56.1334 33.3143 56.1334 31.703 C 56.1334 30.3023 55.6697 27.3918 55.1353 25.4323 L 54.8277 24.3044 L 51.1861 24.086 C 42.9237 23.5902 39.7897 24.2571 34.8994 27.5538 C 32.3759 29.2543 28.4293 32.8218 27.9729 33.8147 C 27.8326 34.119 27.664 34.8758 27.5978 35.4962 C 27.5302 36.1257 27.3565 36.7579 27.203 36.9278 C 26.7964 37.3783 25.7911 37.3055 24.6782 36.7441 L 23.7129 36.2575 L 23.5122 37.3199 C 23.402 37.9049 23.244 38.4925 23.1613 38.6263 C 22.8472 39.1352 22.7954 38.5987 23.0492 37.4603 C 23.4702 35.5735 23.5686 34.3695 23.3548 33.7209 C 22.9541 32.5064 21.028 31.1705 19.6653 31.162 C 18.5281 31.1554 17.351 32.789 16.8814 35.0273 C 16.5706 36.51 16.9523 37.3029 18.9183 39.2598 C 19.9952 40.3313 20.7113 40.9038 21.1034 41.0055 C 21.6412 41.1445 21.7828 41.3465 22.9036 43.5749 C 24.5051 46.7581 25.4815 48.193 27.081 49.7125 C 28.508 51.068 30.7476 52.6131 32.2461 53.2754 C 34.1859 54.1339 37.842 55.1353 40.4304 55.5182 C 41.5452 55.6828 44.1323 55.4592 45.0216 55.1215 Z M 44.9416 49.9735 C 44.1946 49.5879 42.7729 48.1451 42.7729 47.7733 C 42.7729 47.0795 43.3336 47.2198 44.1448 48.1176 C 45.2616 49.3524 45.701 49.5853 46.9411 49.5971 C 48.0992 49.6076 48.4199 49.8043 47.7169 50.0719 C 47.0342 50.3309 45.5312 50.2784 44.9416 49.9735 Z M 41.8521 42.3256 C 41.6475 42.121 41.921 41.9164 42.3991 41.9164 C 42.6594 41.9164 43.1788 41.7597 43.5533 41.5688 C 43.9336 41.3754 44.5435 41.2298 44.935 41.2403 L 45.6354 41.258 L 44.7678 41.5223 C 44.291 41.6678 43.7139 41.9328 43.4864 42.1118 C 43.089 42.424 42.0823 42.5558 41.8521 42.3256 Z M 41.1531 41.2803 C 40.8967 41.0239 41.0678 40.875 41.6187 40.875 C 41.9387 40.875 42.4476 40.7891 42.7506 40.6835 C 43.167 40.5379 43.3624 40.5432 43.5572 40.7045 C 43.9284 41.0127 43.8746 41.2665 43.4825 41.0573 C 43.2431 40.9288 42.9795 40.9511 42.5335 41.138 C 41.8744 41.4134 41.3413 41.4678 41.1531 41.2803 Z M 45.7954 37.5514 C 44.8321 37.0884 44.5311 35.4227 45.181 34.1492 C 45.8302 32.8769 47.0467 32.3411 47.8887 32.9569 C 48.4062 33.3353 48.4671 35.0935 47.9969 36.0647 C 47.3831 37.3324 46.5332 37.9062 45.7954 37.5514 Z M 24.0375 46.8178 C 23.4755 45.983 22.6 44.5219 22.0924 43.5716 C 21.2241 41.9439 21.0667 41.7583 19.3879 40.389 C 17.4316 38.7935 16.5057 37.7154 16.1922 36.6681 C 15.76 35.2266 16.6886 32.3136 17.9825 31.0499 C 18.5852 30.4616 18.7727 30.3777 19.4869 30.379 C 20.5027 30.3803 21.6845 30.9403 22.6498 31.8775 C 23.5614 32.7615 23.8598 33.4816 23.8598 34.7938 L 23.8598 35.8385 L 24.8959 36.3612 C 26.0698 36.954 26.7256 37.0235 26.9531 36.5808 C 27.0384 36.4136 27.1584 35.7762 27.22 35.1637 C 27.3728 33.6285 27.8253 32.9438 30.1836 30.6761 C 33.8187 27.182 37.6039 24.688 40.4789 23.8925 C 43.1873 23.1429 46.1161 23.0564 52.1534 23.5463 C 54.3818 23.7273 54.5431 23.7187 55.1897 23.3862 C 56.7289 22.5947 57.1866 21.6005 57.1905 19.039 C 57.1951 16.0879 56.7472 15.3291 53.8775 13.4313 C 49.4922 10.53 44.0412 8.1574 39.5378 7.1888 C 37.1632 6.6786 34.1302 6.6858 31.6834 7.2078 C 25.7629 8.4708 19.7971 11.6278 15.7758 15.6249 C 11.9977 19.3813 10.8921 22.3783 11.0711 28.3821 C 11.1983 32.6389 11.942 35.8778 13.5657 39.2466 C 14.798 41.8036 18.1465 44.6563 23.0787 47.3516 C 24.0335 47.873 24.8697 48.3078 24.9372 48.3176 C 25.0048 48.3281 24.6001 47.6526 24.0375 46.8178 Z M 10.2363 24.791 C 10.7491 20.0023 13.2733 16.0308 18.0481 12.4994 C 20.7041 10.5353 24.3995 8.5994 27.504 7.5462 C 28.4103 7.2386 29.2261 6.9205 29.3173 6.8399 C 29.415 6.752 28.7402 5.9644 27.6509 4.8941 C 25.5884 2.869 24.4316 2.1857 22.3311 1.7509 C 18.0625 0.8669 13.3546 1.4414 9.6093 3.3025 C 4.2252 5.9775 1.1738 9.9398 1.1397 14.3002 C 1.1187 16.9824 2.3523 21.1428 3.6908 22.9029 C 4.4436 23.8932 5.8444 24.7287 7.9718 25.4572 C 10.0776 26.178 10.0881 26.1747 10.2363 24.791 Z "/>
        <path id="path56" fill="#5c5e5f" stroke-width="0.17351242832647562" d="M 29.3068 109.1334 C 27.7696 109.0042 26.2088 108.7996 25.8389 108.6783 C 24.8946 108.3694 24.6205 107.7517 24.8585 106.4702 C 24.9976 105.7213 24.9785 105.1436 24.7746 103.9421 C 24.5811 102.8063 24.5037 100.955 24.4887 97.093 C 24.4677 91.9411 24.4801 91.7391 24.9497 89.4583 C 25.2153 88.1703 25.4678 86.999 25.511 86.8561 C 25.5629 86.6855 25.1071 86.239 24.1909 85.5628 C 22.3291 84.1889 22.1947 83.9142 22.5442 82.1986 C 22.777 81.0562 23.8998 77.4159 24.2663 76.6145 C 24.3503 76.4315 24.2211 76.2525 23.844 76.0295 C 23.5266 75.842 23.164 75.398 22.9698 74.9599 C 22.5744 74.0648 22.6616 73.5192 23.5837 71.1321 C 24.0007 70.0526 24.3837 68.4826 24.8107 66.1067 C 25.1523 64.2056 25.5176 62.3857 25.6219 62.0618 C 25.7301 61.7266 26.3131 60.9797 26.9767 60.3265 C 28.4615 58.8654 29.2353 57.5505 29.2373 56.4842 C 29.2386 55.9701 28.9343 54.8546 28.3631 53.2741 C 27.2089 50.0804 26.9722 49.8364 23.2571 48.012 C 17.9805 45.421 14.2569 42.5079 12.8883 39.9011 C 11.4619 37.1829 10.3655 32.8861 10.1772 29.2766 L 10.0658 27.1341 L 8.0498 26.4731 C 5.8274 25.7445 5.2194 25.4671 4.1177 24.6814 C 1.4985 22.8131 -0.4263 15.9685 0.5285 11.9184 C 1.1201 9.408 3.1294 6.6163 5.7854 4.6121 C 7.2655 3.4953 10.1923 1.9942 11.9741 1.4381 C 16.2538 0.1029 22.7272 0.4537 25.3753 2.1654 C 26.4738 2.8756 28.3474 4.6856 29.2661 5.925 C 29.9193 6.8051 29.6498 6.7776 32.6225 6.268 C 36.1684 5.6601 39.8834 6.1506 44.4845 7.8347 C 46.9096 8.7227 51.7632 11.1589 53.9161 12.5689 C 57.4581 14.8898 57.9762 15.7757 57.828 19.258 C 57.7309 21.5435 57.4299 22.4104 56.4423 23.2557 L 55.7511 23.8473 L 56.2462 26.2449 C 56.6784 28.3408 56.7387 29.0025 56.7275 31.5056 C 56.7151 34.3361 56.7059 34.4029 55.9045 37.476 C 55.4586 39.1857 55.0566 40.6212 55.0113 40.6664 C 54.9661 40.7117 55.0822 40.9642 55.2697 41.2271 C 55.9209 42.1426 56.6534 43.9113 56.6534 44.5697 C 56.6541 45.6662 55.5471 46.4322 52.4806 47.4585 L 51.3441 47.8389 L 50.5965 49.4692 C 48.9662 53.0242 47.1569 55.1064 45.0741 55.8258 C 44.0477 56.1799 43.6071 56.2271 41.5583 56.2035 C 39.9621 56.1845 38.7325 56.0678 37.6977 55.8376 L 36.1795 55.4992 L 36.1795 56.4954 L 36.1795 57.4909 L 37.6728 58.9428 C 39.5457 60.7639 40.551 62.0572 41.2613 63.5583 C 41.7826 64.66 41.8187 64.862 41.8456 66.8196 C 41.8744 68.8735 41.8876 68.9378 42.6955 70.9576 C 43.1473 72.0862 43.7802 73.3723 44.1015 73.8162 C 45.5731 75.8466 45.6512 76.164 44.9416 77.2093 C 44.7029 77.5608 44.5081 77.8828 44.5081 77.9254 C 44.5081 77.9674 44.775 78.1137 45.1016 78.2501 C 45.4282 78.3865 45.8315 78.7058 45.9974 78.959 C 46.2597 79.359 46.2742 79.5557 46.1096 80.4404 C 45.7476 82.3881 45.1974 83.0387 43.912 83.0387 C 43.39 83.0387 43.3211 83.097 43.2214 83.6282 C 43.1605 83.9529 42.9047 84.5188 42.6535 84.886 C 42.4024 85.2539 42.1689 85.8665 42.1354 86.2488 C 42.1013 86.6305 41.9925 87.4541 41.8928 88.0791 C 41.7938 88.7041 41.6803 89.4851 41.6423 89.8143 C 41.6036 90.1436 41.4515 91.3496 41.3039 92.4952 C 41.1563 93.6403 40.9183 95.5532 40.7753 96.7461 C 40.6324 97.939 40.4514 99.1883 40.3733 99.5221 C 40.191 100.2985 40.1136 103.4693 40.2579 104.2386 C 40.3596 104.7796 40.4599 104.8589 41.5269 105.2373 C 42.8339 105.7003 44.2707 106.3935 44.7245 106.7791 C 45.4249 107.3739 44.9259 107.9923 43.4634 108.3419 C 42.504 108.5714 36.8432 109.0541 36.0123 108.9773 C 35.6818 108.9465 35.1971 109.0318 34.9361 109.1669 C 34.3669 109.4613 33.134 109.4541 29.3068 109.1334 Z M 34.2279 108.5753 C 34.3872 108.4737 34.3177 108.3189 33.9675 107.995 C 33.2934 107.3706 30.821 105.4577 30.5889 105.3803 C 30.4505 105.3337 30.4761 104.7219 30.68 103.2083 C 30.9535 101.178 31.6709 98.4617 33.9157 90.9548 C 34.3971 89.3441 34.7912 87.9683 34.7912 87.8968 C 34.7912 87.8253 33.2101 87.7322 31.2774 87.6896 C 28.4306 87.6273 27.6588 87.5571 27.2089 87.321 C 26.9033 87.1603 26.5793 87.0292 26.4888 87.0292 C 26.3078 87.0292 26.1078 87.8129 25.6448 90.3259 C 25.2625 92.4015 25.2389 100.3536 25.6068 103.0791 C 25.7353 104.0333 25.8252 105.461 25.8062 106.2505 C 25.7727 107.6507 25.7832 107.6913 26.2219 107.8585 C 26.4698 107.9523 27.9722 108.1491 29.5606 108.2953 C 31.1489 108.4422 32.5267 108.5911 32.6225 108.6265 C 32.9471 108.7472 34.0095 108.7137 34.2279 108.5753 Z M 40.6042 107.9294 C 42.5427 107.812 44.1901 107.5051 44.114 107.2755 C 44.0373 107.046 42.9919 106.4794 41.1255 105.6564 C 40.3628 105.32 39.6972 104.9783 39.6467 104.897 C 39.5969 104.8157 39.5687 103.6706 39.5851 102.3525 C 39.6139 100.0185 39.6808 99.4801 41.3118 88.4536 C 41.6016 86.4914 41.5531 85.9799 41.1308 86.5577 C 40.8934 86.8823 39.3247 87.2692 37.4806 87.4581 C 35.2325 87.6876 35.3827 87.601 34.9886 88.8995 C 34.1511 91.6591 33.3498 94.8161 33.2776 95.6372 C 33.1871 96.6753 34.0324 101.6055 34.7794 104.3927 C 35.0509 105.4072 35.2345 106.4427 35.186 106.6939 C 35.0502 107.4067 35.2667 107.9904 35.7028 108.0841 C 36.072 108.1635 37.4682 108.1196 40.6042 107.9294 Z M 34.2692 106.5063 C 34.2685 106.1482 34.1125 105.3482 33.9229 104.7278 C 33.7327 104.1074 33.3786 102.5846 33.136 101.3439 C 32.8933 100.1038 32.6494 98.8932 32.5949 98.6545 C 32.4513 98.0295 31.747 100.7333 31.5076 102.8293 C 31.4047 103.7303 31.2755 104.6301 31.2211 104.8288 C 31.1397 105.1265 31.3227 105.3219 32.2533 105.9279 C 32.875 106.3332 33.4763 106.7752 33.5885 106.9109 C 33.9721 107.3726 34.2705 107.1955 34.2692 106.5063 Z M 32.6225 87.039 C 34.2344 87.0626 35.4175 86.9852 37.0471 86.7505 C 39.7844 86.3557 41.5597 85.4369 42.2673 84.0499 C 42.7073 83.1869 42.6988 83.1049 41.5256 77.1391 L 40.656 72.7145 L 40.7871 69.9385 C 41.0134 65.1728 40.9045 64.4843 39.6205 62.5621 C 38.8696 61.4374 38.663 61.3089 38.5771 61.9135 C 38.5417 62.1647 38.3823 62.3234 38.1305 62.3595 C 37.7685 62.4106 33.9774 60.9738 30.7233 59.5514 L 29.3448 58.9487 L 28.6936 59.8203 C 28.3362 60.3003 27.7322 60.9587 27.3525 61.284 C 26.5072 62.0073 26.4318 62.2336 25.7688 66.0346 C 25.1825 69.3962 24.9405 70.3471 24.1936 72.2272 C 23.541 73.8713 23.5404 74.434 24.1909 75.0419 C 25.0907 75.882 30.2308 77.3051 32.3844 77.3103 C 33.5419 77.3129 33.6908 77.1778 33.9255 75.9049 C 34.0993 74.9639 34.0633 74.7311 33.5111 73.2227 C 33.2783 72.5866 32.9865 69.286 32.8461 65.7027 C 32.7877 64.2108 33.1202 63.7668 33.2842 65.1165 C 33.3399 65.5735 33.5544 67.3527 33.7616 69.0709 C 34.0141 71.1609 34.2751 72.5597 34.5518 73.2995 C 35.2214 75.0898 35.0378 76.9195 34.0941 77.8631 C 33.799 78.1576 33.4173 78.3537 33.1379 78.3537 C 32.7609 78.3537 32.6966 78.4114 32.8009 78.6573 C 33.1675 79.5197 33.5767 81.3074 33.5767 82.0451 C 33.5767 83.0951 33.1248 83.5954 31.8309 83.9797 C 30.663 84.3267 28.0536 84.3424 27.2515 84.0073 C 26.2724 83.5981 26.0527 83.078 26.1609 81.4274 C 26.2134 80.6391 26.4469 79.4049 26.6843 78.6665 L 27.1138 77.3306 L 26.3236 77.0618 C 25.8888 76.9135 25.4382 76.7922 25.3228 76.7922 C 25.0428 76.7922 24.7602 77.5451 23.7647 80.9375 L 22.9298 83.7817 L 23.6984 84.4401 C 24.7523 85.3425 26.6016 86.4311 27.8044 86.8567 C 28.6379 87.1518 29.0799 87.1958 30.4531 87.121 C 31.3601 87.0718 32.3359 87.0344 32.6225 87.039 Z M 31.3502 83.2098 C 31.7004 83.1108 32.1654 82.8859 32.3831 82.7095 C 32.7589 82.4052 32.7694 82.3383 32.5864 81.3546 C 32.4802 80.7854 32.2106 79.8574 31.9877 79.2934 C 31.6296 78.3897 31.5188 78.2606 31.0604 78.214 C 30.7745 78.1845 29.8819 78.0068 29.0779 77.8192 C 28.2739 77.6316 27.5591 77.5385 27.4902 77.612 C 27.2548 77.8631 26.7512 80.5178 26.7367 81.5802 C 26.721 82.7724 26.9184 83.1259 27.7427 83.3817 C 28.3618 83.5745 30.4059 83.4767 31.3502 83.2098 Z M 44.979 81.3467 C 45.1331 80.9887 45.2656 80.3493 45.2734 79.9256 C 45.2872 79.2357 45.2269 79.1137 44.6937 78.7511 L 44.0982 78.3465 L 43.5093 78.9137 C 42.9421 79.4607 42.9244 79.5171 43.0306 80.4358 C 43.2057 81.9553 43.2319 81.9973 44.0077 81.9973 C 44.6412 81.9973 44.7226 81.9428 44.979 81.3467 Z M 44.1743 76.6814 C 44.5717 76.0407 44.5107 75.8177 43.611 74.6288 C 43.1657 74.0405 42.7486 73.1283 42.3014 71.7649 L 41.6449 69.7647 L 41.5951 70.8927 C 41.5642 71.58 41.7505 73.2247 42.0718 75.1049 C 42.3617 76.8014 42.5991 78.2415 42.5991 78.3058 C 42.5991 78.5098 43.8235 77.2467 44.1743 76.6814 Z M 38.1292 61.2709 C 38.2302 60.739 37.3744 59.8458 36.8465 59.9317 C 36.4025 60.0032 35.8542 59.5192 35.5414 58.7795 C 35.344 58.3126 35.3342 57.9434 35.489 56.8095 C 35.5945 56.0416 35.6562 55.3963 35.626 55.3746 C 35.5965 55.353 34.9473 55.1202 34.1839 54.8572 C 32.5136 54.2821 30.9384 53.4512 29.3953 52.333 L 28.2503 51.5028 L 29.1901 53.52 C 30.1193 55.513 30.1292 55.5523 30.0491 56.86 L 29.9685 58.1834 L 31.3824 58.8339 C 33.6127 59.8596 37.8164 61.6952 37.9377 61.6958 C 37.998 61.6965 38.0839 61.505 38.1285 61.2709 Z M 45.0216 55.1215 C 45.5141 54.9346 46.183 54.5785 46.5083 54.3306 C 47.6048 53.4938 49.3098 50.7349 50.308 48.1819 C 50.6614 47.2782 50.7054 47.2382 51.5907 47.0119 C 52.8111 46.6991 54.972 45.7908 55.5202 45.36 C 55.7616 45.1698 55.9583 44.8439 55.9557 44.6366 C 55.9511 44.1631 55.4074 42.9499 54.7169 41.8725 L 54.1883 41.0488 L 54.8185 38.8164 C 55.6802 35.7663 56.1334 33.3143 56.1334 31.703 C 56.1334 30.3023 55.6697 27.3918 55.1353 25.4323 L 54.8277 24.3044 L 51.1861 24.086 C 42.9244 23.5902 39.7897 24.2571 34.8994 27.5538 C 32.3759 29.2543 28.4293 32.8218 27.9729 33.8147 C 27.8326 34.119 27.664 34.8758 27.5978 35.4962 C 27.5309 36.1257 27.3565 36.7579 27.2037 36.9278 C 26.7964 37.3783 25.7911 37.3055 24.6782 36.7441 L 23.7129 36.2575 L 23.5122 37.3199 C 23.402 37.9049 23.244 38.4925 23.1613 38.6263 C 22.8472 39.1352 22.7954 38.5987 23.0492 37.4603 C 23.4702 35.5735 23.5686 34.3695 23.3548 33.7209 C 22.9541 32.5064 21.028 31.1705 19.6653 31.162 C 18.5281 31.1554 17.351 32.789 16.8814 35.0273 C 16.5706 36.51 16.9523 37.3029 18.9183 39.2598 C 19.9958 40.3313 20.7119 40.9038 21.1041 41.0055 C 21.6412 41.1445 21.7828 41.3465 22.9036 43.5749 C 24.5051 46.7581 25.4815 48.193 27.081 49.7125 C 28.5087 51.068 30.7476 52.6131 32.2461 53.2754 C 34.1859 54.1339 37.842 55.1353 40.4304 55.5182 C 41.5452 55.6828 44.133 55.4592 45.0216 55.1215 Z M 44.9416 49.9735 C 44.1946 49.5879 42.7729 48.1451 42.7729 47.7733 C 42.7729 47.0795 43.3336 47.2198 44.1455 48.1176 C 45.2616 49.3524 45.701 49.5853 46.9411 49.5971 C 48.0992 49.6076 48.4199 49.8043 47.7169 50.0719 C 47.0342 50.3309 45.5312 50.2784 44.9416 49.9735 Z M 41.8521 42.3256 C 41.6475 42.121 41.921 41.9164 42.3991 41.9164 C 42.6594 41.9164 43.1795 41.7597 43.5533 41.5688 C 43.9343 41.3754 44.5435 41.2298 44.935 41.2403 L 45.6354 41.258 L 44.7678 41.5223 C 44.291 41.6678 43.7146 41.9328 43.487 42.1118 C 43.089 42.424 42.0823 42.5558 41.8521 42.3256 Z M 41.1531 41.2803 C 40.8967 41.0239 41.0678 40.875 41.6193 40.875 C 41.9387 40.875 42.4483 40.7891 42.7506 40.6835 C 43.167 40.5379 43.3624 40.5432 43.5572 40.7045 C 43.9284 41.0127 43.8746 41.2665 43.4825 41.0573 C 43.2431 40.9288 42.9801 40.9511 42.5335 41.138 C 41.8744 41.4134 41.3413 41.4678 41.1531 41.2803 Z M 45.7954 37.5514 C 44.8321 37.0884 44.5311 35.4227 45.181 34.1492 C 45.8302 32.8769 47.0467 32.3411 47.8887 32.9569 C 48.4062 33.3353 48.4671 35.0935 47.9969 36.0647 C 47.3831 37.3324 46.5339 37.9062 45.7954 37.5514 Z M 24.0558 46.8178 C 23.4951 45.983 22.6623 44.5966 22.2058 43.7382 C 21.2084 41.862 21.0333 41.6554 19.283 40.2972 C 17.6763 39.0493 16.4893 37.6596 16.1961 36.6825 C 15.7731 35.2706 16.583 32.61 17.8697 31.1856 C 18.9229 30.0203 20.0647 30.0445 21.8911 31.2709 C 23.2479 32.1824 23.705 32.9582 23.8368 34.5754 L 23.9463 35.9185 L 24.9012 36.3985 C 26.0062 36.954 26.7289 37.0183 26.9531 36.5808 C 27.039 36.4136 27.1577 35.7873 27.2174 35.1879 C 27.2771 34.5892 27.4502 33.8586 27.6024 33.5642 C 27.9965 32.8022 30.4328 30.3069 32.3352 28.7165 C 35.7369 25.873 38.6525 24.2637 41.4862 23.665 C 43.5841 23.2216 47.8815 23.1561 51.897 23.5056 C 54.4473 23.7279 54.5326 23.724 55.2297 23.3685 C 56.7472 22.5947 57.2266 21.5225 57.2266 18.9019 C 57.2266 16.2905 56.738 15.3737 54.5405 13.8595 C 50.0824 10.7884 43.7395 7.9947 39.2093 7.1074 C 37.0347 6.6818 33.9852 6.7133 31.7549 7.1842 C 25.6697 8.4689 19.843 11.5662 15.7049 15.7148 C 12.9854 18.4409 12.0253 20.1525 11.3288 23.5154 C 11.0337 24.9405 10.9983 25.6212 11.0763 28.3821 C 11.1983 32.7057 11.8967 35.7998 13.5067 39.1398 C 14.777 41.7767 17.9694 44.5343 22.9056 47.2585 C 23.9555 47.8382 24.873 48.3176 24.9451 48.3242 C 25.0166 48.3307 24.6165 47.6526 24.0558 46.8178 Z M 10.2271 24.8683 C 10.8298 19.4088 13.672 15.3593 19.6955 11.3793 C 21.8497 9.9556 25.3314 8.261 27.5958 7.5337 C 28.5893 7.2143 29.4052 6.8753 29.4078 6.7795 C 29.4111 6.6845 28.6097 5.8195 27.6286 4.8574 C 24.7602 2.0467 23.0885 1.4355 18.2206 1.4197 C 15.3082 1.4106 14.3042 1.5509 12.0482 2.2834 C 9.1765 3.2166 6.6983 4.7466 4.4974 6.9474 C 1.9136 9.5306 0.9843 11.8502 1.1915 15.1954 C 1.3837 18.2835 2.7176 22.0025 4.142 23.4171 C 4.9414 24.2112 6.3258 24.9431 8.1574 25.5412 C 10.0481 26.1583 10.0861 26.1458 10.2271 24.8683 Z "/>
        <path id="path54" fill="#060707" stroke-width="0.17351242832647562" d="M 30.4052 109.1328 C 30.3797 109.1072 29.3993 109.0029 28.2267 108.9013 C 25.1176 108.6311 24.7438 108.3524 25.0002 106.4873 C 25.0743 105.9489 25.1208 105.4478 25.1031 105.3744 C 24.6769 103.5513 24.3221 95.0974 24.5733 92.7549 C 24.7372 91.2263 25.3392 87.8155 25.5904 86.9925 C 25.7209 86.5636 25.6678 86.4823 25.0008 86.0921 C 24.5975 85.8553 23.8637 85.2992 23.3699 84.8552 C 22.5246 84.0945 22.4721 83.9988 22.4721 83.2118 C 22.4721 82.2445 23.5056 78.4966 24.1234 77.2257 C 24.4237 76.6073 24.4841 76.3384 24.3326 76.2879 C 24.2158 76.2492 23.8276 75.9266 23.4696 75.5711 C 22.5816 74.6884 22.5895 73.929 23.5115 71.5046 C 24.0139 70.1825 24.3726 68.745 24.8211 66.2543 C 25.1608 64.3675 25.5235 62.5385 25.6265 62.1896 C 25.7465 61.7837 26.2075 61.1745 26.9059 60.499 C 28.1296 59.3159 29.1382 57.7663 29.3094 56.8062 C 29.3894 56.3583 29.3153 55.8658 29.0602 55.1582 C 28.8602 54.6027 28.4287 53.3705 28.1001 52.4196 C 27.6037 50.9795 27.3676 50.5519 26.6862 49.86 C 26.2364 49.4036 25.7484 49.0298 25.6015 49.0291 C 25.4546 49.0285 24.2519 48.4822 22.9279 47.8153 C 17.6612 45.1606 14.171 42.3204 12.8017 39.5739 C 11.2685 36.4969 10.1641 31.823 10.1556 28.3762 L 10.1523 27.0692 L 8.461 26.5629 C 4.9814 25.5228 3.277 24.3326 2.2028 22.1934 C 0.9581 19.7151 0.3639 17.1969 0.3659 14.4143 C 0.3679 12.7027 0.438 12.1315 0.7607 11.2042 C 2.4349 6.3953 7.7777 2.271 14.0563 0.941 C 15.6676 0.6 20.3434 0.6446 22.1252 1.0177 C 24.3667 1.4879 25.5766 2.1582 27.3263 3.898 C 28.1519 4.7197 29.0963 5.7178 29.4242 6.1165 L 30.0196 6.8412 L 31.5811 6.51 C 32.4402 6.3277 33.8455 6.129 34.7046 6.0674 C 39.4146 5.7322 46.8946 8.2138 53.2702 12.2259 C 55.8789 13.868 56.7492 14.6215 57.3007 15.7154 C 57.748 16.6034 57.7814 16.8158 57.7762 18.7524 C 57.7729 19.8974 57.6725 21.1657 57.5525 21.5717 C 57.3499 22.2563 56.3105 23.5594 55.8422 23.7155 C 55.6914 23.766 55.7255 24.1509 55.9708 25.172 C 56.5465 27.5709 56.8731 30.4164 56.7767 32.1995 C 56.6862 33.8685 56.1242 36.6949 55.3576 39.3299 L 54.9379 40.7747 L 55.5366 41.7597 C 56.6659 43.6188 56.9177 44.8642 56.2987 45.5292 C 55.8376 46.0236 54.2283 46.8316 52.6341 47.368 L 51.3697 47.7943 L 50.1971 50.104 C 48.3032 53.8335 47.0854 55.1228 44.779 55.8422 C 42.8758 56.435 39.7425 56.3163 36.6563 55.5333 L 36.1795 55.4127 L 36.1795 56.4501 L 36.1795 57.4882 L 37.9593 59.2891 C 39.8572 61.2079 40.875 62.5916 41.4416 64.0213 C 41.7164 64.7158 41.7957 65.3361 41.8089 66.9022 C 41.8259 68.8906 41.8292 68.905 42.7381 71.1622 C 43.3474 72.6738 43.8871 73.7133 44.3599 74.2858 C 45.5207 75.6892 45.6013 76.3181 44.7632 77.4205 L 44.3514 77.9615 L 45.038 78.271 C 45.4157 78.4416 45.8118 78.6862 45.9194 78.8154 C 46.3883 79.3806 45.8918 81.9809 45.1928 82.6131 C 44.9875 82.7987 44.5606 82.9278 44.1212 82.937 C 43.407 82.9515 43.3841 82.9705 43.1034 83.7909 C 42.9454 84.2526 42.6627 84.8382 42.4751 85.092 C 42.2509 85.3969 42.0659 86.0875 41.9341 87.1158 C 41.8233 87.9748 41.6521 89.2241 41.5531 89.8924 C 41.4541 90.56 41.2619 92.0441 41.1255 93.1891 C 40.8075 95.8641 40.5051 98.2997 40.4363 98.7417 C 40.1353 100.6848 40.0526 101.4593 40.0769 102.1249 C 40.0926 102.5545 40.1202 103.3486 40.1379 103.8897 L 40.17 104.8734 L 41.0757 105.1737 C 42.3768 105.6059 44.4275 106.6066 44.756 106.9693 C 45.5049 107.7969 44.2865 108.2586 40.3589 108.6357 C 38.8886 108.7767 37.078 108.8921 36.3349 108.8921 C 35.5913 108.8921 34.9355 108.9727 34.8745 109.0718 C 34.7794 109.2252 30.5554 109.2829 30.4052 109.1328 Z M 34.4922 108.5629 C 34.622 108.4363 33.3281 107.2414 31.9601 106.2256 C 31.5962 105.9548 31.3365 105.6957 31.383 105.6485 C 31.4539 105.5777 32.5648 106.2971 33.9459 107.3083 C 34.2318 107.5175 34.2725 107.5077 34.2849 107.2211 C 34.2928 107.0427 34.3249 106.7011 34.3558 106.4624 C 34.3866 106.2243 34.222 105.4151 33.9905 104.6642 C 33.759 103.9139 33.3609 102.1374 33.1051 100.7169 C 32.8494 99.2965 32.5864 98.1344 32.5202 98.1344 C 32.3523 98.1344 31.7411 100.5648 31.5168 102.1249 C 31.4139 102.8404 31.2847 103.6995 31.2283 104.0333 C 31.1725 104.3678 31.1122 104.8183 31.0938 105.0354 C 31.0728 105.2846 30.9646 105.4105 30.8007 105.377 C 30.5095 105.318 30.5089 105.2721 30.779 103.0588 C 30.9476 101.6796 32.0355 97.4465 33.0488 94.2298 C 33.5327 92.6939 34.965 87.8056 34.965 87.6896 C 34.965 87.6345 33.5557 87.5866 31.8342 87.584 C 28.3139 87.5774 27.447 87.4778 26.7807 87.0062 L 26.3177 86.679 L 26.035 87.923 C 25.4173 90.6393 25.25 92.4716 25.2546 96.4858 C 25.2573 98.6807 25.3504 101.2967 25.4605 102.2981 C 25.5707 103.3001 25.6658 104.9009 25.6717 105.8551 C 25.677 106.8099 25.7386 107.6775 25.8081 107.7844 C 25.9708 108.0343 26.9171 108.1897 29.4989 108.3897 C 30.6446 108.4783 32.0106 108.618 32.5353 108.6999 C 33.5058 108.8514 34.2489 108.7996 34.4922 108.5629 Z M 40.3025 108.0238 C 42.9762 107.8408 44.3835 107.5733 44.2884 107.2644 C 44.2242 107.0545 42.0548 105.9102 40.5386 105.2859 L 39.6054 104.9016 L 39.6979 101.9951 C 39.7536 100.2513 39.97 97.8741 40.2395 96.0516 C 40.8901 91.6473 41.3878 88.451 41.5728 87.4922 C 41.6613 87.0305 41.6902 86.5819 41.6357 86.4941 C 41.4842 86.2488 41.0711 86.3058 40.9098 86.5944 C 40.7465 86.8869 39.5064 87.1538 36.9783 87.441 L 35.2614 87.6365 L 35.0247 88.4175 C 34.6036 89.8025 33.7478 92.9759 33.3937 94.4593 L 33.0494 95.9041 L 33.4075 98.0164 C 33.6042 99.1784 33.839 100.5628 33.9295 101.0921 C 34.02 101.6219 34.2587 102.6758 34.46 103.4346 C 34.9997 105.4649 35.1224 106.1148 35.1309 106.9916 C 35.1348 107.4264 35.2319 107.8749 35.3467 107.9897 C 35.5985 108.2415 36.9724 108.2514 40.3025 108.0238 Z M 37.5672 86.7052 C 40.0677 86.2685 41.6705 85.3726 42.3689 84.0224 C 42.7342 83.3154 42.6102 82.2025 41.6206 77.3129 C 40.6763 72.6424 40.5714 71.4147 40.8606 68.4112 C 41.0554 66.3887 41.0481 65.9932 40.7996 65.0253 C 40.4953 63.839 39.9635 62.8264 39.1437 61.8703 C 38.684 61.3338 38.6217 61.3063 38.6158 61.6316 C 38.6119 61.8349 38.4945 62.0959 38.3548 62.2119 C 38.0216 62.4887 37.2609 62.2355 32.7969 60.3646 L 29.3284 58.9107 L 28.9946 59.3927 C 28.811 59.6576 28.2057 60.318 27.6489 60.8603 C 27.0922 61.4027 26.5603 62.0467 26.4672 62.2913 C 26.3741 62.5359 26.0213 64.3079 25.6822 66.2293 C 25.2297 68.7974 24.8841 70.2067 24.3765 71.5531 C 23.5214 73.8228 23.4892 74.5133 24.2119 75.1213 C 25.1071 75.8741 29.3081 77.0762 32.2034 77.408 C 33.3294 77.5372 33.6285 77.3451 33.9164 76.3089 C 34.1846 75.3423 34.1367 74.6563 33.7354 73.7264 C 33.3281 72.784 33.1353 71.1071 32.9596 66.9887 C 32.8809 65.1565 32.8992 64.2711 33.0127 64.3859 C 33.1071 64.4816 33.3911 66.2772 33.6442 68.3764 C 33.9833 71.195 34.2266 72.5407 34.5728 73.5205 C 35.0089 74.7534 35.0279 74.9252 34.8496 75.9685 C 34.605 77.3956 34.2403 77.9497 33.3766 78.2087 C 32.8671 78.3615 32.7215 78.4822 32.8002 78.6868 C 33.1065 79.4856 33.5767 81.4556 33.5767 81.9422 C 33.5767 82.6636 33.3012 83.2571 32.831 83.5508 C 31.3588 84.4703 27.7381 84.486 26.6161 83.5777 C 25.9996 83.078 25.9721 81.4779 26.5452 79.3944 C 26.7944 78.4881 27.0148 77.6389 27.0345 77.507 C 27.0561 77.3601 26.7171 77.1457 26.1583 76.9529 L 25.2461 76.6388 L 24.9608 77.1916 C 24.6802 77.7333 23.2033 82.516 23.0426 83.402 C 22.9764 83.7673 23.1036 83.9745 23.7142 84.5011 C 24.7005 85.351 26.6377 86.5 27.7473 86.8941 C 28.5277 87.1708 29.0491 87.1971 32.1883 87.1158 C 34.4626 87.0567 36.4025 86.9085 37.5672 86.7052 Z M 31.8873 83.0747 C 32.6704 82.7285 32.709 82.678 32.709 82.0163 C 32.709 81.3657 32.0014 78.8272 31.7122 78.4383 C 31.5837 78.2658 27.5335 77.3877 27.4332 77.5103 C 27.3105 77.6605 26.8089 79.9486 26.7052 80.8286 C 26.4331 83.1456 26.9197 83.6112 29.5016 83.5036 C 30.598 83.4577 31.3109 83.3298 31.8873 83.0747 Z M 44.6327 82.0314 C 44.918 81.8504 45.3836 80.4935 45.4111 79.7663 C 45.4275 79.3347 45.3226 79.0941 45.0137 78.856 C 44.2484 78.2658 43.9861 78.273 43.3775 78.8986 L 42.8109 79.4816 L 42.9965 80.6962 C 43.0982 81.3638 43.2654 81.9678 43.3677 82.0379 C 43.6116 82.2058 44.3652 82.2012 44.6327 82.0307 Z M 44.4497 76.305 C 44.5239 76.0099 44.3363 75.5934 43.7362 74.7232 C 43.1487 73.8707 42.7368 72.9683 42.2561 71.4796 L 41.5911 69.4178 L 41.5747 70.9189 C 41.5603 72.2561 41.8908 74.7481 42.443 77.4631 L 42.6325 78.395 L 43.491 77.5497 C 43.9625 77.0854 44.3947 76.5253 44.4497 76.305 Z M 38.1935 61.2499 C 38.282 60.8964 38.1889 60.6833 37.741 60.2216 C 37.2563 59.7219 37.1285 59.6681 36.8412 59.8432 C 36.552 60.0196 36.4313 59.9658 35.971 59.4537 L 35.4365 58.8602 L 35.5447 57.0895 L 35.6529 55.3195 L 34.3112 54.8467 C 32.5602 54.2296 30.7987 53.3049 29.4793 52.3094 C 28.8963 51.8694 28.3342 51.4569 28.2319 51.3933 C 28.129 51.3297 28.4857 52.1973 29.0254 53.3207 C 29.874 55.0887 30.0065 55.5032 30.0131 56.4042 C 30.0164 56.9767 29.9619 57.603 29.8904 57.7958 C 29.7757 58.1073 29.9862 58.2496 31.7995 59.089 C 34.8286 60.4924 37.6262 61.6932 37.8675 61.6952 C 37.9856 61.6958 38.1318 61.4958 38.1935 61.2499 Z M 45.2065 55.1307 C 47.0054 54.4355 48.5845 52.3809 50.1434 48.7039 L 50.6864 47.4238 L 52.5331 46.7739 C 53.5489 46.4165 54.7352 45.9161 55.17 45.661 C 55.8278 45.2754 55.9596 45.1114 55.9596 44.6793 C 55.9596 44.0438 55.5937 43.1414 54.8913 42.0469 C 54.2618 41.0658 54.2578 41.1235 55.2291 37.4045 C 56.5334 32.4146 56.5249 30.781 55.1687 25.3805 L 54.8887 24.265 L 51.1048 24.0407 C 43.5887 23.5941 40.6297 24.0873 36.4418 26.4836 C 33.879 27.9499 28.6208 32.4533 27.9355 33.7688 C 27.8089 34.0114 27.6266 34.7774 27.5302 35.4706 C 27.4345 36.1638 27.2627 36.8438 27.1486 36.9809 C 26.8239 37.3717 25.953 37.2773 24.7825 36.7231 L 23.7089 36.2156 L 23.4492 37.3534 C 23.3069 37.979 23.0977 38.5784 22.9849 38.6853 C 22.8295 38.8328 22.8065 38.7915 22.8898 38.5154 C 23.1561 37.6301 23.5128 35.3912 23.5128 34.6049 C 23.5128 33.538 23.2013 32.9143 22.3186 32.2159 C 21.4143 31.4991 20.5618 31.1581 19.6745 31.1581 C 19.0541 31.1581 18.8528 31.2584 18.2966 31.8427 C 17.5221 32.6566 16.8998 34.1708 16.789 35.5099 C 16.7254 36.2779 16.789 36.6346 17.0965 37.2379 C 17.5359 38.099 19.8994 40.4927 20.6654 40.8514 C 20.9434 40.9819 21.2877 41.1432 21.4307 41.2108 C 21.5743 41.2776 22.173 42.2869 22.7626 43.4536 C 24.2657 46.4302 25.3169 48.054 26.5374 49.2862 C 29.6504 52.4275 33.5098 54.3057 39.0421 55.372 C 40.8547 55.7215 43.9953 55.5982 45.2065 55.1307 Z M 45.0865 50.003 C 44.3494 49.6672 42.7152 48.075 42.8116 47.7858 C 42.9755 47.2939 43.4674 47.4841 44.2753 48.3511 C 45.2833 49.4338 45.9076 49.7243 47.2264 49.7243 C 48.5754 49.7243 48.2245 50.0502 46.7516 50.1663 C 45.9843 50.226 45.4643 50.1755 45.0865 50.003 Z M 42.0207 42.321 C 41.7616 42.062 41.9381 41.9275 42.5112 41.9492 C 42.8516 41.9623 43.2516 41.8508 43.4228 41.6954 C 43.5913 41.5432 44.1579 41.3747 44.6826 41.3209 L 45.6361 41.2232 L 44.7468 41.4534 C 44.2576 41.5793 43.6418 41.8528 43.3788 42.06 C 42.9119 42.4273 42.2535 42.5538 42.0207 42.321 Z M 41.2547 41.2803 C 40.8409 41.1137 41.0403 40.8999 41.6016 40.9078 C 41.9118 40.9124 42.4974 40.8579 42.9027 40.7858 C 43.4024 40.6979 43.6405 40.7176 43.6405 40.8468 C 43.6405 40.9517 43.5231 40.9924 43.3795 40.9373 C 43.2365 40.8829 42.8057 40.9629 42.422 41.1163 C 41.6895 41.4095 41.6043 41.4219 41.2547 41.2809 Z M 45.5115 37.2747 C 44.7199 36.3677 44.6596 35.4358 45.3069 34.1373 C 46.2709 32.2021 48.035 32.2447 48.2639 34.2095 C 48.5039 36.2687 46.5411 38.4551 45.5115 37.2747 Z M 25.0526 48.1792 C 24.0578 46.8001 23.0459 45.1875 22.1416 43.5408 C 21.2405 41.9 20.9297 41.4954 20.0843 40.8606 C 18.7255 39.8401 17.1582 38.3318 16.7201 37.6229 C 16.2014 36.7835 16.0551 35.9382 16.2348 34.822 C 16.4348 33.5852 17.4598 31.4919 18.1504 30.9108 C 19.4364 29.8288 22.1134 30.823 23.364 32.8461 C 23.6551 33.3176 23.7542 33.7616 23.7725 34.6803 L 23.7975 35.8923 L 24.7398 36.3802 C 25.7471 36.9015 26.6574 37.0202 26.9426 36.6674 C 27.039 36.5481 27.1741 35.9428 27.2417 35.3224 C 27.3099 34.702 27.4922 33.9216 27.647 33.5871 C 28.0365 32.7464 31.4125 29.434 33.4967 27.847 C 36.8648 25.2828 39.2519 24.0932 41.9853 23.6164 C 43.8458 23.2918 47.8199 23.2662 51.8281 23.5535 L 54.7241 23.7607 L 55.5589 23.2505 C 56.8653 22.453 57.2456 21.5225 57.2541 19.1052 C 57.2627 16.7503 56.9781 15.8853 55.854 14.8491 C 53.9043 13.0516 48.0199 9.8539 44.0661 8.4433 C 40.6002 7.2065 38.5692 6.8045 35.7454 6.7966 C 34.0338 6.7914 32.8809 6.8825 31.8414 7.1042 C 25.3169 8.4977 18.2016 12.4718 14.5586 16.7581 C 11.9046 19.8817 10.959 22.7305 10.9603 27.601 C 10.9616 31.9391 11.9184 36.19 13.6366 39.4932 C 15.0347 42.1807 18.2914 44.8727 23.4263 47.5851 C 24.3805 48.0894 25.1904 48.5039 25.2258 48.5058 C 25.2612 48.5078 25.1831 48.3609 25.0526 48.1792 Z M 10.2422 25.1287 C 10.8881 19.5105 13.5966 15.5338 19.4351 11.6324 C 22.2557 9.7477 27.0095 7.5121 29.074 7.0989 C 29.3553 7.0425 29.5862 6.9363 29.5862 6.8615 C 29.5862 6.5625 26.0947 3.2717 25.2225 2.749 C 23.8414 1.9208 21.9232 1.482 19.1754 1.3666 C 15.3495 1.2059 12.5617 1.7548 9.5451 3.2645 C 5.6044 5.2365 2.9727 7.817 1.6257 11.0311 C 1.2735 11.8718 1.2256 12.2738 1.223 14.4143 C 1.2191 17.2198 1.5601 18.8081 2.6795 21.1979 C 3.5721 23.1029 4.3433 23.9109 6.0595 24.7378 C 7.1855 25.2808 9.3916 26.0494 10.01 26.1144 C 10.0743 26.1209 10.1792 25.6776 10.2422 25.1287 Z "/>
      </g>
    </g>
  </g>
</svg>