<svg xmlns="http://www.w3.org/2000/svg" xmlns:xlink="http://www.w3.org/1999/xlink" version="1.1" width="76.54698467923212" height="134.82057476712276" viewBox="-0.038446906571630246 0.44993555211519837 76.54698467923212 134.82057476712276">
  <!-- Exported by Scratch - http://scratch.mit.edu/ -->
  <g id="ID0.9008278464898467">
    <g id="layer1">
      <g id="g63">
        <g id="g32">
          <path id="path46" fill="#cafdfd" stroke-width="0.22955609036494018" d="M 69.4436 134.8773 C 70.0101 134.532 70.994 132.8991 70.994 132.3057 C 70.994 132.1773 71.0756 132.0732 71.1753 132.0732 C 71.276 132.0732 71.4764 131.6272 71.6221 131.0824 C 71.7679 130.5375 72.1904 129.4278 72.56 128.6149 C 73.7157 126.078 74.4367 124.0989 74.4367 123.4682 C 74.4367 122.6804 74.0515 121.9724 73.6237 121.9724 C 73.2706 121.9724 73.275 121.9568 74.0402 120.4784 C 74.8002 119.0104 75.8145 116.1906 75.8145 115.5477 C 75.8145 115.1348 75.6583 114.7947 75.4128 114.6715 C 74.5269 114.2264 73.2012 115.0766 70.0865 118.0881 L 69.2362 118.9089 L 66.3844 117.6968 C 64.8166 117.0305 63.1976 116.4171 62.7872 116.3338 C 62.3769 116.2505 62.0411 116.0995 62.0411 115.9972 C 62.0411 115.8948 61.7053 115.7395 61.2949 115.6519 C 60.6217 115.5087 59.9701 115.2545 57.7941 114.288 C 57.415 114.1197 56.6766 113.855 56.1517 113.7006 L 55.1982 113.4195 L 55.9921 112.3141 C 56.4285 111.7068 56.8458 110.8418 56.9187 110.3933 C 57.0436 109.6185 57.0966 109.5768 57.9538 109.5768 C 58.4509 109.5768 59.0669 109.4649 59.3229 109.3278 C 59.951 108.9912 60.6165 107.4156 60.8039 105.8201 C 60.941 104.6609 60.8993 104.4484 60.4438 103.9634 C 60.161 103.6623 59.6335 103.2927 59.2717 103.1435 L 58.614 102.871 L 59.1797 102.0381 C 60.0838 100.7081 59.9519 99.804 58.5993 98.0523 C 57.7967 97.0129 57.1078 95.6985 56.3036 93.6717 C 55.1843 90.8511 55.154 90.7132 55.154 88.3958 C 55.154 85.5604 54.8104 84.2416 53.5723 82.3268 C 52.4167 80.5387 49.7444 77.5202 48.5323 76.6353 C 47.6196 75.9681 47.5893 75.9056 47.584 74.6267 C 47.578 73.1041 47.519 73.1292 49.8025 73.6932 C 50.9087 73.9674 52.3741 74.0819 54.8095 74.0871 C 57.8358 74.0932 58.4075 74.0324 59.5267 73.5865 C 62.3309 72.469 63.9967 70.5759 66.2551 65.9393 L 67.665 63.045 L 69.2718 62.5244 C 71.2543 61.8824 73.4554 60.8152 74.1721 60.1489 C 74.6414 59.7125 74.6987 59.4817 74.618 58.3538 C 74.5469 57.3543 74.3057 56.6802 73.5578 55.3874 L 72.5887 53.7138 L 73.6333 49.5649 C 74.2076 47.283 74.7603 44.5388 74.861 43.4664 C 75.0874 41.0657 74.8358 37.6629 74.2094 34.6263 C 73.9491 33.3639 73.6819 32.0729 73.6168 31.7571 C 73.5205 31.292 73.6472 31.089 74.2831 30.6839 C 75.3407 30.0097 75.9975 28.5573 76.2864 26.2495 C 76.5649 24.0319 76.2899 21.6607 75.5967 20.302 C 75.0475 19.2261 73.7461 18.0436 71.4894 16.5695 C 65.1307 12.4162 57.7577 9.2599 51.713 8.1033 C 49.5249 7.6843 48.5454 7.6175 45.9738 7.7112 C 44.229 7.7745 42.125 8.0001 41.1628 8.2265 L 39.4528 8.63 L 38.5418 7.5108 C 36.7788 5.3443 34.0545 2.8786 32.6446 2.1741 C 30.1953 0.9499 28.2987 0.6505 23.1312 0.6696 C 19.2009 0.6844 18.2865 0.7564 16.7777 1.172 C 8.6846 3.4026 2.0283 9.1193 0.3997 15.2395 C -0.067 16.992 -0.0228 20.6525 0.4952 23.1486 C 1.3107 27.0798 3.2004 30.9771 4.9304 32.2967 C 6.0488 33.1496 8.9162 34.4311 11.0506 35.0315 L 12.8743 35.5451 L 13.0235 37.8408 C 13.42 43.9488 15.2004 50.3622 17.4301 53.7225 C 19.5896 56.9751 26.5435 61.8008 33.0021 64.5277 C 35.0757 65.4031 35.8964 66.5345 37.256 70.3919 C 38.7335 74.5851 38.7257 75.1334 37.1475 77.443 C 36.5584 78.3054 35.604 79.3978 35.0279 79.8697 C 34.4518 80.3426 33.8497 81.0471 33.6901 81.4366 C 33.5304 81.8262 33.0151 84.2625 32.5457 86.8506 C 31.9436 90.1648 31.4282 92.261 30.8027 93.9364 C 29.6991 96.8914 29.5576 97.6263 29.896 98.6501 C 30.1424 99.3971 31.1202 100.4556 31.7614 100.6699 C 31.9514 100.7332 31.9123 100.9857 31.6286 101.5349 C 31.0872 102.5813 29.4986 107.9049 29.3156 109.2853 C 29.201 110.1521 29.2696 110.5911 29.634 111.3051 C 29.9923 112.007 30.1303 112.8503 30.2344 114.9716 C 30.4357 119.0937 30.4365 119.0963 31.3987 120.2702 C 32.177 121.2211 35.0618 123.3511 35.5676 123.3493 C 35.8565 123.3485 37.8121 124.3601 37.8989 124.5553 C 37.9414 124.6499 38.1678 124.7271 38.4021 124.7271 C 39.1821 124.7271 39.0884 125.1236 38.1635 125.7361 C 36.8994 126.5716 37.0078 126.7061 38.2902 125.8932 C 39.2064 125.3127 39.4137 125.2641 40.0124 125.4897 C 40.3863 125.6311 40.6926 125.8272 40.6926 125.9253 C 40.6926 126.0242 40.821 126.1049 40.9789 126.1057 C 41.1368 126.1066 43.0221 126.9829 45.1686 128.0544 C 47.3151 129.1259 49.2429 130.0039 49.4538 130.0048 C 49.6637 130.0065 49.8702 130.1046 49.9127 130.2243 C 49.9544 130.3432 50.9703 130.7023 52.1703 131.0225 C 53.3693 131.3426 55.2286 131.8554 56.3018 132.1625 C 58.6886 132.8454 62.0281 133.6132 63.418 133.7989 C 65.423 134.0661 65.8204 134.1676 66.5093 134.5901 C 67.5409 135.2217 68.6948 135.3345 69.4436 134.8773 Z "/>
          <path id="path44" fill="#e3e3e3" stroke-width="0.22955609036494018" d="M 69.4436 134.8773 C 70.0101 134.532 70.994 132.8991 70.994 132.3057 C 70.994 132.1773 71.0756 132.0732 71.1753 132.0732 C 71.276 132.0732 71.4764 131.6272 71.6221 131.0824 C 71.7679 130.5375 72.1904 129.4278 72.56 128.6149 C 73.7157 126.078 74.4367 124.0989 74.4367 123.4682 C 74.4367 122.6804 74.0515 121.9724 73.6237 121.9724 C 73.2706 121.9724 73.275 121.9568 74.0402 120.4784 C 74.8002 119.0104 75.8145 116.1906 75.8145 115.5477 C 75.8145 115.1348 75.6583 114.7947 75.4128 114.6715 C 74.5269 114.2264 73.2012 115.0766 70.0865 118.0881 L 69.2362 118.9089 L 66.3844 117.6968 C 64.8166 117.0305 63.1976 116.4171 62.7872 116.3338 C 62.3769 116.2505 62.0411 116.0995 62.0411 115.9972 C 62.0411 115.8948 61.7053 115.7395 61.2949 115.6519 C 60.6217 115.5087 59.9701 115.2545 57.7941 114.288 C 57.415 114.1197 56.6766 113.855 56.1517 113.7006 L 55.1982 113.4195 L 55.9921 112.3141 C 56.4285 111.7068 56.8458 110.8418 56.9187 110.3933 C 57.0436 109.6185 57.0966 109.5768 57.9538 109.5768 C 58.4509 109.5768 59.0669 109.4649 59.3229 109.3278 C 59.951 108.9912 60.6165 107.4156 60.8039 105.8201 C 60.941 104.6609 60.8993 104.4484 60.4438 103.9634 C 60.161 103.6623 59.6335 103.2927 59.2717 103.1435 L 58.614 102.871 L 59.1797 102.0381 C 60.0838 100.7081 59.9519 99.804 58.5993 98.0523 C 57.7967 97.0129 57.1078 95.6985 56.3036 93.6717 C 55.1843 90.8511 55.154 90.7132 55.154 88.3958 C 55.154 85.5604 54.8104 84.2416 53.5723 82.3268 C 52.4167 80.5387 49.7444 77.5202 48.5323 76.6353 C 47.6196 75.9681 47.5893 75.9056 47.584 74.6267 C 47.578 73.1041 47.519 73.1292 49.8025 73.6932 C 50.9087 73.9674 52.3741 74.0819 54.8095 74.0871 C 57.8358 74.0932 58.4075 74.0324 59.5267 73.5865 C 62.3309 72.469 63.9967 70.5759 66.2551 65.9393 L 67.665 63.045 L 69.2718 62.5244 C 71.2543 61.8824 73.4554 60.8152 74.1721 60.1489 C 74.6414 59.7125 74.6987 59.4817 74.618 58.3538 C 74.5469 57.3543 74.3057 56.6802 73.5578 55.3874 L 72.5887 53.7138 L 73.6333 49.5649 C 74.2076 47.283 74.7603 44.5388 74.861 43.4664 C 75.0874 41.0657 74.8358 37.6629 74.2094 34.6263 C 73.9491 33.3639 73.6819 32.0729 73.6168 31.7571 C 73.5205 31.292 73.6472 31.089 74.2831 30.6839 C 75.3407 30.0097 75.9975 28.5573 76.2864 26.2495 C 76.5649 24.0319 76.2899 21.6607 75.5967 20.302 C 75.0475 19.2261 73.7461 18.0436 71.4894 16.5695 C 65.1307 12.4162 57.7577 9.2599 51.713 8.1033 C 49.5249 7.6843 48.5454 7.6175 45.9738 7.7112 C 44.229 7.7745 42.125 8.0001 41.1628 8.2265 L 39.4528 8.63 L 38.5418 7.5108 C 36.7788 5.3443 34.0545 2.8786 32.6446 2.1741 C 30.1953 0.9499 28.2987 0.6505 23.1312 0.6696 C 19.2009 0.6844 18.2865 0.7564 16.7777 1.172 C 8.6846 3.4026 2.0283 9.1193 0.3997 15.2395 C -0.067 16.992 -0.0228 20.6525 0.4952 23.1486 C 1.3107 27.0798 3.2004 30.9771 4.9304 32.2967 C 6.0488 33.1496 8.9162 34.4311 11.0506 35.0315 L 12.8743 35.5451 L 13.0235 37.8408 C 13.42 43.9488 15.2004 50.3622 17.4301 53.7225 C 19.5896 56.9751 26.5435 61.8008 33.0021 64.5277 C 35.0757 65.4031 35.8964 66.5345 37.256 70.3919 C 38.7335 74.5851 38.7257 75.1334 37.1475 77.443 C 36.5584 78.3054 35.604 79.3978 35.0279 79.8697 C 34.4518 80.3426 33.8497 81.0471 33.6901 81.4366 C 33.5304 81.8262 33.0151 84.2625 32.5457 86.8506 C 31.9436 90.1648 31.4282 92.261 30.8027 93.9364 C 29.6991 96.8914 29.5576 97.6263 29.896 98.6501 C 30.1424 99.3971 31.1202 100.4556 31.7614 100.6699 C 31.9514 100.7332 31.9123 100.9857 31.6286 101.5349 C 31.0872 102.5813 29.4986 107.9049 29.3156 109.2853 C 29.201 110.1521 29.2696 110.5911 29.634 111.3051 C 29.9923 112.007 30.1303 112.8503 30.2344 114.9716 C 30.4357 119.0937 30.4365 119.0963 31.3987 120.2702 C 32.177 121.2211 35.0618 123.3511 35.5676 123.3493 C 35.8565 123.3485 37.8121 124.3601 37.8989 124.5553 C 37.9414 124.6499 38.1678 124.7271 38.4021 124.7271 C 39.1821 124.7271 39.0884 125.1236 38.1635 125.7361 C 36.8994 126.5716 37.0078 126.7061 38.2902 125.8932 C 39.2064 125.3127 39.4137 125.2641 40.0124 125.4897 C 40.3863 125.6311 40.6926 125.8272 40.6926 125.9253 C 40.6926 126.0242 40.821 126.1049 40.9789 126.1057 C 41.1368 126.1066 43.0221 126.9829 45.1686 128.0544 C 47.3151 129.1259 49.2429 130.0039 49.4538 130.0048 C 49.6637 130.0065 49.8702 130.1046 49.9127 130.2243 C 49.9544 130.3432 50.9703 130.7023 52.1703 131.0225 C 53.3693 131.3426 55.2286 131.8554 56.3018 132.1625 C 58.6886 132.8454 62.0281 133.6132 63.418 133.7989 C 65.423 134.0661 65.8204 134.1676 66.5093 134.5901 C 67.5409 135.2217 68.6948 135.3345 69.4436 134.8773 Z M 35.1104 113.8663 C 32.7687 112.6942 30.3619 110.9138 30.3619 110.3533 C 30.3619 109.5256 32.7912 101.6286 33.1062 101.4343 C 33.2068 101.3718 33.7734 101.4863 34.3651 101.6876 C 35.1963 101.9713 35.408 102.1396 35.2969 102.4294 C 34.8371 103.6276 34.2419 106.2218 34.1326 107.511 C 33.9556 109.5907 34.4206 110.467 35.9867 111.0014 C 37.97 111.6782 41.1116 111.4405 43.036 110.467 C 43.6859 110.1382 43.9531 109.818 44.163 109.1161 C 44.4311 108.2225 44.2299 106.9809 43.3163 103.8948 C 43.1913 103.4706 43.2529 103.3786 43.665 103.3786 C 44.5127 103.3786 45.0775 102.924 45.5469 101.8629 C 46.1811 100.4304 46.1698 98.1078 45.5217 96.6147 C 45.1712 95.8069 44.8363 93.9442 44.3704 90.2169 C 43.7475 85.2403 43.4369 83.9458 43.0837 84.8655 C 43.0022 85.0789 43.0898 87.6531 43.2798 90.5856 C 43.5601 94.9211 43.7145 96.1453 44.1093 97.1318 C 44.6385 98.454 44.7201 99.6175 44.3695 100.8391 C 43.9973 102.1344 43.4811 102.2368 40.2024 101.6651 C 35.9997 100.9328 32.0711 99.5073 31.39 98.4679 C 30.9649 97.8189 31.0534 97.4172 32.5075 93.3932 C 32.8277 92.5091 33.4584 89.6842 33.9105 87.1143 C 34.3625 84.5453 34.8371 82.247 34.9655 82.0075 C 35.093 81.7681 35.7949 80.9777 36.5246 80.2515 C 37.2534 79.5253 38.0065 78.6811 38.1973 78.3748 L 38.5435 77.8187 L 42.6595 79.5704 C 46.6661 81.2761 48.1549 81.8644 49.4937 82.2713 C 50.0325 82.4344 50.2415 82.3719 50.7057 81.9086 L 51.2662 81.3481 L 52.1841 82.7684 C 53.5975 84.9548 53.8803 86.2189 53.6357 89.2556 C 53.2487 94.0674 53.4023 96.1349 54.5614 101.7718 C 56.1942 109.7096 56.1934 110.5815 54.5432 112.1467 C 52.5954 113.9947 46.6635 115.1469 39.9308 114.9864 C 37.2204 114.9213 37.2187 114.9205 35.1104 113.8663 Z M 55.6286 100.1077 C 55.3388 98.5607 55.0577 96.2624 55.0039 95 L 54.905 92.7043 L 55.6971 95.066 C 56.2402 96.6841 56.7851 97.812 57.4289 98.6458 C 57.9451 99.3156 58.3676 100.0886 58.3676 100.3636 C 58.3676 100.8226 56.6827 102.9196 56.314 102.9196 C 56.2263 102.9196 55.9175 101.6538 55.6286 100.1077 Z "/>
          <path id="path42" fill="#f4dcbd" stroke-width="0.22955609036494018" d="M 69.677 134.5407 C 70.227 134.021 70.7224 133.0015 72.2746 129.204 C 74.5434 123.653 74.8158 122.3186 73.7374 122.0366 C 73.2038 121.8969 73.2142 121.9707 73.6081 121.1473 C 74.7204 118.8256 75.8145 116.0744 75.8145 115.5981 C 75.8145 115.0575 75.3798 114.6272 74.8341 114.6272 C 74.2458 114.6272 72.8004 115.6571 70.8352 117.4773 L 69.185 119.0061 L 67.7361 118.4091 C 66.9396 118.0812 65.9775 117.6717 65.5992 117.499 C 65.22 117.3272 63.7737 116.7563 62.3855 116.2306 C 60.9965 115.7039 59.4469 115.0896 58.942 114.8649 C 58.437 114.6402 57.3863 114.2255 56.6064 113.9435 L 55.1895 113.4308 L 55.9878 112.3202 C 56.4268 111.7094 56.8458 110.8418 56.9187 110.3933 C 57.0436 109.6185 57.0966 109.5768 57.9538 109.5768 C 58.4509 109.5768 59.0669 109.4649 59.3229 109.3278 C 59.951 108.9912 60.6165 107.4156 60.8039 105.8201 C 60.941 104.6609 60.8993 104.4484 60.4438 103.9634 C 60.161 103.6623 59.6335 103.2927 59.2717 103.1435 L 58.614 102.871 L 59.1797 102.0381 C 60.0838 100.7081 59.9519 99.804 58.5993 98.0523 C 57.7967 97.0129 57.1078 95.6985 56.3036 93.6717 C 55.1843 90.8511 55.154 90.7132 55.154 88.3958 C 55.154 85.5604 54.8104 84.2416 53.5723 82.3268 C 52.4167 80.5387 49.7444 77.5202 48.5323 76.6353 C 47.6196 75.9681 47.5893 75.9056 47.584 74.6267 C 47.578 73.1041 47.519 73.1292 49.8025 73.6932 C 50.9087 73.9674 52.3741 74.0819 54.8095 74.0871 C 57.8358 74.0932 58.4075 74.0324 59.5267 73.5865 C 62.3309 72.469 63.9967 70.5759 66.2551 65.9393 L 67.665 63.045 L 69.2718 62.5244 C 71.2543 61.8824 73.4554 60.8152 74.1721 60.1489 C 74.6414 59.7125 74.6987 59.4817 74.618 58.3538 C 74.5469 57.3543 74.3057 56.6802 73.5578 55.3874 L 72.5887 53.7138 L 73.6333 49.5649 C 74.2076 47.283 74.7603 44.5388 74.861 43.4664 C 75.0874 41.0657 74.8358 37.6629 74.2094 34.6263 C 73.9491 33.3639 73.6819 32.0729 73.6168 31.7571 C 73.5205 31.292 73.6472 31.089 74.2831 30.6839 C 75.3407 30.0097 75.9975 28.5573 76.2864 26.2495 C 76.5649 24.0319 76.2899 21.6607 75.5967 20.302 C 75.0475 19.2261 73.7461 18.0436 71.4894 16.5695 C 65.1307 12.4162 57.7577 9.2599 51.713 8.1033 C 49.5249 7.6843 48.5454 7.6175 45.9738 7.7112 C 44.229 7.7745 42.125 8.0001 41.1628 8.2265 L 39.4528 8.63 L 38.5418 7.5108 C 36.7788 5.3443 34.0545 2.8786 32.6446 2.1741 C 30.1953 0.9499 28.2987 0.6505 23.1312 0.6696 C 19.2009 0.6844 18.2865 0.7564 16.7777 1.172 C 8.6846 3.4026 2.0283 9.1193 0.3997 15.2395 C -0.067 16.992 -0.0228 20.6525 0.4952 23.1486 C 1.3107 27.0798 3.2004 30.9771 4.9304 32.2967 C 6.0488 33.1496 8.9162 34.4311 11.0506 35.0315 L 12.8743 35.5451 L 13.0235 37.8408 C 13.42 43.9488 15.2004 50.3622 17.4301 53.7225 C 19.5896 56.9751 26.5435 61.8008 33.0021 64.5277 C 35.0757 65.4031 35.8964 66.5345 37.256 70.3919 C 38.7335 74.5851 38.7257 75.1334 37.1475 77.443 C 36.5584 78.3054 35.604 79.3978 35.0279 79.8697 C 34.4518 80.3426 33.8497 81.0471 33.6901 81.4366 C 33.5304 81.8262 33.0151 84.2625 32.5457 86.8506 C 31.9436 90.1648 31.4282 92.261 30.8027 93.9364 C 29.6991 96.8914 29.5576 97.6263 29.896 98.6501 C 30.1424 99.3971 31.1202 100.4556 31.7614 100.6699 C 31.9514 100.7332 31.9123 100.9857 31.6286 101.5349 C 31.0751 102.6047 29.4969 107.9188 29.3069 109.3512 C 29.175 110.3473 29.2271 110.6292 29.6496 111.2001 C 30.0834 111.7866 30.1762 112.3419 30.3645 115.4688 C 30.6326 119.917 30.768 120.1782 33.92 122.3221 C 35.0141 123.0656 47.9831 129.4157 50.0663 130.2278 C 52.4002 131.137 60.8169 133.3173 63.4249 133.6878 C 64.4947 133.8396 65.8959 134.2101 66.5405 134.5103 C 68.0181 135.2009 68.9699 135.2105 69.677 134.5407 Z M 35.9624 114.3444 C 34.4666 113.7292 31.4551 111.7936 30.722 110.9754 C 30.2856 110.4896 30.2856 110.4488 30.6994 108.8229 C 31.3449 106.2912 32.8737 101.5783 33.0932 101.4421 C 33.2007 101.3753 33.7699 101.4855 34.3581 101.685 C 35.2579 101.9921 35.4045 102.1223 35.2822 102.5084 C 33.6363 107.6958 33.6892 109.9516 35.4791 110.801 C 37.2985 111.6643 41.1941 111.4752 43.0473 110.434 C 44.3591 109.6966 44.5734 108.7205 43.954 106.3042 C 43.6876 105.2631 43.4004 104.1794 43.3163 103.8948 C 43.1913 103.4723 43.2529 103.3786 43.6581 103.3786 C 44.4442 103.3786 45.2146 102.7366 45.6085 101.7536 C 46.1334 100.4417 46.0839 97.9517 45.5078 96.6485 C 45.1894 95.9293 44.8346 93.9346 44.3834 90.3219 C 44.0208 87.4206 43.6538 84.934 43.5696 84.7969 C 43.4846 84.6598 43.3084 84.6138 43.1774 84.6945 C 43.0213 84.7908 42.9926 85.7938 43.0924 87.6253 C 43.4386 93.9589 43.6702 96.0672 44.1344 97.117 C 44.8372 98.7065 44.6723 101.2876 43.8342 101.8212 C 43.0568 102.3149 38.8029 101.5878 34.6904 100.2587 C 32.7409 99.6288 32.1015 99.3121 31.6191 98.7395 C 30.8929 97.8753 30.9215 97.6237 32.1119 94.4613 C 32.662 92.9993 33.2086 90.8008 33.717 87.9984 C 34.8787 81.6015 34.8423 81.7178 35.9988 80.7695 C 36.5515 80.3166 37.3393 79.4793 37.7488 78.9084 C 38.2242 78.2464 38.6225 77.9089 38.8472 77.9775 C 39.0415 78.0365 40.9043 78.8034 42.9874 79.6823 C 45.0714 80.5612 47.5294 81.552 48.4517 81.8843 L 50.127 82.4873 L 50.6797 81.8913 L 51.2324 81.2952 L 52.1676 82.7424 C 53.607 84.9704 53.8786 86.1946 53.6357 89.3684 C 53.2634 94.2244 53.3962 95.8807 54.669 102.2828 C 55.9123 108.5374 56.045 109.8978 55.5106 110.9312 C 55.0499 111.8213 53.6756 112.9813 52.4678 113.4993 C 50.4055 114.3834 44.5248 115.0914 40.1182 114.9855 C 37.7991 114.9309 37.1423 114.8294 35.9624 114.3444 Z M 54.9527 95.5033 C 54.6855 92.8596 54.9362 92.2662 55.4767 94.2626 C 55.9947 96.1748 56.8094 97.9196 57.677 98.972 C 58.5455 100.0261 58.5463 100.5667 57.6787 101.6581 C 56.2584 103.4445 56.2489 103.4385 55.6771 100.3628 C 55.3952 98.8514 55.0698 96.6641 54.9527 95.5033 Z M 26.6598 60.1523 C 21.6545 57.0428 18.7185 54.0426 17.1829 50.468 C 15.1986 45.8489 14.4282 41.8249 14.4334 36.1186 C 14.4377 32.2794 14.495 31.6608 15.0321 29.6705 C 15.6498 27.38 16.3925 25.709 17.5759 23.952 C 21.7803 17.7078 31.1566 11.8905 40.9216 9.469 C 42.7957 9.0039 43.6512 8.9302 47.0053 8.9397 C 50.6068 8.9501 51.1109 9.0048 53.5472 9.652 C 58.5542 10.9812 64.0522 13.3368 68.6983 16.1435 C 74.5608 19.6851 75.3555 20.7263 75.3555 24.8708 C 75.3555 28.1357 74.6666 29.6661 72.8238 30.4973 C 71.9241 30.9034 71.6117 30.9112 67.2433 30.6491 C 57.4566 30.0618 54.223 30.4366 49.76 32.6768 C 45.9868 34.5708 40.585 38.7969 37.6516 42.1502 C 36.0387 43.9948 35.8609 44.3557 35.6188 46.2827 C 35.3073 48.7632 35.0071 48.8977 32.4858 47.6839 L 31.2807 47.1034 L 31.2807 45.6432 C 31.2807 43.8265 31.0699 43.2651 29.9246 42.0227 C 28.1911 40.1417 25.4703 39.3053 24.0318 40.2102 C 21.861 41.5759 20.2967 46.5057 21.2841 48.869 C 21.7326 49.9423 23.6587 51.9499 25.8312 53.6079 C 27.2567 54.6959 27.7504 55.2391 28.2987 56.3253 C 29.3468 58.4015 30.9866 61.118 32.0251 62.4992 L 32.9604 63.7425 L 30.9155 62.6337 C 29.7902 62.0238 27.8753 60.9072 26.6598 60.1523 Z M 10.2758 33.3171 C 7.8552 32.5267 6.1355 31.5801 5.1204 30.4782 C 2.672 27.8225 0.8457 21.0716 1.4296 16.8359 C 2.1731 11.4506 7.2643 6.1295 14.4048 3.2768 C 17.6627 1.9754 20.0217 1.6249 24.6235 1.7576 C 28.8705 1.8799 30.4435 2.1663 32.4156 3.1779 C 33.6909 3.8312 36.3302 6.0731 37.6421 7.6149 L 38.6086 8.7514 L 36.1498 9.5948 C 25.9414 13.093 17.1638 20.1172 14.5653 26.8655 C 13.8243 28.7881 13.145 31.7102 13.145 32.9717 C 13.145 34.2081 13.0426 34.2202 10.2758 33.3171 Z "/>
          <path id="path40" fill="#97b0fd" stroke-width="0.22955609036494018" d="M 69.677 134.5407 C 70.227 134.021 70.7224 133.0015 72.2746 129.204 C 74.5434 123.653 74.8158 122.3186 73.7374 122.0366 C 73.2038 121.8969 73.2142 121.9707 73.6081 121.1473 C 74.7204 118.8256 75.8145 116.0744 75.8145 115.5981 C 75.8145 115.3673 75.6904 115.0541 75.5386 114.9022 C 74.821 114.1847 73.6645 114.8502 70.5107 117.794 L 69.2093 119.0087 L 66.9448 118.0673 C 65.6998 117.5493 63.5959 116.7086 62.2701 116.1993 C 60.9444 115.69 59.4469 115.0896 58.942 114.8649 C 58.437 114.6402 57.3863 114.2255 56.6064 113.9435 L 55.1895 113.4308 L 55.9878 112.3202 C 56.4268 111.7094 56.8458 110.8418 56.9187 110.3933 C 57.0436 109.6185 57.0966 109.5768 57.9538 109.5768 C 58.4509 109.5768 59.0669 109.4649 59.3229 109.3278 C 59.951 108.9912 60.6165 107.4156 60.8039 105.8201 C 60.941 104.6609 60.8993 104.4484 60.4438 103.9634 C 60.161 103.6623 59.6335 103.2927 59.2717 103.1435 L 58.614 102.871 L 59.1797 102.0381 C 60.0838 100.7081 59.9519 99.804 58.5993 98.0523 C 57.7967 97.0129 57.1078 95.6985 56.3036 93.6717 C 55.1843 90.8511 55.154 90.7132 55.154 88.3958 C 55.154 85.5604 54.8104 84.2416 53.5723 82.3268 C 52.4167 80.5387 49.7444 77.5202 48.5323 76.6353 C 47.6196 75.9681 47.5893 75.9056 47.584 74.6267 C 47.578 73.1041 47.519 73.1292 49.8025 73.6932 C 50.9087 73.9674 52.3741 74.0819 54.8095 74.0871 C 57.8358 74.0932 58.4075 74.0324 59.5267 73.5865 C 62.3309 72.469 63.9967 70.5759 66.2551 65.9393 L 67.665 63.045 L 69.2718 62.5244 C 71.2543 61.8824 73.4554 60.8152 74.1721 60.1489 C 74.6414 59.7125 74.6987 59.4817 74.618 58.3538 C 74.5469 57.3543 74.3057 56.6802 73.5578 55.3874 L 72.5887 53.7138 L 73.6333 49.5649 C 74.2076 47.283 74.7603 44.5388 74.861 43.4664 C 75.0874 41.0657 74.8358 37.6629 74.2094 34.6263 C 73.9491 33.3639 73.6819 32.0729 73.6168 31.7571 C 73.5205 31.292 73.6472 31.089 74.2831 30.6839 C 75.3407 30.0097 75.9975 28.5573 76.2864 26.2495 C 76.5649 24.0319 76.2899 21.6607 75.5967 20.302 C 75.0475 19.2261 73.7461 18.0436 71.4894 16.5695 C 65.1307 12.4162 57.7577 9.2599 51.713 8.1033 C 49.5249 7.6843 48.5454 7.6175 45.9738 7.7112 C 44.229 7.7745 42.125 8.0001 41.1628 8.2265 L 39.4528 8.63 L 38.5418 7.5108 C 36.7788 5.3443 34.0545 2.8786 32.6446 2.1741 C 30.1953 0.9499 28.2987 0.6505 23.1312 0.6696 C 19.2009 0.6844 18.2865 0.7564 16.7777 1.172 C 8.6846 3.4026 2.0283 9.1193 0.3997 15.2395 C -0.067 16.992 -0.0228 20.6525 0.4952 23.1486 C 1.3107 27.0798 3.2004 30.9771 4.9304 32.2967 C 6.0488 33.1496 8.9162 34.4311 11.0506 35.0315 L 12.8743 35.5451 L 13.0235 37.8408 C 13.42 43.9488 15.2004 50.3622 17.4301 53.7225 C 19.5896 56.9751 26.5435 61.8008 33.0021 64.5277 C 35.0757 65.4031 35.8964 66.5345 37.256 70.3919 C 38.7335 74.5851 38.7257 75.1334 37.1475 77.443 C 36.5584 78.3054 35.604 79.3978 35.0279 79.8697 C 34.4518 80.3426 33.8497 81.0471 33.6901 81.4366 C 33.5304 81.8262 33.0151 84.2625 32.5457 86.8506 C 31.9436 90.1648 31.4282 92.261 30.8027 93.9364 C 29.6991 96.8914 29.5576 97.6263 29.896 98.6501 C 30.1424 99.3971 31.1202 100.4556 31.7614 100.6699 C 31.9514 100.7332 31.9123 100.9857 31.6286 101.5349 C 31.0751 102.6047 29.4969 107.9188 29.3069 109.3512 C 29.175 110.3473 29.2271 110.6292 29.6496 111.2001 C 30.0834 111.7866 30.1762 112.3419 30.3645 115.4688 C 30.6326 119.917 30.768 120.1782 33.92 122.3221 C 35.0097 123.063 47.9198 129.381 50.0663 130.2243 C 52.3741 131.1301 60.7995 133.3147 63.4249 133.6878 C 64.4947 133.8396 65.8959 134.2101 66.5405 134.5103 C 68.0181 135.2009 68.9699 135.2105 69.677 134.5407 Z M 35.9624 114.3444 C 34.4666 113.7292 31.4551 111.7936 30.722 110.9754 C 30.2856 110.4896 30.2856 110.4488 30.6994 108.8229 C 31.3449 106.2912 32.8737 101.5783 33.0932 101.4421 C 33.2007 101.3753 33.7699 101.4855 34.3581 101.685 C 35.2579 101.9921 35.4045 102.1223 35.2822 102.5084 C 33.6363 107.6958 33.6892 109.9516 35.4791 110.801 C 37.2985 111.6643 41.1941 111.4752 43.0473 110.434 C 44.3591 109.6966 44.5734 108.7205 43.954 106.3042 C 43.6876 105.2631 43.4004 104.1794 43.3163 103.8948 C 43.1913 103.4723 43.2529 103.3786 43.6581 103.3786 C 44.4442 103.3786 45.2146 102.7366 45.6085 101.7536 C 46.1334 100.4417 46.0839 97.9517 45.5078 96.6485 C 45.1894 95.9293 44.8346 93.9346 44.3834 90.3219 C 44.0208 87.4206 43.6538 84.934 43.5696 84.7969 C 43.4846 84.6598 43.3084 84.6138 43.1774 84.6945 C 43.0213 84.7908 42.9926 85.7938 43.0924 87.6253 C 43.4386 93.9589 43.6702 96.0672 44.1344 97.117 C 44.8372 98.7065 44.6723 101.2876 43.8342 101.8212 C 43.0568 102.3149 38.8029 101.5878 34.6904 100.2587 C 32.7409 99.6288 32.1015 99.3121 31.6191 98.7395 C 30.8929 97.8753 30.9215 97.6237 32.1119 94.4613 C 32.662 92.9993 33.2086 90.8008 33.717 87.9984 C 34.8787 81.6015 34.8423 81.7178 35.9988 80.7695 C 36.5515 80.3166 37.3393 79.4793 37.7488 78.9084 C 38.2242 78.2464 38.6225 77.9089 38.8472 77.9775 C 39.0415 78.0365 40.9043 78.8034 42.9874 79.6823 C 45.0714 80.5612 47.5294 81.552 48.4517 81.8843 L 50.127 82.4873 L 50.6797 81.8913 L 51.2324 81.2952 L 52.1676 82.7424 C 53.607 84.9704 53.8786 86.1946 53.6357 89.3684 C 53.2634 94.2244 53.3962 95.8807 54.669 102.2828 C 55.9123 108.5374 56.045 109.8978 55.5106 110.9312 C 55.0499 111.8213 53.6756 112.9813 52.4678 113.4993 C 50.4055 114.3834 44.5248 115.0914 40.1182 114.9855 C 37.7991 114.9309 37.1423 114.8294 35.9624 114.3444 Z M 36.0283 109.772 C 35.2848 109.3807 35.1893 109.1361 35.1919 107.6256 C 35.1937 106.4187 35.8652 102.6203 36.122 102.3626 C 36.1741 102.3114 37.0425 102.4572 38.0524 102.688 C 39.0623 102.9188 40.2649 103.1704 40.7247 103.2485 C 41.5402 103.3864 41.5741 103.435 42.1753 105.2804 C 42.5727 106.5046 42.7645 107.5353 42.7167 108.2017 C 42.6447 109.215 42.6239 109.2393 41.496 109.6237 C 40.1581 110.0809 36.7883 110.172 36.0283 109.772 Z M 56.8805 107.2239 C 56.7981 106.6868 56.6792 105.9381 56.6168 105.5589 C 56.5248 105.0054 56.6419 104.7364 57.2163 104.1863 L 57.9303 103.5018 L 58.7806 103.9625 C 59.5372 104.3729 59.6274 104.5178 59.6048 105.2787 C 59.5901 105.7489 59.4009 106.5983 59.184 107.1666 C 58.811 108.1418 58.7407 108.1991 57.9104 108.1991 C 57.0523 108.1991 57.0272 108.1756 56.8805 107.2239 Z M 54.9527 95.5033 C 54.6855 92.8596 54.9362 92.2662 55.4767 94.2626 C 55.9947 96.1748 56.8094 97.9196 57.677 98.972 C 58.5455 100.0261 58.5463 100.5667 57.6787 101.6581 C 56.2593 103.4445 56.2489 103.4385 55.6771 100.3628 C 55.3952 98.8514 55.0698 96.6641 54.9527 95.5033 Z M 44.229 78.8295 C 41.732 77.6894 39.6063 76.6743 39.5066 76.5745 C 39.4059 76.4739 39.4337 75.9932 39.5682 75.5065 C 39.9013 74.3014 39.6879 73.3783 38.4194 70.5368 L 37.3375 68.111 L 38.96 69.2744 C 40.8262 70.6114 43.0143 71.7341 45.2302 72.4898 C 46.4579 72.908 46.7642 73.105 46.7216 73.4485 C 46.3859 76.1702 46.3919 77.1567 46.7503 77.8499 C 47.2413 78.7991 48.1888 79.4455 48.554 79.0802 C 48.9254 78.7089 50.1045 79.8715 50.1045 80.6098 C 50.1045 81.1052 50.0272 81.1538 49.4364 81.0358 C 49.0694 80.9621 46.726 79.9695 44.229 78.8295 Z M 50.599 72.6243 C 44.2958 71.3368 40.3143 69.5286 36.3502 66.1519 C 34.0579 64.2006 32.4988 62.0273 30.2457 57.6467 C 28.6232 54.4912 28.4445 54.2387 27.5413 53.8257 C 26.2694 53.2444 23.7247 50.8949 22.7903 49.4382 C 22.1031 48.3676 22.0536 48.1619 22.1352 46.7174 C 22.2402 44.8589 23.2987 42.4695 24.4457 41.5056 C 25.0617 40.9868 25.3081 40.9174 26.0889 41.0414 C 27.3513 41.2436 29.129 42.2535 29.9272 43.2226 C 30.5146 43.9349 30.5918 44.2073 30.5918 45.5782 C 30.5918 46.431 30.4244 47.9606 30.2188 48.9792 C 30.014 49.9969 29.9038 50.8871 29.9741 50.9582 C 30.2752 51.2584 30.5606 50.7188 30.8382 49.3202 C 31.0013 48.4986 31.1966 47.8262 31.2712 47.8262 C 31.3467 47.8262 31.6113 47.965 31.8603 48.1359 C 32.7426 48.7389 34.4666 49.2603 35.0731 49.1076 C 35.7602 48.9358 36.3302 47.8131 36.332 46.628 C 36.3346 44.9622 36.7493 44.2334 38.9209 42.0721 C 44.1257 36.8916 49.6455 33.3578 54.3965 32.1649 C 56.189 31.7146 57.0237 31.6564 61.8112 31.6504 C 64.7784 31.646 68.3209 31.6938 69.683 31.7571 L 72.1601 31.8716 L 72.4863 33.0195 C 73.0433 34.9751 73.7235 38.672 73.8805 40.5955 C 74.0957 43.2339 73.707 45.435 71.7792 52.4809 C 71.3705 53.9732 71.3705 54.0617 71.761 54.6612 C 72.5843 55.9253 73.7851 58.6011 73.7088 59.0036 C 73.6072 59.545 71.3619 60.7415 69.0427 61.4902 C 68.032 61.8164 67.0715 62.1548 66.9075 62.2433 C 66.7436 62.3309 66.2716 63.2324 65.8577 64.2457 C 64.3663 67.8984 62.0333 71.2127 60.3267 72.1029 C 58.2375 73.1926 54.3887 73.3982 50.599 72.6243 Z M 61.8112 66.2742 C 63.1412 66.0487 63.418 65.935 63.418 65.6122 C 63.418 65.3494 63.1031 65.2721 62.0298 65.2721 C 60.3388 65.2721 59.7272 64.9745 58.2835 63.4467 C 57.1061 62.2008 56.4693 62.0359 56.3409 62.9435 C 56.2853 63.3348 56.5465 63.7495 57.3117 64.4817 C 58.8847 65.9897 60.259 66.5371 61.8112 66.2742 Z M 57.2675 55.4855 C 57.474 55.279 58.136 54.9848 58.7398 54.8321 C 59.3428 54.6786 59.8764 54.4348 59.9241 54.2908 C 60.0577 53.8908 57.9364 54.2274 57.0783 54.7428 C 56.6844 54.9788 56.0389 55.1722 55.6433 55.1722 C 55.1574 55.1722 54.9249 55.2833 54.9249 55.5167 C 54.9249 56.0086 56.7686 55.9843 57.2675 55.4855 Z M 56.2333 54.1242 C 56.6957 53.922 57.0202 53.8864 57.1078 54.0279 C 57.3161 54.3654 57.6796 54.3003 57.6796 53.9246 C 57.6796 53.4344 56.8606 53.267 55.9418 53.5706 C 55.4949 53.7181 54.8928 53.7789 54.6022 53.706 C 53.9879 53.5515 53.758 53.7077 53.9324 54.1615 C 54.0885 54.5693 55.2607 54.5502 56.2333 54.1242 Z M 61.7582 49.3575 C 63.038 48.6469 63.9629 46.3373 63.6514 44.6325 C 63.4128 43.3267 63.0718 43.0057 61.9248 43.0057 C 61.0772 43.0057 60.8377 43.1263 60.1289 43.9106 C 58.6479 45.5495 58.4821 47.7463 59.7445 49.0087 C 60.4551 49.7193 60.9514 49.8052 61.7582 49.3575 Z M 26.6598 60.1523 C 21.6545 57.0428 18.7185 54.0426 17.1829 50.468 C 15.1986 45.8489 14.4282 41.8249 14.4334 36.1186 C 14.4377 32.2794 14.495 31.6608 15.0321 29.6705 C 15.6498 27.38 16.3933 25.709 17.5759 23.952 C 21.7803 17.7078 31.1566 11.8905 40.9216 9.469 C 42.7957 9.0039 43.6512 8.9302 47.0053 8.9397 C 50.6068 8.9501 51.1109 9.0048 53.5472 9.652 C 59.4747 11.2259 65.5749 13.9988 70.994 17.582 C 74.585 19.9567 75.3555 21.2095 75.3555 24.6713 C 75.3555 28.0897 74.7707 29.5065 72.9869 30.4166 C 72.0863 30.8765 71.8625 30.8903 68.4744 30.6977 C 62.7074 30.3689 56.6992 30.46 54.6299 30.906 C 51.0562 31.6764 47.4253 33.612 43.2408 36.9775 C 40.5998 39.1014 36.7233 42.9424 36.2018 43.9514 C 35.991 44.3583 35.7281 45.4116 35.6179 46.2905 C 35.3073 48.7623 35.0054 48.8968 32.4858 47.6839 L 31.2807 47.1034 L 31.2807 45.6059 C 31.2807 43.7631 30.8643 42.8252 29.5238 41.6453 C 27.5821 39.937 25.3818 39.3617 24.0318 40.2102 C 21.861 41.5759 20.2967 46.5057 21.2841 48.869 C 21.7326 49.9423 23.6587 51.9499 25.8312 53.6079 C 27.2567 54.6959 27.7504 55.2391 28.2987 56.3253 C 29.3468 58.4015 30.9866 61.118 32.0251 62.4992 L 32.9604 63.7425 L 30.9155 62.6337 C 29.7902 62.0238 27.8753 60.9072 26.6598 60.1523 Z M 10.2758 33.3214 C 7.843 32.5197 6.1329 31.5766 5.123 30.4808 C 2.6677 27.8173 0.8474 21.1549 1.4201 16.9278 C 1.8877 13.4721 4.2684 9.7397 7.6617 7.1412 C 11.1755 4.4498 14.8525 2.7588 18.8096 2.0144 C 20.4026 1.7142 21.6693 1.6587 24.738 1.7541 C 30.1745 1.9216 31.8065 2.4196 34.7399 4.8055 C 35.5702 5.4805 36.7805 6.644 37.4312 7.391 L 38.6129 8.7506 L 36.1515 9.6 C 25.892 13.1398 17.162 20.1224 14.5653 26.8655 C 13.7879 28.8836 13.1459 31.725 13.1459 33.1435 L 13.1459 34.0892 L 12.3997 33.9322 C 11.9893 33.8454 11.0332 33.5704 10.2758 33.3214 Z "/>
          <path id="path38" fill="#a0a19e" stroke-width="0.22955609036494018" d="M 69.677 134.5407 C 70.227 134.021 70.7224 133.0015 72.2746 129.204 C 74.5434 123.653 74.8158 122.3186 73.7374 122.0366 C 73.2038 121.8969 73.2142 121.9707 73.6081 121.1473 C 74.7204 118.8256 75.8145 116.0744 75.8145 115.5981 C 75.8145 115.3673 75.6904 115.0541 75.5386 114.9022 C 74.821 114.1847 73.6645 114.8502 70.5107 117.794 L 69.2093 119.0087 L 66.9448 118.0673 C 65.6998 117.5493 63.5959 116.7086 62.2701 116.1993 C 60.9444 115.69 59.4469 115.0896 58.942 114.8649 C 58.437 114.6402 57.3863 114.2255 56.6064 113.9435 L 55.1895 113.4308 L 55.9878 112.3202 C 56.4268 111.7094 56.8458 110.8418 56.9187 110.3933 C 57.0436 109.6185 57.0966 109.5768 57.9538 109.5768 C 58.4509 109.5768 59.0669 109.4649 59.3229 109.3278 C 59.951 108.9912 60.6165 107.4156 60.8039 105.8201 C 60.941 104.6609 60.8993 104.4484 60.4438 103.9634 C 60.161 103.6623 59.6335 103.2927 59.2717 103.1435 L 58.614 102.871 L 59.1797 102.0381 C 60.0838 100.7081 59.9519 99.804 58.5993 98.0523 C 57.7967 97.0129 57.1078 95.6985 56.3036 93.6717 C 55.1843 90.8511 55.154 90.7132 55.154 88.3958 C 55.154 85.5604 54.8104 84.2416 53.5723 82.3268 C 52.4167 80.5387 49.7444 77.5202 48.5323 76.6353 C 47.6196 75.9681 47.5893 75.9056 47.584 74.6267 C 47.578 73.1041 47.519 73.1292 49.8025 73.6932 C 50.9087 73.9674 52.3741 74.0819 54.8095 74.0871 C 57.8358 74.0932 58.4075 74.0324 59.5267 73.5865 C 62.3309 72.469 63.9967 70.5759 66.2551 65.9393 L 67.665 63.045 L 69.2718 62.5244 C 71.2543 61.8824 73.4554 60.8152 74.1721 60.1489 C 74.6414 59.7125 74.6987 59.4817 74.618 58.3538 C 74.5469 57.3543 74.3057 56.6802 73.5578 55.3874 L 72.5887 53.7138 L 73.6333 49.5649 C 74.2076 47.283 74.7603 44.5388 74.861 43.4664 C 75.0874 41.0657 74.8358 37.6629 74.2094 34.6263 C 73.9491 33.3639 73.6819 32.0729 73.6168 31.7571 C 73.5205 31.292 73.6472 31.089 74.2831 30.6839 C 75.3407 30.0097 75.9975 28.5573 76.2864 26.2495 C 76.5649 24.0319 76.2899 21.6607 75.5967 20.302 C 75.0475 19.2261 73.7461 18.0436 71.4894 16.5695 C 65.1307 12.4162 57.7577 9.2599 51.713 8.1033 C 49.5249 7.6843 48.5454 7.6175 45.9738 7.7112 C 44.229 7.7745 42.125 8.0001 41.1628 8.2265 L 39.4528 8.63 L 38.5418 7.5108 C 36.7788 5.3443 34.0545 2.8786 32.6446 2.1741 C 30.1953 0.9499 28.2987 0.6505 23.1312 0.6696 C 19.2009 0.6844 18.2865 0.7564 16.7777 1.172 C 8.6846 3.4026 2.0283 9.1193 0.3997 15.2395 C -0.067 16.992 -0.0228 20.6525 0.4952 23.1486 C 1.3107 27.0798 3.2004 30.9771 4.9304 32.2967 C 6.0488 33.1496 8.9162 34.4311 11.0506 35.0315 L 12.8743 35.5451 L 13.0235 37.8408 C 13.42 43.9488 15.2004 50.3622 17.4301 53.7225 C 19.5896 56.9751 26.5435 61.8008 33.0021 64.5277 C 35.0757 65.4031 35.8964 66.5345 37.256 70.3919 C 38.7335 74.5851 38.7257 75.1334 37.1475 77.443 C 36.5584 78.3054 35.604 79.3978 35.0279 79.8697 C 34.4518 80.3426 33.8497 81.0471 33.6901 81.4366 C 33.5304 81.8262 33.0151 84.2625 32.5457 86.8506 C 31.9436 90.1648 31.4282 92.261 30.8027 93.9364 C 29.6991 96.8914 29.5576 97.6263 29.896 98.6501 C 30.1424 99.3971 31.1202 100.4556 31.7614 100.6699 C 31.9514 100.7332 31.9123 100.9857 31.6286 101.5349 C 31.0751 102.6047 29.4969 107.9188 29.3069 109.3512 C 29.175 110.3473 29.2271 110.6292 29.6496 111.2001 C 30.0834 111.7866 30.1762 112.3419 30.3645 115.4688 C 30.6326 119.917 30.768 120.1782 33.92 122.3221 C 35.0097 123.063 47.9198 129.381 50.0663 130.2243 C 52.3741 131.1301 60.7995 133.3147 63.4249 133.6878 C 64.4947 133.8396 65.8959 134.2101 66.5405 134.5103 C 68.0181 135.2009 68.9699 135.2105 69.677 134.5407 Z M 67.3292 133.2254 C 66.8381 132.9746 65.5254 132.6146 64.4114 132.4246 C 61.6377 131.9517 59.8269 131.517 55.2668 130.2295 C 50.153 128.7867 49.1909 128.3884 40.9216 124.2863 C 35.0167 121.3573 33.7873 120.6615 33.0706 119.8433 C 32.0685 118.6989 31.7397 117.466 31.7397 114.8519 L 31.7397 113.0343 L 32.6004 113.6225 C 34.1039 114.6506 35.9424 115.4688 37.3653 115.7412 C 38.8446 116.0249 43.9062 116.0596 46.5637 115.8054 C 47.4574 115.7195 48.2833 115.7308 48.3996 115.8315 C 48.5167 115.9312 49.9544 116.8873 51.5959 117.9554 C 58.7754 122.6292 62.4636 124.9327 63.5334 125.4125 C 64.1641 125.6962 65.207 126.1743 65.8508 126.4753 C 66.4946 126.7764 67.1652 127.0228 67.3431 127.0228 C 67.5201 127.0219 68.4918 126.4025 69.5017 125.6459 C 70.5116 124.8885 71.4347 124.269 71.5527 124.269 C 71.6707 124.2681 72.0065 124.0443 72.298 123.7701 C 73.5283 122.6136 73.1318 123.9879 70.5298 129.892 C 68.6627 134.1303 68.8076 133.9793 67.3292 133.2254 Z M 65.5992 124.8919 C 64.5893 124.4234 63.4848 123.9107 63.1464 123.7528 C 61.8884 123.1663 48.9644 115.1938 48.9601 115.002 C 48.9575 114.8927 49.2403 114.871 49.5874 114.9534 C 50.9651 115.2814 51.3478 115.2623 52.6327 114.7999 L 53.9671 114.3201 L 60.9305 117.1442 C 64.7611 118.6972 68.1777 120.0802 68.5248 120.2172 C 69.1043 120.4454 69.2432 120.3812 70.2461 119.4182 C 71.6248 118.0959 74.009 116.1889 74.1313 116.3112 C 74.3621 116.542 72.3943 120.7951 71.2716 122.4913 C 70.699 123.3563 67.7994 125.9478 67.5556 125.8116 C 67.4897 125.7752 66.6091 125.3613 65.5992 124.8928 Z M 37.125 114.7322 C 35.4123 114.2888 32.7713 112.7974 31.2729 111.4266 L 30.1294 110.3802 L 30.8044 108.1991 C 31.1749 107 31.7397 105.1407 32.0581 104.0675 C 32.3774 102.9942 32.7713 101.9331 32.9353 101.7093 C 33.2155 101.3267 33.2988 101.3241 34.3226 101.6729 C 34.9221 101.8776 35.4123 102.085 35.4123 102.1344 C 35.4123 102.1839 35.1607 103.0931 34.8527 104.156 C 33.2294 109.7573 34.051 111.3086 38.6259 111.2765 C 41.2236 111.2583 42.5181 110.932 43.5097 110.0462 C 44.1882 109.4397 44.2411 109.2888 44.2073 108.049 C 44.1873 107.3106 43.9574 106.0361 43.6971 105.2153 C 43.1063 103.3543 43.1054 103.3786 43.7596 103.3786 C 44.5032 103.3786 45.461 102.3591 45.7595 101.2495 C 46.0996 99.988 45.8974 97.5734 45.3135 95.918 C 45.0107 95.0599 44.6194 92.7529 44.275 89.7926 C 43.9713 87.1811 43.6529 84.9331 43.5687 84.796 C 43.4846 84.6598 43.3102 84.613 43.1809 84.6919 C 42.9458 84.8377 42.9874 86.0385 43.4646 92.9117 C 43.6243 95.2117 43.8134 96.39 44.1405 97.13 C 44.6767 98.3421 44.7287 100.0886 44.262 101.2052 C 43.9522 101.9462 43.8585 102.0017 42.8963 102.0017 C 41.3294 102.0017 37.4017 101.1801 34.7147 100.2899 C 32.8884 99.6852 32.157 99.3216 31.6616 98.7698 C 30.8712 97.8918 30.9076 97.5682 32.1839 94.1663 C 32.832 92.438 33.2736 90.6229 33.7968 87.5394 C 34.7685 81.8141 34.7182 81.9563 36.2808 80.4571 C 37.0243 79.7439 37.8416 78.859 38.0976 78.4902 L 38.5617 77.8204 L 43.6425 79.9391 C 49.485 82.3763 50.2138 82.568 50.7812 81.8158 L 51.1682 81.303 L 51.798 82.129 C 52.1442 82.5836 52.7056 83.5475 53.0448 84.2711 C 53.7155 85.7018 53.7181 85.7452 53.5315 93.2778 C 53.4578 96.2425 53.502 96.6069 54.5562 101.6572 C 55.1627 104.5612 55.7119 107.7635 55.7769 108.7734 L 55.8958 110.6102 L 54.9431 111.6869 C 54.4191 112.2794 53.4517 113.0265 52.7932 113.3457 C 50.0134 114.6949 40.3004 115.5538 37.125 114.7322 Z M 36.0283 109.772 C 35.2848 109.3807 35.1893 109.1369 35.1919 107.6256 C 35.1937 106.4187 35.8652 102.6203 36.122 102.3626 C 36.1741 102.3114 37.0425 102.4572 38.0524 102.688 C 39.0623 102.9188 40.2649 103.1704 40.7247 103.2485 C 41.5402 103.3864 41.5741 103.435 42.1753 105.2804 C 42.5727 106.5046 42.7645 107.5353 42.7167 108.2017 C 42.6447 109.215 42.6239 109.2393 41.496 109.6237 C 40.1581 110.0809 36.7883 110.172 36.0283 109.772 Z M 56.8805 107.2239 C 56.7981 106.6868 56.6792 105.9381 56.6168 105.5589 C 56.5239 105.0054 56.6419 104.7364 57.2163 104.1863 L 57.9303 103.5018 L 58.7806 103.9625 C 59.5372 104.3729 59.6274 104.5178 59.604 105.2787 C 59.5901 105.7489 59.4009 106.5983 59.184 107.1666 C 58.811 108.1418 58.7407 108.1991 57.9104 108.1991 C 57.0523 108.1991 57.0272 108.1756 56.8805 107.2239 Z M 55.5444 99.5333 C 54.7844 94.9862 54.5952 93.1382 54.872 92.9664 C 54.9909 92.8935 55.318 93.6266 55.5999 94.5957 C 56.1942 96.6424 56.7929 97.8944 57.7117 99.0119 C 58.0726 99.4509 58.3676 100.0357 58.3676 100.3116 C 58.3676 100.8087 56.6914 103.1495 56.3348 103.1495 C 56.2324 103.1495 55.8767 101.5219 55.5444 99.5333 Z M 44.229 78.8295 C 41.732 77.6894 39.6063 76.6743 39.5066 76.5745 C 39.4059 76.4739 39.4337 75.9932 39.5682 75.5065 C 39.9013 74.3014 39.6879 73.3783 38.4194 70.5368 L 37.3375 68.111 L 38.96 69.2736 C 40.8262 70.6114 43.0143 71.7341 45.2302 72.4898 C 46.4579 72.908 46.7642 73.105 46.7216 73.4485 C 46.3859 76.1702 46.3919 77.1567 46.7503 77.8499 C 47.2413 78.7991 48.1888 79.4455 48.554 79.0802 C 48.9254 78.7089 50.1045 79.8715 50.1045 80.6098 C 50.1045 81.1052 50.0272 81.1538 49.4364 81.0358 C 49.0694 80.9621 46.726 79.9695 44.229 78.8295 Z M 50.599 72.6243 C 44.2958 71.3368 40.3152 69.5286 36.3502 66.1519 C 34.0579 64.2006 32.4988 62.0273 30.2457 57.6467 C 28.6232 54.4912 28.4445 54.2387 27.5413 53.8257 C 26.2694 53.2444 23.7247 50.8949 22.7903 49.4382 C 22.1031 48.3676 22.0536 48.1619 22.1352 46.7174 C 22.2402 44.8589 23.2995 42.4695 24.4457 41.5056 C 25.0617 40.9868 25.3081 40.9174 26.0889 41.0414 C 27.3513 41.2436 29.129 42.2535 29.9272 43.2226 C 30.5146 43.9349 30.5918 44.2073 30.5918 45.5782 C 30.5918 46.431 30.4244 47.9606 30.2188 48.9792 C 30.014 49.9969 29.9038 50.8871 29.9741 50.9574 C 30.2752 51.2584 30.5606 50.7188 30.8382 49.3202 C 31.0013 48.4986 31.1966 47.8262 31.2712 47.8262 C 31.3467 47.8262 31.6113 47.965 31.8603 48.1359 C 32.7426 48.7389 34.4666 49.2603 35.0731 49.1076 C 35.7602 48.9358 36.3302 47.8131 36.332 46.628 C 36.3346 44.9622 36.7493 44.2334 38.9209 42.0721 C 44.1257 36.8916 49.6455 33.3578 54.3965 32.1649 C 56.189 31.7146 57.0237 31.6564 61.8112 31.6504 C 64.7784 31.646 68.3209 31.6938 69.683 31.7571 L 72.1601 31.8716 L 72.4863 33.0195 C 73.0433 34.9751 73.7235 38.672 73.8805 40.5955 C 74.0957 43.2339 73.707 45.435 71.7792 52.4809 C 71.3705 53.9732 71.3705 54.0617 71.761 54.6612 C 72.5843 55.9253 73.7851 58.6011 73.7088 59.0036 C 73.6072 59.545 71.3619 60.7415 69.0427 61.4902 C 68.032 61.8164 67.0715 62.1548 66.9075 62.2433 C 66.7436 62.3309 66.2716 63.2324 65.8577 64.2457 C 64.3663 67.8984 62.0333 71.2127 60.3267 72.1029 C 58.2375 73.1926 54.3887 73.3982 50.599 72.6243 Z M 61.8112 66.2742 C 63.1412 66.0487 63.418 65.935 63.418 65.6122 C 63.418 65.3494 63.1031 65.2721 62.0298 65.2721 C 60.3388 65.2721 59.728 64.9745 58.2843 63.4467 C 57.1061 62.2008 56.4701 62.0359 56.3409 62.9435 C 56.2853 63.3348 56.5465 63.7495 57.3117 64.4817 C 58.8847 65.9897 60.2599 66.5371 61.8112 66.2742 Z M 57.2675 55.4855 C 57.474 55.279 58.136 54.9848 58.7398 54.8321 C 59.3428 54.6786 59.8764 54.4348 59.9241 54.2908 C 60.0577 53.8908 57.9364 54.2274 57.0783 54.7428 C 56.6844 54.9788 56.0389 55.1722 55.6433 55.1722 C 55.1574 55.1722 54.9249 55.2833 54.9249 55.5167 C 54.9249 56.0086 56.7686 55.9843 57.2675 55.4855 Z M 56.2333 54.1242 C 56.6957 53.922 57.0202 53.8864 57.1078 54.0279 C 57.3169 54.3654 57.6796 54.3003 57.6796 53.9246 C 57.6796 53.4344 56.8606 53.267 55.9418 53.5706 C 55.4949 53.7173 54.8928 53.7789 54.6022 53.706 C 53.9879 53.5515 53.758 53.7077 53.9324 54.1615 C 54.0885 54.5693 55.2607 54.5502 56.2333 54.1242 Z M 61.7582 49.3575 C 63.038 48.6469 63.9637 46.3373 63.6514 44.6325 C 63.4128 43.3259 63.0718 43.0057 61.9248 43.0057 C 61.0772 43.0057 60.8377 43.1263 60.1289 43.9106 C 58.6479 45.5495 58.4821 47.7463 59.7445 49.0087 C 60.4551 49.7193 60.9514 49.8052 61.7582 49.3575 Z M 26.6598 60.1523 C 21.6554 57.0428 18.7194 54.0426 17.1837 50.468 C 15.1986 45.8489 14.4282 41.8249 14.4334 36.1186 C 14.4377 32.2794 14.495 31.6608 15.0321 29.6705 C 15.6498 27.38 16.3933 25.709 17.5759 23.952 C 21.7803 17.7078 31.1566 11.8905 40.9216 9.469 C 42.7957 9.0039 43.6512 8.9302 47.0053 8.9397 C 50.6068 8.9501 51.1109 9.0048 53.5472 9.652 C 59.4747 11.2259 65.5749 13.9988 70.994 17.582 C 74.585 19.9567 75.3555 21.2095 75.3555 24.6713 C 75.3555 28.0888 74.7707 29.5065 72.9869 30.4166 C 72.0863 30.8765 71.8625 30.8903 68.4744 30.6977 C 62.7074 30.3689 56.6992 30.46 54.6299 30.906 C 51.0562 31.6764 47.4253 33.612 43.2408 36.9775 C 40.5998 39.1014 36.7233 42.9424 36.2018 43.9514 C 35.991 44.3583 35.7281 45.4107 35.6179 46.2905 C 35.3073 48.7623 35.0054 48.8968 32.4858 47.6839 L 31.2807 47.1034 L 31.2807 45.6059 C 31.2807 43.7631 30.8643 42.8252 29.5238 41.6453 C 27.5829 39.937 25.3818 39.3617 24.0318 40.2102 C 21.861 41.5759 20.2967 46.5057 21.2841 48.869 C 21.7326 49.9423 23.6587 51.9499 25.8312 53.6079 C 27.2567 54.6959 27.7513 55.2391 28.2987 56.3253 C 29.3468 58.4015 30.9866 61.118 32.0251 62.4992 L 32.9604 63.7425 L 30.9155 62.6337 C 29.7902 62.0238 27.8753 60.9072 26.6598 60.1523 Z M 10.2758 33.3214 C 7.843 32.5189 6.1329 31.5766 5.123 30.4808 C 2.6677 27.8173 0.8474 21.1549 1.4201 16.9278 C 1.8886 13.4721 4.2684 9.7397 7.6617 7.1412 C 11.1755 4.4498 14.8525 2.7588 18.8096 2.0144 C 20.4026 1.7142 21.6693 1.6587 24.738 1.7541 C 30.1745 1.9216 31.8065 2.4196 34.7408 4.8055 C 35.5702 5.4805 36.7814 6.644 37.4312 7.391 L 38.6129 8.7506 L 36.1524 9.5991 C 25.892 13.1398 17.162 20.1224 14.5653 26.8655 C 13.7879 28.8836 13.1459 31.725 13.1459 33.1435 L 13.1459 34.0892 L 12.3997 33.9322 C 11.9893 33.8454 11.0332 33.5704 10.2758 33.3214 Z "/>
          <path id="path36" fill="#5d5e5e" stroke-width="0.22955609036494018" d="M 69.3056 134.7879 C 69.8991 134.5008 70.3936 133.5568 71.931 129.7775 C 74.4931 123.4795 74.6562 122.7724 73.7088 122.1086 L 73.209 121.759 L 74.0454 119.9717 C 75.6019 116.6435 75.9611 115.0506 75.2193 114.7652 C 74.4983 114.4884 73.4216 115.2233 70.4587 118.0109 C 69.1599 119.2334 69.69 119.3071 64.4513 117.1754 C 60.4924 115.5642 58.1247 114.6289 56.2359 113.9305 L 54.9067 113.4394 L 55.7205 112.5389 C 56.1682 112.0435 56.6584 111.175 56.8102 110.6076 C 57.0653 109.6549 57.1425 109.5768 57.8306 109.5768 C 59.5085 109.5768 60.2399 108.7057 60.7171 106.1393 C 60.9349 104.9689 60.9149 104.7086 60.5688 104.1794 C 60.3484 103.8445 59.8148 103.422 59.3827 103.2415 C 58.9507 103.061 58.5975 102.8676 58.5975 102.812 C 58.5975 102.7565 58.8561 102.3296 59.171 101.8646 C 59.8825 100.8174 59.899 99.9897 59.2292 99.0492 C 58.9446 98.6501 58.4223 97.923 58.0674 97.4337 C 57.7126 96.9435 56.904 95.2664 56.2689 93.7056 C 55.1297 90.9023 55.1149 90.8346 55.0585 88.1129 C 54.9709 83.9536 54.2317 82.4943 50.0567 78.2456 L 47.5788 75.7243 L 47.5788 74.4333 L 47.5788 73.1423 L 49.5874 73.5943 C 50.9799 73.9075 52.5468 74.0567 54.695 74.0784 C 57.402 74.1062 57.9911 74.042 59.355 73.5717 C 62.1478 72.6069 64.5901 69.7612 66.76 64.9433 L 67.6225 63.0285 L 69.48 62.4012 C 74.9442 60.5567 75.5819 59.5164 73.6125 55.6624 L 72.5574 53.5993 L 73.6584 49.3931 L 74.7594 45.186 L 74.7672 41.2835 C 74.7742 37.8911 74.6926 36.9879 74.1443 34.3721 L 73.5135 31.3632 L 74.5234 30.3533 C 75.8344 29.0432 76.2734 27.609 76.2734 24.6409 C 76.2734 21.9912 75.8431 20.3601 74.8445 19.2227 C 73.8059 18.0393 69.146 15.0295 65.4543 13.1563 C 56.3626 8.5424 49.2368 6.919 42.8729 8.0096 C 38.9296 8.6864 39.3018 8.728 38.3969 7.5056 C 37.1744 5.8554 34.7781 3.5475 33.2866 2.5827 C 31.423 1.3785 28.618 0.7347 24.614 0.5924 C 19.4161 0.4076 15.8441 1.1329 11.6631 3.2213 C 5.7364 6.1824 1.5233 10.7747 0.4128 15.485 C -0.8505 20.8442 1.696 29.8987 5.1621 32.3705 C 6.6188 33.4099 7.4231 33.7769 10.3634 34.7408 L 13.0305 35.6154 L 13.1814 38.4499 C 13.4296 43.115 14.7891 48.6226 16.5573 52.1252 C 18.4956 55.9652 22.7564 59.3802 30.2717 63.1187 C 35.2865 65.614 35.7585 66.0643 36.9896 69.5234 C 37.4833 70.9099 38.0013 72.3354 38.1418 72.6902 C 38.9287 74.6857 38.0325 76.965 35.4886 79.4307 C 34.6835 80.2116 33.8844 81.1928 33.7126 81.6119 C 33.5409 82.031 33.0151 84.4924 32.544 87.0805 C 31.9687 90.2429 31.4299 92.4605 30.9007 93.8427 C 29.9377 96.3596 29.6626 97.5274 29.8335 98.3803 C 29.968 99.0544 30.8434 100.1337 31.5913 100.5484 C 31.9844 100.7662 31.9904 100.8348 31.6685 101.4586 C 31.1974 102.3687 29.5073 108.0594 29.326 109.3469 C 29.2037 110.2084 29.2722 110.5156 29.7329 111.1958 C 30.2205 111.9142 30.3055 112.3653 30.4409 114.9838 C 30.6343 118.7267 30.7176 119.1535 31.436 120.0958 C 31.993 120.8254 34.1699 122.5468 34.5369 122.5468 C 34.6314 122.5468 34.9204 122.7272 35.178 122.9485 C 35.4357 123.1697 35.6908 123.3502 35.7446 123.3502 C 35.7975 123.3502 36.1324 123.4708 36.4881 123.6174 C 36.843 123.7649 37.1857 123.8968 37.249 123.9107 C 37.3124 123.9246 37.8529 124.2265 38.4507 124.5813 C 39.0485 124.9362 39.6784 125.2468 39.851 125.272 C 40.0228 125.2971 40.434 125.4949 40.7646 125.7118 C 41.0943 125.9279 41.4223 126.1049 41.4917 126.1049 C 41.5619 126.1049 43.3995 126.9742 45.5747 128.0362 C 47.7498 129.0981 50.5513 130.2902 51.8006 130.685 C 55.2841 131.7877 61.7157 133.3902 63.765 133.6679 C 64.8313 133.8119 66.0772 134.1563 66.7305 134.4869 C 67.9374 135.0977 68.5239 135.1662 69.3056 134.7879 Z M 67.1166 133.234 C 66.636 132.9885 65.2712 132.6224 64.0843 132.4194 C 59.8235 131.6923 52.2475 129.6083 49.0711 128.2904 C 48.0612 127.8705 44.4459 126.1352 41.0362 124.433 C 37.6273 122.7316 34.6158 121.2705 34.3434 121.1881 C 34.071 121.1048 33.4185 120.481 32.8945 119.8017 C 31.9444 118.5696 31.941 118.5584 31.731 115.8505 C 31.6156 114.3565 31.5184 113.0646 31.5158 112.9779 C 31.5132 112.892 32.052 113.1904 32.7149 113.6407 C 34.2532 114.6862 35.8895 115.4159 37.4356 115.7456 C 38.7587 116.0275 43.921 116.0588 46.6193 115.8002 C 48.2729 115.6414 48.3172 115.6519 49.4885 116.444 C 55.4099 120.4472 62.3717 124.7722 64.5372 125.7925 C 65.9731 126.4693 67.2416 127.0228 67.3552 127.0228 C 67.4698 127.0228 68.3755 126.4033 69.3681 125.6459 C 70.3615 124.8885 71.263 124.2664 71.3705 124.2629 C 71.479 124.2603 71.826 124.0564 72.1418 123.8092 C 72.914 123.2053 73.2767 123.2261 73.1196 123.8664 C 73.0502 124.151 72.3883 125.7587 71.649 127.4393 C 70.9098 129.1198 70.3051 130.5262 70.3051 130.5635 C 70.3051 130.6017 69.9936 131.3184 69.6136 132.1565 C 68.8388 133.8665 68.5768 133.9793 67.1166 133.234 Z M 66.9379 125.5479 C 66.5804 125.3674 65.3042 124.7635 64.1017 124.2057 C 62.0567 123.2565 49.7132 115.8653 48.9566 115.1365 C 48.5922 114.786 48.4924 114.7834 50.7925 115.1807 C 51.1083 115.2345 51.9143 115.0324 52.5841 114.7305 L 53.8022 114.1813 L 56.1422 115.1105 C 57.4297 115.6206 60.8742 117.0183 63.798 118.2157 L 69.1121 120.3925 L 70.2253 119.3106 C 71.4773 118.0933 74.2328 115.9529 74.3707 116.0909 C 74.5295 116.2496 72.5783 120.4289 71.6248 121.9724 C 70.8456 123.2331 68.261 125.822 67.7413 125.8628 C 67.6563 125.8697 67.2954 125.7275 66.9379 125.5479 Z M 35.5832 114.2368 C 32.6463 112.8451 29.9888 110.795 30.2014 110.0835 C 30.2656 109.8683 30.7428 108.245 31.2616 106.4777 C 32.4867 102.3045 32.8615 101.3128 33.2164 101.3128 C 33.6042 101.3128 35.0193 101.7909 35.2561 102.0026 C 35.3594 102.0945 35.1763 103.1513 34.8492 104.3512 C 33.8705 107.9431 34.0597 110.0002 35.4366 110.7368 C 37.5084 111.8456 43.0967 111.0891 43.8984 109.5907 C 44.2941 108.8524 44.1665 107.0356 43.587 105.1581 L 43.0378 103.3786 L 43.6043 103.3786 C 44.3904 103.3786 45.4228 102.2707 45.7421 101.0829 C 46.0952 99.7737 45.9304 97.8233 45.3352 96.252 C 45.0211 95.4217 44.6446 93.2327 44.2524 89.9462 C 43.9218 87.1776 43.6121 84.8733 43.5644 84.8255 C 43.5167 84.7778 43.3648 84.8082 43.2278 84.8932 C 43.0699 84.9904 43.0221 85.5682 43.0959 86.4653 C 43.161 87.2453 43.3267 89.6911 43.4637 91.9009 C 43.6598 95.0469 43.8143 96.1418 44.1769 96.9513 C 44.714 98.1469 44.7834 100.2803 44.3192 101.2547 C 44.0537 101.8099 43.8698 101.895 42.8052 101.9566 C 40.5191 102.0876 33.9651 100.4452 32.0329 99.2566 C 30.7463 98.4662 30.7688 97.9621 32.2802 93.6223 C 32.7643 92.2341 33.3621 89.6946 33.7933 87.195 C 34.6818 82.0405 34.7755 81.7585 35.9216 80.7781 C 36.4361 80.3374 37.2378 79.4706 37.7028 78.8512 L 38.5496 77.725 L 42.5475 79.4264 C 47.1719 81.3941 49.4859 82.2591 50.1236 82.2591 C 50.4012 82.2591 50.6641 82.0232 50.8081 81.6449 L 51.0415 81.0306 L 51.9455 82.2765 C 53.0769 83.8365 53.7441 85.5543 53.7797 86.998 C 53.7944 87.6115 53.7372 89.869 53.6521 92.0155 L 53.4977 95.918 L 54.551 101.1974 C 56.0919 108.9252 56.1717 109.6306 55.6424 110.8262 C 54.964 112.3619 52.9641 113.6503 50.4593 114.1674 C 47.6292 114.7513 44.1344 115.0541 40.6926 115.0133 C 37.2057 114.9716 37.1033 114.956 35.5832 114.2368 Z M 35.7784 109.7269 C 35.0115 109.2246 34.8666 108.0247 35.2874 105.6743 C 35.8088 102.7652 35.9598 102.3418 36.4656 102.3713 C 36.8447 102.3939 40.5477 103.0897 41.3008 103.2806 C 41.647 103.3673 42.505 105.6613 42.8217 107.3471 C 43.0499 108.5565 43.0308 108.717 42.617 109.1317 C 41.6045 110.1434 37.0235 110.5425 35.7784 109.7269 Z M 56.9048 107.7974 C 56.8406 107.577 56.7226 106.8282 56.6428 106.1333 C 56.5031 104.9177 56.5265 104.8431 57.2762 104.1195 L 58.0561 103.3691 L 58.8431 103.9044 C 59.5484 104.3842 59.6283 104.5455 59.6109 105.4591 C 59.5996 106.0196 59.4244 106.8655 59.2205 107.3384 C 58.8812 108.127 58.7737 108.1991 57.9364 108.1991 C 57.2623 108.1991 56.9907 108.0932 56.9048 107.7974 Z M 55.0377 96.9513 C 54.8304 95.4989 54.6941 93.7949 54.7349 93.1633 L 54.8095 92.0155 L 55.6936 94.7094 C 56.2428 96.3856 56.858 97.7729 57.3213 98.3829 C 58.8648 100.4114 58.8587 100.5415 57.1408 102.4051 L 56.1942 103.4324 L 55.8056 101.5115 C 55.5913 100.4556 55.2459 98.4028 55.0377 96.9513 Z M 48.6781 80.8632 C 48.01 80.6003 45.6406 79.5574 43.4126 78.5458 L 39.3617 76.7064 L 39.4684 74.9495 C 39.5751 73.2117 39.5621 73.1631 38.3327 70.5238 L 37.0885 67.8559 L 38.6034 68.9534 C 40.6457 70.4336 42.7297 71.532 44.9387 72.2929 C 45.9486 72.6408 46.8075 72.9488 46.8474 72.9774 C 46.8865 73.006 46.8049 73.8598 46.6661 74.8758 C 46.4605 76.3759 46.4735 76.8643 46.7347 77.4821 C 47.1485 78.4607 47.8747 79.1019 48.4612 79.0065 C 49.1605 78.8928 50.2927 80.0754 50.1583 80.7781 C 50.0993 81.0879 50.0151 81.3412 49.9709 81.3412 C 49.9275 81.3412 49.3453 81.126 48.6781 80.8632 Z M 50.219 72.6399 C 47.84 72.1289 44.1127 70.968 42.348 70.188 C 40.3924 69.3239 37.4217 67.2711 35.5416 65.4864 C 33.4255 63.4762 32.1336 61.5778 30.0157 57.3664 C 28.5321 54.4183 28.3447 54.1511 27.6341 53.9671 C 27.1153 53.8327 26.1679 53.0752 24.7433 51.6575 C 22.1413 49.0686 21.6372 48.0196 22.0484 46.058 C 22.6697 43.0968 24.2262 40.9356 25.7315 40.9443 C 27.5335 40.9555 30.0817 42.7229 30.6127 44.3305 C 30.8955 45.1877 30.7654 46.7807 30.2083 49.2768 C 29.8726 50.783 29.9403 51.4927 30.3567 50.8194 C 30.466 50.6424 30.6751 49.8651 30.8209 49.0911 L 31.0864 47.6856 L 32.3635 48.3294 C 33.835 49.0721 35.1659 49.1684 35.7038 48.5723 C 35.906 48.3476 36.1368 47.5112 36.2261 46.6783 C 36.3137 45.8575 36.5367 44.8572 36.7215 44.4537 C 37.3263 43.1402 42.5467 38.4204 45.8853 36.1706 C 52.3559 31.81 56.5022 30.9268 67.4324 31.5827 L 72.2503 31.8716 L 72.6572 33.3639 C 73.3652 35.9563 73.9777 39.8068 73.9777 41.66 C 73.9777 43.7918 73.3782 47.0366 72.239 51.071 L 71.4044 54.0244 L 72.1037 55.1141 C 73.0173 56.5396 73.7365 58.1447 73.7435 58.7711 C 73.7461 59.0461 73.4867 59.4765 73.1665 59.7281 C 72.442 60.2981 69.5824 61.4998 67.9678 61.9136 C 66.7956 62.2129 66.7392 62.265 66.275 63.4614 C 65.43 65.6417 63.6835 68.8094 62.5521 70.2132 C 61.3236 71.7385 59.6578 72.7388 57.7837 73.0781 C 56.1847 73.3678 52.6561 73.1631 50.219 72.6399 Z M 62.9165 65.9489 C 63.7728 65.6053 63.3121 65.3476 61.8172 65.3337 C 60.1766 65.3181 59.5944 65.0101 58.1177 63.3764 C 57.0376 62.1817 56.3018 62.0038 56.3018 62.9365 C 56.3018 63.4493 58.5411 65.6339 59.4027 65.9619 C 60.1454 66.2439 62.199 66.2361 62.9165 65.9489 Z M 57.2328 55.4421 C 57.5416 55.1991 58.3104 54.8434 58.942 54.6508 L 60.0898 54.3012 L 59.2213 54.2777 C 58.7442 54.2647 57.9694 54.4304 57.5 54.6456 C 57.0306 54.8608 56.307 55.0933 55.8923 55.1618 C 54.872 55.331 54.8494 55.7301 55.855 55.8143 C 56.3947 55.8594 56.8614 55.7336 57.2328 55.4421 Z M 56.0355 54.1381 C 56.5899 53.8934 56.9222 53.8648 57.2406 54.0348 C 57.7594 54.3124 57.8314 53.9767 57.3395 53.5689 C 57.0827 53.3555 56.8241 53.3485 56.2723 53.5411 C 55.8724 53.6808 55.1904 53.7945 54.7566 53.7945 C 54.2282 53.7945 53.9992 53.889 54.0625 54.0817 C 54.1996 54.4998 55.1531 54.5267 56.0355 54.1381 Z M 61.5726 49.3705 C 61.8832 49.2135 62.4506 48.6374 62.835 48.0917 C 63.4622 47.1989 63.5334 46.9238 63.5334 45.3778 C 63.5334 43.4369 63.2384 43.0057 61.9136 43.0057 C 59.846 43.0057 58.2409 46.49 59.4035 48.4569 C 59.6335 48.8456 60.0673 49.2768 60.3683 49.413 C 61.0225 49.7115 60.888 49.7167 61.5726 49.3705 Z M 30.1138 62.2589 C 23.978 58.9663 19.2886 55.0143 17.7564 51.8432 C 16.5807 49.4096 15.7843 47.0817 15.0867 44.0382 C 14.2495 40.3855 14.0326 34.3608 14.6243 31.2122 C 15.4719 26.705 16.972 23.9807 20.5856 20.3887 C 25.9032 15.1024 33.9339 10.858 41.699 9.2286 C 44.8719 8.5632 48.928 8.5623 52.0219 9.2278 C 57.9807 10.5092 65.1923 13.6483 70.994 17.4857 C 74.7881 19.9966 75.4301 21.088 75.4006 24.988 C 75.3763 28.271 74.7395 29.6236 72.7301 30.657 C 71.8738 31.0968 71.6612 31.1081 68.7122 30.8687 C 60.7258 30.2205 56.851 30.3351 53.2669 31.3268 C 49.4633 32.3792 44.4563 35.6787 39.6471 40.3013 C 36.5272 43.3016 35.9285 44.2073 35.7255 46.2384 C 35.6448 47.0488 35.486 47.8921 35.3724 48.1133 C 35.0722 48.699 34.2046 48.607 32.6515 47.8227 L 31.2807 47.1312 L 31.2807 45.7491 C 31.2807 44.013 30.8851 43.0604 29.68 41.8908 C 28.402 40.651 26.8394 39.9101 25.4955 39.9083 C 24.5506 39.9066 24.3025 40.0176 23.5052 40.7959 C 21.7925 42.4678 20.5648 46.3217 21.1357 48.2287 C 21.5513 49.6143 22.7755 51.0407 25.3645 53.1516 C 27.5856 54.9632 27.7929 55.2078 28.9425 57.3621 C 29.614 58.6193 30.7714 60.5523 31.5158 61.6568 C 32.2603 62.7613 32.839 63.6653 32.8016 63.6653 C 32.7652 63.6653 31.5549 63.0328 30.1138 62.2589 Z M 10.5031 33.4706 C 7.712 32.5831 5.6098 31.3554 4.5964 30.0201 C 2.8247 27.6845 1.1936 22.183 1.2214 18.6362 C 1.2674 12.8674 5.3044 7.6253 12.4266 4.0863 C 17.398 1.6153 23.585 0.8588 29.2358 2.0283 C 32.0373 2.6087 33.5617 3.5085 36.2955 6.1929 C 37.7366 7.6079 38.6303 8.6508 38.5001 8.7662 C 38.3804 8.8729 37.3002 9.2937 36.1012 9.7006 C 31.9948 11.094 27.1049 13.6561 23.5911 16.2546 C 17.274 20.9258 13.9354 26.1801 13.2569 32.5163 C 13.0634 34.3226 13.1207 34.3027 10.5031 33.4706 Z "/>
          <path id="path34" fill="#060606" stroke-width="0.22955609036494018" d="M 69.7958 134.1962 C 70.3485 133.405 73.6298 125.4004 73.9933 123.9593 C 74.2779 122.8279 74.0584 122.2023 73.3756 122.2023 C 72.9175 122.2023 72.9444 122.1095 74.2094 119.308 C 74.8427 117.9059 75.3859 116.3564 75.4154 115.8644 C 75.4631 115.0914 75.3997 114.9612 74.9486 114.897 C 74.3525 114.8129 73.419 115.4523 70.9862 117.6109 C 70.0613 118.4317 69.1946 119.085 69.0592 119.0633 C 68.7764 119.0182 66.4885 118.1306 62.8445 116.6531 C 61.4555 116.09 59.1311 115.1773 57.6796 114.6255 C 56.2272 114.0728 54.9952 113.5878 54.9414 113.5479 C 54.8876 113.5071 55.1141 113.1913 55.4446 112.8451 C 56.0693 112.1918 56.976 110.4045 56.9864 109.8067 C 56.9907 109.5543 57.2631 109.4606 58.0067 109.4562 C 58.6635 109.4528 59.1849 109.3018 59.4886 109.0276 C 60.4265 108.1791 61.0919 104.7451 60.4646 103.9894 C 60.3232 103.8185 59.7983 103.4949 59.2986 103.2693 L 58.3902 102.8598 L 58.935 102.144 C 60.0447 100.6855 59.9371 99.8535 58.4023 97.9968 C 57.7759 97.2394 57.0619 95.8642 56.2567 93.8643 C 55.0533 90.878 55.049 90.8589 55.0264 88.2283 C 55.0091 86.1565 54.9041 85.3357 54.5406 84.4178 C 53.791 82.5255 52.4444 80.6957 49.9335 78.1562 L 47.5788 75.7737 L 47.5788 74.4012 L 47.5788 73.0277 L 48.2105 73.1874 C 52.2926 74.2233 56.438 74.3803 58.9559 73.596 C 62.0107 72.6434 63.6358 70.922 66.1206 66.0053 L 67.665 62.9513 L 69.5017 62.3101 C 71.7853 61.5128 73.5838 60.6096 74.1972 59.9502 C 75.0154 59.0722 74.6822 57.4237 73.1882 54.9658 L 72.3961 53.6617 L 72.9522 51.7504 C 73.9656 48.2643 74.7091 44.5249 74.8288 42.3168 C 74.9564 39.9604 74.5261 36.2019 73.7643 33.0195 C 73.3548 31.312 73.3513 31.1688 73.7088 30.9736 C 74.5122 30.5338 75.5837 29.1751 75.8578 28.2467 C 76.0149 27.7157 76.1468 26.0413 76.1511 24.5264 C 76.158 21.9643 76.1138 21.6832 75.5221 20.5093 C 74.7924 19.0613 73.6411 18.0644 70.1897 15.8919 C 61.7548 10.5838 51.8588 7.3008 45.6276 7.745 C 44.491 7.8257 42.6317 8.0886 41.496 8.3298 L 39.4293 8.7679 L 38.6416 7.8092 C 38.2077 7.2817 36.9592 5.9612 35.8661 4.8741 C 33.5521 2.5723 31.9505 1.6856 28.985 1.0644 C 26.6277 0.5699 20.4425 0.5109 18.3108 0.962 C 10.0042 2.7215 2.9349 8.178 0.7199 14.5402 C 0.293 15.767 0.2002 16.5227 0.1985 18.7871 C 0.195 22.4684 0.9819 25.8001 2.6278 29.0796 C 4.0489 31.9089 6.3039 33.4836 10.9074 34.8605 L 13.1459 35.5295 L 13.1502 37.2586 C 13.1606 41.8197 14.6217 48.0023 16.651 52.0731 C 18.4678 55.7188 23.1321 59.5086 30.0782 62.9816 C 31.8403 63.8631 33.4298 64.5841 33.6103 64.5841 C 33.7899 64.5841 34.4241 65.0778 35.0193 65.6825 C 35.9207 66.597 36.2331 67.1627 36.8907 69.0679 C 37.3245 70.326 37.8989 71.9658 38.167 72.7102 C 38.5123 73.6689 38.6112 74.3222 38.5071 74.9426 C 38.3041 76.1416 36.8838 78.2673 35.2388 79.8342 C 33.6372 81.3586 33.6146 81.421 32.6585 86.8506 C 31.8204 91.612 31.7284 91.9782 30.6977 94.6469 C 30.1997 95.9362 29.9029 97.1031 29.9029 97.7729 C 29.9029 98.703 30.0149 98.9529 30.7636 99.6973 C 31.2373 100.1684 31.751 100.5953 31.9063 100.6456 C 32.1058 100.7124 32.0269 101.0681 31.6295 101.8863 C 30.8252 103.5408 29.444 108.5175 29.444 109.759 C 29.444 110.6379 29.5707 110.952 30.1901 111.6088 C 30.6005 112.0443 30.8148 112.3315 30.6664 112.2482 C 30.4712 112.138 30.4209 112.3983 30.486 113.1896 C 30.5346 113.7908 30.6265 115.2857 30.689 116.5117 C 30.807 118.8169 31.3996 120.5955 32.0503 120.5955 C 32.2169 120.5955 32.6125 120.887 32.9309 121.2445 C 33.2962 121.6549 36.325 123.2921 41.175 125.6997 C 45.3916 127.7932 49.2516 129.6751 49.7531 129.8816 C 52.1078 130.849 60.5549 133.0527 63.5056 133.47 C 64.5311 133.6149 65.915 133.9793 66.5813 134.2804 C 68.2437 135.0317 69.231 135.0057 69.7958 134.1971 Z M 67.2607 133.4666 C 66.7253 133.2228 64.9268 132.7595 63.2627 132.4376 C 59.8721 131.7799 53.5498 130.0898 50.6346 129.0608 C 49.5778 128.6878 45.2814 126.6784 41.0874 124.5952 C 33.5157 120.8341 33.455 120.7977 32.5778 119.57 C 31.6963 118.338 31.6928 118.3241 31.5445 115.5009 L 31.3952 112.669 L 32.5431 113.4429 C 34.4007 114.6957 36.1524 115.4931 37.6421 115.7629 C 39.2845 116.0605 43.3848 116.0605 46.3677 115.762 L 48.4855 115.5503 L 51.189 117.3463 C 55.3561 120.1149 59.7133 122.9476 61.2689 123.8994 C 62.599 124.7132 66.9848 126.7938 67.37 126.7938 C 67.468 126.7938 68.3738 126.1812 69.3837 125.4325 C 70.3936 124.6837 71.4269 124.0052 71.6803 123.9246 C 71.9345 123.8447 72.1418 123.699 72.1418 123.6018 C 72.1418 123.5038 72.4143 123.2999 72.7466 123.148 C 73.3513 122.873 73.3522 122.873 73.229 123.7424 C 73.1613 124.2213 72.4733 126.0589 71.6994 127.8271 C 69.4809 132.8957 68.9612 133.9099 68.5829 133.9099 C 68.3912 133.9099 67.796 133.7104 67.2607 133.4666 Z M 66.747 125.6528 C 66.2421 125.4038 64.9511 124.7965 63.8778 124.3028 C 61.6515 123.2808 48.915 115.5373 48.777 115.1226 C 48.7102 114.9205 49.0937 114.8866 50.2563 114.9925 C 51.6323 115.1183 51.9525 115.068 52.8591 114.5873 L 53.8916 114.039 L 59.4009 116.2592 C 62.4315 117.4808 65.7857 118.8534 66.8546 119.3088 C 67.9244 119.7643 68.8831 120.1366 68.9855 120.1366 C 69.0887 120.1366 69.5416 119.7678 69.9919 119.3167 C 71.0877 118.2217 74.179 115.7751 74.4679 115.7751 C 74.5972 115.7751 74.6319 115.9998 74.5469 116.2913 C 74.2744 117.2283 71.7471 122.303 71.1927 123.0266 C 70.6929 123.6799 68.045 126.058 67.7804 126.0919 C 67.717 126.0997 67.252 125.9027 66.747 125.6528 Z M 36.2539 114.6116 C 34.8067 114.0719 32.3427 112.5935 31.0872 111.5116 C 30.2795 110.8158 30.1112 110.5407 30.1988 110.0575 C 30.4114 108.8862 32.3661 102.5587 32.7366 101.8421 L 33.1149 101.1107 L 34.3208 101.5262 C 35.0609 101.7813 35.5086 102.0642 35.48 102.2585 C 35.4539 102.4329 35.1624 103.5573 34.8327 104.7564 C 34.0744 107.5119 34.1109 109.6298 34.9273 110.2909 C 36.4109 111.4925 41.201 111.4717 43.1488 110.2553 C 43.7718 109.8666 44.1353 109.0814 44.1353 108.127 C 44.1353 107.4824 43.5141 104.8761 43.108 103.8202 C 43.0039 103.5486 43.1965 103.389 43.8715 103.1869 C 45.0142 102.845 45.4957 102.111 45.8193 100.224 C 46.0562 98.8427 46.0302 98.6163 45.4532 96.9843 C 44.9951 95.6889 44.6741 93.9086 44.2246 90.1796 C 43.8906 87.4024 43.5141 85.026 43.3891 84.9002 C 43.2399 84.7483 43.2156 85.9196 43.3189 88.3429 C 43.5514 93.7915 43.8073 96.0108 44.3452 97.2576 C 44.8762 98.487 44.9396 99.3954 44.5847 100.6742 C 44.2038 102.0451 43.8082 102.2984 42.3185 102.1275 C 38.488 101.6894 32.9301 100.099 31.7458 99.1021 C 30.7905 98.2978 30.8322 97.3843 31.9635 94.3814 C 32.6351 92.6002 33.0923 90.7357 33.6918 87.3382 C 34.1395 84.7969 34.6071 82.4526 34.7304 82.129 C 34.8536 81.8045 35.5563 80.9525 36.2929 80.2359 C 37.0295 79.5184 37.8303 78.6447 38.0733 78.2941 L 38.5149 77.6565 L 43.1046 79.58 C 49.0095 82.0553 50.016 82.3893 50.4567 82.0232 C 50.6415 81.8705 50.7968 81.5251 50.802 81.2562 C 50.8107 80.825 50.8923 80.8623 51.5005 81.5711 C 52.5858 82.8361 53.2886 84.1766 53.692 85.7461 C 54.02 87.0258 54.0295 87.549 53.7719 90.2247 C 53.3892 94.1984 53.5281 95.8234 54.7783 102.0017 C 56.0867 108.4715 56.2515 109.943 55.7674 110.8791 C 54.8035 112.7427 52.4904 113.9609 48.8456 114.524 C 43.5158 115.3465 38.3223 115.382 36.2539 114.6116 Z M 35.9927 109.9386 C 35.0626 109.5499 34.8084 108.6676 35.0453 106.6538 C 35.1815 105.4895 35.8461 102.4615 36.0075 102.2637 C 36.1402 102.1006 41.4995 103.2632 41.6687 103.4914 C 42.0478 104.0007 42.9883 107.3601 42.9883 108.206 C 42.9883 108.9721 42.8859 109.1586 42.3064 109.4588 C 40.7438 110.2666 37.3887 110.5225 35.9927 109.9386 Z M 57.0896 108.2537 C 56.9543 108.1609 56.733 107.3618 56.5977 106.4777 L 56.3521 104.8709 L 57.1295 104.0727 L 57.9069 103.2736 L 58.7277 103.7152 C 59.8894 104.3408 60.0213 104.7112 59.6248 106.2339 C 59.4391 106.9488 59.2864 107.5726 59.2864 107.6204 C 59.2864 107.6689 59.1242 107.8702 58.9255 108.0689 C 58.5515 108.4429 57.5174 108.547 57.0896 108.2537 Z M 55.2746 98.946 C 54.9362 96.9591 54.7028 94.7172 54.7132 93.5511 L 54.7306 91.5574 L 55.6884 94.4309 C 56.3669 96.4672 56.9308 97.6992 57.6223 98.6579 C 58.1585 99.4015 58.5975 100.2066 58.5975 100.4461 C 58.5975 100.6855 58.0579 101.4516 57.3985 102.1492 C 55.9661 103.664 56.1188 103.8957 55.2746 98.946 Z M 45.2849 79.4637 C 43.3267 78.5779 41.1299 77.587 40.4019 77.2626 C 39.248 76.7481 39.1014 76.6118 39.2541 76.1954 C 39.3513 75.9325 39.4259 75.0979 39.4207 74.3404 C 39.4129 73.1483 39.2367 72.5991 38.114 70.26 C 37.4009 68.7738 36.928 67.6268 37.0642 67.711 C 37.2004 67.7952 37.9431 68.34 38.7153 68.9231 C 40.4601 70.2392 42.7913 71.4634 45.107 72.2799 L 46.8821 72.9045 L 46.739 75.2471 L 46.5958 77.5888 L 47.3029 78.3748 C 47.9129 79.0516 48.0725 79.1236 48.4543 78.8902 C 48.8351 78.6585 49.0043 78.7297 49.6446 79.3899 C 50.2485 80.0129 50.3621 80.2784 50.2381 80.7738 C 50.0368 81.5737 49.8173 81.5156 45.2849 79.4637 Z M 51.5924 72.9826 C 46.0362 72.0048 41.0518 70.0275 37.767 67.4984 C 34.143 64.7082 32.6802 62.8255 29.9585 57.4558 C 29.1073 55.777 28.2562 54.3298 28.0671 54.2404 C 27.8771 54.1511 27.4216 53.9368 27.0537 53.7641 C 26.0386 53.2878 22.9126 50.121 22.3295 48.9775 C 21.9062 48.1472 21.8333 47.7116 21.9261 46.556 C 22.0641 44.845 23.1685 42.3862 24.1854 41.5316 C 25.4009 40.5087 27.3175 40.815 29.2418 42.3385 C 30.4088 43.2634 30.8218 44.0885 30.8218 45.4992 C 30.8218 46.5404 30.3489 49.5015 29.9967 50.6737 C 29.8865 51.0389 29.9168 51.0927 30.1225 50.8984 C 30.2717 50.757 30.5485 49.964 30.7376 49.1363 L 31.0812 47.6309 L 32.5006 48.3025 C 34.0493 49.0347 35.2015 49.1606 35.6309 48.6435 C 35.7819 48.4613 36.0092 47.5624 36.1368 46.6453 C 36.2634 45.7283 36.5081 44.7062 36.6799 44.3748 C 37.0764 43.607 40.7733 39.9786 42.8729 38.2954 C 46.5915 35.3152 50.9382 32.8824 53.8916 32.1293 C 57.2918 31.2617 62.3803 31.1203 70.2279 31.6747 L 72.3319 31.823 L 72.7023 33.2971 C 74.4966 40.441 74.507 42.6023 72.7821 49.2039 C 71.4963 54.1242 71.5016 54.047 72.3353 55.3458 C 73.2637 56.7929 73.7487 57.9868 73.7487 58.8284 C 73.7487 59.4001 73.5743 59.617 72.7032 60.1272 C 72.128 60.4638 70.5749 61.1206 69.2501 61.5865 L 66.8433 62.4342 L 65.8265 64.6917 C 65.2669 65.9341 64.4704 67.5175 64.0566 68.2107 C 63.1239 69.7724 61.2724 71.8408 60.4056 72.2894 C 58.4639 73.2932 54.9336 73.5709 51.5924 72.9826 Z M 62.5573 66.027 C 63.621 65.8656 63.2584 65.5021 62.0333 65.5021 C 60.4516 65.5021 59.5936 65.0856 58.2895 63.6861 C 57.2215 62.5392 56.5699 62.2875 56.353 62.9374 C 56.2194 63.3408 58.4275 65.4543 59.414 65.8665 C 60.1584 66.1779 61.2073 66.2308 62.5573 66.027 Z M 57.0896 55.3735 C 57.4462 55.0933 58.267 54.7272 58.9133 54.5597 L 60.0898 54.256 L 58.8283 54.3853 C 58.1342 54.4565 57.3811 54.6829 57.1538 54.8885 C 56.9222 55.0976 56.386 55.2529 55.9357 55.2399 C 55.4229 55.2252 55.1627 55.3128 55.2182 55.482 C 55.3743 55.9592 56.4216 55.8993 57.0896 55.3735 Z M 55.8411 54.1181 C 56.2819 53.9272 56.8241 53.8179 57.0462 53.876 C 57.2683 53.9342 57.4497 53.8743 57.4497 53.7433 C 57.4497 53.5889 57.1061 53.5654 56.4745 53.6773 C 55.9374 53.7719 55.1627 53.8448 54.7523 53.8387 C 53.9671 53.8266 53.7545 54.1086 54.3697 54.3445 C 54.8538 54.5302 54.9119 54.5207 55.8411 54.1181 Z M 62.1669 48.869 C 63.1664 47.8704 63.7234 46.32 63.5672 44.9769 C 63.2636 42.3775 60.9305 42.3203 59.6543 44.8806 C 58.9133 46.3686 58.8899 47.5104 59.5805 48.5385 C 60.2807 49.5813 61.3218 49.715 62.1669 48.869 Z M 27.2854 60.7354 C 24.2886 58.8952 21.9842 57.1296 20.1857 55.2989 C 16.566 51.6133 14.2191 44.118 14.2148 36.234 C 14.2113 29.7911 15.4624 26.0213 18.9754 21.8889 C 23.7949 16.2173 33.2276 10.9491 41.8404 9.1184 C 44.7513 8.4998 49.3045 8.545 52.3559 9.2217 C 56.065 10.0451 59.7402 11.4055 64.2214 13.6153 C 68.6124 15.78 71.9145 17.8015 73.6081 19.3624 C 75.0961 20.7341 75.4718 21.8776 75.4613 24.9932 C 75.4501 28.1912 74.946 29.4232 73.2177 30.4782 L 72.1132 31.1524 L 68.2818 30.8782 C 60.1332 30.2952 55.0195 30.6136 51.7312 31.9098 C 48.3042 33.2589 43.4455 36.6678 39.6376 40.3942 C 36.4933 43.4699 36.1255 44.0061 35.8513 45.9131 C 35.4635 48.6035 35.5069 48.5168 34.5473 48.5046 C 34.0762 48.4986 33.1305 48.2036 32.4442 47.8479 L 31.1974 47.2032 L 31.1653 45.599 C 31.1402 44.3843 31.0092 43.7961 30.6239 43.1723 C 28.9694 40.4957 25.4278 39.1813 23.7273 40.612 C 22.8128 41.3815 21.4567 44.1501 21.193 45.7864 C 20.9544 47.2631 21.1479 48.3823 21.8341 49.4928 C 22.4137 50.4307 24.4873 52.4262 26.285 53.7754 C 27.3999 54.6118 27.8181 55.1549 28.9928 57.2901 C 29.7572 58.6783 30.9207 60.6 31.5774 61.5605 C 32.2351 62.5201 32.858 63.4432 32.963 63.6124 C 33.2164 64.021 29.8891 62.3353 27.2854 60.7354 Z M 10.209 33.4507 C 6.2509 32.1536 4.7352 30.912 3.2594 27.7617 C 1.7784 24.6001 1.3272 22.4988 1.3316 18.788 C 1.335 15.9561 1.3984 15.4234 1.8651 14.3111 C 3.6472 10.0589 7.1281 6.6457 12.3424 4.0368 C 16.3326 2.0396 20.0217 1.3125 25.0825 1.526 C 28.7187 1.6787 31.2556 2.2582 33.0836 3.354 C 34.2375 4.0464 38.8559 8.4001 38.8559 8.7957 C 38.8559 8.8937 38.5513 9.0352 38.1782 9.1098 C 35.4696 9.6512 29.1429 12.6271 25.4269 15.1085 C 17.706 20.2621 14.1185 25.5294 13.2639 32.9631 C 13.0895 34.4823 13.2673 34.4536 10.209 33.4507 Z "/>
        </g>
      </g>
    </g>
  </g>
</svg>