<svg version="1.1" xmlns="http://www.w3.org/2000/svg" xmlns:xlink="http://www.w3.org/1999/xlink" width="56.97215" height="107.40952" viewBox="0,0,56.97215,107.40952"><g transform="translate(-213.55408,-252.41282)"><g data-paper-data="{&quot;isPaintingLayer&quot;:true}" fill-rule="nonzero" stroke="none" stroke-width="0.17084" stroke-linecap="butt" stroke-linejoin="miter" stroke-miterlimit="10" stroke-dasharray="" stroke-dashoffset="0" style="mix-blend-mode: normal"><path d="M246.414,359.75c-5.6046,-0.1608 -5.8712,-0.2725 -5.7014,-2.3852c0.0471,-0.585 -0.022,-1.5684 -0.1582,-2.238c-0.7865,-3.8774 -1.1351,-11.2751 -0.6748,-14.3337c0.1537,-1.0234 0.3242,-2.0372 0.3784,-2.2528c0.0846,-0.3377 -0.0278,-0.4552 -0.8142,-0.8536c-1.2229,-0.6186 -2.6499,-1.6026 -3.4325,-2.3671c-0.565,-0.5521 -0.6412,-0.7238 -0.6412,-1.447c0,-0.8136 1.1739,-5.1268 1.6407,-6.0295c0.3248,-0.6289 0.3061,-0.727 -0.1943,-0.995c-0.2376,-0.1272 -0.5928,-0.4907 -0.7891,-0.8078c-0.4875,-0.789 -0.3661,-1.919 0.4204,-3.9077c0.4371,-1.1041 0.8187,-2.6338 1.3088,-5.2469c0.381,-2.0294 0.7632,-3.8748 0.8497,-4.1027c0.0866,-0.2273 0.687,-0.9408 1.3347,-1.5865c0.6476,-0.645 1.3966,-1.549 1.6652,-2.0094c0.718,-1.2294 0.6631,-1.9493 -0.3674,-4.8013c-0.7503,-2.0772 -0.9679,-2.4982 -1.6549,-3.2033c-0.4352,-0.4462 -0.8885,-0.8129 -1.0073,-0.8149c-0.1194,-0.0019 -1.2545,-0.5256 -2.5227,-1.1622c-5.5646,-2.7958 -8.8234,-5.4393 -10.2077,-8.2804c-1.3592,-2.79 -2.3691,-6.8708 -2.5537,-10.3149c-0.0646,-1.1958 -0.1789,-1.9848 -0.2925,-2.0132c-2.6467,-0.6599 -5.1888,-1.8241 -6.218,-2.8495c-1.4018,-1.396 -2.7352,-4.8453 -3.1375,-8.115c-0.5798,-4.7226 1.6349,-8.8208 6.4718,-11.9737c2.7733,-1.8073 5.4948,-2.7868 8.7104,-3.1349c3.2129,-0.3474 7.1762,0.1453 9.1326,1.1358c0.8659,0.4384 3.6153,2.996 4.6019,4.2816l0.4113,0.5359l1.538,-0.3345c2.2483,-0.4888 5.5911,-0.4836 7.944,0.0136c4.4314,0.9356 9.553,3.1277 13.923,5.9584c3.6927,2.3917 4.0944,3.007 4.0976,6.2742c0.0019,2.5783 -0.2925,3.5571 -1.3476,4.4747l-0.7251,0.6308l0.2247,0.9498c0.4339,1.837 0.7445,3.8709 0.8517,5.5736c0.1298,2.0746 -0.1769,4.137 -1.1345,7.6256l-0.6509,2.3717l0.6677,1.1532c0.3674,0.634 0.758,1.5832 0.8684,2.1101c0.175,0.8336 0.1634,1.0137 -0.0903,1.4011c-0.3442,0.5256 -1.9003,1.347 -3.7386,1.9739l-1.3185,0.4494l-0.9608,1.9584c-2.1805,4.4437 -3.8309,5.8919 -7.204,6.3194c-1.6026,0.2034 -4.6528,-0.0898 -6.3859,-0.6128c-0.2189,-0.0658 -0.295,0.0924 -0.3764,0.7787l-0.102,0.8614l1.4715,1.4057c1.7957,1.7156 3.3118,3.7133 3.8193,5.0331c0.3067,0.7955 0.3835,1.3637 0.3997,2.9502c0.02,1.959 0.0232,1.9713 0.9317,4.2228c0.6282,1.5561 1.1177,2.4924 1.5755,3.0115c1.1015,1.252 1.2074,1.9946 0.441,3.0903c-0.2312,0.3293 -0.2835,0.5237 -0.1543,0.5669c0.1078,0.0355 0.45,0.2357 0.7599,0.4436c0.4869,0.3274 0.5708,0.4894 0.616,1.1932c0.0685,1.0635 -0.3596,2.504 -0.893,3.0051c-0.2899,0.2725 -0.6437,0.4036 -1.1222,0.4165c-0.5985,0.0155 -0.7135,0.08 -0.8019,0.4481c-0.3041,1.272 -1.3941,2.5401 -2.7294,3.1768l-0.6889,0.328l-0.1182,8.0292c-0.0652,4.4165 -0.1569,8.299 -0.2034,8.6277l-0.0852,0.5979l1.755,0.9395c1.9397,1.0389 2.8701,1.7576 2.8701,2.2179c0,0.6464 -0.3978,0.7323 -3.0567,0.6567c-1.9577,-0.0555 -2.5253,-0.0245 -2.464,0.1363c0.0439,0.1149 -0.0904,0.3796 -0.2996,0.5882c-0.3783,0.379 -0.3867,0.379 -4.6619,0.257z" fill="#cafdfd"/><path d="M246.414,359.75c-5.6046,-0.1608 -5.8712,-0.2725 -5.7014,-2.3852c0.0471,-0.585 -0.022,-1.5684 -0.1582,-2.238c-0.7865,-3.8774 -1.1351,-11.2751 -0.6748,-14.3337c0.1537,-1.0234 0.3242,-2.0372 0.3784,-2.2528c0.0846,-0.3377 -0.0278,-0.4552 -0.8142,-0.8536c-1.2229,-0.6186 -2.6499,-1.6026 -3.4325,-2.3671c-0.565,-0.5521 -0.6412,-0.7238 -0.6412,-1.447c0,-0.8136 1.1739,-5.1268 1.6407,-6.0295c0.3248,-0.6289 0.3061,-0.727 -0.1943,-0.995c-0.2376,-0.1272 -0.5928,-0.4907 -0.7891,-0.8078c-0.4875,-0.789 -0.3661,-1.919 0.4204,-3.9077c0.4371,-1.1041 0.8187,-2.6338 1.3088,-5.2469c0.381,-2.0294 0.7632,-3.8748 0.8497,-4.1027c0.0866,-0.2273 0.687,-0.9408 1.3347,-1.5865c0.6476,-0.645 1.3966,-1.549 1.6652,-2.0094c0.718,-1.2294 0.6631,-1.9493 -0.3674,-4.8013c-0.7503,-2.0772 -0.9679,-2.4982 -1.6549,-3.2033c-0.4352,-0.4462 -0.8885,-0.8129 -1.0073,-0.8149c-0.1194,-0.0019 -1.2545,-0.5256 -2.5227,-1.1622c-5.5646,-2.7958 -8.8234,-5.4393 -10.2077,-8.2804c-1.3592,-2.79 -2.3691,-6.8708 -2.5537,-10.3149c-0.0646,-1.1958 -0.1789,-1.9848 -0.2925,-2.0132c-2.6467,-0.6599 -5.1888,-1.8241 -6.218,-2.8495c-1.4018,-1.396 -2.7352,-4.8453 -3.1375,-8.115c-0.5798,-4.7226 1.6349,-8.8208 6.4718,-11.9737c2.7733,-1.8073 5.4948,-2.7868 8.7104,-3.1349c3.2129,-0.3474 7.1762,0.1453 9.1326,1.1358c0.8659,0.4384 3.6153,2.996 4.6019,4.2816l0.4113,0.5359l1.538,-0.3345c2.2483,-0.4888 5.5911,-0.4836 7.944,0.0136c4.4314,0.9356 9.553,3.1277 13.923,5.9584c3.6927,2.3917 4.0944,3.007 4.0976,6.2742c0.0019,2.5783 -0.2925,3.5571 -1.3476,4.4747l-0.7251,0.6308l0.2247,0.9498c0.4339,1.837 0.7445,3.8709 0.8517,5.5736c0.1298,2.0746 -0.1769,4.137 -1.1345,7.6256l-0.6509,2.3717l0.6677,1.1532c0.3674,0.634 0.758,1.5832 0.8684,2.1101c0.175,0.8336 0.1634,1.0137 -0.0903,1.4011c-0.3442,0.5256 -1.9003,1.347 -3.7386,1.9739l-1.3185,0.4494l-0.9608,1.9584c-2.1805,4.4437 -3.8309,5.8919 -7.204,6.3194c-1.6026,0.2034 -4.6528,-0.0898 -6.3859,-0.6128c-0.2189,-0.0658 -0.295,0.0924 -0.3764,0.7787l-0.102,0.8614l1.4715,1.4057c1.7957,1.7156 3.3118,3.7133 3.8193,5.0331c0.3067,0.7955 0.3835,1.3637 0.3997,2.9502c0.02,1.959 0.0232,1.9713 0.9317,4.2228c0.6282,1.5561 1.1177,2.4924 1.5755,3.0115c1.1015,1.252 1.2074,1.9946 0.441,3.0903c-0.2312,0.3293 -0.2835,0.5237 -0.1543,0.5669c0.1078,0.0355 0.45,0.2357 0.7599,0.4436c0.4869,0.3274 0.5708,0.4894 0.616,1.1932c0.0685,1.0635 -0.3596,2.504 -0.893,3.0051c-0.2899,0.2725 -0.6437,0.4036 -1.1222,0.4165c-0.5985,0.0155 -0.7135,0.08 -0.8019,0.4481c-0.3041,1.272 -1.3941,2.5401 -2.7294,3.1768l-0.6889,0.328l-0.1182,8.0292c-0.0652,4.4165 -0.1569,8.299 -0.2034,8.6277l-0.0852,0.5979l1.755,0.9395c1.9397,1.0389 2.8701,1.7576 2.8701,2.2179c0,0.6464 -0.3978,0.7323 -3.0567,0.6567c-1.9577,-0.0555 -2.5253,-0.0245 -2.464,0.1363c0.0439,0.1149 -0.0904,0.3796 -0.2996,0.5882c-0.3783,0.379 -0.3867,0.379 -4.6619,0.257zM243.3464,337.7106c3.61,0.0865 8.0104,-0.4817 9.5013,-1.2268c1.6459,-0.8227 2.34,-1.7318 2.34,-3.0645c0,-0.4371 -0.3952,-2.7668 -0.8775,-5.1765c-0.9524,-4.7523 -1.0557,-6.0631 -0.7651,-9.6815c0.182,-2.2593 -0.0285,-3.2001 -1.0803,-4.8272l-0.6831,-1.0576l-0.4191,0.419l-0.419,0.4191l-1.1668,-0.3971c-0.6412,-0.2183 -2.5834,-0.9976 -4.3158,-1.7311l-3.149,-1.3347l-0.2557,0.4133c-0.1408,0.2272 -0.6922,0.8394 -1.2256,1.3604c-0.5327,0.5205 -1.0518,1.1016 -1.1525,1.2908c-0.1014,0.1885 -0.4959,2.0475 -0.8769,4.1305c-0.5049,2.7635 -0.8536,4.1886 -1.2901,5.2701c-0.851,2.1114 -0.893,2.4588 -0.3725,3.0774c0.3125,0.3712 0.862,0.6573 2.021,1.0531c2.7435,0.9356 5.9688,1.5606 6.8773,1.3327c0.7942,-0.1995 1.0208,-2.0417 0.4345,-3.5287c-0.3448,-0.8743 -0.5249,-2.5221 -0.7774,-7.1013c-0.0768,-1.3824 -0.0549,-2.1069 0.0652,-2.1812c0.0988,-0.0607 0.2312,-0.0271 0.2944,0.0749c0.0627,0.102 0.3332,1.9319 0.5999,4.066c0.3435,2.7461 0.5927,4.1285 0.8529,4.7284c0.4824,1.1112 0.4908,2.8397 0.0188,3.9057c-0.3493,0.7904 -0.7697,1.1287 -1.4005,1.1287c-0.3067,0 -0.3526,0.0685 -0.2596,0.3842c0.0626,0.2111 0.2764,1.0183 0.4746,1.7924c0.6115,2.3872 0.1097,3.1639 -2.3361,3.6159c-1.4089,0.2609 -2.5944,0.2208 -3.5933,-0.1201c-1.1655,-0.3971 -1.5116,-1.0492 -1.3798,-2.5976c0.0813,-0.9589 0.5243,-2.8895 0.8665,-3.7812c0.0833,-0.2156 -0.0749,-0.3415 -0.6935,-0.552c-0.4404,-0.1505 -0.8652,-0.2331 -0.944,-0.1847c-0.1576,0.0975 -0.8743,2.2786 -1.6188,4.9227c-0.3435,1.2204 -0.4268,1.7628 -0.3015,1.9642c0.3222,0.5205 1.8441,1.571 3.4189,2.36c1.5691,0.7858 1.5697,0.7858 3.5882,0.8343zM255.0682,326.9094l0.3855,2.023l0.8065,-0.8627c0.4558,-0.4874 0.8065,-1.0253 0.8065,-1.2377c0,-0.2073 -0.3035,-0.7697 -0.6748,-1.2507c-0.4436,-0.5754 -0.8865,-1.4877 -1.2927,-2.6642l-0.6185,-1.7892l0.1013,1.8796c0.0556,1.0338 0.2745,2.7894 0.4862,3.9019z" fill="#e4e4e4"/><path d="M244.7662,359.6654c-1.6362,-0.0807 -3.0134,-0.2305 -3.2833,-0.3577c-0.5986,-0.2809 -0.8814,-1.1248 -0.7348,-2.1909c0.0742,-0.5398 -0.0065,-1.447 -0.2396,-2.6848c-0.4293,-2.2844 -0.8652,-7.1852 -0.8652,-9.7279c0,-1.0338 0.1563,-2.9457 0.348,-4.2493c0.1912,-1.3037 0.3255,-2.3904 0.2977,-2.4143c-0.0271,-0.0239 -0.4726,-0.2544 -0.9892,-0.5114c-1.2507,-0.6231 -2.925,-1.8221 -3.5029,-2.5091c-0.4152,-0.4933 -0.4565,-0.6535 -0.3751,-1.4451c0.1046,-1.0079 1.3966,-5.4193 1.753,-5.9817c0.2144,-0.339 0.1847,-0.4061 -0.359,-0.8206c-1.3211,-1.008 -1.3695,-1.8396 -0.275,-4.7317c0.4707,-1.2436 0.8297,-2.677 1.2119,-4.842c0.8226,-4.6535 0.7432,-4.4372 2.1315,-5.8171c1.3346,-1.3281 2.3199,-2.965 2.3199,-3.8554c0,-0.3138 -0.3932,-1.6872 -0.8736,-3.0515c-0.7826,-2.2212 -0.9563,-2.5621 -1.6659,-3.2627c-0.5482,-0.5411 -1.263,-0.9866 -2.3225,-1.447c-1.7583,-0.7645 -4.926,-2.5492 -6.67,-3.7573c-1.7195,-1.1919 -3.8438,-3.3731 -4.5844,-4.7071c-1.3676,-2.4633 -2.5105,-6.9805 -2.7726,-10.9606c-0.0885,-1.3398 -0.1815,-1.8363 -0.3448,-1.8363c-0.4443,0 -3.0839,-0.9053 -4.1441,-1.4212c-1.6911,-0.8232 -2.4769,-1.6233 -3.3556,-3.4189c-1.1694,-2.3891 -1.6466,-4.2364 -1.7512,-6.7856c-0.1059,-2.5621 0.0646,-3.5009 0.9731,-5.3728c1.2727,-2.6215 3.8289,-5.0474 7.1814,-6.8153c3.0063,-1.5851 5.6085,-2.2018 9.2256,-2.1869c4.6742,0.0193 6.8857,0.7729 9.2999,3.171c0.7697,0.7638 1.664,1.7181 1.9862,2.1191l0.5869,0.7303l1.7937,-0.3603c1.5071,-0.3022 2.2044,-0.3467 4.3565,-0.2783c2.8578,0.0917 4.9757,0.5398 8.2003,1.735c3.9084,1.4489 9.6615,4.6283 11.5876,6.4033c1.3456,1.2404 1.8802,3.3266 1.4922,5.8254c-0.2622,1.6879 -0.6961,2.6144 -1.4522,3.0994c-0.463,0.2963 -0.594,0.4803 -0.5262,0.7367c0.0503,0.1879 0.2892,1.3798 0.5307,2.648c0.7826,4.1053 0.6257,6.5976 -0.7277,11.5591l-0.6134,2.2483l0.3694,0.5192c0.6218,0.8736 1.2294,2.3619 1.2578,3.0844c0.0206,0.5153 -0.0756,0.7949 -0.3894,1.1287c-0.4778,0.5082 -1.9526,1.2384 -3.6268,1.795l-1.1526,0.3829l-1.0273,2.0701c-2.3548,4.7459 -4.0168,6.0463 -7.9426,6.2122c-1.7292,0.073 -2.9702,-0.0555 -5.5097,-0.5708l-0.5553,-0.1123l0.0064,1.0034c0.0071,0.9879 0.0188,1.0131 0.7684,1.5638c1.2178,0.8963 3.4448,3.5701 4.1402,4.9719c0.6005,1.2106 0.6302,1.354 0.7348,3.5874c0.1014,2.178 0.1491,2.4253 0.7477,3.8593c0.8181,1.961 1.325,2.8992 2.0636,3.8199c0.7368,0.9176 0.7884,1.7131 0.1705,2.6222l-0.4229,0.6224l0.4946,0.1724c1.2029,0.4197 1.4689,1.2998 0.9362,3.0936c-0.3693,1.2436 -0.8768,1.7188 -1.837,1.7188c-0.7458,0 -0.7554,0.0084 -0.8613,0.6702c-0.1498,0.935 -1.0331,2.0023 -2.2574,2.7287l-1.0395,0.616l-0.1143,7.0897c-0.0627,3.8993 -0.1627,7.789 -0.2228,8.6439l-0.1085,1.5535l1.4328,0.7645c2.1502,1.1461 2.8772,1.6472 3.0987,2.1327c0.1718,0.3765 0.1524,0.4759 -0.1343,0.6948c-0.277,0.2111 -0.7748,0.2389 -2.8553,0.1588c-2.3968,-0.0917 -2.5194,-0.0807 -2.5194,0.2286c0,0.1788 -0.1711,0.4449 -0.3797,0.5914c-0.4365,0.3055 -1.6678,0.3268 -6.1128,0.1079zM252.676,336.6039c0.8988,-0.3849 1.9215,-1.2488 2.2644,-1.9106c0.3977,-0.7697 0.2989,-1.7822 -0.6276,-6.4369c-0.9485,-4.7665 -1.0551,-6.1147 -0.7671,-9.6951c0.1821,-2.2651 -0.0291,-3.2001 -1.0932,-4.8472l-0.696,-1.0764l-0.4113,0.4436l-0.4113,0.4436l-1.2469,-0.4494c-0.6863,-0.2467 -2.5156,-0.984 -4.0665,-1.6381c-1.5503,-0.6541 -2.9366,-1.2255 -3.0813,-1.2695c-0.1672,-0.051 -0.4636,0.2009 -0.8174,0.6929c-0.3048,0.4248 -0.8911,1.0486 -1.3024,1.3856c-0.8607,0.7051 -0.8336,0.6186 -1.6981,5.3799c-0.3784,2.085 -0.7852,3.7212 -1.1946,4.8098c-0.8859,2.3535 -0.9072,2.5408 -0.3667,3.1832c0.359,0.4262 0.8349,0.6619 2.2857,1.1313c3.0606,0.9892 6.2264,1.5303 6.805,1.1622c0.6237,-0.3964 0.7464,-2.318 0.2234,-3.5002c-0.3455,-0.7813 -0.5179,-2.3504 -0.7755,-7.0646c-0.0742,-1.3624 -0.0529,-2.1094 0.0633,-2.1811c0.0975,-0.0601 0.2286,-0.0252 0.2918,0.0768c0.0627,0.102 0.3358,1.9526 0.6057,4.1118c0.3358,2.688 0.5998,4.1725 0.8368,4.7077c0.4597,1.0402 0.4668,2.9308 0.0142,3.9278c-0.3396,0.749 -0.7658,1.0815 -1.3856,1.0815c-0.3067,0 -0.3526,0.0685 -0.2596,0.3842c0.0626,0.2111 0.2764,1.0183 0.4746,1.7924c0.461,1.7989 0.3015,2.5253 -0.6748,3.0735c-1.3792,0.7755 -4.2783,0.9163 -5.6323,0.2738c-1.3321,-0.6321 -1.3715,-2.3116 -0.1466,-6.1722c0.091,-0.2867 -0.0181,-0.3842 -0.6877,-0.6121c-0.4377,-0.1491 -0.862,-0.2305 -0.9427,-0.1801c-0.1537,0.0949 -1.2849,3.5991 -1.8008,5.5781l-0.299,1.148l0.412,0.4391c0.5746,0.6115 2.863,2.0546 3.9561,2.4937c2.0081,0.8077 9.677,0.3738 12.152,-0.687zM255.0598,326.8048c0.3545,1.9055 0.4088,2.0514 0.6825,1.8506c0.5302,-0.3874 1.3244,-1.5 1.3244,-1.8544c0,-0.1899 -0.3061,-0.7426 -0.6806,-1.2275c-0.4694,-0.6089 -0.8594,-1.4283 -1.2559,-2.6409c-0.6476,-1.979 -0.8129,-1.8847 -0.5972,0.341c0.0781,0.8045 0.3151,2.3935 0.5268,3.5312zM237.8121,299.3462c0.042,0 -0.4068,-0.7329 -0.9976,-1.6285c-0.5901,-0.8956 -1.4289,-2.3167 -1.8634,-3.1581c-0.7109,-1.3766 -0.9214,-1.6297 -2.1076,-2.5343c-1.6084,-1.2281 -3.0418,-2.7229 -3.375,-3.5203c-0.7322,-1.7518 0.4178,-5.4225 2.012,-6.4233c1.1054,-0.6942 3.1096,-0.0917 4.4184,1.3281c0.853,0.9253 1.0093,1.3424 1.0093,2.6952v1.0867l0.8968,0.4313c1.8758,0.9033 2.0998,0.8032 2.3316,-1.0402c0.082,-0.6561 0.2544,-1.3908 0.3823,-1.6336c0.7361,-1.3947 4.7607,-5.1113 7.5688,-6.9896c4.7258,-3.1613 6.8759,-3.5268 17.2703,-2.9347c1.7033,0.0968 1.9532,0.0723 2.5892,-0.2525c1.303,-0.6644 1.7621,-1.7395 1.7621,-4.1272c0,-2.7023 -0.5404,-3.6249 -3.1251,-5.3399c-4.1402,-2.7474 -9.074,-4.9764 -13.4272,-6.0656c-1.5626,-0.3907 -2.1792,-0.4546 -4.4611,-0.4604c-3.0334,-0.0084 -4.3726,0.2189 -7.5843,1.2862c-3.849,1.2798 -7.7651,3.4603 -10.7811,6.0024c-3.14,2.6466 -4.7432,5.0744 -5.5923,8.4708c-0.5082,2.0339 -0.5418,6.6409 -0.0665,9.1759c0.6909,3.6837 1.8331,6.692 3.2581,8.5819c1.3508,1.7918 4.3003,4.0194 8.0679,6.0934c0.9563,0.5256 1.7725,0.9563 1.8144,0.9563zM223.4119,276.6746c0,-0.9394 0.5056,-3.1141 1.0564,-4.5443c1.937,-5.0313 8.454,-10.2459 16.0661,-12.8545l1.8331,-0.6282l-0.8549,-0.9628c-1.1235,-1.2655 -2.7035,-2.5976 -3.7657,-3.1755c-1.3359,-0.727 -3.5862,-1.1144 -6.4769,-1.1144c-2.8553,0 -4.793,0.3293 -6.8999,1.1732c-5.398,2.1611 -9.172,6.1308 -9.6737,10.1761c-0.2615,2.1069 0.1149,4.5482 1.1106,7.1917c1.1015,2.9282 2.2818,3.9852 5.5962,5.0157c2.0636,0.6412 2.0087,0.649 2.0087,-0.277z" fill="#f4dcbd"/><path d="M241.4829,359.3077c-0.6057,-0.2841 -0.8723,-1.1055 -0.7329,-2.2587c0.0691,-0.5746 0.0097,-1.3604 -0.1646,-2.1792c-0.401,-1.8776 -0.7626,-5.4922 -0.8814,-8.7988c-0.102,-2.8475 -0.0736,-3.2156 0.5631,-7.4319c0.0884,-0.5857 0.0697,-0.6076 -0.9085,-1.0848c-1.2779,-0.6237 -2.9625,-1.8221 -3.5617,-2.5343c-0.4152,-0.4933 -0.4565,-0.6535 -0.3751,-1.4451c0.1046,-1.0079 1.3966,-5.4193 1.753,-5.9817c0.2144,-0.339 0.1847,-0.4061 -0.359,-0.8206c-1.3211,-1.008 -1.3695,-1.8396 -0.275,-4.7317c0.4836,-1.2772 0.84,-2.7235 1.2881,-5.2185c0.3403,-1.8983 0.7006,-3.6655 0.7994,-3.9264c0.0994,-0.2609 0.6947,-0.9756 1.323,-1.5878c1.2669,-1.2352 2.2528,-2.8901 2.2528,-3.7818c0,-0.3138 -0.3932,-1.6872 -0.8736,-3.0515c-0.7826,-2.2212 -0.9563,-2.5621 -1.6659,-3.2627c-0.5482,-0.5411 -1.263,-0.9866 -2.3225,-1.447c-1.7511,-0.7619 -4.9157,-2.5434 -6.67,-3.7553c-0.6573,-0.4546 -1.8519,-1.4851 -2.6538,-2.2897c-1.17,-1.1745 -1.5975,-1.7511 -2.1611,-2.9159c-1.3444,-2.7765 -2.1528,-5.9914 -2.4705,-9.8255l-0.1988,-2.3936l-1.3831,-0.3829c-1.9874,-0.5501 -4.3584,-1.7588 -5.1345,-2.6182c-0.7988,-0.884 -1.8209,-3.0135 -2.4111,-5.0242c-0.5391,-1.8357 -0.7548,-5.2333 -0.4293,-6.7571c0.2847,-1.3308 1.3875,-3.4874 2.4258,-4.7426c1.693,-2.0475 4.6477,-4.0976 7.6321,-5.296c2.2354,-0.8975 4.157,-1.2371 7.0406,-1.2455c4.8214,-0.0142 7.0155,0.7167 9.471,3.1555c0.7697,0.7638 1.664,1.7201 1.9862,2.1236l0.5869,0.7342l1.3669,-0.3067c1.0486,-0.2363 2.0624,-0.3048 4.3565,-0.2951c2.7959,0.0123 3.12,0.0478 4.9957,0.5521c2.8346,0.7619 4.9279,1.569 8.0738,3.1122c4.319,2.1185 7.4228,4.2784 8.1234,5.6511c0.7974,1.5632 0.7852,4.9202 -0.0245,6.5919c-0.279,0.5759 -0.8685,1.1771 -1.4703,1.4986c-0.0187,0.0103 0.1505,0.9382 0.3765,2.063c1.0156,5.0519 0.9201,7.0096 -0.6212,12.7492l-0.5353,1.9926l0.37,0.5191c0.6212,0.873 1.2288,2.3613 1.2572,3.0838c0.0206,0.5153 -0.0756,0.7949 -0.3894,1.1287c-0.4946,0.5263 -2.0081,1.2649 -3.6772,1.7944l-1.2036,0.3822l-0.4707,1.1448c-0.6192,1.5045 -1.9667,3.7554 -2.9088,4.8582c-2.0346,2.3813 -5.2224,2.8772 -10.9987,1.7098l-0.5553,-0.1123l0.0064,1.0034c0.0071,0.9879 0.0188,1.0131 0.7684,1.5638c1.2178,0.8963 3.4448,3.5701 4.1402,4.9719c0.6005,1.2106 0.6302,1.354 0.7348,3.5874c0.1014,2.178 0.1491,2.4253 0.7477,3.8593c0.8181,1.961 1.325,2.8992 2.0636,3.8199c0.7368,0.9176 0.7884,1.7131 0.1705,2.6222l-0.4229,0.6224l0.4946,0.1724c1.2029,0.4197 1.4689,1.2998 0.9362,3.0936c-0.3693,1.2436 -0.8768,1.7188 -1.837,1.7188c-0.7425,0 -0.7561,0.0103 -0.8594,0.656c-0.1504,0.9434 -1.0854,2.0656 -2.3006,2.761l-1.0447,0.5979l-0.0065,4.0149c-0.0039,2.2083 -0.0852,6.0902 -0.1814,8.6271c-0.1408,3.714 -0.1317,4.6386 0.0445,4.7458c0.1201,0.0736 1.0628,0.6115 2.094,1.1958c2.1134,1.1978 2.6661,1.8125 2.054,2.2864c-0.2867,0.2222 -0.7439,0.2493 -2.8508,0.1686c-2.4827,-0.095 -2.5091,-0.0924 -2.5627,0.2763c-0.0291,0.2054 -0.2454,0.4701 -0.4804,0.5882c-0.7142,0.3603 -8.3888,0.1163 -9.2631,-0.295zM252.676,336.6039c0.8988,-0.3849 1.9215,-1.2488 2.2644,-1.9106c0.3977,-0.7697 0.2989,-1.7822 -0.6276,-6.4369c-0.9485,-4.7665 -1.0551,-6.1147 -0.7671,-9.6951c0.1821,-2.2651 -0.0291,-3.2001 -1.0932,-4.8472l-0.696,-1.0764l-0.4113,0.4436l-0.4113,0.4436l-1.2469,-0.4494c-0.6863,-0.2467 -2.5156,-0.984 -4.0665,-1.6381c-1.5503,-0.6541 -2.9366,-1.2255 -3.0813,-1.2695c-0.1672,-0.051 -0.4636,0.2009 -0.8174,0.6929c-0.3048,0.4248 -0.8911,1.0486 -1.3024,1.3856c-0.8607,0.7051 -0.8336,0.6186 -1.6981,5.3799c-0.3784,2.085 -0.7852,3.7212 -1.1946,4.8098c-0.8859,2.3535 -0.9072,2.5408 -0.3667,3.1832c0.359,0.4262 0.8349,0.6619 2.2857,1.1313c3.0606,0.9892 6.2264,1.5303 6.805,1.1622c0.6237,-0.3964 0.7464,-2.318 0.2234,-3.5002c-0.3455,-0.7813 -0.5179,-2.3504 -0.7755,-7.0646c-0.0742,-1.3624 -0.0529,-2.1094 0.0633,-2.1811c0.0975,-0.0601 0.2286,-0.0252 0.2918,0.0768c0.0627,0.102 0.3358,1.9526 0.6057,4.1118c0.3358,2.688 0.5998,4.1725 0.8368,4.7077c0.4597,1.0402 0.4668,2.9308 0.0142,3.9278c-0.3396,0.749 -0.7658,1.0815 -1.3856,1.0815c-0.3067,0 -0.3526,0.0685 -0.2596,0.3842c0.0626,0.2111 0.2764,1.0183 0.4746,1.7924c0.461,1.7989 0.3015,2.5253 -0.6748,3.0735c-1.3792,0.7755 -4.2783,0.9163 -5.6323,0.2738c-1.3321,-0.6321 -1.3715,-2.3116 -0.1466,-6.1722c0.091,-0.2867 -0.0181,-0.3842 -0.6877,-0.6121c-0.4371,-0.1491 -0.862,-0.2305 -0.9427,-0.1801c-0.1537,0.0949 -1.2849,3.5991 -1.8008,5.5781l-0.299,1.148l0.412,0.4391c0.5746,0.6115 2.863,2.0546 3.9561,2.4937c2.0081,0.8077 9.677,0.3738 12.152,-0.687zM244.5105,333.7202c0.8394,-0.2867 0.8549,-0.3048 0.9085,-1.0583c0.0355,-0.4965 -0.1072,-1.2636 -0.4029,-2.174c-0.4468,-1.3721 -0.4733,-1.4102 -1.0796,-1.5161c-1.2152,-0.2125 -2.8475,-0.5624 -3.1264,-0.6696c-0.3255,-0.1246 -0.3616,-0.0387 -0.7374,1.7634c-0.2744,1.3165 -0.3416,3.0631 -0.1298,3.3802c0.0691,0.1033 0.2938,0.2763 0.4985,0.3842c0.5656,0.2976 3.0735,0.2298 4.0691,-0.1098zM256.0923,332.66h0.6438c0.6063,0 0.6618,-0.0459 0.9382,-0.769c0.1614,-0.423 0.3021,-1.0551 0.3131,-1.4051c0.0168,-0.5669 -0.0504,-0.6734 -0.6186,-0.9821l-0.6373,-0.3454l-0.523,0.5223l-0.5223,0.5224l0.2027,1.2288zM255.2626,328.0329c0.3545,1.9055 0.4087,2.0514 0.6831,1.8512c0.5295,-0.388 1.3243,-1.4999 1.3243,-1.855c0,-0.1899 -0.3067,-0.7419 -0.6812,-1.2275c-0.4694,-0.6082 -0.8594,-1.4283 -1.2558,-2.6409c-0.6477,-1.979 -0.813,-1.8841 -0.5973,0.3416c0.0781,0.8039 0.3151,2.3929 0.5269,3.5306zM250.6227,313.6728c0.4403,0.0878 0.4971,0.0516 0.4971,-0.3177c0,-0.5489 -0.8775,-1.4141 -1.1532,-1.1377c-0.2725,0.2718 -0.9769,-0.2092 -1.343,-0.9163c-0.2667,-0.5159 -0.2712,-1.2494 -0.0207,-3.2749c0.0317,-0.2557 -0.1969,-0.4023 -1.1106,-0.7141c-1.6491,-0.5618 -3.2775,-1.3973 -4.6664,-2.393l-1.2074,-0.8659l0.8058,1.8054c0.9434,2.1153 1.1022,2.8023 0.8549,3.6992c-0.1001,0.3622 -0.1214,0.7199 -0.0465,0.7948c0.0743,0.0743 1.6562,0.8297 3.5145,1.6782c1.8583,0.8484 3.6023,1.5871 3.8755,1.642zM258.7274,307.0247c1.2701,-0.6625 3.0063,-3.129 4.1163,-5.848c0.308,-0.7542 0.6592,-1.4244 0.7812,-1.4896c0.1227,-0.0659 0.8375,-0.3177 1.5891,-0.5605c1.7085,-0.5514 3.397,-1.447 3.4712,-1.8408c0.0665,-0.3545 -0.6599,-2.0023 -1.2791,-2.8998c-0.5178,-0.7503 -0.5411,-0.5528 0.5489,-4.66c0.7664,-2.8869 0.8168,-3.2052 0.8174,-5.2101c0.0006,-2.092 -0.319,-4.2015 -0.9957,-6.5776l-0.2427,-0.8543l-1.8435,-0.0852c-1.0137,-0.0472 -3.6501,-0.0827 -5.8583,-0.0801c-3.5623,0.0052 -4.1835,0.0484 -5.5181,0.3835c-3.5358,0.8879 -7.6437,3.5178 -11.5172,7.3732c-1.6162,1.6084 -1.9248,2.1508 -1.9268,3.3905c-0.0013,0.882 -0.4255,1.7169 -0.9369,1.8454c-0.4513,0.1137 -1.7337,-0.2751 -2.3903,-0.7238c-0.1853,-0.1266 -0.3829,-0.2299 -0.4384,-0.2299c-0.0562,0 -0.2015,0.5004 -0.3229,1.1119c-0.2066,1.0402 -0.419,1.4425 -0.6431,1.2184c-0.0523,-0.0523 0.0297,-0.7148 0.1821,-1.4728c0.153,-0.7574 0.2776,-1.8964 0.2776,-2.5305c0,-1.0202 -0.0568,-1.2229 -0.4946,-1.7537c-0.594,-0.7206 -1.917,-1.4721 -2.8565,-1.6226c-0.5805,-0.093 -0.7645,-0.0413 -1.2229,0.3448c-0.873,0.7348 -1.6472,2.5053 -1.7195,3.9303c-0.0601,1.1926 -0.0536,1.2139 0.6934,2.2277c0.8898,1.2074 2.5776,2.7138 3.4461,3.0767c0.5476,0.2292 0.738,0.5004 1.7091,2.4388c2.3743,4.7374 4.25,6.832 8.0693,9.0125c1.5367,0.8775 4.6425,1.9403 7.18,2.4575c2.9115,0.5928 5.7512,0.4488 7.3248,-0.3719zM257.558,301.1289c-0.9085,-0.4701 -2.0623,-1.7098 -1.9997,-2.1495c0.0956,-0.6754 0.5695,-0.5527 1.4464,0.3752c1.0738,1.1364 1.529,1.3585 2.7874,1.3585c0.7987,0 1.0331,0.0575 1.0331,0.2531c0,0.1388 -0.173,0.2899 -0.3842,0.3345c-0.2111,0.0452 -0.5378,0.1181 -0.7257,0.162c-0.5211,0.1208 -1.6007,-0.0458 -2.1573,-0.3338zM254.5046,293.4523c0,-0.1731 0.173,-0.2564 0.5346,-0.2564c0.2944,0 0.7748,-0.1439 1.068,-0.3196c0.6385,-0.3829 2.2173,-0.634 2.1178,-0.3364c-0.0355,0.1079 -0.4326,0.2886 -0.8813,0.4029c-0.4494,0.1143 -0.9421,0.3332 -1.0958,0.4862c-0.3713,0.372 -1.7433,0.39 -1.7433,0.0233zM253.7659,292.4437c-0.1298,-0.3377 0.0413,-0.4533 0.4985,-0.339c0.2163,0.0543 0.6644,0.0091 0.9969,-0.1007c0.6838,-0.2253 1.2933,-0.1014 1.2933,0.2641c0,0.2789 -0.2705,0.328 -0.4255,0.0768c-0.0652,-0.1059 -0.3067,-0.0794 -0.6508,0.071c-0.7239,0.3171 -1.5962,0.3313 -1.7124,0.0278zM258.0914,288.609c-0.9395,-0.9395 -0.8162,-2.5738 0.286,-3.7935c0.5275,-0.5837 0.7058,-0.6741 1.3366,-0.6741c0.8536,0 1.1074,0.2389 1.2849,1.2107c0.2318,1.2688 -0.4565,2.9876 -1.4089,3.5164c-0.6005,0.3332 -0.9698,0.2693 -1.4986,-0.2595zM236.6363,298.7495l1.5219,0.8246l-0.696,-0.9253c-0.7729,-1.0279 -1.9933,-3.0496 -2.7733,-4.5941c-0.4074,-0.8084 -0.7755,-1.2132 -1.8363,-2.0229c-1.6168,-1.234 -3.0503,-2.7274 -3.3841,-3.5268c-0.7348,-1.7589 0.4294,-5.427 2.0449,-6.4434c1.0047,-0.6321 2.6422,-0.204 4.0872,1.068c0.9976,0.8782 1.3076,1.5755 1.3076,2.9469v1.1152l0.8968,0.4313c1.8751,0.9033 2.0998,0.8032 2.331,-1.037c0.082,-0.6541 0.2763,-1.4354 0.4319,-1.7356c0.7109,-1.3753 5.5672,-5.7079 8.312,-7.4164c4.2474,-2.6435 6.3297,-2.9515 16.3057,-2.4117c1.8783,0.102 2.114,0.0807 2.7597,-0.2486c1.3288,-0.678 1.764,-1.7324 1.764,-4.2764c0,-2.577 -0.5734,-3.5087 -3.2459,-5.2759c-4.033,-2.6674 -8.5728,-4.731 -12.9842,-5.9023c-1.8131,-0.4811 -2.1883,-0.5224 -4.8685,-0.5301c-2.4963,-0.0071 -3.1329,0.0484 -4.5276,0.3945c-7.2673,1.8021 -14.2453,6.1308 -17.3743,10.7785c-0.8801,1.3069 -1.4334,2.5505 -1.8931,4.2558c-0.3997,1.4805 -0.4423,1.9416 -0.4456,4.7988c-0.0039,4.2467 0.5695,7.2407 2.0462,10.6784c1.1429,2.6609 3.3279,4.8937 7.0529,7.2072c0.9046,0.5618 2.3297,1.3934 3.1671,1.8473zM222.8566,277.3888l0.5553,0.1168v-0.7038c0,-1.0557 0.4778,-3.1703 1.0564,-4.6715c1.9319,-5.0177 8.4747,-10.253 16.0654,-12.8545l1.8312,-0.6276l-0.8794,-1.0111c-0.4843,-0.5566 -1.385,-1.4225 -2.003,-1.9248c-2.183,-1.7751 -3.3976,-2.1457 -7.4435,-2.2709c-2.2838,-0.0704 -3.2265,-0.0291 -4.412,0.1937c-2.945,0.554 -5.6814,1.8124 -8.2965,3.8154c-2.5253,1.9344 -4.2964,4.7116 -4.6451,7.2834c-0.4262,3.1464 0.9285,8.1047 2.7558,10.0863c0.7516,0.8162 2.0242,1.5174 3.8348,2.114c0.5637,0.186 1.2752,0.3906 1.5806,0.4546z" fill="#97b0fd"/><path d="M241.4829,359.3077c-0.6057,-0.2841 -0.8723,-1.1055 -0.7329,-2.2587c0.0691,-0.5746 0.0097,-1.3604 -0.1646,-2.1792c-0.401,-1.8776 -0.7626,-5.4922 -0.8814,-8.7988c-0.102,-2.8475 -0.0736,-3.2156 0.5631,-7.4319c0.0884,-0.5857 0.0697,-0.6076 -0.9085,-1.0848c-1.2779,-0.6237 -2.9625,-1.8221 -3.5617,-2.5343c-0.4152,-0.4933 -0.4565,-0.6535 -0.3751,-1.4451c0.1046,-1.0079 1.3966,-5.4193 1.753,-5.9817c0.2144,-0.339 0.1847,-0.4061 -0.359,-0.8206c-1.3211,-1.008 -1.3695,-1.8396 -0.275,-4.7317c0.4836,-1.2772 0.84,-2.7235 1.2881,-5.2185c0.3403,-1.8983 0.7006,-3.6655 0.7994,-3.9264c0.0994,-0.2609 0.6947,-0.9756 1.323,-1.5878c1.2669,-1.2352 2.2528,-2.8901 2.2528,-3.7818c0,-0.3138 -0.3932,-1.6872 -0.8736,-3.0515c-0.7826,-2.2212 -0.9563,-2.5621 -1.6659,-3.2627c-0.5482,-0.5411 -1.263,-0.9866 -2.3225,-1.447c-1.7511,-0.7619 -4.9157,-2.5434 -6.67,-3.7553c-0.6573,-0.4546 -1.8519,-1.4851 -2.6538,-2.2897c-1.17,-1.1745 -1.5975,-1.7511 -2.1611,-2.9159c-1.3444,-2.7765 -2.1528,-5.9914 -2.4705,-9.8255l-0.1988,-2.3936l-1.3831,-0.3829c-1.9874,-0.5501 -4.3584,-1.7588 -5.1345,-2.6182c-0.7988,-0.884 -1.8209,-3.0135 -2.4111,-5.0242c-0.5391,-1.8357 -0.7548,-5.2333 -0.4293,-6.7571c0.2847,-1.3308 1.3875,-3.4874 2.4258,-4.7426c1.693,-2.0475 4.6477,-4.0976 7.6321,-5.296c2.2354,-0.8975 4.157,-1.2371 7.0406,-1.2455c4.8214,-0.0142 7.0155,0.7167 9.471,3.1555c0.7697,0.7638 1.664,1.7201 1.9862,2.1236l0.5869,0.7342l1.3669,-0.3067c1.0486,-0.2363 2.0624,-0.3048 4.3565,-0.2951c2.7959,0.0123 3.12,0.0478 4.9957,0.5521c2.8346,0.7619 4.9279,1.569 8.0738,3.1122c4.319,2.1185 7.4228,4.2784 8.1234,5.6511c0.7974,1.5632 0.7852,4.9202 -0.0245,6.5919c-0.279,0.5759 -0.8685,1.1771 -1.4703,1.4986c-0.0187,0.0103 0.1505,0.9382 0.3765,2.063c1.0156,5.0519 0.9201,7.0096 -0.6212,12.7492l-0.5353,1.9926l0.37,0.5191c0.6212,0.873 1.2288,2.3613 1.2572,3.0838c0.0206,0.5153 -0.0756,0.7949 -0.3894,1.1287c-0.4946,0.5263 -2.0081,1.2649 -3.6772,1.7944l-1.2036,0.3822l-0.4707,1.1448c-0.6192,1.5045 -1.9667,3.7554 -2.9088,4.8582c-2.0346,2.3813 -5.2224,2.8772 -10.9987,1.7098l-0.5553,-0.1123l0.0064,1.0034c0.0071,0.9879 0.0188,1.0131 0.7684,1.5638c1.2178,0.8963 3.4448,3.5701 4.1402,4.9719c0.6005,1.2106 0.6302,1.354 0.7348,3.5874c0.1014,2.178 0.1491,2.4253 0.7477,3.8593c0.8181,1.961 1.325,2.8992 2.0636,3.8199c0.7368,0.9176 0.7884,1.7131 0.1705,2.6222l-0.4229,0.6224l0.4946,0.1724c1.2029,0.4197 1.4689,1.2998 0.9362,3.0936c-0.3693,1.2436 -0.8768,1.7188 -1.837,1.7188c-0.7425,0 -0.7561,0.0103 -0.8594,0.656c-0.1504,0.9434 -1.0854,2.0656 -2.3006,2.761l-1.0447,0.5979l-0.0065,4.0149c-0.0039,2.2083 -0.0852,6.0902 -0.1814,8.6271c-0.1408,3.714 -0.1317,4.6386 0.0445,4.7458c0.1201,0.0736 1.0628,0.6115 2.094,1.1958c2.1134,1.1978 2.6661,1.8125 2.054,2.2864c-0.2867,0.2222 -0.7439,0.2493 -2.8508,0.1686c-2.4827,-0.095 -2.5091,-0.0924 -2.5627,0.2763c-0.0291,0.2054 -0.2454,0.4701 -0.4804,0.5882c-0.7142,0.3603 -8.3888,0.1163 -9.2631,-0.295zM249.3887,358.9693c1.0577,0 1.0654,-0.0039 0.7594,-0.3422c-0.1705,-0.1879 -0.3933,-0.3422 -0.4966,-0.3441c-0.1026,-0.002 -0.3667,-0.1931 -0.5869,-0.4249c-0.2202,-0.2318 -0.9692,-0.7768 -1.6652,-1.21l-1.2656,-0.7891l0.0982,-1.221c0.2098,-2.6234 0.4687,-3.9987 1.8828,-9.9908c0.8052,-3.4137 1.4308,-6.2399 1.3908,-6.28c-0.04,-0.04 -1.2191,0.0091 -2.6196,0.1098c-1.6381,0.1175 -3.0948,0.1272 -4.084,0.0265c-0.8458,-0.0859 -1.5541,-0.1447 -1.5742,-0.1304c-0.1407,0.0994 -0.5617,4.6024 -0.5617,6.0165c0,2.329 0.4481,7.6276 0.8071,9.5395c0.1582,0.8458 0.2912,2.1824 0.2957,2.9701c0.0071,1.285 0.0439,1.4457 0.3584,1.5626c0.1931,0.071 1.6652,0.2144 3.2717,0.3183c1.6065,0.104 3.4022,0.1892 3.9897,0.1892zM255.0534,357.9388c0.6941,-0.0052 0.7148,-0.0194 0.3906,-0.2693c-0.554,-0.4274 -2.615,-1.609 -3.4505,-1.979l-0.7736,-0.3422l0.1111,-1.7343c0.1879,-2.9367 0.4339,-10.3079 0.4371,-13.0676l0.0026,-2.6208l-0.7258,0.1181c-0.3996,0.0653 -0.7735,0.1679 -0.8316,0.2286c-0.0581,0.0607 -0.7006,2.9851 -1.4283,6.4976c-0.8859,4.2764 -1.3889,7.142 -1.5225,8.6729l-0.1995,2.2864l1.1635,0.6909c1.4244,0.8465 2.2916,1.1087 4.4346,1.3431c0.9124,0.0994 1.9887,0.1788 2.3923,0.1756zM252.9181,336.4896c0.4901,-0.2376 1.21,-0.7929 1.6,-1.2339l0.709,-0.802l-0.0885,-1.3669c-0.0484,-0.7516 -0.4513,-3.1349 -0.8956,-5.296c-0.8794,-4.2822 -0.9691,-5.4774 -0.6941,-9.2353c0.1763,-2.4143 0.0123,-3.1258 -1.1273,-4.8892c-0.6871,-1.0628 -0.6993,-1.0718 -0.9505,-0.6941c-0.4481,0.6754 -0.8594,0.5637 -6.2374,-1.6917l-2.9121,-1.221l-0.3435,0.4946c-0.1885,0.2718 -0.789,0.9233 -1.3353,1.447c-1.1325,1.0873 -1.1493,1.1364 -1.9467,5.7957c-0.3048,1.7808 -0.6702,3.2285 -1.1164,4.4191c-0.9292,2.4801 -0.9647,2.7558 -0.4352,3.3847c0.2389,0.2841 0.7638,0.638 1.1668,0.7871c2.3264,0.862 5.8112,1.6594 7.2517,1.6594c0.7045,0 0.7768,-0.0426 1.006,-0.592c0.3474,-0.8311 0.3086,-2.1315 -0.0904,-3.0329c-0.2421,-0.5488 -0.3855,-1.436 -0.5069,-3.14c-0.2434,-3.4337 -0.2886,-5.9494 -0.1084,-6.0482c0.2421,-0.1323 0.3829,0.5528 0.6992,3.417c0.3603,3.2601 0.6638,4.9435 1.0125,5.6176c0.3377,0.6521 0.3551,2.7248 0.0297,3.5035c-0.3086,0.7387 -0.9214,1.3004 -1.4179,1.3004c-0.4772,0 -0.4772,-0.0168 -0.0394,1.3663c0.193,0.6108 0.3654,1.5587 0.3822,2.1062c0.0284,0.9221 -0.009,1.0312 -0.5178,1.4864c-0.74,0.6625 -1.7014,0.9053 -3.6366,0.9188c-2.9023,0.0201 -3.63,-0.7038 -3.2685,-3.251c0.1079,-0.7632 0.3494,-1.8325 0.5366,-2.3762c0.1873,-0.543 0.3396,-1.0453 0.3396,-1.1157c0,-0.0988 -1.4056,-0.6728 -1.6471,-0.6728c-0.1634,0 -0.5708,1.1235 -1.3631,3.7585l-0.8994,2.9896l0.8407,0.7787c1.0938,1.0137 3.0618,2.1282 4.3435,2.4601c2.3523,0.6089 9.6021,-0.0329 11.6606,-1.0318zM244.5105,333.7202c0.8394,-0.2867 0.8549,-0.3048 0.9085,-1.0583c0.0355,-0.4965 -0.1065,-1.2636 -0.4029,-2.174c-0.4462,-1.3721 -0.4733,-1.4102 -1.0796,-1.5161c-1.2152,-0.2125 -2.8468,-0.5624 -3.1264,-0.6696c-0.3255,-0.1246 -0.361,-0.0387 -0.7368,1.7634c-0.275,1.3165 -0.3422,3.0631 -0.1304,3.3802c0.0691,0.1033 0.2938,0.2763 0.4991,0.3842c0.565,0.2976 3.0729,0.2298 4.0685,-0.1098zM256.0923,332.66h0.6444c0.6057,0 0.6612,-0.0459 0.9376,-0.769c0.1614,-0.423 0.3021,-1.0551 0.3131,-1.4051c0.0174,-0.5669 -0.0497,-0.6734 -0.6179,-0.9821l-0.638,-0.3454l-0.5223,0.5223l-0.5224,0.5224l0.2028,1.2281zM255.7572,330.1295c0.2647,0 1.5128,-1.7414 1.5128,-2.1114c0,-0.2053 -0.2195,-0.6405 -0.4881,-0.9673c-0.6838,-0.8322 -1.1293,-1.764 -1.5723,-3.2872c-0.2092,-0.7212 -0.4532,-1.2668 -0.5417,-1.2119c-0.206,0.1272 -0.0652,1.5031 0.5011,4.8872c0.2473,1.4799 0.512,2.6906 0.5882,2.6906zM250.6233,313.6728c0.4397,0.0878 0.4965,0.0516 0.4965,-0.3177c0,-0.5489 -0.8768,-1.4141 -1.1532,-1.1377c-0.2718,0.2718 -0.9769,-0.2092 -1.3424,-0.9163c-0.2666,-0.5159 -0.2718,-1.2494 -0.0213,-3.2749c0.0317,-0.2557 -0.1963,-0.4023 -1.1099,-0.7141c-1.6491,-0.5618 -3.2782,-1.3973 -4.6664,-2.393l-1.2081,-0.8659l0.8058,1.8054c0.944,2.1153 1.1022,2.8023 0.8549,3.6992c-0.1001,0.3622 -0.1207,0.7199 -0.0465,0.7948c0.0749,0.0743 1.6562,0.8297 3.5145,1.6782c1.8583,0.8484 3.6023,1.5871 3.8761,1.642zM258.7274,307.0247c1.2707,-0.6625 3.007,-3.129 4.1163,-5.848c0.308,-0.7542 0.6599,-1.4244 0.7819,-1.4896c0.122,-0.0659 0.8368,-0.3177 1.5884,-0.5605c1.7085,-0.5514 3.397,-1.447 3.4712,-1.8408c0.0665,-0.3545 -0.6599,-2.0023 -1.2784,-2.8998c-0.5179,-0.7503 -0.5411,-0.5534 0.5488,-4.66c0.7664,-2.8869 0.8162,-3.2052 0.8168,-5.2101c0.0006,-2.092 -0.3183,-4.2015 -0.995,-6.5776l-0.2434,-0.8543l-1.8435,-0.0852c-1.0137,-0.0472 -3.6494,-0.0827 -5.8577,-0.0801c-3.5629,0.0052 -4.1841,0.0484 -5.5187,0.3835c-3.5358,0.8879 -7.6431,3.5178 -11.5172,7.3732c-1.6162,1.6084 -1.9242,2.1508 -1.9261,3.3905c-0.002,0.882 -0.4255,1.7169 -0.9369,1.8454c-0.4514,0.1137 -1.7344,-0.2751 -2.391,-0.7238c-0.1853,-0.1266 -0.3829,-0.2299 -0.4384,-0.2299c-0.0562,0 -0.2009,0.5004 -0.3229,1.1119c-0.2066,1.0402 -0.419,1.4425 -0.6431,1.2184c-0.0523,-0.0523 0.0297,-0.7148 0.1827,-1.4728c0.1524,-0.7574 0.277,-1.8964 0.277,-2.5305c0,-1.0202 -0.0568,-1.2229 -0.4939,-1.7537c-0.5947,-0.7206 -1.9177,-1.4721 -2.8566,-1.6226c-0.5811,-0.093 -0.7645,-0.0413 -1.2235,0.3448c-0.8724,0.7348 -1.6472,2.5053 -1.7189,3.9303c-0.0607,1.1926 -0.0536,1.2139 0.6935,2.2277c0.8898,1.2074 2.5769,2.7138 3.446,3.0767c0.5476,0.2292 0.7374,0.5004 1.7092,2.4388c2.3736,4.7374 4.2493,6.832 8.0686,9.0125c1.5373,0.8775 4.6425,1.9403 7.18,2.4575c2.9121,0.5928 5.7512,0.4488 7.3248,-0.3719zM257.558,301.1289c-0.9085,-0.4701 -2.0623,-1.7098 -1.9997,-2.1495c0.0956,-0.6754 0.5695,-0.5527 1.4464,0.3752c1.0738,1.1364 1.529,1.3585 2.7874,1.3585c0.7987,0 1.0331,0.0575 1.0331,0.2531c0,0.1388 -0.173,0.2899 -0.3842,0.3345c-0.2111,0.0452 -0.5378,0.1181 -0.7257,0.162c-0.5211,0.1208 -1.6007,-0.0458 -2.1573,-0.3338zM254.5046,293.4523c0,-0.1731 0.173,-0.2564 0.5346,-0.2564c0.2944,0 0.7748,-0.1439 1.068,-0.3196c0.6385,-0.3829 2.2173,-0.634 2.1178,-0.3364c-0.0355,0.1079 -0.4326,0.2886 -0.8813,0.4029c-0.4494,0.1143 -0.9421,0.3332 -1.0958,0.4862c-0.3713,0.372 -1.7433,0.39 -1.7433,0.0233zM253.7659,292.4437c-0.1298,-0.3377 0.0413,-0.4533 0.4985,-0.339c0.2163,0.0543 0.6644,0.0091 0.9969,-0.1007c0.6838,-0.2253 1.2933,-0.1014 1.2933,0.2641c0,0.2789 -0.2705,0.328 -0.4255,0.0768c-0.0652,-0.1059 -0.3067,-0.0794 -0.6508,0.071c-0.7239,0.3171 -1.5962,0.3313 -1.7124,0.0278zM258.0914,288.609c-0.9395,-0.9395 -0.8162,-2.5738 0.286,-3.7935c0.5275,-0.5837 0.7058,-0.6741 1.3366,-0.6741c0.8536,0 1.1074,0.2389 1.2849,1.2107c0.2318,1.2688 -0.4565,2.9876 -1.4089,3.5164c-0.6005,0.3332 -0.9698,0.2693 -1.4986,-0.2595zM236.6363,298.7495l1.5219,0.8246l-0.696,-0.9253c-0.7729,-1.0279 -1.9933,-3.0496 -2.7733,-4.5941c-0.4074,-0.8084 -0.7755,-1.2132 -1.8363,-2.0229c-1.6168,-1.234 -3.0503,-2.7274 -3.3841,-3.5268c-0.7348,-1.7589 0.4294,-5.427 2.0449,-6.4434c1.0047,-0.6321 2.6422,-0.204 4.0872,1.068c0.9976,0.8782 1.3076,1.5755 1.3076,2.9469v1.1152l0.8968,0.4313c1.8751,0.9033 2.0998,0.8032 2.331,-1.037c0.082,-0.6541 0.2763,-1.4354 0.4319,-1.7356c0.7109,-1.3753 5.5672,-5.7079 8.312,-7.4164c4.2474,-2.6435 6.3297,-2.9515 16.3057,-2.4117c1.8783,0.102 2.114,0.0807 2.7597,-0.2486c1.3288,-0.678 1.764,-1.7324 1.764,-4.2764c0,-2.577 -0.5734,-3.5087 -3.2459,-5.2759c-4.033,-2.6674 -8.5728,-4.731 -12.9842,-5.9023c-1.8131,-0.4811 -2.1883,-0.5224 -4.8685,-0.5301c-2.4963,-0.0071 -3.1329,0.0484 -4.5276,0.3945c-7.2673,1.8021 -14.2453,6.1308 -17.3743,10.7785c-0.8801,1.3069 -1.4334,2.5505 -1.8931,4.2558c-0.3997,1.4805 -0.4423,1.9416 -0.4456,4.7988c-0.0039,4.2467 0.5695,7.2407 2.0462,10.6784c1.1429,2.6609 3.3279,4.8937 7.0529,7.2072c0.9046,0.5618 2.3297,1.3934 3.1671,1.8473zM222.8566,277.3888l0.5553,0.1168v-0.7038c0,-1.0557 0.4778,-3.1703 1.0564,-4.6715c1.9319,-5.0177 8.4747,-10.253 16.0654,-12.8545l1.8312,-0.6276l-0.8794,-1.0111c-0.4843,-0.5566 -1.385,-1.4225 -2.003,-1.9248c-2.183,-1.7751 -3.3976,-2.1457 -7.4435,-2.2709c-2.2838,-0.0704 -3.2265,-0.0291 -4.412,0.1937c-2.945,0.554 -5.6814,1.8124 -8.2965,3.8154c-2.5253,1.9344 -4.2964,4.7116 -4.6451,7.2834c-0.4262,3.1464 0.9285,8.1047 2.7558,10.0863c0.7516,0.8162 2.0242,1.5174 3.8348,2.114c0.5637,0.186 1.2752,0.3906 1.5806,0.4546z" fill="#a2a3a0"/><path d="M242.4798,359.4723c-1.4902,-0.2221 -1.6697,-0.4552 -1.6329,-2.1191c0.0161,-0.7555 -0.0885,-1.9119 -0.2338,-2.5699c-0.8071,-3.6611 -1.1131,-11.4048 -0.5746,-14.521c0.1627,-0.9394 0.3306,-1.824 0.3725,-1.9648c0.0536,-0.1769 -0.2272,-0.3984 -0.9084,-0.7154c-1.3631,-0.6354 -3.5701,-2.2813 -3.891,-2.9011c-0.1847,-0.3571 -0.2318,-0.7316 -0.155,-1.2249c0.1486,-0.955 1.4148,-5.1842 1.7402,-5.8132c0.2395,-0.4636 0.235,-0.5152 -0.0575,-0.6773c-0.5566,-0.308 -1.2081,-1.1119 -1.3082,-1.6129c-0.1272,-0.6354 0.0775,-1.5045 0.7943,-3.3776c0.3938,-1.028 0.7948,-2.679 1.2229,-5.0326c0.3506,-1.9261 0.7419,-3.7572 0.8697,-4.0697c0.1279,-0.3119 0.7226,-1.0422 1.3218,-1.6227c1.8931,-1.8357 2.5601,-3.5313 1.9745,-5.0164c-0.1046,-0.2647 -0.4901,-1.3249 -0.8575,-2.3567c-0.9162,-2.575 -1.2675,-2.9102 -4.9996,-4.7665c-5.593,-2.7823 -8.7639,-5.3244 -10.2064,-8.1822c-1.3159,-2.6067 -2.3277,-6.7049 -2.5124,-10.1774l-0.1124,-2.1088l-1.9848,-0.6509c-2.1883,-0.718 -2.7868,-0.9905 -3.8709,-1.7647c-2.5796,-1.8396 -4.4747,-8.578 -3.5346,-12.5664c0.8265,-3.5042 3.9575,-6.9173 8.3727,-9.1282c3.0929,-1.5477 4.7149,-1.9035 8.7059,-1.9073c3.3854,-0.0033 5.1068,0.2595 6.6622,1.0176c1.15,0.5598 3.0387,2.2179 4.1861,3.6752c1.0647,1.3528 0.7464,1.2856 3.6726,0.7775c4.569,-0.7942 9.8004,0.359 16.3076,3.5952c3.0929,1.538 6.6429,3.7915 7.4862,4.7516c0.7432,0.8465 1.0634,2.0611 1.0634,4.033c0,2.2089 -0.3267,3.2756 -1.3023,4.2512l-0.7516,0.7516l0.4694,2.2393c0.4081,1.9467 0.4688,2.6189 0.4636,5.1436l-0.0058,2.9043l-0.8194,3.1303l-0.8194,3.1303l0.7852,1.5355c1.4657,2.8688 0.9911,3.643 -3.0754,5.0157l-1.3825,0.4662l-0.6418,1.425c-1.6148,3.5862 -3.4325,5.7034 -5.5109,6.4214c-1.0151,0.3506 -1.4535,0.3984 -3.4681,0.3778c-1.5599,-0.0162 -2.79,-0.1298 -3.8011,-0.3513l-1.4948,-0.328v0.9524v0.9517l1.8441,1.8764c3.107,3.1613 3.6572,4.2474 3.7224,7.3435c0.042,2.0249 0.0529,2.0759 0.9014,4.1614c0.472,1.1616 1.0738,2.4104 1.3378,2.7746c0.2641,0.3648 0.6528,0.9059 0.8646,1.2023c0.4985,0.6999 0.4862,1.3165 -0.0426,2.0959c-0.235,0.3461 -0.4274,0.6631 -0.4274,0.7044c0,0.042 0.2634,0.186 0.585,0.3203c0.3215,0.1343 0.718,0.4481 0.882,0.698c0.2576,0.3939 0.2725,0.5869 0.1104,1.458c-0.3551,1.9106 -0.8995,2.5582 -2.1482,2.5582c-0.5127,0 -0.5695,0.0574 -0.7613,0.7735c-0.2557,0.9563 -1.3482,2.1825 -2.4343,2.7332l-0.7903,0.4004l-0.1123,6.1185c-0.0614,3.3654 -0.1595,7.3106 -0.217,8.7672l-0.1052,2.648l1.7795,0.9046c2.5589,1.3005 3.2749,2.1063 2.3245,2.6151c-0.3642,0.195 -3.9516,0.1033 -4.8563,-0.1233c-0.3092,-0.0775 -0.3525,-0.0297 -0.2866,0.3163c0.0826,0.432 -0.1563,0.7206 -0.7181,0.8659c-0.4946,0.1279 -6.8243,-0.0549 -8.0098,-0.2318zM249.2086,358.9629l1.281,-0.0046l-0.5126,-0.4293c-0.2816,-0.2364 -0.6851,-0.5741 -0.8963,-0.7503c-0.2111,-0.1763 -0.9646,-0.6883 -1.6749,-1.1384c-1.2681,-0.8032 -1.2888,-0.8278 -1.2029,-1.4224c0.0478,-0.3332 0.1356,-1.2585 0.195,-2.0572c0.1001,-1.3392 0.9989,-5.5239 2.6079,-12.1345l0.6451,-2.6525l-4.2357,0.0045c-2.3291,0.0026 -4.2358,0.0045 -4.2371,0.0045c-0.0013,0 -0.1149,0.8459 -0.2537,1.8796c-0.1382,1.0338 -0.2525,2.9031 -0.2544,4.1551c-0.0046,2.7823 0.4242,7.9149 0.8432,10.1063c0.1808,0.9479 0.2796,2.0604 0.2383,2.6822c-0.0613,0.9085 -0.0252,1.0867 0.2505,1.234c0.1769,0.0949 1.5826,0.2524 3.1232,0.3499c1.5413,0.0975 3.3783,0.1756 4.0834,0.1731zM254.8416,357.9388c0.8859,-0.0052 0.9233,-0.022 0.6024,-0.2705c-0.277,-0.2144 -2.7467,-1.6776 -3.8438,-2.2774c-0.1963,-0.1072 -0.2466,-0.4139 -0.2137,-1.3133c0.0239,-0.6457 0.1201,-3.1723 0.2137,-5.615c0.0937,-2.4433 0.1705,-5.8151 0.1705,-7.4939v-3.0515l-0.811,0.1207c-0.4468,0.0665 -0.82,0.1324 -0.8304,0.1473c-0.0103,0.0148 -0.6076,2.8733 -1.3275,6.3529c-1.2404,5.9966 -1.5516,7.8975 -1.6756,10.231l-0.0536,1.0105l1.1959,0.7064c1.3656,0.8065 2.1398,1.0447 4.1815,1.2869c0.7961,0.0936 1.8725,0.1691 2.3916,0.1659zM243.9126,337.7306c2.5615,0.0303 5.1623,-0.195 7.2686,-0.6296c1.8641,-0.3848 3.3524,-1.3436 3.8573,-2.4859c0.3939,-0.8897 0.3352,-1.4089 -0.811,-7.1659l-0.7819,-3.9296l0.1162,-3.6727c0.1098,-3.4764 0.0969,-3.7237 -0.2434,-4.6129c-0.1976,-0.5165 -0.6618,-1.3566 -1.0312,-1.8666l-0.6728,-0.9273l-0.1737,0.4572c-0.111,0.2925 -0.3015,0.4578 -0.5268,0.4578c-0.4578,0 -2.845,-0.9014 -6.0457,-2.2825l-2.5459,-1.099l-0.6321,0.842c-0.3481,0.4623 -0.9453,1.1093 -1.3282,1.4366c-0.853,0.7303 -0.9227,0.9395 -1.5839,4.7756c-0.3209,1.8602 -0.7658,3.7502 -1.1261,4.7839c-1.1248,3.2291 -1.1416,3.6043 -0.184,4.1931c1.4089,0.8665 6.34,2.1043 8.0033,2.0094c0.8065,-0.0465 0.9421,-0.1085 1.1403,-0.523c0.3455,-0.7245 0.2938,-2.3122 -0.1052,-3.2026c-0.3306,-0.7387 -0.6186,-3.6792 -0.7594,-7.7567c-0.049,-1.4096 0.2938,-1.7841 0.4533,-0.4946c0.0555,0.4507 0.2635,2.165 0.4623,3.8096c0.2131,1.7608 0.5062,3.3756 0.7129,3.929c0.4365,1.1674 0.5559,2.6202 0.2951,3.5881c-0.2377,0.8833 -1.006,1.7079 -1.591,1.7079h-0.4217l0.4088,1.3243c0.4313,1.3979 0.5262,2.7493 0.2318,3.2995c-0.6012,1.1222 -4.7452,1.6839 -6.2975,0.8529c-1.0247,-0.5482 -1.1654,-2.0791 -0.4371,-4.7529c0.2434,-0.8924 0.3797,-1.6795 0.3028,-1.7479c-0.1756,-0.1569 -1.2287,-0.5133 -1.518,-0.5133c-0.2641,0 -0.543,0.7386 -1.4547,3.8438c-0.3862,1.3159 -0.7413,2.5233 -0.7891,2.6841c-0.1582,0.5288 1.8196,2.0552 4.0052,3.0903c1.1313,0.5359 1.2075,0.5475 3.8025,0.5779zM245.1691,333.4606c0.2686,-0.1762 0.4514,-0.4532 0.4514,-0.6838c0,-0.5494 -0.4662,-2.2696 -0.8504,-3.1387c-0.2725,-0.6153 -0.4048,-0.7367 -0.8052,-0.738c-0.2641,-0.0006 -1.1274,-0.1562 -1.919,-0.3461c-0.7909,-0.1898 -1.4922,-0.2854 -1.5567,-0.2124c-0.155,0.1743 -0.4423,1.385 -0.6728,2.8359c-0.2306,1.4502 -0.0917,2.2709 0.4435,2.6221c0.8711,0.5702 3.8329,0.3655 4.9092,-0.339zM256.7457,332.66c0.6231,0 0.7032,-0.0543 0.9557,-0.6412c0.1517,-0.3519 0.2821,-0.9815 0.2905,-1.3986c0.0129,-0.6799 -0.0458,-0.8 -0.5714,-1.157l-0.5856,-0.3984l-0.5799,0.5591c-0.5585,0.5379 -0.5759,0.5934 -0.472,1.498c0.0594,0.5172 0.1472,1.0745 0.195,1.2391c0.0639,0.2202 0.266,0.299 0.7677,0.299zM255.1599,327.6823l0.2893,1.4296l0.7044,-0.7639c1.2785,-1.3875 1.283,-1.4838 0.1331,-2.996c-0.3468,-0.4565 -0.8026,-1.4838 -1.212,-2.7338l-0.656,-2.003l-0.0556,0.8543c-0.0303,0.4701 0.0711,1.7388 0.2254,2.8191c0.155,1.0802 0.4119,2.6079 0.5714,3.3937zM250.9558,312.2574c0.1014,-0.5282 -0.738,-1.4089 -1.2617,-1.3237c-0.4364,0.0711 -0.9769,-0.4055 -1.2849,-1.1338c-0.1943,-0.4597 -0.204,-0.8239 -0.051,-1.9403c0.1033,-0.7555 0.164,-1.3915 0.135,-1.4121c-0.0297,-0.0213 -0.6683,-0.2506 -1.4206,-0.5095c-1.6439,-0.5669 -3.1948,-1.3843 -4.7148,-2.4859l-1.1274,-0.8168l0.9259,1.9855c0.9143,1.9623 0.9247,2.0017 0.8459,3.2892l-0.0794,1.303l1.3914,0.6379c0.7658,0.3513 2.3917,1.0809 3.6127,1.622c2.965,1.3127 2.9301,1.3036 3.0289,0.7845zM256.6321,306.5217c1.3947,-0.2518 2.6344,-0.9969 3.5487,-2.1314c0.842,-1.0454 2.1418,-3.4028 2.7707,-5.0254c0.3454,-0.8898 0.3874,-0.9285 1.2597,-1.1519c1.2017,-0.3074 3.3299,-1.2017 3.869,-1.6259c0.2383,-0.1872 0.4313,-0.5081 0.4294,-0.7128c-0.0052,-0.4656 -0.5404,-1.6601 -1.2204,-2.721l-0.5204,-0.8116l0.6212,-2.1973c0.8478,-3.0031 1.2939,-5.418 1.2939,-7.0038c0,-1.3799 -0.4558,-4.2448 -0.9821,-6.1741l-0.3034,-1.1106l-3.5856,-0.215c-8.1344,-0.4888 -11.2201,0.1685 -16.0357,3.4138c-2.4846,1.6749 -6.3698,5.1868 -6.8198,6.165c-0.1375,0.2996 -0.3035,1.0447 -0.3687,1.6556c-0.0665,0.6198 -0.2383,1.2423 -0.3887,1.4089c-0.3829,0.4248 -1.3308,0.3738 -2.4123,-0.1298c-0.5024,-0.2338 -0.9408,-0.4255 -0.9737,-0.4255c-0.0329,0 -0.1479,0.4507 -0.2563,1.0008c-0.2099,1.0673 -0.4159,1.5361 -0.5967,1.3553c-0.0607,-0.0607 0.0058,-0.6354 0.1492,-1.2759c0.4145,-1.8583 0.5114,-3.0438 0.3009,-3.6817c-0.3952,-1.1965 -2.2916,-2.5118 -3.6327,-2.5195c-1.1203,-0.0071 -2.2786,1.602 -2.7409,3.8057c-0.3061,1.4599 0.069,2.2399 2.0055,4.1666c1.0602,1.0558 1.7653,1.6188 2.1514,1.7189c0.5288,0.1369 0.6683,0.3364 1.7724,2.5304c1.5762,3.1336 2.5376,4.5464 4.1125,6.0424c1.3992,1.3289 3.61,2.8559 5.0654,3.499c1.3243,0.5857 4.0976,1.4477 5.8577,1.8209c1.8325,0.3887 4.4546,0.543 5.6298,0.3299zM257.837,301.2258c-0.6412,-0.2435 -2.3077,-1.8693 -2.3077,-2.2516c0,-0.6941 0.5475,-0.5611 1.3514,0.328c1.099,1.2159 1.5322,1.4445 2.7532,1.4561c1.1126,0.0103 1.4554,0.2021 0.8181,0.4578c-0.534,0.2143 -2.0623,0.2202 -2.615,0.0097zM255.1967,293.6744c-0.7483,-0.0633 -0.7315,-0.3603 0.0278,-0.4856c0.3086,-0.051 0.8471,-0.224 1.1965,-0.3848c0.3493,-0.1601 0.9259,-0.2834 1.281,-0.2738l0.6464,0.0181l-0.8543,0.2602c-0.4701,0.1427 -1.0421,0.4081 -1.272,0.5883c-0.2764,0.2169 -0.6237,0.3112 -1.0254,0.2776zM253.8627,292.3843c-0.0471,-0.1427 0.1234,-0.2131 0.5166,-0.2131c0.3228,0 0.8303,-0.0852 1.128,-0.1892c0.4107,-0.1427 0.6031,-0.1375 0.7942,0.0214c0.3661,0.3034 0.3125,0.5533 -0.0736,0.3467c-0.237,-0.1266 -0.4843,-0.1059 -0.8969,0.0762c-0.6566,0.2892 -1.3662,0.2692 -1.4683,-0.042zM258.5556,288.9105c-0.224,-0.102 -0.5469,-0.4223 -0.718,-0.7122c-0.8652,-1.4638 0.3293,-4.0569 1.868,-4.0569c0.986,0 1.2055,0.3209 1.2055,1.7653c0,1.1507 -0.0529,1.3553 -0.5198,2.0198c-0.286,0.4067 -0.7083,0.8348 -0.9395,0.9517c-0.5094,0.2576 -0.4093,0.2544 -0.8962,0.0323zM238.0414,299.5173c0.0264,0 -0.4043,-0.6728 -0.9583,-1.4948c-0.554,-0.8226 -1.4153,-2.2606 -1.9151,-3.1968c-0.8555,-1.6026 -1.0098,-1.7847 -2.6628,-3.1329c-1.9268,-1.5716 -2.8378,-2.6325 -3.1471,-3.6637c-0.4249,-1.4199 0.4888,-4.288 1.7634,-5.5323c0.5934,-0.5792 0.778,-0.6612 1.4812,-0.6605c1.0002,0.0019 2.1631,0.5527 3.1142,1.4754c0.8968,0.8704 1.1913,1.5794 1.1913,2.872v1.028l1.0202,0.5152c1.1557,0.5831 1.8014,0.6522 2.0248,0.2157c0.0846,-0.1647 0.2028,-0.7923 0.2628,-1.3947c0.1511,-1.5116 0.5967,-2.1863 2.9186,-4.4185c3.579,-3.4409 7.3053,-5.8964 10.136,-6.6796c2.6674,-0.7374 5.551,-0.8233 11.4946,-0.3403c2.1947,0.1782 2.3529,0.1698 2.9902,-0.1582c1.5155,-0.7787 1.9662,-1.7576 1.97,-4.2803c0.0046,-2.9056 -0.4371,-3.6527 -3.262,-5.5213c-4.3177,-2.8559 -9.6847,-5.192 -14.1193,-6.1457c-2.3374,-0.503 -5.3244,-0.4959 -7.7328,0.0181c-5.8293,1.2442 -11.7032,4.3519 -15.6626,8.2881c-3.7205,3.6978 -4.8084,6.6487 -4.6322,12.5606c0.1253,4.1905 0.8575,7.3803 2.4556,10.6972c1.2262,2.544 4.6251,5.4231 9.4394,7.9969c0.9801,0.5236 1.8034,0.9524 1.8299,0.9524zM223.4946,276.335c0.5049,-4.7155 2.9895,-8.6258 7.6908,-12.1022c2.615,-1.9338 6.2542,-3.8406 9.3102,-4.8776c0.8924,-0.3028 1.6963,-0.6159 1.7854,-0.6954c0.0968,-0.0858 -0.5676,-0.862 -1.6407,-1.9151c-2.0307,-1.9939 -3.1697,-2.6673 -5.2372,-3.0954c-4.2029,-0.8698 -8.8383,-0.3048 -12.5265,1.5277c-5.3004,2.6338 -8.3048,6.5357 -8.3391,10.8289c-0.0206,2.6396 1.1933,6.7339 2.5118,8.4714c0.7541,0.9938 2.3186,1.9081 4.3958,2.568c1.9481,0.6192 1.9055,0.634 2.0495,-0.7103z" fill="#5d5e5d"/><path d="M250.2055,359.6667c-0.4074,0.0697 -1.0486,0.0975 -1.4244,0.062c-0.3758,-0.0356 -2.0287,-0.115 -3.6727,-0.177c-4.1498,-0.1556 -4.4281,-0.3099 -4.2234,-2.3432c0.0542,-0.5346 -0.0336,-1.498 -0.2202,-2.4252c-0.452,-2.2399 -0.8962,-7.3112 -0.8911,-10.1645c0.0033,-1.7072 0.1137,-3.1148 0.3565,-4.5276c0.1937,-1.1273 0.2976,-2.0694 0.2311,-2.0927c-0.6612,-0.2318 -3.1219,-1.8027 -3.8709,-2.4697c-0.904,-0.8058 -0.9492,-0.8853 -0.9492,-1.6711c0,-0.9543 1.0176,-4.6431 1.6265,-5.8958c0.2958,-0.6089 0.3545,-0.8742 0.206,-0.9233c-0.1156,-0.0381 -0.4978,-0.3558 -0.8504,-0.7058c-0.5572,-0.5546 -0.6405,-0.7406 -0.6405,-1.4328c0,-0.4984 0.2208,-1.3662 0.5915,-2.3264c0.767,-1.9861 0.8355,-2.258 1.4592,-5.8015c0.7116,-4.0414 0.7284,-4.0879 1.9203,-5.2224c1.2242,-1.1661 2.2812,-2.7474 2.4323,-3.6397c0.0775,-0.4624 0.0039,-0.9486 -0.2531,-1.6614c-0.1995,-0.5546 -0.6269,-1.7744 -0.9498,-2.7106c-0.4894,-1.4186 -0.7219,-1.8389 -1.3928,-2.5201c-0.4423,-0.4494 -0.9149,-0.8175 -1.0486,-0.8175c-0.1343,0 -1.3172,-0.5366 -2.6279,-1.1919c-5.1701,-2.5854 -8.6413,-5.4058 -9.9934,-8.119c-1.5096,-3.0296 -2.5976,-7.6308 -2.6054,-11.0245l-0.0032,-1.2875l-1.6659,-0.4978c-3.426,-1.0241 -5.1042,-2.196 -6.1618,-4.3023c-1.2249,-2.4407 -1.8105,-4.9202 -1.8079,-7.6592c0.0013,-1.6852 0.0703,-2.2476 0.388,-3.1606c1.6485,-4.7355 6.9096,-8.7963 13.0914,-10.1051c1.5865,-0.3364 6.1896,-0.2925 7.944,0.0755c2.2069,0.463 3.3989,1.1229 5.1209,2.8359c0.8136,0.8084 1.7428,1.7918 2.0656,2.1837l0.5863,0.7135l1.538,-0.3254c0.8452,-0.1795 2.229,-0.3758 3.0748,-0.4358c4.6374,-0.33 12.0028,2.1127 18.2796,6.0636c2.5685,1.6169 3.4253,2.3588 3.9684,3.4358c0.4403,0.8736 0.4733,1.0834 0.4681,2.9895c-0.0032,1.1274 -0.1014,2.3736 -0.2182,2.7687c-0.2041,0.6909 -1.0015,1.7027 -1.5994,2.0295c-0.266,0.1452 -0.2635,0.2518 0.0413,1.5231c0.5669,2.3684 0.8872,5.1656 0.7923,6.9186c-0.0891,1.644 -0.6425,4.4262 -1.3967,7.0213l-0.4139,1.4218l0.5896,0.9705c1.1118,1.8299 1.3598,3.0567 0.7509,3.7101c-0.4565,0.4901 -1.795,1.1629 -3.4945,1.7556l-1.3669,0.4772l-1.1493,2.2735c-1.8493,3.6591 -3.0587,4.9402 -5.3322,5.6485c-1.8738,0.5844 -4.9589,0.4668 -7.9969,-0.3035l-0.47,-0.1194v1.0221v1.0221l1.7524,1.7725c1.8686,1.8899 2.8707,3.2523 3.4286,4.6599c0.2706,0.6838 0.3487,1.2946 0.3616,2.8359c0.0168,1.9577 0.02,1.9726 0.9156,4.1951c0.5992,1.4876 1.1306,2.511 1.5968,3.0747c1.1422,1.3825 1.2223,2.0017 0.3964,3.0864l-0.4055,0.5334l0.6761,0.3048c0.3719,0.1672 0.7625,0.4087 0.8678,0.5352c0.4668,0.5624 -0.0284,3.1181 -0.7264,3.7502c-0.2254,0.204 -0.6141,0.3164 -1.1029,0.319c-0.5546,0.0026 -0.7554,0.0723 -0.7573,0.2602c-0.0013,0.1408 -0.1834,0.6463 -0.4055,1.1222c-0.4333,0.9304 -1.3043,1.7556 -2.4285,2.3019l-0.6999,0.3396l-0.1104,8.2403c-0.0614,4.5322 -0.1563,8.4399 -0.2118,8.6833c-0.0956,0.4158 0.0168,0.5082 1.835,1.5109c2.1973,1.2113 2.741,1.6459 2.67,2.134c-0.0891,0.6109 -1.0925,0.6825 -4.6374,0.33c-0.9188,-0.0911 -0.9918,-0.0736 -0.9007,0.2189c0.1556,0.4991 -0.1434,0.7929 -0.9466,0.9298zM248.4396,359.0526c1.9493,0.1221 2.4323,-0.0271 1.7175,-0.532c-0.2499,-0.1763 -0.76,-0.5657 -1.1338,-0.8659c-0.3732,-0.3003 -1.1377,-0.8252 -1.6988,-1.1655c-1.1513,-0.6999 -1.09,-0.4662 -0.8575,-3.2433c0.1511,-1.8112 0.5004,-3.4583 2.4194,-11.4197c0.472,-1.959 0.8316,-3.5887 0.7981,-3.6223c-0.0336,-0.033 -0.8653,0.0213 -1.8487,0.1214c-0.9833,0.1001 -2.8817,0.1459 -4.2189,0.102c-2.1276,-0.0697 -2.4407,-0.0459 -2.5085,0.1943c-0.7438,2.6261 -0.5618,11.2996 0.3319,15.8318c0.1465,0.7451 0.2641,1.9467 0.2608,2.6699c-0.0038,0.7232 0.0698,1.3624 0.1627,1.4199c0.093,0.0574 1.2262,0.1711 2.5182,0.2531c1.2921,0.082 3.1181,0.1976 4.0576,0.2563zM255.8715,357.9672c0,-0.2066 -2.3174,-1.6614 -3.5978,-2.2573l-0.8878,-0.4139l0.1136,-2.648c0.1614,-3.7553 0.4436,-14.7476 0.381,-14.8109c-0.0711,-0.0704 -1.6407,0.2267 -1.7447,0.33c-0.1091,0.1091 -2.5473,11.851 -2.7765,13.3703c-0.0988,0.658 -0.2214,1.8919 -0.2718,2.7423l-0.0917,1.5464l1.1493,0.6722c1.3734,0.8032 2.0966,1.0428 3.7967,1.2604c2.4665,0.315 3.9297,0.3925 3.9297,0.2085zM249.9989,337.3632c2.6932,-0.4158 4.4165,-1.3256 5.1326,-2.7093c0.3603,-0.6961 0.2376,-1.7918 -0.7361,-6.6068c-0.9304,-4.5979 -1.0337,-5.8073 -0.749,-8.7646c0.1918,-1.9913 0.1847,-2.3806 -0.0594,-3.333c-0.3002,-1.1681 -0.8232,-2.1657 -1.631,-3.1071c-0.4526,-0.5275 -0.5133,-0.5553 -0.5198,-0.2344c-0.0038,0.2002 -0.1194,0.4572 -0.257,0.5708c-0.328,0.2725 -1.077,0.0239 -5.4716,-1.8183l-3.4157,-1.4315l-0.3286,0.4746c-0.1808,0.2609 -0.7768,0.9111 -1.325,1.4451c-0.5482,0.534 -1.0712,1.1674 -1.1629,1.4089c-0.0917,0.2408 -0.4397,1.9855 -0.7729,3.8767c-0.4461,2.5285 -0.7864,3.9161 -1.2862,5.2417c-0.8381,2.2244 -0.8723,2.916 -0.1724,3.5042c0.8788,0.74 5.0926,1.9623 7.7909,2.2606c1.2004,0.1323 1.4858,-0.0413 1.7744,-1.0816c0.2641,-0.9517 0.217,-1.6277 -0.1782,-2.5427c-0.4003,-0.9279 -0.5908,-2.5789 -0.7639,-6.6345c-0.0768,-1.8034 -0.0587,-2.6751 0.0523,-2.5621c0.093,0.0936 0.3732,1.8622 0.6218,3.9291c0.3345,2.7751 0.5734,4.1001 0.9143,5.0641c0.4294,1.2146 0.4488,1.3837 0.2725,2.411c-0.2402,1.4044 -0.5992,1.9507 -1.4496,2.2051c-0.5023,0.1504 -0.6457,0.2692 -0.5682,0.4713c0.3022,0.7858 0.7645,2.7255 0.7645,3.2052c0,0.7103 -0.2705,1.2946 -0.7341,1.5839c-1.4496,0.9053 -5.0145,0.9208 -6.1186,0.0265c-0.6076,-0.492 -0.6347,-2.0682 -0.0704,-4.1189c0.2454,-0.8923 0.4623,-1.7291 0.4817,-1.8589c0.022,-0.1447 -0.3119,-0.3552 -0.8626,-0.545l-0.8975,-0.3093l-0.2654,0.5127c-0.1453,0.2822 -0.5327,1.4115 -0.8607,2.5098c-0.3274,1.0983 -0.7167,2.3975 -0.8653,2.8869c-0.1485,0.4888 -0.2285,0.9976 -0.1782,1.13c0.2383,0.6198 2.9353,2.4303 4.4669,2.9985c1.6052,0.5954 5.3412,0.5721 9.4284,-0.0587zM245.1136,333.5969c0.4313,-0.2234 0.5069,-0.3623 0.5069,-0.9324c0,-0.6296 -0.6993,-3.1297 -0.9815,-3.5087c-0.1369,-0.184 -4.1104,-1.0279 -4.2376,-0.9001c-0.0414,0.0413 -0.228,0.7994 -0.4152,1.6846c-0.5689,2.6951 -0.4352,3.7315 0.523,4.0653c1.0802,0.3771 3.5009,0.1621 4.6044,-0.4087zM257.4818,332.5625c0.1479,-0.1479 0.2686,-0.2977 0.2686,-0.3339c0,-0.0355 0.1137,-0.4997 0.2519,-1.0318c0.295,-1.1332 0.1969,-1.4089 -0.6677,-1.8744l-0.6108,-0.3287l-0.5785,0.5947l-0.5786,0.5941l0.1827,1.1958c0.1008,0.6579 0.2654,1.2526 0.3662,1.3217c0.3183,0.2182 1.0879,0.1408 1.3662,-0.1375zM256.3454,328.1569c0.4907,-0.5191 0.8924,-1.0893 0.8924,-1.2675c0,-0.1782 -0.3268,-0.7774 -0.7258,-1.3307c-0.5146,-0.7129 -0.9343,-1.6304 -1.4392,-3.1459l-0.7129,-2.1385l-0.0129,1.4838c-0.0077,0.8678 0.1659,2.5363 0.4178,4.0149c0.6282,3.6837 0.5146,3.5113 1.5806,2.3839zM251.0165,312.249c0.0924,-0.3687 0.0078,-0.5663 -0.4416,-1.0299c-0.4765,-0.4913 -0.6025,-0.5443 -0.8859,-0.3719c-0.2841,0.1737 -0.4029,0.1201 -0.8568,-0.3835l-0.5263,-0.585l0.1066,-1.7427l0.1065,-1.7434l-1.3211,-0.4649c-1.7233,-0.6076 -3.4583,-1.5187 -4.7568,-2.4982c-0.5747,-0.4339 -1.1274,-0.8394 -1.2288,-0.902c-0.1013,-0.0627 0.2506,0.791 0.7813,1.897c0.8356,1.7408 0.9666,2.1495 0.9724,3.0367c0.0039,0.5637 -0.0516,1.1849 -0.1239,1.3805c-0.1137,0.3099 -0.0046,0.4113 0.8542,0.7942c0.5418,0.2415 2.1766,0.9789 3.634,1.6381c3.3731,1.5271 3.5364,1.5703 3.6862,0.975zM258.5834,305.9348c0.645,-0.3338 2.0229,-1.8732 2.7171,-3.0354c0.308,-0.5159 0.9007,-1.6943 1.3172,-2.6189l0.7567,-1.6801l1.7912,-0.6309c0.9859,-0.3467 2.1417,-0.8355 2.5698,-1.086c0.6483,-0.3797 0.7781,-0.5411 0.7781,-0.9666c0,-0.6263 -0.361,-1.5148 -1.0519,-2.5918c-0.6205,-0.9666 -0.6243,-0.9098 0.3332,-4.5709c1.2759,-4.8801 1.2804,-6.4898 0.0323,-11.4649l-0.3687,-1.4702l-1.5651,-0.1104c-5.8403,-0.4126 -9.6273,-0.3074 -12.1578,0.3383c-2.1973,0.5605 -5.4309,2.3704 -8.2003,4.5889c-1.5993,1.2817 -4.3009,3.9284 -4.6005,4.5076c-0.1324,0.2557 -0.3183,1.0241 -0.4126,1.7066c-0.0949,0.6825 -0.2641,1.3514 -0.3764,1.487c-0.3197,0.3848 -1.1771,0.2912 -2.3329,-0.2557c-1.1881,-0.5617 -1.0512,-0.6554 -1.4193,0.9724c-0.1117,0.4933 -0.2808,0.9453 -0.3751,1.0034c-0.1052,0.0653 -0.1304,-0.0251 -0.0652,-0.2305c0.2525,-0.7948 0.6134,-3.0483 0.6134,-3.8296c0,-1.0499 -0.3074,-1.6639 -1.1758,-2.3522c-1.4322,-1.1339 -2.8585,-1.3618 -3.7631,-0.6005c-0.7568,0.636 -1.5794,2.4659 -1.6814,3.7392c-0.0691,0.86 -0.0148,1.1842 0.3003,1.8021c0.4339,0.851 2.7603,3.2078 3.5158,3.5623c0.2737,0.1285 0.6127,0.288 0.7541,0.3545c0.1408,0.0665 0.7742,1.1435 1.4076,2.3929c2.0249,3.9962 3.1142,5.3973 5.8113,7.4739c2.4445,1.8822 6.154,3.3537 10.2891,4.0814c2.4865,0.4378 5.1138,0.2312 6.5589,-0.5159zM257.8454,301.1547c-0.7342,-0.306 -2.3775,-1.8796 -2.278,-2.1792c0.1614,-0.4842 0.6463,-0.297 1.4411,0.5566c0.9705,1.0415 1.6091,1.3514 2.7862,1.3514c0.9117,0 1.1816,0.2706 0.39,0.3907c-1.0047,0.1517 -1.7853,0.1123 -2.3393,-0.1195zM254.7228,293.4265c-0.0413,-0.126 0.1524,-0.1912 0.534,-0.1802c0.3351,0.0097 0.7341,-0.1059 0.9065,-0.2615c0.1692,-0.153 0.7297,-0.3216 1.2462,-0.3745l0.9389,-0.0962l-0.8756,0.226c-0.481,0.1246 -1.0919,0.3971 -1.3572,0.6056c-0.4972,0.3913 -1.2766,0.4359 -1.3928,0.0808zM254.0913,292.58c-0.4578,-0.1757 -0.2996,-0.3849 0.2848,-0.3765c0.3054,0.0045 0.882,-0.0497 1.2817,-0.1201c0.47,-0.0833 0.7257,-0.0658 0.7257,0.0491c0,0.0975 -0.1349,0.142 -0.3002,0.0988c-0.1653,-0.0433 -0.5689,0.0381 -0.8969,0.1801c-0.6915,0.2996 -0.7348,0.3067 -1.0951,0.1686zM257.9693,288.259c-0.5139,-0.7652 -0.4965,-1.6149 0.0549,-2.7223c0.9498,-1.9054 2.6861,-1.8628 2.9121,0.0717c0.1162,0.9996 -0.2983,2.1534 -1.0422,2.8966c-0.6289,0.6295 -1.4037,0.5301 -1.9248,-0.246zM238.1602,299.4772c-0.0782,-0.1259 -0.5418,-0.8129 -1.0312,-1.527c-0.4888,-0.7148 -1.3547,-2.145 -1.9235,-3.1781c-0.8743,-1.5891 -1.1855,-1.9933 -2.0152,-2.6157c-1.3379,-1.0041 -2.8811,-2.4892 -3.3124,-3.1872c-0.5108,-0.8264 -0.6548,-1.6594 -0.4772,-2.7583c0.1963,-1.2178 1.2055,-3.2782 1.8861,-3.8503c1.2655,-1.0654 3.9012,-0.0872 5.1326,1.9048c0.2867,0.4642 0.3842,0.902 0.4029,1.806l0.0239,1.1939l0.9278,0.4797c0.5108,0.2647 1.2146,0.4843 1.5652,0.4888c0.7141,0.009 0.6818,0.0736 0.9705,-1.9287c0.204,-1.4192 0.4778,-1.8182 2.8178,-4.1072c2.8339,-2.7733 6.4498,-5.3102 9.0003,-6.3142c2.4471,-0.9647 6.2528,-1.2017 12.3172,-0.7678l2.8513,0.2041l0.822,-0.5017c1.2862,-0.7852 1.6614,-1.7014 1.6698,-4.0821c0.0077,-2.3187 -0.2719,-3.1697 -1.3792,-4.1905c-1.2604,-1.1616 -3.7179,-2.6661 -6.9858,-4.2771c-3.335,-1.6446 -6.0701,-2.657 -8.8304,-3.2698c-2.2709,-0.5036 -5.6595,-0.5372 -7.8258,-0.0768c-6.4098,1.3624 -13.4298,5.283 -17.0166,9.5039c-2.6144,3.0755 -3.5455,5.881 -3.5429,10.6759c0.0032,5.8674 1.7498,11.4455 4.4437,14.1884c1.3385,1.3624 3.0534,2.6764 5.2837,4.0459c1.9377,1.1907 4.4139,2.4453 4.2254,2.1411zM223.4997,276.6675c0.636,-5.5323 3.306,-9.4523 9.052,-13.2877c2.7655,-1.846 7.4739,-4.0614 9.4897,-4.4643c0.2777,-0.0555 0.5043,-0.1607 0.5043,-0.2337c0,-0.2944 -3.437,-3.5345 -4.2958,-4.0498c-1.3605,-0.8155 -3.2485,-1.2468 -5.9546,-1.3605c-3.7663,-0.1588 -6.5118,0.3823 -9.4813,1.8687c-3.8806,1.9416 -6.4711,4.4824 -7.7974,7.6463c-0.3473,0.8277 -0.3945,1.2242 -0.3971,3.3317c-0.0032,2.7616 0.3326,4.3255 1.4348,6.6784c1.0983,2.3445 2.2263,3.2685 5.172,4.2338c2.2767,0.7464 2.1436,0.7677 2.2734,-0.3629z" fill="#050505"/></g></g></svg>