<svg xmlns="http://www.w3.org/2000/svg" xmlns:xlink="http://www.w3.org/1999/xlink" version="1.1" width="57.73763442075886" height="108.62182402647176" viewBox="0.05048885923307299 0.048556476649454824 57.73763442075886 108.62182402647176">
  <!-- Exported by Scratch - http://scratch.mit.edu/ -->
  <g id="ID0.11252958420664072">
    <g id="layer1">
      <g id="g21">
        <path id="path39" fill="#ccfdfd" stroke-width="0.1726586822334695" d="M 29.9502 108.4781 C 29.5463 108.4096 29.1489 108.3946 29.0673 108.4455 C 28.9857 108.4957 28.9185 108.4742 28.9179 108.3972 C 28.9179 108.3202 28.4709 108.2373 27.9253 108.2132 C 26.0165 108.1277 24.543 107.8092 23.9329 107.3505 L 23.3502 106.9119 L 23.4741 105.7719 C 23.6425 104.2188 23.6458 103.9388 23.5061 102.6461 C 23.3312 101.0232 23.3665 94.1921 23.5596 92.3851 C 23.7241 90.8405 24.1743 88.5317 24.4373 87.8837 C 24.5143 87.6938 24.6259 87.2279 24.6853 86.8481 C 24.7447 86.4683 24.8315 86.0271 24.8778 85.8686 C 24.9352 85.6715 24.7258 85.4163 24.2213 85.0679 C 23.8135 84.786 23.1883 84.2711 22.8327 83.9233 C 22.2617 83.3666 22.1847 83.1937 22.1847 82.4622 C 22.1847 81.6399 23.371 77.2808 23.8428 76.3685 C 24.1711 75.7329 24.1522 75.6337 23.6464 75.3629 C 23.4063 75.2343 23.0474 74.8669 22.849 74.5465 C 22.3563 73.7491 22.479 72.6071 23.2738 70.5972 C 23.7156 69.4813 24.1013 67.9353 24.5966 65.2944 C 24.9816 63.2434 25.3679 61.3777 25.4553 61.148 C 25.5428 60.9183 26.1497 60.1972 26.8042 59.5446 C 27.4587 58.8927 28.2164 57.9791 28.4872 57.5138 C 29.2154 56.2674 29.1593 55.5418 28.1119 52.6613 C 27.3543 50.577 27.124 50.1313 26.4388 49.4239 C 26.0015 48.973 25.5454 48.6037 25.4253 48.603 C 25.3052 48.6024 24.1574 48.0738 22.8757 47.4284 C 17.2395 44.5897 13.9577 41.9266 12.5593 39.0572 C 11.1863 36.2375 10.165 32.1133 9.9784 28.6325 C 9.9131 27.4239 9.7976 26.6265 9.6834 26.5977 C 7.0079 25.9308 4.4387 24.7542 3.3985 23.718 C 1.9818 22.3071 0.6342 18.8211 0.2284 15.5165 C -0.3583 10.7436 1.88 6.6018 6.7684 3.4153 C 9.5712 1.5887 12.3217 0.5988 15.5715 0.247 C 18.8187 -0.104 22.8242 0.3939 24.8015 1.3949 C 25.6766 1.838 28.4552 4.4228 29.4523 5.7221 L 29.868 6.2637 L 31.4224 5.9257 C 33.6947 5.4317 37.073 5.4369 39.451 5.9394 C 43.9295 6.885 49.1057 9.1004 53.5223 11.9613 C 57.2543 14.3784 57.6602 15.0003 57.6635 18.3023 C 57.6655 20.908 57.3679 21.8973 56.3016 22.8246 L 55.5688 23.4622 L 55.7958 24.4221 C 56.3877 26.9247 56.6031 28.6161 56.6116 30.8205 C 56.62 33.3427 56.4354 34.4723 55.4187 38.1064 L 54.8477 40.1496 L 55.525 41.3197 C 55.897 41.9631 56.2931 42.9244 56.4047 43.4569 C 56.5815 44.2993 56.5698 44.4814 56.3133 44.8729 C 55.9655 45.4041 54.3928 46.2342 52.535 46.8678 L 51.2024 47.322 L 50.2314 49.3013 C 48.0277 53.7922 46.3597 55.2559 42.9507 55.6879 C 41.331 55.8935 38.2483 55.5972 36.4968 55.0687 C 36.2756 55.0014 36.1986 55.162 36.1163 55.8556 L 36.0132 56.7262 L 37.5004 58.1468 C 39.3152 59.8807 40.8475 61.8997 41.361 63.2336 C 41.6704 64.0375 41.748 64.6118 41.7643 66.2152 C 41.7852 68.1951 41.7878 68.2075 42.706 70.483 C 43.3416 72.0557 43.8362 73.0019 44.2982 73.5265 C 45.4115 74.7919 45.5185 75.5423 44.7439 76.6497 C 44.5103 76.9825 44.4575 77.179 44.588 77.2227 C 44.6976 77.2586 45.0428 77.4609 45.3561 77.671 C 45.8481 78.0019 45.9329 78.1657 45.9786 78.877 C 46.0478 79.9517 45.6151 81.4076 45.0761 81.914 C 44.7831 82.1894 44.4255 82.3219 43.9419 82.3349 C 43.337 82.3506 43.2209 82.4158 43.1321 82.7878 C 42.9866 83.3979 42.5768 84.1941 42.1905 84.6169 C 41.9536 84.8773 41.8394 85.3289 41.7767 86.2575 C 41.7291 86.9623 41.6495 87.9659 41.5999 88.488 C 41.5503 89.0107 41.4765 89.9426 41.4361 90.5599 C 41.3956 91.1772 41.2723 92.9254 41.162 94.4446 C 40.9577 97.2533 40.8951 100.443 41.0034 102.4758 L 41.0635 103.6002 L 42.1976 104.1842 C 43.5706 104.8909 45.052 105.9638 45.4109 106.5113 C 46.0902 107.5488 44.9188 108.003 41.6025 107.9887 C 40.2765 107.9828 38.8036 108.0507 38.3286 108.1388 C 36.8883 108.4057 35.8612 108.2856 35.3678 107.7929 C 34.8634 107.2885 34.6324 106.4121 34.7982 105.6303 C 34.8706 105.287 34.8347 104.9568 34.7035 104.7669 C 34.4399 104.3839 33.8187 102.5919 33.6699 101.7828 C 33.6085 101.4506 33.4526 100.8287 33.324 100.4019 C 33.1948 99.9745 33.0108 99.2364 32.9148 98.7614 C 32.475 96.5877 32.323 96.0649 32.1748 96.2131 C 31.7096 96.679 30.3724 101.3142 30.2184 102.9965 L 30.101 104.2867 L 31.4335 105.0632 C 32.1663 105.4906 33.1511 106.2006 33.6216 106.6418 C 34.3851 107.357 34.4549 107.4823 34.2768 107.8151 C 34.1671 108.02 33.8682 108.2732 33.6131 108.3776 C 33.0689 108.6001 31.0022 108.6569 29.9502 108.4781 Z "/>
        <path id="path37" fill="#e4e4e4" stroke-width="0.1726586822334695" d="M 29.9502 108.4781 C 29.5463 108.4096 29.1489 108.3946 29.0673 108.4455 C 28.9857 108.4957 28.9185 108.4742 28.9179 108.3972 C 28.9179 108.3202 28.4709 108.2373 27.9253 108.2132 C 26.0165 108.1277 24.543 107.8092 23.9329 107.3505 L 23.3502 106.9119 L 23.4741 105.7719 C 23.6425 104.2188 23.6458 103.9388 23.5061 102.6461 C 23.3312 101.0232 23.3665 94.1921 23.5596 92.3851 C 23.7241 90.8405 24.1743 88.5317 24.4373 87.8837 C 24.5143 87.6938 24.6259 87.2279 24.6853 86.8481 C 24.7447 86.4683 24.8315 86.0271 24.8778 85.8686 C 24.9352 85.6715 24.7258 85.4163 24.2213 85.0679 C 23.8135 84.786 23.1883 84.2711 22.8327 83.9233 C 22.2617 83.3666 22.1847 83.1937 22.1847 82.4622 C 22.1847 81.6399 23.371 77.2808 23.8428 76.3685 C 24.1711 75.7329 24.1522 75.6337 23.6464 75.3629 C 23.4063 75.2343 23.0474 74.8669 22.849 74.5465 C 22.3563 73.7491 22.479 72.6071 23.2738 70.5972 C 23.7156 69.4813 24.1013 67.9353 24.5966 65.2944 C 24.9816 63.2434 25.3679 61.3777 25.4553 61.148 C 25.5428 60.9183 26.1497 60.1972 26.8042 59.5446 C 27.4587 58.8927 28.2164 57.9791 28.4872 57.5138 C 29.2154 56.2674 29.1593 55.5418 28.1119 52.6613 C 27.3543 50.577 27.124 50.1313 26.4388 49.4239 C 26.0015 48.973 25.5454 48.6037 25.4253 48.603 C 25.3052 48.6024 24.1574 48.0738 22.8757 47.4284 C 17.2395 44.5897 13.9577 41.9266 12.5593 39.0572 C 11.1863 36.2375 10.165 32.1133 9.9784 28.6325 C 9.9131 27.4239 9.7976 26.6265 9.6834 26.5977 C 7.0079 25.9308 4.4387 24.7542 3.3985 23.718 C 1.9818 22.3071 0.6342 18.8211 0.2284 15.5165 C -0.3583 10.7436 1.88 6.6018 6.7684 3.4153 C 9.5712 1.5887 12.3217 0.5988 15.5715 0.247 C 18.8187 -0.104 22.8242 0.3939 24.8015 1.3949 C 25.6766 1.838 28.4552 4.4228 29.4523 5.7221 L 29.868 6.2637 L 31.4224 5.9257 C 33.6947 5.4317 37.073 5.4369 39.451 5.9394 C 43.9295 6.885 49.1057 9.1004 53.5223 11.9613 C 57.2543 14.3784 57.6602 15.0003 57.6635 18.3023 C 57.6655 20.908 57.3679 21.8973 56.3016 22.8246 L 55.5688 23.4622 L 55.7958 24.4221 C 56.3877 26.9247 56.6031 28.6161 56.6116 30.8205 C 56.62 33.3427 56.4354 34.4723 55.4187 38.1064 L 54.8477 40.1496 L 55.525 41.3197 C 55.897 41.9631 56.2931 42.9244 56.4047 43.4569 C 56.5815 44.2993 56.5698 44.4814 56.3133 44.8729 C 55.9655 45.4041 54.3928 46.2342 52.535 46.8678 L 51.2024 47.322 L 50.2314 49.3013 C 48.0277 53.7922 46.3597 55.2559 42.9507 55.6879 C 41.331 55.8935 38.2483 55.5972 36.4968 55.0687 C 36.2756 55.0014 36.1986 55.162 36.1163 55.8556 L 36.0132 56.7262 L 37.5004 58.1468 C 39.3152 59.8807 40.8475 61.8997 41.361 63.2336 C 41.6704 64.0375 41.748 64.6118 41.7643 66.2152 C 41.7852 68.1951 41.7878 68.2075 42.706 70.483 C 43.3416 72.0557 43.8362 73.0019 44.2982 73.5265 C 45.4115 74.7919 45.5185 75.5423 44.7439 76.6497 C 44.5103 76.9825 44.4575 77.179 44.588 77.2227 C 44.6976 77.2586 45.0428 77.4609 45.3561 77.671 C 45.8481 78.0019 45.9329 78.1657 45.9786 78.877 C 46.0478 79.9517 45.6151 81.4076 45.0761 81.914 C 44.7831 82.1894 44.4255 82.3219 43.9419 82.3349 C 43.337 82.3506 43.2209 82.4158 43.1321 82.7878 C 42.9866 83.3979 42.5768 84.1941 42.1905 84.6169 C 41.9536 84.8773 41.8394 85.3289 41.7767 86.2575 C 41.7291 86.9623 41.6495 87.9659 41.5999 88.488 C 41.5503 89.0107 41.4765 89.9426 41.4361 90.5599 C 41.3956 91.1772 41.2723 92.9254 41.162 94.4446 C 40.9577 97.2533 40.8951 100.443 41.0034 102.4758 L 41.0635 103.6002 L 42.1976 104.1842 C 43.5706 104.8909 45.052 105.9638 45.4109 106.5113 C 46.0902 107.5488 44.9188 108.003 41.6025 107.9887 C 40.2765 107.9828 38.8036 108.0507 38.3286 108.1388 C 36.8883 108.4057 35.8612 108.2856 35.3678 107.7929 C 34.8634 107.2885 34.6324 106.4121 34.7982 105.6303 C 34.8706 105.287 34.8347 104.9568 34.7035 104.7669 C 34.4399 104.3839 33.8187 102.5919 33.6699 101.7828 C 33.6085 101.4506 33.4526 100.8287 33.324 100.4019 C 33.1948 99.9745 33.0108 99.2364 32.9148 98.7614 C 32.475 96.5877 32.323 96.0649 32.1748 96.2131 C 31.7096 96.679 30.3724 101.3142 30.2184 102.9965 L 30.101 104.2867 L 31.4335 105.0632 C 32.1663 105.4906 33.1511 106.2006 33.6216 106.6418 C 34.3851 107.357 34.4549 107.4823 34.2768 107.8151 C 34.1671 108.02 33.8682 108.2732 33.6131 108.3776 C 33.0689 108.6001 31.0022 108.6569 29.9502 108.4781 Z M 35.3933 86.0552 C 39.1625 85.6434 41.1933 84.7801 41.9823 83.2544 C 42.3582 82.5274 42.2296 81.3587 41.2377 76.4859 C 40.3744 72.2442 40.3359 71.7209 40.5016 66.4742 C 40.5799 63.9801 40.5173 63.7328 39.355 61.9826 L 38.7253 61.0331 L 38.3847 61.4664 C 38.1165 61.8077 37.9468 61.8756 37.582 61.7881 C 36.9921 61.6465 34.2918 60.5815 31.4472 59.3678 L 29.2272 58.4209 L 28.9596 58.8216 C 28.8128 59.0421 28.2301 59.6804 27.6643 60.2396 C 26.4453 61.4462 26.3337 61.7405 25.7222 65.3518 C 25.1121 68.9586 25.0331 69.2835 24.3342 71.0735 C 23.4121 73.4332 23.482 74.0186 24.7636 74.6666 C 26.166 75.3766 31.0009 76.5747 32.4607 76.5747 C 33.2209 76.5747 33.6144 76.0141 33.7123 74.7893 C 33.7638 74.1439 33.6842 73.6682 33.4225 73.0626 C 33.0427 72.1836 32.8431 70.4242 32.6225 66.022 C 32.5364 64.2907 32.5592 63.6369 32.7093 63.5442 C 32.8209 63.475 32.9527 63.4581 33.0023 63.507 C 33.0512 63.5566 33.3175 65.4092 33.5935 67.6254 C 33.955 70.5241 34.2017 71.8964 34.4725 72.517 C 34.9763 73.6727 34.9678 75.5475 34.4549 76.5532 C 34.0738 77.3003 33.6627 77.611 33.0538 77.611 C 32.7732 77.611 32.7015 77.688 32.7739 77.9131 C 33.1654 79.1328 33.5805 80.864 33.5805 81.2764 C 33.5805 82.0243 33.1472 82.7108 32.4737 83.0305 C 31.027 83.7171 28.0154 83.8267 26.8701 83.2342 C 26.2045 82.8896 25.811 82.1548 25.811 81.2562 C 25.811 80.4438 26.1986 78.5272 26.5804 77.4544 C 26.7285 77.0361 26.8238 76.6674 26.7918 76.6347 C 26.7592 76.6021 26.3637 76.4651 25.9121 76.3287 L 25.0919 76.082 L 24.8452 76.6732 C 24.5254 77.438 23.048 82.5352 23.048 82.8726 C 23.048 83.2681 24.8667 84.6202 26.4825 85.4274 C 27.7308 86.0513 28.1361 86.1661 29.4177 86.2588 C 31.07 86.3789 33.0519 86.311 35.3933 86.0552 Z M 43.4075 76.4644 C 43.7951 76.0233 44.1129 75.5312 44.1129 75.37 C 44.1129 75.2089 43.7951 74.634 43.4075 74.0923 C 43.0016 73.5252 42.4515 72.395 42.1115 71.4311 L 41.5216 69.7547 L 41.5894 71.3085 C 41.6606 72.9431 42.383 77.2651 42.5839 77.2651 C 42.6492 77.2651 43.0192 76.9049 43.4075 76.4644 Z "/>
        <path id="path35" fill="#f5dcbd" stroke-width="0.1726586822334695" d="M 29.943 108.45 C 29.8895 108.3946 29.3068 108.3058 28.6484 108.251 C 23.8089 107.8529 23.0852 107.432 23.5296 105.2773 C 23.6784 104.5581 23.6869 103.884 23.5609 102.819 C 23.3528 101.0551 23.3652 95.1213 23.5818 92.7186 C 23.7332 91.048 23.944 89.9582 24.6246 87.3258 C 24.8021 86.6393 24.9457 85.9397 24.9431 85.772 C 24.9405 85.6017 24.5574 85.2082 24.0771 84.8825 C 23.604 84.5608 22.9749 84.0231 22.6793 83.687 C 22.1866 83.1258 22.1507 83.0018 22.2362 82.1685 C 22.3419 81.1446 23.6471 76.6863 24.0086 76.1159 C 24.2252 75.7733 24.1959 75.7055 23.6464 75.2865 C 22.3106 74.2679 22.2617 73.4274 23.3678 70.5045 C 23.8435 69.2477 24.2063 67.799 24.5926 65.6109 C 25.424 60.9078 25.3444 61.1264 26.7468 59.7319 C 28.0956 58.3896 29.0914 56.7353 29.0914 55.8354 C 29.0914 55.5183 28.694 54.1303 28.2085 52.7514 C 27.4176 50.5065 27.2421 50.162 26.5249 49.454 C 25.9709 48.9071 25.2485 48.4568 24.1776 47.9915 C 22.4007 47.2189 19.1992 45.4152 17.4366 44.1936 C 15.7092 42.9968 13.5518 40.7852 12.8125 39.4533 C 11.4643 37.0238 10.4058 32.9936 10.0684 29.0038 L 9.8635 26.5827 L 8.4703 26.1977 C 6.4663 25.643 4.0694 24.4208 3.2856 23.5529 C 2.4784 22.6595 1.4454 20.5073 0.8489 18.4752 C 0.304 16.62 0.0861 13.1862 0.415 11.6461 C 0.7028 10.3012 1.8174 8.1216 2.8667 6.853 C 4.5777 4.7837 7.5639 2.7118 10.58 1.5006 C 12.8523 0.5883 14.7845 0.2457 17.6956 0.2386 C 22.569 0.2275 24.7871 0.9668 27.2675 3.4303 C 28.0454 4.2029 28.9492 5.1668 29.2755 5.5727 L 29.868 6.3107 L 31.6815 5.9466 C 33.2039 5.6412 33.9087 5.5961 36.0837 5.6653 C 38.972 5.758 41.1124 6.2109 44.3713 7.4188 C 48.3213 8.8831 54.1357 12.0964 56.0823 13.8903 C 57.4397 15.1419 57.95 17.1042 57.5898 19.6929 C 57.3568 21.3681 56.8602 22.4383 56.0862 22.9336 C 55.6497 23.2129 55.5231 23.3982 55.5909 23.6547 C 55.6418 23.8446 55.882 25.0492 56.1247 26.3308 C 56.9137 30.4968 56.7558 33.0118 55.3919 38.0131 L 54.772 40.2854 L 55.1459 40.81 C 55.773 41.691 56.3877 43.1971 56.4164 43.9234 C 56.4621 45.0654 55.5766 45.7461 52.7901 46.7119 L 51.1946 47.2652 L 50.1557 49.3587 C 47.7745 54.1577 46.0954 55.4713 42.1272 55.6396 C 40.3796 55.7134 39.1253 55.5835 36.5588 55.0628 L 35.9976 54.9492 L 36.0041 55.9633 C 36.0113 56.9618 36.0237 56.9872 36.7807 57.5438 C 38.0114 58.4496 40.2621 61.1519 40.9649 62.5686 C 41.5725 63.7922 41.6018 63.9371 41.7075 66.1943 C 41.81 68.3954 41.8583 68.6453 42.4632 70.0947 C 43.29 72.0765 43.8023 73.0247 44.5488 73.9553 C 45.2934 74.8826 45.3456 75.6865 44.7211 76.6054 L 44.2937 77.2344 L 44.7935 77.4087 C 46.0093 77.8322 46.2781 78.7223 45.7398 80.5351 C 45.3672 81.792 44.8536 82.2723 43.8839 82.2723 C 43.1295 82.2723 43.1197 82.2801 43.0127 82.9496 C 42.9526 83.3222 42.644 83.9683 42.3255 84.3853 C 41.7826 85.0966 41.7395 85.2538 41.6253 86.9453 C 41.5588 87.9366 41.4713 89.0968 41.4315 89.5243 C 41.3917 89.9517 41.318 90.9612 41.2677 91.7684 C 41.2175 92.5757 41.1398 93.625 41.0954 94.0994 C 40.7692 97.5815 40.8142 103.8547 41.1659 103.8547 C 41.2351 103.8547 41.8981 104.1835 42.6381 104.5862 C 44.1951 105.4319 45.4938 106.51 45.4938 106.9563 C 45.4938 107.6578 44.8379 107.8138 41.5229 107.9006 C 40.2406 107.9345 38.4865 108.0193 37.6244 108.0898 C 36.3102 108.1975 35.9878 108.1727 35.6224 107.9332 C 35.1133 107.5997 34.776 106.6157 34.8073 105.5546 C 34.8197 105.1219 34.6729 104.4478 34.4601 103.9623 C 34.109 103.1597 33.3729 100.4711 32.894 98.2432 C 32.458 96.2163 32.242 95.4842 32.1553 95.74 C 30.6876 100.06 30.2119 101.7919 30.0873 103.2667 L 30.0005 104.2945 L 31.0974 104.9438 C 32.5997 105.8319 34.2709 107.2513 34.2709 107.6382 C 34.2709 108.2504 33.7808 108.4239 31.8727 108.4879 C 30.8651 108.5218 29.9972 108.5049 29.943 108.45 Z M 33.8395 86.2236 C 36.2044 86.0376 38.8454 85.5658 39.8353 85.152 C 40.5864 84.8382 41.6397 83.9174 41.9634 83.2916 C 42.3653 82.5137 42.2655 81.4911 41.3304 76.7861 C 40.373 71.9708 40.2732 70.7257 40.5532 67.0726 C 40.7365 64.6784 40.5323 63.7654 39.4333 62.0648 C 38.724 60.9679 38.7103 60.9574 38.4571 61.3392 C 38.309 61.5624 38.0238 61.7262 37.783 61.7262 C 37.3086 61.7262 35.3085 60.9764 31.6991 59.4454 L 29.2128 58.3909 L 28.865 58.8934 C 28.6732 59.1694 28.061 59.8324 27.5044 60.3662 C 26.504 61.3261 26.4884 61.3561 26.1582 62.9562 C 25.9741 63.8463 25.6361 65.6239 25.407 66.9056 C 25.1669 68.2492 24.7245 69.9433 24.3636 70.9032 C 23.4689 73.2831 23.4474 73.4717 23.9936 74.121 C 24.3564 74.5517 24.8374 74.7899 26.3037 75.2643 C 28.4878 75.9704 31.3232 76.5747 32.4509 76.5747 C 33.2026 76.5747 33.2685 76.5375 33.5028 75.9756 C 33.8604 75.1201 33.8147 73.8228 33.3932 72.8694 C 33.095 72.196 32.9873 71.3528 32.7719 68.0091 C 32.6277 65.7838 32.5598 63.8353 32.6192 63.6786 C 32.8822 62.9941 33.1184 63.9847 33.5903 67.7572 C 33.9329 70.5012 34.2004 72.0067 34.4399 72.5483 C 34.8569 73.4913 34.9137 75.4249 34.5489 76.2967 C 34.2369 77.0432 33.6183 77.611 33.1165 77.611 C 32.6336 77.611 32.6342 77.594 33.0767 78.9918 C 33.2718 79.6091 33.4454 80.5671 33.463 81.1205 C 33.4917 82.0523 33.4532 82.1626 32.9396 82.6227 C 32.1833 83.2994 31.2032 83.548 29.2637 83.5546 C 25.8227 83.567 25.1636 82.3088 26.4179 78.12 C 26.6535 77.3317 26.8466 76.6687 26.8466 76.6471 C 26.8466 76.6093 25.2876 76.0566 25.1819 76.0566 C 25.0096 76.0566 24.5985 77.2116 23.8187 79.8897 L 22.9279 82.9464 L 23.463 83.4488 C 24.2187 84.1588 26.0061 85.3276 26.9752 85.7459 C 28.5107 86.4082 30.0957 86.5185 33.8395 86.2236 Z M 43.6633 76.2549 C 44.2421 75.4196 44.2291 75.0686 43.5928 74.2959 C 42.9409 73.5057 42.3275 72.1927 41.9392 70.759 C 41.7454 70.0412 41.5901 69.7306 41.4994 69.8761 C 41.3141 70.173 41.4439 71.4357 41.996 74.7005 L 42.4528 77.4021 L 42.8332 77.1529 C 43.0427 77.0158 43.416 76.6119 43.6633 76.2549 Z M 24.2775 46.8345 C 23.5153 45.8211 22.2773 43.7662 21.4962 42.2202 C 21.0844 41.4032 20.7125 40.9941 19.6403 40.1757 C 18.0063 38.9287 16.5576 37.4186 16.2202 36.6114 C 15.4776 34.8338 16.6541 31.1266 18.2869 30.0994 C 19.3695 29.4181 21.4153 30.0479 22.7191 31.462 C 23.5812 32.3971 23.7391 32.8187 23.7391 34.1858 L 23.7391 35.2841 L 24.6455 35.72 C 26.5419 36.6329 26.7677 36.5324 27.0019 34.6668 C 27.184 33.2167 27.3178 32.9453 28.5315 31.5579 C 30.7372 29.0364 34.8008 25.8571 37.6381 24.4332 C 40.9949 22.7482 43.4271 22.4657 50.788 22.9075 C 54.0737 23.1052 54.3093 23.0987 54.9854 22.7933 C 56.3714 22.1688 56.8896 21.017 56.8896 18.5614 C 56.8896 15.831 56.3453 14.9011 53.7311 13.162 C 49.5449 10.3769 44.4425 8.0844 39.9691 6.9789 C 38.5817 6.6357 37.8887 6.573 35.4794 6.573 C 33.0708 6.573 32.3778 6.6357 30.9904 6.9789 C 25.8084 8.2593 20.9252 10.7038 17.0914 13.9353 C 13.9186 16.6095 12.3009 19.0599 11.4382 22.4964 C 10.8854 24.6981 10.8913 29.3901 11.4499 32.1779 C 12.7374 38.6017 14.4165 41.2055 19.4223 44.5427 C 20.7451 45.425 24.7108 47.7344 24.9098 47.7397 C 24.9365 47.7403 24.652 47.3331 24.2775 46.8345 Z M 10.1448 24.1584 C 10.3158 22.6158 10.8319 20.7409 11.478 19.3151 C 13.6282 14.5742 20.1545 9.5553 27.4013 7.0716 L 29.2507 6.438 L 28.5237 5.5824 C 27.537 4.4228 25.5519 2.7372 24.5926 2.2452 C 23.11 1.4843 21.9262 1.269 18.7319 1.177 C 15.2772 1.0778 13.4925 1.3421 11.0688 2.3124 C 5.6714 4.4737 1.8461 8.4648 1.2875 12.5186 C 0.9566 14.9148 1.6118 18.3284 2.9274 21.0633 C 3.7196 22.7111 4.795 23.6893 6.5974 24.4019 C 8.1662 25.0224 9.5947 25.461 9.84 25.3977 C 9.9347 25.3735 10.0723 24.8156 10.1448 24.1584 Z "/>
        <path id="path33" fill="#96b0fb" stroke-width="0.1726586822334695" d="M 30.1225 108.4566 C 30.0723 108.4057 29.451 108.3163 28.741 108.2588 C 25.315 107.9802 23.9322 107.6461 23.5942 107.015 C 23.4996 106.8375 23.4644 106.2679 23.5159 105.7484 C 23.5681 105.229 23.5812 104.1829 23.5453 103.4233 C 23.4108 100.5762 23.5179 92.6749 23.7071 91.51 C 23.8154 90.8451 24.0262 89.7964 24.1757 89.179 C 25.1297 85.2519 25.1362 85.5814 24.0902 84.8825 C 23.6092 84.5608 22.9749 84.0231 22.6793 83.687 C 22.1866 83.1258 22.1507 83.0018 22.2362 82.1685 C 22.3419 81.1446 23.6471 76.6863 24.0086 76.1153 C 24.2252 75.7733 24.1959 75.7055 23.6464 75.2865 C 22.3106 74.2679 22.2617 73.4274 23.3678 70.5045 C 23.8565 69.2137 24.2174 67.752 24.6696 65.2304 C 25.0135 63.3119 25.3777 61.5258 25.4775 61.2622 C 25.578 60.9985 26.1797 60.2761 26.8146 59.6575 C 28.095 58.4091 29.0914 56.7366 29.0914 55.8354 C 29.0914 55.5183 28.694 54.1303 28.2085 52.7514 C 27.4176 50.5065 27.2421 50.162 26.5249 49.454 C 25.9709 48.9071 25.2485 48.4568 24.1776 47.9915 C 22.4078 47.2215 19.2096 45.4211 17.4366 44.1962 C 16.7723 43.7368 15.565 42.6953 14.7545 41.8822 C 13.5727 40.6952 13.1401 40.1124 12.5704 38.9352 C 11.2117 36.1292 10.3947 32.88 10.0736 29.0051 L 9.8727 26.586 L 8.4749 26.199 C 6.4663 25.643 4.07 24.4214 3.2856 23.5529 C 2.4784 22.6595 1.4454 20.5073 0.8489 18.4752 C 0.304 16.62 0.0861 13.1862 0.415 11.6461 C 0.7028 10.3012 1.8174 8.1216 2.8667 6.853 C 4.5777 4.7837 7.5639 2.7118 10.58 1.5006 C 12.8392 0.5936 14.7813 0.2503 17.6956 0.2412 C 22.569 0.2275 24.7858 0.9662 27.2675 3.4303 C 28.0454 4.2029 28.9492 5.1668 29.2755 5.5727 L 29.868 6.3107 L 31.6815 5.9466 C 34.3622 5.4082 37.8848 5.5387 40.7013 6.28 C 43.5295 7.0246 45.6523 7.8403 48.861 9.4143 C 53.226 11.5554 56.3629 13.7382 57.071 15.1256 C 57.8769 16.7048 57.8645 20.0982 57.0462 21.7877 C 56.7649 22.3698 56.1685 22.9773 55.5603 23.3023 C 55.5413 23.3127 55.7123 24.2505 55.9407 25.3872 C 56.9672 30.4929 56.8706 32.4715 55.3129 38.2722 L 54.772 40.286 L 55.1459 40.8107 C 55.7737 41.693 56.3877 43.1971 56.4164 43.9274 C 56.4373 44.4481 56.3401 44.7307 56.0229 45.068 C 55.5231 45.5999 53.9935 46.3464 52.3066 46.8815 L 51.0902 47.2678 L 50.6145 48.4249 C 49.9886 49.9453 48.6267 52.2202 47.6746 53.3348 C 45.6184 55.7414 42.3967 56.2426 36.5588 55.0628 L 35.9976 54.9492 L 36.0041 55.9633 C 36.0113 56.9618 36.0237 56.9872 36.7807 57.5438 C 38.0114 58.4496 40.2621 61.1519 40.9649 62.5686 C 41.5725 63.7922 41.6018 63.9371 41.7075 66.1943 C 41.81 68.3954 41.8583 68.6453 42.4632 70.0947 C 43.29 72.0765 43.8023 73.0247 44.5488 73.9553 C 45.2934 74.8826 45.3456 75.6865 44.7211 76.6054 L 44.2937 77.2344 L 44.7935 77.4087 C 46.0093 77.8322 46.2781 78.7223 45.7398 80.5351 C 45.3672 81.792 44.8536 82.2723 43.8839 82.2723 C 43.1328 82.2723 43.1191 82.2827 43.0146 82.9353 C 42.9566 83.2994 42.6472 83.9402 42.3281 84.3598 C 41.7819 85.0764 41.7402 85.2291 41.626 86.9342 C 41.5588 87.9313 41.4713 89.0968 41.4315 89.5243 C 41.3917 89.9517 41.318 90.9612 41.2677 91.7684 C 41.2175 92.5757 41.1398 93.625 41.0954 94.0994 C 40.7692 97.5815 40.8142 103.8547 41.1659 103.8547 C 41.4883 103.8547 44.064 105.3882 44.7387 105.982 C 46.2586 107.3198 45.7111 107.6872 41.9542 107.851 C 40.435 107.9169 38.4865 108.0265 37.6244 108.0944 C 36.3147 108.1981 35.9865 108.1714 35.6224 107.9332 C 35.1147 107.601 34.7773 106.6196 34.804 105.5546 C 34.8145 105.1128 34.6474 104.3787 34.3962 103.7685 C 34.1612 103.1988 33.8715 102.3055 33.7527 101.7828 C 33.6333 101.2607 33.4376 100.4835 33.3188 100.0561 C 33.1994 99.6293 33.0049 98.8129 32.8868 98.2432 C 32.4822 96.2986 32.2434 95.4809 32.1553 95.74 C 30.7 100.0228 30.206 101.8147 30.0755 103.2817 L 29.9861 104.2867 L 31.0903 104.9392 C 32.5977 105.8306 34.2709 107.2506 34.2709 107.6382 C 34.2709 108.2399 33.7795 108.4207 31.9608 108.4866 C 31.0002 108.5218 30.1728 108.5081 30.1225 108.4566 Z M 33.8395 86.2236 C 36.2044 86.0376 38.8454 85.5658 39.8353 85.152 C 40.5864 84.8382 41.6397 83.9174 41.9634 83.2916 C 42.3653 82.5137 42.2655 81.4911 41.3304 76.7861 C 40.373 71.9708 40.2732 70.7257 40.5532 67.0726 C 40.7365 64.6784 40.5323 63.7654 39.4333 62.0648 C 38.724 60.9679 38.7103 60.9574 38.4571 61.3392 C 38.309 61.5624 38.0238 61.7262 37.783 61.7262 C 37.3086 61.7262 35.3085 60.9764 31.6991 59.4454 L 29.2128 58.3909 L 28.865 58.8934 C 28.6732 59.1694 28.061 59.8324 27.5044 60.3662 C 26.504 61.3261 26.4884 61.3561 26.1582 62.9562 C 25.9741 63.8463 25.6361 65.6239 25.407 66.9056 C 25.1669 68.2492 24.7245 69.9433 24.3636 70.9032 C 23.4689 73.2831 23.4474 73.4717 23.9936 74.121 C 24.3564 74.5517 24.8374 74.7899 26.3037 75.2643 C 28.4878 75.9704 31.3232 76.5747 32.4509 76.5747 C 33.2026 76.5747 33.2685 76.5375 33.5028 75.9763 C 33.8604 75.1201 33.8147 73.8228 33.3932 72.8694 C 33.095 72.196 32.9873 71.3528 32.7719 68.0091 C 32.6277 65.7838 32.5598 63.8353 32.6192 63.6786 C 32.8822 62.9941 33.1184 63.9847 33.5903 67.7572 C 33.9329 70.5012 34.2004 72.0067 34.4399 72.5483 C 34.8569 73.4913 34.9137 75.4249 34.5489 76.2967 C 34.2369 77.0432 33.6183 77.611 33.1165 77.611 C 32.6336 77.611 32.6342 77.594 33.0767 78.9918 C 33.2718 79.6091 33.4454 80.5671 33.463 81.1205 C 33.4917 82.0523 33.4532 82.1626 32.9396 82.6227 C 32.1833 83.2994 31.2032 83.548 29.2637 83.5546 C 25.8227 83.567 25.1636 82.3088 26.4179 78.12 C 26.6535 77.3317 26.8466 76.6687 26.8466 76.6471 C 26.8466 76.6093 25.2876 76.0566 25.1819 76.0566 C 25.0096 76.0566 24.5985 77.2116 23.8187 79.8897 L 22.9279 82.9464 L 23.463 83.4488 C 24.2187 84.1588 26.0061 85.3276 26.9752 85.7459 C 28.5107 86.4082 30.0957 86.5185 33.8395 86.2236 Z M 31.4224 82.3082 C 32.2708 82.0184 32.2864 82.0001 32.3406 81.2386 C 32.3765 80.7368 32.2323 79.9615 31.9334 79.0414 C 31.4818 77.6547 31.455 77.6162 30.8423 77.5092 C 29.6142 77.2945 27.9651 76.9408 27.6826 76.8325 C 27.3537 76.7065 27.3178 76.7933 26.9373 78.6146 C 26.66 79.9452 26.5921 81.7117 26.8062 82.0282 C 27.0946 82.4537 27.7015 82.607 29.0914 82.6051 C 30.0168 82.6038 30.8782 82.4935 31.4224 82.3082 Z M 44.7263 80.4594 C 44.8895 80.032 45.0317 79.3931 45.0428 79.0394 C 45.0604 78.4665 44.9926 78.3588 44.4177 78.0469 L 43.7736 77.6978 L 43.2457 78.2257 L 42.7171 78.7536 L 42.922 79.9948 L 43.1275 81.2366 L 43.7781 81.2366 C 44.3909 81.2366 44.447 81.1903 44.7263 80.4594 Z M 43.6633 76.2549 C 44.2421 75.4196 44.2291 75.0686 43.5928 74.2959 C 42.9409 73.5057 42.3275 72.1927 41.9392 70.759 C 41.7454 70.0412 41.5901 69.7306 41.4994 69.8761 C 41.3141 70.173 41.4439 71.4357 41.996 74.7005 L 42.4528 77.4021 L 42.8332 77.1529 C 43.0427 77.0158 43.416 76.6119 43.6633 76.2549 Z M 37.8972 60.4634 C 37.8972 59.9264 37.0038 59.0624 36.7311 59.3351 C 36.4563 59.6099 35.7437 59.1237 35.3744 58.4091 C 35.1049 57.8877 35.1003 57.1556 35.3535 55.0974 C 35.3809 54.8696 35.2367 54.7195 34.8752 54.6021 C 32.7106 53.8979 30.5773 52.8166 29.049 51.6498 L 28.2881 51.0691 L 29.1469 52.9876 C 30.0194 54.9368 30.2015 55.8857 29.9059 56.9441 C 29.7734 57.4185 29.8034 57.4433 31.4596 58.2219 C 34.6161 59.7058 37.2916 60.8563 37.5951 60.8595 C 37.7961 60.8615 37.8972 60.7297 37.8972 60.4634 Z M 45.097 54.3208 C 46.7375 53.5906 48.4714 51.2994 49.7459 48.1769 C 50.0572 47.4147 50.4122 46.7367 50.5355 46.6707 C 50.6588 46.6048 51.3819 46.3497 52.1415 46.105 C 53.8682 45.547 55.5746 44.6426 55.649 44.2445 C 55.7169 43.8856 54.9827 42.2202 54.3569 41.3138 C 53.8336 40.5549 53.8101 40.7546 54.9116 36.6042 C 55.6862 33.6859 55.7365 33.3649 55.7371 31.338 C 55.7378 29.2243 55.4154 27.0924 54.7315 24.6909 L 54.4861 23.8276 L 52.6231 23.7415 C 51.5985 23.6938 48.9341 23.6573 46.7023 23.6605 C 43.1014 23.6658 42.4743 23.7095 41.1255 24.0482 C 37.552 24.9454 33.4004 27.6034 29.4856 31.4998 C 27.8522 33.1254 27.5403 33.6735 27.5383 34.9265 C 27.537 35.8179 27.1083 36.6617 26.5915 36.7915 C 26.1353 36.9057 24.8387 36.5135 24.175 36.06 C 23.9877 35.9321 23.7887 35.827 23.7319 35.827 C 23.6758 35.827 23.529 36.3328 23.4063 36.9514 C 23.1975 38.0027 22.9828 38.4092 22.7563 38.1828 C 22.7035 38.1299 22.7863 37.4597 22.9403 36.6943 C 23.095 35.9288 23.2209 34.7777 23.2209 34.1362 C 23.2209 33.1052 23.1635 32.9009 22.7211 32.3645 C 22.1207 31.6362 20.7836 30.876 19.8341 30.7246 C 19.2475 30.6306 19.0615 30.6828 18.5981 31.0731 C 17.7159 31.815 16.9334 33.6044 16.8604 35.0452 C 16.7997 36.2499 16.8062 36.2714 17.5612 37.296 C 18.4605 38.5163 20.1656 40.0394 21.044 40.4061 C 21.5974 40.6371 21.7899 40.9118 22.7713 42.8708 C 25.1708 47.6581 27.0659 49.7757 30.9258 51.9794 C 32.4235 52.8343 35.5408 53.9162 38.074 54.4598 C 40.4115 54.9623 43.8082 54.8944 45.097 54.3208 Z M 45.1042 49.5727 C 44.3119 49.2817 42.9409 48.1834 42.6942 47.6424 C 42.4795 47.1713 42.6185 46.7047 42.9729 46.7047 C 43.1119 46.7047 43.6 47.1008 44.0574 47.585 C 45.1348 48.725 45.5975 48.9495 46.8668 48.9495 C 47.6583 48.9495 47.9109 49.0096 47.9109 49.1968 C 47.9109 49.67 46.0484 49.9199 45.1042 49.5727 Z M 41.5229 41.6114 C 41.5229 41.4365 41.6978 41.3523 42.0639 41.3523 C 42.3608 41.3523 42.8463 41.2068 43.1425 41.0293 C 43.7879 40.6417 45.3835 40.3885 45.283 40.6893 C 45.2471 40.7983 44.8523 40.9797 44.4059 41.0932 C 43.9596 41.2061 43.4525 41.4274 43.2789 41.5846 C 42.8639 41.9605 41.5229 41.9807 41.5229 41.6114 Z M 40.7763 40.5921 C 40.6452 40.2514 40.8181 40.134 41.2801 40.2495 C 41.4987 40.3043 41.9516 40.2586 42.2877 40.1477 C 42.9788 39.9199 43.5948 40.0452 43.5948 40.4146 C 43.5948 40.6971 43.3214 40.7454 43.1641 40.4909 C 43.0969 40.3826 42.8313 40.4139 42.4423 40.5771 C 41.6664 40.9007 40.8971 40.9079 40.7763 40.5921 Z M 45.1479 36.7165 C 44.1984 35.767 44.323 34.1153 45.437 32.8826 C 45.9701 32.2921 46.1502 32.2014 46.7878 32.2014 C 47.6505 32.2014 47.9069 32.4428 48.0864 33.4249 C 48.397 35.1236 47.1943 37.2085 45.9042 37.2085 C 45.7587 37.2085 45.4187 36.9873 45.1479 36.7165 Z M 24.2775 46.8345 C 23.5153 45.8211 22.2773 43.7662 21.4962 42.2202 C 21.0844 41.4032 20.7125 40.9941 19.6403 40.1757 C 18.0063 38.9287 16.5576 37.4186 16.2202 36.6114 C 15.4776 34.8338 16.6541 31.1266 18.2869 30.0994 C 19.3023 29.4606 20.9578 29.8932 22.4176 31.1788 C 23.4258 32.0663 23.7391 32.771 23.7391 34.1571 L 23.7391 35.2841 L 24.6455 35.72 C 26.5406 36.6329 26.7677 36.5318 27.0013 34.672 C 27.0841 34.0109 27.2806 33.2213 27.4378 32.9179 C 28.1563 31.5279 33.0643 27.1492 35.8384 25.4225 C 40.1309 22.7509 42.2355 22.4396 52.3177 22.9851 C 54.216 23.0882 54.4542 23.0667 55.1074 22.7339 C 56.4497 22.0487 56.8896 20.9831 56.8896 18.4119 C 56.8896 15.8075 56.3101 14.8659 53.6091 13.0798 C 49.5331 10.384 44.9449 8.2984 40.4866 7.1147 C 38.6542 6.6285 38.275 6.5867 35.5662 6.5789 C 33.0434 6.5717 32.4 6.6279 30.9904 6.9776 C 23.6458 8.7989 16.5935 13.1738 13.4311 17.871 C 12.5417 19.1918 11.9824 20.4486 11.5178 22.172 C 11.1138 23.6684 11.0708 24.1343 11.0675 27.0219 C 11.0642 30.4518 11.2757 32.0708 12.0986 34.9102 C 13.4279 39.4964 15.0469 41.6257 19.4223 44.5427 C 20.7451 45.425 24.7108 47.7344 24.9098 47.7397 C 24.9365 47.7403 24.652 47.3331 24.2775 46.8345 Z M 10.0991 24.7699 C 10.0991 23.7154 10.5846 21.5723 11.1667 20.0623 C 13.1192 14.9912 19.7323 9.7001 27.4033 7.0709 L 29.2539 6.4367 L 28.3651 5.4147 C 27.8764 4.8522 26.9654 3.9771 26.3415 3.4694 C 24.1345 1.6755 22.9071 1.3009 18.8181 1.1743 C 16.5099 1.1032 15.5572 1.145 14.3591 1.3701 C 11.3827 1.93 8.6171 3.2019 5.9742 5.2261 C 3.422 7.1812 1.632 9.9879 1.2796 12.5871 C 0.8157 16.0164 2.3746 21.2819 4.3911 23.0948 C 5.2466 23.8641 7.0294 24.7118 8.837 25.2084 C 10.0841 25.5517 10.0991 25.5465 10.0991 24.7699 Z "/>
        <path id="path31" fill="#a2a2a0" stroke-width="0.1726586822334695" d="M 30.1225 108.4566 C 30.0723 108.4057 29.451 108.3163 28.741 108.2588 C 25.315 107.9802 23.9322 107.6461 23.5942 107.015 C 23.4996 106.8375 23.4644 106.2679 23.5159 105.7484 C 23.5681 105.229 23.5812 104.1829 23.5453 103.4233 C 23.4108 100.5762 23.5179 92.6749 23.7071 91.51 C 23.8154 90.8451 24.0262 89.7964 24.1757 89.179 C 25.1297 85.2519 25.1362 85.5814 24.0902 84.8825 C 23.6092 84.5608 22.9749 84.0231 22.6793 83.687 C 22.1866 83.1258 22.1507 83.0018 22.2362 82.1685 C 22.3419 81.1446 23.6471 76.6863 24.0086 76.1153 C 24.2252 75.7733 24.1959 75.7055 23.6464 75.2865 C 22.3106 74.2679 22.2617 73.4274 23.3678 70.5045 C 23.8565 69.2137 24.2174 67.752 24.6696 65.2304 C 25.0135 63.3119 25.3777 61.5258 25.4775 61.2622 C 25.578 60.9985 26.1797 60.2761 26.8146 59.6575 C 28.095 58.4091 29.0914 56.7366 29.0914 55.8354 C 29.0914 55.5183 28.694 54.1303 28.2085 52.7514 C 27.4176 50.5065 27.2421 50.162 26.5249 49.454 C 25.9709 48.9071 25.2485 48.4568 24.1776 47.9915 C 22.4078 47.2215 19.2096 45.4211 17.4366 44.1962 C 16.7723 43.7368 15.565 42.6953 14.7545 41.8822 C 13.5727 40.6952 13.1401 40.1124 12.5704 38.9352 C 11.2117 36.1292 10.3947 32.88 10.0736 29.0051 L 9.8727 26.586 L 8.4749 26.199 C 6.4663 25.643 4.07 24.4214 3.2856 23.5529 C 2.4784 22.6595 1.4454 20.5073 0.8489 18.4752 C 0.304 16.62 0.0861 13.1862 0.415 11.6461 C 0.7028 10.3012 1.8174 8.1216 2.8667 6.853 C 4.5777 4.7837 7.5639 2.7118 10.58 1.5006 C 12.8392 0.5936 14.7813 0.2503 17.6956 0.2412 C 22.569 0.2275 24.7858 0.9662 27.2675 3.4303 C 28.0454 4.2029 28.9492 5.1668 29.2755 5.5727 L 29.868 6.3107 L 31.6815 5.9466 C 34.3622 5.4082 37.8848 5.5387 40.7013 6.28 C 43.5295 7.0246 45.6523 7.8403 48.861 9.4143 C 53.226 11.5554 56.3629 13.7382 57.071 15.1256 C 57.8769 16.7048 57.8645 20.0982 57.0462 21.7877 C 56.7649 22.3698 56.1685 22.9773 55.5603 23.3023 C 55.5413 23.3127 55.7123 24.2505 55.9407 25.3872 C 56.9672 30.4929 56.8706 32.4715 55.3129 38.2722 L 54.772 40.286 L 55.1459 40.8107 C 55.7737 41.693 56.3877 43.1971 56.4164 43.9274 C 56.4373 44.4481 56.3401 44.7307 56.0229 45.068 C 55.5231 45.5999 53.9935 46.3464 52.3066 46.8815 L 51.0902 47.2678 L 50.6145 48.4249 C 49.9886 49.9453 48.6267 52.2202 47.6746 53.3348 C 45.6184 55.7414 42.3967 56.2426 36.5588 55.0628 L 35.9976 54.9492 L 36.0041 55.9633 C 36.0113 56.9618 36.0237 56.9872 36.7807 57.5438 C 38.0114 58.4496 40.2621 61.1519 40.9649 62.5686 C 41.5725 63.7922 41.6018 63.9371 41.7075 66.1943 C 41.81 68.3954 41.8583 68.6453 42.4632 70.0947 C 43.29 72.0765 43.8023 73.0247 44.5488 73.9553 C 45.2934 74.8826 45.3456 75.6865 44.7211 76.6054 L 44.2937 77.2344 L 44.7935 77.4087 C 46.0093 77.8322 46.2781 78.7223 45.7398 80.5351 C 45.3672 81.792 44.8536 82.2723 43.8839 82.2723 C 43.1328 82.2723 43.1191 82.2827 43.0146 82.9353 C 42.9566 83.2994 42.6472 83.9402 42.3281 84.3598 C 41.7819 85.0764 41.7402 85.2291 41.626 86.9342 C 41.5588 87.9313 41.4713 89.0968 41.4315 89.5243 C 41.3917 89.9517 41.318 90.9612 41.2677 91.7684 C 41.2175 92.5757 41.1398 93.625 41.0954 94.0994 C 40.7692 97.5815 40.8142 103.8547 41.1659 103.8547 C 41.4883 103.8547 44.064 105.3882 44.7387 105.982 C 46.2586 107.3198 45.7111 107.6872 41.9542 107.851 C 40.435 107.9169 38.4865 108.0265 37.6244 108.0944 C 36.3147 108.1981 35.9865 108.1714 35.6224 107.9332 C 35.1147 107.601 34.7773 106.6196 34.804 105.5546 C 34.8145 105.1128 34.6474 104.3787 34.3962 103.7685 C 34.1612 103.1988 33.8715 102.3055 33.7527 101.7828 C 33.6333 101.2607 33.4376 100.4835 33.3188 100.0561 C 33.1994 99.6293 33.0049 98.8129 32.8868 98.2432 C 32.4822 96.2986 32.2434 95.4809 32.1553 95.74 C 30.7 100.0228 30.206 101.8147 30.0755 103.2817 L 29.9861 104.2867 L 31.0903 104.9392 C 32.5977 105.8306 34.2709 107.2506 34.2709 107.6382 C 34.2709 108.2399 33.7795 108.4207 31.9608 108.4866 C 31.0002 108.5218 30.1728 108.5081 30.1225 108.4566 Z M 32.631 107.0307 C 32.3458 106.7906 31.4329 106.1308 30.6021 105.565 C 29.7714 104.9993 29.0914 104.4178 29.0914 104.2723 C 29.0914 104.1268 29.1619 103.6817 29.2487 103.2837 C 29.3349 102.8856 29.5 102.0157 29.6155 101.3514 C 29.8054 100.2564 31.2064 95.8555 33.311 89.7396 C 33.7443 88.4815 34.0986 87.3851 34.0986 87.3036 C 34.0986 87.222 32.8398 87.0987 31.301 87.0295 C 29.7623 86.961 27.9305 86.8044 27.2303 86.683 L 25.9578 86.4618 L 25.7829 86.914 C 25.4586 87.7538 24.808 91.326 24.686 92.9411 C 24.5829 94.305 24.5757 98.2824 24.667 104.1137 C 24.6788 104.8733 24.6279 105.6616 24.5535 105.8652 C 24.3284 106.4806 24.7884 106.7188 26.7905 107.0248 C 29.1835 107.3896 29.5313 107.4209 31.5086 107.447 L 33.1491 107.4679 Z M 41.5229 107.2937 C 43.2796 107.2402 44.7394 107.1743 44.7674 107.1475 C 44.7955 107.1201 44.5619 106.9322 44.2493 106.7305 C 43.9367 106.5282 42.982 105.9083 42.1272 105.3523 L 40.5734 104.3421 L 40.4253 102.3015 C 40.2804 100.3093 40.3965 98.4814 41.1777 90.4796 C 41.6136 86.0102 41.609 86.2647 41.2468 86.4122 C 40.9467 86.5348 37.6336 87.2089 36.1601 87.4478 C 35.4755 87.5587 35.4905 87.528 34.1534 91.5844 L 33.5328 93.4664 L 33.9811 95.7282 C 34.7088 99.4015 35.2889 101.7965 35.8384 103.3952 C 36.1222 104.2207 36.4002 105.4012 36.4557 106.0186 C 36.5751 107.3452 36.8342 107.6461 37.7243 107.4934 C 38.0564 107.4366 39.7662 107.3465 41.5229 107.2937 Z M 36.2566 86.512 C 39.5188 86.0774 40.9825 85.5286 42.0143 84.3533 C 42.9898 83.2426 42.9709 82.6521 41.7689 76.7528 C 40.8899 72.4374 40.7933 71.1512 41.0726 67.5131 C 41.2566 65.1221 41.0511 64.204 39.9508 62.5021 C 39.2421 61.4051 39.2284 61.3946 38.9752 61.7764 C 38.5217 62.459 38.106 62.3461 32.6708 60.0673 L 29.7277 58.8333 L 29.3812 59.3325 C 29.1906 59.6079 28.5831 60.2657 28.0317 60.7949 C 26.8877 61.8926 26.8747 61.9304 26.0603 66.6524 C 25.8064 68.1246 25.3685 69.9505 25.0873 70.7101 C 24.806 71.4696 24.4517 72.5014 24.3003 73.0032 C 24.0367 73.8744 24.0393 73.9351 24.3675 74.384 C 24.8126 74.9929 25.5382 75.3439 27.6375 75.9665 C 29.6761 76.5701 31.9432 77.0119 33.0042 77.0119 C 33.7155 77.0119 33.7886 76.9688 34.0209 76.4135 C 34.3707 75.5756 34.3329 74.26 33.9322 73.3543 C 33.694 72.8159 33.542 71.8958 33.4219 70.2676 C 33.0643 65.4243 33.0219 64.108 33.2183 63.9866 C 33.4832 63.8229 33.6862 64.45 33.8278 65.8758 C 34.2467 70.0836 34.635 72.4152 35.0527 73.2224 C 35.3789 73.8528 35.3874 75.9678 35.067 76.7339 C 34.7551 77.4805 34.1365 78.0482 33.634 78.0482 C 33.1517 78.0482 33.1524 78.0312 33.5948 79.429 C 33.7899 80.0464 33.9635 81.0043 33.9811 81.5577 C 34.0099 82.4902 33.9714 82.5999 33.4578 83.0599 C 32.7099 83.7294 31.7376 83.9748 29.7819 83.9885 C 26.8486 84.0087 26.1131 83.2772 26.4786 80.7028 C 26.5882 79.9315 26.8323 78.8508 27.0215 78.302 C 27.2101 77.7526 27.3648 77.2449 27.3648 77.1737 C 27.3648 77.0739 25.9435 76.4944 25.6981 76.4944 C 25.5304 76.4944 25.0677 77.7558 24.4321 79.9472 C 24.0334 81.3241 23.6418 82.6638 23.5629 82.9235 C 23.4337 83.3483 23.5061 83.4717 24.284 84.1523 C 25.4214 85.1475 27.3876 86.2595 28.5733 86.5779 C 29.652 86.8677 33.8598 86.8318 36.2566 86.512 Z M 31.9399 82.7454 C 32.7889 82.4556 32.8046 82.4374 32.8587 81.6758 C 32.894 81.174 32.7504 80.3987 32.4509 79.4786 C 31.9999 78.0919 31.9732 78.0541 31.3598 77.9464 C 30.1323 77.7317 28.4826 77.3787 28.2007 77.2697 C 27.8718 77.1437 27.8353 77.2305 27.4555 79.0518 C 27.1781 80.3824 27.1102 82.1489 27.3243 82.4654 C 27.6121 82.8916 28.2196 83.0443 29.6096 83.0423 C 30.5349 83.041 31.3957 82.9314 31.9399 82.7454 Z M 45.2438 80.8967 C 45.4076 80.4692 45.5499 79.8304 45.5603 79.4773 C 45.5779 78.9037 45.5101 78.796 44.9358 78.4848 L 44.2917 78.135 L 43.7631 78.6629 L 43.2352 79.1908 L 43.4401 80.4327 L 43.645 81.6739 L 44.2963 81.6739 C 44.909 81.6739 44.9652 81.6282 45.2438 80.8967 Z M 44.0353 76.8788 C 44.7596 75.9306 44.7779 75.5436 44.1371 74.7638 C 43.446 73.9227 42.9957 72.981 42.5481 71.4416 C 42.3366 70.7127 42.09 70.1612 42.0012 70.2167 C 41.793 70.3453 41.9353 71.7352 42.5043 75.1403 C 43.0101 78.167 43.0323 78.1924 44.0353 76.8788 Z M 38.4147 60.9007 C 38.4147 60.3636 37.522 59.4996 37.2492 59.7724 C 36.9745 60.0471 36.2619 59.5609 35.8925 58.8464 C 35.623 58.325 35.6178 57.5928 35.871 55.5346 C 35.899 55.3068 35.7542 55.1567 35.3933 55.0393 C 33.2287 54.3352 31.0955 53.2545 29.5665 52.0877 L 28.8063 51.5069 L 29.6644 53.4248 C 30.5375 55.3741 30.7196 56.3229 30.424 57.3814 C 30.2915 57.8558 30.3209 57.8806 31.9778 58.6597 C 35.1342 60.1437 37.8098 61.2935 38.1126 61.2968 C 38.3142 61.2987 38.4147 61.1676 38.4147 60.9007 Z M 45.6151 54.758 C 47.2557 54.0278 48.9896 51.7366 50.264 48.6141 C 50.5746 47.8519 50.9303 47.1745 51.0536 47.108 C 51.177 47.0421 51.8994 46.7876 52.659 46.5422 C 54.3856 45.9849 56.0921 45.0798 56.1672 44.6817 C 56.235 44.3228 55.5002 42.6581 54.8751 41.751 C 54.3517 40.9928 54.3282 41.1918 55.4298 37.0415 C 56.2044 34.1232 56.2546 33.8021 56.2553 31.7752 C 56.2559 29.6616 55.9335 27.5296 55.2496 25.1282 L 55.0036 24.2648 L 53.1412 24.1787 C 52.116 24.131 49.4522 24.0945 47.2204 24.0978 C 43.6196 24.103 42.9918 24.1467 41.6436 24.4854 C 38.0701 25.3827 33.9185 28.0406 30.0031 31.9371 C 28.3697 33.5626 28.0584 34.1108 28.0565 35.3637 C 28.0545 36.2551 27.6264 37.0989 27.1096 37.2287 C 26.6535 37.3429 25.3568 36.9507 24.6931 36.4972 C 24.5058 36.3693 24.3068 36.2649 24.25 36.2649 C 24.1939 36.2649 24.0471 36.7706 23.9244 37.3886 C 23.7149 38.4399 23.5009 38.8465 23.2745 38.62 C 23.2216 38.5672 23.3045 37.8976 23.4585 37.1315 C 23.6125 36.366 23.7391 35.2149 23.7391 34.5741 C 23.7391 33.543 23.681 33.3381 23.2392 32.8017 C 22.6389 32.0734 21.3011 31.3139 20.3523 31.1618 C 19.7649 31.0678 19.5796 31.12 19.1156 31.5103 C 18.234 32.2523 17.4509 34.0422 17.3785 35.4825 C 17.3178 36.6878 17.3243 36.7086 18.0794 37.7338 C 18.9786 38.9541 20.6838 40.4766 21.5621 40.8433 C 22.1155 41.075 22.308 41.3491 23.2895 43.3081 C 25.6883 48.096 27.584 50.2129 31.444 52.4166 C 32.9409 53.2715 36.0589 54.3534 38.5922 54.8977 C 40.929 55.3995 44.3257 55.3323 45.6151 54.758 Z M 45.6223 50.0099 C 44.8301 49.7189 43.459 48.6206 43.2124 48.0796 C 42.9977 47.6085 43.1367 47.1419 43.491 47.1419 C 43.63 47.1419 44.1181 47.538 44.5756 48.0222 C 45.653 49.1623 46.115 49.3867 47.3849 49.3867 C 48.1758 49.3867 48.429 49.4468 48.429 49.6341 C 48.429 50.1072 46.5666 50.3571 45.6223 50.0099 Z M 42.041 42.0486 C 42.041 41.8737 42.2159 41.7895 42.5813 41.7895 C 42.8789 41.7895 43.3644 41.6447 43.6607 41.4665 C 44.3061 41.0795 45.9016 40.8257 45.8011 41.1265 C 45.7652 41.2355 45.3704 41.4169 44.9241 41.5305 C 44.4777 41.6434 43.9707 41.8652 43.7971 42.0219 C 43.382 42.3977 42.041 42.418 42.041 42.0486 Z M 41.2938 41.0299 C 41.1633 40.6887 41.3362 40.5712 41.7983 40.6867 C 42.0162 40.7415 42.4697 40.6958 42.8058 40.5849 C 43.4969 40.3572 44.1129 40.4831 44.1129 40.8518 C 44.1129 41.135 43.8395 41.1833 43.6822 40.9281 C 43.615 40.8198 43.3494 40.8518 42.9598 41.0143 C 42.1846 41.338 41.4152 41.3451 41.2938 41.0299 Z M 45.666 37.1537 C 44.7165 36.2049 44.8412 34.5526 45.9551 33.3199 C 46.4876 32.7299 46.6684 32.6386 47.3059 32.6386 C 48.1686 32.6386 48.4251 32.88 48.6045 33.8621 C 48.9152 35.5614 47.7125 37.6457 46.4224 37.6457 C 46.2768 37.6457 45.9368 37.4245 45.666 37.1537 Z M 24.7949 47.2718 C 24.0334 46.2583 22.7948 44.2034 22.0143 42.6575 C 21.6019 41.8404 21.2306 41.4313 20.1584 40.613 C 18.5244 39.3659 17.0757 37.8565 16.7383 37.0493 C 15.9957 35.271 17.1723 31.5638 18.805 30.5367 C 19.8198 29.8978 21.4753 30.3304 22.9358 31.616 C 23.944 32.5035 24.2572 33.2089 24.2572 34.5943 L 24.2572 35.7213 L 25.1636 36.1579 C 27.0587 37.0702 27.2858 36.969 27.5194 35.1092 C 27.6023 34.4481 27.7987 33.6592 27.956 33.3551 C 28.6745 31.9651 33.5824 27.5864 36.3565 25.8597 C 40.6491 23.1881 42.7536 22.8768 52.8358 23.423 C 54.7341 23.5255 54.9723 23.5039 55.6249 23.1711 C 56.9679 22.4859 57.4077 21.4203 57.4077 18.8492 C 57.4077 16.2448 56.8282 15.3031 54.1266 13.517 C 50.0513 10.8213 45.4624 8.7357 41.0047 7.5525 C 39.1723 7.0657 38.7932 7.0246 36.0837 7.0168 C 33.5615 7.009 32.9181 7.0651 31.5086 7.4149 C 24.1639 9.2362 17.1116 13.6116 13.9493 18.3082 C 13.0591 19.6296 12.5006 20.8865 12.0353 22.6093 C 11.632 24.1062 11.5889 24.5715 11.5857 27.4591 C 11.5824 30.889 11.7938 32.5081 12.6167 35.348 C 13.946 39.9343 15.5644 42.063 19.9405 44.9806 C 21.2632 45.8622 25.2282 48.1723 25.4279 48.1769 C 25.4547 48.1775 25.1702 47.7703 24.7949 47.2718 Z M 10.0991 24.7699 C 10.0991 23.7154 10.5846 21.5723 11.1667 20.0623 C 13.1192 14.9912 19.7323 9.7001 27.4033 7.0709 L 29.2539 6.4367 L 28.3651 5.4147 C 27.8764 4.8522 26.9654 3.9771 26.3415 3.4694 C 24.1345 1.6755 22.9071 1.3009 18.8181 1.1743 C 16.5099 1.1032 15.5572 1.145 14.3591 1.3701 C 11.3827 1.93 8.6171 3.2019 5.9742 5.2261 C 3.422 7.1812 1.632 9.9879 1.2796 12.5871 C 0.8157 16.0164 2.3746 21.2819 4.3911 23.0948 C 5.2466 23.8641 7.0294 24.7118 8.837 25.2084 C 10.0841 25.5517 10.0991 25.5465 10.0991 24.7699 Z "/>
        <path id="path29" fill="#7589a7" stroke-width="0.1726586822334695" d="M 28.8324 108.2543 C 24.2429 107.7962 23.5662 107.5195 23.5662 106.0982 C 23.5662 105.6362 23.634 105.0789 23.7169 104.859 C 23.803 104.6306 23.8024 104.0152 23.7143 103.4233 C 23.3417 100.8992 23.4617 92.2468 23.8924 90.6147 C 24.188 89.4936 24.8119 86.8807 24.945 86.2059 C 25.071 85.569 25.0631 85.5579 23.8846 84.6815 C 22.4685 83.6283 22.1148 83.0495 22.2721 82.0413 C 22.4222 81.0761 23.7019 76.8018 24.0308 76.1662 C 24.2729 75.6976 24.269 75.6454 23.9727 75.4816 C 23.3893 75.1586 22.7504 74.3501 22.6389 73.7948 C 22.5103 73.152 22.68 72.4583 23.4683 70.4027 C 23.8487 69.4108 24.235 67.8231 24.5926 65.7838 C 25.4084 61.1375 25.4318 61.0749 26.9112 59.5955 C 28.495 58.0111 29.1613 56.7516 29.0445 55.56 C 29.0001 55.1052 28.5994 53.7231 28.155 52.489 C 27.0907 49.5362 26.7663 49.1981 23.4272 47.5713 C 19.1718 45.4981 15.8965 43.2859 14.1835 41.3282 C 12.0809 38.9241 10.5187 34.1571 10.0913 28.8413 C 9.9921 27.6105 9.8948 26.5964 9.8753 26.5873 C 9.8557 26.5782 8.9271 26.2754 7.8112 25.9139 C 4.2273 24.7536 2.9098 23.6618 1.7534 20.8923 C 0.6369 18.2181 0.3563 16.8523 0.353 14.0724 C 0.3497 11.7459 0.383 11.4849 0.8209 10.384 C 2.1286 7.0971 5.3256 3.9745 9.3284 2.0749 C 12.372 0.6308 14.7271 0.1811 18.559 0.3143 C 22.7524 0.4598 24.3629 0.9512 26.5014 2.7379 C 27.4378 3.5197 29.1632 5.4082 29.6259 6.1567 C 29.714 6.299 30.1858 6.2637 31.3617 6.0255 C 33.5446 5.5831 37.4058 5.5766 39.451 6.0118 C 42.0958 6.5737 45.5623 7.8442 48.7318 9.4124 C 52.024 11.0418 55.6268 13.3128 56.5052 14.3132 C 57.2478 15.1589 57.58 16.3994 57.58 18.3251 C 57.58 20.7977 57.3496 21.5965 56.3473 22.6027 L 55.5028 23.4504 L 55.9603 25.6248 C 56.2709 27.1002 56.4445 28.5476 56.5006 30.1294 C 56.5946 32.7763 56.4034 34.1075 55.386 37.8885 C 54.7707 40.1757 54.7661 40.2155 55.0715 40.7369 C 56.3264 42.8793 56.6364 44.1159 56.1182 44.9075 C 55.7998 45.393 53.7018 46.4534 52.0416 46.9683 L 51.0784 47.2672 L 50.3188 48.9234 C 48.8721 52.0773 47.0991 54.2673 45.405 54.9936 C 43.5537 55.7871 40.4585 55.8635 37.4221 55.1907 L 35.9976 54.8755 L 35.9982 55.8406 L 35.9989 56.8051 L 37.9481 58.7909 C 40.9904 61.8913 41.7552 63.4607 41.6756 66.441 C 41.6338 68.028 41.6469 68.0861 42.5526 70.3446 C 43.0943 71.6941 43.7351 72.9686 44.111 73.4437 C 45.3084 74.9589 45.388 75.3583 44.7211 76.497 L 44.293 77.2266 L 44.8131 77.442 C 45.4905 77.7226 46.0119 78.3986 46.0119 78.997 C 46.0119 79.8369 45.3345 81.7254 44.9325 82.0073 C 44.7244 82.1528 44.2212 82.2723 43.8153 82.2723 C 43.1856 82.2723 43.0766 82.3245 43.0766 82.6266 C 43.0766 83.0756 42.6335 83.9592 42.1285 84.5171 C 41.7369 84.9491 41.7128 85.094 41.4367 88.6609 C 41.3258 90.0933 41.1548 92.451 41.0922 93.409 C 41.055 93.9787 40.9682 95.2995 40.8984 96.3442 C 40.7196 99.0341 40.7933 103.5427 41.0191 103.747 C 41.0589 103.7829 41.4367 103.9865 41.8589 104.1999 C 42.7954 104.6723 44.4046 105.7008 44.9325 106.1641 C 45.1466 106.3514 45.3215 106.6764 45.3215 106.8852 C 45.3215 107.6148 44.9123 107.7368 42.3164 107.7805 C 40.978 107.8033 39.2996 107.8882 38.5876 107.9691 C 35.6609 108.3026 35.1192 108.0409 34.9991 106.2359 C 34.9593 105.6381 34.7107 104.5281 34.4471 103.7685 C 33.9772 102.4177 32.9736 98.486 32.5318 96.2653 C 32.3236 95.2199 32.3001 95.182 32.1553 95.661 C 32.0704 95.9416 31.9419 96.3266 31.8694 96.5165 C 30.9147 99.0113 30.2289 101.5361 30.0338 103.2745 L 29.9143 104.3343 L 31.1209 105.0384 C 33.6705 106.5276 34.5848 107.5528 33.8826 108.1355 C 33.5028 108.4507 31.32 108.5022 28.8324 108.2543 Z M 32.631 107.0307 C 32.3458 106.7906 31.4329 106.1308 30.6021 105.565 C 29.7714 104.9993 29.0914 104.4178 29.0914 104.2723 C 29.0914 104.1268 29.1619 103.6817 29.2487 103.2837 C 29.3349 102.8856 29.5 102.0157 29.6155 101.3514 C 29.8054 100.2564 31.2064 95.8555 33.311 89.7396 C 33.7443 88.4815 34.0986 87.3851 34.0986 87.3036 C 34.0986 87.222 32.8398 87.0987 31.301 87.0295 C 29.7623 86.961 27.9305 86.805 27.2303 86.683 L 25.9578 86.4618 L 25.7829 86.914 C 25.4586 87.7538 24.808 91.326 24.686 92.9411 C 24.5829 94.305 24.5757 98.2824 24.667 104.1137 C 24.6788 104.8733 24.6279 105.6616 24.5535 105.8652 C 24.3284 106.4806 24.7891 106.7188 26.7905 107.0248 C 29.1835 107.3896 29.5313 107.4209 31.5086 107.447 L 33.1491 107.4679 Z M 41.5229 107.2937 C 43.2796 107.2402 44.74 107.1749 44.7674 107.1475 C 44.7955 107.1201 44.5625 106.9322 44.2493 106.7305 C 43.9367 106.5282 42.982 105.9083 42.1272 105.3523 L 40.5734 104.3421 L 40.4253 102.3015 C 40.2804 100.3093 40.3965 98.4814 41.1777 90.4796 C 41.6136 86.0102 41.609 86.2647 41.2468 86.4122 C 40.9467 86.5348 37.6336 87.2089 36.1607 87.4478 C 35.4755 87.5587 35.4905 87.528 34.1534 91.5844 L 33.5328 93.4664 L 33.9811 95.7282 C 34.7088 99.4015 35.2895 101.7965 35.8384 103.3952 C 36.1222 104.2207 36.4002 105.4012 36.4557 106.0186 C 36.5751 107.3452 36.8342 107.6461 37.7243 107.4934 C 38.0564 107.4366 39.7662 107.3465 41.5229 107.2937 Z M 35.5467 86.5936 C 39.5613 86.1374 41.4224 85.4477 42.3281 84.0799 C 42.7504 83.4417 42.7732 83.3033 42.6825 81.974 C 42.629 81.1916 42.2185 78.7647 41.7695 76.5806 C 41.0086 72.8746 40.9584 72.4655 41.01 70.451 C 41.1437 65.3022 41.1111 64.5439 40.7209 63.7171 C 40.5192 63.2904 40.0768 62.5569 39.7374 62.0883 L 39.1214 61.2367 L 38.9452 61.7 C 38.8167 62.0374 38.6477 62.1634 38.3233 62.1634 C 37.9285 62.1634 35.1466 61.0892 31.0987 59.3743 L 29.7388 58.7981 L 29.2879 59.4017 C 29.0399 59.7339 28.4004 60.4328 27.8672 60.9548 L 26.8975 61.9043 L 26.519 63.9762 C 26.3115 65.1162 25.9898 66.8677 25.8051 67.8694 C 25.6198 68.8711 25.1571 70.5176 24.7767 71.5277 C 23.9773 73.6479 23.9335 74.1145 24.4837 74.6646 C 25.272 75.4529 29.7877 76.7763 32.3119 76.9591 L 33.7188 77.0609 L 33.9948 76.5271 C 34.3746 75.7936 34.3446 74.2763 33.9309 73.2264 C 33.6836 72.5992 33.5426 71.6152 33.4167 69.6372 C 33.3207 68.1383 33.1981 66.2706 33.1432 65.4869 C 33.061 64.296 33.0865 64.063 33.3018 64.063 C 33.4754 64.063 33.5896 64.3025 33.6516 64.7965 C 33.7025 65.1998 33.9342 67.0452 34.1658 68.8972 C 34.4536 71.1962 34.7003 72.5105 34.9437 73.041 C 35.3502 73.9292 35.4214 75.4686 35.1042 76.5277 C 34.8712 77.3043 34.0862 78.0482 33.4995 78.0482 L 33.0995 78.0482 L 33.5126 79.3494 C 34.0373 81.0011 34.0581 82.3225 33.5694 82.9438 C 33.0871 83.5565 31.598 83.9755 29.8687 83.984 C 28.2849 83.9924 27.4163 83.7477 26.8362 83.1304 C 26.1732 82.4243 26.3024 80.7988 27.291 77.4035 C 27.3824 77.0902 27.3112 76.9832 26.9093 76.8298 C 25.5545 76.3137 25.5728 76.3019 24.9874 78.0749 C 24.6944 78.9624 24.2572 80.3948 24.0158 81.2582 C 23.7737 82.1215 23.5303 82.949 23.4735 83.0965 C 23.2236 83.7484 26.9119 86.2601 28.7025 86.6575 C 29.7845 86.897 33.1504 86.8657 35.5467 86.5936 Z M 31.7109 82.8805 C 32.0593 82.7819 32.5213 82.5581 32.738 82.3825 C 33.1126 82.0791 33.1224 82.0125 32.9403 81.0337 C 32.8352 80.4673 32.567 79.5445 32.3445 78.9827 C 31.9889 78.0834 31.8786 77.9555 31.4224 77.9085 C 31.1372 77.8798 30.2498 77.703 29.4491 77.5163 C 28.649 77.3297 27.9384 77.237 27.8692 77.3101 C 27.6356 77.5594 27.1337 80.2017 27.12 81.2588 C 27.1044 82.4445 27.3008 82.7969 28.1204 83.0514 C 28.7364 83.2426 30.7705 83.1461 31.7109 82.8805 Z M 45.2719 81.0265 C 45.4252 80.6702 45.557 80.034 45.5655 79.6124 C 45.5786 78.9252 45.5192 78.8045 44.988 78.443 L 44.3961 78.0404 L 43.8095 78.6055 C 43.2457 79.1491 43.228 79.2058 43.3331 80.1201 C 43.5073 81.6321 43.5334 81.6739 44.3061 81.6739 C 44.9358 81.6739 45.0167 81.6197 45.2719 81.0265 Z M 43.7233 77.3141 C 44.0209 77.0054 44.3811 76.5264 44.524 76.2491 C 44.819 75.6774 44.7616 75.5136 43.848 74.3168 C 43.4917 73.8496 43.059 72.8929 42.7079 71.792 C 42.3967 70.8171 42.0802 69.9459 42.0051 69.8552 C 41.7878 69.5955 41.8472 71.2497 42.12 73.058 C 42.5324 75.7936 42.9409 77.8753 43.0649 77.8753 C 43.1288 77.8753 43.4251 77.6227 43.7233 77.3141 Z M 38.4558 61.0488 C 38.5569 60.5189 37.7053 59.6308 37.1768 59.7169 C 36.7232 59.7906 36.0596 59.1616 35.8175 58.4294 C 35.6785 58.0072 35.6811 57.5034 35.8266 56.5408 C 35.9362 55.8185 36.0002 55.2083 35.9689 55.1855 C 35.9369 55.162 35.2895 54.929 34.53 54.6673 C 32.8685 54.0944 31.301 53.2682 29.7649 52.1549 L 28.6255 51.3294 L 29.5613 53.3367 C 30.4853 55.3192 30.4958 55.359 30.4162 56.6603 L 30.3359 57.9771 L 31.7422 58.6238 C 33.9622 59.6451 38.1452 61.4717 38.2653 61.4723 C 38.3253 61.4723 38.4114 61.2824 38.4558 61.0488 Z M 45.3143 54.9303 C 45.8044 54.7443 46.47 54.39 46.7937 54.1427 C 47.8848 53.3106 49.5814 50.5653 50.5746 48.0242 C 50.9264 47.1256 50.9701 47.0858 51.8511 46.86 C 53.0655 46.5494 55.2164 45.6456 55.7613 45.2168 C 56.0021 45.0276 56.1972 44.7033 56.1952 44.4964 C 56.1906 44.0259 55.649 42.8186 54.9619 41.7465 L 54.4359 40.9262 L 55.063 38.7055 C 56.6618 33.0458 56.7303 30.8538 55.4663 25.8186 L 55.0767 24.2648 L 51.4504 24.0475 C 42.6309 23.5183 39.4405 24.3301 33.8532 28.5248 C 31.6632 30.1686 28.7019 32.9642 28.354 33.716 C 28.2111 34.0259 28.0402 34.8025 27.9749 35.4427 C 27.8764 36.4045 27.7798 36.6662 27.417 36.9514 C 26.9132 37.3475 26.5517 37.3038 25.1428 36.6773 C 24.6324 36.4502 24.1894 36.2649 24.1587 36.2649 C 24.1274 36.2649 24.0119 36.7197 23.9029 37.2757 C 23.6908 38.3551 23.4826 38.8282 23.2999 38.6461 C 23.2386 38.5841 23.3058 38.0033 23.4506 37.356 C 23.8748 35.4551 23.9675 34.2817 23.7476 33.6142 C 23.3619 32.4448 21.4055 31.0966 20.0834 31.0887 C 18.9512 31.0822 17.7805 32.7077 17.3132 34.935 C 17.002 36.4196 17.3805 37.2013 19.3558 39.1506 C 20.4071 40.1881 21.164 40.7924 21.5314 40.8877 C 22.045 41.0208 22.2023 41.2479 23.3058 43.4405 C 24.8987 46.6081 25.8704 48.0353 27.462 49.5473 C 28.8826 50.8968 31.1105 52.4342 32.6016 53.0933 C 34.5326 53.9469 38.1706 54.944 40.7457 55.3245 C 41.855 55.4889 44.4301 55.2664 45.3143 54.9303 Z M 45.2347 49.8076 C 44.4914 49.4233 43.0766 47.9883 43.0766 47.6183 C 43.0766 46.9272 43.6352 47.0675 44.4425 47.9609 C 45.5531 49.1897 45.9904 49.4213 47.225 49.4324 C 48.3774 49.4435 48.6966 49.6386 47.9964 49.9049 C 47.317 50.1633 45.8213 50.1104 45.2347 49.8076 Z M 42.1604 42.1974 C 41.9568 41.9938 42.2296 41.7895 42.7053 41.7895 C 42.9644 41.7895 43.4812 41.6342 43.8538 41.4443 C 44.2323 41.2512 44.8386 41.107 45.2282 41.1174 L 45.9258 41.135 L 45.0624 41.398 C 44.5873 41.5429 44.0137 41.8065 43.7873 41.984 C 43.3912 42.2953 42.3895 42.4264 42.1604 42.1974 Z M 41.4654 41.1565 C 41.2103 40.9014 41.38 40.7539 41.9288 40.7539 C 42.2472 40.7539 42.7536 40.6678 43.0545 40.5627 C 43.4695 40.4185 43.6639 40.4237 43.8571 40.5842 C 44.2265 40.8903 44.173 41.1435 43.7827 40.9347 C 43.5445 40.8074 43.2828 40.8296 42.8391 41.0149 C 42.1826 41.289 41.6527 41.3438 41.4654 41.1565 Z M 46.0843 37.4467 C 45.1257 36.986 44.8268 35.3285 45.4729 34.0605 C 46.1189 32.7945 47.3294 32.262 48.168 32.8748 C 48.6822 33.2507 48.7429 35.0009 48.275 35.9673 C 47.6642 37.2287 46.8191 37.7997 46.0843 37.4467 Z M 24.4373 46.6675 C 23.8787 45.8361 23.0023 44.3796 22.4894 43.4301 C 21.6411 41.86 21.4244 41.5983 20.101 40.5444 C 16.7533 37.8793 16.0349 36.4705 16.7657 34.0083 C 17.1658 32.6595 17.7452 31.6056 18.4676 30.9125 C 19.0275 30.3748 19.1966 30.3089 19.9933 30.32 C 20.9839 30.3331 21.7246 30.6522 22.8164 31.5364 C 23.7972 32.3306 24.2572 33.3362 24.2572 34.6863 L 24.2572 35.7611 L 25.3359 36.2721 C 26.4636 36.8052 27.0926 36.9103 27.2858 36.5977 C 27.3491 36.4959 27.4692 35.8629 27.5533 35.1914 C 27.7609 33.5385 28.1785 32.895 30.501 30.6456 C 34.0647 27.1948 38.2777 24.4469 41.0772 23.7473 C 43.6509 23.1039 47.3425 23.0256 52.5591 23.5046 C 54.8672 23.716 55.6568 23.5222 56.5287 22.5296 C 57.2596 21.697 57.4534 20.7886 57.3738 18.5705 C 57.2693 15.6653 56.8086 15.0577 52.9056 12.6798 C 46.8778 9.0078 40.5603 6.8478 35.9114 6.8693 C 29.3714 6.9006 20.5004 10.9642 15.6616 16.1456 C 12.3857 19.6531 11.3527 22.7221 11.5354 28.4086 C 11.6711 32.6568 12.4523 35.9745 14.0843 39.2347 C 15.3823 41.828 18.7385 44.6511 23.5662 47.2111 C 24.5633 47.7403 25.3953 48.1743 25.4155 48.1756 C 25.4351 48.1769 24.9953 47.4982 24.4373 46.6675 Z M 10.1644 24.3601 C 10.4162 21.9077 11.4114 19.1226 12.7139 17.2295 C 13.5558 16.0059 15.7073 13.8185 17.2708 12.5956 C 20.0318 10.4375 24.0288 8.2808 27.3648 7.1506 C 28.2666 6.8452 29.0699 6.5378 29.1495 6.468 C 29.3388 6.3022 27.2134 4.0548 25.9428 3.0772 C 24.7088 2.1277 23.8435 1.7427 22.1781 1.4014 C 17.6806 0.4807 13.2223 1.0706 9.2501 3.1138 C 4.3376 5.6405 1.465 9.2042 1.1674 13.1424 C 0.9442 16.0881 2.3251 20.8923 3.9493 22.8226 C 4.4935 23.4687 6.1419 24.3588 7.9404 24.9761 C 10.0084 25.6868 10.0293 25.6809 10.1644 24.3601 Z "/>
        <path id="path27" fill="#5f6d98" stroke-width="0.1726586822334695" d="M 29.0914 108.2517 C 24.3766 107.7962 23.5662 107.4973 23.5662 106.215 C 23.5662 105.8176 23.6334 105.2583 23.7156 104.9719 C 23.8011 104.6743 23.7978 103.9708 23.7084 103.3326 C 23.5002 101.8447 23.4376 97.2892 23.5831 94.1862 C 23.6947 91.7965 23.944 90.1651 24.5483 87.8837 C 25.1865 85.4712 25.2263 85.6643 23.882 84.6678 C 22.4614 83.6146 22.1148 83.0488 22.2721 82.0413 C 22.4222 81.0761 23.7019 76.8018 24.0308 76.1662 C 24.2729 75.6976 24.2683 75.6454 23.9727 75.4816 C 23.4102 75.1704 22.7517 74.3579 22.6506 73.8515 C 22.5214 73.2074 22.7302 72.3252 23.4572 70.4379 C 23.8657 69.3782 24.254 67.7774 24.6918 65.3518 C 25.0423 63.4052 25.4364 61.5545 25.5669 61.2387 C 25.6968 60.9235 26.2985 60.1854 26.904 59.5988 C 28.8174 57.7435 29.4921 56.0299 28.8996 54.529 C 28.7939 54.2614 28.4043 53.1899 28.033 52.1471 C 27.107 49.5447 26.752 49.206 22.9801 47.3298 C 17.3276 44.5179 14.1228 41.9488 12.665 39.0605 C 11.3351 36.4261 10.3125 32.2842 10.1259 28.7747 L 10.0123 26.6434 L 8.0063 25.9856 C 5.7954 25.26 5.1898 24.9846 4.0942 24.2022 C 1.4872 22.343 -0.4275 15.5328 0.5227 11.5019 C 1.3573 7.9597 4.5262 4.5051 8.9839 2.2785 C 12.1286 0.7071 14.8152 0.1616 18.7247 0.3006 C 21.7363 0.4076 23.8461 0.8924 25.2478 1.7982 C 26.3696 2.5232 28.172 4.259 29.0914 5.5009 C 29.7721 6.4197 29.4921 6.3884 32.458 5.88 C 37.2446 5.0591 42.6042 6.2807 49.4424 9.7504 C 52.2198 11.1593 55.7241 13.4237 56.5052 14.3132 C 57.2563 15.1687 57.58 16.3961 57.58 18.3884 C 57.58 20.6235 57.2498 21.6996 56.2611 22.6882 L 55.4989 23.4504 L 55.8376 25.1066 C 56.8413 30.0166 56.7949 32.3423 55.5975 37.0056 L 54.7857 40.1692 L 55.5785 41.721 C 57.0599 44.6191 56.5796 45.4028 52.4749 46.7882 L 51.0823 47.2581 L 50.341 48.8745 C 48.7214 52.4055 46.9196 54.4781 44.849 55.1933 C 43.8304 55.545 43.3833 55.594 41.3499 55.5724 C 39.7342 55.5561 38.5556 55.4445 37.5083 55.209 L 35.9976 54.869 L 35.9976 55.8596 L 35.9976 56.8502 L 37.4841 58.2956 C 39.3472 60.1071 40.3482 61.3946 41.055 62.8884 C 41.5731 63.9834 41.6097 64.187 41.6371 66.129 C 41.6664 68.1898 41.6717 68.212 42.5344 70.3348 C 43.0114 71.5088 43.6196 72.7709 43.8865 73.1389 C 44.1534 73.5076 44.5462 74.0545 44.7603 74.354 C 45.264 75.0614 45.2516 75.6846 44.7172 76.4722 C 44.4797 76.822 44.2852 77.1424 44.2852 77.1842 C 44.2852 77.2266 44.5514 77.3721 44.8764 77.5079 C 45.2014 77.6436 45.6021 77.9607 45.7678 78.2133 C 46.0282 78.6114 46.0432 78.8065 45.8794 79.6868 C 45.5205 81.6177 44.9704 82.2723 43.7083 82.2723 C 43.1915 82.2723 43.1328 82.3316 42.9429 83.0397 C 42.83 83.4619 42.5069 84.0701 42.225 84.3912 C 41.8009 84.8741 41.6978 85.1671 41.6286 86.0846 C 41.5829 86.6941 41.4661 88.1643 41.3695 89.3513 C 41.2723 90.5383 41.1535 92.1704 41.1059 92.977 C 41.0582 93.7842 40.9604 95.2995 40.8879 96.3442 C 40.7463 98.3887 40.7424 100.6277 40.8768 102.56 C 40.9832 104.0922 40.9773 104.0648 41.1496 103.9584 C 41.2292 103.9088 41.8707 104.2136 42.5742 104.6345 C 44.7211 105.9194 45.2301 106.3312 45.2882 106.8284 C 45.3756 107.571 44.8497 107.7335 42.2642 107.7603 C 41.0106 107.7733 39.6507 107.8327 39.2428 107.8914 C 38.8349 107.9502 37.8952 108.0122 37.1552 108.0291 C 35.4331 108.0683 35.1101 107.8112 35.0122 106.3253 C 34.9757 105.7739 34.6442 104.3513 34.2754 103.1642 C 33.9067 101.9772 33.401 100.0737 33.1504 98.9343 C 32.9005 97.7943 32.6003 96.4859 32.4841 96.0264 L 32.2721 95.1905 L 31.8753 96.4578 C 31.6567 97.1554 31.4113 97.881 31.3298 98.0709 C 30.9154 99.0361 30.2817 101.3175 30.1316 102.387 C 29.8569 104.3389 29.8347 104.2762 31.0335 104.996 C 32.9227 106.1308 34.0986 107.1129 34.0986 107.556 C 34.0986 107.7759 34.0014 108.0331 33.8826 108.127 C 33.4989 108.4298 31.4798 108.4827 29.0914 108.2517 Z M 33.2353 107.4849 C 33.2353 107.3916 33.0212 107.1834 32.7602 107.0216 C 32.4992 106.8604 32.2075 106.6398 32.1128 106.5315 C 32.0176 106.4238 31.3435 105.9337 30.6139 105.443 C 29.8843 104.9523 29.2474 104.4857 29.1985 104.4067 C 28.8552 103.8507 30.6615 97.5502 33.5628 89.183 C 33.9407 88.0932 34.2291 87.1802 34.203 87.1541 C 34.1776 87.1287 33.1935 87.0673 32.0169 87.0184 C 29.9163 86.9303 27.4228 86.6954 26.3781 86.4866 C 25.8945 86.39 25.8338 86.4304 25.6674 86.9597 C 25.2465 88.3026 24.7728 91.1726 24.5868 93.5023 C 24.4086 95.7387 24.4667 101.4062 24.6931 103.8547 C 24.7323 104.2821 24.6814 105.0025 24.5789 105.4554 C 24.4426 106.0603 24.4458 106.3422 24.59 106.5165 C 25.054 107.0751 33.2353 107.9919 33.2353 107.4849 Z M 42.2381 106.9602 C 43.3442 106.9759 44.293 106.9165 44.3478 106.8284 C 44.4601 106.647 43.8245 106.1804 41.6625 104.8583 C 40.7202 104.2821 40.1264 103.8024 40.0663 103.5682 C 40.0135 103.3633 39.9645 102.081 39.958 100.7191 C 39.9463 98.4292 40.0435 96.9772 40.499 92.6318 C 40.5936 91.7299 40.747 90.1762 40.8396 89.179 C 40.9323 88.1819 41.055 87.036 41.1124 86.6321 C 41.1777 86.1746 41.1496 85.8986 41.038 85.8986 C 40.9395 85.8986 40.2125 86.0474 39.4216 86.2301 C 38.63 86.4128 37.3014 86.6621 36.4681 86.7848 L 34.9535 87.008 L 34.7029 87.791 C 34.5658 88.2217 34.143 89.4681 33.7638 90.5599 C 33.3853 91.6523 33.0721 92.7943 33.0689 93.0977 C 33.0545 94.3709 34.6474 101.4584 35.394 103.4416 C 35.6387 104.0909 35.8808 105.09 35.9323 105.6629 C 36.0818 107.31 35.9108 107.2049 38.2039 107.0594 C 39.3172 106.9889 41.1326 106.9446 42.2381 106.9602 Z M 36.5157 86.0043 C 39.729 85.4868 41.2879 84.722 41.9986 83.3131 C 42.4769 82.3636 42.4711 82.3023 41.3147 76.4018 L 40.452 71.9995 L 40.5727 69.0643 C 40.6399 67.4498 40.6817 65.7505 40.6667 65.2885 C 40.6315 64.1955 40.1283 62.9066 39.282 61.7386 L 38.602 60.8015 L 38.4264 61.2641 C 38.3188 61.5473 38.1204 61.7262 37.9129 61.7262 C 37.4619 61.7262 35.482 60.9829 32.0398 59.5211 L 29.2043 58.3178 L 28.5687 59.1635 C 28.219 59.6288 27.6166 60.2807 27.2297 60.6116 C 26.3676 61.3496 26.2971 61.5611 25.6289 65.438 C 25.3046 67.318 24.855 69.2281 24.4915 70.2728 C 23.3541 73.537 23.3378 73.9155 24.3049 74.5106 C 25.7588 75.4046 30.6876 76.6399 32.4071 76.5408 C 33.2078 76.4951 33.3462 76.4305 33.5459 76.0128 C 33.897 75.2774 33.8428 73.6753 33.4362 72.7761 C 33.1478 72.1379 33.0388 71.2758 32.8274 67.9419 C 32.597 64.3208 32.629 63.3073 32.9638 63.6421 C 33.0082 63.6858 33.247 65.4256 33.4956 67.5079 C 33.7906 69.9792 34.0738 71.6256 34.31 72.2508 C 34.7577 73.4326 34.8817 74.8995 34.6161 75.8843 C 34.3773 76.7711 33.5994 77.611 33.0153 77.611 L 32.5964 77.611 L 33.0023 79.0114 C 33.4349 80.5051 33.5204 81.7398 33.2294 82.2834 C 32.6284 83.4064 28.4239 83.9794 26.8734 83.15 C 25.8488 82.6018 25.6987 80.9808 26.4277 78.3223 C 26.6717 77.4315 26.8075 76.6458 26.7298 76.576 C 26.5517 76.4168 25.488 76.0566 25.195 76.0566 C 24.9261 76.0566 24.6331 76.8351 23.7463 79.9061 C 23.3684 81.2164 23.0128 82.363 22.956 82.4543 C 22.7531 82.7832 23.0604 83.2361 23.9662 83.9435 C 25.1473 84.8656 27.0456 85.909 28.0486 86.1877 C 29.0817 86.4742 34.2963 86.3613 36.5157 86.0037 Z M 30.7255 82.53 C 31.4107 82.3845 32.0743 82.1287 32.2681 81.9349 C 32.5775 81.6262 32.5912 81.5035 32.4195 80.5808 C 32.3158 80.0229 32.0489 79.1073 31.8264 78.5454 C 31.4707 77.6462 31.3604 77.5183 30.9043 77.4713 C 30.6191 77.442 29.7316 77.2658 28.9316 77.0791 C 28.1309 76.8918 27.4202 76.7992 27.351 76.8729 C 27.2825 76.946 27.0887 77.6279 26.921 78.3875 C 26.5432 80.0992 26.5008 81.7691 26.8251 82.16 C 27.3465 82.7884 28.8376 82.9294 30.7255 82.53 Z M 44.7537 80.5893 C 44.9071 80.233 45.0389 79.5967 45.0474 79.1752 C 45.0604 78.488 45.0011 78.3666 44.4699 78.0058 L 43.878 77.6031 L 43.292 78.1683 C 42.7275 78.7119 42.7099 78.7686 42.815 79.6829 C 42.9892 81.1949 43.0153 81.2366 43.7879 81.2366 C 44.4177 81.2366 44.4986 81.1825 44.7537 80.5893 Z M 43.9609 75.9345 C 44.3518 75.3048 44.2989 75.1332 43.3253 73.8528 C 42.9768 73.3947 42.5141 72.3506 42.101 71.0905 L 41.4367 69.0643 L 41.3819 69.927 C 41.3199 70.9163 41.5346 72.6762 42.0723 75.5861 L 42.4482 77.6181 L 43.0329 77.0537 C 43.3546 76.7424 43.7723 76.2393 43.9609 75.9345 Z M 37.9377 60.6116 C 38.0388 60.083 37.1872 59.1935 36.6612 59.279 C 36.2201 59.3508 35.6739 58.8686 35.3626 58.1325 C 35.1662 57.6685 35.1564 57.3004 35.3111 56.1721 C 35.4155 55.4086 35.4768 54.7659 35.4475 54.7443 C 35.4174 54.7234 34.7721 54.4918 34.0118 54.2301 C 32.3504 53.6571 30.7829 52.831 29.2468 51.7177 L 28.108 50.8922 L 29.0432 52.8989 C 29.9672 54.882 29.9776 54.9218 29.898 56.223 L 29.8178 57.5399 L 31.224 58.1866 C 33.4441 59.2079 37.627 61.0344 37.7471 61.0351 C 37.8078 61.0351 37.8933 60.8445 37.9377 60.6116 Z M 44.7883 54.4957 C 45.283 54.3084 45.9519 53.9528 46.2755 53.7054 C 47.3666 52.8734 49.0633 50.1281 50.0572 47.587 C 50.4082 46.6884 50.452 46.6486 51.3336 46.4228 C 52.5474 46.1122 54.6982 45.2083 55.2431 44.7796 C 55.4839 44.5904 55.679 44.266 55.6771 44.0592 C 55.6725 43.5887 55.1309 42.3814 54.4437 41.3092 L 53.9184 40.489 L 54.5455 38.2683 C 55.4023 35.2332 55.8533 32.7926 55.8533 31.1899 C 55.8533 29.7953 55.3926 26.8992 54.8607 24.95 L 54.554 23.8276 L 50.9303 23.6103 C 42.7092 23.1163 39.5906 23.7806 34.7238 27.0604 C 32.2127 28.7532 28.2862 32.3025 27.8313 33.2911 C 27.6923 33.5939 27.5246 34.347 27.4587 34.9637 C 27.3915 35.5908 27.2179 36.2199 27.0659 36.3882 C 26.6613 36.8372 25.6602 36.7641 24.5535 36.2062 L 23.5929 35.7213 L 23.3932 36.7791 C 23.2836 37.3606 23.1263 37.9459 23.0441 38.079 C 22.7309 38.5854 22.68 38.0516 22.9325 36.9188 C 23.3515 35.0407 23.4493 33.8426 23.2366 33.1978 C 22.8372 31.9886 20.9206 30.6593 19.5653 30.6515 C 18.433 30.6443 17.2623 32.2705 16.7951 34.4977 C 16.4858 35.9732 16.8649 36.7615 18.822 38.7088 C 19.8935 39.7757 20.6061 40.3448 20.9963 40.4459 C 21.5314 40.5842 21.6717 40.7859 22.7876 43.0033 C 23.4533 44.3267 24.3655 45.9614 24.8145 46.6362 C 25.8443 48.1834 27.8346 50.0817 29.7036 51.3001 C 31.4714 52.4525 32.4437 52.891 34.9822 53.6793 C 36.6756 54.2053 37.4991 54.3985 40.1414 54.8885 C 41.1111 55.0687 43.9021 54.8331 44.7883 54.4957 Z M 44.7172 49.3704 C 43.9739 48.9861 42.5585 47.5511 42.5585 47.1804 C 42.5585 46.49 43.1171 46.6303 43.9243 47.5237 C 45.035 48.7524 45.4729 48.9835 46.7069 48.9952 C 47.8593 49.0063 48.1784 49.2014 47.4789 49.4677 C 46.7989 49.7261 45.3032 49.6732 44.7172 49.3704 Z M 41.6423 41.7602 C 41.4387 41.5566 41.7115 41.3523 42.1872 41.3523 C 42.4463 41.3523 42.9631 41.197 43.3357 41.0071 C 43.7142 40.8139 44.3204 40.6697 44.71 40.6795 L 45.4076 40.6978 L 44.5443 40.9608 C 44.0692 41.105 43.4956 41.3693 43.2691 41.5468 C 42.8737 41.8581 41.8713 41.9892 41.6423 41.7602 Z M 40.9473 40.7193 C 40.6922 40.4642 40.8618 40.3167 41.4106 40.3167 C 41.7291 40.3167 42.2355 40.2306 42.5363 40.1255 C 42.9513 39.9813 43.1458 39.9858 43.339 40.147 C 43.7083 40.4531 43.6548 40.7063 43.2652 40.4975 C 43.027 40.3702 42.7647 40.3924 42.321 40.5777 C 41.6645 40.8518 41.1346 40.9066 40.9473 40.7193 Z M 45.5662 37.0095 C 44.6076 36.5488 44.3087 34.8912 44.9554 33.6233 C 45.6008 32.3573 46.8113 31.8242 47.6498 32.4369 C 48.1641 32.8135 48.2247 34.5637 47.7569 35.5301 C 47.1467 36.7915 46.301 37.3625 45.5662 37.0095 Z M 23.9218 46.2303 C 23.3652 45.3989 22.4946 43.9456 21.9863 43.0007 C 21.119 41.3869 20.9546 41.1931 19.2892 39.8338 C 17.342 38.2448 16.4212 37.172 16.1086 36.1305 C 15.6792 34.6955 16.6026 31.7968 17.8908 30.5393 C 18.4905 29.9539 18.6771 29.8704 19.3878 29.8717 C 20.3986 29.8736 21.5745 30.4303 22.5351 31.3628 C 23.4415 32.2425 23.7391 32.959 23.7391 34.2654 L 23.7391 35.3043 L 24.7701 35.8251 C 25.9382 36.4143 26.5908 36.4842 26.8166 36.043 C 26.9021 35.8766 27.0215 35.2423 27.0822 34.6335 C 27.2349 33.1058 27.6852 32.4239 30.0318 30.168 C 33.649 26.6904 37.415 24.2087 40.2758 23.4171 C 42.9716 22.6719 45.8859 22.5851 51.8928 23.0732 C 54.1109 23.2533 54.2708 23.2449 54.9149 22.9133 C 56.4262 22.1368 56.9059 21.1188 56.9235 18.6501 C 56.9391 16.5612 56.6461 15.5472 55.7769 14.6773 C 53.7383 12.6393 47.6909 9.3856 43.0662 7.839 C 37.3066 5.9133 33.4362 5.9211 27.7772 7.8697 C 19.9065 10.5792 13.3861 15.9831 11.7527 21.1514 C 11.0669 23.3225 10.9057 24.8326 11.012 28.1 C 11.1452 32.1733 11.8734 35.3206 13.4402 38.59 C 14.6971 41.212 17.9338 44.0083 22.7896 46.6655 C 23.8337 47.2372 24.7434 47.7129 24.8113 47.7227 C 24.8785 47.7325 24.4784 47.061 23.9218 46.2303 Z M 10.1735 24.3888 C 10.7106 19.5239 13.1871 15.6072 17.9554 12.0807 C 20.5983 10.1263 24.2761 8.1992 27.3648 7.1512 C 28.2666 6.8452 29.079 6.5287 29.1691 6.4484 C 29.267 6.3616 28.5955 5.5772 27.5109 4.5129 C 26.1895 3.2149 25.3855 2.5754 24.5842 2.1845 C 21.5836 0.7208 15.8606 0.5864 12.0314 1.8889 C 6.7403 3.688 2.4647 7.5591 1.435 11.4823 C 0.8398 13.7513 1.2229 17.0911 2.4229 20.0864 C 3.5225 22.8305 4.688 23.8648 7.9293 24.9742 C 10.0038 25.6842 10.0312 25.677 10.1735 24.3888 Z "/>
        <path id="path25" fill="#5d5f5f" stroke-width="0.1726586822334695" d="M 31.0772 108.3894 C 26.0113 107.9743 24.4615 107.7192 23.8944 107.2062 C 23.5355 106.8813 23.4552 105.8802 23.7156 104.9725 C 23.8004 104.6756 23.7972 104.0093 23.7078 103.42 C 23.5342 102.2728 23.4931 93.5604 23.6556 92.3068 C 23.7854 91.3045 24.0119 90.186 24.4647 88.3157 C 25.1852 85.34 25.2472 85.6982 23.8207 84.6052 C 22.2238 83.3823 22.0887 83.0691 22.4353 81.3972 C 22.665 80.2865 23.7913 76.6497 24.1437 75.8804 C 24.2272 75.6976 24.0986 75.5195 23.7234 75.2983 C 23.4076 75.1116 23.0461 74.6692 22.8535 74.2339 C 22.4594 73.3432 22.5462 72.8002 23.4637 70.4242 C 23.8787 69.3501 24.2598 67.7885 24.6853 65.4236 C 25.0246 63.5325 25.3881 61.7216 25.4919 61.3992 C 25.6002 61.0651 26.1803 60.3218 26.8401 59.6725 C 28.3175 58.2179 29.0875 56.9095 29.0895 55.8485 C 29.0908 55.3369 28.7887 54.2268 28.2203 52.6541 C 27.0711 49.4761 26.8355 49.2334 23.1387 47.4179 C 17.8882 44.8396 14.1835 41.9416 12.8216 39.3476 C 11.4016 36.6427 10.3105 32.3671 10.1232 28.7747 L 10.0123 26.6434 L 8.0063 25.9856 C 5.7954 25.26 5.1898 24.9846 4.0942 24.2022 C 1.4872 22.343 -0.4275 15.5328 0.5227 11.5019 C 1.1113 9.0045 3.1101 6.2259 5.753 4.2316 C 7.2265 3.1203 10.1389 1.6272 11.9119 1.0738 C 16.1706 -0.2554 22.6114 0.0943 25.2465 1.7969 C 26.3402 2.5036 28.2046 4.3054 29.1189 5.5381 C 29.7682 6.4145 29.5006 6.3871 32.458 5.88 C 35.9871 5.2744 39.6839 5.7632 44.2617 7.439 C 46.6749 8.3219 51.5052 10.7462 53.6469 12.1499 C 57.1715 14.4587 57.6876 15.3409 57.5395 18.8061 C 57.4429 21.0796 57.1441 21.9423 56.1613 22.7835 L 55.4735 23.3721 L 55.9655 25.7579 C 56.3956 27.8435 56.4562 28.5026 56.4452 30.9928 C 56.4328 33.8099 56.4236 33.8765 55.6255 36.9344 C 55.1824 38.635 54.7824 40.0635 54.7374 40.1092 C 54.6917 40.1542 54.8072 40.4054 54.9938 40.6671 C 55.6425 41.5775 56.3714 43.3374 56.3714 43.9933 C 56.3714 45.0837 55.2699 45.8459 52.2191 46.8672 L 51.0882 47.2463 L 50.3436 48.8686 C 48.7214 52.4055 46.9209 54.4774 44.849 55.1933 C 43.8271 55.5463 43.3886 55.5933 41.3499 55.5692 C 39.7616 55.5502 38.538 55.4347 37.5083 55.205 L 35.9976 54.869 L 35.9976 55.8596 L 35.9976 56.8502 L 37.4841 58.2956 C 39.3472 60.1071 40.3482 61.3946 41.055 62.8884 C 41.5731 63.9847 41.6097 64.1857 41.6364 66.1336 C 41.6645 68.1774 41.6775 68.2414 42.4821 70.2513 C 42.9311 71.3737 43.5608 72.6541 43.8806 73.0958 C 45.345 75.1162 45.4233 75.4314 44.7172 76.4722 C 44.4797 76.822 44.2852 77.1424 44.2852 77.1842 C 44.2852 77.2266 44.5514 77.3721 44.8764 77.5079 C 45.2014 77.6436 45.6021 77.9607 45.7678 78.2133 C 46.0282 78.6114 46.0432 78.8065 45.8794 79.6868 C 45.5205 81.6177 44.9704 82.2723 43.709 82.2723 C 43.1915 82.2723 43.1328 82.3316 42.9429 83.0397 C 42.83 83.4619 42.5056 84.0714 42.2218 84.3951 C 41.8048 84.8695 41.6912 85.1788 41.6299 86.0017 C 41.5888 86.5622 41.3865 89.2352 41.1809 91.9414 C 40.638 99.0831 40.6452 104.348 41.1966 104.0165 C 41.3134 103.9467 42.7732 104.7369 43.9811 105.5239 C 45.2556 106.354 45.6295 107.0007 45.0709 107.4092 C 44.682 107.6937 42.7908 107.8947 41.5464 107.7838 C 41.0113 107.7355 40.1068 107.7616 39.5371 107.8412 C 38.9674 107.9208 37.8913 107.9985 37.1461 108.0135 C 35.3639 108.0494 35.1257 107.8366 34.9659 106.0675 C 34.9032 105.3725 34.5724 103.9499 34.2311 102.9052 C 33.8891 101.8604 33.4128 100.1122 33.172 99.0204 C 32.9312 97.928 32.6421 96.6151 32.5298 96.1015 L 32.3249 95.169 L 32.0123 95.9906 C 31.8407 96.4428 31.6476 97.0542 31.5823 97.3499 C 31.5177 97.6455 31.3996 98.0057 31.32 98.1512 C 30.995 98.745 30.2909 101.2561 30.1316 102.387 C 29.8569 104.3395 29.8347 104.2762 31.0335 104.9953 C 31.6273 105.351 32.3589 105.8424 32.6597 106.0871 C 32.9605 106.3312 33.4075 106.6705 33.6522 106.8415 C 34.1717 107.2023 34.2493 107.9078 33.7965 108.144 C 33.4663 108.3156 31.9001 108.4572 31.0772 108.39 Z M 33.2353 107.5175 C 33.2353 107.3152 31.9386 106.2705 30.516 105.3262 C 29.8249 104.8674 29.2644 104.3708 29.265 104.2181 C 29.2657 104.0654 29.4138 103.0833 29.5946 102.0346 C 29.8288 100.6747 30.5467 98.2693 32.0972 93.6524 C 33.2927 90.0913 34.2709 87.1228 34.2709 87.0562 C 34.2709 86.989 33.3743 86.9342 32.2786 86.9342 C 30.1617 86.9342 27.2388 86.6764 26.4688 86.4226 C 26.1451 86.3156 25.9506 86.3345 25.8247 86.4859 C 25.4958 86.882 24.793 90.6225 24.5881 93.0684 C 24.4549 94.6495 24.4249 97.0281 24.5006 99.9699 C 24.5639 102.4392 24.6174 104.5757 24.6194 104.718 C 24.6214 104.8603 24.5705 105.3353 24.5065 105.7732 C 24.393 106.5491 24.404 106.5746 24.9281 106.7573 C 25.2243 106.8604 26.0681 107.0287 26.8042 107.1312 C 27.5396 107.2337 28.6079 107.3831 29.1776 107.4647 C 30.5291 107.6565 33.2353 107.6918 33.2353 107.5175 Z M 42.672 106.9628 C 43.6633 106.9628 44.4581 106.8911 44.4581 106.8017 C 44.4581 106.6144 43.5608 105.9631 41.5907 104.7213 L 40.191 103.8383 L 40.08 102.5254 C 39.8667 100.0032 39.9437 98.7927 40.9989 88.0566 C 41.0922 87.1071 41.1705 86.2242 41.1731 86.095 C 41.1783 85.8353 40.9708 85.8536 38.6738 86.3123 C 37.9142 86.4637 36.7611 86.6856 36.1118 86.8044 L 34.9313 87.0204 L 34.5815 87.9705 C 34.389 88.4925 34.1267 89.2698 33.9988 89.6965 C 33.8702 90.124 33.6013 90.9397 33.4004 91.51 C 33.1132 92.3231 33.0532 92.8054 33.1198 93.7542 C 33.2255 95.2499 34.4647 100.8117 35.1571 102.9006 C 35.4403 103.7522 35.7365 104.9705 35.8168 105.6075 C 35.8971 106.2444 36.0211 106.8604 36.0922 106.9759 C 36.1894 107.1338 36.8061 107.1586 38.5543 107.0744 C 39.8373 107.0131 41.6899 106.9628 42.672 106.9628 Z M 35.3072 86.1648 C 39.4425 85.663 41.2292 84.8989 42.056 83.2785 C 42.4939 82.4204 42.4848 82.3382 41.318 76.4018 L 40.452 71.9995 L 40.5832 69.2366 C 40.8077 64.495 40.6993 63.8098 39.4223 61.8965 C 38.6751 60.778 38.4689 60.6501 38.384 61.2511 C 38.3481 61.501 38.1896 61.6596 37.939 61.6948 C 37.5787 61.7464 33.8069 60.316 30.5682 58.9005 L 29.1965 58.3008 L 28.5492 59.1687 C 28.1929 59.6458 27.5925 60.3016 27.214 60.6253 C 26.3735 61.3451 26.2985 61.5695 25.6387 65.3518 C 25.0547 68.6975 24.8139 69.6438 24.0712 71.514 C 23.4213 73.15 23.4206 73.7106 24.0686 74.3155 C 24.9633 75.1514 30.0781 76.5675 32.2212 76.5727 C 33.3736 76.5753 33.5211 76.4403 33.7554 75.1743 C 33.9283 74.2378 33.8924 74.0062 33.3429 72.5053 C 33.1113 71.8723 32.8209 68.5879 32.6812 65.0216 C 32.6225 63.5377 32.9533 63.0952 33.1165 64.4389 C 33.172 64.8937 33.386 66.6641 33.5922 68.3732 C 33.8428 70.4536 34.1025 71.8449 34.3779 72.581 C 35.0442 74.3631 34.8615 76.1832 33.9231 77.1222 C 33.6294 77.4159 33.2496 77.611 32.971 77.611 C 32.5957 77.611 32.5318 77.6684 32.6362 77.9131 C 33.0003 78.7712 33.4075 80.5501 33.4075 81.2836 C 33.4075 82.329 32.9586 82.8269 31.6704 83.2094 C 30.5082 83.5546 27.9116 83.5702 27.1135 83.2368 C 26.1392 82.8296 25.9206 82.3121 26.0289 80.6689 C 26.0805 79.8852 26.3135 78.657 26.5497 77.9216 L 26.9771 76.593 L 26.1908 76.3248 C 25.7581 76.1773 25.3098 76.0566 25.1943 76.0566 C 24.9163 76.0566 24.6344 76.8057 23.6425 80.1854 L 22.8111 83.0195 L 23.4043 83.5232 C 24.8595 84.7585 26.9308 85.9358 28.157 86.2229 C 29.1906 86.4657 33.0884 86.4337 35.3072 86.1648 Z M 30.7255 82.53 C 31.4107 82.3845 32.0743 82.1287 32.2681 81.9349 C 32.5775 81.6262 32.5912 81.5035 32.4195 80.5808 C 32.3158 80.0229 32.0489 79.1073 31.8264 78.5454 C 31.4707 77.6462 31.3604 77.5183 30.9043 77.4713 C 30.6191 77.442 29.7316 77.2658 28.9316 77.0791 C 28.1309 76.8925 27.4202 76.7992 27.351 76.8729 C 27.2825 76.9467 27.0887 77.6279 26.921 78.3875 C 26.5432 80.0992 26.5008 81.7691 26.8251 82.16 C 27.3465 82.7884 28.8376 82.9294 30.7255 82.53 Z M 44.7537 80.5893 C 44.9071 80.233 45.0389 79.5967 45.0474 79.1752 C 45.0604 78.488 45.0011 78.3666 44.4699 78.0058 L 43.878 77.6031 L 43.292 78.1683 C 42.7275 78.7119 42.7099 78.7686 42.815 79.6829 C 42.9892 81.1949 43.0153 81.2366 43.7879 81.2366 C 44.4177 81.2366 44.4986 81.1825 44.7537 80.5893 Z M 43.9537 75.9469 C 44.3491 75.3087 44.2885 75.0875 43.3925 73.9044 C 42.9494 73.3184 42.5344 72.4107 42.0893 71.0546 L 41.4367 69.0643 L 41.3865 70.1867 C 41.3558 70.8706 41.5418 72.5072 41.8616 74.3781 C 42.15 76.0663 42.3862 77.4994 42.3862 77.5627 C 42.3862 77.7656 43.6046 76.5094 43.9537 75.9469 Z M 37.9377 60.6116 C 38.0388 60.083 37.1872 59.1935 36.6612 59.279 C 36.2201 59.3508 35.6739 58.8692 35.3626 58.1331 C 35.1662 57.6685 35.1564 57.3004 35.3111 56.1721 C 35.4155 55.4086 35.4768 54.7659 35.4475 54.745 C 35.4174 54.7234 34.7721 54.4918 34.0118 54.2301 C 32.3504 53.6571 30.7829 52.831 29.2468 51.7177 L 28.108 50.8922 L 29.0432 52.8989 C 29.9672 54.882 29.9776 54.9218 29.898 56.223 L 29.8178 57.5399 L 31.224 58.1866 C 33.4441 59.2079 37.627 61.0344 37.7471 61.0351 C 37.8071 61.0351 37.8933 60.8445 37.9377 60.6116 Z M 44.7883 54.4957 C 45.283 54.3084 45.9519 53.9528 46.2755 53.7054 C 47.3666 52.8734 49.0633 50.1281 50.0565 47.587 C 50.4082 46.6884 50.452 46.6486 51.3329 46.4228 C 52.5474 46.1122 54.6982 45.2083 55.2431 44.7796 C 55.4839 44.5904 55.679 44.266 55.6771 44.0592 C 55.6725 43.5887 55.1309 42.3814 54.4437 41.3092 L 53.9184 40.489 L 54.5455 38.2683 C 55.4023 35.2332 55.8533 32.7926 55.8533 31.1899 C 55.8533 29.7953 55.3926 26.8999 54.8607 24.95 L 54.554 23.8276 L 50.9303 23.6103 C 42.7092 23.1163 39.5906 23.7806 34.7238 27.0604 C 32.2127 28.7532 28.2862 32.3025 27.8313 33.2911 C 27.6923 33.5939 27.5246 34.347 27.4587 34.9643 C 27.3915 35.5908 27.2179 36.2199 27.0659 36.3882 C 26.6613 36.8372 25.6602 36.7641 24.5535 36.2062 L 23.5929 35.7213 L 23.3932 36.7791 C 23.2836 37.3606 23.1263 37.9459 23.0441 38.079 C 22.7309 38.5854 22.68 38.0516 22.9325 36.9188 C 23.3515 35.0407 23.4493 33.8426 23.2366 33.1978 C 22.8372 31.9886 20.9206 30.6593 19.5653 30.6515 C 18.433 30.6443 17.2623 32.2705 16.7951 34.4977 C 16.4858 35.9732 16.8649 36.7615 18.822 38.7088 C 19.8935 39.7757 20.6061 40.3448 20.9963 40.4459 C 21.5314 40.5842 21.6717 40.7859 22.7876 43.0033 C 23.4533 44.3267 24.3655 45.9621 24.8145 46.6362 C 25.8443 48.1834 27.8346 50.0817 29.7036 51.3001 C 31.4714 52.4525 32.4437 52.891 34.9822 53.6793 C 36.6756 54.2053 37.4991 54.3985 40.1414 54.8885 C 41.1111 55.0687 43.9021 54.8331 44.7883 54.4957 Z M 44.7172 49.3704 C 43.9739 48.9861 42.5585 47.5511 42.5585 47.1804 C 42.5585 46.49 43.1171 46.6303 43.9243 47.5237 C 45.035 48.7524 45.4729 48.9835 46.7069 48.9952 C 47.8593 49.0063 48.1784 49.2014 47.4789 49.4677 C 46.7989 49.7261 45.3032 49.6732 44.7172 49.3704 Z M 41.6423 41.7602 C 41.4387 41.5566 41.7115 41.3523 42.1872 41.3523 C 42.4463 41.3523 42.9631 41.197 43.3357 41.0071 C 43.7142 40.8139 44.3204 40.6697 44.71 40.6795 L 45.4076 40.6978 L 44.5443 40.9608 C 44.0692 41.105 43.4956 41.3693 43.2691 41.5468 C 42.8737 41.8581 41.8713 41.9892 41.6423 41.7602 Z M 40.9473 40.7193 C 40.6922 40.4642 40.8618 40.3167 41.4106 40.3167 C 41.7291 40.3167 42.2355 40.2306 42.5363 40.1255 C 42.9513 39.9813 43.1458 39.9865 43.339 40.147 C 43.7083 40.4531 43.6548 40.7063 43.2652 40.4975 C 43.027 40.3702 42.7647 40.3924 42.321 40.5777 C 41.6645 40.8518 41.1346 40.9066 40.9473 40.7193 Z M 45.5662 37.0095 C 44.6076 36.5488 44.3087 34.8912 44.9554 33.6233 C 45.6008 32.3573 46.8113 31.8242 47.6498 32.4369 C 48.1641 32.8135 48.2247 34.5637 47.7569 35.5301 C 47.1461 36.7915 46.301 37.3625 45.5662 37.0095 Z M 23.9342 46.2303 C 23.3756 45.3989 22.5475 44.02 22.0933 43.1652 C 21.1001 41.2982 20.9259 41.0926 19.1848 39.7411 C 17.5854 38.4999 16.4042 37.1171 16.1132 36.1448 C 15.6923 34.7392 16.4982 32.0917 17.7779 30.675 C 18.8259 29.5147 19.962 29.5389 21.7794 30.7592 C 23.1302 31.6662 23.5851 32.4389 23.7162 34.0475 L 23.8252 35.3846 L 24.7747 35.8616 C 25.8743 36.415 26.5934 36.4789 26.8166 36.043 C 26.9021 35.8766 27.0202 35.2534 27.0796 34.6576 C 27.139 34.0618 27.3119 33.3342 27.4633 33.0419 C 27.8548 32.2836 30.2798 29.7999 32.1722 28.2174 C 35.5577 25.3879 38.4584 23.7865 41.2788 23.1907 C 43.3657 22.7502 47.642 22.6843 51.6383 23.0321 C 54.1762 23.2533 54.261 23.2501 54.9547 22.8957 C 56.4641 22.1257 56.9411 21.0587 56.9411 18.4511 C 56.9411 15.8526 56.4556 14.9409 54.2682 13.4341 C 49.8327 10.3775 43.5204 7.5976 39.0131 6.7153 C 36.8492 6.2918 33.8147 6.3225 31.5947 6.7916 C 25.5402 8.07 19.7421 11.1515 15.6237 15.2803 C 12.9182 17.993 11.9628 19.6955 11.2698 23.0419 C 10.9755 24.4606 10.9403 25.1373 11.0179 27.8853 C 11.1393 32.1876 11.8349 35.2665 13.4363 38.59 C 14.701 41.2133 17.8777 43.9574 22.7896 46.6688 C 23.8337 47.245 24.7473 47.722 24.8184 47.7286 C 24.8902 47.7351 24.4921 47.061 23.9342 46.2303 Z M 10.1735 24.3888 C 10.7732 18.9562 13.6014 14.9266 19.5953 10.9661 C 21.739 9.5494 25.2034 7.8632 27.4561 7.1395 C 28.4454 6.8217 29.2565 6.4836 29.2598 6.389 C 29.2624 6.2937 28.4656 5.433 27.4887 4.4757 C 24.6351 1.6788 22.9717 1.0712 18.1276 1.0556 C 15.2289 1.0464 14.2299 1.1861 11.9857 1.915 C 9.1274 2.843 6.662 4.3661 4.4714 6.5561 C 1.9009 9.1265 0.9755 11.4347 1.1824 14.7628 C 1.373 17.8364 2.7009 21.5364 4.1183 22.9447 C 4.9131 23.7343 6.2907 24.4632 8.1133 25.0577 C 9.9947 25.6718 10.0332 25.6594 10.1735 24.3888 Z "/>
        <path id="path23" fill="#060607" stroke-width="0.1726586822334695" d="M 30.6269 108.268 C 30.5852 108.2262 30.0866 108.1779 29.5189 108.1603 C 27.879 108.1101 24.7427 107.6454 24.2207 107.3759 C 23.6053 107.0575 23.4617 106.444 23.7156 105.2159 C 23.8696 104.4681 23.8716 103.9225 23.7228 102.9626 C 23.5923 102.124 23.5557 100.0352 23.6151 96.7756 C 23.7058 91.7495 23.7469 91.3828 24.5868 88.1114 C 25.1956 85.7413 25.1989 85.5012 24.6272 85.1638 C 24.3538 85.002 23.7313 84.5112 23.2438 84.0734 C 22.4105 83.3236 22.3576 83.227 22.3576 82.4452 C 22.3576 81.482 23.3867 77.7532 24.0014 76.4886 C 24.3003 75.8732 24.3597 75.605 24.2089 75.5554 C 24.0928 75.5169 23.7065 75.1958 23.3502 74.8421 C 22.4666 73.9631 22.4744 73.2081 23.3919 70.7949 C 23.8924 69.48 24.2494 68.0489 24.6957 65.5704 C 25.0338 63.6936 25.394 61.8736 25.4964 61.5258 C 25.6159 61.1219 26.0746 60.5156 26.7696 59.8441 C 27.988 58.6663 28.9916 57.1249 29.1619 56.1695 C 29.2415 55.7238 29.1671 55.2338 28.9139 54.529 C 28.7149 53.9769 28.2849 52.7507 27.9586 51.8045 C 27.4639 50.3708 27.229 49.946 26.551 49.2575 C 26.1033 48.8033 25.6178 48.4307 25.4723 48.4307 C 25.3261 48.4301 24.1287 47.8865 22.8111 47.2228 C 17.5704 44.5812 14.0974 41.7543 12.7355 39.0213 C 11.2091 35.9595 10.1102 31.3093 10.1024 27.8794 L 10.0991 26.5782 L 8.4155 26.075 C 4.9536 25.0401 3.2569 23.8557 2.1887 21.727 C 0.9501 19.2603 0.3582 16.7544 0.3608 13.9862 C 0.3621 12.283 0.432 11.7146 0.753 10.7919 C 2.4197 6.006 7.7361 1.902 13.9838 0.5792 C 15.5872 0.2392 20.2394 0.2836 22.0124 0.6555 C 24.2435 1.1234 25.4475 1.7897 27.1879 3.5216 C 28.0101 4.3386 28.9492 5.3325 29.2755 5.7286 L 29.868 6.4497 L 31.4224 6.1202 C 32.2766 5.9394 33.6757 5.741 34.53 5.6803 C 39.2173 5.3469 46.6605 7.8155 53.0042 11.8086 C 55.6001 13.4426 56.466 14.1918 57.0148 15.2809 C 57.4599 16.1638 57.4932 16.3759 57.488 18.3023 C 57.4847 19.4423 57.3848 20.7044 57.2654 21.1077 C 57.0644 21.789 56.0301 23.0856 55.5635 23.2416 C 55.4134 23.2918 55.4474 23.6742 55.6914 24.6909 C 56.265 27.078 56.59 29.9089 56.4934 31.6832 C 56.404 33.3447 55.8441 36.1566 55.0819 38.7792 L 54.6636 40.2162 L 55.2594 41.197 C 56.3832 43.047 56.6337 44.2863 56.0177 44.9473 C 55.559 45.44 53.9582 46.2433 52.3712 46.7778 L 51.1137 47.2013 L 49.9462 49.4996 C 48.0616 53.2108 46.8498 54.4944 44.5547 55.2096 C 42.661 55.8002 39.5436 55.6814 36.4726 54.9029 L 35.9976 54.7822 L 35.9976 55.8152 L 35.9976 56.8482 L 37.7686 58.6395 C 39.6572 60.5496 40.67 61.9265 41.2338 63.3491 C 41.5079 64.0402 41.5862 64.6575 41.5999 66.2152 C 41.6162 68.1938 41.6195 68.2088 42.5246 70.4549 C 43.1301 71.9584 43.6672 72.9927 44.1384 73.5624 C 45.2934 74.9596 45.3737 75.5854 44.539 76.6817 L 44.1292 77.2207 L 44.8125 77.5287 C 45.1883 77.6978 45.5832 77.9418 45.6895 78.0697 C 46.1613 78.6381 45.6608 81.221 44.9554 81.8598 C 44.7276 82.0661 44.3348 82.1796 43.8408 82.1822 C 43.2815 82.1855 43.0766 82.2553 43.0734 82.4452 C 43.0662 82.8681 42.396 84.2247 41.9653 84.6894 C 41.6181 85.064 41.5477 85.3739 41.4367 87.0204 C 41.3669 88.0651 41.2834 89.2698 41.2514 89.6965 C 41.2194 90.124 41.1437 91.2895 41.083 92.2866 C 41.0224 93.2837 40.8827 95.2649 40.7724 96.6895 C 40.6275 98.5708 40.623 99.9406 40.7548 101.6966 C 40.8546 103.0259 40.9238 104.1353 40.9088 104.1614 C 40.8938 104.1875 40.7065 104.0674 40.4938 103.8951 C 40.1199 103.5923 40.1068 103.4814 40.1055 100.567 C 40.1048 98.347 40.2634 96.0069 40.7091 91.6823 C 41.0413 88.4534 41.286 85.7824 41.2514 85.7459 C 41.2175 85.71 40.4918 85.8457 39.6396 86.0487 C 38.7867 86.251 37.4828 86.4983 36.7415 86.5981 C 34.8399 86.8539 34.8197 86.8644 34.6161 87.6788 C 34.5169 88.0762 34.3609 88.535 34.2696 88.6981 C 34.1776 88.8612 34.0288 89.2887 33.9381 89.6476 C 33.8467 90.0072 33.5739 90.8809 33.3312 91.5903 C 33.0884 92.299 32.89 93.0161 32.89 93.1845 C 32.89 94.3272 34.7544 102.3042 35.3417 103.6765 C 35.5238 104.1007 35.7176 104.9555 35.7724 105.5761 C 35.9349 107.4098 35.8821 107.3733 38.1302 107.2121 C 39.1886 107.1364 40.9245 107.0947 41.9868 107.1195 C 43.0492 107.1449 44.079 107.1142 44.2748 107.0522 C 44.9573 106.8356 44.8692 106.7475 42.2564 105.0397 C 41.6632 104.6514 41.1777 104.2638 41.1777 104.177 C 41.1777 103.8162 44.8523 106.0629 45.1394 106.6 C 45.2582 106.8219 45.2373 107.0118 45.0696 107.2408 C 44.8581 107.5299 44.4934 107.5802 41.8387 107.6839 C 40.1929 107.7485 38.2124 107.8562 37.4378 107.9234 C 36.0759 108.0415 36.0145 108.0311 35.5819 107.5984 C 35.2523 107.2689 35.1277 106.9557 35.1088 106.4095 C 35.069 105.2557 35.0742 105.2786 34.3244 102.9052 C 33.9342 101.6705 33.418 99.767 33.1765 98.6752 C 32.9357 97.5828 32.6453 96.2712 32.5324 95.7602 L 32.3262 94.8303 L 31.3363 97.8321 C 30.2719 101.0591 30.1636 101.4911 30.0187 103.0761 C 29.9665 103.6445 29.8902 104.1646 29.8491 104.2312 C 29.808 104.2984 30.3 104.6665 30.9434 105.0502 C 32.6773 106.0845 34.1293 107.2787 34.064 107.6167 C 33.974 108.0853 33.2268 108.3385 31.9256 108.3417 C 31.2534 108.343 30.6687 108.3097 30.6269 108.268 Z M 33.3684 107.5776 C 33.5374 107.4079 32.3295 106.4166 30.4038 105.1441 C 29.5717 104.594 29.3531 104.3584 29.3636 104.0217 C 29.4073 102.62 30.148 99.6887 31.4257 95.86 C 32.956 91.2738 34.1632 87.7238 34.3492 87.2631 C 34.4471 87.0204 34.1273 86.9747 31.6463 86.8781 C 28.4454 86.7528 26.4949 86.5048 26.2893 86.1962 C 26.1125 85.9293 25.4658 86.6484 25.4658 87.1124 C 25.4658 87.284 25.3509 87.8772 25.2106 88.4312 C 24.6227 90.7511 24.4308 92.9378 24.4302 97.3309 C 24.4288 105.3706 24.4784 106.6209 24.8073 106.8049 C 25.1343 106.9876 28.1054 107.4568 30.2139 107.6578 C 31.7539 107.8053 33.1772 107.7688 33.3684 107.5776 Z M 37.0339 85.9834 C 37.9357 85.8203 39.0686 85.539 39.5508 85.3596 C 40.5714 84.9785 41.7591 84.0205 42.1519 83.2596 C 42.5206 82.547 42.4006 81.4572 41.4126 76.5747 C 40.4722 71.9278 40.3678 70.7055 40.6556 67.7167 C 40.8494 65.7042 40.8422 65.3107 40.5956 64.3482 C 40.2921 63.1677 39.7635 62.1595 38.9472 61.208 C 38.4897 60.6749 38.4284 60.6468 38.4219 60.9711 C 38.418 61.1734 38.3011 61.4331 38.1621 61.548 C 37.8306 61.8234 37.0737 61.5721 32.6323 59.7104 L 29.1802 58.2636 L 28.848 58.7433 C 28.6653 59.0069 28.063 59.664 27.509 60.2037 C 26.9549 60.7427 26.4264 61.3836 26.3337 61.6276 C 26.241 61.871 25.8893 63.6343 25.5526 65.5456 C 25.1016 68.1011 24.7577 69.5035 24.2527 70.8432 C 23.4017 73.1017 23.3704 73.7889 24.0889 74.3938 C 24.9796 75.1436 29.16 76.3398 32.0411 76.6693 C 33.1615 76.7979 33.4591 76.6073 33.7456 75.5763 C 34.0125 74.6144 33.9648 73.9311 33.5655 73.0064 C 33.1609 72.0687 32.9684 70.4001 32.7935 66.3013 C 32.7158 64.4787 32.7334 63.5977 32.8463 63.7119 C 32.9403 63.8065 33.2235 65.5939 33.4747 67.6828 C 33.8128 70.4875 34.0542 71.8266 34.3988 72.8009 C 34.8327 74.0284 34.8523 74.1987 34.6742 75.2376 C 34.4308 76.6569 34.0686 77.209 33.2092 77.4661 C 32.7015 77.6181 32.5566 77.7382 32.6349 77.9425 C 32.9403 78.7366 33.4075 80.697 33.4075 81.1818 C 33.4075 81.8996 33.1341 82.4902 32.6656 82.7826 C 31.2005 83.6975 27.5977 83.7131 26.4818 82.8093 C 25.8678 82.3121 25.8404 80.7192 26.4107 78.6466 C 26.6587 77.7447 26.8779 76.899 26.8975 76.7679 C 26.919 76.6217 26.5823 76.4089 26.0257 76.2171 L 25.1186 75.9045 L 24.8341 76.4546 C 24.5554 76.9936 23.0852 81.7528 22.9253 82.6338 C 22.8594 82.9973 22.986 83.2041 23.5936 83.7275 C 24.5711 84.57 26.4981 85.7146 27.6075 86.112 C 28.3782 86.388 28.9139 86.418 31.9399 86.3541 C 34.1482 86.3071 35.9845 86.1733 37.0339 85.9834 Z M 31.7265 82.3082 C 32.5057 81.9636 32.5442 81.914 32.5442 81.2549 C 32.5442 80.6082 31.8407 78.0821 31.5523 77.6952 C 31.425 77.5235 27.3941 76.6491 27.2943 76.7718 C 27.1729 76.9206 26.673 79.198 26.5706 80.0738 C 26.2991 82.3793 26.7833 82.842 29.3525 82.7349 C 30.4436 82.6893 31.1529 82.562 31.7265 82.3082 Z M 44.4098 81.2699 C 44.693 81.0898 45.157 79.7403 45.1844 79.0166 C 45.2001 78.5866 45.0957 78.3477 44.789 78.1108 C 44.0516 77.5424 43.8075 77.5496 43.181 78.1604 L 42.5937 78.7327 L 42.7797 79.9413 C 42.8822 80.6063 43.0492 81.2073 43.151 81.2771 C 43.3938 81.4435 44.1429 81.4396 44.4098 81.2699 Z M 44.2271 75.5717 C 44.3015 75.278 44.1149 74.8643 43.5171 73.9977 C 42.9324 73.1494 42.5226 72.2521 42.0449 70.7707 L 41.3826 68.7184 L 41.3663 70.2122 C 41.3519 71.5427 41.6808 74.0225 42.2303 76.7248 L 42.4188 77.6514 L 43.2731 76.8109 C 43.7429 76.3489 44.1723 75.791 44.2278 75.5717 Z M 38.0016 60.5913 C 38.0904 60.2389 37.997 60.0275 37.5513 59.5675 C 37.0697 59.0702 36.9425 59.0167 36.656 59.1916 C 36.3689 59.3671 36.2488 59.313 35.7901 58.804 L 35.2582 58.2127 L 35.3659 56.4514 L 35.4736 54.6895 L 34.1384 54.2197 C 32.3967 53.6056 30.6433 52.6848 29.3309 51.6942 C 28.7502 51.2563 28.1916 50.8465 28.0891 50.7832 C 27.9866 50.7199 28.3423 51.5826 28.8787 52.7005 C 29.7231 54.4598 29.8556 54.8729 29.8615 55.7695 C 29.8654 56.3392 29.8106 56.9618 29.7401 57.1536 C 29.6259 57.4636 29.8347 57.6052 31.6391 58.4379 C 34.7818 59.8879 37.4437 61.0318 37.6779 61.0338 C 37.7948 61.0344 37.9403 60.8354 38.0016 60.5913 Z M 44.9802 54.5016 C 46.7708 53.8105 48.3416 51.7654 49.8934 48.1071 L 50.4337 46.8332 L 52.2707 46.1865 C 53.2815 45.8309 54.462 45.3323 54.8946 45.0791 C 55.5498 44.6954 55.681 44.5323 55.681 44.1022 C 55.681 43.4692 55.3162 42.5713 54.618 41.4828 C 53.9908 40.5059 53.9869 40.5634 54.954 36.8633 C 56.2513 31.8986 56.2435 30.2717 54.8946 24.9037 L 54.618 23.8002 L 51.3936 23.5953 C 44.2956 23.1444 41.4772 23.4517 38.1008 25.044 C 36.2886 25.8982 34.7349 26.8914 32.663 28.5183 C 30.9956 29.8273 28.1204 32.619 27.7941 33.2448 C 27.6682 33.4869 27.4868 34.2491 27.3915 34.9389 C 27.2956 35.6286 27.1246 36.3047 27.0111 36.4417 C 26.688 36.8307 25.8214 36.7361 24.6566 36.1853 L 23.589 35.6802 L 23.3306 36.8124 C 23.1883 37.435 22.9801 38.0314 22.8679 38.1378 C 22.7132 38.2839 22.6904 38.2435 22.7733 37.9688 C 23.0382 37.0871 23.3939 34.8599 23.3939 34.0768 C 23.3939 33.0158 23.0833 32.3952 22.2055 31.6995 C 21.305 30.9863 20.4573 30.6476 19.5737 30.6476 C 18.9571 30.6476 18.7561 30.7474 18.2033 31.3289 C 16.9693 32.6255 16.3057 35.3317 16.9269 36.5331 C 17.6545 37.9413 20.1832 40.3565 21.1269 40.5451 C 21.5249 40.6247 21.7037 40.8564 22.1775 41.9031 C 23.1152 43.975 24.7773 46.813 25.7248 47.9602 C 27.368 49.9499 30.5401 52.1497 33.2353 53.169 C 34.7107 53.7276 37.2264 54.4357 38.7964 54.7352 C 40.6543 55.0895 43.7625 54.9721 44.9802 54.5016 Z M 44.8608 49.3998 C 44.1273 49.0657 42.5017 47.4806 42.5977 47.1928 C 42.7601 46.704 43.2502 46.8933 44.0535 47.756 C 45.0572 48.8334 45.6778 49.1218 46.9907 49.1218 C 48.3324 49.1218 47.984 49.4468 46.5176 49.5616 C 45.7541 49.6217 45.2366 49.5714 44.8608 49.3998 Z M 41.8107 41.755 C 41.5529 41.4972 41.7284 41.3641 42.2988 41.3856 C 42.6368 41.398 43.0349 41.2877 43.2058 41.1331 C 43.3729 40.9817 43.9367 40.8139 44.4588 40.7604 L 45.4076 40.6632 L 44.5227 40.8916 C 44.0366 41.0176 43.4238 41.289 43.1615 41.4952 C 42.6968 41.8607 42.0423 41.9866 41.8107 41.755 Z M 41.0478 40.72 C 40.6367 40.5542 40.8351 40.3408 41.393 40.3493 C 41.7017 40.3539 42.2844 40.2991 42.6884 40.2279 C 43.1856 40.1398 43.4218 40.1594 43.4218 40.288 C 43.4218 40.393 43.305 40.4335 43.1628 40.3787 C 43.0199 40.3239 42.5911 40.4041 42.2094 40.5568 C 41.4805 40.8485 41.3956 40.8603 41.0478 40.72 Z M 45.2836 36.7334 C 44.4966 35.8309 44.4359 34.9043 45.08 33.6116 C 46.04 31.6858 47.7947 31.7289 48.0231 33.684 C 48.2619 35.7331 46.3082 37.9081 45.2836 36.7334 Z M 24.9255 47.585 C 23.9355 46.2126 22.9286 44.6073 22.0287 42.9687 C 21.1327 41.3367 20.8234 40.9334 19.9816 40.3017 C 18.6295 39.2869 17.0698 37.786 16.6339 37.0806 C 16.1177 36.2453 15.9722 35.4035 16.1517 34.2928 C 16.3501 33.0621 17.37 30.9797 18.0578 30.4009 C 19.3369 29.3248 22.0006 30.3135 23.2451 32.3266 C 23.5348 32.7958 23.6334 33.2383 23.6523 34.1519 L 23.6764 35.3585 L 24.6142 35.8433 C 25.6165 36.3628 26.5223 36.4809 26.8062 36.1292 C 26.9027 36.011 27.0365 35.4087 27.1044 34.7914 C 27.1716 34.1741 27.353 33.3969 27.507 33.0647 C 27.8946 32.2281 31.2541 28.9313 33.3279 27.3528 C 36.6795 24.8012 39.0549 23.6175 41.7748 23.1431 C 43.6268 22.82 47.5807 22.7946 51.5692 23.0798 L 54.4509 23.286 L 55.2816 22.7789 C 56.5815 21.9854 56.9607 21.0587 56.9692 18.6534 C 56.977 16.31 56.6944 15.4499 55.5753 14.4182 C 53.6352 12.6302 47.7797 9.4483 43.846 8.0446 C 40.3965 6.8138 38.3755 6.4138 35.5662 6.4053 C 33.8624 6.4008 32.7152 6.4915 31.6815 6.712 C 25.1884 8.0981 18.1081 12.0533 14.4837 16.3185 C 11.8421 19.426 10.9011 22.2614 10.9024 27.1081 C 10.9037 31.4248 11.8558 35.6547 13.5655 38.9411 C 14.9568 41.6153 18.1981 44.2941 23.3071 46.9938 C 24.2566 47.4956 25.0625 47.9074 25.0984 47.91 C 25.1336 47.9119 25.056 47.7658 24.9255 47.585 Z M 10.1878 24.6479 C 10.8306 19.0567 13.5264 15.0995 19.3362 11.2174 C 22.1422 9.3425 26.8727 7.1173 28.927 6.7068 C 29.2076 6.6507 29.4367 6.5443 29.4367 6.4706 C 29.4367 6.173 25.963 2.8984 25.0951 2.3777 C 23.7202 1.5535 21.812 1.1176 19.0771 1.0027 C 15.2707 0.8422 12.496 1.389 9.4948 2.8912 C 5.5729 4.8535 2.9548 7.4214 1.6144 10.619 C 1.2633 11.4556 1.2157 11.8562 1.2131 13.9862 C 1.2098 16.7772 1.5492 18.3578 2.6631 20.7357 C 3.5512 22.6321 4.318 23.4354 6.0258 24.2589 C 7.1469 24.7993 9.3415 25.5634 9.9568 25.628 C 10.0214 25.6352 10.1252 25.1934 10.1878 24.6479 Z "/>
      </g>
    </g>
  </g>
</svg>